%TF.GenerationSoftware,KiCad,Pcbnew,7.0.10*%
%TF.CreationDate,2024-03-10T12:39:34+01:00*%
%TF.ProjectId,double_relay,646f7562-6c65-45f7-9265-6c61792e6b69,rev?*%
%TF.SameCoordinates,Original*%
%TF.FileFunction,Drillmap*%
%TF.FilePolarity,Positive*%
%FSLAX45Y45*%
G04 Gerber Fmt 4.5, Leading zero omitted, Abs format (unit mm)*
G04 Created by KiCad (PCBNEW 7.0.10) date 2024-03-10 12:39:34*
%MOMM*%
%LPD*%
G01*
G04 APERTURE LIST*
%ADD10C,0.100000*%
%ADD11C,0.200000*%
%ADD12C,0.110000*%
%ADD13C,0.120000*%
%ADD14C,0.130000*%
%ADD15C,0.152000*%
G04 APERTURE END LIST*
D10*
X6096000Y-2540000D02*
G75*
G03*
X5588000Y-3048000I0J-508000D01*
G01*
X7562747Y-5119340D02*
G75*
G03*
X7736721Y-5118782I86983J1520D01*
G01*
X12954000Y-3048000D02*
G75*
G03*
X12446000Y-2540000I-508000J0D01*
G01*
X6526705Y-7112000D02*
X6783382Y-7421914D01*
X6690355Y-7112000D02*
X6690355Y-6030008D01*
X8232314Y-5118769D02*
X8232314Y-7025974D01*
X9688606Y-6227954D02*
G75*
G03*
X9366989Y-6227692I-160809J-361D01*
G01*
X11765771Y-8386590D02*
X11765771Y-9086590D01*
X6690355Y-6030008D02*
G75*
G03*
X6526705Y-6030008I-81825J0D01*
G01*
X8232313Y-5118769D02*
G75*
G03*
X7562747Y-5119340I-334783J-919D01*
G01*
X12099099Y-6176422D02*
G75*
G03*
X12273069Y-6175864I86981J1522D01*
G01*
X8058340Y-5119327D02*
X8058340Y-7026532D01*
X6690355Y-7112000D02*
X6947032Y-7421914D01*
X11765771Y-8386590D02*
G75*
G03*
X11602121Y-8386590I-81825J0D01*
G01*
X5588000Y-9398000D02*
G75*
G03*
X6096000Y-9906000I508000J0D01*
G01*
X6783382Y-7421914D02*
X6783382Y-8121914D01*
X9193021Y-6227967D02*
G75*
G03*
X9366987Y-6227409I86979J1547D01*
G01*
X11603492Y-6176435D02*
G75*
G03*
X11777476Y-6175877I86988J1535D01*
G01*
X9198471Y-8432331D02*
X9198471Y-9132331D01*
X12954000Y-3048000D02*
X12954000Y-9398000D01*
X9441000Y-4223000D02*
G75*
G03*
X9101000Y-4223000I-170000J0D01*
G01*
X9101000Y-4223000D02*
G75*
G03*
X9441000Y-4223000I170000J0D01*
G01*
X9362121Y-8432331D02*
X9362121Y-9132331D01*
X8058339Y-5119327D02*
G75*
G03*
X7736723Y-5119064I-160808J-369D01*
G01*
X6947032Y-7421914D02*
X6947032Y-8121914D01*
X12273069Y-6175864D02*
G75*
G03*
X11603502Y-6176435I-334783J-920D01*
G01*
X11602121Y-8386590D02*
X11602121Y-9086590D01*
X6783382Y-8121914D02*
G75*
G03*
X6947033Y-8121914I81825J0D01*
G01*
X9198471Y-9132331D02*
G75*
G03*
X9362121Y-9132331I81825J0D01*
G01*
X11602121Y-9086590D02*
G75*
G03*
X11765771Y-9086590I81825J0D01*
G01*
X9688608Y-6227954D02*
G75*
G03*
X9862580Y-6227396I86982J1524D01*
G01*
X9862580Y-6227396D02*
G75*
G03*
X9193013Y-6227967I-334783J-919D01*
G01*
X9362121Y-8432331D02*
G75*
G03*
X9198471Y-8432331I-81825J0D01*
G01*
X6096000Y-2540000D02*
X12446000Y-2540000D01*
X12446000Y-9906000D02*
G75*
G03*
X12954000Y-9398000I0J508000D01*
G01*
X5588000Y-9398000D02*
X5588000Y-3048000D01*
X8058334Y-7026532D02*
G75*
G03*
X8232314Y-7025974I86986J1532D01*
G01*
X12099103Y-6176422D02*
G75*
G03*
X11777478Y-6176160I-160813J-358D01*
G01*
X6526705Y-7112000D02*
X6526705Y-6030008D01*
X12446000Y-9906000D02*
X6096000Y-9906000D01*
D11*
D10*
X7953023Y-4442013D02*
X8033023Y-4522013D01*
X8033023Y-4442013D02*
X7953023Y-4522013D01*
X8203023Y-4442013D02*
X8283023Y-4522013D01*
X8283023Y-4442013D02*
X8203023Y-4522013D01*
X9106513Y-5345531D02*
X9186513Y-5425531D01*
X9186513Y-5345531D02*
X9106513Y-5425531D01*
X9868513Y-5345531D02*
X9948513Y-5425531D01*
X9948513Y-5345531D02*
X9868513Y-5425531D01*
X10374000Y-5294000D02*
X10454000Y-5374000D01*
X10454000Y-5294000D02*
X10374000Y-5374000D01*
X10374000Y-5802000D02*
X10454000Y-5882000D01*
X10454000Y-5802000D02*
X10374000Y-5882000D01*
X10423268Y-3117741D02*
X10503268Y-3197741D01*
X10503268Y-3117741D02*
X10423268Y-3197741D01*
X10423268Y-3879741D02*
X10503268Y-3959741D01*
X10503268Y-3879741D02*
X10423268Y-3959741D01*
X10628000Y-5548000D02*
X10708000Y-5628000D01*
X10708000Y-5548000D02*
X10628000Y-5628000D01*
X10715816Y-3115283D02*
X10795816Y-3195283D01*
X10795816Y-3115283D02*
X10715816Y-3195283D01*
X10715816Y-3877283D02*
X10795816Y-3957283D01*
X10795816Y-3877283D02*
X10715816Y-3957283D01*
X11008365Y-3115283D02*
X11088365Y-3195283D01*
X11088365Y-3115283D02*
X11008365Y-3195283D01*
X11008365Y-3877283D02*
X11088365Y-3957283D01*
X11088365Y-3877283D02*
X11008365Y-3957283D01*
X11136000Y-5294000D02*
X11216000Y-5374000D01*
X11216000Y-5294000D02*
X11136000Y-5374000D01*
X11898000Y-5294000D02*
X11978000Y-5374000D01*
X11978000Y-5294000D02*
X11898000Y-5374000D01*
X12406000Y-5294000D02*
X12486000Y-5374000D01*
X12486000Y-5294000D02*
X12406000Y-5374000D01*
X12406000Y-5802000D02*
X12486000Y-5882000D01*
X12486000Y-5802000D02*
X12406000Y-5882000D01*
X12660000Y-5548000D02*
X12740000Y-5628000D01*
X12740000Y-5548000D02*
X12660000Y-5628000D01*
X5887284Y-3339786D02*
G75*
G03*
X5787284Y-3339786I-50000J0D01*
G01*
X5787284Y-3339786D02*
G75*
G03*
X5887284Y-3339786I50000J0D01*
G01*
X5892000Y-7366000D02*
G75*
G03*
X5792000Y-7366000I-50000J0D01*
G01*
X5792000Y-7366000D02*
G75*
G03*
X5892000Y-7366000I50000J0D01*
G01*
X6012000Y-6866000D02*
G75*
G03*
X5912000Y-6866000I-50000J0D01*
G01*
X5912000Y-6866000D02*
G75*
G03*
X6012000Y-6866000I50000J0D01*
G01*
X6407284Y-6279786D02*
G75*
G03*
X6307284Y-6279786I-50000J0D01*
G01*
X6307284Y-6279786D02*
G75*
G03*
X6407284Y-6279786I50000J0D01*
G01*
X6408000Y-6738000D02*
G75*
G03*
X6308000Y-6738000I-50000J0D01*
G01*
X6308000Y-6738000D02*
G75*
G03*
X6408000Y-6738000I50000J0D01*
G01*
X6907284Y-6279786D02*
G75*
G03*
X6807284Y-6279786I-50000J0D01*
G01*
X6807284Y-6279786D02*
G75*
G03*
X6907284Y-6279786I50000J0D01*
G01*
X6908000Y-6858000D02*
G75*
G03*
X6808000Y-6858000I-50000J0D01*
G01*
X6808000Y-6858000D02*
G75*
G03*
X6908000Y-6858000I50000J0D01*
G01*
X7427284Y-3339786D02*
G75*
G03*
X7327284Y-3339786I-50000J0D01*
G01*
X7327284Y-3339786D02*
G75*
G03*
X7427284Y-3339786I50000J0D01*
G01*
X8178000Y-2794000D02*
G75*
G03*
X8078000Y-2794000I-50000J0D01*
G01*
X8078000Y-2794000D02*
G75*
G03*
X8178000Y-2794000I50000J0D01*
G01*
X8178000Y-3302000D02*
G75*
G03*
X8078000Y-3302000I-50000J0D01*
G01*
X8078000Y-3302000D02*
G75*
G03*
X8178000Y-3302000I50000J0D01*
G01*
X8178000Y-3810000D02*
G75*
G03*
X8078000Y-3810000I-50000J0D01*
G01*
X8078000Y-3810000D02*
G75*
G03*
X8178000Y-3810000I50000J0D01*
G01*
X8428000Y-2794000D02*
G75*
G03*
X8328000Y-2794000I-50000J0D01*
G01*
X8328000Y-2794000D02*
G75*
G03*
X8428000Y-2794000I50000J0D01*
G01*
X8428000Y-3302000D02*
G75*
G03*
X8328000Y-3302000I-50000J0D01*
G01*
X8328000Y-3302000D02*
G75*
G03*
X8428000Y-3302000I50000J0D01*
G01*
X8428000Y-3810000D02*
G75*
G03*
X8328000Y-3810000I-50000J0D01*
G01*
X8328000Y-3810000D02*
G75*
G03*
X8428000Y-3810000I50000J0D01*
G01*
X8972513Y-6508531D02*
G75*
G03*
X8872513Y-6508531I-50000J0D01*
G01*
X8872513Y-6508531D02*
G75*
G03*
X8972513Y-6508531I50000J0D01*
G01*
X10083000Y-2715500D02*
G75*
G03*
X9983000Y-2715500I-50000J0D01*
G01*
X9983000Y-2715500D02*
G75*
G03*
X10083000Y-2715500I50000J0D01*
G01*
X10083000Y-5001500D02*
G75*
G03*
X9983000Y-5001500I-50000J0D01*
G01*
X9983000Y-5001500D02*
G75*
G03*
X10083000Y-5001500I50000J0D01*
G01*
X10172513Y-6508531D02*
G75*
G03*
X10072513Y-6508531I-50000J0D01*
G01*
X10072513Y-6508531D02*
G75*
G03*
X10172513Y-6508531I50000J0D01*
G01*
X10337000Y-2715500D02*
G75*
G03*
X10237000Y-2715500I-50000J0D01*
G01*
X10237000Y-2715500D02*
G75*
G03*
X10337000Y-2715500I50000J0D01*
G01*
X10337000Y-5001500D02*
G75*
G03*
X10237000Y-5001500I-50000J0D01*
G01*
X10237000Y-5001500D02*
G75*
G03*
X10337000Y-5001500I50000J0D01*
G01*
X10591000Y-2715500D02*
G75*
G03*
X10491000Y-2715500I-50000J0D01*
G01*
X10491000Y-2715500D02*
G75*
G03*
X10591000Y-2715500I50000J0D01*
G01*
X10591000Y-5001500D02*
G75*
G03*
X10491000Y-5001500I-50000J0D01*
G01*
X10491000Y-5001500D02*
G75*
G03*
X10591000Y-5001500I50000J0D01*
G01*
X10845000Y-2715500D02*
G75*
G03*
X10745000Y-2715500I-50000J0D01*
G01*
X10745000Y-2715500D02*
G75*
G03*
X10845000Y-2715500I50000J0D01*
G01*
X10845000Y-5001500D02*
G75*
G03*
X10745000Y-5001500I-50000J0D01*
G01*
X10745000Y-5001500D02*
G75*
G03*
X10845000Y-5001500I50000J0D01*
G01*
X11099000Y-2715500D02*
G75*
G03*
X10999000Y-2715500I-50000J0D01*
G01*
X10999000Y-2715500D02*
G75*
G03*
X11099000Y-2715500I50000J0D01*
G01*
X11099000Y-5001500D02*
G75*
G03*
X10999000Y-5001500I-50000J0D01*
G01*
X10999000Y-5001500D02*
G75*
G03*
X11099000Y-5001500I50000J0D01*
G01*
X11353000Y-2715500D02*
G75*
G03*
X11253000Y-2715500I-50000J0D01*
G01*
X11253000Y-2715500D02*
G75*
G03*
X11353000Y-2715500I50000J0D01*
G01*
X11353000Y-5001500D02*
G75*
G03*
X11253000Y-5001500I-50000J0D01*
G01*
X11253000Y-5001500D02*
G75*
G03*
X11353000Y-5001500I50000J0D01*
G01*
X11383000Y-6457000D02*
G75*
G03*
X11283000Y-6457000I-50000J0D01*
G01*
X11283000Y-6457000D02*
G75*
G03*
X11383000Y-6457000I50000J0D01*
G01*
X11607000Y-2715500D02*
G75*
G03*
X11507000Y-2715500I-50000J0D01*
G01*
X11507000Y-2715500D02*
G75*
G03*
X11607000Y-2715500I50000J0D01*
G01*
X11607000Y-5001500D02*
G75*
G03*
X11507000Y-5001500I-50000J0D01*
G01*
X11507000Y-5001500D02*
G75*
G03*
X11607000Y-5001500I50000J0D01*
G01*
X11861000Y-2715500D02*
G75*
G03*
X11761000Y-2715500I-50000J0D01*
G01*
X11761000Y-2715500D02*
G75*
G03*
X11861000Y-2715500I50000J0D01*
G01*
X11861000Y-5001500D02*
G75*
G03*
X11761000Y-5001500I-50000J0D01*
G01*
X11761000Y-5001500D02*
G75*
G03*
X11861000Y-5001500I50000J0D01*
G01*
X12583000Y-6457000D02*
G75*
G03*
X12483000Y-6457000I-50000J0D01*
G01*
X12483000Y-6457000D02*
G75*
G03*
X12583000Y-6457000I50000J0D01*
G01*
D12*
X9139134Y-5680153D02*
X9139134Y-5790153D01*
X9084134Y-5735153D02*
X9194134Y-5735153D01*
X9901134Y-5680153D02*
X9901134Y-5790153D01*
X9846134Y-5735153D02*
X9956134Y-5735153D01*
X11189116Y-5628622D02*
X11189116Y-5738622D01*
X11134116Y-5683622D02*
X11244116Y-5683622D01*
X11951116Y-5628622D02*
X11951116Y-5738622D01*
X11896116Y-5683622D02*
X12006116Y-5683622D01*
D13*
X7937617Y-5167978D02*
X7937617Y-5083125D01*
X7852763Y-5083125D01*
X7852763Y-5167978D01*
X7937617Y-5167978D01*
X7937617Y-6691978D02*
X7937617Y-6607125D01*
X7852763Y-6607125D01*
X7852763Y-6691978D01*
X7937617Y-6691978D01*
D14*
X8922513Y-7793531D02*
X8987513Y-7728531D01*
X8922513Y-7663531D01*
X8857513Y-7728531D01*
X8922513Y-7793531D01*
X9527513Y-6378531D02*
X9592513Y-6313531D01*
X9527513Y-6248531D01*
X9462513Y-6313531D01*
X9527513Y-6378531D01*
X10127513Y-7798531D02*
X10192513Y-7733531D01*
X10127513Y-7668531D01*
X10062513Y-7733531D01*
X10127513Y-7798531D01*
X11333000Y-7742000D02*
X11398000Y-7677000D01*
X11333000Y-7612000D01*
X11268000Y-7677000D01*
X11333000Y-7742000D01*
X11938000Y-6327000D02*
X12003000Y-6262000D01*
X11938000Y-6197000D01*
X11873000Y-6262000D01*
X11938000Y-6327000D01*
X12538000Y-7747000D02*
X12603000Y-7682000D01*
X12538000Y-7617000D01*
X12473000Y-7682000D01*
X12538000Y-7747000D01*
D15*
X6528665Y-7604803D02*
X6680665Y-7756803D01*
X6680665Y-7604803D02*
X6528665Y-7756803D01*
X6680665Y-7680803D02*
G75*
G03*
X6528665Y-7680803I-76000J0D01*
G01*
X6528665Y-7680803D02*
G75*
G03*
X6680665Y-7680803I76000J0D01*
G01*
X7036665Y-7604803D02*
X7188665Y-7756803D01*
X7188665Y-7604803D02*
X7036665Y-7756803D01*
X7188665Y-7680803D02*
G75*
G03*
X7036665Y-7680803I-76000J0D01*
G01*
X7036665Y-7680803D02*
G75*
G03*
X7188665Y-7680803I76000J0D01*
G01*
X8943513Y-8611531D02*
X9095513Y-8763531D01*
X9095513Y-8611531D02*
X8943513Y-8763531D01*
X9095513Y-8687531D02*
G75*
G03*
X8943513Y-8687531I-76000J0D01*
G01*
X8943513Y-8687531D02*
G75*
G03*
X9095513Y-8687531I76000J0D01*
G01*
X9451513Y-8611531D02*
X9603513Y-8763531D01*
X9603513Y-8611531D02*
X9451513Y-8763531D01*
X9603513Y-8687531D02*
G75*
G03*
X9451513Y-8687531I-76000J0D01*
G01*
X9451513Y-8687531D02*
G75*
G03*
X9603513Y-8687531I76000J0D01*
G01*
X11354000Y-8560000D02*
X11506000Y-8712000D01*
X11506000Y-8560000D02*
X11354000Y-8712000D01*
X11506000Y-8636000D02*
G75*
G03*
X11354000Y-8636000I-76000J0D01*
G01*
X11354000Y-8636000D02*
G75*
G03*
X11506000Y-8636000I76000J0D01*
G01*
X11862000Y-8560000D02*
X12014000Y-8712000D01*
X12014000Y-8560000D02*
X11862000Y-8712000D01*
X12014000Y-8636000D02*
G75*
G03*
X11862000Y-8636000I-76000J0D01*
G01*
X11862000Y-8636000D02*
G75*
G03*
X12014000Y-8636000I76000J0D01*
G01*
D11*
X5843777Y-10222484D02*
X5843777Y-10022484D01*
X5843777Y-10022484D02*
X5891396Y-10022484D01*
X5891396Y-10022484D02*
X5919967Y-10032008D01*
X5919967Y-10032008D02*
X5939015Y-10051055D01*
X5939015Y-10051055D02*
X5948539Y-10070103D01*
X5948539Y-10070103D02*
X5958062Y-10108198D01*
X5958062Y-10108198D02*
X5958062Y-10136770D01*
X5958062Y-10136770D02*
X5948539Y-10174865D01*
X5948539Y-10174865D02*
X5939015Y-10193912D01*
X5939015Y-10193912D02*
X5919967Y-10212960D01*
X5919967Y-10212960D02*
X5891396Y-10222484D01*
X5891396Y-10222484D02*
X5843777Y-10222484D01*
X6043777Y-10222484D02*
X6043777Y-10089150D01*
X6043777Y-10127246D02*
X6053301Y-10108198D01*
X6053301Y-10108198D02*
X6062824Y-10098674D01*
X6062824Y-10098674D02*
X6081872Y-10089150D01*
X6081872Y-10089150D02*
X6100920Y-10089150D01*
X6167586Y-10222484D02*
X6167586Y-10089150D01*
X6167586Y-10022484D02*
X6158062Y-10032008D01*
X6158062Y-10032008D02*
X6167586Y-10041531D01*
X6167586Y-10041531D02*
X6177110Y-10032008D01*
X6177110Y-10032008D02*
X6167586Y-10022484D01*
X6167586Y-10022484D02*
X6167586Y-10041531D01*
X6291396Y-10222484D02*
X6272348Y-10212960D01*
X6272348Y-10212960D02*
X6262824Y-10193912D01*
X6262824Y-10193912D02*
X6262824Y-10022484D01*
X6396158Y-10222484D02*
X6377110Y-10212960D01*
X6377110Y-10212960D02*
X6367586Y-10193912D01*
X6367586Y-10193912D02*
X6367586Y-10022484D01*
X6624729Y-10222484D02*
X6624729Y-10022484D01*
X6624729Y-10022484D02*
X6691396Y-10165341D01*
X6691396Y-10165341D02*
X6758062Y-10022484D01*
X6758062Y-10022484D02*
X6758062Y-10222484D01*
X6939015Y-10222484D02*
X6939015Y-10117722D01*
X6939015Y-10117722D02*
X6929491Y-10098674D01*
X6929491Y-10098674D02*
X6910443Y-10089150D01*
X6910443Y-10089150D02*
X6872348Y-10089150D01*
X6872348Y-10089150D02*
X6853301Y-10098674D01*
X6939015Y-10212960D02*
X6919967Y-10222484D01*
X6919967Y-10222484D02*
X6872348Y-10222484D01*
X6872348Y-10222484D02*
X6853301Y-10212960D01*
X6853301Y-10212960D02*
X6843777Y-10193912D01*
X6843777Y-10193912D02*
X6843777Y-10174865D01*
X6843777Y-10174865D02*
X6853301Y-10155817D01*
X6853301Y-10155817D02*
X6872348Y-10146293D01*
X6872348Y-10146293D02*
X6919967Y-10146293D01*
X6919967Y-10146293D02*
X6939015Y-10136770D01*
X7034253Y-10089150D02*
X7034253Y-10289150D01*
X7034253Y-10098674D02*
X7053301Y-10089150D01*
X7053301Y-10089150D02*
X7091396Y-10089150D01*
X7091396Y-10089150D02*
X7110443Y-10098674D01*
X7110443Y-10098674D02*
X7119967Y-10108198D01*
X7119967Y-10108198D02*
X7129491Y-10127246D01*
X7129491Y-10127246D02*
X7129491Y-10184389D01*
X7129491Y-10184389D02*
X7119967Y-10203436D01*
X7119967Y-10203436D02*
X7110443Y-10212960D01*
X7110443Y-10212960D02*
X7091396Y-10222484D01*
X7091396Y-10222484D02*
X7053301Y-10222484D01*
X7053301Y-10222484D02*
X7034253Y-10212960D01*
X7215205Y-10203436D02*
X7224729Y-10212960D01*
X7224729Y-10212960D02*
X7215205Y-10222484D01*
X7215205Y-10222484D02*
X7205682Y-10212960D01*
X7205682Y-10212960D02*
X7215205Y-10203436D01*
X7215205Y-10203436D02*
X7215205Y-10222484D01*
X7215205Y-10098674D02*
X7224729Y-10108198D01*
X7224729Y-10108198D02*
X7215205Y-10117722D01*
X7215205Y-10117722D02*
X7205682Y-10108198D01*
X7205682Y-10108198D02*
X7215205Y-10098674D01*
X7215205Y-10098674D02*
X7215205Y-10117722D01*
D10*
X5503000Y-10511000D02*
X5583000Y-10591000D01*
X5583000Y-10511000D02*
X5503000Y-10591000D01*
D11*
X5881872Y-10442484D02*
X5900920Y-10442484D01*
X5900920Y-10442484D02*
X5919967Y-10452008D01*
X5919967Y-10452008D02*
X5929491Y-10461531D01*
X5929491Y-10461531D02*
X5939015Y-10480579D01*
X5939015Y-10480579D02*
X5948539Y-10518674D01*
X5948539Y-10518674D02*
X5948539Y-10566293D01*
X5948539Y-10566293D02*
X5939015Y-10604389D01*
X5939015Y-10604389D02*
X5929491Y-10623436D01*
X5929491Y-10623436D02*
X5919967Y-10632960D01*
X5919967Y-10632960D02*
X5900920Y-10642484D01*
X5900920Y-10642484D02*
X5881872Y-10642484D01*
X5881872Y-10642484D02*
X5862824Y-10632960D01*
X5862824Y-10632960D02*
X5853301Y-10623436D01*
X5853301Y-10623436D02*
X5843777Y-10604389D01*
X5843777Y-10604389D02*
X5834253Y-10566293D01*
X5834253Y-10566293D02*
X5834253Y-10518674D01*
X5834253Y-10518674D02*
X5843777Y-10480579D01*
X5843777Y-10480579D02*
X5853301Y-10461531D01*
X5853301Y-10461531D02*
X5862824Y-10452008D01*
X5862824Y-10452008D02*
X5881872Y-10442484D01*
X6034253Y-10623436D02*
X6043777Y-10632960D01*
X6043777Y-10632960D02*
X6034253Y-10642484D01*
X6034253Y-10642484D02*
X6024729Y-10632960D01*
X6024729Y-10632960D02*
X6034253Y-10623436D01*
X6034253Y-10623436D02*
X6034253Y-10642484D01*
X6158062Y-10528198D02*
X6139015Y-10518674D01*
X6139015Y-10518674D02*
X6129491Y-10509150D01*
X6129491Y-10509150D02*
X6119967Y-10490103D01*
X6119967Y-10490103D02*
X6119967Y-10480579D01*
X6119967Y-10480579D02*
X6129491Y-10461531D01*
X6129491Y-10461531D02*
X6139015Y-10452008D01*
X6139015Y-10452008D02*
X6158062Y-10442484D01*
X6158062Y-10442484D02*
X6196158Y-10442484D01*
X6196158Y-10442484D02*
X6215205Y-10452008D01*
X6215205Y-10452008D02*
X6224729Y-10461531D01*
X6224729Y-10461531D02*
X6234253Y-10480579D01*
X6234253Y-10480579D02*
X6234253Y-10490103D01*
X6234253Y-10490103D02*
X6224729Y-10509150D01*
X6224729Y-10509150D02*
X6215205Y-10518674D01*
X6215205Y-10518674D02*
X6196158Y-10528198D01*
X6196158Y-10528198D02*
X6158062Y-10528198D01*
X6158062Y-10528198D02*
X6139015Y-10537722D01*
X6139015Y-10537722D02*
X6129491Y-10547246D01*
X6129491Y-10547246D02*
X6119967Y-10566293D01*
X6119967Y-10566293D02*
X6119967Y-10604389D01*
X6119967Y-10604389D02*
X6129491Y-10623436D01*
X6129491Y-10623436D02*
X6139015Y-10632960D01*
X6139015Y-10632960D02*
X6158062Y-10642484D01*
X6158062Y-10642484D02*
X6196158Y-10642484D01*
X6196158Y-10642484D02*
X6215205Y-10632960D01*
X6215205Y-10632960D02*
X6224729Y-10623436D01*
X6224729Y-10623436D02*
X6234253Y-10604389D01*
X6234253Y-10604389D02*
X6234253Y-10566293D01*
X6234253Y-10566293D02*
X6224729Y-10547246D01*
X6224729Y-10547246D02*
X6215205Y-10537722D01*
X6215205Y-10537722D02*
X6196158Y-10528198D01*
X6358062Y-10442484D02*
X6377110Y-10442484D01*
X6377110Y-10442484D02*
X6396158Y-10452008D01*
X6396158Y-10452008D02*
X6405682Y-10461531D01*
X6405682Y-10461531D02*
X6415205Y-10480579D01*
X6415205Y-10480579D02*
X6424729Y-10518674D01*
X6424729Y-10518674D02*
X6424729Y-10566293D01*
X6424729Y-10566293D02*
X6415205Y-10604389D01*
X6415205Y-10604389D02*
X6405682Y-10623436D01*
X6405682Y-10623436D02*
X6396158Y-10632960D01*
X6396158Y-10632960D02*
X6377110Y-10642484D01*
X6377110Y-10642484D02*
X6358062Y-10642484D01*
X6358062Y-10642484D02*
X6339015Y-10632960D01*
X6339015Y-10632960D02*
X6329491Y-10623436D01*
X6329491Y-10623436D02*
X6319967Y-10604389D01*
X6319967Y-10604389D02*
X6310443Y-10566293D01*
X6310443Y-10566293D02*
X6310443Y-10518674D01*
X6310443Y-10518674D02*
X6319967Y-10480579D01*
X6319967Y-10480579D02*
X6329491Y-10461531D01*
X6329491Y-10461531D02*
X6339015Y-10452008D01*
X6339015Y-10452008D02*
X6358062Y-10442484D01*
X6548539Y-10442484D02*
X6567586Y-10442484D01*
X6567586Y-10442484D02*
X6586634Y-10452008D01*
X6586634Y-10452008D02*
X6596158Y-10461531D01*
X6596158Y-10461531D02*
X6605682Y-10480579D01*
X6605682Y-10480579D02*
X6615205Y-10518674D01*
X6615205Y-10518674D02*
X6615205Y-10566293D01*
X6615205Y-10566293D02*
X6605682Y-10604389D01*
X6605682Y-10604389D02*
X6596158Y-10623436D01*
X6596158Y-10623436D02*
X6586634Y-10632960D01*
X6586634Y-10632960D02*
X6567586Y-10642484D01*
X6567586Y-10642484D02*
X6548539Y-10642484D01*
X6548539Y-10642484D02*
X6529491Y-10632960D01*
X6529491Y-10632960D02*
X6519967Y-10623436D01*
X6519967Y-10623436D02*
X6510443Y-10604389D01*
X6510443Y-10604389D02*
X6500920Y-10566293D01*
X6500920Y-10566293D02*
X6500920Y-10518674D01*
X6500920Y-10518674D02*
X6510443Y-10480579D01*
X6510443Y-10480579D02*
X6519967Y-10461531D01*
X6519967Y-10461531D02*
X6529491Y-10452008D01*
X6529491Y-10452008D02*
X6548539Y-10442484D01*
X6700920Y-10642484D02*
X6700920Y-10509150D01*
X6700920Y-10528198D02*
X6710443Y-10518674D01*
X6710443Y-10518674D02*
X6729491Y-10509150D01*
X6729491Y-10509150D02*
X6758063Y-10509150D01*
X6758063Y-10509150D02*
X6777110Y-10518674D01*
X6777110Y-10518674D02*
X6786634Y-10537722D01*
X6786634Y-10537722D02*
X6786634Y-10642484D01*
X6786634Y-10537722D02*
X6796158Y-10518674D01*
X6796158Y-10518674D02*
X6815205Y-10509150D01*
X6815205Y-10509150D02*
X6843777Y-10509150D01*
X6843777Y-10509150D02*
X6862824Y-10518674D01*
X6862824Y-10518674D02*
X6872348Y-10537722D01*
X6872348Y-10537722D02*
X6872348Y-10642484D01*
X6967586Y-10642484D02*
X6967586Y-10509150D01*
X6967586Y-10528198D02*
X6977110Y-10518674D01*
X6977110Y-10518674D02*
X6996158Y-10509150D01*
X6996158Y-10509150D02*
X7024729Y-10509150D01*
X7024729Y-10509150D02*
X7043777Y-10518674D01*
X7043777Y-10518674D02*
X7053301Y-10537722D01*
X7053301Y-10537722D02*
X7053301Y-10642484D01*
X7053301Y-10537722D02*
X7062824Y-10518674D01*
X7062824Y-10518674D02*
X7081872Y-10509150D01*
X7081872Y-10509150D02*
X7110443Y-10509150D01*
X7110443Y-10509150D02*
X7129491Y-10518674D01*
X7129491Y-10518674D02*
X7139015Y-10537722D01*
X7139015Y-10537722D02*
X7139015Y-10642484D01*
X7529491Y-10432960D02*
X7358063Y-10690103D01*
X7786634Y-10442484D02*
X7805682Y-10442484D01*
X7805682Y-10442484D02*
X7824729Y-10452008D01*
X7824729Y-10452008D02*
X7834253Y-10461531D01*
X7834253Y-10461531D02*
X7843777Y-10480579D01*
X7843777Y-10480579D02*
X7853301Y-10518674D01*
X7853301Y-10518674D02*
X7853301Y-10566293D01*
X7853301Y-10566293D02*
X7843777Y-10604389D01*
X7843777Y-10604389D02*
X7834253Y-10623436D01*
X7834253Y-10623436D02*
X7824729Y-10632960D01*
X7824729Y-10632960D02*
X7805682Y-10642484D01*
X7805682Y-10642484D02*
X7786634Y-10642484D01*
X7786634Y-10642484D02*
X7767586Y-10632960D01*
X7767586Y-10632960D02*
X7758063Y-10623436D01*
X7758063Y-10623436D02*
X7748539Y-10604389D01*
X7748539Y-10604389D02*
X7739015Y-10566293D01*
X7739015Y-10566293D02*
X7739015Y-10518674D01*
X7739015Y-10518674D02*
X7748539Y-10480579D01*
X7748539Y-10480579D02*
X7758063Y-10461531D01*
X7758063Y-10461531D02*
X7767586Y-10452008D01*
X7767586Y-10452008D02*
X7786634Y-10442484D01*
X7939015Y-10623436D02*
X7948539Y-10632960D01*
X7948539Y-10632960D02*
X7939015Y-10642484D01*
X7939015Y-10642484D02*
X7929491Y-10632960D01*
X7929491Y-10632960D02*
X7939015Y-10623436D01*
X7939015Y-10623436D02*
X7939015Y-10642484D01*
X8072348Y-10442484D02*
X8091396Y-10442484D01*
X8091396Y-10442484D02*
X8110444Y-10452008D01*
X8110444Y-10452008D02*
X8119967Y-10461531D01*
X8119967Y-10461531D02*
X8129491Y-10480579D01*
X8129491Y-10480579D02*
X8139015Y-10518674D01*
X8139015Y-10518674D02*
X8139015Y-10566293D01*
X8139015Y-10566293D02*
X8129491Y-10604389D01*
X8129491Y-10604389D02*
X8119967Y-10623436D01*
X8119967Y-10623436D02*
X8110444Y-10632960D01*
X8110444Y-10632960D02*
X8091396Y-10642484D01*
X8091396Y-10642484D02*
X8072348Y-10642484D01*
X8072348Y-10642484D02*
X8053301Y-10632960D01*
X8053301Y-10632960D02*
X8043777Y-10623436D01*
X8043777Y-10623436D02*
X8034253Y-10604389D01*
X8034253Y-10604389D02*
X8024729Y-10566293D01*
X8024729Y-10566293D02*
X8024729Y-10518674D01*
X8024729Y-10518674D02*
X8034253Y-10480579D01*
X8034253Y-10480579D02*
X8043777Y-10461531D01*
X8043777Y-10461531D02*
X8053301Y-10452008D01*
X8053301Y-10452008D02*
X8072348Y-10442484D01*
X8205682Y-10442484D02*
X8329491Y-10442484D01*
X8329491Y-10442484D02*
X8262825Y-10518674D01*
X8262825Y-10518674D02*
X8291396Y-10518674D01*
X8291396Y-10518674D02*
X8310444Y-10528198D01*
X8310444Y-10528198D02*
X8319967Y-10537722D01*
X8319967Y-10537722D02*
X8329491Y-10556770D01*
X8329491Y-10556770D02*
X8329491Y-10604389D01*
X8329491Y-10604389D02*
X8319967Y-10623436D01*
X8319967Y-10623436D02*
X8310444Y-10632960D01*
X8310444Y-10632960D02*
X8291396Y-10642484D01*
X8291396Y-10642484D02*
X8234253Y-10642484D01*
X8234253Y-10642484D02*
X8215206Y-10632960D01*
X8215206Y-10632960D02*
X8205682Y-10623436D01*
X8519968Y-10642484D02*
X8405682Y-10642484D01*
X8462825Y-10642484D02*
X8462825Y-10442484D01*
X8462825Y-10442484D02*
X8443777Y-10471055D01*
X8443777Y-10471055D02*
X8424729Y-10490103D01*
X8424729Y-10490103D02*
X8405682Y-10499627D01*
X8700920Y-10442484D02*
X8605682Y-10442484D01*
X8605682Y-10442484D02*
X8596158Y-10537722D01*
X8596158Y-10537722D02*
X8605682Y-10528198D01*
X8605682Y-10528198D02*
X8624729Y-10518674D01*
X8624729Y-10518674D02*
X8672349Y-10518674D01*
X8672349Y-10518674D02*
X8691396Y-10528198D01*
X8691396Y-10528198D02*
X8700920Y-10537722D01*
X8700920Y-10537722D02*
X8710444Y-10556770D01*
X8710444Y-10556770D02*
X8710444Y-10604389D01*
X8710444Y-10604389D02*
X8700920Y-10623436D01*
X8700920Y-10623436D02*
X8691396Y-10632960D01*
X8691396Y-10632960D02*
X8672349Y-10642484D01*
X8672349Y-10642484D02*
X8624729Y-10642484D01*
X8624729Y-10642484D02*
X8605682Y-10632960D01*
X8605682Y-10632960D02*
X8596158Y-10623436D01*
X8786634Y-10442484D02*
X8786634Y-10480579D01*
X8862825Y-10442484D02*
X8862825Y-10480579D01*
X9158063Y-10718674D02*
X9148539Y-10709150D01*
X9148539Y-10709150D02*
X9129491Y-10680579D01*
X9129491Y-10680579D02*
X9119968Y-10661531D01*
X9119968Y-10661531D02*
X9110444Y-10632960D01*
X9110444Y-10632960D02*
X9100920Y-10585341D01*
X9100920Y-10585341D02*
X9100920Y-10547246D01*
X9100920Y-10547246D02*
X9110444Y-10499627D01*
X9110444Y-10499627D02*
X9119968Y-10471055D01*
X9119968Y-10471055D02*
X9129491Y-10452008D01*
X9129491Y-10452008D02*
X9148539Y-10423436D01*
X9148539Y-10423436D02*
X9158063Y-10413912D01*
X9339015Y-10642484D02*
X9224730Y-10642484D01*
X9281872Y-10642484D02*
X9281872Y-10442484D01*
X9281872Y-10442484D02*
X9262825Y-10471055D01*
X9262825Y-10471055D02*
X9243777Y-10490103D01*
X9243777Y-10490103D02*
X9224730Y-10499627D01*
X9453301Y-10528198D02*
X9434253Y-10518674D01*
X9434253Y-10518674D02*
X9424730Y-10509150D01*
X9424730Y-10509150D02*
X9415206Y-10490103D01*
X9415206Y-10490103D02*
X9415206Y-10480579D01*
X9415206Y-10480579D02*
X9424730Y-10461531D01*
X9424730Y-10461531D02*
X9434253Y-10452008D01*
X9434253Y-10452008D02*
X9453301Y-10442484D01*
X9453301Y-10442484D02*
X9491396Y-10442484D01*
X9491396Y-10442484D02*
X9510444Y-10452008D01*
X9510444Y-10452008D02*
X9519968Y-10461531D01*
X9519968Y-10461531D02*
X9529491Y-10480579D01*
X9529491Y-10480579D02*
X9529491Y-10490103D01*
X9529491Y-10490103D02*
X9519968Y-10509150D01*
X9519968Y-10509150D02*
X9510444Y-10518674D01*
X9510444Y-10518674D02*
X9491396Y-10528198D01*
X9491396Y-10528198D02*
X9453301Y-10528198D01*
X9453301Y-10528198D02*
X9434253Y-10537722D01*
X9434253Y-10537722D02*
X9424730Y-10547246D01*
X9424730Y-10547246D02*
X9415206Y-10566293D01*
X9415206Y-10566293D02*
X9415206Y-10604389D01*
X9415206Y-10604389D02*
X9424730Y-10623436D01*
X9424730Y-10623436D02*
X9434253Y-10632960D01*
X9434253Y-10632960D02*
X9453301Y-10642484D01*
X9453301Y-10642484D02*
X9491396Y-10642484D01*
X9491396Y-10642484D02*
X9510444Y-10632960D01*
X9510444Y-10632960D02*
X9519968Y-10623436D01*
X9519968Y-10623436D02*
X9529491Y-10604389D01*
X9529491Y-10604389D02*
X9529491Y-10566293D01*
X9529491Y-10566293D02*
X9519968Y-10547246D01*
X9519968Y-10547246D02*
X9510444Y-10537722D01*
X9510444Y-10537722D02*
X9491396Y-10528198D01*
X9767587Y-10642484D02*
X9767587Y-10442484D01*
X9853301Y-10642484D02*
X9853301Y-10537722D01*
X9853301Y-10537722D02*
X9843777Y-10518674D01*
X9843777Y-10518674D02*
X9824730Y-10509150D01*
X9824730Y-10509150D02*
X9796158Y-10509150D01*
X9796158Y-10509150D02*
X9777111Y-10518674D01*
X9777111Y-10518674D02*
X9767587Y-10528198D01*
X9977111Y-10642484D02*
X9958063Y-10632960D01*
X9958063Y-10632960D02*
X9948539Y-10623436D01*
X9948539Y-10623436D02*
X9939015Y-10604389D01*
X9939015Y-10604389D02*
X9939015Y-10547246D01*
X9939015Y-10547246D02*
X9948539Y-10528198D01*
X9948539Y-10528198D02*
X9958063Y-10518674D01*
X9958063Y-10518674D02*
X9977111Y-10509150D01*
X9977111Y-10509150D02*
X10005682Y-10509150D01*
X10005682Y-10509150D02*
X10024730Y-10518674D01*
X10024730Y-10518674D02*
X10034253Y-10528198D01*
X10034253Y-10528198D02*
X10043777Y-10547246D01*
X10043777Y-10547246D02*
X10043777Y-10604389D01*
X10043777Y-10604389D02*
X10034253Y-10623436D01*
X10034253Y-10623436D02*
X10024730Y-10632960D01*
X10024730Y-10632960D02*
X10005682Y-10642484D01*
X10005682Y-10642484D02*
X9977111Y-10642484D01*
X10158063Y-10642484D02*
X10139015Y-10632960D01*
X10139015Y-10632960D02*
X10129492Y-10613912D01*
X10129492Y-10613912D02*
X10129492Y-10442484D01*
X10310444Y-10632960D02*
X10291396Y-10642484D01*
X10291396Y-10642484D02*
X10253301Y-10642484D01*
X10253301Y-10642484D02*
X10234253Y-10632960D01*
X10234253Y-10632960D02*
X10224730Y-10613912D01*
X10224730Y-10613912D02*
X10224730Y-10537722D01*
X10224730Y-10537722D02*
X10234253Y-10518674D01*
X10234253Y-10518674D02*
X10253301Y-10509150D01*
X10253301Y-10509150D02*
X10291396Y-10509150D01*
X10291396Y-10509150D02*
X10310444Y-10518674D01*
X10310444Y-10518674D02*
X10319968Y-10537722D01*
X10319968Y-10537722D02*
X10319968Y-10556770D01*
X10319968Y-10556770D02*
X10224730Y-10575817D01*
X10396158Y-10632960D02*
X10415206Y-10642484D01*
X10415206Y-10642484D02*
X10453301Y-10642484D01*
X10453301Y-10642484D02*
X10472349Y-10632960D01*
X10472349Y-10632960D02*
X10481873Y-10613912D01*
X10481873Y-10613912D02*
X10481873Y-10604389D01*
X10481873Y-10604389D02*
X10472349Y-10585341D01*
X10472349Y-10585341D02*
X10453301Y-10575817D01*
X10453301Y-10575817D02*
X10424730Y-10575817D01*
X10424730Y-10575817D02*
X10405682Y-10566293D01*
X10405682Y-10566293D02*
X10396158Y-10547246D01*
X10396158Y-10547246D02*
X10396158Y-10537722D01*
X10396158Y-10537722D02*
X10405682Y-10518674D01*
X10405682Y-10518674D02*
X10424730Y-10509150D01*
X10424730Y-10509150D02*
X10453301Y-10509150D01*
X10453301Y-10509150D02*
X10472349Y-10518674D01*
X10548539Y-10718674D02*
X10558063Y-10709150D01*
X10558063Y-10709150D02*
X10577111Y-10680579D01*
X10577111Y-10680579D02*
X10586634Y-10661531D01*
X10586634Y-10661531D02*
X10596158Y-10632960D01*
X10596158Y-10632960D02*
X10605682Y-10585341D01*
X10605682Y-10585341D02*
X10605682Y-10547246D01*
X10605682Y-10547246D02*
X10596158Y-10499627D01*
X10596158Y-10499627D02*
X10586634Y-10471055D01*
X10586634Y-10471055D02*
X10577111Y-10452008D01*
X10577111Y-10452008D02*
X10558063Y-10423436D01*
X10558063Y-10423436D02*
X10548539Y-10413912D01*
D10*
X5583000Y-10815000D02*
G75*
G03*
X5483000Y-10815000I-50000J0D01*
G01*
X5483000Y-10815000D02*
G75*
G03*
X5583000Y-10815000I50000J0D01*
G01*
D11*
X5948539Y-10906484D02*
X5834253Y-10906484D01*
X5891396Y-10906484D02*
X5891396Y-10706484D01*
X5891396Y-10706484D02*
X5872348Y-10735055D01*
X5872348Y-10735055D02*
X5853301Y-10754103D01*
X5853301Y-10754103D02*
X5834253Y-10763627D01*
X6034253Y-10887436D02*
X6043777Y-10896960D01*
X6043777Y-10896960D02*
X6034253Y-10906484D01*
X6034253Y-10906484D02*
X6024729Y-10896960D01*
X6024729Y-10896960D02*
X6034253Y-10887436D01*
X6034253Y-10887436D02*
X6034253Y-10906484D01*
X6167586Y-10706484D02*
X6186634Y-10706484D01*
X6186634Y-10706484D02*
X6205682Y-10716008D01*
X6205682Y-10716008D02*
X6215205Y-10725531D01*
X6215205Y-10725531D02*
X6224729Y-10744579D01*
X6224729Y-10744579D02*
X6234253Y-10782674D01*
X6234253Y-10782674D02*
X6234253Y-10830293D01*
X6234253Y-10830293D02*
X6224729Y-10868389D01*
X6224729Y-10868389D02*
X6215205Y-10887436D01*
X6215205Y-10887436D02*
X6205682Y-10896960D01*
X6205682Y-10896960D02*
X6186634Y-10906484D01*
X6186634Y-10906484D02*
X6167586Y-10906484D01*
X6167586Y-10906484D02*
X6148539Y-10896960D01*
X6148539Y-10896960D02*
X6139015Y-10887436D01*
X6139015Y-10887436D02*
X6129491Y-10868389D01*
X6129491Y-10868389D02*
X6119967Y-10830293D01*
X6119967Y-10830293D02*
X6119967Y-10782674D01*
X6119967Y-10782674D02*
X6129491Y-10744579D01*
X6129491Y-10744579D02*
X6139015Y-10725531D01*
X6139015Y-10725531D02*
X6148539Y-10716008D01*
X6148539Y-10716008D02*
X6167586Y-10706484D01*
X6358062Y-10706484D02*
X6377110Y-10706484D01*
X6377110Y-10706484D02*
X6396158Y-10716008D01*
X6396158Y-10716008D02*
X6405682Y-10725531D01*
X6405682Y-10725531D02*
X6415205Y-10744579D01*
X6415205Y-10744579D02*
X6424729Y-10782674D01*
X6424729Y-10782674D02*
X6424729Y-10830293D01*
X6424729Y-10830293D02*
X6415205Y-10868389D01*
X6415205Y-10868389D02*
X6405682Y-10887436D01*
X6405682Y-10887436D02*
X6396158Y-10896960D01*
X6396158Y-10896960D02*
X6377110Y-10906484D01*
X6377110Y-10906484D02*
X6358062Y-10906484D01*
X6358062Y-10906484D02*
X6339015Y-10896960D01*
X6339015Y-10896960D02*
X6329491Y-10887436D01*
X6329491Y-10887436D02*
X6319967Y-10868389D01*
X6319967Y-10868389D02*
X6310443Y-10830293D01*
X6310443Y-10830293D02*
X6310443Y-10782674D01*
X6310443Y-10782674D02*
X6319967Y-10744579D01*
X6319967Y-10744579D02*
X6329491Y-10725531D01*
X6329491Y-10725531D02*
X6339015Y-10716008D01*
X6339015Y-10716008D02*
X6358062Y-10706484D01*
X6548539Y-10706484D02*
X6567586Y-10706484D01*
X6567586Y-10706484D02*
X6586634Y-10716008D01*
X6586634Y-10716008D02*
X6596158Y-10725531D01*
X6596158Y-10725531D02*
X6605682Y-10744579D01*
X6605682Y-10744579D02*
X6615205Y-10782674D01*
X6615205Y-10782674D02*
X6615205Y-10830293D01*
X6615205Y-10830293D02*
X6605682Y-10868389D01*
X6605682Y-10868389D02*
X6596158Y-10887436D01*
X6596158Y-10887436D02*
X6586634Y-10896960D01*
X6586634Y-10896960D02*
X6567586Y-10906484D01*
X6567586Y-10906484D02*
X6548539Y-10906484D01*
X6548539Y-10906484D02*
X6529491Y-10896960D01*
X6529491Y-10896960D02*
X6519967Y-10887436D01*
X6519967Y-10887436D02*
X6510443Y-10868389D01*
X6510443Y-10868389D02*
X6500920Y-10830293D01*
X6500920Y-10830293D02*
X6500920Y-10782674D01*
X6500920Y-10782674D02*
X6510443Y-10744579D01*
X6510443Y-10744579D02*
X6519967Y-10725531D01*
X6519967Y-10725531D02*
X6529491Y-10716008D01*
X6529491Y-10716008D02*
X6548539Y-10706484D01*
X6700920Y-10906484D02*
X6700920Y-10773150D01*
X6700920Y-10792198D02*
X6710443Y-10782674D01*
X6710443Y-10782674D02*
X6729491Y-10773150D01*
X6729491Y-10773150D02*
X6758063Y-10773150D01*
X6758063Y-10773150D02*
X6777110Y-10782674D01*
X6777110Y-10782674D02*
X6786634Y-10801722D01*
X6786634Y-10801722D02*
X6786634Y-10906484D01*
X6786634Y-10801722D02*
X6796158Y-10782674D01*
X6796158Y-10782674D02*
X6815205Y-10773150D01*
X6815205Y-10773150D02*
X6843777Y-10773150D01*
X6843777Y-10773150D02*
X6862824Y-10782674D01*
X6862824Y-10782674D02*
X6872348Y-10801722D01*
X6872348Y-10801722D02*
X6872348Y-10906484D01*
X6967586Y-10906484D02*
X6967586Y-10773150D01*
X6967586Y-10792198D02*
X6977110Y-10782674D01*
X6977110Y-10782674D02*
X6996158Y-10773150D01*
X6996158Y-10773150D02*
X7024729Y-10773150D01*
X7024729Y-10773150D02*
X7043777Y-10782674D01*
X7043777Y-10782674D02*
X7053301Y-10801722D01*
X7053301Y-10801722D02*
X7053301Y-10906484D01*
X7053301Y-10801722D02*
X7062824Y-10782674D01*
X7062824Y-10782674D02*
X7081872Y-10773150D01*
X7081872Y-10773150D02*
X7110443Y-10773150D01*
X7110443Y-10773150D02*
X7129491Y-10782674D01*
X7129491Y-10782674D02*
X7139015Y-10801722D01*
X7139015Y-10801722D02*
X7139015Y-10906484D01*
X7529491Y-10696960D02*
X7358063Y-10954103D01*
X7786634Y-10706484D02*
X7805682Y-10706484D01*
X7805682Y-10706484D02*
X7824729Y-10716008D01*
X7824729Y-10716008D02*
X7834253Y-10725531D01*
X7834253Y-10725531D02*
X7843777Y-10744579D01*
X7843777Y-10744579D02*
X7853301Y-10782674D01*
X7853301Y-10782674D02*
X7853301Y-10830293D01*
X7853301Y-10830293D02*
X7843777Y-10868389D01*
X7843777Y-10868389D02*
X7834253Y-10887436D01*
X7834253Y-10887436D02*
X7824729Y-10896960D01*
X7824729Y-10896960D02*
X7805682Y-10906484D01*
X7805682Y-10906484D02*
X7786634Y-10906484D01*
X7786634Y-10906484D02*
X7767586Y-10896960D01*
X7767586Y-10896960D02*
X7758063Y-10887436D01*
X7758063Y-10887436D02*
X7748539Y-10868389D01*
X7748539Y-10868389D02*
X7739015Y-10830293D01*
X7739015Y-10830293D02*
X7739015Y-10782674D01*
X7739015Y-10782674D02*
X7748539Y-10744579D01*
X7748539Y-10744579D02*
X7758063Y-10725531D01*
X7758063Y-10725531D02*
X7767586Y-10716008D01*
X7767586Y-10716008D02*
X7786634Y-10706484D01*
X7939015Y-10887436D02*
X7948539Y-10896960D01*
X7948539Y-10896960D02*
X7939015Y-10906484D01*
X7939015Y-10906484D02*
X7929491Y-10896960D01*
X7929491Y-10896960D02*
X7939015Y-10887436D01*
X7939015Y-10887436D02*
X7939015Y-10906484D01*
X8072348Y-10706484D02*
X8091396Y-10706484D01*
X8091396Y-10706484D02*
X8110444Y-10716008D01*
X8110444Y-10716008D02*
X8119967Y-10725531D01*
X8119967Y-10725531D02*
X8129491Y-10744579D01*
X8129491Y-10744579D02*
X8139015Y-10782674D01*
X8139015Y-10782674D02*
X8139015Y-10830293D01*
X8139015Y-10830293D02*
X8129491Y-10868389D01*
X8129491Y-10868389D02*
X8119967Y-10887436D01*
X8119967Y-10887436D02*
X8110444Y-10896960D01*
X8110444Y-10896960D02*
X8091396Y-10906484D01*
X8091396Y-10906484D02*
X8072348Y-10906484D01*
X8072348Y-10906484D02*
X8053301Y-10896960D01*
X8053301Y-10896960D02*
X8043777Y-10887436D01*
X8043777Y-10887436D02*
X8034253Y-10868389D01*
X8034253Y-10868389D02*
X8024729Y-10830293D01*
X8024729Y-10830293D02*
X8024729Y-10782674D01*
X8024729Y-10782674D02*
X8034253Y-10744579D01*
X8034253Y-10744579D02*
X8043777Y-10725531D01*
X8043777Y-10725531D02*
X8053301Y-10716008D01*
X8053301Y-10716008D02*
X8072348Y-10706484D01*
X8205682Y-10706484D02*
X8329491Y-10706484D01*
X8329491Y-10706484D02*
X8262825Y-10782674D01*
X8262825Y-10782674D02*
X8291396Y-10782674D01*
X8291396Y-10782674D02*
X8310444Y-10792198D01*
X8310444Y-10792198D02*
X8319967Y-10801722D01*
X8319967Y-10801722D02*
X8329491Y-10820770D01*
X8329491Y-10820770D02*
X8329491Y-10868389D01*
X8329491Y-10868389D02*
X8319967Y-10887436D01*
X8319967Y-10887436D02*
X8310444Y-10896960D01*
X8310444Y-10896960D02*
X8291396Y-10906484D01*
X8291396Y-10906484D02*
X8234253Y-10906484D01*
X8234253Y-10906484D02*
X8215206Y-10896960D01*
X8215206Y-10896960D02*
X8205682Y-10887436D01*
X8424729Y-10906484D02*
X8462825Y-10906484D01*
X8462825Y-10906484D02*
X8481872Y-10896960D01*
X8481872Y-10896960D02*
X8491396Y-10887436D01*
X8491396Y-10887436D02*
X8510444Y-10858865D01*
X8510444Y-10858865D02*
X8519968Y-10820770D01*
X8519968Y-10820770D02*
X8519968Y-10744579D01*
X8519968Y-10744579D02*
X8510444Y-10725531D01*
X8510444Y-10725531D02*
X8500920Y-10716008D01*
X8500920Y-10716008D02*
X8481872Y-10706484D01*
X8481872Y-10706484D02*
X8443777Y-10706484D01*
X8443777Y-10706484D02*
X8424729Y-10716008D01*
X8424729Y-10716008D02*
X8415206Y-10725531D01*
X8415206Y-10725531D02*
X8405682Y-10744579D01*
X8405682Y-10744579D02*
X8405682Y-10792198D01*
X8405682Y-10792198D02*
X8415206Y-10811246D01*
X8415206Y-10811246D02*
X8424729Y-10820770D01*
X8424729Y-10820770D02*
X8443777Y-10830293D01*
X8443777Y-10830293D02*
X8481872Y-10830293D01*
X8481872Y-10830293D02*
X8500920Y-10820770D01*
X8500920Y-10820770D02*
X8510444Y-10811246D01*
X8510444Y-10811246D02*
X8519968Y-10792198D01*
X8691396Y-10773150D02*
X8691396Y-10906484D01*
X8643777Y-10696960D02*
X8596158Y-10839817D01*
X8596158Y-10839817D02*
X8719968Y-10839817D01*
X8786634Y-10706484D02*
X8786634Y-10744579D01*
X8862825Y-10706484D02*
X8862825Y-10744579D01*
X9158063Y-10982674D02*
X9148539Y-10973150D01*
X9148539Y-10973150D02*
X9129491Y-10944579D01*
X9129491Y-10944579D02*
X9119968Y-10925531D01*
X9119968Y-10925531D02*
X9110444Y-10896960D01*
X9110444Y-10896960D02*
X9100920Y-10849341D01*
X9100920Y-10849341D02*
X9100920Y-10811246D01*
X9100920Y-10811246D02*
X9110444Y-10763627D01*
X9110444Y-10763627D02*
X9119968Y-10735055D01*
X9119968Y-10735055D02*
X9129491Y-10716008D01*
X9129491Y-10716008D02*
X9148539Y-10687436D01*
X9148539Y-10687436D02*
X9158063Y-10677912D01*
X9215206Y-10706484D02*
X9339015Y-10706484D01*
X9339015Y-10706484D02*
X9272349Y-10782674D01*
X9272349Y-10782674D02*
X9300920Y-10782674D01*
X9300920Y-10782674D02*
X9319968Y-10792198D01*
X9319968Y-10792198D02*
X9329491Y-10801722D01*
X9329491Y-10801722D02*
X9339015Y-10820770D01*
X9339015Y-10820770D02*
X9339015Y-10868389D01*
X9339015Y-10868389D02*
X9329491Y-10887436D01*
X9329491Y-10887436D02*
X9319968Y-10896960D01*
X9319968Y-10896960D02*
X9300920Y-10906484D01*
X9300920Y-10906484D02*
X9243777Y-10906484D01*
X9243777Y-10906484D02*
X9224730Y-10896960D01*
X9224730Y-10896960D02*
X9215206Y-10887436D01*
X9510444Y-10773150D02*
X9510444Y-10906484D01*
X9462825Y-10696960D02*
X9415206Y-10839817D01*
X9415206Y-10839817D02*
X9539015Y-10839817D01*
X9767587Y-10906484D02*
X9767587Y-10706484D01*
X9853301Y-10906484D02*
X9853301Y-10801722D01*
X9853301Y-10801722D02*
X9843777Y-10782674D01*
X9843777Y-10782674D02*
X9824730Y-10773150D01*
X9824730Y-10773150D02*
X9796158Y-10773150D01*
X9796158Y-10773150D02*
X9777111Y-10782674D01*
X9777111Y-10782674D02*
X9767587Y-10792198D01*
X9977111Y-10906484D02*
X9958063Y-10896960D01*
X9958063Y-10896960D02*
X9948539Y-10887436D01*
X9948539Y-10887436D02*
X9939015Y-10868389D01*
X9939015Y-10868389D02*
X9939015Y-10811246D01*
X9939015Y-10811246D02*
X9948539Y-10792198D01*
X9948539Y-10792198D02*
X9958063Y-10782674D01*
X9958063Y-10782674D02*
X9977111Y-10773150D01*
X9977111Y-10773150D02*
X10005682Y-10773150D01*
X10005682Y-10773150D02*
X10024730Y-10782674D01*
X10024730Y-10782674D02*
X10034253Y-10792198D01*
X10034253Y-10792198D02*
X10043777Y-10811246D01*
X10043777Y-10811246D02*
X10043777Y-10868389D01*
X10043777Y-10868389D02*
X10034253Y-10887436D01*
X10034253Y-10887436D02*
X10024730Y-10896960D01*
X10024730Y-10896960D02*
X10005682Y-10906484D01*
X10005682Y-10906484D02*
X9977111Y-10906484D01*
X10158063Y-10906484D02*
X10139015Y-10896960D01*
X10139015Y-10896960D02*
X10129492Y-10877912D01*
X10129492Y-10877912D02*
X10129492Y-10706484D01*
X10310444Y-10896960D02*
X10291396Y-10906484D01*
X10291396Y-10906484D02*
X10253301Y-10906484D01*
X10253301Y-10906484D02*
X10234253Y-10896960D01*
X10234253Y-10896960D02*
X10224730Y-10877912D01*
X10224730Y-10877912D02*
X10224730Y-10801722D01*
X10224730Y-10801722D02*
X10234253Y-10782674D01*
X10234253Y-10782674D02*
X10253301Y-10773150D01*
X10253301Y-10773150D02*
X10291396Y-10773150D01*
X10291396Y-10773150D02*
X10310444Y-10782674D01*
X10310444Y-10782674D02*
X10319968Y-10801722D01*
X10319968Y-10801722D02*
X10319968Y-10820770D01*
X10319968Y-10820770D02*
X10224730Y-10839817D01*
X10396158Y-10896960D02*
X10415206Y-10906484D01*
X10415206Y-10906484D02*
X10453301Y-10906484D01*
X10453301Y-10906484D02*
X10472349Y-10896960D01*
X10472349Y-10896960D02*
X10481873Y-10877912D01*
X10481873Y-10877912D02*
X10481873Y-10868389D01*
X10481873Y-10868389D02*
X10472349Y-10849341D01*
X10472349Y-10849341D02*
X10453301Y-10839817D01*
X10453301Y-10839817D02*
X10424730Y-10839817D01*
X10424730Y-10839817D02*
X10405682Y-10830293D01*
X10405682Y-10830293D02*
X10396158Y-10811246D01*
X10396158Y-10811246D02*
X10396158Y-10801722D01*
X10396158Y-10801722D02*
X10405682Y-10782674D01*
X10405682Y-10782674D02*
X10424730Y-10773150D01*
X10424730Y-10773150D02*
X10453301Y-10773150D01*
X10453301Y-10773150D02*
X10472349Y-10782674D01*
X10548539Y-10982674D02*
X10558063Y-10973150D01*
X10558063Y-10973150D02*
X10577111Y-10944579D01*
X10577111Y-10944579D02*
X10586634Y-10925531D01*
X10586634Y-10925531D02*
X10596158Y-10896960D01*
X10596158Y-10896960D02*
X10605682Y-10849341D01*
X10605682Y-10849341D02*
X10605682Y-10811246D01*
X10605682Y-10811246D02*
X10596158Y-10763627D01*
X10596158Y-10763627D02*
X10586634Y-10735055D01*
X10586634Y-10735055D02*
X10577111Y-10716008D01*
X10577111Y-10716008D02*
X10558063Y-10687436D01*
X10558063Y-10687436D02*
X10548539Y-10677912D01*
D12*
X5528000Y-11024000D02*
X5528000Y-11134000D01*
X5473000Y-11079000D02*
X5583000Y-11079000D01*
D11*
X5948539Y-11170484D02*
X5834253Y-11170484D01*
X5891396Y-11170484D02*
X5891396Y-10970484D01*
X5891396Y-10970484D02*
X5872348Y-10999055D01*
X5872348Y-10999055D02*
X5853301Y-11018103D01*
X5853301Y-11018103D02*
X5834253Y-11027627D01*
X6034253Y-11151436D02*
X6043777Y-11160960D01*
X6043777Y-11160960D02*
X6034253Y-11170484D01*
X6034253Y-11170484D02*
X6024729Y-11160960D01*
X6024729Y-11160960D02*
X6034253Y-11151436D01*
X6034253Y-11151436D02*
X6034253Y-11170484D01*
X6234253Y-11170484D02*
X6119967Y-11170484D01*
X6177110Y-11170484D02*
X6177110Y-10970484D01*
X6177110Y-10970484D02*
X6158062Y-10999055D01*
X6158062Y-10999055D02*
X6139015Y-11018103D01*
X6139015Y-11018103D02*
X6119967Y-11027627D01*
X6358062Y-10970484D02*
X6377110Y-10970484D01*
X6377110Y-10970484D02*
X6396158Y-10980008D01*
X6396158Y-10980008D02*
X6405682Y-10989531D01*
X6405682Y-10989531D02*
X6415205Y-11008579D01*
X6415205Y-11008579D02*
X6424729Y-11046674D01*
X6424729Y-11046674D02*
X6424729Y-11094293D01*
X6424729Y-11094293D02*
X6415205Y-11132389D01*
X6415205Y-11132389D02*
X6405682Y-11151436D01*
X6405682Y-11151436D02*
X6396158Y-11160960D01*
X6396158Y-11160960D02*
X6377110Y-11170484D01*
X6377110Y-11170484D02*
X6358062Y-11170484D01*
X6358062Y-11170484D02*
X6339015Y-11160960D01*
X6339015Y-11160960D02*
X6329491Y-11151436D01*
X6329491Y-11151436D02*
X6319967Y-11132389D01*
X6319967Y-11132389D02*
X6310443Y-11094293D01*
X6310443Y-11094293D02*
X6310443Y-11046674D01*
X6310443Y-11046674D02*
X6319967Y-11008579D01*
X6319967Y-11008579D02*
X6329491Y-10989531D01*
X6329491Y-10989531D02*
X6339015Y-10980008D01*
X6339015Y-10980008D02*
X6358062Y-10970484D01*
X6548539Y-10970484D02*
X6567586Y-10970484D01*
X6567586Y-10970484D02*
X6586634Y-10980008D01*
X6586634Y-10980008D02*
X6596158Y-10989531D01*
X6596158Y-10989531D02*
X6605682Y-11008579D01*
X6605682Y-11008579D02*
X6615205Y-11046674D01*
X6615205Y-11046674D02*
X6615205Y-11094293D01*
X6615205Y-11094293D02*
X6605682Y-11132389D01*
X6605682Y-11132389D02*
X6596158Y-11151436D01*
X6596158Y-11151436D02*
X6586634Y-11160960D01*
X6586634Y-11160960D02*
X6567586Y-11170484D01*
X6567586Y-11170484D02*
X6548539Y-11170484D01*
X6548539Y-11170484D02*
X6529491Y-11160960D01*
X6529491Y-11160960D02*
X6519967Y-11151436D01*
X6519967Y-11151436D02*
X6510443Y-11132389D01*
X6510443Y-11132389D02*
X6500920Y-11094293D01*
X6500920Y-11094293D02*
X6500920Y-11046674D01*
X6500920Y-11046674D02*
X6510443Y-11008579D01*
X6510443Y-11008579D02*
X6519967Y-10989531D01*
X6519967Y-10989531D02*
X6529491Y-10980008D01*
X6529491Y-10980008D02*
X6548539Y-10970484D01*
X6700920Y-11170484D02*
X6700920Y-11037150D01*
X6700920Y-11056198D02*
X6710443Y-11046674D01*
X6710443Y-11046674D02*
X6729491Y-11037150D01*
X6729491Y-11037150D02*
X6758063Y-11037150D01*
X6758063Y-11037150D02*
X6777110Y-11046674D01*
X6777110Y-11046674D02*
X6786634Y-11065722D01*
X6786634Y-11065722D02*
X6786634Y-11170484D01*
X6786634Y-11065722D02*
X6796158Y-11046674D01*
X6796158Y-11046674D02*
X6815205Y-11037150D01*
X6815205Y-11037150D02*
X6843777Y-11037150D01*
X6843777Y-11037150D02*
X6862824Y-11046674D01*
X6862824Y-11046674D02*
X6872348Y-11065722D01*
X6872348Y-11065722D02*
X6872348Y-11170484D01*
X6967586Y-11170484D02*
X6967586Y-11037150D01*
X6967586Y-11056198D02*
X6977110Y-11046674D01*
X6977110Y-11046674D02*
X6996158Y-11037150D01*
X6996158Y-11037150D02*
X7024729Y-11037150D01*
X7024729Y-11037150D02*
X7043777Y-11046674D01*
X7043777Y-11046674D02*
X7053301Y-11065722D01*
X7053301Y-11065722D02*
X7053301Y-11170484D01*
X7053301Y-11065722D02*
X7062824Y-11046674D01*
X7062824Y-11046674D02*
X7081872Y-11037150D01*
X7081872Y-11037150D02*
X7110443Y-11037150D01*
X7110443Y-11037150D02*
X7129491Y-11046674D01*
X7129491Y-11046674D02*
X7139015Y-11065722D01*
X7139015Y-11065722D02*
X7139015Y-11170484D01*
X7529491Y-10960960D02*
X7358063Y-11218103D01*
X7786634Y-10970484D02*
X7805682Y-10970484D01*
X7805682Y-10970484D02*
X7824729Y-10980008D01*
X7824729Y-10980008D02*
X7834253Y-10989531D01*
X7834253Y-10989531D02*
X7843777Y-11008579D01*
X7843777Y-11008579D02*
X7853301Y-11046674D01*
X7853301Y-11046674D02*
X7853301Y-11094293D01*
X7853301Y-11094293D02*
X7843777Y-11132389D01*
X7843777Y-11132389D02*
X7834253Y-11151436D01*
X7834253Y-11151436D02*
X7824729Y-11160960D01*
X7824729Y-11160960D02*
X7805682Y-11170484D01*
X7805682Y-11170484D02*
X7786634Y-11170484D01*
X7786634Y-11170484D02*
X7767586Y-11160960D01*
X7767586Y-11160960D02*
X7758063Y-11151436D01*
X7758063Y-11151436D02*
X7748539Y-11132389D01*
X7748539Y-11132389D02*
X7739015Y-11094293D01*
X7739015Y-11094293D02*
X7739015Y-11046674D01*
X7739015Y-11046674D02*
X7748539Y-11008579D01*
X7748539Y-11008579D02*
X7758063Y-10989531D01*
X7758063Y-10989531D02*
X7767586Y-10980008D01*
X7767586Y-10980008D02*
X7786634Y-10970484D01*
X7939015Y-11151436D02*
X7948539Y-11160960D01*
X7948539Y-11160960D02*
X7939015Y-11170484D01*
X7939015Y-11170484D02*
X7929491Y-11160960D01*
X7929491Y-11160960D02*
X7939015Y-11151436D01*
X7939015Y-11151436D02*
X7939015Y-11170484D01*
X8072348Y-10970484D02*
X8091396Y-10970484D01*
X8091396Y-10970484D02*
X8110444Y-10980008D01*
X8110444Y-10980008D02*
X8119967Y-10989531D01*
X8119967Y-10989531D02*
X8129491Y-11008579D01*
X8129491Y-11008579D02*
X8139015Y-11046674D01*
X8139015Y-11046674D02*
X8139015Y-11094293D01*
X8139015Y-11094293D02*
X8129491Y-11132389D01*
X8129491Y-11132389D02*
X8119967Y-11151436D01*
X8119967Y-11151436D02*
X8110444Y-11160960D01*
X8110444Y-11160960D02*
X8091396Y-11170484D01*
X8091396Y-11170484D02*
X8072348Y-11170484D01*
X8072348Y-11170484D02*
X8053301Y-11160960D01*
X8053301Y-11160960D02*
X8043777Y-11151436D01*
X8043777Y-11151436D02*
X8034253Y-11132389D01*
X8034253Y-11132389D02*
X8024729Y-11094293D01*
X8024729Y-11094293D02*
X8024729Y-11046674D01*
X8024729Y-11046674D02*
X8034253Y-11008579D01*
X8034253Y-11008579D02*
X8043777Y-10989531D01*
X8043777Y-10989531D02*
X8053301Y-10980008D01*
X8053301Y-10980008D02*
X8072348Y-10970484D01*
X8310444Y-11037150D02*
X8310444Y-11170484D01*
X8262825Y-10960960D02*
X8215206Y-11103817D01*
X8215206Y-11103817D02*
X8339015Y-11103817D01*
X8396158Y-10970484D02*
X8519968Y-10970484D01*
X8519968Y-10970484D02*
X8453301Y-11046674D01*
X8453301Y-11046674D02*
X8481872Y-11046674D01*
X8481872Y-11046674D02*
X8500920Y-11056198D01*
X8500920Y-11056198D02*
X8510444Y-11065722D01*
X8510444Y-11065722D02*
X8519968Y-11084770D01*
X8519968Y-11084770D02*
X8519968Y-11132389D01*
X8519968Y-11132389D02*
X8510444Y-11151436D01*
X8510444Y-11151436D02*
X8500920Y-11160960D01*
X8500920Y-11160960D02*
X8481872Y-11170484D01*
X8481872Y-11170484D02*
X8424729Y-11170484D01*
X8424729Y-11170484D02*
X8405682Y-11160960D01*
X8405682Y-11160960D02*
X8396158Y-11151436D01*
X8586634Y-10970484D02*
X8710444Y-10970484D01*
X8710444Y-10970484D02*
X8643777Y-11046674D01*
X8643777Y-11046674D02*
X8672349Y-11046674D01*
X8672349Y-11046674D02*
X8691396Y-11056198D01*
X8691396Y-11056198D02*
X8700920Y-11065722D01*
X8700920Y-11065722D02*
X8710444Y-11084770D01*
X8710444Y-11084770D02*
X8710444Y-11132389D01*
X8710444Y-11132389D02*
X8700920Y-11151436D01*
X8700920Y-11151436D02*
X8691396Y-11160960D01*
X8691396Y-11160960D02*
X8672349Y-11170484D01*
X8672349Y-11170484D02*
X8615206Y-11170484D01*
X8615206Y-11170484D02*
X8596158Y-11160960D01*
X8596158Y-11160960D02*
X8586634Y-11151436D01*
X8786634Y-10970484D02*
X8786634Y-11008579D01*
X8862825Y-10970484D02*
X8862825Y-11008579D01*
X9158063Y-11246674D02*
X9148539Y-11237150D01*
X9148539Y-11237150D02*
X9129491Y-11208579D01*
X9129491Y-11208579D02*
X9119968Y-11189531D01*
X9119968Y-11189531D02*
X9110444Y-11160960D01*
X9110444Y-11160960D02*
X9100920Y-11113341D01*
X9100920Y-11113341D02*
X9100920Y-11075246D01*
X9100920Y-11075246D02*
X9110444Y-11027627D01*
X9110444Y-11027627D02*
X9119968Y-10999055D01*
X9119968Y-10999055D02*
X9129491Y-10980008D01*
X9129491Y-10980008D02*
X9148539Y-10951436D01*
X9148539Y-10951436D02*
X9158063Y-10941912D01*
X9319968Y-11037150D02*
X9319968Y-11170484D01*
X9272349Y-10960960D02*
X9224730Y-11103817D01*
X9224730Y-11103817D02*
X9348539Y-11103817D01*
X9577111Y-11170484D02*
X9577111Y-10970484D01*
X9662825Y-11170484D02*
X9662825Y-11065722D01*
X9662825Y-11065722D02*
X9653301Y-11046674D01*
X9653301Y-11046674D02*
X9634253Y-11037150D01*
X9634253Y-11037150D02*
X9605682Y-11037150D01*
X9605682Y-11037150D02*
X9586634Y-11046674D01*
X9586634Y-11046674D02*
X9577111Y-11056198D01*
X9786634Y-11170484D02*
X9767587Y-11160960D01*
X9767587Y-11160960D02*
X9758063Y-11151436D01*
X9758063Y-11151436D02*
X9748539Y-11132389D01*
X9748539Y-11132389D02*
X9748539Y-11075246D01*
X9748539Y-11075246D02*
X9758063Y-11056198D01*
X9758063Y-11056198D02*
X9767587Y-11046674D01*
X9767587Y-11046674D02*
X9786634Y-11037150D01*
X9786634Y-11037150D02*
X9815206Y-11037150D01*
X9815206Y-11037150D02*
X9834253Y-11046674D01*
X9834253Y-11046674D02*
X9843777Y-11056198D01*
X9843777Y-11056198D02*
X9853301Y-11075246D01*
X9853301Y-11075246D02*
X9853301Y-11132389D01*
X9853301Y-11132389D02*
X9843777Y-11151436D01*
X9843777Y-11151436D02*
X9834253Y-11160960D01*
X9834253Y-11160960D02*
X9815206Y-11170484D01*
X9815206Y-11170484D02*
X9786634Y-11170484D01*
X9967587Y-11170484D02*
X9948539Y-11160960D01*
X9948539Y-11160960D02*
X9939015Y-11141912D01*
X9939015Y-11141912D02*
X9939015Y-10970484D01*
X10119968Y-11160960D02*
X10100920Y-11170484D01*
X10100920Y-11170484D02*
X10062825Y-11170484D01*
X10062825Y-11170484D02*
X10043777Y-11160960D01*
X10043777Y-11160960D02*
X10034253Y-11141912D01*
X10034253Y-11141912D02*
X10034253Y-11065722D01*
X10034253Y-11065722D02*
X10043777Y-11046674D01*
X10043777Y-11046674D02*
X10062825Y-11037150D01*
X10062825Y-11037150D02*
X10100920Y-11037150D01*
X10100920Y-11037150D02*
X10119968Y-11046674D01*
X10119968Y-11046674D02*
X10129492Y-11065722D01*
X10129492Y-11065722D02*
X10129492Y-11084770D01*
X10129492Y-11084770D02*
X10034253Y-11103817D01*
X10205682Y-11160960D02*
X10224730Y-11170484D01*
X10224730Y-11170484D02*
X10262825Y-11170484D01*
X10262825Y-11170484D02*
X10281873Y-11160960D01*
X10281873Y-11160960D02*
X10291396Y-11141912D01*
X10291396Y-11141912D02*
X10291396Y-11132389D01*
X10291396Y-11132389D02*
X10281873Y-11113341D01*
X10281873Y-11113341D02*
X10262825Y-11103817D01*
X10262825Y-11103817D02*
X10234253Y-11103817D01*
X10234253Y-11103817D02*
X10215206Y-11094293D01*
X10215206Y-11094293D02*
X10205682Y-11075246D01*
X10205682Y-11075246D02*
X10205682Y-11065722D01*
X10205682Y-11065722D02*
X10215206Y-11046674D01*
X10215206Y-11046674D02*
X10234253Y-11037150D01*
X10234253Y-11037150D02*
X10262825Y-11037150D01*
X10262825Y-11037150D02*
X10281873Y-11046674D01*
X10358063Y-11246674D02*
X10367587Y-11237150D01*
X10367587Y-11237150D02*
X10386634Y-11208579D01*
X10386634Y-11208579D02*
X10396158Y-11189531D01*
X10396158Y-11189531D02*
X10405682Y-11160960D01*
X10405682Y-11160960D02*
X10415206Y-11113341D01*
X10415206Y-11113341D02*
X10415206Y-11075246D01*
X10415206Y-11075246D02*
X10405682Y-11027627D01*
X10405682Y-11027627D02*
X10396158Y-10999055D01*
X10396158Y-10999055D02*
X10386634Y-10980008D01*
X10386634Y-10980008D02*
X10367587Y-10951436D01*
X10367587Y-10951436D02*
X10358063Y-10941912D01*
D13*
X5565427Y-11385427D02*
X5565427Y-11300573D01*
X5480573Y-11300573D01*
X5480573Y-11385427D01*
X5565427Y-11385427D01*
D11*
X5948539Y-11434484D02*
X5834253Y-11434484D01*
X5891396Y-11434484D02*
X5891396Y-11234484D01*
X5891396Y-11234484D02*
X5872348Y-11263055D01*
X5872348Y-11263055D02*
X5853301Y-11282103D01*
X5853301Y-11282103D02*
X5834253Y-11291627D01*
X6034253Y-11415436D02*
X6043777Y-11424960D01*
X6043777Y-11424960D02*
X6034253Y-11434484D01*
X6034253Y-11434484D02*
X6024729Y-11424960D01*
X6024729Y-11424960D02*
X6034253Y-11415436D01*
X6034253Y-11415436D02*
X6034253Y-11434484D01*
X6119967Y-11253531D02*
X6129491Y-11244008D01*
X6129491Y-11244008D02*
X6148539Y-11234484D01*
X6148539Y-11234484D02*
X6196158Y-11234484D01*
X6196158Y-11234484D02*
X6215205Y-11244008D01*
X6215205Y-11244008D02*
X6224729Y-11253531D01*
X6224729Y-11253531D02*
X6234253Y-11272579D01*
X6234253Y-11272579D02*
X6234253Y-11291627D01*
X6234253Y-11291627D02*
X6224729Y-11320198D01*
X6224729Y-11320198D02*
X6110443Y-11434484D01*
X6110443Y-11434484D02*
X6234253Y-11434484D01*
X6358062Y-11234484D02*
X6377110Y-11234484D01*
X6377110Y-11234484D02*
X6396158Y-11244008D01*
X6396158Y-11244008D02*
X6405682Y-11253531D01*
X6405682Y-11253531D02*
X6415205Y-11272579D01*
X6415205Y-11272579D02*
X6424729Y-11310674D01*
X6424729Y-11310674D02*
X6424729Y-11358293D01*
X6424729Y-11358293D02*
X6415205Y-11396388D01*
X6415205Y-11396388D02*
X6405682Y-11415436D01*
X6405682Y-11415436D02*
X6396158Y-11424960D01*
X6396158Y-11424960D02*
X6377110Y-11434484D01*
X6377110Y-11434484D02*
X6358062Y-11434484D01*
X6358062Y-11434484D02*
X6339015Y-11424960D01*
X6339015Y-11424960D02*
X6329491Y-11415436D01*
X6329491Y-11415436D02*
X6319967Y-11396388D01*
X6319967Y-11396388D02*
X6310443Y-11358293D01*
X6310443Y-11358293D02*
X6310443Y-11310674D01*
X6310443Y-11310674D02*
X6319967Y-11272579D01*
X6319967Y-11272579D02*
X6329491Y-11253531D01*
X6329491Y-11253531D02*
X6339015Y-11244008D01*
X6339015Y-11244008D02*
X6358062Y-11234484D01*
X6548539Y-11234484D02*
X6567586Y-11234484D01*
X6567586Y-11234484D02*
X6586634Y-11244008D01*
X6586634Y-11244008D02*
X6596158Y-11253531D01*
X6596158Y-11253531D02*
X6605682Y-11272579D01*
X6605682Y-11272579D02*
X6615205Y-11310674D01*
X6615205Y-11310674D02*
X6615205Y-11358293D01*
X6615205Y-11358293D02*
X6605682Y-11396388D01*
X6605682Y-11396388D02*
X6596158Y-11415436D01*
X6596158Y-11415436D02*
X6586634Y-11424960D01*
X6586634Y-11424960D02*
X6567586Y-11434484D01*
X6567586Y-11434484D02*
X6548539Y-11434484D01*
X6548539Y-11434484D02*
X6529491Y-11424960D01*
X6529491Y-11424960D02*
X6519967Y-11415436D01*
X6519967Y-11415436D02*
X6510443Y-11396388D01*
X6510443Y-11396388D02*
X6500920Y-11358293D01*
X6500920Y-11358293D02*
X6500920Y-11310674D01*
X6500920Y-11310674D02*
X6510443Y-11272579D01*
X6510443Y-11272579D02*
X6519967Y-11253531D01*
X6519967Y-11253531D02*
X6529491Y-11244008D01*
X6529491Y-11244008D02*
X6548539Y-11234484D01*
X6700920Y-11434484D02*
X6700920Y-11301150D01*
X6700920Y-11320198D02*
X6710443Y-11310674D01*
X6710443Y-11310674D02*
X6729491Y-11301150D01*
X6729491Y-11301150D02*
X6758063Y-11301150D01*
X6758063Y-11301150D02*
X6777110Y-11310674D01*
X6777110Y-11310674D02*
X6786634Y-11329722D01*
X6786634Y-11329722D02*
X6786634Y-11434484D01*
X6786634Y-11329722D02*
X6796158Y-11310674D01*
X6796158Y-11310674D02*
X6815205Y-11301150D01*
X6815205Y-11301150D02*
X6843777Y-11301150D01*
X6843777Y-11301150D02*
X6862824Y-11310674D01*
X6862824Y-11310674D02*
X6872348Y-11329722D01*
X6872348Y-11329722D02*
X6872348Y-11434484D01*
X6967586Y-11434484D02*
X6967586Y-11301150D01*
X6967586Y-11320198D02*
X6977110Y-11310674D01*
X6977110Y-11310674D02*
X6996158Y-11301150D01*
X6996158Y-11301150D02*
X7024729Y-11301150D01*
X7024729Y-11301150D02*
X7043777Y-11310674D01*
X7043777Y-11310674D02*
X7053301Y-11329722D01*
X7053301Y-11329722D02*
X7053301Y-11434484D01*
X7053301Y-11329722D02*
X7062824Y-11310674D01*
X7062824Y-11310674D02*
X7081872Y-11301150D01*
X7081872Y-11301150D02*
X7110443Y-11301150D01*
X7110443Y-11301150D02*
X7129491Y-11310674D01*
X7129491Y-11310674D02*
X7139015Y-11329722D01*
X7139015Y-11329722D02*
X7139015Y-11434484D01*
X7529491Y-11224960D02*
X7358063Y-11482103D01*
X7786634Y-11234484D02*
X7805682Y-11234484D01*
X7805682Y-11234484D02*
X7824729Y-11244008D01*
X7824729Y-11244008D02*
X7834253Y-11253531D01*
X7834253Y-11253531D02*
X7843777Y-11272579D01*
X7843777Y-11272579D02*
X7853301Y-11310674D01*
X7853301Y-11310674D02*
X7853301Y-11358293D01*
X7853301Y-11358293D02*
X7843777Y-11396388D01*
X7843777Y-11396388D02*
X7834253Y-11415436D01*
X7834253Y-11415436D02*
X7824729Y-11424960D01*
X7824729Y-11424960D02*
X7805682Y-11434484D01*
X7805682Y-11434484D02*
X7786634Y-11434484D01*
X7786634Y-11434484D02*
X7767586Y-11424960D01*
X7767586Y-11424960D02*
X7758063Y-11415436D01*
X7758063Y-11415436D02*
X7748539Y-11396388D01*
X7748539Y-11396388D02*
X7739015Y-11358293D01*
X7739015Y-11358293D02*
X7739015Y-11310674D01*
X7739015Y-11310674D02*
X7748539Y-11272579D01*
X7748539Y-11272579D02*
X7758063Y-11253531D01*
X7758063Y-11253531D02*
X7767586Y-11244008D01*
X7767586Y-11244008D02*
X7786634Y-11234484D01*
X7939015Y-11415436D02*
X7948539Y-11424960D01*
X7948539Y-11424960D02*
X7939015Y-11434484D01*
X7939015Y-11434484D02*
X7929491Y-11424960D01*
X7929491Y-11424960D02*
X7939015Y-11415436D01*
X7939015Y-11415436D02*
X7939015Y-11434484D01*
X8072348Y-11234484D02*
X8091396Y-11234484D01*
X8091396Y-11234484D02*
X8110444Y-11244008D01*
X8110444Y-11244008D02*
X8119967Y-11253531D01*
X8119967Y-11253531D02*
X8129491Y-11272579D01*
X8129491Y-11272579D02*
X8139015Y-11310674D01*
X8139015Y-11310674D02*
X8139015Y-11358293D01*
X8139015Y-11358293D02*
X8129491Y-11396388D01*
X8129491Y-11396388D02*
X8119967Y-11415436D01*
X8119967Y-11415436D02*
X8110444Y-11424960D01*
X8110444Y-11424960D02*
X8091396Y-11434484D01*
X8091396Y-11434484D02*
X8072348Y-11434484D01*
X8072348Y-11434484D02*
X8053301Y-11424960D01*
X8053301Y-11424960D02*
X8043777Y-11415436D01*
X8043777Y-11415436D02*
X8034253Y-11396388D01*
X8034253Y-11396388D02*
X8024729Y-11358293D01*
X8024729Y-11358293D02*
X8024729Y-11310674D01*
X8024729Y-11310674D02*
X8034253Y-11272579D01*
X8034253Y-11272579D02*
X8043777Y-11253531D01*
X8043777Y-11253531D02*
X8053301Y-11244008D01*
X8053301Y-11244008D02*
X8072348Y-11234484D01*
X8310444Y-11301150D02*
X8310444Y-11434484D01*
X8262825Y-11224960D02*
X8215206Y-11367817D01*
X8215206Y-11367817D02*
X8339015Y-11367817D01*
X8396158Y-11234484D02*
X8529491Y-11234484D01*
X8529491Y-11234484D02*
X8443777Y-11434484D01*
X8596158Y-11253531D02*
X8605682Y-11244008D01*
X8605682Y-11244008D02*
X8624729Y-11234484D01*
X8624729Y-11234484D02*
X8672349Y-11234484D01*
X8672349Y-11234484D02*
X8691396Y-11244008D01*
X8691396Y-11244008D02*
X8700920Y-11253531D01*
X8700920Y-11253531D02*
X8710444Y-11272579D01*
X8710444Y-11272579D02*
X8710444Y-11291627D01*
X8710444Y-11291627D02*
X8700920Y-11320198D01*
X8700920Y-11320198D02*
X8586634Y-11434484D01*
X8586634Y-11434484D02*
X8710444Y-11434484D01*
X8786634Y-11234484D02*
X8786634Y-11272579D01*
X8862825Y-11234484D02*
X8862825Y-11272579D01*
X9158063Y-11510674D02*
X9148539Y-11501150D01*
X9148539Y-11501150D02*
X9129491Y-11472579D01*
X9129491Y-11472579D02*
X9119968Y-11453531D01*
X9119968Y-11453531D02*
X9110444Y-11424960D01*
X9110444Y-11424960D02*
X9100920Y-11377341D01*
X9100920Y-11377341D02*
X9100920Y-11339246D01*
X9100920Y-11339246D02*
X9110444Y-11291627D01*
X9110444Y-11291627D02*
X9119968Y-11263055D01*
X9119968Y-11263055D02*
X9129491Y-11244008D01*
X9129491Y-11244008D02*
X9148539Y-11215436D01*
X9148539Y-11215436D02*
X9158063Y-11205912D01*
X9224730Y-11253531D02*
X9234253Y-11244008D01*
X9234253Y-11244008D02*
X9253301Y-11234484D01*
X9253301Y-11234484D02*
X9300920Y-11234484D01*
X9300920Y-11234484D02*
X9319968Y-11244008D01*
X9319968Y-11244008D02*
X9329491Y-11253531D01*
X9329491Y-11253531D02*
X9339015Y-11272579D01*
X9339015Y-11272579D02*
X9339015Y-11291627D01*
X9339015Y-11291627D02*
X9329491Y-11320198D01*
X9329491Y-11320198D02*
X9215206Y-11434484D01*
X9215206Y-11434484D02*
X9339015Y-11434484D01*
X9577111Y-11434484D02*
X9577111Y-11234484D01*
X9662825Y-11434484D02*
X9662825Y-11329722D01*
X9662825Y-11329722D02*
X9653301Y-11310674D01*
X9653301Y-11310674D02*
X9634253Y-11301150D01*
X9634253Y-11301150D02*
X9605682Y-11301150D01*
X9605682Y-11301150D02*
X9586634Y-11310674D01*
X9586634Y-11310674D02*
X9577111Y-11320198D01*
X9786634Y-11434484D02*
X9767587Y-11424960D01*
X9767587Y-11424960D02*
X9758063Y-11415436D01*
X9758063Y-11415436D02*
X9748539Y-11396388D01*
X9748539Y-11396388D02*
X9748539Y-11339246D01*
X9748539Y-11339246D02*
X9758063Y-11320198D01*
X9758063Y-11320198D02*
X9767587Y-11310674D01*
X9767587Y-11310674D02*
X9786634Y-11301150D01*
X9786634Y-11301150D02*
X9815206Y-11301150D01*
X9815206Y-11301150D02*
X9834253Y-11310674D01*
X9834253Y-11310674D02*
X9843777Y-11320198D01*
X9843777Y-11320198D02*
X9853301Y-11339246D01*
X9853301Y-11339246D02*
X9853301Y-11396388D01*
X9853301Y-11396388D02*
X9843777Y-11415436D01*
X9843777Y-11415436D02*
X9834253Y-11424960D01*
X9834253Y-11424960D02*
X9815206Y-11434484D01*
X9815206Y-11434484D02*
X9786634Y-11434484D01*
X9967587Y-11434484D02*
X9948539Y-11424960D01*
X9948539Y-11424960D02*
X9939015Y-11405912D01*
X9939015Y-11405912D02*
X9939015Y-11234484D01*
X10119968Y-11424960D02*
X10100920Y-11434484D01*
X10100920Y-11434484D02*
X10062825Y-11434484D01*
X10062825Y-11434484D02*
X10043777Y-11424960D01*
X10043777Y-11424960D02*
X10034253Y-11405912D01*
X10034253Y-11405912D02*
X10034253Y-11329722D01*
X10034253Y-11329722D02*
X10043777Y-11310674D01*
X10043777Y-11310674D02*
X10062825Y-11301150D01*
X10062825Y-11301150D02*
X10100920Y-11301150D01*
X10100920Y-11301150D02*
X10119968Y-11310674D01*
X10119968Y-11310674D02*
X10129492Y-11329722D01*
X10129492Y-11329722D02*
X10129492Y-11348769D01*
X10129492Y-11348769D02*
X10034253Y-11367817D01*
X10205682Y-11424960D02*
X10224730Y-11434484D01*
X10224730Y-11434484D02*
X10262825Y-11434484D01*
X10262825Y-11434484D02*
X10281873Y-11424960D01*
X10281873Y-11424960D02*
X10291396Y-11405912D01*
X10291396Y-11405912D02*
X10291396Y-11396388D01*
X10291396Y-11396388D02*
X10281873Y-11377341D01*
X10281873Y-11377341D02*
X10262825Y-11367817D01*
X10262825Y-11367817D02*
X10234253Y-11367817D01*
X10234253Y-11367817D02*
X10215206Y-11358293D01*
X10215206Y-11358293D02*
X10205682Y-11339246D01*
X10205682Y-11339246D02*
X10205682Y-11329722D01*
X10205682Y-11329722D02*
X10215206Y-11310674D01*
X10215206Y-11310674D02*
X10234253Y-11301150D01*
X10234253Y-11301150D02*
X10262825Y-11301150D01*
X10262825Y-11301150D02*
X10281873Y-11310674D01*
X10358063Y-11510674D02*
X10367587Y-11501150D01*
X10367587Y-11501150D02*
X10386634Y-11472579D01*
X10386634Y-11472579D02*
X10396158Y-11453531D01*
X10396158Y-11453531D02*
X10405682Y-11424960D01*
X10405682Y-11424960D02*
X10415206Y-11377341D01*
X10415206Y-11377341D02*
X10415206Y-11339246D01*
X10415206Y-11339246D02*
X10405682Y-11291627D01*
X10405682Y-11291627D02*
X10396158Y-11263055D01*
X10396158Y-11263055D02*
X10386634Y-11244008D01*
X10386634Y-11244008D02*
X10367587Y-11215436D01*
X10367587Y-11215436D02*
X10358063Y-11205912D01*
D14*
X5518000Y-11672000D02*
X5583000Y-11607000D01*
X5518000Y-11542000D01*
X5453000Y-11607000D01*
X5518000Y-11672000D01*
D11*
X5948539Y-11698484D02*
X5834253Y-11698484D01*
X5891396Y-11698484D02*
X5891396Y-11498484D01*
X5891396Y-11498484D02*
X5872348Y-11527055D01*
X5872348Y-11527055D02*
X5853301Y-11546103D01*
X5853301Y-11546103D02*
X5834253Y-11555627D01*
X6034253Y-11679436D02*
X6043777Y-11688960D01*
X6043777Y-11688960D02*
X6034253Y-11698484D01*
X6034253Y-11698484D02*
X6024729Y-11688960D01*
X6024729Y-11688960D02*
X6034253Y-11679436D01*
X6034253Y-11679436D02*
X6034253Y-11698484D01*
X6110443Y-11498484D02*
X6234253Y-11498484D01*
X6234253Y-11498484D02*
X6167586Y-11574674D01*
X6167586Y-11574674D02*
X6196158Y-11574674D01*
X6196158Y-11574674D02*
X6215205Y-11584198D01*
X6215205Y-11584198D02*
X6224729Y-11593722D01*
X6224729Y-11593722D02*
X6234253Y-11612769D01*
X6234253Y-11612769D02*
X6234253Y-11660388D01*
X6234253Y-11660388D02*
X6224729Y-11679436D01*
X6224729Y-11679436D02*
X6215205Y-11688960D01*
X6215205Y-11688960D02*
X6196158Y-11698484D01*
X6196158Y-11698484D02*
X6139015Y-11698484D01*
X6139015Y-11698484D02*
X6119967Y-11688960D01*
X6119967Y-11688960D02*
X6110443Y-11679436D01*
X6358062Y-11498484D02*
X6377110Y-11498484D01*
X6377110Y-11498484D02*
X6396158Y-11508008D01*
X6396158Y-11508008D02*
X6405682Y-11517531D01*
X6405682Y-11517531D02*
X6415205Y-11536579D01*
X6415205Y-11536579D02*
X6424729Y-11574674D01*
X6424729Y-11574674D02*
X6424729Y-11622293D01*
X6424729Y-11622293D02*
X6415205Y-11660388D01*
X6415205Y-11660388D02*
X6405682Y-11679436D01*
X6405682Y-11679436D02*
X6396158Y-11688960D01*
X6396158Y-11688960D02*
X6377110Y-11698484D01*
X6377110Y-11698484D02*
X6358062Y-11698484D01*
X6358062Y-11698484D02*
X6339015Y-11688960D01*
X6339015Y-11688960D02*
X6329491Y-11679436D01*
X6329491Y-11679436D02*
X6319967Y-11660388D01*
X6319967Y-11660388D02*
X6310443Y-11622293D01*
X6310443Y-11622293D02*
X6310443Y-11574674D01*
X6310443Y-11574674D02*
X6319967Y-11536579D01*
X6319967Y-11536579D02*
X6329491Y-11517531D01*
X6329491Y-11517531D02*
X6339015Y-11508008D01*
X6339015Y-11508008D02*
X6358062Y-11498484D01*
X6548539Y-11498484D02*
X6567586Y-11498484D01*
X6567586Y-11498484D02*
X6586634Y-11508008D01*
X6586634Y-11508008D02*
X6596158Y-11517531D01*
X6596158Y-11517531D02*
X6605682Y-11536579D01*
X6605682Y-11536579D02*
X6615205Y-11574674D01*
X6615205Y-11574674D02*
X6615205Y-11622293D01*
X6615205Y-11622293D02*
X6605682Y-11660388D01*
X6605682Y-11660388D02*
X6596158Y-11679436D01*
X6596158Y-11679436D02*
X6586634Y-11688960D01*
X6586634Y-11688960D02*
X6567586Y-11698484D01*
X6567586Y-11698484D02*
X6548539Y-11698484D01*
X6548539Y-11698484D02*
X6529491Y-11688960D01*
X6529491Y-11688960D02*
X6519967Y-11679436D01*
X6519967Y-11679436D02*
X6510443Y-11660388D01*
X6510443Y-11660388D02*
X6500920Y-11622293D01*
X6500920Y-11622293D02*
X6500920Y-11574674D01*
X6500920Y-11574674D02*
X6510443Y-11536579D01*
X6510443Y-11536579D02*
X6519967Y-11517531D01*
X6519967Y-11517531D02*
X6529491Y-11508008D01*
X6529491Y-11508008D02*
X6548539Y-11498484D01*
X6700920Y-11698484D02*
X6700920Y-11565150D01*
X6700920Y-11584198D02*
X6710443Y-11574674D01*
X6710443Y-11574674D02*
X6729491Y-11565150D01*
X6729491Y-11565150D02*
X6758063Y-11565150D01*
X6758063Y-11565150D02*
X6777110Y-11574674D01*
X6777110Y-11574674D02*
X6786634Y-11593722D01*
X6786634Y-11593722D02*
X6786634Y-11698484D01*
X6786634Y-11593722D02*
X6796158Y-11574674D01*
X6796158Y-11574674D02*
X6815205Y-11565150D01*
X6815205Y-11565150D02*
X6843777Y-11565150D01*
X6843777Y-11565150D02*
X6862824Y-11574674D01*
X6862824Y-11574674D02*
X6872348Y-11593722D01*
X6872348Y-11593722D02*
X6872348Y-11698484D01*
X6967586Y-11698484D02*
X6967586Y-11565150D01*
X6967586Y-11584198D02*
X6977110Y-11574674D01*
X6977110Y-11574674D02*
X6996158Y-11565150D01*
X6996158Y-11565150D02*
X7024729Y-11565150D01*
X7024729Y-11565150D02*
X7043777Y-11574674D01*
X7043777Y-11574674D02*
X7053301Y-11593722D01*
X7053301Y-11593722D02*
X7053301Y-11698484D01*
X7053301Y-11593722D02*
X7062824Y-11574674D01*
X7062824Y-11574674D02*
X7081872Y-11565150D01*
X7081872Y-11565150D02*
X7110443Y-11565150D01*
X7110443Y-11565150D02*
X7129491Y-11574674D01*
X7129491Y-11574674D02*
X7139015Y-11593722D01*
X7139015Y-11593722D02*
X7139015Y-11698484D01*
X7529491Y-11488960D02*
X7358063Y-11746103D01*
X7786634Y-11498484D02*
X7805682Y-11498484D01*
X7805682Y-11498484D02*
X7824729Y-11508008D01*
X7824729Y-11508008D02*
X7834253Y-11517531D01*
X7834253Y-11517531D02*
X7843777Y-11536579D01*
X7843777Y-11536579D02*
X7853301Y-11574674D01*
X7853301Y-11574674D02*
X7853301Y-11622293D01*
X7853301Y-11622293D02*
X7843777Y-11660388D01*
X7843777Y-11660388D02*
X7834253Y-11679436D01*
X7834253Y-11679436D02*
X7824729Y-11688960D01*
X7824729Y-11688960D02*
X7805682Y-11698484D01*
X7805682Y-11698484D02*
X7786634Y-11698484D01*
X7786634Y-11698484D02*
X7767586Y-11688960D01*
X7767586Y-11688960D02*
X7758063Y-11679436D01*
X7758063Y-11679436D02*
X7748539Y-11660388D01*
X7748539Y-11660388D02*
X7739015Y-11622293D01*
X7739015Y-11622293D02*
X7739015Y-11574674D01*
X7739015Y-11574674D02*
X7748539Y-11536579D01*
X7748539Y-11536579D02*
X7758063Y-11517531D01*
X7758063Y-11517531D02*
X7767586Y-11508008D01*
X7767586Y-11508008D02*
X7786634Y-11498484D01*
X7939015Y-11679436D02*
X7948539Y-11688960D01*
X7948539Y-11688960D02*
X7939015Y-11698484D01*
X7939015Y-11698484D02*
X7929491Y-11688960D01*
X7929491Y-11688960D02*
X7939015Y-11679436D01*
X7939015Y-11679436D02*
X7939015Y-11698484D01*
X8072348Y-11498484D02*
X8091396Y-11498484D01*
X8091396Y-11498484D02*
X8110444Y-11508008D01*
X8110444Y-11508008D02*
X8119967Y-11517531D01*
X8119967Y-11517531D02*
X8129491Y-11536579D01*
X8129491Y-11536579D02*
X8139015Y-11574674D01*
X8139015Y-11574674D02*
X8139015Y-11622293D01*
X8139015Y-11622293D02*
X8129491Y-11660388D01*
X8129491Y-11660388D02*
X8119967Y-11679436D01*
X8119967Y-11679436D02*
X8110444Y-11688960D01*
X8110444Y-11688960D02*
X8091396Y-11698484D01*
X8091396Y-11698484D02*
X8072348Y-11698484D01*
X8072348Y-11698484D02*
X8053301Y-11688960D01*
X8053301Y-11688960D02*
X8043777Y-11679436D01*
X8043777Y-11679436D02*
X8034253Y-11660388D01*
X8034253Y-11660388D02*
X8024729Y-11622293D01*
X8024729Y-11622293D02*
X8024729Y-11574674D01*
X8024729Y-11574674D02*
X8034253Y-11536579D01*
X8034253Y-11536579D02*
X8043777Y-11517531D01*
X8043777Y-11517531D02*
X8053301Y-11508008D01*
X8053301Y-11508008D02*
X8072348Y-11498484D01*
X8319967Y-11498484D02*
X8224729Y-11498484D01*
X8224729Y-11498484D02*
X8215206Y-11593722D01*
X8215206Y-11593722D02*
X8224729Y-11584198D01*
X8224729Y-11584198D02*
X8243777Y-11574674D01*
X8243777Y-11574674D02*
X8291396Y-11574674D01*
X8291396Y-11574674D02*
X8310444Y-11584198D01*
X8310444Y-11584198D02*
X8319967Y-11593722D01*
X8319967Y-11593722D02*
X8329491Y-11612769D01*
X8329491Y-11612769D02*
X8329491Y-11660388D01*
X8329491Y-11660388D02*
X8319967Y-11679436D01*
X8319967Y-11679436D02*
X8310444Y-11688960D01*
X8310444Y-11688960D02*
X8291396Y-11698484D01*
X8291396Y-11698484D02*
X8243777Y-11698484D01*
X8243777Y-11698484D02*
X8224729Y-11688960D01*
X8224729Y-11688960D02*
X8215206Y-11679436D01*
X8519968Y-11698484D02*
X8405682Y-11698484D01*
X8462825Y-11698484D02*
X8462825Y-11498484D01*
X8462825Y-11498484D02*
X8443777Y-11527055D01*
X8443777Y-11527055D02*
X8424729Y-11546103D01*
X8424729Y-11546103D02*
X8405682Y-11555627D01*
X8596158Y-11517531D02*
X8605682Y-11508008D01*
X8605682Y-11508008D02*
X8624729Y-11498484D01*
X8624729Y-11498484D02*
X8672349Y-11498484D01*
X8672349Y-11498484D02*
X8691396Y-11508008D01*
X8691396Y-11508008D02*
X8700920Y-11517531D01*
X8700920Y-11517531D02*
X8710444Y-11536579D01*
X8710444Y-11536579D02*
X8710444Y-11555627D01*
X8710444Y-11555627D02*
X8700920Y-11584198D01*
X8700920Y-11584198D02*
X8586634Y-11698484D01*
X8586634Y-11698484D02*
X8710444Y-11698484D01*
X8786634Y-11498484D02*
X8786634Y-11536579D01*
X8862825Y-11498484D02*
X8862825Y-11536579D01*
X9158063Y-11774674D02*
X9148539Y-11765150D01*
X9148539Y-11765150D02*
X9129491Y-11736579D01*
X9129491Y-11736579D02*
X9119968Y-11717531D01*
X9119968Y-11717531D02*
X9110444Y-11688960D01*
X9110444Y-11688960D02*
X9100920Y-11641341D01*
X9100920Y-11641341D02*
X9100920Y-11603246D01*
X9100920Y-11603246D02*
X9110444Y-11555627D01*
X9110444Y-11555627D02*
X9119968Y-11527055D01*
X9119968Y-11527055D02*
X9129491Y-11508008D01*
X9129491Y-11508008D02*
X9148539Y-11479436D01*
X9148539Y-11479436D02*
X9158063Y-11469912D01*
X9319968Y-11498484D02*
X9281872Y-11498484D01*
X9281872Y-11498484D02*
X9262825Y-11508008D01*
X9262825Y-11508008D02*
X9253301Y-11517531D01*
X9253301Y-11517531D02*
X9234253Y-11546103D01*
X9234253Y-11546103D02*
X9224730Y-11584198D01*
X9224730Y-11584198D02*
X9224730Y-11660388D01*
X9224730Y-11660388D02*
X9234253Y-11679436D01*
X9234253Y-11679436D02*
X9243777Y-11688960D01*
X9243777Y-11688960D02*
X9262825Y-11698484D01*
X9262825Y-11698484D02*
X9300920Y-11698484D01*
X9300920Y-11698484D02*
X9319968Y-11688960D01*
X9319968Y-11688960D02*
X9329491Y-11679436D01*
X9329491Y-11679436D02*
X9339015Y-11660388D01*
X9339015Y-11660388D02*
X9339015Y-11612769D01*
X9339015Y-11612769D02*
X9329491Y-11593722D01*
X9329491Y-11593722D02*
X9319968Y-11584198D01*
X9319968Y-11584198D02*
X9300920Y-11574674D01*
X9300920Y-11574674D02*
X9262825Y-11574674D01*
X9262825Y-11574674D02*
X9243777Y-11584198D01*
X9243777Y-11584198D02*
X9234253Y-11593722D01*
X9234253Y-11593722D02*
X9224730Y-11612769D01*
X9577111Y-11698484D02*
X9577111Y-11498484D01*
X9662825Y-11698484D02*
X9662825Y-11593722D01*
X9662825Y-11593722D02*
X9653301Y-11574674D01*
X9653301Y-11574674D02*
X9634253Y-11565150D01*
X9634253Y-11565150D02*
X9605682Y-11565150D01*
X9605682Y-11565150D02*
X9586634Y-11574674D01*
X9586634Y-11574674D02*
X9577111Y-11584198D01*
X9786634Y-11698484D02*
X9767587Y-11688960D01*
X9767587Y-11688960D02*
X9758063Y-11679436D01*
X9758063Y-11679436D02*
X9748539Y-11660388D01*
X9748539Y-11660388D02*
X9748539Y-11603246D01*
X9748539Y-11603246D02*
X9758063Y-11584198D01*
X9758063Y-11584198D02*
X9767587Y-11574674D01*
X9767587Y-11574674D02*
X9786634Y-11565150D01*
X9786634Y-11565150D02*
X9815206Y-11565150D01*
X9815206Y-11565150D02*
X9834253Y-11574674D01*
X9834253Y-11574674D02*
X9843777Y-11584198D01*
X9843777Y-11584198D02*
X9853301Y-11603246D01*
X9853301Y-11603246D02*
X9853301Y-11660388D01*
X9853301Y-11660388D02*
X9843777Y-11679436D01*
X9843777Y-11679436D02*
X9834253Y-11688960D01*
X9834253Y-11688960D02*
X9815206Y-11698484D01*
X9815206Y-11698484D02*
X9786634Y-11698484D01*
X9967587Y-11698484D02*
X9948539Y-11688960D01*
X9948539Y-11688960D02*
X9939015Y-11669912D01*
X9939015Y-11669912D02*
X9939015Y-11498484D01*
X10119968Y-11688960D02*
X10100920Y-11698484D01*
X10100920Y-11698484D02*
X10062825Y-11698484D01*
X10062825Y-11698484D02*
X10043777Y-11688960D01*
X10043777Y-11688960D02*
X10034253Y-11669912D01*
X10034253Y-11669912D02*
X10034253Y-11593722D01*
X10034253Y-11593722D02*
X10043777Y-11574674D01*
X10043777Y-11574674D02*
X10062825Y-11565150D01*
X10062825Y-11565150D02*
X10100920Y-11565150D01*
X10100920Y-11565150D02*
X10119968Y-11574674D01*
X10119968Y-11574674D02*
X10129492Y-11593722D01*
X10129492Y-11593722D02*
X10129492Y-11612769D01*
X10129492Y-11612769D02*
X10034253Y-11631817D01*
X10205682Y-11688960D02*
X10224730Y-11698484D01*
X10224730Y-11698484D02*
X10262825Y-11698484D01*
X10262825Y-11698484D02*
X10281873Y-11688960D01*
X10281873Y-11688960D02*
X10291396Y-11669912D01*
X10291396Y-11669912D02*
X10291396Y-11660388D01*
X10291396Y-11660388D02*
X10281873Y-11641341D01*
X10281873Y-11641341D02*
X10262825Y-11631817D01*
X10262825Y-11631817D02*
X10234253Y-11631817D01*
X10234253Y-11631817D02*
X10215206Y-11622293D01*
X10215206Y-11622293D02*
X10205682Y-11603246D01*
X10205682Y-11603246D02*
X10205682Y-11593722D01*
X10205682Y-11593722D02*
X10215206Y-11574674D01*
X10215206Y-11574674D02*
X10234253Y-11565150D01*
X10234253Y-11565150D02*
X10262825Y-11565150D01*
X10262825Y-11565150D02*
X10281873Y-11574674D01*
X10358063Y-11774674D02*
X10367587Y-11765150D01*
X10367587Y-11765150D02*
X10386634Y-11736579D01*
X10386634Y-11736579D02*
X10396158Y-11717531D01*
X10396158Y-11717531D02*
X10405682Y-11688960D01*
X10405682Y-11688960D02*
X10415206Y-11641341D01*
X10415206Y-11641341D02*
X10415206Y-11603246D01*
X10415206Y-11603246D02*
X10405682Y-11555627D01*
X10405682Y-11555627D02*
X10396158Y-11527055D01*
X10396158Y-11527055D02*
X10386634Y-11508008D01*
X10386634Y-11508008D02*
X10367587Y-11479436D01*
X10367587Y-11479436D02*
X10358063Y-11469912D01*
D15*
X5431000Y-11795000D02*
X5583000Y-11947000D01*
X5583000Y-11795000D02*
X5431000Y-11947000D01*
X5583000Y-11871000D02*
G75*
G03*
X5431000Y-11871000I-76000J0D01*
G01*
X5431000Y-11871000D02*
G75*
G03*
X5583000Y-11871000I76000J0D01*
G01*
D11*
X5948539Y-11962484D02*
X5834253Y-11962484D01*
X5891396Y-11962484D02*
X5891396Y-11762484D01*
X5891396Y-11762484D02*
X5872348Y-11791055D01*
X5872348Y-11791055D02*
X5853301Y-11810103D01*
X5853301Y-11810103D02*
X5834253Y-11819627D01*
X6034253Y-11943436D02*
X6043777Y-11952960D01*
X6043777Y-11952960D02*
X6034253Y-11962484D01*
X6034253Y-11962484D02*
X6024729Y-11952960D01*
X6024729Y-11952960D02*
X6034253Y-11943436D01*
X6034253Y-11943436D02*
X6034253Y-11962484D01*
X6224729Y-11762484D02*
X6129491Y-11762484D01*
X6129491Y-11762484D02*
X6119967Y-11857722D01*
X6119967Y-11857722D02*
X6129491Y-11848198D01*
X6129491Y-11848198D02*
X6148539Y-11838674D01*
X6148539Y-11838674D02*
X6196158Y-11838674D01*
X6196158Y-11838674D02*
X6215205Y-11848198D01*
X6215205Y-11848198D02*
X6224729Y-11857722D01*
X6224729Y-11857722D02*
X6234253Y-11876769D01*
X6234253Y-11876769D02*
X6234253Y-11924388D01*
X6234253Y-11924388D02*
X6224729Y-11943436D01*
X6224729Y-11943436D02*
X6215205Y-11952960D01*
X6215205Y-11952960D02*
X6196158Y-11962484D01*
X6196158Y-11962484D02*
X6148539Y-11962484D01*
X6148539Y-11962484D02*
X6129491Y-11952960D01*
X6129491Y-11952960D02*
X6119967Y-11943436D01*
X6310443Y-11781531D02*
X6319967Y-11772008D01*
X6319967Y-11772008D02*
X6339015Y-11762484D01*
X6339015Y-11762484D02*
X6386634Y-11762484D01*
X6386634Y-11762484D02*
X6405682Y-11772008D01*
X6405682Y-11772008D02*
X6415205Y-11781531D01*
X6415205Y-11781531D02*
X6424729Y-11800579D01*
X6424729Y-11800579D02*
X6424729Y-11819627D01*
X6424729Y-11819627D02*
X6415205Y-11848198D01*
X6415205Y-11848198D02*
X6300920Y-11962484D01*
X6300920Y-11962484D02*
X6424729Y-11962484D01*
X6548539Y-11762484D02*
X6567586Y-11762484D01*
X6567586Y-11762484D02*
X6586634Y-11772008D01*
X6586634Y-11772008D02*
X6596158Y-11781531D01*
X6596158Y-11781531D02*
X6605682Y-11800579D01*
X6605682Y-11800579D02*
X6615205Y-11838674D01*
X6615205Y-11838674D02*
X6615205Y-11886293D01*
X6615205Y-11886293D02*
X6605682Y-11924388D01*
X6605682Y-11924388D02*
X6596158Y-11943436D01*
X6596158Y-11943436D02*
X6586634Y-11952960D01*
X6586634Y-11952960D02*
X6567586Y-11962484D01*
X6567586Y-11962484D02*
X6548539Y-11962484D01*
X6548539Y-11962484D02*
X6529491Y-11952960D01*
X6529491Y-11952960D02*
X6519967Y-11943436D01*
X6519967Y-11943436D02*
X6510443Y-11924388D01*
X6510443Y-11924388D02*
X6500920Y-11886293D01*
X6500920Y-11886293D02*
X6500920Y-11838674D01*
X6500920Y-11838674D02*
X6510443Y-11800579D01*
X6510443Y-11800579D02*
X6519967Y-11781531D01*
X6519967Y-11781531D02*
X6529491Y-11772008D01*
X6529491Y-11772008D02*
X6548539Y-11762484D01*
X6700920Y-11962484D02*
X6700920Y-11829150D01*
X6700920Y-11848198D02*
X6710443Y-11838674D01*
X6710443Y-11838674D02*
X6729491Y-11829150D01*
X6729491Y-11829150D02*
X6758063Y-11829150D01*
X6758063Y-11829150D02*
X6777110Y-11838674D01*
X6777110Y-11838674D02*
X6786634Y-11857722D01*
X6786634Y-11857722D02*
X6786634Y-11962484D01*
X6786634Y-11857722D02*
X6796158Y-11838674D01*
X6796158Y-11838674D02*
X6815205Y-11829150D01*
X6815205Y-11829150D02*
X6843777Y-11829150D01*
X6843777Y-11829150D02*
X6862824Y-11838674D01*
X6862824Y-11838674D02*
X6872348Y-11857722D01*
X6872348Y-11857722D02*
X6872348Y-11962484D01*
X6967586Y-11962484D02*
X6967586Y-11829150D01*
X6967586Y-11848198D02*
X6977110Y-11838674D01*
X6977110Y-11838674D02*
X6996158Y-11829150D01*
X6996158Y-11829150D02*
X7024729Y-11829150D01*
X7024729Y-11829150D02*
X7043777Y-11838674D01*
X7043777Y-11838674D02*
X7053301Y-11857722D01*
X7053301Y-11857722D02*
X7053301Y-11962484D01*
X7053301Y-11857722D02*
X7062824Y-11838674D01*
X7062824Y-11838674D02*
X7081872Y-11829150D01*
X7081872Y-11829150D02*
X7110443Y-11829150D01*
X7110443Y-11829150D02*
X7129491Y-11838674D01*
X7129491Y-11838674D02*
X7139015Y-11857722D01*
X7139015Y-11857722D02*
X7139015Y-11962484D01*
X7529491Y-11752960D02*
X7358063Y-12010103D01*
X7786634Y-11762484D02*
X7805682Y-11762484D01*
X7805682Y-11762484D02*
X7824729Y-11772008D01*
X7824729Y-11772008D02*
X7834253Y-11781531D01*
X7834253Y-11781531D02*
X7843777Y-11800579D01*
X7843777Y-11800579D02*
X7853301Y-11838674D01*
X7853301Y-11838674D02*
X7853301Y-11886293D01*
X7853301Y-11886293D02*
X7843777Y-11924388D01*
X7843777Y-11924388D02*
X7834253Y-11943436D01*
X7834253Y-11943436D02*
X7824729Y-11952960D01*
X7824729Y-11952960D02*
X7805682Y-11962484D01*
X7805682Y-11962484D02*
X7786634Y-11962484D01*
X7786634Y-11962484D02*
X7767586Y-11952960D01*
X7767586Y-11952960D02*
X7758063Y-11943436D01*
X7758063Y-11943436D02*
X7748539Y-11924388D01*
X7748539Y-11924388D02*
X7739015Y-11886293D01*
X7739015Y-11886293D02*
X7739015Y-11838674D01*
X7739015Y-11838674D02*
X7748539Y-11800579D01*
X7748539Y-11800579D02*
X7758063Y-11781531D01*
X7758063Y-11781531D02*
X7767586Y-11772008D01*
X7767586Y-11772008D02*
X7786634Y-11762484D01*
X7939015Y-11943436D02*
X7948539Y-11952960D01*
X7948539Y-11952960D02*
X7939015Y-11962484D01*
X7939015Y-11962484D02*
X7929491Y-11952960D01*
X7929491Y-11952960D02*
X7939015Y-11943436D01*
X7939015Y-11943436D02*
X7939015Y-11962484D01*
X8072348Y-11762484D02*
X8091396Y-11762484D01*
X8091396Y-11762484D02*
X8110444Y-11772008D01*
X8110444Y-11772008D02*
X8119967Y-11781531D01*
X8119967Y-11781531D02*
X8129491Y-11800579D01*
X8129491Y-11800579D02*
X8139015Y-11838674D01*
X8139015Y-11838674D02*
X8139015Y-11886293D01*
X8139015Y-11886293D02*
X8129491Y-11924388D01*
X8129491Y-11924388D02*
X8119967Y-11943436D01*
X8119967Y-11943436D02*
X8110444Y-11952960D01*
X8110444Y-11952960D02*
X8091396Y-11962484D01*
X8091396Y-11962484D02*
X8072348Y-11962484D01*
X8072348Y-11962484D02*
X8053301Y-11952960D01*
X8053301Y-11952960D02*
X8043777Y-11943436D01*
X8043777Y-11943436D02*
X8034253Y-11924388D01*
X8034253Y-11924388D02*
X8024729Y-11886293D01*
X8024729Y-11886293D02*
X8024729Y-11838674D01*
X8024729Y-11838674D02*
X8034253Y-11800579D01*
X8034253Y-11800579D02*
X8043777Y-11781531D01*
X8043777Y-11781531D02*
X8053301Y-11772008D01*
X8053301Y-11772008D02*
X8072348Y-11762484D01*
X8319967Y-11762484D02*
X8224729Y-11762484D01*
X8224729Y-11762484D02*
X8215206Y-11857722D01*
X8215206Y-11857722D02*
X8224729Y-11848198D01*
X8224729Y-11848198D02*
X8243777Y-11838674D01*
X8243777Y-11838674D02*
X8291396Y-11838674D01*
X8291396Y-11838674D02*
X8310444Y-11848198D01*
X8310444Y-11848198D02*
X8319967Y-11857722D01*
X8319967Y-11857722D02*
X8329491Y-11876769D01*
X8329491Y-11876769D02*
X8329491Y-11924388D01*
X8329491Y-11924388D02*
X8319967Y-11943436D01*
X8319967Y-11943436D02*
X8310444Y-11952960D01*
X8310444Y-11952960D02*
X8291396Y-11962484D01*
X8291396Y-11962484D02*
X8243777Y-11962484D01*
X8243777Y-11962484D02*
X8224729Y-11952960D01*
X8224729Y-11952960D02*
X8215206Y-11943436D01*
X8424729Y-11962484D02*
X8462825Y-11962484D01*
X8462825Y-11962484D02*
X8481872Y-11952960D01*
X8481872Y-11952960D02*
X8491396Y-11943436D01*
X8491396Y-11943436D02*
X8510444Y-11914865D01*
X8510444Y-11914865D02*
X8519968Y-11876769D01*
X8519968Y-11876769D02*
X8519968Y-11800579D01*
X8519968Y-11800579D02*
X8510444Y-11781531D01*
X8510444Y-11781531D02*
X8500920Y-11772008D01*
X8500920Y-11772008D02*
X8481872Y-11762484D01*
X8481872Y-11762484D02*
X8443777Y-11762484D01*
X8443777Y-11762484D02*
X8424729Y-11772008D01*
X8424729Y-11772008D02*
X8415206Y-11781531D01*
X8415206Y-11781531D02*
X8405682Y-11800579D01*
X8405682Y-11800579D02*
X8405682Y-11848198D01*
X8405682Y-11848198D02*
X8415206Y-11867246D01*
X8415206Y-11867246D02*
X8424729Y-11876769D01*
X8424729Y-11876769D02*
X8443777Y-11886293D01*
X8443777Y-11886293D02*
X8481872Y-11886293D01*
X8481872Y-11886293D02*
X8500920Y-11876769D01*
X8500920Y-11876769D02*
X8510444Y-11867246D01*
X8510444Y-11867246D02*
X8519968Y-11848198D01*
X8634253Y-11848198D02*
X8615206Y-11838674D01*
X8615206Y-11838674D02*
X8605682Y-11829150D01*
X8605682Y-11829150D02*
X8596158Y-11810103D01*
X8596158Y-11810103D02*
X8596158Y-11800579D01*
X8596158Y-11800579D02*
X8605682Y-11781531D01*
X8605682Y-11781531D02*
X8615206Y-11772008D01*
X8615206Y-11772008D02*
X8634253Y-11762484D01*
X8634253Y-11762484D02*
X8672349Y-11762484D01*
X8672349Y-11762484D02*
X8691396Y-11772008D01*
X8691396Y-11772008D02*
X8700920Y-11781531D01*
X8700920Y-11781531D02*
X8710444Y-11800579D01*
X8710444Y-11800579D02*
X8710444Y-11810103D01*
X8710444Y-11810103D02*
X8700920Y-11829150D01*
X8700920Y-11829150D02*
X8691396Y-11838674D01*
X8691396Y-11838674D02*
X8672349Y-11848198D01*
X8672349Y-11848198D02*
X8634253Y-11848198D01*
X8634253Y-11848198D02*
X8615206Y-11857722D01*
X8615206Y-11857722D02*
X8605682Y-11867246D01*
X8605682Y-11867246D02*
X8596158Y-11886293D01*
X8596158Y-11886293D02*
X8596158Y-11924388D01*
X8596158Y-11924388D02*
X8605682Y-11943436D01*
X8605682Y-11943436D02*
X8615206Y-11952960D01*
X8615206Y-11952960D02*
X8634253Y-11962484D01*
X8634253Y-11962484D02*
X8672349Y-11962484D01*
X8672349Y-11962484D02*
X8691396Y-11952960D01*
X8691396Y-11952960D02*
X8700920Y-11943436D01*
X8700920Y-11943436D02*
X8710444Y-11924388D01*
X8710444Y-11924388D02*
X8710444Y-11886293D01*
X8710444Y-11886293D02*
X8700920Y-11867246D01*
X8700920Y-11867246D02*
X8691396Y-11857722D01*
X8691396Y-11857722D02*
X8672349Y-11848198D01*
X8786634Y-11762484D02*
X8786634Y-11800579D01*
X8862825Y-11762484D02*
X8862825Y-11800579D01*
X9158063Y-12038674D02*
X9148539Y-12029150D01*
X9148539Y-12029150D02*
X9129491Y-12000579D01*
X9129491Y-12000579D02*
X9119968Y-11981531D01*
X9119968Y-11981531D02*
X9110444Y-11952960D01*
X9110444Y-11952960D02*
X9100920Y-11905341D01*
X9100920Y-11905341D02*
X9100920Y-11867246D01*
X9100920Y-11867246D02*
X9110444Y-11819627D01*
X9110444Y-11819627D02*
X9119968Y-11791055D01*
X9119968Y-11791055D02*
X9129491Y-11772008D01*
X9129491Y-11772008D02*
X9148539Y-11743436D01*
X9148539Y-11743436D02*
X9158063Y-11733912D01*
X9319968Y-11762484D02*
X9281872Y-11762484D01*
X9281872Y-11762484D02*
X9262825Y-11772008D01*
X9262825Y-11772008D02*
X9253301Y-11781531D01*
X9253301Y-11781531D02*
X9234253Y-11810103D01*
X9234253Y-11810103D02*
X9224730Y-11848198D01*
X9224730Y-11848198D02*
X9224730Y-11924388D01*
X9224730Y-11924388D02*
X9234253Y-11943436D01*
X9234253Y-11943436D02*
X9243777Y-11952960D01*
X9243777Y-11952960D02*
X9262825Y-11962484D01*
X9262825Y-11962484D02*
X9300920Y-11962484D01*
X9300920Y-11962484D02*
X9319968Y-11952960D01*
X9319968Y-11952960D02*
X9329491Y-11943436D01*
X9329491Y-11943436D02*
X9339015Y-11924388D01*
X9339015Y-11924388D02*
X9339015Y-11876769D01*
X9339015Y-11876769D02*
X9329491Y-11857722D01*
X9329491Y-11857722D02*
X9319968Y-11848198D01*
X9319968Y-11848198D02*
X9300920Y-11838674D01*
X9300920Y-11838674D02*
X9262825Y-11838674D01*
X9262825Y-11838674D02*
X9243777Y-11848198D01*
X9243777Y-11848198D02*
X9234253Y-11857722D01*
X9234253Y-11857722D02*
X9224730Y-11876769D01*
X9577111Y-11962484D02*
X9577111Y-11762484D01*
X9662825Y-11962484D02*
X9662825Y-11857722D01*
X9662825Y-11857722D02*
X9653301Y-11838674D01*
X9653301Y-11838674D02*
X9634253Y-11829150D01*
X9634253Y-11829150D02*
X9605682Y-11829150D01*
X9605682Y-11829150D02*
X9586634Y-11838674D01*
X9586634Y-11838674D02*
X9577111Y-11848198D01*
X9786634Y-11962484D02*
X9767587Y-11952960D01*
X9767587Y-11952960D02*
X9758063Y-11943436D01*
X9758063Y-11943436D02*
X9748539Y-11924388D01*
X9748539Y-11924388D02*
X9748539Y-11867246D01*
X9748539Y-11867246D02*
X9758063Y-11848198D01*
X9758063Y-11848198D02*
X9767587Y-11838674D01*
X9767587Y-11838674D02*
X9786634Y-11829150D01*
X9786634Y-11829150D02*
X9815206Y-11829150D01*
X9815206Y-11829150D02*
X9834253Y-11838674D01*
X9834253Y-11838674D02*
X9843777Y-11848198D01*
X9843777Y-11848198D02*
X9853301Y-11867246D01*
X9853301Y-11867246D02*
X9853301Y-11924388D01*
X9853301Y-11924388D02*
X9843777Y-11943436D01*
X9843777Y-11943436D02*
X9834253Y-11952960D01*
X9834253Y-11952960D02*
X9815206Y-11962484D01*
X9815206Y-11962484D02*
X9786634Y-11962484D01*
X9967587Y-11962484D02*
X9948539Y-11952960D01*
X9948539Y-11952960D02*
X9939015Y-11933912D01*
X9939015Y-11933912D02*
X9939015Y-11762484D01*
X10119968Y-11952960D02*
X10100920Y-11962484D01*
X10100920Y-11962484D02*
X10062825Y-11962484D01*
X10062825Y-11962484D02*
X10043777Y-11952960D01*
X10043777Y-11952960D02*
X10034253Y-11933912D01*
X10034253Y-11933912D02*
X10034253Y-11857722D01*
X10034253Y-11857722D02*
X10043777Y-11838674D01*
X10043777Y-11838674D02*
X10062825Y-11829150D01*
X10062825Y-11829150D02*
X10100920Y-11829150D01*
X10100920Y-11829150D02*
X10119968Y-11838674D01*
X10119968Y-11838674D02*
X10129492Y-11857722D01*
X10129492Y-11857722D02*
X10129492Y-11876769D01*
X10129492Y-11876769D02*
X10034253Y-11895817D01*
X10205682Y-11952960D02*
X10224730Y-11962484D01*
X10224730Y-11962484D02*
X10262825Y-11962484D01*
X10262825Y-11962484D02*
X10281873Y-11952960D01*
X10281873Y-11952960D02*
X10291396Y-11933912D01*
X10291396Y-11933912D02*
X10291396Y-11924388D01*
X10291396Y-11924388D02*
X10281873Y-11905341D01*
X10281873Y-11905341D02*
X10262825Y-11895817D01*
X10262825Y-11895817D02*
X10234253Y-11895817D01*
X10234253Y-11895817D02*
X10215206Y-11886293D01*
X10215206Y-11886293D02*
X10205682Y-11867246D01*
X10205682Y-11867246D02*
X10205682Y-11857722D01*
X10205682Y-11857722D02*
X10215206Y-11838674D01*
X10215206Y-11838674D02*
X10234253Y-11829150D01*
X10234253Y-11829150D02*
X10262825Y-11829150D01*
X10262825Y-11829150D02*
X10281873Y-11838674D01*
X10358063Y-12038674D02*
X10367587Y-12029150D01*
X10367587Y-12029150D02*
X10386634Y-12000579D01*
X10386634Y-12000579D02*
X10396158Y-11981531D01*
X10396158Y-11981531D02*
X10405682Y-11952960D01*
X10405682Y-11952960D02*
X10415206Y-11905341D01*
X10415206Y-11905341D02*
X10415206Y-11867246D01*
X10415206Y-11867246D02*
X10405682Y-11819627D01*
X10405682Y-11819627D02*
X10396158Y-11791055D01*
X10396158Y-11791055D02*
X10386634Y-11772008D01*
X10386634Y-11772008D02*
X10367587Y-11743436D01*
X10367587Y-11743436D02*
X10358063Y-11733912D01*
M02*
