%TF.GenerationSoftware,KiCad,Pcbnew,7.0.10*%
%TF.CreationDate,2024-03-10T12:39:34+01:00*%
%TF.ProjectId,double_relay,646f7562-6c65-45f7-9265-6c61792e6b69,rev?*%
%TF.SameCoordinates,Original*%
%TF.FileFunction,Drillmap*%
%TF.FilePolarity,Positive*%
%FSLAX45Y45*%
G04 Gerber Fmt 4.5, Leading zero omitted, Abs format (unit mm)*
G04 Created by KiCad (PCBNEW 7.0.10) date 2024-03-10 12:39:34*
%MOMM*%
%LPD*%
G01*
G04 APERTURE LIST*
%ADD10C,0.100000*%
%ADD11C,0.200000*%
G04 APERTURE END LIST*
D10*
X6096000Y-2540000D02*
G75*
G03*
X5588000Y-3048000I0J-508000D01*
G01*
X7562747Y-5119340D02*
G75*
G03*
X7736721Y-5118782I86983J1520D01*
G01*
X12954000Y-3048000D02*
G75*
G03*
X12446000Y-2540000I-508000J0D01*
G01*
X6526705Y-7112000D02*
X6783382Y-7421914D01*
X6690355Y-7112000D02*
X6690355Y-6030008D01*
X8232314Y-5118769D02*
X8232314Y-7025974D01*
X9688606Y-6227954D02*
G75*
G03*
X9366989Y-6227692I-160809J-361D01*
G01*
X11765771Y-8386590D02*
X11765771Y-9086590D01*
X6690355Y-6030008D02*
G75*
G03*
X6526705Y-6030008I-81825J0D01*
G01*
X8232313Y-5118769D02*
G75*
G03*
X7562747Y-5119340I-334783J-919D01*
G01*
X12099099Y-6176422D02*
G75*
G03*
X12273069Y-6175864I86981J1522D01*
G01*
X8058340Y-5119327D02*
X8058340Y-7026532D01*
X6690355Y-7112000D02*
X6947032Y-7421914D01*
X11765771Y-8386590D02*
G75*
G03*
X11602121Y-8386590I-81825J0D01*
G01*
X5588000Y-9398000D02*
G75*
G03*
X6096000Y-9906000I508000J0D01*
G01*
X6783382Y-7421914D02*
X6783382Y-8121914D01*
X9193021Y-6227967D02*
G75*
G03*
X9366987Y-6227409I86979J1547D01*
G01*
X11603492Y-6176435D02*
G75*
G03*
X11777476Y-6175877I86988J1535D01*
G01*
X9198471Y-8432331D02*
X9198471Y-9132331D01*
X12954000Y-3048000D02*
X12954000Y-9398000D01*
X9441000Y-4223000D02*
G75*
G03*
X9101000Y-4223000I-170000J0D01*
G01*
X9101000Y-4223000D02*
G75*
G03*
X9441000Y-4223000I170000J0D01*
G01*
X9362121Y-8432331D02*
X9362121Y-9132331D01*
X8058339Y-5119327D02*
G75*
G03*
X7736723Y-5119064I-160808J-369D01*
G01*
X6947032Y-7421914D02*
X6947032Y-8121914D01*
X12273069Y-6175864D02*
G75*
G03*
X11603502Y-6176435I-334783J-920D01*
G01*
X11602121Y-8386590D02*
X11602121Y-9086590D01*
X6783382Y-8121914D02*
G75*
G03*
X6947033Y-8121914I81825J0D01*
G01*
X9198471Y-9132331D02*
G75*
G03*
X9362121Y-9132331I81825J0D01*
G01*
X11602121Y-9086590D02*
G75*
G03*
X11765771Y-9086590I81825J0D01*
G01*
X9688608Y-6227954D02*
G75*
G03*
X9862580Y-6227396I86982J1524D01*
G01*
X9862580Y-6227396D02*
G75*
G03*
X9193013Y-6227967I-334783J-919D01*
G01*
X9362121Y-8432331D02*
G75*
G03*
X9198471Y-8432331I-81825J0D01*
G01*
X6096000Y-2540000D02*
X12446000Y-2540000D01*
X12446000Y-9906000D02*
G75*
G03*
X12954000Y-9398000I0J508000D01*
G01*
X5588000Y-9398000D02*
X5588000Y-3048000D01*
X8058334Y-7026532D02*
G75*
G03*
X8232314Y-7025974I86986J1532D01*
G01*
X12099103Y-6176422D02*
G75*
G03*
X11777478Y-6176160I-160813J-358D01*
G01*
X6526705Y-7112000D02*
X6526705Y-6030008D01*
X12446000Y-9906000D02*
X6096000Y-9906000D01*
D11*
X5843777Y-10222484D02*
X5843777Y-10022484D01*
X5843777Y-10022484D02*
X5891396Y-10022484D01*
X5891396Y-10022484D02*
X5919967Y-10032008D01*
X5919967Y-10032008D02*
X5939015Y-10051055D01*
X5939015Y-10051055D02*
X5948539Y-10070103D01*
X5948539Y-10070103D02*
X5958062Y-10108198D01*
X5958062Y-10108198D02*
X5958062Y-10136770D01*
X5958062Y-10136770D02*
X5948539Y-10174865D01*
X5948539Y-10174865D02*
X5939015Y-10193912D01*
X5939015Y-10193912D02*
X5919967Y-10212960D01*
X5919967Y-10212960D02*
X5891396Y-10222484D01*
X5891396Y-10222484D02*
X5843777Y-10222484D01*
X6043777Y-10222484D02*
X6043777Y-10089150D01*
X6043777Y-10127246D02*
X6053301Y-10108198D01*
X6053301Y-10108198D02*
X6062824Y-10098674D01*
X6062824Y-10098674D02*
X6081872Y-10089150D01*
X6081872Y-10089150D02*
X6100920Y-10089150D01*
X6167586Y-10222484D02*
X6167586Y-10089150D01*
X6167586Y-10022484D02*
X6158062Y-10032008D01*
X6158062Y-10032008D02*
X6167586Y-10041531D01*
X6167586Y-10041531D02*
X6177110Y-10032008D01*
X6177110Y-10032008D02*
X6167586Y-10022484D01*
X6167586Y-10022484D02*
X6167586Y-10041531D01*
X6291396Y-10222484D02*
X6272348Y-10212960D01*
X6272348Y-10212960D02*
X6262824Y-10193912D01*
X6262824Y-10193912D02*
X6262824Y-10022484D01*
X6396158Y-10222484D02*
X6377110Y-10212960D01*
X6377110Y-10212960D02*
X6367586Y-10193912D01*
X6367586Y-10193912D02*
X6367586Y-10022484D01*
X6624729Y-10222484D02*
X6624729Y-10022484D01*
X6624729Y-10022484D02*
X6691396Y-10165341D01*
X6691396Y-10165341D02*
X6758062Y-10022484D01*
X6758062Y-10022484D02*
X6758062Y-10222484D01*
X6939015Y-10222484D02*
X6939015Y-10117722D01*
X6939015Y-10117722D02*
X6929491Y-10098674D01*
X6929491Y-10098674D02*
X6910443Y-10089150D01*
X6910443Y-10089150D02*
X6872348Y-10089150D01*
X6872348Y-10089150D02*
X6853301Y-10098674D01*
X6939015Y-10212960D02*
X6919967Y-10222484D01*
X6919967Y-10222484D02*
X6872348Y-10222484D01*
X6872348Y-10222484D02*
X6853301Y-10212960D01*
X6853301Y-10212960D02*
X6843777Y-10193912D01*
X6843777Y-10193912D02*
X6843777Y-10174865D01*
X6843777Y-10174865D02*
X6853301Y-10155817D01*
X6853301Y-10155817D02*
X6872348Y-10146293D01*
X6872348Y-10146293D02*
X6919967Y-10146293D01*
X6919967Y-10146293D02*
X6939015Y-10136770D01*
X7034253Y-10089150D02*
X7034253Y-10289150D01*
X7034253Y-10098674D02*
X7053301Y-10089150D01*
X7053301Y-10089150D02*
X7091396Y-10089150D01*
X7091396Y-10089150D02*
X7110443Y-10098674D01*
X7110443Y-10098674D02*
X7119967Y-10108198D01*
X7119967Y-10108198D02*
X7129491Y-10127246D01*
X7129491Y-10127246D02*
X7129491Y-10184389D01*
X7129491Y-10184389D02*
X7119967Y-10203436D01*
X7119967Y-10203436D02*
X7110443Y-10212960D01*
X7110443Y-10212960D02*
X7091396Y-10222484D01*
X7091396Y-10222484D02*
X7053301Y-10222484D01*
X7053301Y-10222484D02*
X7034253Y-10212960D01*
X7215205Y-10203436D02*
X7224729Y-10212960D01*
X7224729Y-10212960D02*
X7215205Y-10222484D01*
X7215205Y-10222484D02*
X7205682Y-10212960D01*
X7205682Y-10212960D02*
X7215205Y-10203436D01*
X7215205Y-10203436D02*
X7215205Y-10222484D01*
X7215205Y-10098674D02*
X7224729Y-10108198D01*
X7224729Y-10108198D02*
X7215205Y-10117722D01*
X7215205Y-10117722D02*
X7205682Y-10108198D01*
X7205682Y-10108198D02*
X7215205Y-10098674D01*
X7215205Y-10098674D02*
X7215205Y-10117722D01*
M02*
