M48
; DRILL file {KiCad 7.0.10} date Sun Mar 10 12:39:32 2024
; FORMAT={-:-/ absolute / metric / decimal}
; #@! TF.CreationDate,2024-03-10T12:39:32+01:00
; #@! TF.GenerationSoftware,Kicad,Pcbnew,7.0.10
; #@! TF.FileFunction,Plated,1,2,PTH
FMAT,2
METRIC
; #@! TA.AperFunction,Plated,PTH,ComponentDrill
T1C0.800
; #@! TA.AperFunction,Plated,PTH,ComponentDrill
T2C1.000
; #@! TA.AperFunction,Plated,PTH,ComponentDrill
T3C1.100
; #@! TA.AperFunction,Plated,PTH,ComponentDrill
T4C1.200
; #@! TA.AperFunction,Plated,PTH,ComponentDrill
T5C1.300
; #@! TA.AperFunction,Plated,PTH,ComponentDrill
T6C1.520
%
G90
G05
T1
X79.93Y-44.82
X82.43Y-44.82
X91.465Y-53.855
X99.085Y-53.855
X104.14Y-53.34
X104.14Y-58.42
X104.633Y-31.577
X104.633Y-39.197
X106.68Y-55.88
X107.558Y-31.553
X107.558Y-39.173
X110.484Y-31.553
X110.484Y-39.173
X111.76Y-53.34
X119.38Y-53.34
X124.46Y-53.34
X124.46Y-58.42
X127.0Y-55.88
T2
X58.373Y-33.398
X58.42Y-73.66
X59.62Y-68.66
X63.573Y-62.798
X63.58Y-67.38
X68.573Y-62.798
X68.58Y-68.58
X73.773Y-33.398
X81.28Y-27.94
X81.28Y-33.02
X81.28Y-38.1
X83.78Y-27.94
X83.78Y-33.02
X83.78Y-38.1
X89.225Y-65.085
X100.33Y-27.155
X100.33Y-50.015
X101.225Y-65.085
X102.87Y-27.155
X102.87Y-50.015
X105.41Y-27.155
X105.41Y-50.015
X107.95Y-27.155
X107.95Y-50.015
X110.49Y-27.155
X110.49Y-50.015
X113.03Y-27.155
X113.03Y-50.015
X113.33Y-64.57
X115.57Y-27.155
X115.57Y-50.015
X118.11Y-27.155
X118.11Y-50.015
X125.33Y-64.57
T3
X91.391Y-57.352
X99.011Y-57.352
X111.891Y-56.836
X119.511Y-56.836
T4
X78.952Y-51.256
X78.952Y-66.496
T5
X89.225Y-77.285
X95.275Y-63.135
X101.275Y-77.335
X113.33Y-76.77
X119.38Y-62.62
X125.38Y-76.82
T6
X66.047Y-76.808
X71.127Y-76.808
X90.195Y-86.875
X95.275Y-86.875
X114.3Y-86.36
X119.38Y-86.36
M30
