M48
; DRILL file {KiCad 8.0.5} date 2024-11-16T19:04:19+0100
; FORMAT={-:-/ absolute / metric / decimal}
; #@! TF.CreationDate,2024-11-16T19:04:19+01:00
; #@! TF.GenerationSoftware,Kicad,Pcbnew,8.0.5
; #@! TF.FileFunction,Plated,1,2,PTH
FMAT,2
METRIC
; #@! TA.AperFunction,Plated,PTH,ComponentDrill
T1C0.800
; #@! TA.AperFunction,Plated,PTH,ComponentDrill
T2C1.000
%
G90
G05
T1
X83.82Y-52.993
X83.82Y-60.613
T2
X60.96Y-70.773
X60.96Y-73.313
X60.96Y-75.853
X60.96Y-78.393
X60.96Y-80.933
X60.96Y-83.473
X60.96Y-86.013
X60.96Y-88.553
X66.04Y-35.213
X66.04Y-40.293
X66.04Y-45.373
X68.58Y-35.213
X68.58Y-40.293
X68.58Y-45.373
X71.12Y-35.213
X71.12Y-40.293
X71.12Y-45.373
X73.66Y-35.213
X73.66Y-40.293
X73.66Y-45.373
X79.752Y-55.368
X79.752Y-57.908
X83.82Y-70.773
X83.82Y-73.313
X83.82Y-75.853
X83.82Y-78.393
X83.82Y-80.933
X83.82Y-83.473
X83.82Y-86.013
X83.82Y-88.553
M30
