%TF.GenerationSoftware,KiCad,Pcbnew,8.0.5*%
%TF.CreationDate,2024-11-16T19:04:16+01:00*%
%TF.ProjectId,esp8266-expansion-board,65737038-3236-4362-9d65-7870616e7369,rev?*%
%TF.SameCoordinates,Original*%
%TF.FileFunction,Legend,Top*%
%TF.FilePolarity,Positive*%
%FSLAX46Y46*%
G04 Gerber Fmt 4.6, Leading zero omitted, Abs format (unit mm)*
G04 Created by KiCad (PCBNEW 8.0.5) date 2024-11-16 19:04:16*
%MOMM*%
%LPD*%
G01*
G04 APERTURE LIST*
%ADD10C,0.100000*%
%ADD11C,0.150000*%
%ADD12C,0.120000*%
G04 APERTURE END LIST*
D10*
X62962307Y-45091664D02*
X65233937Y-45091664D01*
X76251535Y-45020615D02*
X74981672Y-45013117D01*
X68907631Y-34197463D02*
X68538864Y-34689426D01*
X69391240Y-44427979D02*
X69027290Y-45010298D01*
X69041654Y-38671571D02*
X69041654Y-39309093D01*
X64381146Y-38671571D02*
X69041654Y-38671571D01*
X63127186Y-35101994D02*
X64994906Y-35101994D01*
X70346150Y-34142135D02*
X70659673Y-34510986D01*
X65355040Y-43732114D02*
X69390512Y-43705910D01*
X68907631Y-33459761D02*
X68907631Y-34197463D01*
X65163792Y-33459761D02*
X68907631Y-33459761D01*
X74421749Y-43627297D02*
X70595912Y-43627297D01*
X74403512Y-33385991D02*
X70327707Y-33385991D01*
X70595912Y-44518245D02*
X70857956Y-45042332D01*
X63032217Y-40008717D02*
X65343855Y-39998813D01*
X70595912Y-43627297D02*
X70595912Y-44518245D01*
X76272789Y-34998783D02*
X75002926Y-34991285D01*
X69041654Y-39309093D02*
X68733884Y-39880665D01*
X69390512Y-43705910D02*
X69391240Y-44427979D01*
X70558517Y-39419011D02*
X70954220Y-39946616D01*
X75350925Y-38495703D02*
X70558517Y-38495703D01*
X70558517Y-38495703D02*
X70558517Y-39419011D01*
X76263609Y-40135065D02*
X74993746Y-40127567D01*
X70327707Y-33385991D02*
X70346150Y-34142135D01*
D11*
X77014118Y-39578640D02*
X76918880Y-39531021D01*
X76918880Y-39531021D02*
X76776023Y-39531021D01*
X76776023Y-39531021D02*
X76633166Y-39578640D01*
X76633166Y-39578640D02*
X76537928Y-39673878D01*
X76537928Y-39673878D02*
X76490309Y-39769116D01*
X76490309Y-39769116D02*
X76442690Y-39959592D01*
X76442690Y-39959592D02*
X76442690Y-40102449D01*
X76442690Y-40102449D02*
X76490309Y-40292925D01*
X76490309Y-40292925D02*
X76537928Y-40388163D01*
X76537928Y-40388163D02*
X76633166Y-40483402D01*
X76633166Y-40483402D02*
X76776023Y-40531021D01*
X76776023Y-40531021D02*
X76871261Y-40531021D01*
X76871261Y-40531021D02*
X77014118Y-40483402D01*
X77014118Y-40483402D02*
X77061737Y-40435782D01*
X77061737Y-40435782D02*
X77061737Y-40102449D01*
X77061737Y-40102449D02*
X76871261Y-40102449D01*
X77490309Y-40531021D02*
X77490309Y-39531021D01*
X77490309Y-39531021D02*
X78061737Y-40531021D01*
X78061737Y-40531021D02*
X78061737Y-39531021D01*
X78537928Y-40531021D02*
X78537928Y-39531021D01*
X78537928Y-39531021D02*
X78776023Y-39531021D01*
X78776023Y-39531021D02*
X78918880Y-39578640D01*
X78918880Y-39578640D02*
X79014118Y-39673878D01*
X79014118Y-39673878D02*
X79061737Y-39769116D01*
X79061737Y-39769116D02*
X79109356Y-39959592D01*
X79109356Y-39959592D02*
X79109356Y-40102449D01*
X79109356Y-40102449D02*
X79061737Y-40292925D01*
X79061737Y-40292925D02*
X79014118Y-40388163D01*
X79014118Y-40388163D02*
X78918880Y-40483402D01*
X78918880Y-40483402D02*
X78776023Y-40531021D01*
X78776023Y-40531021D02*
X78537928Y-40531021D01*
X60309103Y-44706601D02*
X60928150Y-44706601D01*
X60928150Y-44706601D02*
X60594817Y-45087553D01*
X60594817Y-45087553D02*
X60737674Y-45087553D01*
X60737674Y-45087553D02*
X60832912Y-45135172D01*
X60832912Y-45135172D02*
X60880531Y-45182791D01*
X60880531Y-45182791D02*
X60928150Y-45278029D01*
X60928150Y-45278029D02*
X60928150Y-45516124D01*
X60928150Y-45516124D02*
X60880531Y-45611362D01*
X60880531Y-45611362D02*
X60832912Y-45658982D01*
X60832912Y-45658982D02*
X60737674Y-45706601D01*
X60737674Y-45706601D02*
X60451960Y-45706601D01*
X60451960Y-45706601D02*
X60356722Y-45658982D01*
X60356722Y-45658982D02*
X60309103Y-45611362D01*
X61261484Y-45039934D02*
X61499579Y-45706601D01*
X61499579Y-45706601D02*
X61737674Y-45039934D01*
X62023389Y-44706601D02*
X62642436Y-44706601D01*
X62642436Y-44706601D02*
X62309103Y-45087553D01*
X62309103Y-45087553D02*
X62451960Y-45087553D01*
X62451960Y-45087553D02*
X62547198Y-45135172D01*
X62547198Y-45135172D02*
X62594817Y-45182791D01*
X62594817Y-45182791D02*
X62642436Y-45278029D01*
X62642436Y-45278029D02*
X62642436Y-45516124D01*
X62642436Y-45516124D02*
X62594817Y-45611362D01*
X62594817Y-45611362D02*
X62547198Y-45658982D01*
X62547198Y-45658982D02*
X62451960Y-45706601D01*
X62451960Y-45706601D02*
X62166246Y-45706601D01*
X62166246Y-45706601D02*
X62071008Y-45658982D01*
X62071008Y-45658982D02*
X62023389Y-45611362D01*
X65796600Y-42345720D02*
X65701362Y-42298101D01*
X65701362Y-42298101D02*
X65558505Y-42298101D01*
X65558505Y-42298101D02*
X65415648Y-42345720D01*
X65415648Y-42345720D02*
X65320410Y-42440958D01*
X65320410Y-42440958D02*
X65272791Y-42536196D01*
X65272791Y-42536196D02*
X65225172Y-42726672D01*
X65225172Y-42726672D02*
X65225172Y-42869529D01*
X65225172Y-42869529D02*
X65272791Y-43060005D01*
X65272791Y-43060005D02*
X65320410Y-43155243D01*
X65320410Y-43155243D02*
X65415648Y-43250482D01*
X65415648Y-43250482D02*
X65558505Y-43298101D01*
X65558505Y-43298101D02*
X65653743Y-43298101D01*
X65653743Y-43298101D02*
X65796600Y-43250482D01*
X65796600Y-43250482D02*
X65844219Y-43202862D01*
X65844219Y-43202862D02*
X65844219Y-42869529D01*
X65844219Y-42869529D02*
X65653743Y-42869529D01*
X66272791Y-43298101D02*
X66272791Y-42298101D01*
X66272791Y-42298101D02*
X66653743Y-42298101D01*
X66653743Y-42298101D02*
X66748981Y-42345720D01*
X66748981Y-42345720D02*
X66796600Y-42393339D01*
X66796600Y-42393339D02*
X66844219Y-42488577D01*
X66844219Y-42488577D02*
X66844219Y-42631434D01*
X66844219Y-42631434D02*
X66796600Y-42726672D01*
X66796600Y-42726672D02*
X66748981Y-42774291D01*
X66748981Y-42774291D02*
X66653743Y-42821910D01*
X66653743Y-42821910D02*
X66272791Y-42821910D01*
X67272791Y-43298101D02*
X67272791Y-42298101D01*
X67939457Y-42298101D02*
X68129933Y-42298101D01*
X68129933Y-42298101D02*
X68225171Y-42345720D01*
X68225171Y-42345720D02*
X68320409Y-42440958D01*
X68320409Y-42440958D02*
X68368028Y-42631434D01*
X68368028Y-42631434D02*
X68368028Y-42964767D01*
X68368028Y-42964767D02*
X68320409Y-43155243D01*
X68320409Y-43155243D02*
X68225171Y-43250482D01*
X68225171Y-43250482D02*
X68129933Y-43298101D01*
X68129933Y-43298101D02*
X67939457Y-43298101D01*
X67939457Y-43298101D02*
X67844219Y-43250482D01*
X67844219Y-43250482D02*
X67748981Y-43155243D01*
X67748981Y-43155243D02*
X67701362Y-42964767D01*
X67701362Y-42964767D02*
X67701362Y-42631434D01*
X67701362Y-42631434D02*
X67748981Y-42440958D01*
X67748981Y-42440958D02*
X67844219Y-42345720D01*
X67844219Y-42345720D02*
X67939457Y-42298101D01*
X69225171Y-42631434D02*
X69225171Y-43298101D01*
X68987076Y-42250482D02*
X68748981Y-42964767D01*
X68748981Y-42964767D02*
X69368028Y-42964767D01*
X71034695Y-42345720D02*
X70939457Y-42298101D01*
X70939457Y-42298101D02*
X70796600Y-42298101D01*
X70796600Y-42298101D02*
X70653743Y-42345720D01*
X70653743Y-42345720D02*
X70558505Y-42440958D01*
X70558505Y-42440958D02*
X70510886Y-42536196D01*
X70510886Y-42536196D02*
X70463267Y-42726672D01*
X70463267Y-42726672D02*
X70463267Y-42869529D01*
X70463267Y-42869529D02*
X70510886Y-43060005D01*
X70510886Y-43060005D02*
X70558505Y-43155243D01*
X70558505Y-43155243D02*
X70653743Y-43250482D01*
X70653743Y-43250482D02*
X70796600Y-43298101D01*
X70796600Y-43298101D02*
X70891838Y-43298101D01*
X70891838Y-43298101D02*
X71034695Y-43250482D01*
X71034695Y-43250482D02*
X71082314Y-43202862D01*
X71082314Y-43202862D02*
X71082314Y-42869529D01*
X71082314Y-42869529D02*
X70891838Y-42869529D01*
X71510886Y-43298101D02*
X71510886Y-42298101D01*
X71510886Y-42298101D02*
X71891838Y-42298101D01*
X71891838Y-42298101D02*
X71987076Y-42345720D01*
X71987076Y-42345720D02*
X72034695Y-42393339D01*
X72034695Y-42393339D02*
X72082314Y-42488577D01*
X72082314Y-42488577D02*
X72082314Y-42631434D01*
X72082314Y-42631434D02*
X72034695Y-42726672D01*
X72034695Y-42726672D02*
X71987076Y-42774291D01*
X71987076Y-42774291D02*
X71891838Y-42821910D01*
X71891838Y-42821910D02*
X71510886Y-42821910D01*
X72510886Y-43298101D02*
X72510886Y-42298101D01*
X73177552Y-42298101D02*
X73368028Y-42298101D01*
X73368028Y-42298101D02*
X73463266Y-42345720D01*
X73463266Y-42345720D02*
X73558504Y-42440958D01*
X73558504Y-42440958D02*
X73606123Y-42631434D01*
X73606123Y-42631434D02*
X73606123Y-42964767D01*
X73606123Y-42964767D02*
X73558504Y-43155243D01*
X73558504Y-43155243D02*
X73463266Y-43250482D01*
X73463266Y-43250482D02*
X73368028Y-43298101D01*
X73368028Y-43298101D02*
X73177552Y-43298101D01*
X73177552Y-43298101D02*
X73082314Y-43250482D01*
X73082314Y-43250482D02*
X72987076Y-43155243D01*
X72987076Y-43155243D02*
X72939457Y-42964767D01*
X72939457Y-42964767D02*
X72939457Y-42631434D01*
X72939457Y-42631434D02*
X72987076Y-42440958D01*
X72987076Y-42440958D02*
X73082314Y-42345720D01*
X73082314Y-42345720D02*
X73177552Y-42298101D01*
X74510885Y-42298101D02*
X74034695Y-42298101D01*
X74034695Y-42298101D02*
X73987076Y-42774291D01*
X73987076Y-42774291D02*
X74034695Y-42726672D01*
X74034695Y-42726672D02*
X74129933Y-42679053D01*
X74129933Y-42679053D02*
X74368028Y-42679053D01*
X74368028Y-42679053D02*
X74463266Y-42726672D01*
X74463266Y-42726672D02*
X74510885Y-42774291D01*
X74510885Y-42774291D02*
X74558504Y-42869529D01*
X74558504Y-42869529D02*
X74558504Y-43107624D01*
X74558504Y-43107624D02*
X74510885Y-43202862D01*
X74510885Y-43202862D02*
X74463266Y-43250482D01*
X74463266Y-43250482D02*
X74368028Y-43298101D01*
X74368028Y-43298101D02*
X74129933Y-43298101D01*
X74129933Y-43298101D02*
X74034695Y-43250482D01*
X74034695Y-43250482D02*
X73987076Y-43202862D01*
X65597891Y-32257562D02*
X65502653Y-32209943D01*
X65502653Y-32209943D02*
X65359796Y-32209943D01*
X65359796Y-32209943D02*
X65216939Y-32257562D01*
X65216939Y-32257562D02*
X65121701Y-32352800D01*
X65121701Y-32352800D02*
X65074082Y-32448038D01*
X65074082Y-32448038D02*
X65026463Y-32638514D01*
X65026463Y-32638514D02*
X65026463Y-32781371D01*
X65026463Y-32781371D02*
X65074082Y-32971847D01*
X65074082Y-32971847D02*
X65121701Y-33067085D01*
X65121701Y-33067085D02*
X65216939Y-33162324D01*
X65216939Y-33162324D02*
X65359796Y-33209943D01*
X65359796Y-33209943D02*
X65455034Y-33209943D01*
X65455034Y-33209943D02*
X65597891Y-33162324D01*
X65597891Y-33162324D02*
X65645510Y-33114704D01*
X65645510Y-33114704D02*
X65645510Y-32781371D01*
X65645510Y-32781371D02*
X65455034Y-32781371D01*
X66074082Y-33209943D02*
X66074082Y-32209943D01*
X66074082Y-32209943D02*
X66455034Y-32209943D01*
X66455034Y-32209943D02*
X66550272Y-32257562D01*
X66550272Y-32257562D02*
X66597891Y-32305181D01*
X66597891Y-32305181D02*
X66645510Y-32400419D01*
X66645510Y-32400419D02*
X66645510Y-32543276D01*
X66645510Y-32543276D02*
X66597891Y-32638514D01*
X66597891Y-32638514D02*
X66550272Y-32686133D01*
X66550272Y-32686133D02*
X66455034Y-32733752D01*
X66455034Y-32733752D02*
X66074082Y-32733752D01*
X67074082Y-33209943D02*
X67074082Y-32209943D01*
X67740748Y-32209943D02*
X67931224Y-32209943D01*
X67931224Y-32209943D02*
X68026462Y-32257562D01*
X68026462Y-32257562D02*
X68121700Y-32352800D01*
X68121700Y-32352800D02*
X68169319Y-32543276D01*
X68169319Y-32543276D02*
X68169319Y-32876609D01*
X68169319Y-32876609D02*
X68121700Y-33067085D01*
X68121700Y-33067085D02*
X68026462Y-33162324D01*
X68026462Y-33162324D02*
X67931224Y-33209943D01*
X67931224Y-33209943D02*
X67740748Y-33209943D01*
X67740748Y-33209943D02*
X67645510Y-33162324D01*
X67645510Y-33162324D02*
X67550272Y-33067085D01*
X67550272Y-33067085D02*
X67502653Y-32876609D01*
X67502653Y-32876609D02*
X67502653Y-32543276D01*
X67502653Y-32543276D02*
X67550272Y-32352800D01*
X67550272Y-32352800D02*
X67645510Y-32257562D01*
X67645510Y-32257562D02*
X67740748Y-32209943D01*
X68788367Y-32209943D02*
X68883605Y-32209943D01*
X68883605Y-32209943D02*
X68978843Y-32257562D01*
X68978843Y-32257562D02*
X69026462Y-32305181D01*
X69026462Y-32305181D02*
X69074081Y-32400419D01*
X69074081Y-32400419D02*
X69121700Y-32590895D01*
X69121700Y-32590895D02*
X69121700Y-32828990D01*
X69121700Y-32828990D02*
X69074081Y-33019466D01*
X69074081Y-33019466D02*
X69026462Y-33114704D01*
X69026462Y-33114704D02*
X68978843Y-33162324D01*
X68978843Y-33162324D02*
X68883605Y-33209943D01*
X68883605Y-33209943D02*
X68788367Y-33209943D01*
X68788367Y-33209943D02*
X68693129Y-33162324D01*
X68693129Y-33162324D02*
X68645510Y-33114704D01*
X68645510Y-33114704D02*
X68597891Y-33019466D01*
X68597891Y-33019466D02*
X68550272Y-32828990D01*
X68550272Y-32828990D02*
X68550272Y-32590895D01*
X68550272Y-32590895D02*
X68597891Y-32400419D01*
X68597891Y-32400419D02*
X68645510Y-32305181D01*
X68645510Y-32305181D02*
X68693129Y-32257562D01*
X68693129Y-32257562D02*
X68788367Y-32209943D01*
X70835986Y-32257562D02*
X70740748Y-32209943D01*
X70740748Y-32209943D02*
X70597891Y-32209943D01*
X70597891Y-32209943D02*
X70455034Y-32257562D01*
X70455034Y-32257562D02*
X70359796Y-32352800D01*
X70359796Y-32352800D02*
X70312177Y-32448038D01*
X70312177Y-32448038D02*
X70264558Y-32638514D01*
X70264558Y-32638514D02*
X70264558Y-32781371D01*
X70264558Y-32781371D02*
X70312177Y-32971847D01*
X70312177Y-32971847D02*
X70359796Y-33067085D01*
X70359796Y-33067085D02*
X70455034Y-33162324D01*
X70455034Y-33162324D02*
X70597891Y-33209943D01*
X70597891Y-33209943D02*
X70693129Y-33209943D01*
X70693129Y-33209943D02*
X70835986Y-33162324D01*
X70835986Y-33162324D02*
X70883605Y-33114704D01*
X70883605Y-33114704D02*
X70883605Y-32781371D01*
X70883605Y-32781371D02*
X70693129Y-32781371D01*
X71312177Y-33209943D02*
X71312177Y-32209943D01*
X71312177Y-32209943D02*
X71693129Y-32209943D01*
X71693129Y-32209943D02*
X71788367Y-32257562D01*
X71788367Y-32257562D02*
X71835986Y-32305181D01*
X71835986Y-32305181D02*
X71883605Y-32400419D01*
X71883605Y-32400419D02*
X71883605Y-32543276D01*
X71883605Y-32543276D02*
X71835986Y-32638514D01*
X71835986Y-32638514D02*
X71788367Y-32686133D01*
X71788367Y-32686133D02*
X71693129Y-32733752D01*
X71693129Y-32733752D02*
X71312177Y-32733752D01*
X72312177Y-33209943D02*
X72312177Y-32209943D01*
X72978843Y-32209943D02*
X73169319Y-32209943D01*
X73169319Y-32209943D02*
X73264557Y-32257562D01*
X73264557Y-32257562D02*
X73359795Y-32352800D01*
X73359795Y-32352800D02*
X73407414Y-32543276D01*
X73407414Y-32543276D02*
X73407414Y-32876609D01*
X73407414Y-32876609D02*
X73359795Y-33067085D01*
X73359795Y-33067085D02*
X73264557Y-33162324D01*
X73264557Y-33162324D02*
X73169319Y-33209943D01*
X73169319Y-33209943D02*
X72978843Y-33209943D01*
X72978843Y-33209943D02*
X72883605Y-33162324D01*
X72883605Y-33162324D02*
X72788367Y-33067085D01*
X72788367Y-33067085D02*
X72740748Y-32876609D01*
X72740748Y-32876609D02*
X72740748Y-32543276D01*
X72740748Y-32543276D02*
X72788367Y-32352800D01*
X72788367Y-32352800D02*
X72883605Y-32257562D01*
X72883605Y-32257562D02*
X72978843Y-32209943D01*
X73788367Y-32305181D02*
X73835986Y-32257562D01*
X73835986Y-32257562D02*
X73931224Y-32209943D01*
X73931224Y-32209943D02*
X74169319Y-32209943D01*
X74169319Y-32209943D02*
X74264557Y-32257562D01*
X74264557Y-32257562D02*
X74312176Y-32305181D01*
X74312176Y-32305181D02*
X74359795Y-32400419D01*
X74359795Y-32400419D02*
X74359795Y-32495657D01*
X74359795Y-32495657D02*
X74312176Y-32638514D01*
X74312176Y-32638514D02*
X73740748Y-33209943D01*
X73740748Y-33209943D02*
X74359795Y-33209943D01*
X64698830Y-37277106D02*
X64603592Y-37229487D01*
X64603592Y-37229487D02*
X64460735Y-37229487D01*
X64460735Y-37229487D02*
X64317878Y-37277106D01*
X64317878Y-37277106D02*
X64222640Y-37372344D01*
X64222640Y-37372344D02*
X64175021Y-37467582D01*
X64175021Y-37467582D02*
X64127402Y-37658058D01*
X64127402Y-37658058D02*
X64127402Y-37800915D01*
X64127402Y-37800915D02*
X64175021Y-37991391D01*
X64175021Y-37991391D02*
X64222640Y-38086629D01*
X64222640Y-38086629D02*
X64317878Y-38181868D01*
X64317878Y-38181868D02*
X64460735Y-38229487D01*
X64460735Y-38229487D02*
X64555973Y-38229487D01*
X64555973Y-38229487D02*
X64698830Y-38181868D01*
X64698830Y-38181868D02*
X64746449Y-38134248D01*
X64746449Y-38134248D02*
X64746449Y-37800915D01*
X64746449Y-37800915D02*
X64555973Y-37800915D01*
X65175021Y-38229487D02*
X65175021Y-37229487D01*
X65175021Y-37229487D02*
X65555973Y-37229487D01*
X65555973Y-37229487D02*
X65651211Y-37277106D01*
X65651211Y-37277106D02*
X65698830Y-37324725D01*
X65698830Y-37324725D02*
X65746449Y-37419963D01*
X65746449Y-37419963D02*
X65746449Y-37562820D01*
X65746449Y-37562820D02*
X65698830Y-37658058D01*
X65698830Y-37658058D02*
X65651211Y-37705677D01*
X65651211Y-37705677D02*
X65555973Y-37753296D01*
X65555973Y-37753296D02*
X65175021Y-37753296D01*
X66175021Y-38229487D02*
X66175021Y-37229487D01*
X66841687Y-37229487D02*
X67032163Y-37229487D01*
X67032163Y-37229487D02*
X67127401Y-37277106D01*
X67127401Y-37277106D02*
X67222639Y-37372344D01*
X67222639Y-37372344D02*
X67270258Y-37562820D01*
X67270258Y-37562820D02*
X67270258Y-37896153D01*
X67270258Y-37896153D02*
X67222639Y-38086629D01*
X67222639Y-38086629D02*
X67127401Y-38181868D01*
X67127401Y-38181868D02*
X67032163Y-38229487D01*
X67032163Y-38229487D02*
X66841687Y-38229487D01*
X66841687Y-38229487D02*
X66746449Y-38181868D01*
X66746449Y-38181868D02*
X66651211Y-38086629D01*
X66651211Y-38086629D02*
X66603592Y-37896153D01*
X66603592Y-37896153D02*
X66603592Y-37562820D01*
X66603592Y-37562820D02*
X66651211Y-37372344D01*
X66651211Y-37372344D02*
X66746449Y-37277106D01*
X66746449Y-37277106D02*
X66841687Y-37229487D01*
X68222639Y-38229487D02*
X67651211Y-38229487D01*
X67936925Y-38229487D02*
X67936925Y-37229487D01*
X67936925Y-37229487D02*
X67841687Y-37372344D01*
X67841687Y-37372344D02*
X67746449Y-37467582D01*
X67746449Y-37467582D02*
X67651211Y-37515201D01*
X69079782Y-37562820D02*
X69079782Y-38229487D01*
X68841687Y-37181868D02*
X68603592Y-37896153D01*
X68603592Y-37896153D02*
X69222639Y-37896153D01*
X70889306Y-37277106D02*
X70794068Y-37229487D01*
X70794068Y-37229487D02*
X70651211Y-37229487D01*
X70651211Y-37229487D02*
X70508354Y-37277106D01*
X70508354Y-37277106D02*
X70413116Y-37372344D01*
X70413116Y-37372344D02*
X70365497Y-37467582D01*
X70365497Y-37467582D02*
X70317878Y-37658058D01*
X70317878Y-37658058D02*
X70317878Y-37800915D01*
X70317878Y-37800915D02*
X70365497Y-37991391D01*
X70365497Y-37991391D02*
X70413116Y-38086629D01*
X70413116Y-38086629D02*
X70508354Y-38181868D01*
X70508354Y-38181868D02*
X70651211Y-38229487D01*
X70651211Y-38229487D02*
X70746449Y-38229487D01*
X70746449Y-38229487D02*
X70889306Y-38181868D01*
X70889306Y-38181868D02*
X70936925Y-38134248D01*
X70936925Y-38134248D02*
X70936925Y-37800915D01*
X70936925Y-37800915D02*
X70746449Y-37800915D01*
X71365497Y-38229487D02*
X71365497Y-37229487D01*
X71365497Y-37229487D02*
X71746449Y-37229487D01*
X71746449Y-37229487D02*
X71841687Y-37277106D01*
X71841687Y-37277106D02*
X71889306Y-37324725D01*
X71889306Y-37324725D02*
X71936925Y-37419963D01*
X71936925Y-37419963D02*
X71936925Y-37562820D01*
X71936925Y-37562820D02*
X71889306Y-37658058D01*
X71889306Y-37658058D02*
X71841687Y-37705677D01*
X71841687Y-37705677D02*
X71746449Y-37753296D01*
X71746449Y-37753296D02*
X71365497Y-37753296D01*
X72365497Y-38229487D02*
X72365497Y-37229487D01*
X73032163Y-37229487D02*
X73222639Y-37229487D01*
X73222639Y-37229487D02*
X73317877Y-37277106D01*
X73317877Y-37277106D02*
X73413115Y-37372344D01*
X73413115Y-37372344D02*
X73460734Y-37562820D01*
X73460734Y-37562820D02*
X73460734Y-37896153D01*
X73460734Y-37896153D02*
X73413115Y-38086629D01*
X73413115Y-38086629D02*
X73317877Y-38181868D01*
X73317877Y-38181868D02*
X73222639Y-38229487D01*
X73222639Y-38229487D02*
X73032163Y-38229487D01*
X73032163Y-38229487D02*
X72936925Y-38181868D01*
X72936925Y-38181868D02*
X72841687Y-38086629D01*
X72841687Y-38086629D02*
X72794068Y-37896153D01*
X72794068Y-37896153D02*
X72794068Y-37562820D01*
X72794068Y-37562820D02*
X72841687Y-37372344D01*
X72841687Y-37372344D02*
X72936925Y-37277106D01*
X72936925Y-37277106D02*
X73032163Y-37229487D01*
X74413115Y-38229487D02*
X73841687Y-38229487D01*
X74127401Y-38229487D02*
X74127401Y-37229487D01*
X74127401Y-37229487D02*
X74032163Y-37372344D01*
X74032163Y-37372344D02*
X73936925Y-37467582D01*
X73936925Y-37467582D02*
X73841687Y-37515201D01*
X74794068Y-37324725D02*
X74841687Y-37277106D01*
X74841687Y-37277106D02*
X74936925Y-37229487D01*
X74936925Y-37229487D02*
X75175020Y-37229487D01*
X75175020Y-37229487D02*
X75270258Y-37277106D01*
X75270258Y-37277106D02*
X75317877Y-37324725D01*
X75317877Y-37324725D02*
X75365496Y-37419963D01*
X75365496Y-37419963D02*
X75365496Y-37515201D01*
X75365496Y-37515201D02*
X75317877Y-37658058D01*
X75317877Y-37658058D02*
X74746449Y-38229487D01*
X74746449Y-38229487D02*
X75365496Y-38229487D01*
X77101133Y-58657190D02*
X77101133Y-58181000D01*
X77386848Y-58752428D02*
X76386848Y-58419095D01*
X76386848Y-58419095D02*
X77386848Y-58085762D01*
X76720181Y-57752428D02*
X77386848Y-57752428D01*
X76815419Y-57752428D02*
X76767800Y-57704809D01*
X76767800Y-57704809D02*
X76720181Y-57609571D01*
X76720181Y-57609571D02*
X76720181Y-57466714D01*
X76720181Y-57466714D02*
X76767800Y-57371476D01*
X76767800Y-57371476D02*
X76863038Y-57323857D01*
X76863038Y-57323857D02*
X77386848Y-57323857D01*
X77386848Y-56419095D02*
X76863038Y-56419095D01*
X76863038Y-56419095D02*
X76767800Y-56466714D01*
X76767800Y-56466714D02*
X76720181Y-56561952D01*
X76720181Y-56561952D02*
X76720181Y-56752428D01*
X76720181Y-56752428D02*
X76767800Y-56847666D01*
X77339229Y-56419095D02*
X77386848Y-56514333D01*
X77386848Y-56514333D02*
X77386848Y-56752428D01*
X77386848Y-56752428D02*
X77339229Y-56847666D01*
X77339229Y-56847666D02*
X77243990Y-56895285D01*
X77243990Y-56895285D02*
X77148752Y-56895285D01*
X77148752Y-56895285D02*
X77053514Y-56847666D01*
X77053514Y-56847666D02*
X77005895Y-56752428D01*
X77005895Y-56752428D02*
X77005895Y-56514333D01*
X77005895Y-56514333D02*
X76958276Y-56419095D01*
X77386848Y-55800047D02*
X77339229Y-55895285D01*
X77339229Y-55895285D02*
X77243990Y-55942904D01*
X77243990Y-55942904D02*
X76386848Y-55942904D01*
X77386848Y-55276237D02*
X77339229Y-55371475D01*
X77339229Y-55371475D02*
X77291609Y-55419094D01*
X77291609Y-55419094D02*
X77196371Y-55466713D01*
X77196371Y-55466713D02*
X76910657Y-55466713D01*
X76910657Y-55466713D02*
X76815419Y-55419094D01*
X76815419Y-55419094D02*
X76767800Y-55371475D01*
X76767800Y-55371475D02*
X76720181Y-55276237D01*
X76720181Y-55276237D02*
X76720181Y-55133380D01*
X76720181Y-55133380D02*
X76767800Y-55038142D01*
X76767800Y-55038142D02*
X76815419Y-54990523D01*
X76815419Y-54990523D02*
X76910657Y-54942904D01*
X76910657Y-54942904D02*
X77196371Y-54942904D01*
X77196371Y-54942904D02*
X77291609Y-54990523D01*
X77291609Y-54990523D02*
X77339229Y-55038142D01*
X77339229Y-55038142D02*
X77386848Y-55133380D01*
X77386848Y-55133380D02*
X77386848Y-55276237D01*
X76720181Y-54085761D02*
X77529705Y-54085761D01*
X77529705Y-54085761D02*
X77624943Y-54133380D01*
X77624943Y-54133380D02*
X77672562Y-54180999D01*
X77672562Y-54180999D02*
X77720181Y-54276237D01*
X77720181Y-54276237D02*
X77720181Y-54419094D01*
X77720181Y-54419094D02*
X77672562Y-54514332D01*
X77339229Y-54085761D02*
X77386848Y-54180999D01*
X77386848Y-54180999D02*
X77386848Y-54371475D01*
X77386848Y-54371475D02*
X77339229Y-54466713D01*
X77339229Y-54466713D02*
X77291609Y-54514332D01*
X77291609Y-54514332D02*
X77196371Y-54561951D01*
X77196371Y-54561951D02*
X76910657Y-54561951D01*
X76910657Y-54561951D02*
X76815419Y-54514332D01*
X76815419Y-54514332D02*
X76767800Y-54466713D01*
X76767800Y-54466713D02*
X76720181Y-54371475D01*
X76720181Y-54371475D02*
X76720181Y-54180999D01*
X76720181Y-54180999D02*
X76767800Y-54085761D01*
X77014118Y-34498640D02*
X76918880Y-34451021D01*
X76918880Y-34451021D02*
X76776023Y-34451021D01*
X76776023Y-34451021D02*
X76633166Y-34498640D01*
X76633166Y-34498640D02*
X76537928Y-34593878D01*
X76537928Y-34593878D02*
X76490309Y-34689116D01*
X76490309Y-34689116D02*
X76442690Y-34879592D01*
X76442690Y-34879592D02*
X76442690Y-35022449D01*
X76442690Y-35022449D02*
X76490309Y-35212925D01*
X76490309Y-35212925D02*
X76537928Y-35308163D01*
X76537928Y-35308163D02*
X76633166Y-35403402D01*
X76633166Y-35403402D02*
X76776023Y-35451021D01*
X76776023Y-35451021D02*
X76871261Y-35451021D01*
X76871261Y-35451021D02*
X77014118Y-35403402D01*
X77014118Y-35403402D02*
X77061737Y-35355782D01*
X77061737Y-35355782D02*
X77061737Y-35022449D01*
X77061737Y-35022449D02*
X76871261Y-35022449D01*
X77490309Y-35451021D02*
X77490309Y-34451021D01*
X77490309Y-34451021D02*
X78061737Y-35451021D01*
X78061737Y-35451021D02*
X78061737Y-34451021D01*
X78537928Y-35451021D02*
X78537928Y-34451021D01*
X78537928Y-34451021D02*
X78776023Y-34451021D01*
X78776023Y-34451021D02*
X78918880Y-34498640D01*
X78918880Y-34498640D02*
X79014118Y-34593878D01*
X79014118Y-34593878D02*
X79061737Y-34689116D01*
X79061737Y-34689116D02*
X79109356Y-34879592D01*
X79109356Y-34879592D02*
X79109356Y-35022449D01*
X79109356Y-35022449D02*
X79061737Y-35212925D01*
X79061737Y-35212925D02*
X79014118Y-35308163D01*
X79014118Y-35308163D02*
X78918880Y-35403402D01*
X78918880Y-35403402D02*
X78776023Y-35451021D01*
X78776023Y-35451021D02*
X78537928Y-35451021D01*
X61726499Y-34451021D02*
X61250309Y-34451021D01*
X61250309Y-34451021D02*
X61202690Y-34927211D01*
X61202690Y-34927211D02*
X61250309Y-34879592D01*
X61250309Y-34879592D02*
X61345547Y-34831973D01*
X61345547Y-34831973D02*
X61583642Y-34831973D01*
X61583642Y-34831973D02*
X61678880Y-34879592D01*
X61678880Y-34879592D02*
X61726499Y-34927211D01*
X61726499Y-34927211D02*
X61774118Y-35022449D01*
X61774118Y-35022449D02*
X61774118Y-35260544D01*
X61774118Y-35260544D02*
X61726499Y-35355782D01*
X61726499Y-35355782D02*
X61678880Y-35403402D01*
X61678880Y-35403402D02*
X61583642Y-35451021D01*
X61583642Y-35451021D02*
X61345547Y-35451021D01*
X61345547Y-35451021D02*
X61250309Y-35403402D01*
X61250309Y-35403402D02*
X61202690Y-35355782D01*
X62059833Y-34451021D02*
X62393166Y-35451021D01*
X62393166Y-35451021D02*
X62726499Y-34451021D01*
X77014118Y-44658640D02*
X76918880Y-44611021D01*
X76918880Y-44611021D02*
X76776023Y-44611021D01*
X76776023Y-44611021D02*
X76633166Y-44658640D01*
X76633166Y-44658640D02*
X76537928Y-44753878D01*
X76537928Y-44753878D02*
X76490309Y-44849116D01*
X76490309Y-44849116D02*
X76442690Y-45039592D01*
X76442690Y-45039592D02*
X76442690Y-45182449D01*
X76442690Y-45182449D02*
X76490309Y-45372925D01*
X76490309Y-45372925D02*
X76537928Y-45468163D01*
X76537928Y-45468163D02*
X76633166Y-45563402D01*
X76633166Y-45563402D02*
X76776023Y-45611021D01*
X76776023Y-45611021D02*
X76871261Y-45611021D01*
X76871261Y-45611021D02*
X77014118Y-45563402D01*
X77014118Y-45563402D02*
X77061737Y-45515782D01*
X77061737Y-45515782D02*
X77061737Y-45182449D01*
X77061737Y-45182449D02*
X76871261Y-45182449D01*
X77490309Y-45611021D02*
X77490309Y-44611021D01*
X77490309Y-44611021D02*
X78061737Y-45611021D01*
X78061737Y-45611021D02*
X78061737Y-44611021D01*
X78537928Y-45611021D02*
X78537928Y-44611021D01*
X78537928Y-44611021D02*
X78776023Y-44611021D01*
X78776023Y-44611021D02*
X78918880Y-44658640D01*
X78918880Y-44658640D02*
X79014118Y-44753878D01*
X79014118Y-44753878D02*
X79061737Y-44849116D01*
X79061737Y-44849116D02*
X79109356Y-45039592D01*
X79109356Y-45039592D02*
X79109356Y-45182449D01*
X79109356Y-45182449D02*
X79061737Y-45372925D01*
X79061737Y-45372925D02*
X79014118Y-45468163D01*
X79014118Y-45468163D02*
X78918880Y-45563402D01*
X78918880Y-45563402D02*
X78776023Y-45611021D01*
X78776023Y-45611021D02*
X78537928Y-45611021D01*
X60404683Y-39704574D02*
X61023730Y-39704574D01*
X61023730Y-39704574D02*
X60690397Y-40085526D01*
X60690397Y-40085526D02*
X60833254Y-40085526D01*
X60833254Y-40085526D02*
X60928492Y-40133145D01*
X60928492Y-40133145D02*
X60976111Y-40180764D01*
X60976111Y-40180764D02*
X61023730Y-40276002D01*
X61023730Y-40276002D02*
X61023730Y-40514097D01*
X61023730Y-40514097D02*
X60976111Y-40609335D01*
X60976111Y-40609335D02*
X60928492Y-40656955D01*
X60928492Y-40656955D02*
X60833254Y-40704574D01*
X60833254Y-40704574D02*
X60547540Y-40704574D01*
X60547540Y-40704574D02*
X60452302Y-40656955D01*
X60452302Y-40656955D02*
X60404683Y-40609335D01*
X61357064Y-40037907D02*
X61595159Y-40704574D01*
X61595159Y-40704574D02*
X61833254Y-40037907D01*
X62118969Y-39704574D02*
X62738016Y-39704574D01*
X62738016Y-39704574D02*
X62404683Y-40085526D01*
X62404683Y-40085526D02*
X62547540Y-40085526D01*
X62547540Y-40085526D02*
X62642778Y-40133145D01*
X62642778Y-40133145D02*
X62690397Y-40180764D01*
X62690397Y-40180764D02*
X62738016Y-40276002D01*
X62738016Y-40276002D02*
X62738016Y-40514097D01*
X62738016Y-40514097D02*
X62690397Y-40609335D01*
X62690397Y-40609335D02*
X62642778Y-40656955D01*
X62642778Y-40656955D02*
X62547540Y-40704574D01*
X62547540Y-40704574D02*
X62261826Y-40704574D01*
X62261826Y-40704574D02*
X62166588Y-40656955D01*
X62166588Y-40656955D02*
X62118969Y-40609335D01*
X61058095Y-61008006D02*
X61058095Y-61817529D01*
X61058095Y-61817529D02*
X61105714Y-61912767D01*
X61105714Y-61912767D02*
X61153333Y-61960387D01*
X61153333Y-61960387D02*
X61248571Y-62008006D01*
X61248571Y-62008006D02*
X61439047Y-62008006D01*
X61439047Y-62008006D02*
X61534285Y-61960387D01*
X61534285Y-61960387D02*
X61581904Y-61912767D01*
X61581904Y-61912767D02*
X61629523Y-61817529D01*
X61629523Y-61817529D02*
X61629523Y-61008006D01*
X62058095Y-61103244D02*
X62105714Y-61055625D01*
X62105714Y-61055625D02*
X62200952Y-61008006D01*
X62200952Y-61008006D02*
X62439047Y-61008006D01*
X62439047Y-61008006D02*
X62534285Y-61055625D01*
X62534285Y-61055625D02*
X62581904Y-61103244D01*
X62581904Y-61103244D02*
X62629523Y-61198482D01*
X62629523Y-61198482D02*
X62629523Y-61293720D01*
X62629523Y-61293720D02*
X62581904Y-61436577D01*
X62581904Y-61436577D02*
X62010476Y-62008006D01*
X62010476Y-62008006D02*
X62629523Y-62008006D01*
D12*
%TO.C,J9*%
X64710000Y-41623187D02*
X64710000Y-40293187D01*
X66040000Y-41623187D02*
X64710000Y-41623187D01*
X67310000Y-38963187D02*
X74990000Y-38963187D01*
X67310000Y-41623187D02*
X67310000Y-38963187D01*
X67310000Y-41623187D02*
X74990000Y-41623187D01*
X74990000Y-41623187D02*
X74990000Y-38963187D01*
%TO.C,J8*%
X64710000Y-46703187D02*
X64710000Y-45373187D01*
X66040000Y-46703187D02*
X64710000Y-46703187D01*
X67310000Y-44043187D02*
X74990000Y-44043187D01*
X67310000Y-46703187D02*
X67310000Y-44043187D01*
X67310000Y-46703187D02*
X74990000Y-46703187D01*
X74990000Y-46703187D02*
X74990000Y-44043187D01*
%TO.C,J7*%
X78421775Y-54037942D02*
X79751775Y-54037942D01*
X78421775Y-55367942D02*
X78421775Y-54037942D01*
X78421775Y-56637942D02*
X78421775Y-59237942D01*
X78421775Y-56637942D02*
X81081775Y-56637942D01*
X78421775Y-59237942D02*
X81081775Y-59237942D01*
X81081775Y-56637942D02*
X81081775Y-59237942D01*
%TO.C,R2*%
X82450000Y-53533187D02*
X82450000Y-60073187D01*
X82450000Y-60073187D02*
X82780000Y-60073187D01*
X82780000Y-53533187D02*
X82450000Y-53533187D01*
X84860000Y-53533187D02*
X85190000Y-53533187D01*
X85190000Y-53533187D02*
X85190000Y-60073187D01*
X85190000Y-60073187D02*
X84860000Y-60073187D01*
%TO.C,J10*%
X64710000Y-36543187D02*
X64710000Y-35213187D01*
X66040000Y-36543187D02*
X64710000Y-36543187D01*
X67310000Y-33883187D02*
X74990000Y-33883187D01*
X67310000Y-36543187D02*
X67310000Y-33883187D01*
X67310000Y-36543187D02*
X74990000Y-36543187D01*
X74990000Y-36543187D02*
X74990000Y-33883187D01*
%TO.C,U2*%
X59460000Y-62433187D02*
X59460000Y-94763187D01*
X61580000Y-96893187D02*
X83190000Y-96893187D01*
X82780000Y-62433187D02*
X59460000Y-62433187D01*
X82780000Y-69333187D02*
X82780000Y-62433187D01*
X85320000Y-69333187D02*
X82780000Y-69333187D01*
X85320000Y-69333187D02*
X85320000Y-94763187D01*
X61590000Y-96893187D02*
G75*
G02*
X59460000Y-94763187I0J2130000D01*
G01*
X85320000Y-94763187D02*
G75*
G02*
X83190000Y-96893187I-2130002J2D01*
G01*
D11*
X86360000Y-89188187D02*
X85725000Y-88553187D01*
X86360000Y-87918187D01*
X86360000Y-89188187D01*
G36*
X86360000Y-89188187D02*
G01*
X85725000Y-88553187D01*
X86360000Y-87918187D01*
X86360000Y-89188187D01*
G37*
%TD*%
M02*
