%TF.GenerationSoftware,KiCad,Pcbnew,8.0.5*%
%TF.CreationDate,2024-11-16T19:04:20+01:00*%
%TF.ProjectId,esp8266-expansion-board,65737038-3236-4362-9d65-7870616e7369,rev?*%
%TF.SameCoordinates,Original*%
%TF.FileFunction,Drillmap*%
%TF.FilePolarity,Positive*%
%FSLAX45Y45*%
G04 Gerber Fmt 4.5, Leading zero omitted, Abs format (unit mm)*
G04 Created by KiCad (PCBNEW 8.0.5) date 2024-11-16 19:04:20*
%MOMM*%
%LPD*%
G01*
G04 APERTURE LIST*
%ADD10C,0.050000*%
%ADD11C,0.200000*%
%ADD12C,0.100000*%
G04 APERTURE END LIST*
D10*
X5844482Y-3055929D02*
X5844482Y-9659929D01*
X6352482Y-10167929D02*
G75*
G02*
X5844481Y-9659929I-2J507999D01*
G01*
X5844482Y-3055929D02*
G75*
G02*
X6352482Y-2547932I507998J-1D01*
G01*
X8130482Y-10167929D02*
X6352482Y-10167929D01*
X8130482Y-2547929D02*
G75*
G02*
X8638481Y-3055929I-2J-508001D01*
G01*
X8638482Y-9659929D02*
G75*
G02*
X8130482Y-10167932I-508002J-1D01*
G01*
X8638481Y-3055929D02*
X8638482Y-9659929D01*
X6352482Y-2547929D02*
X8130482Y-2547929D01*
D11*
D12*
X8342000Y-5259319D02*
X8422000Y-5339319D01*
X8422000Y-5259319D02*
X8342000Y-5339319D01*
X8342000Y-6021319D02*
X8422000Y-6101319D01*
X8422000Y-6021319D02*
X8342000Y-6101319D01*
X6146000Y-7077319D02*
G75*
G02*
X6046000Y-7077319I-50000J0D01*
G01*
X6046000Y-7077319D02*
G75*
G02*
X6146000Y-7077319I50000J0D01*
G01*
X6146000Y-7331319D02*
G75*
G02*
X6046000Y-7331319I-50000J0D01*
G01*
X6046000Y-7331319D02*
G75*
G02*
X6146000Y-7331319I50000J0D01*
G01*
X6146000Y-7585319D02*
G75*
G02*
X6046000Y-7585319I-50000J0D01*
G01*
X6046000Y-7585319D02*
G75*
G02*
X6146000Y-7585319I50000J0D01*
G01*
X6146000Y-7839319D02*
G75*
G02*
X6046000Y-7839319I-50000J0D01*
G01*
X6046000Y-7839319D02*
G75*
G02*
X6146000Y-7839319I50000J0D01*
G01*
X6146000Y-8093319D02*
G75*
G02*
X6046000Y-8093319I-50000J0D01*
G01*
X6046000Y-8093319D02*
G75*
G02*
X6146000Y-8093319I50000J0D01*
G01*
X6146000Y-8347319D02*
G75*
G02*
X6046000Y-8347319I-50000J0D01*
G01*
X6046000Y-8347319D02*
G75*
G02*
X6146000Y-8347319I50000J0D01*
G01*
X6146000Y-8601319D02*
G75*
G02*
X6046000Y-8601319I-50000J0D01*
G01*
X6046000Y-8601319D02*
G75*
G02*
X6146000Y-8601319I50000J0D01*
G01*
X6146000Y-8855319D02*
G75*
G02*
X6046000Y-8855319I-50000J0D01*
G01*
X6046000Y-8855319D02*
G75*
G02*
X6146000Y-8855319I50000J0D01*
G01*
X6654000Y-3521319D02*
G75*
G02*
X6554000Y-3521319I-50000J0D01*
G01*
X6554000Y-3521319D02*
G75*
G02*
X6654000Y-3521319I50000J0D01*
G01*
X6654000Y-4029319D02*
G75*
G02*
X6554000Y-4029319I-50000J0D01*
G01*
X6554000Y-4029319D02*
G75*
G02*
X6654000Y-4029319I50000J0D01*
G01*
X6654000Y-4537319D02*
G75*
G02*
X6554000Y-4537319I-50000J0D01*
G01*
X6554000Y-4537319D02*
G75*
G02*
X6654000Y-4537319I50000J0D01*
G01*
X6908000Y-3521319D02*
G75*
G02*
X6808000Y-3521319I-50000J0D01*
G01*
X6808000Y-3521319D02*
G75*
G02*
X6908000Y-3521319I50000J0D01*
G01*
X6908000Y-4029319D02*
G75*
G02*
X6808000Y-4029319I-50000J0D01*
G01*
X6808000Y-4029319D02*
G75*
G02*
X6908000Y-4029319I50000J0D01*
G01*
X6908000Y-4537319D02*
G75*
G02*
X6808000Y-4537319I-50000J0D01*
G01*
X6808000Y-4537319D02*
G75*
G02*
X6908000Y-4537319I50000J0D01*
G01*
X7162000Y-3521319D02*
G75*
G02*
X7062000Y-3521319I-50000J0D01*
G01*
X7062000Y-3521319D02*
G75*
G02*
X7162000Y-3521319I50000J0D01*
G01*
X7162000Y-4029319D02*
G75*
G02*
X7062000Y-4029319I-50000J0D01*
G01*
X7062000Y-4029319D02*
G75*
G02*
X7162000Y-4029319I50000J0D01*
G01*
X7162000Y-4537319D02*
G75*
G02*
X7062000Y-4537319I-50000J0D01*
G01*
X7062000Y-4537319D02*
G75*
G02*
X7162000Y-4537319I50000J0D01*
G01*
X7416000Y-3521319D02*
G75*
G02*
X7316000Y-3521319I-50000J0D01*
G01*
X7316000Y-3521319D02*
G75*
G02*
X7416000Y-3521319I50000J0D01*
G01*
X7416000Y-4029319D02*
G75*
G02*
X7316000Y-4029319I-50000J0D01*
G01*
X7316000Y-4029319D02*
G75*
G02*
X7416000Y-4029319I50000J0D01*
G01*
X7416000Y-4537319D02*
G75*
G02*
X7316000Y-4537319I-50000J0D01*
G01*
X7316000Y-4537319D02*
G75*
G02*
X7416000Y-4537319I50000J0D01*
G01*
X8025177Y-5536794D02*
G75*
G02*
X7925177Y-5536794I-50000J0D01*
G01*
X7925177Y-5536794D02*
G75*
G02*
X8025177Y-5536794I50000J0D01*
G01*
X8025177Y-5790794D02*
G75*
G02*
X7925177Y-5790794I-50000J0D01*
G01*
X7925177Y-5790794D02*
G75*
G02*
X8025177Y-5790794I50000J0D01*
G01*
X8432000Y-7077319D02*
G75*
G02*
X8332000Y-7077319I-50000J0D01*
G01*
X8332000Y-7077319D02*
G75*
G02*
X8432000Y-7077319I50000J0D01*
G01*
X8432000Y-7331319D02*
G75*
G02*
X8332000Y-7331319I-50000J0D01*
G01*
X8332000Y-7331319D02*
G75*
G02*
X8432000Y-7331319I50000J0D01*
G01*
X8432000Y-7585319D02*
G75*
G02*
X8332000Y-7585319I-50000J0D01*
G01*
X8332000Y-7585319D02*
G75*
G02*
X8432000Y-7585319I50000J0D01*
G01*
X8432000Y-7839319D02*
G75*
G02*
X8332000Y-7839319I-50000J0D01*
G01*
X8332000Y-7839319D02*
G75*
G02*
X8432000Y-7839319I50000J0D01*
G01*
X8432000Y-8093319D02*
G75*
G02*
X8332000Y-8093319I-50000J0D01*
G01*
X8332000Y-8093319D02*
G75*
G02*
X8432000Y-8093319I50000J0D01*
G01*
X8432000Y-8347319D02*
G75*
G02*
X8332000Y-8347319I-50000J0D01*
G01*
X8332000Y-8347319D02*
G75*
G02*
X8432000Y-8347319I50000J0D01*
G01*
X8432000Y-8601319D02*
G75*
G02*
X8332000Y-8601319I-50000J0D01*
G01*
X8332000Y-8601319D02*
G75*
G02*
X8432000Y-8601319I50000J0D01*
G01*
X8432000Y-8855319D02*
G75*
G02*
X8332000Y-8855319I-50000J0D01*
G01*
X8332000Y-8855319D02*
G75*
G02*
X8432000Y-8855319I50000J0D01*
G01*
D11*
X6102758Y-10481913D02*
X6102758Y-10281913D01*
X6102758Y-10281913D02*
X6150377Y-10281913D01*
X6150377Y-10281913D02*
X6178948Y-10291437D01*
X6178948Y-10291437D02*
X6197996Y-10310484D01*
X6197996Y-10310484D02*
X6207520Y-10329532D01*
X6207520Y-10329532D02*
X6217043Y-10367627D01*
X6217043Y-10367627D02*
X6217043Y-10396199D01*
X6217043Y-10396199D02*
X6207520Y-10434294D01*
X6207520Y-10434294D02*
X6197996Y-10453341D01*
X6197996Y-10453341D02*
X6178948Y-10472389D01*
X6178948Y-10472389D02*
X6150377Y-10481913D01*
X6150377Y-10481913D02*
X6102758Y-10481913D01*
X6302758Y-10481913D02*
X6302758Y-10348579D01*
X6302758Y-10386675D02*
X6312282Y-10367627D01*
X6312282Y-10367627D02*
X6321805Y-10358103D01*
X6321805Y-10358103D02*
X6340853Y-10348579D01*
X6340853Y-10348579D02*
X6359901Y-10348579D01*
X6426567Y-10481913D02*
X6426567Y-10348579D01*
X6426567Y-10281913D02*
X6417043Y-10291437D01*
X6417043Y-10291437D02*
X6426567Y-10300960D01*
X6426567Y-10300960D02*
X6436091Y-10291437D01*
X6436091Y-10291437D02*
X6426567Y-10281913D01*
X6426567Y-10281913D02*
X6426567Y-10300960D01*
X6550377Y-10481913D02*
X6531329Y-10472389D01*
X6531329Y-10472389D02*
X6521805Y-10453341D01*
X6521805Y-10453341D02*
X6521805Y-10281913D01*
X6655139Y-10481913D02*
X6636091Y-10472389D01*
X6636091Y-10472389D02*
X6626567Y-10453341D01*
X6626567Y-10453341D02*
X6626567Y-10281913D01*
X6883710Y-10481913D02*
X6883710Y-10281913D01*
X6883710Y-10281913D02*
X6950377Y-10424770D01*
X6950377Y-10424770D02*
X7017043Y-10281913D01*
X7017043Y-10281913D02*
X7017043Y-10481913D01*
X7197996Y-10481913D02*
X7197996Y-10377151D01*
X7197996Y-10377151D02*
X7188472Y-10358103D01*
X7188472Y-10358103D02*
X7169424Y-10348579D01*
X7169424Y-10348579D02*
X7131329Y-10348579D01*
X7131329Y-10348579D02*
X7112282Y-10358103D01*
X7197996Y-10472389D02*
X7178948Y-10481913D01*
X7178948Y-10481913D02*
X7131329Y-10481913D01*
X7131329Y-10481913D02*
X7112282Y-10472389D01*
X7112282Y-10472389D02*
X7102758Y-10453341D01*
X7102758Y-10453341D02*
X7102758Y-10434294D01*
X7102758Y-10434294D02*
X7112282Y-10415246D01*
X7112282Y-10415246D02*
X7131329Y-10405722D01*
X7131329Y-10405722D02*
X7178948Y-10405722D01*
X7178948Y-10405722D02*
X7197996Y-10396199D01*
X7293234Y-10348579D02*
X7293234Y-10548579D01*
X7293234Y-10358103D02*
X7312282Y-10348579D01*
X7312282Y-10348579D02*
X7350377Y-10348579D01*
X7350377Y-10348579D02*
X7369424Y-10358103D01*
X7369424Y-10358103D02*
X7378948Y-10367627D01*
X7378948Y-10367627D02*
X7388472Y-10386675D01*
X7388472Y-10386675D02*
X7388472Y-10443818D01*
X7388472Y-10443818D02*
X7378948Y-10462865D01*
X7378948Y-10462865D02*
X7369424Y-10472389D01*
X7369424Y-10472389D02*
X7350377Y-10481913D01*
X7350377Y-10481913D02*
X7312282Y-10481913D01*
X7312282Y-10481913D02*
X7293234Y-10472389D01*
X7474186Y-10462865D02*
X7483710Y-10472389D01*
X7483710Y-10472389D02*
X7474186Y-10481913D01*
X7474186Y-10481913D02*
X7464663Y-10472389D01*
X7464663Y-10472389D02*
X7474186Y-10462865D01*
X7474186Y-10462865D02*
X7474186Y-10481913D01*
X7474186Y-10358103D02*
X7483710Y-10367627D01*
X7483710Y-10367627D02*
X7474186Y-10377151D01*
X7474186Y-10377151D02*
X7464663Y-10367627D01*
X7464663Y-10367627D02*
X7474186Y-10358103D01*
X7474186Y-10358103D02*
X7474186Y-10377151D01*
D12*
X5761981Y-10770429D02*
X5841981Y-10850429D01*
X5841981Y-10770429D02*
X5761981Y-10850429D01*
D11*
X6140853Y-10701913D02*
X6159901Y-10701913D01*
X6159901Y-10701913D02*
X6178948Y-10711437D01*
X6178948Y-10711437D02*
X6188472Y-10720960D01*
X6188472Y-10720960D02*
X6197996Y-10740008D01*
X6197996Y-10740008D02*
X6207520Y-10778103D01*
X6207520Y-10778103D02*
X6207520Y-10825722D01*
X6207520Y-10825722D02*
X6197996Y-10863818D01*
X6197996Y-10863818D02*
X6188472Y-10882865D01*
X6188472Y-10882865D02*
X6178948Y-10892389D01*
X6178948Y-10892389D02*
X6159901Y-10901913D01*
X6159901Y-10901913D02*
X6140853Y-10901913D01*
X6140853Y-10901913D02*
X6121805Y-10892389D01*
X6121805Y-10892389D02*
X6112282Y-10882865D01*
X6112282Y-10882865D02*
X6102758Y-10863818D01*
X6102758Y-10863818D02*
X6093234Y-10825722D01*
X6093234Y-10825722D02*
X6093234Y-10778103D01*
X6093234Y-10778103D02*
X6102758Y-10740008D01*
X6102758Y-10740008D02*
X6112282Y-10720960D01*
X6112282Y-10720960D02*
X6121805Y-10711437D01*
X6121805Y-10711437D02*
X6140853Y-10701913D01*
X6293234Y-10882865D02*
X6302758Y-10892389D01*
X6302758Y-10892389D02*
X6293234Y-10901913D01*
X6293234Y-10901913D02*
X6283710Y-10892389D01*
X6283710Y-10892389D02*
X6293234Y-10882865D01*
X6293234Y-10882865D02*
X6293234Y-10901913D01*
X6417043Y-10787627D02*
X6397996Y-10778103D01*
X6397996Y-10778103D02*
X6388472Y-10768579D01*
X6388472Y-10768579D02*
X6378948Y-10749532D01*
X6378948Y-10749532D02*
X6378948Y-10740008D01*
X6378948Y-10740008D02*
X6388472Y-10720960D01*
X6388472Y-10720960D02*
X6397996Y-10711437D01*
X6397996Y-10711437D02*
X6417043Y-10701913D01*
X6417043Y-10701913D02*
X6455139Y-10701913D01*
X6455139Y-10701913D02*
X6474186Y-10711437D01*
X6474186Y-10711437D02*
X6483710Y-10720960D01*
X6483710Y-10720960D02*
X6493234Y-10740008D01*
X6493234Y-10740008D02*
X6493234Y-10749532D01*
X6493234Y-10749532D02*
X6483710Y-10768579D01*
X6483710Y-10768579D02*
X6474186Y-10778103D01*
X6474186Y-10778103D02*
X6455139Y-10787627D01*
X6455139Y-10787627D02*
X6417043Y-10787627D01*
X6417043Y-10787627D02*
X6397996Y-10797151D01*
X6397996Y-10797151D02*
X6388472Y-10806675D01*
X6388472Y-10806675D02*
X6378948Y-10825722D01*
X6378948Y-10825722D02*
X6378948Y-10863818D01*
X6378948Y-10863818D02*
X6388472Y-10882865D01*
X6388472Y-10882865D02*
X6397996Y-10892389D01*
X6397996Y-10892389D02*
X6417043Y-10901913D01*
X6417043Y-10901913D02*
X6455139Y-10901913D01*
X6455139Y-10901913D02*
X6474186Y-10892389D01*
X6474186Y-10892389D02*
X6483710Y-10882865D01*
X6483710Y-10882865D02*
X6493234Y-10863818D01*
X6493234Y-10863818D02*
X6493234Y-10825722D01*
X6493234Y-10825722D02*
X6483710Y-10806675D01*
X6483710Y-10806675D02*
X6474186Y-10797151D01*
X6474186Y-10797151D02*
X6455139Y-10787627D01*
X6617043Y-10701913D02*
X6636091Y-10701913D01*
X6636091Y-10701913D02*
X6655139Y-10711437D01*
X6655139Y-10711437D02*
X6664663Y-10720960D01*
X6664663Y-10720960D02*
X6674186Y-10740008D01*
X6674186Y-10740008D02*
X6683710Y-10778103D01*
X6683710Y-10778103D02*
X6683710Y-10825722D01*
X6683710Y-10825722D02*
X6674186Y-10863818D01*
X6674186Y-10863818D02*
X6664663Y-10882865D01*
X6664663Y-10882865D02*
X6655139Y-10892389D01*
X6655139Y-10892389D02*
X6636091Y-10901913D01*
X6636091Y-10901913D02*
X6617043Y-10901913D01*
X6617043Y-10901913D02*
X6597996Y-10892389D01*
X6597996Y-10892389D02*
X6588472Y-10882865D01*
X6588472Y-10882865D02*
X6578948Y-10863818D01*
X6578948Y-10863818D02*
X6569424Y-10825722D01*
X6569424Y-10825722D02*
X6569424Y-10778103D01*
X6569424Y-10778103D02*
X6578948Y-10740008D01*
X6578948Y-10740008D02*
X6588472Y-10720960D01*
X6588472Y-10720960D02*
X6597996Y-10711437D01*
X6597996Y-10711437D02*
X6617043Y-10701913D01*
X6807520Y-10701913D02*
X6826567Y-10701913D01*
X6826567Y-10701913D02*
X6845615Y-10711437D01*
X6845615Y-10711437D02*
X6855139Y-10720960D01*
X6855139Y-10720960D02*
X6864663Y-10740008D01*
X6864663Y-10740008D02*
X6874186Y-10778103D01*
X6874186Y-10778103D02*
X6874186Y-10825722D01*
X6874186Y-10825722D02*
X6864663Y-10863818D01*
X6864663Y-10863818D02*
X6855139Y-10882865D01*
X6855139Y-10882865D02*
X6845615Y-10892389D01*
X6845615Y-10892389D02*
X6826567Y-10901913D01*
X6826567Y-10901913D02*
X6807520Y-10901913D01*
X6807520Y-10901913D02*
X6788472Y-10892389D01*
X6788472Y-10892389D02*
X6778948Y-10882865D01*
X6778948Y-10882865D02*
X6769424Y-10863818D01*
X6769424Y-10863818D02*
X6759901Y-10825722D01*
X6759901Y-10825722D02*
X6759901Y-10778103D01*
X6759901Y-10778103D02*
X6769424Y-10740008D01*
X6769424Y-10740008D02*
X6778948Y-10720960D01*
X6778948Y-10720960D02*
X6788472Y-10711437D01*
X6788472Y-10711437D02*
X6807520Y-10701913D01*
X6959901Y-10901913D02*
X6959901Y-10768579D01*
X6959901Y-10787627D02*
X6969424Y-10778103D01*
X6969424Y-10778103D02*
X6988472Y-10768579D01*
X6988472Y-10768579D02*
X7017044Y-10768579D01*
X7017044Y-10768579D02*
X7036091Y-10778103D01*
X7036091Y-10778103D02*
X7045615Y-10797151D01*
X7045615Y-10797151D02*
X7045615Y-10901913D01*
X7045615Y-10797151D02*
X7055139Y-10778103D01*
X7055139Y-10778103D02*
X7074186Y-10768579D01*
X7074186Y-10768579D02*
X7102758Y-10768579D01*
X7102758Y-10768579D02*
X7121805Y-10778103D01*
X7121805Y-10778103D02*
X7131329Y-10797151D01*
X7131329Y-10797151D02*
X7131329Y-10901913D01*
X7226567Y-10901913D02*
X7226567Y-10768579D01*
X7226567Y-10787627D02*
X7236091Y-10778103D01*
X7236091Y-10778103D02*
X7255139Y-10768579D01*
X7255139Y-10768579D02*
X7283710Y-10768579D01*
X7283710Y-10768579D02*
X7302758Y-10778103D01*
X7302758Y-10778103D02*
X7312282Y-10797151D01*
X7312282Y-10797151D02*
X7312282Y-10901913D01*
X7312282Y-10797151D02*
X7321805Y-10778103D01*
X7321805Y-10778103D02*
X7340853Y-10768579D01*
X7340853Y-10768579D02*
X7369424Y-10768579D01*
X7369424Y-10768579D02*
X7388472Y-10778103D01*
X7388472Y-10778103D02*
X7397996Y-10797151D01*
X7397996Y-10797151D02*
X7397996Y-10901913D01*
X7788472Y-10692389D02*
X7617044Y-10949532D01*
X8045615Y-10701913D02*
X8064663Y-10701913D01*
X8064663Y-10701913D02*
X8083710Y-10711437D01*
X8083710Y-10711437D02*
X8093234Y-10720960D01*
X8093234Y-10720960D02*
X8102758Y-10740008D01*
X8102758Y-10740008D02*
X8112282Y-10778103D01*
X8112282Y-10778103D02*
X8112282Y-10825722D01*
X8112282Y-10825722D02*
X8102758Y-10863818D01*
X8102758Y-10863818D02*
X8093234Y-10882865D01*
X8093234Y-10882865D02*
X8083710Y-10892389D01*
X8083710Y-10892389D02*
X8064663Y-10901913D01*
X8064663Y-10901913D02*
X8045615Y-10901913D01*
X8045615Y-10901913D02*
X8026567Y-10892389D01*
X8026567Y-10892389D02*
X8017044Y-10882865D01*
X8017044Y-10882865D02*
X8007520Y-10863818D01*
X8007520Y-10863818D02*
X7997996Y-10825722D01*
X7997996Y-10825722D02*
X7997996Y-10778103D01*
X7997996Y-10778103D02*
X8007520Y-10740008D01*
X8007520Y-10740008D02*
X8017044Y-10720960D01*
X8017044Y-10720960D02*
X8026567Y-10711437D01*
X8026567Y-10711437D02*
X8045615Y-10701913D01*
X8197996Y-10882865D02*
X8207520Y-10892389D01*
X8207520Y-10892389D02*
X8197996Y-10901913D01*
X8197996Y-10901913D02*
X8188472Y-10892389D01*
X8188472Y-10892389D02*
X8197996Y-10882865D01*
X8197996Y-10882865D02*
X8197996Y-10901913D01*
X8331329Y-10701913D02*
X8350377Y-10701913D01*
X8350377Y-10701913D02*
X8369425Y-10711437D01*
X8369425Y-10711437D02*
X8378948Y-10720960D01*
X8378948Y-10720960D02*
X8388472Y-10740008D01*
X8388472Y-10740008D02*
X8397996Y-10778103D01*
X8397996Y-10778103D02*
X8397996Y-10825722D01*
X8397996Y-10825722D02*
X8388472Y-10863818D01*
X8388472Y-10863818D02*
X8378948Y-10882865D01*
X8378948Y-10882865D02*
X8369425Y-10892389D01*
X8369425Y-10892389D02*
X8350377Y-10901913D01*
X8350377Y-10901913D02*
X8331329Y-10901913D01*
X8331329Y-10901913D02*
X8312282Y-10892389D01*
X8312282Y-10892389D02*
X8302758Y-10882865D01*
X8302758Y-10882865D02*
X8293234Y-10863818D01*
X8293234Y-10863818D02*
X8283710Y-10825722D01*
X8283710Y-10825722D02*
X8283710Y-10778103D01*
X8283710Y-10778103D02*
X8293234Y-10740008D01*
X8293234Y-10740008D02*
X8302758Y-10720960D01*
X8302758Y-10720960D02*
X8312282Y-10711437D01*
X8312282Y-10711437D02*
X8331329Y-10701913D01*
X8464663Y-10701913D02*
X8588472Y-10701913D01*
X8588472Y-10701913D02*
X8521806Y-10778103D01*
X8521806Y-10778103D02*
X8550377Y-10778103D01*
X8550377Y-10778103D02*
X8569425Y-10787627D01*
X8569425Y-10787627D02*
X8578949Y-10797151D01*
X8578949Y-10797151D02*
X8588472Y-10816199D01*
X8588472Y-10816199D02*
X8588472Y-10863818D01*
X8588472Y-10863818D02*
X8578949Y-10882865D01*
X8578949Y-10882865D02*
X8569425Y-10892389D01*
X8569425Y-10892389D02*
X8550377Y-10901913D01*
X8550377Y-10901913D02*
X8493234Y-10901913D01*
X8493234Y-10901913D02*
X8474187Y-10892389D01*
X8474187Y-10892389D02*
X8464663Y-10882865D01*
X8778949Y-10901913D02*
X8664663Y-10901913D01*
X8721806Y-10901913D02*
X8721806Y-10701913D01*
X8721806Y-10701913D02*
X8702758Y-10730484D01*
X8702758Y-10730484D02*
X8683710Y-10749532D01*
X8683710Y-10749532D02*
X8664663Y-10759056D01*
X8959901Y-10701913D02*
X8864663Y-10701913D01*
X8864663Y-10701913D02*
X8855139Y-10797151D01*
X8855139Y-10797151D02*
X8864663Y-10787627D01*
X8864663Y-10787627D02*
X8883710Y-10778103D01*
X8883710Y-10778103D02*
X8931330Y-10778103D01*
X8931330Y-10778103D02*
X8950377Y-10787627D01*
X8950377Y-10787627D02*
X8959901Y-10797151D01*
X8959901Y-10797151D02*
X8969425Y-10816199D01*
X8969425Y-10816199D02*
X8969425Y-10863818D01*
X8969425Y-10863818D02*
X8959901Y-10882865D01*
X8959901Y-10882865D02*
X8950377Y-10892389D01*
X8950377Y-10892389D02*
X8931330Y-10901913D01*
X8931330Y-10901913D02*
X8883710Y-10901913D01*
X8883710Y-10901913D02*
X8864663Y-10892389D01*
X8864663Y-10892389D02*
X8855139Y-10882865D01*
X9045615Y-10701913D02*
X9045615Y-10740008D01*
X9121806Y-10701913D02*
X9121806Y-10740008D01*
X9417044Y-10978103D02*
X9407520Y-10968579D01*
X9407520Y-10968579D02*
X9388472Y-10940008D01*
X9388472Y-10940008D02*
X9378949Y-10920960D01*
X9378949Y-10920960D02*
X9369425Y-10892389D01*
X9369425Y-10892389D02*
X9359901Y-10844770D01*
X9359901Y-10844770D02*
X9359901Y-10806675D01*
X9359901Y-10806675D02*
X9369425Y-10759056D01*
X9369425Y-10759056D02*
X9378949Y-10730484D01*
X9378949Y-10730484D02*
X9388472Y-10711437D01*
X9388472Y-10711437D02*
X9407520Y-10682865D01*
X9407520Y-10682865D02*
X9417044Y-10673341D01*
X9483711Y-10720960D02*
X9493234Y-10711437D01*
X9493234Y-10711437D02*
X9512282Y-10701913D01*
X9512282Y-10701913D02*
X9559901Y-10701913D01*
X9559901Y-10701913D02*
X9578949Y-10711437D01*
X9578949Y-10711437D02*
X9588472Y-10720960D01*
X9588472Y-10720960D02*
X9597996Y-10740008D01*
X9597996Y-10740008D02*
X9597996Y-10759056D01*
X9597996Y-10759056D02*
X9588472Y-10787627D01*
X9588472Y-10787627D02*
X9474187Y-10901913D01*
X9474187Y-10901913D02*
X9597996Y-10901913D01*
X9836092Y-10901913D02*
X9836092Y-10701913D01*
X9921806Y-10901913D02*
X9921806Y-10797151D01*
X9921806Y-10797151D02*
X9912282Y-10778103D01*
X9912282Y-10778103D02*
X9893234Y-10768579D01*
X9893234Y-10768579D02*
X9864663Y-10768579D01*
X9864663Y-10768579D02*
X9845615Y-10778103D01*
X9845615Y-10778103D02*
X9836092Y-10787627D01*
X10045615Y-10901913D02*
X10026568Y-10892389D01*
X10026568Y-10892389D02*
X10017044Y-10882865D01*
X10017044Y-10882865D02*
X10007520Y-10863818D01*
X10007520Y-10863818D02*
X10007520Y-10806675D01*
X10007520Y-10806675D02*
X10017044Y-10787627D01*
X10017044Y-10787627D02*
X10026568Y-10778103D01*
X10026568Y-10778103D02*
X10045615Y-10768579D01*
X10045615Y-10768579D02*
X10074187Y-10768579D01*
X10074187Y-10768579D02*
X10093234Y-10778103D01*
X10093234Y-10778103D02*
X10102758Y-10787627D01*
X10102758Y-10787627D02*
X10112282Y-10806675D01*
X10112282Y-10806675D02*
X10112282Y-10863818D01*
X10112282Y-10863818D02*
X10102758Y-10882865D01*
X10102758Y-10882865D02*
X10093234Y-10892389D01*
X10093234Y-10892389D02*
X10074187Y-10901913D01*
X10074187Y-10901913D02*
X10045615Y-10901913D01*
X10226568Y-10901913D02*
X10207520Y-10892389D01*
X10207520Y-10892389D02*
X10197996Y-10873341D01*
X10197996Y-10873341D02*
X10197996Y-10701913D01*
X10378949Y-10892389D02*
X10359901Y-10901913D01*
X10359901Y-10901913D02*
X10321806Y-10901913D01*
X10321806Y-10901913D02*
X10302758Y-10892389D01*
X10302758Y-10892389D02*
X10293234Y-10873341D01*
X10293234Y-10873341D02*
X10293234Y-10797151D01*
X10293234Y-10797151D02*
X10302758Y-10778103D01*
X10302758Y-10778103D02*
X10321806Y-10768579D01*
X10321806Y-10768579D02*
X10359901Y-10768579D01*
X10359901Y-10768579D02*
X10378949Y-10778103D01*
X10378949Y-10778103D02*
X10388473Y-10797151D01*
X10388473Y-10797151D02*
X10388473Y-10816199D01*
X10388473Y-10816199D02*
X10293234Y-10835246D01*
X10464663Y-10892389D02*
X10483711Y-10901913D01*
X10483711Y-10901913D02*
X10521806Y-10901913D01*
X10521806Y-10901913D02*
X10540854Y-10892389D01*
X10540854Y-10892389D02*
X10550377Y-10873341D01*
X10550377Y-10873341D02*
X10550377Y-10863818D01*
X10550377Y-10863818D02*
X10540854Y-10844770D01*
X10540854Y-10844770D02*
X10521806Y-10835246D01*
X10521806Y-10835246D02*
X10493234Y-10835246D01*
X10493234Y-10835246D02*
X10474187Y-10825722D01*
X10474187Y-10825722D02*
X10464663Y-10806675D01*
X10464663Y-10806675D02*
X10464663Y-10797151D01*
X10464663Y-10797151D02*
X10474187Y-10778103D01*
X10474187Y-10778103D02*
X10493234Y-10768579D01*
X10493234Y-10768579D02*
X10521806Y-10768579D01*
X10521806Y-10768579D02*
X10540854Y-10778103D01*
X10617044Y-10978103D02*
X10626568Y-10968579D01*
X10626568Y-10968579D02*
X10645615Y-10940008D01*
X10645615Y-10940008D02*
X10655139Y-10920960D01*
X10655139Y-10920960D02*
X10664663Y-10892389D01*
X10664663Y-10892389D02*
X10674187Y-10844770D01*
X10674187Y-10844770D02*
X10674187Y-10806675D01*
X10674187Y-10806675D02*
X10664663Y-10759056D01*
X10664663Y-10759056D02*
X10655139Y-10730484D01*
X10655139Y-10730484D02*
X10645615Y-10711437D01*
X10645615Y-10711437D02*
X10626568Y-10682865D01*
X10626568Y-10682865D02*
X10617044Y-10673341D01*
D12*
X5841981Y-11074429D02*
G75*
G02*
X5741981Y-11074429I-50000J0D01*
G01*
X5741981Y-11074429D02*
G75*
G02*
X5841981Y-11074429I50000J0D01*
G01*
D11*
X6207520Y-11165913D02*
X6093234Y-11165913D01*
X6150377Y-11165913D02*
X6150377Y-10965913D01*
X6150377Y-10965913D02*
X6131329Y-10994484D01*
X6131329Y-10994484D02*
X6112282Y-11013532D01*
X6112282Y-11013532D02*
X6093234Y-11023056D01*
X6293234Y-11146865D02*
X6302758Y-11156389D01*
X6302758Y-11156389D02*
X6293234Y-11165913D01*
X6293234Y-11165913D02*
X6283710Y-11156389D01*
X6283710Y-11156389D02*
X6293234Y-11146865D01*
X6293234Y-11146865D02*
X6293234Y-11165913D01*
X6426567Y-10965913D02*
X6445615Y-10965913D01*
X6445615Y-10965913D02*
X6464663Y-10975437D01*
X6464663Y-10975437D02*
X6474186Y-10984960D01*
X6474186Y-10984960D02*
X6483710Y-11004008D01*
X6483710Y-11004008D02*
X6493234Y-11042103D01*
X6493234Y-11042103D02*
X6493234Y-11089722D01*
X6493234Y-11089722D02*
X6483710Y-11127818D01*
X6483710Y-11127818D02*
X6474186Y-11146865D01*
X6474186Y-11146865D02*
X6464663Y-11156389D01*
X6464663Y-11156389D02*
X6445615Y-11165913D01*
X6445615Y-11165913D02*
X6426567Y-11165913D01*
X6426567Y-11165913D02*
X6407520Y-11156389D01*
X6407520Y-11156389D02*
X6397996Y-11146865D01*
X6397996Y-11146865D02*
X6388472Y-11127818D01*
X6388472Y-11127818D02*
X6378948Y-11089722D01*
X6378948Y-11089722D02*
X6378948Y-11042103D01*
X6378948Y-11042103D02*
X6388472Y-11004008D01*
X6388472Y-11004008D02*
X6397996Y-10984960D01*
X6397996Y-10984960D02*
X6407520Y-10975437D01*
X6407520Y-10975437D02*
X6426567Y-10965913D01*
X6617043Y-10965913D02*
X6636091Y-10965913D01*
X6636091Y-10965913D02*
X6655139Y-10975437D01*
X6655139Y-10975437D02*
X6664663Y-10984960D01*
X6664663Y-10984960D02*
X6674186Y-11004008D01*
X6674186Y-11004008D02*
X6683710Y-11042103D01*
X6683710Y-11042103D02*
X6683710Y-11089722D01*
X6683710Y-11089722D02*
X6674186Y-11127818D01*
X6674186Y-11127818D02*
X6664663Y-11146865D01*
X6664663Y-11146865D02*
X6655139Y-11156389D01*
X6655139Y-11156389D02*
X6636091Y-11165913D01*
X6636091Y-11165913D02*
X6617043Y-11165913D01*
X6617043Y-11165913D02*
X6597996Y-11156389D01*
X6597996Y-11156389D02*
X6588472Y-11146865D01*
X6588472Y-11146865D02*
X6578948Y-11127818D01*
X6578948Y-11127818D02*
X6569424Y-11089722D01*
X6569424Y-11089722D02*
X6569424Y-11042103D01*
X6569424Y-11042103D02*
X6578948Y-11004008D01*
X6578948Y-11004008D02*
X6588472Y-10984960D01*
X6588472Y-10984960D02*
X6597996Y-10975437D01*
X6597996Y-10975437D02*
X6617043Y-10965913D01*
X6807520Y-10965913D02*
X6826567Y-10965913D01*
X6826567Y-10965913D02*
X6845615Y-10975437D01*
X6845615Y-10975437D02*
X6855139Y-10984960D01*
X6855139Y-10984960D02*
X6864663Y-11004008D01*
X6864663Y-11004008D02*
X6874186Y-11042103D01*
X6874186Y-11042103D02*
X6874186Y-11089722D01*
X6874186Y-11089722D02*
X6864663Y-11127818D01*
X6864663Y-11127818D02*
X6855139Y-11146865D01*
X6855139Y-11146865D02*
X6845615Y-11156389D01*
X6845615Y-11156389D02*
X6826567Y-11165913D01*
X6826567Y-11165913D02*
X6807520Y-11165913D01*
X6807520Y-11165913D02*
X6788472Y-11156389D01*
X6788472Y-11156389D02*
X6778948Y-11146865D01*
X6778948Y-11146865D02*
X6769424Y-11127818D01*
X6769424Y-11127818D02*
X6759901Y-11089722D01*
X6759901Y-11089722D02*
X6759901Y-11042103D01*
X6759901Y-11042103D02*
X6769424Y-11004008D01*
X6769424Y-11004008D02*
X6778948Y-10984960D01*
X6778948Y-10984960D02*
X6788472Y-10975437D01*
X6788472Y-10975437D02*
X6807520Y-10965913D01*
X6959901Y-11165913D02*
X6959901Y-11032579D01*
X6959901Y-11051627D02*
X6969424Y-11042103D01*
X6969424Y-11042103D02*
X6988472Y-11032579D01*
X6988472Y-11032579D02*
X7017044Y-11032579D01*
X7017044Y-11032579D02*
X7036091Y-11042103D01*
X7036091Y-11042103D02*
X7045615Y-11061151D01*
X7045615Y-11061151D02*
X7045615Y-11165913D01*
X7045615Y-11061151D02*
X7055139Y-11042103D01*
X7055139Y-11042103D02*
X7074186Y-11032579D01*
X7074186Y-11032579D02*
X7102758Y-11032579D01*
X7102758Y-11032579D02*
X7121805Y-11042103D01*
X7121805Y-11042103D02*
X7131329Y-11061151D01*
X7131329Y-11061151D02*
X7131329Y-11165913D01*
X7226567Y-11165913D02*
X7226567Y-11032579D01*
X7226567Y-11051627D02*
X7236091Y-11042103D01*
X7236091Y-11042103D02*
X7255139Y-11032579D01*
X7255139Y-11032579D02*
X7283710Y-11032579D01*
X7283710Y-11032579D02*
X7302758Y-11042103D01*
X7302758Y-11042103D02*
X7312282Y-11061151D01*
X7312282Y-11061151D02*
X7312282Y-11165913D01*
X7312282Y-11061151D02*
X7321805Y-11042103D01*
X7321805Y-11042103D02*
X7340853Y-11032579D01*
X7340853Y-11032579D02*
X7369424Y-11032579D01*
X7369424Y-11032579D02*
X7388472Y-11042103D01*
X7388472Y-11042103D02*
X7397996Y-11061151D01*
X7397996Y-11061151D02*
X7397996Y-11165913D01*
X7788472Y-10956389D02*
X7617044Y-11213532D01*
X8045615Y-10965913D02*
X8064663Y-10965913D01*
X8064663Y-10965913D02*
X8083710Y-10975437D01*
X8083710Y-10975437D02*
X8093234Y-10984960D01*
X8093234Y-10984960D02*
X8102758Y-11004008D01*
X8102758Y-11004008D02*
X8112282Y-11042103D01*
X8112282Y-11042103D02*
X8112282Y-11089722D01*
X8112282Y-11089722D02*
X8102758Y-11127818D01*
X8102758Y-11127818D02*
X8093234Y-11146865D01*
X8093234Y-11146865D02*
X8083710Y-11156389D01*
X8083710Y-11156389D02*
X8064663Y-11165913D01*
X8064663Y-11165913D02*
X8045615Y-11165913D01*
X8045615Y-11165913D02*
X8026567Y-11156389D01*
X8026567Y-11156389D02*
X8017044Y-11146865D01*
X8017044Y-11146865D02*
X8007520Y-11127818D01*
X8007520Y-11127818D02*
X7997996Y-11089722D01*
X7997996Y-11089722D02*
X7997996Y-11042103D01*
X7997996Y-11042103D02*
X8007520Y-11004008D01*
X8007520Y-11004008D02*
X8017044Y-10984960D01*
X8017044Y-10984960D02*
X8026567Y-10975437D01*
X8026567Y-10975437D02*
X8045615Y-10965913D01*
X8197996Y-11146865D02*
X8207520Y-11156389D01*
X8207520Y-11156389D02*
X8197996Y-11165913D01*
X8197996Y-11165913D02*
X8188472Y-11156389D01*
X8188472Y-11156389D02*
X8197996Y-11146865D01*
X8197996Y-11146865D02*
X8197996Y-11165913D01*
X8331329Y-10965913D02*
X8350377Y-10965913D01*
X8350377Y-10965913D02*
X8369425Y-10975437D01*
X8369425Y-10975437D02*
X8378948Y-10984960D01*
X8378948Y-10984960D02*
X8388472Y-11004008D01*
X8388472Y-11004008D02*
X8397996Y-11042103D01*
X8397996Y-11042103D02*
X8397996Y-11089722D01*
X8397996Y-11089722D02*
X8388472Y-11127818D01*
X8388472Y-11127818D02*
X8378948Y-11146865D01*
X8378948Y-11146865D02*
X8369425Y-11156389D01*
X8369425Y-11156389D02*
X8350377Y-11165913D01*
X8350377Y-11165913D02*
X8331329Y-11165913D01*
X8331329Y-11165913D02*
X8312282Y-11156389D01*
X8312282Y-11156389D02*
X8302758Y-11146865D01*
X8302758Y-11146865D02*
X8293234Y-11127818D01*
X8293234Y-11127818D02*
X8283710Y-11089722D01*
X8283710Y-11089722D02*
X8283710Y-11042103D01*
X8283710Y-11042103D02*
X8293234Y-11004008D01*
X8293234Y-11004008D02*
X8302758Y-10984960D01*
X8302758Y-10984960D02*
X8312282Y-10975437D01*
X8312282Y-10975437D02*
X8331329Y-10965913D01*
X8464663Y-10965913D02*
X8588472Y-10965913D01*
X8588472Y-10965913D02*
X8521806Y-11042103D01*
X8521806Y-11042103D02*
X8550377Y-11042103D01*
X8550377Y-11042103D02*
X8569425Y-11051627D01*
X8569425Y-11051627D02*
X8578949Y-11061151D01*
X8578949Y-11061151D02*
X8588472Y-11080199D01*
X8588472Y-11080199D02*
X8588472Y-11127818D01*
X8588472Y-11127818D02*
X8578949Y-11146865D01*
X8578949Y-11146865D02*
X8569425Y-11156389D01*
X8569425Y-11156389D02*
X8550377Y-11165913D01*
X8550377Y-11165913D02*
X8493234Y-11165913D01*
X8493234Y-11165913D02*
X8474187Y-11156389D01*
X8474187Y-11156389D02*
X8464663Y-11146865D01*
X8683710Y-11165913D02*
X8721806Y-11165913D01*
X8721806Y-11165913D02*
X8740853Y-11156389D01*
X8740853Y-11156389D02*
X8750377Y-11146865D01*
X8750377Y-11146865D02*
X8769425Y-11118294D01*
X8769425Y-11118294D02*
X8778949Y-11080199D01*
X8778949Y-11080199D02*
X8778949Y-11004008D01*
X8778949Y-11004008D02*
X8769425Y-10984960D01*
X8769425Y-10984960D02*
X8759901Y-10975437D01*
X8759901Y-10975437D02*
X8740853Y-10965913D01*
X8740853Y-10965913D02*
X8702758Y-10965913D01*
X8702758Y-10965913D02*
X8683710Y-10975437D01*
X8683710Y-10975437D02*
X8674187Y-10984960D01*
X8674187Y-10984960D02*
X8664663Y-11004008D01*
X8664663Y-11004008D02*
X8664663Y-11051627D01*
X8664663Y-11051627D02*
X8674187Y-11070675D01*
X8674187Y-11070675D02*
X8683710Y-11080199D01*
X8683710Y-11080199D02*
X8702758Y-11089722D01*
X8702758Y-11089722D02*
X8740853Y-11089722D01*
X8740853Y-11089722D02*
X8759901Y-11080199D01*
X8759901Y-11080199D02*
X8769425Y-11070675D01*
X8769425Y-11070675D02*
X8778949Y-11051627D01*
X8950377Y-11032579D02*
X8950377Y-11165913D01*
X8902758Y-10956389D02*
X8855139Y-11099246D01*
X8855139Y-11099246D02*
X8978949Y-11099246D01*
X9045615Y-10965913D02*
X9045615Y-11004008D01*
X9121806Y-10965913D02*
X9121806Y-11004008D01*
X9417044Y-11242103D02*
X9407520Y-11232579D01*
X9407520Y-11232579D02*
X9388472Y-11204008D01*
X9388472Y-11204008D02*
X9378949Y-11184960D01*
X9378949Y-11184960D02*
X9369425Y-11156389D01*
X9369425Y-11156389D02*
X9359901Y-11108770D01*
X9359901Y-11108770D02*
X9359901Y-11070675D01*
X9359901Y-11070675D02*
X9369425Y-11023056D01*
X9369425Y-11023056D02*
X9378949Y-10994484D01*
X9378949Y-10994484D02*
X9388472Y-10975437D01*
X9388472Y-10975437D02*
X9407520Y-10946865D01*
X9407520Y-10946865D02*
X9417044Y-10937341D01*
X9474187Y-10965913D02*
X9597996Y-10965913D01*
X9597996Y-10965913D02*
X9531330Y-11042103D01*
X9531330Y-11042103D02*
X9559901Y-11042103D01*
X9559901Y-11042103D02*
X9578949Y-11051627D01*
X9578949Y-11051627D02*
X9588472Y-11061151D01*
X9588472Y-11061151D02*
X9597996Y-11080199D01*
X9597996Y-11080199D02*
X9597996Y-11127818D01*
X9597996Y-11127818D02*
X9588472Y-11146865D01*
X9588472Y-11146865D02*
X9578949Y-11156389D01*
X9578949Y-11156389D02*
X9559901Y-11165913D01*
X9559901Y-11165913D02*
X9502758Y-11165913D01*
X9502758Y-11165913D02*
X9483711Y-11156389D01*
X9483711Y-11156389D02*
X9474187Y-11146865D01*
X9721806Y-10965913D02*
X9740853Y-10965913D01*
X9740853Y-10965913D02*
X9759901Y-10975437D01*
X9759901Y-10975437D02*
X9769425Y-10984960D01*
X9769425Y-10984960D02*
X9778949Y-11004008D01*
X9778949Y-11004008D02*
X9788472Y-11042103D01*
X9788472Y-11042103D02*
X9788472Y-11089722D01*
X9788472Y-11089722D02*
X9778949Y-11127818D01*
X9778949Y-11127818D02*
X9769425Y-11146865D01*
X9769425Y-11146865D02*
X9759901Y-11156389D01*
X9759901Y-11156389D02*
X9740853Y-11165913D01*
X9740853Y-11165913D02*
X9721806Y-11165913D01*
X9721806Y-11165913D02*
X9702758Y-11156389D01*
X9702758Y-11156389D02*
X9693234Y-11146865D01*
X9693234Y-11146865D02*
X9683711Y-11127818D01*
X9683711Y-11127818D02*
X9674187Y-11089722D01*
X9674187Y-11089722D02*
X9674187Y-11042103D01*
X9674187Y-11042103D02*
X9683711Y-11004008D01*
X9683711Y-11004008D02*
X9693234Y-10984960D01*
X9693234Y-10984960D02*
X9702758Y-10975437D01*
X9702758Y-10975437D02*
X9721806Y-10965913D01*
X10026568Y-11165913D02*
X10026568Y-10965913D01*
X10112282Y-11165913D02*
X10112282Y-11061151D01*
X10112282Y-11061151D02*
X10102758Y-11042103D01*
X10102758Y-11042103D02*
X10083711Y-11032579D01*
X10083711Y-11032579D02*
X10055139Y-11032579D01*
X10055139Y-11032579D02*
X10036092Y-11042103D01*
X10036092Y-11042103D02*
X10026568Y-11051627D01*
X10236092Y-11165913D02*
X10217044Y-11156389D01*
X10217044Y-11156389D02*
X10207520Y-11146865D01*
X10207520Y-11146865D02*
X10197996Y-11127818D01*
X10197996Y-11127818D02*
X10197996Y-11070675D01*
X10197996Y-11070675D02*
X10207520Y-11051627D01*
X10207520Y-11051627D02*
X10217044Y-11042103D01*
X10217044Y-11042103D02*
X10236092Y-11032579D01*
X10236092Y-11032579D02*
X10264663Y-11032579D01*
X10264663Y-11032579D02*
X10283711Y-11042103D01*
X10283711Y-11042103D02*
X10293234Y-11051627D01*
X10293234Y-11051627D02*
X10302758Y-11070675D01*
X10302758Y-11070675D02*
X10302758Y-11127818D01*
X10302758Y-11127818D02*
X10293234Y-11146865D01*
X10293234Y-11146865D02*
X10283711Y-11156389D01*
X10283711Y-11156389D02*
X10264663Y-11165913D01*
X10264663Y-11165913D02*
X10236092Y-11165913D01*
X10417044Y-11165913D02*
X10397996Y-11156389D01*
X10397996Y-11156389D02*
X10388473Y-11137341D01*
X10388473Y-11137341D02*
X10388473Y-10965913D01*
X10569425Y-11156389D02*
X10550377Y-11165913D01*
X10550377Y-11165913D02*
X10512282Y-11165913D01*
X10512282Y-11165913D02*
X10493234Y-11156389D01*
X10493234Y-11156389D02*
X10483711Y-11137341D01*
X10483711Y-11137341D02*
X10483711Y-11061151D01*
X10483711Y-11061151D02*
X10493234Y-11042103D01*
X10493234Y-11042103D02*
X10512282Y-11032579D01*
X10512282Y-11032579D02*
X10550377Y-11032579D01*
X10550377Y-11032579D02*
X10569425Y-11042103D01*
X10569425Y-11042103D02*
X10578949Y-11061151D01*
X10578949Y-11061151D02*
X10578949Y-11080199D01*
X10578949Y-11080199D02*
X10483711Y-11099246D01*
X10655139Y-11156389D02*
X10674187Y-11165913D01*
X10674187Y-11165913D02*
X10712282Y-11165913D01*
X10712282Y-11165913D02*
X10731330Y-11156389D01*
X10731330Y-11156389D02*
X10740854Y-11137341D01*
X10740854Y-11137341D02*
X10740854Y-11127818D01*
X10740854Y-11127818D02*
X10731330Y-11108770D01*
X10731330Y-11108770D02*
X10712282Y-11099246D01*
X10712282Y-11099246D02*
X10683711Y-11099246D01*
X10683711Y-11099246D02*
X10664663Y-11089722D01*
X10664663Y-11089722D02*
X10655139Y-11070675D01*
X10655139Y-11070675D02*
X10655139Y-11061151D01*
X10655139Y-11061151D02*
X10664663Y-11042103D01*
X10664663Y-11042103D02*
X10683711Y-11032579D01*
X10683711Y-11032579D02*
X10712282Y-11032579D01*
X10712282Y-11032579D02*
X10731330Y-11042103D01*
X10807520Y-11242103D02*
X10817044Y-11232579D01*
X10817044Y-11232579D02*
X10836092Y-11204008D01*
X10836092Y-11204008D02*
X10845615Y-11184960D01*
X10845615Y-11184960D02*
X10855139Y-11156389D01*
X10855139Y-11156389D02*
X10864663Y-11108770D01*
X10864663Y-11108770D02*
X10864663Y-11070675D01*
X10864663Y-11070675D02*
X10855139Y-11023056D01*
X10855139Y-11023056D02*
X10845615Y-10994484D01*
X10845615Y-10994484D02*
X10836092Y-10975437D01*
X10836092Y-10975437D02*
X10817044Y-10946865D01*
X10817044Y-10946865D02*
X10807520Y-10937341D01*
M02*
