%TF.GenerationSoftware,KiCad,Pcbnew,8.0.5*%
%TF.CreationDate,2024-11-16T19:04:20+01:00*%
%TF.ProjectId,esp8266-expansion-board,65737038-3236-4362-9d65-7870616e7369,rev?*%
%TF.SameCoordinates,Original*%
%TF.FileFunction,Drillmap*%
%TF.FilePolarity,Positive*%
%FSLAX45Y45*%
G04 Gerber Fmt 4.5, Leading zero omitted, Abs format (unit mm)*
G04 Created by KiCad (PCBNEW 8.0.5) date 2024-11-16 19:04:20*
%MOMM*%
%LPD*%
G01*
G04 APERTURE LIST*
%ADD10C,0.050000*%
%ADD11C,0.200000*%
G04 APERTURE END LIST*
D10*
X5844482Y-3055929D02*
X5844482Y-9659929D01*
X6352482Y-10167929D02*
G75*
G02*
X5844481Y-9659929I-2J507999D01*
G01*
X5844482Y-3055929D02*
G75*
G02*
X6352482Y-2547932I507998J-1D01*
G01*
X8130482Y-10167929D02*
X6352482Y-10167929D01*
X8130482Y-2547929D02*
G75*
G02*
X8638481Y-3055929I-2J-508001D01*
G01*
X8638482Y-9659929D02*
G75*
G02*
X8130482Y-10167932I-508002J-1D01*
G01*
X8638481Y-3055929D02*
X8638482Y-9659929D01*
X6352482Y-2547929D02*
X8130482Y-2547929D01*
D11*
X6102758Y-10481913D02*
X6102758Y-10281913D01*
X6102758Y-10281913D02*
X6150377Y-10281913D01*
X6150377Y-10281913D02*
X6178948Y-10291437D01*
X6178948Y-10291437D02*
X6197996Y-10310484D01*
X6197996Y-10310484D02*
X6207520Y-10329532D01*
X6207520Y-10329532D02*
X6217043Y-10367627D01*
X6217043Y-10367627D02*
X6217043Y-10396199D01*
X6217043Y-10396199D02*
X6207520Y-10434294D01*
X6207520Y-10434294D02*
X6197996Y-10453341D01*
X6197996Y-10453341D02*
X6178948Y-10472389D01*
X6178948Y-10472389D02*
X6150377Y-10481913D01*
X6150377Y-10481913D02*
X6102758Y-10481913D01*
X6302758Y-10481913D02*
X6302758Y-10348579D01*
X6302758Y-10386675D02*
X6312282Y-10367627D01*
X6312282Y-10367627D02*
X6321805Y-10358103D01*
X6321805Y-10358103D02*
X6340853Y-10348579D01*
X6340853Y-10348579D02*
X6359901Y-10348579D01*
X6426567Y-10481913D02*
X6426567Y-10348579D01*
X6426567Y-10281913D02*
X6417043Y-10291437D01*
X6417043Y-10291437D02*
X6426567Y-10300960D01*
X6426567Y-10300960D02*
X6436091Y-10291437D01*
X6436091Y-10291437D02*
X6426567Y-10281913D01*
X6426567Y-10281913D02*
X6426567Y-10300960D01*
X6550377Y-10481913D02*
X6531329Y-10472389D01*
X6531329Y-10472389D02*
X6521805Y-10453341D01*
X6521805Y-10453341D02*
X6521805Y-10281913D01*
X6655139Y-10481913D02*
X6636091Y-10472389D01*
X6636091Y-10472389D02*
X6626567Y-10453341D01*
X6626567Y-10453341D02*
X6626567Y-10281913D01*
X6883710Y-10481913D02*
X6883710Y-10281913D01*
X6883710Y-10281913D02*
X6950377Y-10424770D01*
X6950377Y-10424770D02*
X7017043Y-10281913D01*
X7017043Y-10281913D02*
X7017043Y-10481913D01*
X7197996Y-10481913D02*
X7197996Y-10377151D01*
X7197996Y-10377151D02*
X7188472Y-10358103D01*
X7188472Y-10358103D02*
X7169424Y-10348579D01*
X7169424Y-10348579D02*
X7131329Y-10348579D01*
X7131329Y-10348579D02*
X7112282Y-10358103D01*
X7197996Y-10472389D02*
X7178948Y-10481913D01*
X7178948Y-10481913D02*
X7131329Y-10481913D01*
X7131329Y-10481913D02*
X7112282Y-10472389D01*
X7112282Y-10472389D02*
X7102758Y-10453341D01*
X7102758Y-10453341D02*
X7102758Y-10434294D01*
X7102758Y-10434294D02*
X7112282Y-10415246D01*
X7112282Y-10415246D02*
X7131329Y-10405722D01*
X7131329Y-10405722D02*
X7178948Y-10405722D01*
X7178948Y-10405722D02*
X7197996Y-10396199D01*
X7293234Y-10348579D02*
X7293234Y-10548579D01*
X7293234Y-10358103D02*
X7312282Y-10348579D01*
X7312282Y-10348579D02*
X7350377Y-10348579D01*
X7350377Y-10348579D02*
X7369424Y-10358103D01*
X7369424Y-10358103D02*
X7378948Y-10367627D01*
X7378948Y-10367627D02*
X7388472Y-10386675D01*
X7388472Y-10386675D02*
X7388472Y-10443818D01*
X7388472Y-10443818D02*
X7378948Y-10462865D01*
X7378948Y-10462865D02*
X7369424Y-10472389D01*
X7369424Y-10472389D02*
X7350377Y-10481913D01*
X7350377Y-10481913D02*
X7312282Y-10481913D01*
X7312282Y-10481913D02*
X7293234Y-10472389D01*
X7474186Y-10462865D02*
X7483710Y-10472389D01*
X7483710Y-10472389D02*
X7474186Y-10481913D01*
X7474186Y-10481913D02*
X7464663Y-10472389D01*
X7464663Y-10472389D02*
X7474186Y-10462865D01*
X7474186Y-10462865D02*
X7474186Y-10481913D01*
X7474186Y-10358103D02*
X7483710Y-10367627D01*
X7483710Y-10367627D02*
X7474186Y-10377151D01*
X7474186Y-10377151D02*
X7464663Y-10367627D01*
X7464663Y-10367627D02*
X7474186Y-10358103D01*
X7474186Y-10358103D02*
X7474186Y-10377151D01*
M02*
