%TF.GenerationSoftware,KiCad,Pcbnew,8.0.5*%
%TF.CreationDate,2024-11-16T19:04:16+01:00*%
%TF.ProjectId,esp8266-expansion-board,65737038-3236-4362-9d65-7870616e7369,rev?*%
%TF.SameCoordinates,Original*%
%TF.FileFunction,Copper,L2,Bot*%
%TF.FilePolarity,Positive*%
%FSLAX46Y46*%
G04 Gerber Fmt 4.6, Leading zero omitted, Abs format (unit mm)*
G04 Created by KiCad (PCBNEW 8.0.5) date 2024-11-16 19:04:16*
%MOMM*%
%LPD*%
G01*
G04 APERTURE LIST*
%TA.AperFunction,ComponentPad*%
%ADD10R,1.700000X1.700000*%
%TD*%
%TA.AperFunction,ComponentPad*%
%ADD11O,1.700000X1.700000*%
%TD*%
%TA.AperFunction,ComponentPad*%
%ADD12C,1.600000*%
%TD*%
%TA.AperFunction,ComponentPad*%
%ADD13O,1.600000X1.600000*%
%TD*%
%TA.AperFunction,ComponentPad*%
%ADD14R,2.000000X2.000000*%
%TD*%
%TA.AperFunction,ComponentPad*%
%ADD15O,2.000000X1.600000*%
%TD*%
%TA.AperFunction,Conductor*%
%ADD16C,0.500000*%
%TD*%
%TA.AperFunction,Conductor*%
%ADD17C,1.250000*%
%TD*%
G04 APERTURE END LIST*
D10*
%TO.P,J9,1,Pin_1*%
%TO.N,/+3v3*%
X66040000Y-40293187D03*
D11*
%TO.P,J9,2,Pin_2*%
%TO.N,/GPIO14B*%
X68580000Y-40293187D03*
%TO.P,J9,3,Pin_3*%
%TO.N,/GPIO12B*%
X71120000Y-40293187D03*
%TO.P,J9,4,Pin_4*%
%TO.N,/0V*%
X73660000Y-40293187D03*
%TD*%
D10*
%TO.P,J8,1,Pin_1*%
%TO.N,/+3v3*%
X66040000Y-45373187D03*
D11*
%TO.P,J8,2,Pin_2*%
%TO.N,/GPIO4B*%
X68580000Y-45373187D03*
%TO.P,J8,3,Pin_3*%
%TO.N,/GPIO5B*%
X71120000Y-45373187D03*
%TO.P,J8,4,Pin_4*%
%TO.N,/0V*%
X73660000Y-45373187D03*
%TD*%
D10*
%TO.P,J7,1,Pin_1*%
%TO.N,Net-(J7-Pin_1)*%
X79751775Y-55367942D03*
D11*
%TO.P,J7,2,Pin_2*%
%TO.N,/ADC0B*%
X79751775Y-57907942D03*
%TD*%
D12*
%TO.P,R2,1*%
%TO.N,Net-(J7-Pin_1)*%
X83820000Y-52993187D03*
D13*
%TO.P,R2,2*%
%TO.N,/+3v3*%
X83820000Y-60613187D03*
%TD*%
D10*
%TO.P,J10,1,Pin_1*%
%TO.N,/5V*%
X66040000Y-35213187D03*
D11*
%TO.P,J10,2,Pin_2*%
%TO.N,/GPIO0B*%
X68580000Y-35213187D03*
%TO.P,J10,3,Pin_3*%
%TO.N,/GPIO2B*%
X71120000Y-35213187D03*
%TO.P,J10,4,Pin_4*%
%TO.N,/0V*%
X73660000Y-35213187D03*
%TD*%
D14*
%TO.P,U2,1,~{RST}*%
%TO.N,unconnected-(U2-~{RST}-Pad1)*%
X83820000Y-88553187D03*
D15*
%TO.P,U2,2,A0*%
%TO.N,/ADC0B*%
X83820000Y-86013187D03*
%TO.P,U2,3,D0*%
%TO.N,unconnected-(U2-D0-Pad3)*%
X83820000Y-83473187D03*
%TO.P,U2,4,SCK/D5*%
%TO.N,/GPIO14B*%
X83820000Y-80933187D03*
%TO.P,U2,5,MISO/D6*%
%TO.N,/GPIO12B*%
X83820000Y-78393187D03*
%TO.P,U2,6,MOSI/D7*%
%TO.N,/GPIO13B*%
X83820000Y-75853187D03*
%TO.P,U2,7,CS/D8*%
%TO.N,/GPIO15B*%
X83820000Y-73313187D03*
%TO.P,U2,8,3V3*%
%TO.N,/+3v3*%
X83820000Y-70773187D03*
%TO.P,U2,9,5V*%
%TO.N,/5V*%
X60960000Y-70773187D03*
%TO.P,U2,10,GND*%
%TO.N,/0V*%
X60960000Y-73313187D03*
%TO.P,U2,11,D4*%
%TO.N,/GPIO2B*%
X60960000Y-75853187D03*
%TO.P,U2,12,D3*%
%TO.N,/GPIO0B*%
X60960000Y-78393187D03*
%TO.P,U2,13,SDA/D2*%
%TO.N,/GPIO4B*%
X60960000Y-80933187D03*
%TO.P,U2,14,SCL/D1*%
%TO.N,/GPIO5B*%
X60960000Y-83473187D03*
%TO.P,U2,15,RX*%
%TO.N,unconnected-(U2-RX-Pad15)*%
X60960000Y-86013187D03*
%TO.P,U2,16,TX*%
%TO.N,unconnected-(U2-TX-Pad16)*%
X60960000Y-88553187D03*
%TD*%
D16*
%TO.N,/ADC0B*%
X81280000Y-86013187D02*
X83820000Y-86013187D01*
X79751775Y-57907942D02*
X79751775Y-84484962D01*
X79751775Y-84484962D02*
X81280000Y-86013187D01*
D17*
%TO.N,/+3v3*%
X83820000Y-60613187D02*
X83820000Y-70773187D01*
X81280000Y-47913187D02*
X68580000Y-47913187D01*
X83820000Y-60613187D02*
X82195000Y-58988187D01*
X68580000Y-47913187D02*
X66040000Y-45373187D01*
X82195000Y-58988187D02*
X82195000Y-48828187D01*
X66040000Y-45373187D02*
X66040000Y-40293187D01*
X82195000Y-48828187D02*
X81280000Y-47913187D01*
%TO.N,/5V*%
X63500000Y-35213187D02*
X66040000Y-35213187D01*
X60960000Y-70773187D02*
X60960000Y-37753187D01*
X60960000Y-37753187D02*
X63500000Y-35213187D01*
%TO.N,/0V*%
X63500000Y-70773187D02*
X63500000Y-37753187D01*
X73660000Y-37753187D02*
X73660000Y-35213187D01*
X73660000Y-37753187D02*
X73660000Y-40293187D01*
X60960000Y-73313187D02*
X63500000Y-70773187D01*
X63500000Y-37753187D02*
X73660000Y-37753187D01*
X73660000Y-40293187D02*
X73660000Y-45373187D01*
%TD*%
M02*
