M48
; DRILL file {KiCad 8.0.5} date 2024-12-15T10:39:44+0100
; FORMAT={-:-/ absolute / metric / decimal}
; #@! TF.CreationDate,2024-12-15T10:39:44+01:00
; #@! TF.GenerationSoftware,Kicad,Pcbnew,8.0.5
; #@! TF.FileFunction,Plated,1,2,PTH
FMAT,2
METRIC
; #@! TA.AperFunction,Plated,PTH,ViaDrill
T1C0.500
; #@! TA.AperFunction,Plated,PTH,ComponentDrill
T2C0.800
; #@! TA.AperFunction,Plated,PTH,ComponentDrill
T3C1.000
%
G90
G05
T1
X64.77Y-48.26
X67.31Y-48.26
T2
X62.23Y-29.21
X62.23Y-33.02
X62.23Y-36.83
X62.23Y-40.64
X69.85Y-29.21
X69.85Y-33.02
X69.85Y-36.83
X69.85Y-40.64
X83.82Y-53.34
X83.82Y-60.96
T3
X60.96Y-70.773
X60.96Y-73.313
X60.96Y-75.853
X60.96Y-78.393
X60.96Y-80.933
X60.96Y-83.473
X60.96Y-86.013
X60.96Y-88.553
X74.365Y-31.007
X74.365Y-36.087
X74.417Y-40.807
X76.905Y-31.007
X76.905Y-36.087
X76.957Y-40.807
X79.445Y-31.007
X79.445Y-36.087
X79.497Y-40.807
X79.752Y-55.368
X79.752Y-57.908
X81.28Y-49.53
X81.985Y-31.007
X81.985Y-36.087
X82.037Y-40.807
X83.82Y-49.53
X83.82Y-70.773
X83.82Y-73.313
X83.82Y-75.853
X83.82Y-78.393
X83.82Y-80.933
X83.82Y-83.473
X83.82Y-86.013
X83.82Y-88.553
M30
