%TF.GenerationSoftware,KiCad,Pcbnew,8.0.5*%
%TF.CreationDate,2024-12-15T10:39:54+01:00*%
%TF.ProjectId,esp8266-expansion-board,65737038-3236-4362-9d65-7870616e7369,rev?*%
%TF.SameCoordinates,Original*%
%TF.FileFunction,Copper,L2,Bot*%
%TF.FilePolarity,Positive*%
%FSLAX46Y46*%
G04 Gerber Fmt 4.6, Leading zero omitted, Abs format (unit mm)*
G04 Created by KiCad (PCBNEW 8.0.5) date 2024-12-15 10:39:54*
%MOMM*%
%LPD*%
G01*
G04 APERTURE LIST*
%TA.AperFunction,ComponentPad*%
%ADD10R,1.700000X1.700000*%
%TD*%
%TA.AperFunction,ComponentPad*%
%ADD11O,1.700000X1.700000*%
%TD*%
%TA.AperFunction,ComponentPad*%
%ADD12C,1.600000*%
%TD*%
%TA.AperFunction,ComponentPad*%
%ADD13O,1.600000X1.600000*%
%TD*%
%TA.AperFunction,ComponentPad*%
%ADD14R,2.000000X2.000000*%
%TD*%
%TA.AperFunction,ComponentPad*%
%ADD15O,2.000000X1.600000*%
%TD*%
%TA.AperFunction,ViaPad*%
%ADD16C,0.750000*%
%TD*%
%TA.AperFunction,Conductor*%
%ADD17C,2.000000*%
%TD*%
%TA.AperFunction,Conductor*%
%ADD18C,0.500000*%
%TD*%
%TA.AperFunction,Conductor*%
%ADD19C,0.750000*%
%TD*%
G04 APERTURE END LIST*
D10*
%TO.P,J1,1,Pin_1*%
%TO.N,/+3v3*%
X81280000Y-49530000D03*
D11*
%TO.P,J1,2,Pin_2*%
X83820000Y-49530000D03*
%TD*%
D10*
%TO.P,J9,1,Pin_1*%
%TO.N,+5V*%
X74365279Y-31007484D03*
D11*
%TO.P,J9,2,Pin_2*%
%TO.N,/GPIO12*%
X76905279Y-31007484D03*
%TO.P,J9,3,Pin_3*%
%TO.N,/GPIO14*%
X79445279Y-31007484D03*
%TO.P,J9,4,Pin_4*%
%TO.N,GND*%
X81985279Y-31007484D03*
%TD*%
D12*
%TO.P,R5,1*%
%TO.N,/GPIO5*%
X69850000Y-40640000D03*
D13*
%TO.P,R5,2*%
%TO.N,+5V*%
X62230000Y-40640000D03*
%TD*%
D12*
%TO.P,R4,1*%
%TO.N,/GPIO4*%
X69850000Y-36830000D03*
D13*
%TO.P,R4,2*%
%TO.N,+5V*%
X62230000Y-36830000D03*
%TD*%
D10*
%TO.P,J8,1,Pin_1*%
%TO.N,+5V*%
X74365279Y-36087484D03*
D11*
%TO.P,J8,2,Pin_2*%
%TO.N,/GPIO4*%
X76905279Y-36087484D03*
%TO.P,J8,3,Pin_3*%
%TO.N,/GPIO5*%
X79445279Y-36087484D03*
%TO.P,J8,4,Pin_4*%
%TO.N,GND*%
X81985279Y-36087484D03*
%TD*%
D12*
%TO.P,R14,1*%
%TO.N,/GPIO14*%
X69850000Y-33020000D03*
D13*
%TO.P,R14,2*%
%TO.N,+5V*%
X62230000Y-33020000D03*
%TD*%
D12*
%TO.P,R12,1*%
%TO.N,/GPIO12*%
X69850000Y-29210000D03*
D13*
%TO.P,R12,2*%
%TO.N,+5V*%
X62230000Y-29210000D03*
%TD*%
D10*
%TO.P,J7,1,Pin_1*%
%TO.N,Net-(J7-Pin_1)*%
X79751775Y-55367942D03*
D11*
%TO.P,J7,2,Pin_2*%
%TO.N,/ADC0*%
X79751775Y-57907942D03*
%TD*%
D10*
%TO.P,J10,1,Pin_1*%
%TO.N,+5V*%
X74416951Y-40807414D03*
D11*
%TO.P,J10,2,Pin_2*%
%TO.N,/GPIO2*%
X76956951Y-40807414D03*
%TO.P,J10,3,Pin_3*%
%TO.N,/GPIO0*%
X79496951Y-40807414D03*
%TO.P,J10,4,Pin_4*%
%TO.N,GND*%
X82036951Y-40807414D03*
%TD*%
D14*
%TO.P,U2,1,~{RST}*%
%TO.N,unconnected-(U2-~{RST}-Pad1)*%
X83820000Y-88553187D03*
D15*
%TO.P,U2,2,A0*%
%TO.N,/ADC0*%
X83820000Y-86013187D03*
%TO.P,U2,3,D0*%
%TO.N,unconnected-(U2-D0-Pad3)*%
X83820000Y-83473187D03*
%TO.P,U2,4,SCK/D5*%
%TO.N,/GPIO14*%
X83820000Y-80933187D03*
%TO.P,U2,5,MISO/D6*%
%TO.N,/GPIO12*%
X83820000Y-78393187D03*
%TO.P,U2,6,MOSI/D7*%
%TO.N,/GPIO13*%
X83820000Y-75853187D03*
%TO.P,U2,7,CS/D8*%
%TO.N,/GPIO15*%
X83820000Y-73313187D03*
%TO.P,U2,8,3V3*%
%TO.N,/+3v3*%
X83820000Y-70773187D03*
%TO.P,U2,9,5V*%
%TO.N,+5V*%
X60960000Y-70773187D03*
%TO.P,U2,10,GND*%
%TO.N,GND*%
X60960000Y-73313187D03*
%TO.P,U2,11,D4*%
%TO.N,/GPIO2*%
X60960000Y-75853187D03*
%TO.P,U2,12,D3*%
%TO.N,/GPIO0*%
X60960000Y-78393187D03*
%TO.P,U2,13,SDA/D2*%
%TO.N,/GPIO4*%
X60960000Y-80933187D03*
%TO.P,U2,14,SCL/D1*%
%TO.N,/GPIO5*%
X60960000Y-83473187D03*
%TO.P,U2,15,RX*%
%TO.N,unconnected-(U2-RX-Pad15)*%
X60960000Y-86013187D03*
%TO.P,U2,16,TX*%
%TO.N,unconnected-(U2-TX-Pad16)*%
X60960000Y-88553187D03*
%TD*%
D12*
%TO.P,RA1,1*%
%TO.N,/+3v3*%
X83820000Y-60960000D03*
D13*
%TO.P,RA1,2*%
%TO.N,Net-(J7-Pin_1)*%
X83820000Y-53340000D03*
%TD*%
D16*
%TO.N,/GPIO2*%
X64770000Y-48260000D03*
%TO.N,/GPIO0*%
X67310000Y-48260000D03*
%TD*%
D17*
%TO.N,/+3v3*%
X81801775Y-50051775D02*
X81801775Y-58941775D01*
X81280000Y-49530000D02*
X81801775Y-50051775D01*
X81280000Y-49530000D02*
X83820000Y-49530000D01*
X81801775Y-58941775D02*
X83820000Y-60960000D01*
X83820000Y-70773187D02*
X83820000Y-60960000D01*
D18*
%TO.N,/ADC0*%
X81280000Y-86013187D02*
X83820000Y-86013187D01*
X79751775Y-57907942D02*
X79751775Y-84484962D01*
X79751775Y-84484962D02*
X81280000Y-86013187D01*
D19*
%TO.N,/GPIO2*%
X72390000Y-45720000D02*
X66040000Y-45720000D01*
X76956951Y-41153049D02*
X72390000Y-45720000D01*
X64770000Y-46990000D02*
X64770000Y-48260000D01*
X66040000Y-45720000D02*
X64770000Y-46990000D01*
X76956951Y-40807414D02*
X76956951Y-41153049D01*
%TO.N,/GPIO0*%
X79496951Y-40807414D02*
X79496951Y-42423049D01*
X79496951Y-42423049D02*
X73660000Y-48260000D01*
X73660000Y-48260000D02*
X67310000Y-48260000D01*
%TD*%
%TA.AperFunction,Conductor*%
%TO.N,GND*%
G36*
X81305459Y-25979937D02*
G01*
X81691660Y-25998835D01*
X81702486Y-25999843D01*
X82083264Y-26052238D01*
X82093943Y-26054188D01*
X82468669Y-26139795D01*
X82479134Y-26142676D01*
X82844880Y-26260824D01*
X82855069Y-26264617D01*
X83209029Y-26414395D01*
X83218859Y-26419073D01*
X83558308Y-26599329D01*
X83567693Y-26604854D01*
X83890019Y-26814199D01*
X83898882Y-26820526D01*
X84201590Y-27057339D01*
X84209865Y-27064420D01*
X84490630Y-27326882D01*
X84498251Y-27334661D01*
X84754900Y-27620740D01*
X84761810Y-27629158D01*
X84992377Y-27936664D01*
X84998521Y-27945656D01*
X85201214Y-28272200D01*
X85206545Y-28281696D01*
X85379801Y-28624757D01*
X85384279Y-28634684D01*
X85526769Y-28991630D01*
X85530359Y-29001912D01*
X85640984Y-29369995D01*
X85643657Y-29380552D01*
X85721556Y-29756903D01*
X85723293Y-29767653D01*
X85767872Y-30149399D01*
X85768659Y-30160262D01*
X85779601Y-30545532D01*
X85779651Y-30548848D01*
X85779658Y-30553112D01*
X85779643Y-30555239D01*
X85778703Y-30615779D01*
X85778960Y-30617992D01*
X85779783Y-30632056D01*
X85809532Y-49405804D01*
X85789954Y-49472874D01*
X85737222Y-49518713D01*
X85685532Y-49530000D01*
X85444419Y-49530000D01*
X85377380Y-49510315D01*
X85331625Y-49457511D01*
X85320801Y-49415729D01*
X85320499Y-49411900D01*
X85283553Y-49178631D01*
X85210566Y-48954003D01*
X85103342Y-48743566D01*
X85088097Y-48722583D01*
X84964517Y-48552490D01*
X84797510Y-48385483D01*
X84606433Y-48246657D01*
X84585914Y-48236202D01*
X84395996Y-48139433D01*
X84171368Y-48066446D01*
X83938097Y-48029500D01*
X83938092Y-48029500D01*
X81398092Y-48029500D01*
X81161908Y-48029500D01*
X81161903Y-48029500D01*
X80928630Y-48066447D01*
X80928627Y-48066447D01*
X80704009Y-48139431D01*
X80704008Y-48139431D01*
X80651893Y-48165985D01*
X80595600Y-48179500D01*
X80382130Y-48179500D01*
X80382123Y-48179501D01*
X80322516Y-48185908D01*
X80187671Y-48236202D01*
X80187664Y-48236206D01*
X80072455Y-48322452D01*
X80072452Y-48322455D01*
X79986206Y-48437664D01*
X79986202Y-48437671D01*
X79935908Y-48572517D01*
X79929501Y-48632116D01*
X79929500Y-48632135D01*
X79929500Y-48845599D01*
X79915985Y-48901893D01*
X79889430Y-48954009D01*
X79889430Y-48954011D01*
X79816447Y-49178627D01*
X79816447Y-49178630D01*
X79779500Y-49411900D01*
X79779199Y-49415729D01*
X79754315Y-49481018D01*
X79698084Y-49522488D01*
X79655581Y-49530000D01*
X78740000Y-49530000D01*
X78740000Y-53958005D01*
X78720315Y-54025044D01*
X78667511Y-54070799D01*
X78659480Y-54074125D01*
X78659440Y-54074147D01*
X78544230Y-54160394D01*
X78544227Y-54160397D01*
X78457981Y-54275606D01*
X78457977Y-54275613D01*
X78407683Y-54410459D01*
X78401276Y-54470058D01*
X78401275Y-54470077D01*
X78401275Y-56265812D01*
X78401276Y-56265818D01*
X78407683Y-56325425D01*
X78457977Y-56460270D01*
X78457981Y-56460277D01*
X78544227Y-56575486D01*
X78544229Y-56575488D01*
X78659444Y-56661738D01*
X78659446Y-56661738D01*
X78667227Y-56665988D01*
X78666599Y-56667137D01*
X78715262Y-56703560D01*
X78739683Y-56769023D01*
X78740000Y-56777878D01*
X78740000Y-56959564D01*
X78720315Y-57026603D01*
X78716305Y-57032050D01*
X78716385Y-57032106D01*
X78577740Y-57230111D01*
X78577739Y-57230113D01*
X78477873Y-57444277D01*
X78477869Y-57444286D01*
X78416713Y-57672528D01*
X78416711Y-57672538D01*
X78396116Y-57907941D01*
X78396116Y-57907942D01*
X78416711Y-58143345D01*
X78416713Y-58143355D01*
X78477869Y-58371597D01*
X78477871Y-58371601D01*
X78477872Y-58371605D01*
X78577740Y-58585772D01*
X78577742Y-58585776D01*
X78716385Y-58783778D01*
X78714653Y-58784990D01*
X78739001Y-58840614D01*
X78740000Y-58856319D01*
X78740000Y-79886000D01*
X78720315Y-79953039D01*
X78667511Y-79998794D01*
X78616000Y-80010000D01*
X62127360Y-80010000D01*
X62060321Y-79990315D01*
X62039679Y-79973681D01*
X62007213Y-79941215D01*
X61841614Y-79820902D01*
X61835006Y-79817535D01*
X61748917Y-79773670D01*
X61698123Y-79725698D01*
X61681328Y-79657877D01*
X61703865Y-79591742D01*
X61748917Y-79552703D01*
X61841610Y-79505474D01*
X61862770Y-79490100D01*
X62007213Y-79385158D01*
X62007215Y-79385155D01*
X62007219Y-79385153D01*
X62151966Y-79240406D01*
X62151968Y-79240402D01*
X62151971Y-79240400D01*
X62204732Y-79167777D01*
X62272287Y-79074797D01*
X62365220Y-78892406D01*
X62428477Y-78697721D01*
X62460500Y-78495539D01*
X62460500Y-78290835D01*
X62428477Y-78088653D01*
X62365220Y-77893968D01*
X62365218Y-77893965D01*
X62365218Y-77893963D01*
X62331503Y-77827794D01*
X62272287Y-77711577D01*
X62264556Y-77700936D01*
X62151971Y-77545973D01*
X62007213Y-77401215D01*
X61841614Y-77280902D01*
X61835006Y-77277535D01*
X61748917Y-77233670D01*
X61698123Y-77185698D01*
X61681328Y-77117877D01*
X61703865Y-77051742D01*
X61748917Y-77012703D01*
X61841610Y-76965474D01*
X61862770Y-76950100D01*
X62007213Y-76845158D01*
X62007215Y-76845155D01*
X62007219Y-76845153D01*
X62151966Y-76700406D01*
X62151968Y-76700402D01*
X62151971Y-76700400D01*
X62204732Y-76627777D01*
X62272287Y-76534797D01*
X62365220Y-76352406D01*
X62428477Y-76157721D01*
X62460500Y-75955539D01*
X62460500Y-75750835D01*
X62428477Y-75548653D01*
X62365220Y-75353968D01*
X62365218Y-75353965D01*
X62365218Y-75353963D01*
X62331503Y-75287794D01*
X62272287Y-75171577D01*
X62264556Y-75160936D01*
X62151971Y-75005973D01*
X62007213Y-74861215D01*
X61841613Y-74740902D01*
X61841612Y-74740901D01*
X61841610Y-74740900D01*
X61784653Y-74711878D01*
X61659223Y-74647968D01*
X61464534Y-74584709D01*
X61289995Y-74557065D01*
X61262352Y-74552687D01*
X60657648Y-74552687D01*
X60633329Y-74556538D01*
X60455465Y-74584709D01*
X60260776Y-74647968D01*
X60078386Y-74740902D01*
X59912786Y-74861215D01*
X59912782Y-74861219D01*
X59901681Y-74872321D01*
X59840358Y-74905806D01*
X59770666Y-74900822D01*
X59714733Y-74858950D01*
X59690316Y-74793486D01*
X59690000Y-74784640D01*
X59690000Y-72514000D01*
X59709685Y-72446961D01*
X59762489Y-72401206D01*
X59814000Y-72390000D01*
X76200000Y-72390000D01*
X76200000Y-47009506D01*
X76219685Y-46942467D01*
X76236319Y-46921825D01*
X80176993Y-42981151D01*
X80176996Y-42981148D01*
X80272809Y-42837754D01*
X80338806Y-42678423D01*
X80372451Y-42509278D01*
X80372451Y-42336820D01*
X80372451Y-41893172D01*
X80392136Y-41826133D01*
X80408770Y-41805491D01*
X80449364Y-41764897D01*
X80535446Y-41678815D01*
X80670986Y-41485244D01*
X80770854Y-41271077D01*
X80832014Y-41042822D01*
X80852610Y-40807414D01*
X80832014Y-40572006D01*
X80770854Y-40343751D01*
X80670986Y-40129585D01*
X80665376Y-40121572D01*
X80535445Y-39936011D01*
X80368353Y-39768920D01*
X80368346Y-39768915D01*
X80174785Y-39633381D01*
X80174781Y-39633379D01*
X80174779Y-39633378D01*
X79960614Y-39533511D01*
X79960610Y-39533510D01*
X79960606Y-39533508D01*
X79732364Y-39472352D01*
X79732354Y-39472350D01*
X79496952Y-39451755D01*
X79496950Y-39451755D01*
X79261547Y-39472350D01*
X79261537Y-39472352D01*
X79033295Y-39533508D01*
X79033286Y-39533512D01*
X78819122Y-39633378D01*
X78819120Y-39633379D01*
X78625548Y-39768919D01*
X78458456Y-39936011D01*
X78328526Y-40121572D01*
X78273949Y-40165197D01*
X78204451Y-40172391D01*
X78142096Y-40140868D01*
X78125376Y-40121572D01*
X77995445Y-39936011D01*
X77828353Y-39768920D01*
X77828346Y-39768915D01*
X77634785Y-39633381D01*
X77634781Y-39633379D01*
X77634779Y-39633378D01*
X77420614Y-39533511D01*
X77420610Y-39533510D01*
X77420606Y-39533508D01*
X77192364Y-39472352D01*
X77192354Y-39472350D01*
X76956952Y-39451755D01*
X76956950Y-39451755D01*
X76721547Y-39472350D01*
X76721537Y-39472352D01*
X76493295Y-39533508D01*
X76493286Y-39533512D01*
X76376405Y-39588015D01*
X76307328Y-39598507D01*
X76243544Y-39569987D01*
X76205304Y-39511511D01*
X76200000Y-39475633D01*
X76200000Y-37443360D01*
X76219685Y-37376321D01*
X76272489Y-37330566D01*
X76341647Y-37320622D01*
X76376401Y-37330977D01*
X76441616Y-37361387D01*
X76669871Y-37422547D01*
X76846313Y-37437984D01*
X76905278Y-37443143D01*
X76905279Y-37443143D01*
X76905280Y-37443143D01*
X76964245Y-37437984D01*
X77140687Y-37422547D01*
X77368942Y-37361387D01*
X77583109Y-37261519D01*
X77776680Y-37125979D01*
X77943774Y-36958885D01*
X78073704Y-36773326D01*
X78128281Y-36729701D01*
X78197779Y-36722507D01*
X78260134Y-36754030D01*
X78276854Y-36773326D01*
X78406779Y-36958879D01*
X78406784Y-36958885D01*
X78573878Y-37125979D01*
X78650764Y-37179815D01*
X78767444Y-37261516D01*
X78767446Y-37261517D01*
X78767449Y-37261519D01*
X78981616Y-37361387D01*
X79209871Y-37422547D01*
X79386313Y-37437984D01*
X79445278Y-37443143D01*
X79445279Y-37443143D01*
X79445280Y-37443143D01*
X79504245Y-37437984D01*
X79680687Y-37422547D01*
X79908942Y-37361387D01*
X80123109Y-37261519D01*
X80316680Y-37125979D01*
X80483774Y-36958885D01*
X80619314Y-36765314D01*
X80719182Y-36551147D01*
X80780342Y-36322892D01*
X80800938Y-36087484D01*
X80780342Y-35852076D01*
X80719182Y-35623821D01*
X80619314Y-35409655D01*
X80613704Y-35401642D01*
X80483773Y-35216081D01*
X80316681Y-35048990D01*
X80316674Y-35048985D01*
X80123113Y-34913451D01*
X80123109Y-34913449D01*
X80123107Y-34913448D01*
X79908942Y-34813581D01*
X79908938Y-34813580D01*
X79908934Y-34813578D01*
X79680692Y-34752422D01*
X79680682Y-34752420D01*
X79445280Y-34731825D01*
X79445278Y-34731825D01*
X79209875Y-34752420D01*
X79209865Y-34752422D01*
X78981623Y-34813578D01*
X78981614Y-34813582D01*
X78767450Y-34913448D01*
X78767448Y-34913449D01*
X78573876Y-35048989D01*
X78406784Y-35216081D01*
X78276854Y-35401642D01*
X78222277Y-35445267D01*
X78152779Y-35452461D01*
X78090424Y-35420938D01*
X78073704Y-35401642D01*
X77943773Y-35216081D01*
X77776681Y-35048990D01*
X77776674Y-35048985D01*
X77583113Y-34913451D01*
X77583109Y-34913449D01*
X77583107Y-34913448D01*
X77368942Y-34813581D01*
X77368938Y-34813580D01*
X77368934Y-34813578D01*
X77140692Y-34752422D01*
X77140682Y-34752420D01*
X76905280Y-34731825D01*
X76905278Y-34731825D01*
X76669875Y-34752420D01*
X76669865Y-34752422D01*
X76441623Y-34813578D01*
X76441618Y-34813580D01*
X76376404Y-34843990D01*
X76307326Y-34854481D01*
X76243543Y-34825961D01*
X76205304Y-34767484D01*
X76200000Y-34731607D01*
X76200000Y-32363360D01*
X76219685Y-32296321D01*
X76272489Y-32250566D01*
X76341647Y-32240622D01*
X76376401Y-32250977D01*
X76441616Y-32281387D01*
X76669871Y-32342547D01*
X76846313Y-32357984D01*
X76905278Y-32363143D01*
X76905279Y-32363143D01*
X76905280Y-32363143D01*
X76964245Y-32357984D01*
X77140687Y-32342547D01*
X77368942Y-32281387D01*
X77583109Y-32181519D01*
X77776680Y-32045979D01*
X77943774Y-31878885D01*
X78073704Y-31693326D01*
X78128281Y-31649701D01*
X78197779Y-31642507D01*
X78260134Y-31674030D01*
X78276854Y-31693326D01*
X78406779Y-31878879D01*
X78406784Y-31878885D01*
X78573878Y-32045979D01*
X78650764Y-32099815D01*
X78767444Y-32181516D01*
X78767446Y-32181517D01*
X78767449Y-32181519D01*
X78981616Y-32281387D01*
X79209871Y-32342547D01*
X79386313Y-32357984D01*
X79445278Y-32363143D01*
X79445279Y-32363143D01*
X79445280Y-32363143D01*
X79504245Y-32357984D01*
X79680687Y-32342547D01*
X79908942Y-32281387D01*
X80123109Y-32181519D01*
X80316680Y-32045979D01*
X80483774Y-31878885D01*
X80619314Y-31685314D01*
X80719182Y-31471147D01*
X80780342Y-31242892D01*
X80800938Y-31007484D01*
X80780342Y-30772076D01*
X80723327Y-30559289D01*
X80719184Y-30543828D01*
X80719183Y-30543827D01*
X80719182Y-30543821D01*
X80619314Y-30329655D01*
X80613704Y-30321642D01*
X80483773Y-30136081D01*
X80316681Y-29968990D01*
X80316674Y-29968985D01*
X80123113Y-29833451D01*
X80123109Y-29833449D01*
X80123107Y-29833448D01*
X79908942Y-29733581D01*
X79908938Y-29733580D01*
X79908934Y-29733578D01*
X79680692Y-29672422D01*
X79680682Y-29672420D01*
X79445280Y-29651825D01*
X79445278Y-29651825D01*
X79209875Y-29672420D01*
X79209865Y-29672422D01*
X78981623Y-29733578D01*
X78981614Y-29733582D01*
X78767450Y-29833448D01*
X78767448Y-29833449D01*
X78573876Y-29968989D01*
X78406784Y-30136081D01*
X78276854Y-30321642D01*
X78222277Y-30365267D01*
X78152779Y-30372461D01*
X78090424Y-30340938D01*
X78073704Y-30321642D01*
X77943773Y-30136081D01*
X77776681Y-29968990D01*
X77776674Y-29968985D01*
X77583113Y-29833451D01*
X77583109Y-29833449D01*
X77583107Y-29833448D01*
X77368942Y-29733581D01*
X77368938Y-29733580D01*
X77368934Y-29733578D01*
X77140692Y-29672422D01*
X77140682Y-29672420D01*
X76905280Y-29651825D01*
X76905278Y-29651825D01*
X76669875Y-29672420D01*
X76669865Y-29672422D01*
X76441623Y-29733578D01*
X76441618Y-29733580D01*
X76376404Y-29763990D01*
X76307326Y-29774481D01*
X76243543Y-29745961D01*
X76205304Y-29687484D01*
X76200000Y-29651607D01*
X76200000Y-26103790D01*
X76219685Y-26036751D01*
X76272489Y-25990996D01*
X76324000Y-25979790D01*
X81299400Y-25979790D01*
X81305459Y-25979937D01*
G37*
%TD.AperFunction*%
%TD*%
%TA.AperFunction,Conductor*%
%TO.N,+5V*%
G36*
X74873039Y-25999475D02*
G01*
X74918794Y-26052279D01*
X74930000Y-26103790D01*
X74930000Y-41890494D01*
X74910315Y-41957533D01*
X74893681Y-41978175D01*
X72063675Y-44808181D01*
X72002352Y-44841666D01*
X71975994Y-44844500D01*
X65953768Y-44844500D01*
X65784633Y-44878143D01*
X65784621Y-44878146D01*
X65625301Y-44944138D01*
X65625288Y-44944145D01*
X65481901Y-45039954D01*
X65481897Y-45039957D01*
X64211901Y-46309955D01*
X64150927Y-46370929D01*
X64089953Y-46431902D01*
X63994145Y-46575288D01*
X63994138Y-46575301D01*
X63928146Y-46734621D01*
X63928143Y-46734633D01*
X63894500Y-46903766D01*
X63894500Y-48207620D01*
X63893821Y-48220580D01*
X63889678Y-48259999D01*
X63893821Y-48299418D01*
X63894500Y-48312379D01*
X63894500Y-48346229D01*
X63902383Y-48385863D01*
X63904085Y-48397087D01*
X63908914Y-48443027D01*
X63919135Y-48474485D01*
X63922820Y-48488607D01*
X63928143Y-48515368D01*
X63928144Y-48515370D01*
X63928145Y-48515374D01*
X63946116Y-48558760D01*
X63949484Y-48567890D01*
X63965786Y-48618060D01*
X63965787Y-48618061D01*
X63979035Y-48641008D01*
X63986206Y-48655548D01*
X63994142Y-48674705D01*
X63994143Y-48674708D01*
X64023878Y-48719209D01*
X64028163Y-48726099D01*
X64057803Y-48777438D01*
X64057808Y-48777445D01*
X64071140Y-48792251D01*
X64082091Y-48806330D01*
X64089956Y-48818100D01*
X64089958Y-48818103D01*
X64132426Y-48860570D01*
X64136897Y-48865281D01*
X64180947Y-48914205D01*
X64191752Y-48922055D01*
X64206547Y-48934691D01*
X64211901Y-48940045D01*
X64267310Y-48977067D01*
X64271285Y-48979839D01*
X64329836Y-49022379D01*
X64329839Y-49022381D01*
X64336013Y-49025130D01*
X64354465Y-49035303D01*
X64355295Y-49035858D01*
X64355297Y-49035859D01*
X64355299Y-49035860D01*
X64398473Y-49053743D01*
X64422903Y-49063862D01*
X64425809Y-49065109D01*
X64497966Y-49097236D01*
X64498130Y-49097270D01*
X64508657Y-49100543D01*
X64508796Y-49100086D01*
X64514615Y-49101850D01*
X64514626Y-49101855D01*
X64546701Y-49108234D01*
X64592832Y-49117411D01*
X64594363Y-49117725D01*
X64677981Y-49135500D01*
X64677982Y-49135500D01*
X64862017Y-49135500D01*
X64862019Y-49135500D01*
X64945656Y-49117721D01*
X64947164Y-49117411D01*
X65025374Y-49101855D01*
X65025379Y-49101853D01*
X65031203Y-49100087D01*
X65031342Y-49100547D01*
X65041875Y-49097269D01*
X65042034Y-49097236D01*
X65114137Y-49065133D01*
X65117085Y-49063866D01*
X65184705Y-49035858D01*
X65185514Y-49035317D01*
X65203981Y-49025131D01*
X65210161Y-49022381D01*
X65268741Y-48979818D01*
X65272683Y-48977071D01*
X65328099Y-48940045D01*
X65333448Y-48934694D01*
X65348246Y-48922055D01*
X65359050Y-48914207D01*
X65403122Y-48865257D01*
X65407554Y-48860588D01*
X65450045Y-48818099D01*
X65457911Y-48806325D01*
X65468852Y-48792257D01*
X65482195Y-48777440D01*
X65511859Y-48726058D01*
X65516106Y-48719229D01*
X65545858Y-48674705D01*
X65553793Y-48655548D01*
X65560958Y-48641016D01*
X65574214Y-48618059D01*
X65590516Y-48567885D01*
X65593879Y-48558771D01*
X65597328Y-48550443D01*
X65611855Y-48515374D01*
X65617180Y-48488599D01*
X65620863Y-48474485D01*
X65631085Y-48443029D01*
X65635913Y-48397080D01*
X65637617Y-48385855D01*
X65645500Y-48346232D01*
X65645500Y-48312379D01*
X65646179Y-48299418D01*
X65646262Y-48298624D01*
X65650322Y-48260000D01*
X65646179Y-48220580D01*
X65645500Y-48207620D01*
X65645500Y-47404006D01*
X65665185Y-47336967D01*
X65681819Y-47316325D01*
X66366325Y-46631819D01*
X66427648Y-46598334D01*
X66454006Y-46595500D01*
X72476231Y-46595500D01*
X72476232Y-46595499D01*
X72645374Y-46561855D01*
X72804705Y-46495858D01*
X72948099Y-46400045D01*
X74718319Y-44629825D01*
X74779642Y-44596340D01*
X74849334Y-44601324D01*
X74905267Y-44643196D01*
X74929684Y-44708660D01*
X74930000Y-44717506D01*
X74930000Y-45700494D01*
X74910315Y-45767533D01*
X74893681Y-45788175D01*
X73333675Y-47348181D01*
X73272352Y-47381666D01*
X73245994Y-47384500D01*
X67402019Y-47384500D01*
X67217981Y-47384500D01*
X67134394Y-47402267D01*
X67132806Y-47402593D01*
X67054624Y-47418144D01*
X67048801Y-47419911D01*
X67048665Y-47419462D01*
X67038157Y-47422723D01*
X67038017Y-47422753D01*
X67037965Y-47422764D01*
X66965867Y-47454863D01*
X66962889Y-47456142D01*
X66895298Y-47484140D01*
X66895289Y-47484145D01*
X66894462Y-47484698D01*
X66876029Y-47494862D01*
X66869848Y-47497614D01*
X66869840Y-47497618D01*
X66811271Y-47540169D01*
X66807282Y-47542948D01*
X66751908Y-47579949D01*
X66751892Y-47579962D01*
X66746538Y-47585316D01*
X66731755Y-47597941D01*
X66720954Y-47605788D01*
X66676896Y-47654719D01*
X66672429Y-47659425D01*
X66629961Y-47701893D01*
X66629953Y-47701903D01*
X66622088Y-47713673D01*
X66611144Y-47727744D01*
X66597805Y-47742558D01*
X66568168Y-47793892D01*
X66563885Y-47800779D01*
X66534142Y-47845293D01*
X66526208Y-47864447D01*
X66519038Y-47878985D01*
X66505787Y-47901936D01*
X66489489Y-47952095D01*
X66486121Y-47961225D01*
X66468145Y-48004624D01*
X66462819Y-48031397D01*
X66459134Y-48045516D01*
X66448915Y-48076969D01*
X66448914Y-48076972D01*
X66444085Y-48122912D01*
X66442383Y-48134135D01*
X66434500Y-48173770D01*
X66434500Y-48207620D01*
X66433821Y-48220580D01*
X66429678Y-48259999D01*
X66433821Y-48299418D01*
X66434500Y-48312379D01*
X66434500Y-48346229D01*
X66442383Y-48385863D01*
X66444085Y-48397087D01*
X66448914Y-48443027D01*
X66459135Y-48474485D01*
X66462820Y-48488607D01*
X66468143Y-48515368D01*
X66468144Y-48515370D01*
X66468145Y-48515374D01*
X66486116Y-48558760D01*
X66489484Y-48567890D01*
X66505786Y-48618060D01*
X66505787Y-48618061D01*
X66519035Y-48641008D01*
X66526206Y-48655548D01*
X66534142Y-48674705D01*
X66534143Y-48674708D01*
X66563878Y-48719209D01*
X66568163Y-48726099D01*
X66597803Y-48777438D01*
X66597808Y-48777445D01*
X66611140Y-48792251D01*
X66622091Y-48806330D01*
X66629956Y-48818100D01*
X66629958Y-48818103D01*
X66672426Y-48860570D01*
X66676897Y-48865281D01*
X66720947Y-48914205D01*
X66731752Y-48922055D01*
X66746547Y-48934691D01*
X66751901Y-48940045D01*
X66807310Y-48977067D01*
X66811285Y-48979839D01*
X66869836Y-49022379D01*
X66869839Y-49022381D01*
X66876013Y-49025130D01*
X66894465Y-49035303D01*
X66895295Y-49035858D01*
X66895297Y-49035859D01*
X66895299Y-49035860D01*
X66938473Y-49053743D01*
X66962903Y-49063862D01*
X66965809Y-49065109D01*
X67037966Y-49097236D01*
X67038130Y-49097270D01*
X67048657Y-49100543D01*
X67048796Y-49100086D01*
X67054615Y-49101850D01*
X67054626Y-49101855D01*
X67086701Y-49108234D01*
X67132832Y-49117411D01*
X67134363Y-49117725D01*
X67217981Y-49135500D01*
X67217982Y-49135500D01*
X73746231Y-49135500D01*
X73746232Y-49135499D01*
X73915374Y-49101855D01*
X74074705Y-49035858D01*
X74218099Y-48940045D01*
X74718319Y-48439825D01*
X74779642Y-48406340D01*
X74849333Y-48411324D01*
X74905267Y-48453195D01*
X74929684Y-48518660D01*
X74930000Y-48527506D01*
X74930000Y-70996000D01*
X74910315Y-71063039D01*
X74857511Y-71108794D01*
X74806000Y-71120000D01*
X59069317Y-71120000D01*
X59002278Y-71100315D01*
X58956523Y-71047511D01*
X58945317Y-70996000D01*
X58945317Y-40639998D01*
X68544532Y-40639998D01*
X68544532Y-40640001D01*
X68564364Y-40866686D01*
X68564366Y-40866697D01*
X68623258Y-41086488D01*
X68623261Y-41086497D01*
X68719431Y-41292732D01*
X68719432Y-41292734D01*
X68849954Y-41479141D01*
X69010858Y-41640045D01*
X69010861Y-41640047D01*
X69197266Y-41770568D01*
X69403504Y-41866739D01*
X69623308Y-41925635D01*
X69785230Y-41939801D01*
X69849998Y-41945468D01*
X69850000Y-41945468D01*
X69850002Y-41945468D01*
X69906673Y-41940509D01*
X70076692Y-41925635D01*
X70296496Y-41866739D01*
X70502734Y-41770568D01*
X70689139Y-41640047D01*
X70850047Y-41479139D01*
X70980568Y-41292734D01*
X71076739Y-41086496D01*
X71135635Y-40866692D01*
X71155468Y-40640000D01*
X71135635Y-40413308D01*
X71076739Y-40193504D01*
X70980568Y-39987266D01*
X70850047Y-39800861D01*
X70850045Y-39800858D01*
X70689141Y-39639954D01*
X70502734Y-39509432D01*
X70502732Y-39509431D01*
X70296497Y-39413261D01*
X70296488Y-39413258D01*
X70076697Y-39354366D01*
X70076693Y-39354365D01*
X70076692Y-39354365D01*
X70076691Y-39354364D01*
X70076686Y-39354364D01*
X69850002Y-39334532D01*
X69849998Y-39334532D01*
X69623313Y-39354364D01*
X69623302Y-39354366D01*
X69403511Y-39413258D01*
X69403502Y-39413261D01*
X69197267Y-39509431D01*
X69197265Y-39509432D01*
X69010858Y-39639954D01*
X68849954Y-39800858D01*
X68719432Y-39987265D01*
X68719431Y-39987267D01*
X68623261Y-40193502D01*
X68623258Y-40193511D01*
X68564366Y-40413302D01*
X68564364Y-40413313D01*
X68544532Y-40639998D01*
X58945317Y-40639998D01*
X58945317Y-36829998D01*
X68544532Y-36829998D01*
X68544532Y-36830001D01*
X68564364Y-37056686D01*
X68564366Y-37056697D01*
X68623258Y-37276488D01*
X68623261Y-37276497D01*
X68719431Y-37482732D01*
X68719432Y-37482734D01*
X68849954Y-37669141D01*
X69010858Y-37830045D01*
X69010861Y-37830047D01*
X69197266Y-37960568D01*
X69403504Y-38056739D01*
X69623308Y-38115635D01*
X69785230Y-38129801D01*
X69849998Y-38135468D01*
X69850000Y-38135468D01*
X69850002Y-38135468D01*
X69906673Y-38130509D01*
X70076692Y-38115635D01*
X70296496Y-38056739D01*
X70502734Y-37960568D01*
X70689139Y-37830047D01*
X70850047Y-37669139D01*
X70980568Y-37482734D01*
X71076739Y-37276496D01*
X71135635Y-37056692D01*
X71155468Y-36830000D01*
X71135635Y-36603308D01*
X71076739Y-36383504D01*
X70980568Y-36177266D01*
X70850047Y-35990861D01*
X70850045Y-35990858D01*
X70689141Y-35829954D01*
X70502734Y-35699432D01*
X70502732Y-35699431D01*
X70296497Y-35603261D01*
X70296488Y-35603258D01*
X70076697Y-35544366D01*
X70076693Y-35544365D01*
X70076692Y-35544365D01*
X70076691Y-35544364D01*
X70076686Y-35544364D01*
X69850002Y-35524532D01*
X69849998Y-35524532D01*
X69623313Y-35544364D01*
X69623302Y-35544366D01*
X69403511Y-35603258D01*
X69403502Y-35603261D01*
X69197267Y-35699431D01*
X69197265Y-35699432D01*
X69010858Y-35829954D01*
X68849954Y-35990858D01*
X68719432Y-36177265D01*
X68719431Y-36177267D01*
X68623261Y-36383502D01*
X68623258Y-36383511D01*
X68564366Y-36603302D01*
X68564364Y-36603313D01*
X68544532Y-36829998D01*
X58945317Y-36829998D01*
X58945317Y-33019998D01*
X68544532Y-33019998D01*
X68544532Y-33020001D01*
X68564364Y-33246686D01*
X68564366Y-33246697D01*
X68623258Y-33466488D01*
X68623261Y-33466497D01*
X68719431Y-33672732D01*
X68719432Y-33672734D01*
X68849954Y-33859141D01*
X69010858Y-34020045D01*
X69010861Y-34020047D01*
X69197266Y-34150568D01*
X69403504Y-34246739D01*
X69623308Y-34305635D01*
X69785230Y-34319801D01*
X69849998Y-34325468D01*
X69850000Y-34325468D01*
X69850002Y-34325468D01*
X69906673Y-34320509D01*
X70076692Y-34305635D01*
X70296496Y-34246739D01*
X70502734Y-34150568D01*
X70689139Y-34020047D01*
X70850047Y-33859139D01*
X70980568Y-33672734D01*
X71076739Y-33466496D01*
X71135635Y-33246692D01*
X71155468Y-33020000D01*
X71135635Y-32793308D01*
X71076739Y-32573504D01*
X70980568Y-32367266D01*
X70850047Y-32180861D01*
X70850045Y-32180858D01*
X70689141Y-32019954D01*
X70502734Y-31889432D01*
X70502732Y-31889431D01*
X70296497Y-31793261D01*
X70296488Y-31793258D01*
X70076697Y-31734366D01*
X70076693Y-31734365D01*
X70076692Y-31734365D01*
X70076691Y-31734364D01*
X70076686Y-31734364D01*
X69850002Y-31714532D01*
X69849998Y-31714532D01*
X69623313Y-31734364D01*
X69623302Y-31734366D01*
X69403511Y-31793258D01*
X69403502Y-31793261D01*
X69197267Y-31889431D01*
X69197265Y-31889432D01*
X69010858Y-32019954D01*
X68849954Y-32180858D01*
X68719432Y-32367265D01*
X68719431Y-32367267D01*
X68623261Y-32573502D01*
X68623258Y-32573511D01*
X68564366Y-32793302D01*
X68564364Y-32793313D01*
X68544532Y-33019998D01*
X58945317Y-33019998D01*
X58945317Y-30561995D01*
X58945435Y-30556586D01*
X58948194Y-30493398D01*
X58962508Y-30165546D01*
X58963447Y-30154816D01*
X59014185Y-29769431D01*
X59016058Y-29758804D01*
X59100194Y-29379299D01*
X59102985Y-29368884D01*
X59153082Y-29209998D01*
X68544532Y-29209998D01*
X68544532Y-29210001D01*
X68564364Y-29436686D01*
X68564366Y-29436697D01*
X68623258Y-29656488D01*
X68623261Y-29656497D01*
X68719431Y-29862732D01*
X68719432Y-29862734D01*
X68849954Y-30049141D01*
X69010858Y-30210045D01*
X69010861Y-30210047D01*
X69197266Y-30340568D01*
X69403504Y-30436739D01*
X69623308Y-30495635D01*
X69785230Y-30509801D01*
X69849998Y-30515468D01*
X69850000Y-30515468D01*
X69850002Y-30515468D01*
X69906673Y-30510509D01*
X70076692Y-30495635D01*
X70296496Y-30436739D01*
X70502734Y-30340568D01*
X70689139Y-30210047D01*
X70850047Y-30049139D01*
X70980568Y-29862734D01*
X71076739Y-29656496D01*
X71135635Y-29436692D01*
X71155468Y-29210000D01*
X71135635Y-28983308D01*
X71076739Y-28763504D01*
X70980568Y-28557266D01*
X70850047Y-28370861D01*
X70850045Y-28370858D01*
X70689141Y-28209954D01*
X70502734Y-28079432D01*
X70502732Y-28079431D01*
X70296497Y-27983261D01*
X70296488Y-27983258D01*
X70076697Y-27924366D01*
X70076693Y-27924365D01*
X70076692Y-27924365D01*
X70076691Y-27924364D01*
X70076686Y-27924364D01*
X69850002Y-27904532D01*
X69849998Y-27904532D01*
X69623313Y-27924364D01*
X69623302Y-27924366D01*
X69403511Y-27983258D01*
X69403502Y-27983261D01*
X69197267Y-28079431D01*
X69197265Y-28079432D01*
X69010858Y-28209954D01*
X68849954Y-28370858D01*
X68719432Y-28557265D01*
X68719431Y-28557267D01*
X68623261Y-28763502D01*
X68623258Y-28763511D01*
X68564366Y-28983302D01*
X68564364Y-28983313D01*
X68544532Y-29209998D01*
X59153082Y-29209998D01*
X59219876Y-28998153D01*
X59223560Y-28988032D01*
X59372315Y-28628909D01*
X59376884Y-28619112D01*
X59409079Y-28557267D01*
X59556365Y-28274334D01*
X59561759Y-28264993D01*
X59770606Y-27937171D01*
X59776793Y-27928332D01*
X60013444Y-27619924D01*
X60020369Y-27611673D01*
X60282977Y-27325088D01*
X60290592Y-27317472D01*
X60577191Y-27054854D01*
X60585474Y-27047905D01*
X60893838Y-26811290D01*
X60902677Y-26805100D01*
X61230520Y-26596243D01*
X61239865Y-26590848D01*
X61584650Y-26411365D01*
X61594428Y-26406806D01*
X61953555Y-26258052D01*
X61963676Y-26254368D01*
X62334407Y-26137478D01*
X62344821Y-26134687D01*
X62724335Y-26050553D01*
X62734946Y-26048682D01*
X63120338Y-25997946D01*
X63131072Y-25997006D01*
X63403989Y-25985091D01*
X63522740Y-25979908D01*
X63528147Y-25979790D01*
X74806002Y-25979790D01*
X74873039Y-25999475D01*
G37*
%TD.AperFunction*%
%TD*%
M02*
