%TF.GenerationSoftware,KiCad,Pcbnew,8.0.5*%
%TF.CreationDate,2024-12-15T10:39:54+01:00*%
%TF.ProjectId,esp8266-expansion-board,65737038-3236-4362-9d65-7870616e7369,rev?*%
%TF.SameCoordinates,Original*%
%TF.FileFunction,Legend,Top*%
%TF.FilePolarity,Positive*%
%FSLAX46Y46*%
G04 Gerber Fmt 4.6, Leading zero omitted, Abs format (unit mm)*
G04 Created by KiCad (PCBNEW 8.0.5) date 2024-12-15 10:39:54*
%MOMM*%
%LPD*%
G01*
G04 APERTURE LIST*
%ADD10C,0.100000*%
%ADD11C,0.150000*%
%ADD12C,0.120000*%
G04 APERTURE END LIST*
D10*
X77284582Y-39791690D02*
X76915815Y-40283653D01*
X77716519Y-35142276D02*
X77352569Y-35724595D01*
X77366933Y-29385868D02*
X77366933Y-30023390D01*
X72706425Y-29385868D02*
X77366933Y-29385868D01*
X78723101Y-39736362D02*
X79036624Y-40105213D01*
X73680319Y-34446411D02*
X77715791Y-34420207D01*
X77284582Y-39053988D02*
X77284582Y-39791690D01*
X73540743Y-39053988D02*
X77284582Y-39053988D01*
X82747028Y-34341594D02*
X78921191Y-34341594D01*
X82780463Y-38980218D02*
X78704658Y-38980218D01*
X78921191Y-35232542D02*
X79183235Y-35756629D01*
X78921191Y-34341594D02*
X78921191Y-35232542D01*
X77366933Y-30023390D02*
X77059163Y-30594962D01*
X77715791Y-34420207D02*
X77716519Y-35142276D01*
X78883796Y-30133308D02*
X79279499Y-30660913D01*
X83676204Y-29210000D02*
X78883796Y-29210000D01*
X78883796Y-29210000D02*
X78883796Y-30133308D01*
X78704658Y-38980218D02*
X78723101Y-39736362D01*
D11*
X74121879Y-33060017D02*
X74026641Y-33012398D01*
X74026641Y-33012398D02*
X73883784Y-33012398D01*
X73883784Y-33012398D02*
X73740927Y-33060017D01*
X73740927Y-33060017D02*
X73645689Y-33155255D01*
X73645689Y-33155255D02*
X73598070Y-33250493D01*
X73598070Y-33250493D02*
X73550451Y-33440969D01*
X73550451Y-33440969D02*
X73550451Y-33583826D01*
X73550451Y-33583826D02*
X73598070Y-33774302D01*
X73598070Y-33774302D02*
X73645689Y-33869540D01*
X73645689Y-33869540D02*
X73740927Y-33964779D01*
X73740927Y-33964779D02*
X73883784Y-34012398D01*
X73883784Y-34012398D02*
X73979022Y-34012398D01*
X73979022Y-34012398D02*
X74121879Y-33964779D01*
X74121879Y-33964779D02*
X74169498Y-33917159D01*
X74169498Y-33917159D02*
X74169498Y-33583826D01*
X74169498Y-33583826D02*
X73979022Y-33583826D01*
X74598070Y-34012398D02*
X74598070Y-33012398D01*
X74598070Y-33012398D02*
X74979022Y-33012398D01*
X74979022Y-33012398D02*
X75074260Y-33060017D01*
X75074260Y-33060017D02*
X75121879Y-33107636D01*
X75121879Y-33107636D02*
X75169498Y-33202874D01*
X75169498Y-33202874D02*
X75169498Y-33345731D01*
X75169498Y-33345731D02*
X75121879Y-33440969D01*
X75121879Y-33440969D02*
X75074260Y-33488588D01*
X75074260Y-33488588D02*
X74979022Y-33536207D01*
X74979022Y-33536207D02*
X74598070Y-33536207D01*
X75598070Y-34012398D02*
X75598070Y-33012398D01*
X76264736Y-33012398D02*
X76455212Y-33012398D01*
X76455212Y-33012398D02*
X76550450Y-33060017D01*
X76550450Y-33060017D02*
X76645688Y-33155255D01*
X76645688Y-33155255D02*
X76693307Y-33345731D01*
X76693307Y-33345731D02*
X76693307Y-33679064D01*
X76693307Y-33679064D02*
X76645688Y-33869540D01*
X76645688Y-33869540D02*
X76550450Y-33964779D01*
X76550450Y-33964779D02*
X76455212Y-34012398D01*
X76455212Y-34012398D02*
X76264736Y-34012398D01*
X76264736Y-34012398D02*
X76169498Y-33964779D01*
X76169498Y-33964779D02*
X76074260Y-33869540D01*
X76074260Y-33869540D02*
X76026641Y-33679064D01*
X76026641Y-33679064D02*
X76026641Y-33345731D01*
X76026641Y-33345731D02*
X76074260Y-33155255D01*
X76074260Y-33155255D02*
X76169498Y-33060017D01*
X76169498Y-33060017D02*
X76264736Y-33012398D01*
X77550450Y-33345731D02*
X77550450Y-34012398D01*
X77312355Y-32964779D02*
X77074260Y-33679064D01*
X77074260Y-33679064D02*
X77693307Y-33679064D01*
X79359974Y-33060017D02*
X79264736Y-33012398D01*
X79264736Y-33012398D02*
X79121879Y-33012398D01*
X79121879Y-33012398D02*
X78979022Y-33060017D01*
X78979022Y-33060017D02*
X78883784Y-33155255D01*
X78883784Y-33155255D02*
X78836165Y-33250493D01*
X78836165Y-33250493D02*
X78788546Y-33440969D01*
X78788546Y-33440969D02*
X78788546Y-33583826D01*
X78788546Y-33583826D02*
X78836165Y-33774302D01*
X78836165Y-33774302D02*
X78883784Y-33869540D01*
X78883784Y-33869540D02*
X78979022Y-33964779D01*
X78979022Y-33964779D02*
X79121879Y-34012398D01*
X79121879Y-34012398D02*
X79217117Y-34012398D01*
X79217117Y-34012398D02*
X79359974Y-33964779D01*
X79359974Y-33964779D02*
X79407593Y-33917159D01*
X79407593Y-33917159D02*
X79407593Y-33583826D01*
X79407593Y-33583826D02*
X79217117Y-33583826D01*
X79836165Y-34012398D02*
X79836165Y-33012398D01*
X79836165Y-33012398D02*
X80217117Y-33012398D01*
X80217117Y-33012398D02*
X80312355Y-33060017D01*
X80312355Y-33060017D02*
X80359974Y-33107636D01*
X80359974Y-33107636D02*
X80407593Y-33202874D01*
X80407593Y-33202874D02*
X80407593Y-33345731D01*
X80407593Y-33345731D02*
X80359974Y-33440969D01*
X80359974Y-33440969D02*
X80312355Y-33488588D01*
X80312355Y-33488588D02*
X80217117Y-33536207D01*
X80217117Y-33536207D02*
X79836165Y-33536207D01*
X80836165Y-34012398D02*
X80836165Y-33012398D01*
X81502831Y-33012398D02*
X81693307Y-33012398D01*
X81693307Y-33012398D02*
X81788545Y-33060017D01*
X81788545Y-33060017D02*
X81883783Y-33155255D01*
X81883783Y-33155255D02*
X81931402Y-33345731D01*
X81931402Y-33345731D02*
X81931402Y-33679064D01*
X81931402Y-33679064D02*
X81883783Y-33869540D01*
X81883783Y-33869540D02*
X81788545Y-33964779D01*
X81788545Y-33964779D02*
X81693307Y-34012398D01*
X81693307Y-34012398D02*
X81502831Y-34012398D01*
X81502831Y-34012398D02*
X81407593Y-33964779D01*
X81407593Y-33964779D02*
X81312355Y-33869540D01*
X81312355Y-33869540D02*
X81264736Y-33679064D01*
X81264736Y-33679064D02*
X81264736Y-33345731D01*
X81264736Y-33345731D02*
X81312355Y-33155255D01*
X81312355Y-33155255D02*
X81407593Y-33060017D01*
X81407593Y-33060017D02*
X81502831Y-33012398D01*
X82836164Y-33012398D02*
X82359974Y-33012398D01*
X82359974Y-33012398D02*
X82312355Y-33488588D01*
X82312355Y-33488588D02*
X82359974Y-33440969D01*
X82359974Y-33440969D02*
X82455212Y-33393350D01*
X82455212Y-33393350D02*
X82693307Y-33393350D01*
X82693307Y-33393350D02*
X82788545Y-33440969D01*
X82788545Y-33440969D02*
X82836164Y-33488588D01*
X82836164Y-33488588D02*
X82883783Y-33583826D01*
X82883783Y-33583826D02*
X82883783Y-33821921D01*
X82883783Y-33821921D02*
X82836164Y-33917159D01*
X82836164Y-33917159D02*
X82788545Y-33964779D01*
X82788545Y-33964779D02*
X82693307Y-34012398D01*
X82693307Y-34012398D02*
X82455212Y-34012398D01*
X82455212Y-34012398D02*
X82359974Y-33964779D01*
X82359974Y-33964779D02*
X82312355Y-33917159D01*
X73974842Y-37851789D02*
X73879604Y-37804170D01*
X73879604Y-37804170D02*
X73736747Y-37804170D01*
X73736747Y-37804170D02*
X73593890Y-37851789D01*
X73593890Y-37851789D02*
X73498652Y-37947027D01*
X73498652Y-37947027D02*
X73451033Y-38042265D01*
X73451033Y-38042265D02*
X73403414Y-38232741D01*
X73403414Y-38232741D02*
X73403414Y-38375598D01*
X73403414Y-38375598D02*
X73451033Y-38566074D01*
X73451033Y-38566074D02*
X73498652Y-38661312D01*
X73498652Y-38661312D02*
X73593890Y-38756551D01*
X73593890Y-38756551D02*
X73736747Y-38804170D01*
X73736747Y-38804170D02*
X73831985Y-38804170D01*
X73831985Y-38804170D02*
X73974842Y-38756551D01*
X73974842Y-38756551D02*
X74022461Y-38708931D01*
X74022461Y-38708931D02*
X74022461Y-38375598D01*
X74022461Y-38375598D02*
X73831985Y-38375598D01*
X74451033Y-38804170D02*
X74451033Y-37804170D01*
X74451033Y-37804170D02*
X74831985Y-37804170D01*
X74831985Y-37804170D02*
X74927223Y-37851789D01*
X74927223Y-37851789D02*
X74974842Y-37899408D01*
X74974842Y-37899408D02*
X75022461Y-37994646D01*
X75022461Y-37994646D02*
X75022461Y-38137503D01*
X75022461Y-38137503D02*
X74974842Y-38232741D01*
X74974842Y-38232741D02*
X74927223Y-38280360D01*
X74927223Y-38280360D02*
X74831985Y-38327979D01*
X74831985Y-38327979D02*
X74451033Y-38327979D01*
X75451033Y-38804170D02*
X75451033Y-37804170D01*
X76117699Y-37804170D02*
X76308175Y-37804170D01*
X76308175Y-37804170D02*
X76403413Y-37851789D01*
X76403413Y-37851789D02*
X76498651Y-37947027D01*
X76498651Y-37947027D02*
X76546270Y-38137503D01*
X76546270Y-38137503D02*
X76546270Y-38470836D01*
X76546270Y-38470836D02*
X76498651Y-38661312D01*
X76498651Y-38661312D02*
X76403413Y-38756551D01*
X76403413Y-38756551D02*
X76308175Y-38804170D01*
X76308175Y-38804170D02*
X76117699Y-38804170D01*
X76117699Y-38804170D02*
X76022461Y-38756551D01*
X76022461Y-38756551D02*
X75927223Y-38661312D01*
X75927223Y-38661312D02*
X75879604Y-38470836D01*
X75879604Y-38470836D02*
X75879604Y-38137503D01*
X75879604Y-38137503D02*
X75927223Y-37947027D01*
X75927223Y-37947027D02*
X76022461Y-37851789D01*
X76022461Y-37851789D02*
X76117699Y-37804170D01*
X77165318Y-37804170D02*
X77260556Y-37804170D01*
X77260556Y-37804170D02*
X77355794Y-37851789D01*
X77355794Y-37851789D02*
X77403413Y-37899408D01*
X77403413Y-37899408D02*
X77451032Y-37994646D01*
X77451032Y-37994646D02*
X77498651Y-38185122D01*
X77498651Y-38185122D02*
X77498651Y-38423217D01*
X77498651Y-38423217D02*
X77451032Y-38613693D01*
X77451032Y-38613693D02*
X77403413Y-38708931D01*
X77403413Y-38708931D02*
X77355794Y-38756551D01*
X77355794Y-38756551D02*
X77260556Y-38804170D01*
X77260556Y-38804170D02*
X77165318Y-38804170D01*
X77165318Y-38804170D02*
X77070080Y-38756551D01*
X77070080Y-38756551D02*
X77022461Y-38708931D01*
X77022461Y-38708931D02*
X76974842Y-38613693D01*
X76974842Y-38613693D02*
X76927223Y-38423217D01*
X76927223Y-38423217D02*
X76927223Y-38185122D01*
X76927223Y-38185122D02*
X76974842Y-37994646D01*
X76974842Y-37994646D02*
X77022461Y-37899408D01*
X77022461Y-37899408D02*
X77070080Y-37851789D01*
X77070080Y-37851789D02*
X77165318Y-37804170D01*
X79212937Y-37851789D02*
X79117699Y-37804170D01*
X79117699Y-37804170D02*
X78974842Y-37804170D01*
X78974842Y-37804170D02*
X78831985Y-37851789D01*
X78831985Y-37851789D02*
X78736747Y-37947027D01*
X78736747Y-37947027D02*
X78689128Y-38042265D01*
X78689128Y-38042265D02*
X78641509Y-38232741D01*
X78641509Y-38232741D02*
X78641509Y-38375598D01*
X78641509Y-38375598D02*
X78689128Y-38566074D01*
X78689128Y-38566074D02*
X78736747Y-38661312D01*
X78736747Y-38661312D02*
X78831985Y-38756551D01*
X78831985Y-38756551D02*
X78974842Y-38804170D01*
X78974842Y-38804170D02*
X79070080Y-38804170D01*
X79070080Y-38804170D02*
X79212937Y-38756551D01*
X79212937Y-38756551D02*
X79260556Y-38708931D01*
X79260556Y-38708931D02*
X79260556Y-38375598D01*
X79260556Y-38375598D02*
X79070080Y-38375598D01*
X79689128Y-38804170D02*
X79689128Y-37804170D01*
X79689128Y-37804170D02*
X80070080Y-37804170D01*
X80070080Y-37804170D02*
X80165318Y-37851789D01*
X80165318Y-37851789D02*
X80212937Y-37899408D01*
X80212937Y-37899408D02*
X80260556Y-37994646D01*
X80260556Y-37994646D02*
X80260556Y-38137503D01*
X80260556Y-38137503D02*
X80212937Y-38232741D01*
X80212937Y-38232741D02*
X80165318Y-38280360D01*
X80165318Y-38280360D02*
X80070080Y-38327979D01*
X80070080Y-38327979D02*
X79689128Y-38327979D01*
X80689128Y-38804170D02*
X80689128Y-37804170D01*
X81355794Y-37804170D02*
X81546270Y-37804170D01*
X81546270Y-37804170D02*
X81641508Y-37851789D01*
X81641508Y-37851789D02*
X81736746Y-37947027D01*
X81736746Y-37947027D02*
X81784365Y-38137503D01*
X81784365Y-38137503D02*
X81784365Y-38470836D01*
X81784365Y-38470836D02*
X81736746Y-38661312D01*
X81736746Y-38661312D02*
X81641508Y-38756551D01*
X81641508Y-38756551D02*
X81546270Y-38804170D01*
X81546270Y-38804170D02*
X81355794Y-38804170D01*
X81355794Y-38804170D02*
X81260556Y-38756551D01*
X81260556Y-38756551D02*
X81165318Y-38661312D01*
X81165318Y-38661312D02*
X81117699Y-38470836D01*
X81117699Y-38470836D02*
X81117699Y-38137503D01*
X81117699Y-38137503D02*
X81165318Y-37947027D01*
X81165318Y-37947027D02*
X81260556Y-37851789D01*
X81260556Y-37851789D02*
X81355794Y-37804170D01*
X82165318Y-37899408D02*
X82212937Y-37851789D01*
X82212937Y-37851789D02*
X82308175Y-37804170D01*
X82308175Y-37804170D02*
X82546270Y-37804170D01*
X82546270Y-37804170D02*
X82641508Y-37851789D01*
X82641508Y-37851789D02*
X82689127Y-37899408D01*
X82689127Y-37899408D02*
X82736746Y-37994646D01*
X82736746Y-37994646D02*
X82736746Y-38089884D01*
X82736746Y-38089884D02*
X82689127Y-38232741D01*
X82689127Y-38232741D02*
X82117699Y-38804170D01*
X82117699Y-38804170D02*
X82736746Y-38804170D01*
X73024109Y-27991403D02*
X72928871Y-27943784D01*
X72928871Y-27943784D02*
X72786014Y-27943784D01*
X72786014Y-27943784D02*
X72643157Y-27991403D01*
X72643157Y-27991403D02*
X72547919Y-28086641D01*
X72547919Y-28086641D02*
X72500300Y-28181879D01*
X72500300Y-28181879D02*
X72452681Y-28372355D01*
X72452681Y-28372355D02*
X72452681Y-28515212D01*
X72452681Y-28515212D02*
X72500300Y-28705688D01*
X72500300Y-28705688D02*
X72547919Y-28800926D01*
X72547919Y-28800926D02*
X72643157Y-28896165D01*
X72643157Y-28896165D02*
X72786014Y-28943784D01*
X72786014Y-28943784D02*
X72881252Y-28943784D01*
X72881252Y-28943784D02*
X73024109Y-28896165D01*
X73024109Y-28896165D02*
X73071728Y-28848545D01*
X73071728Y-28848545D02*
X73071728Y-28515212D01*
X73071728Y-28515212D02*
X72881252Y-28515212D01*
X73500300Y-28943784D02*
X73500300Y-27943784D01*
X73500300Y-27943784D02*
X73881252Y-27943784D01*
X73881252Y-27943784D02*
X73976490Y-27991403D01*
X73976490Y-27991403D02*
X74024109Y-28039022D01*
X74024109Y-28039022D02*
X74071728Y-28134260D01*
X74071728Y-28134260D02*
X74071728Y-28277117D01*
X74071728Y-28277117D02*
X74024109Y-28372355D01*
X74024109Y-28372355D02*
X73976490Y-28419974D01*
X73976490Y-28419974D02*
X73881252Y-28467593D01*
X73881252Y-28467593D02*
X73500300Y-28467593D01*
X74500300Y-28943784D02*
X74500300Y-27943784D01*
X75166966Y-27943784D02*
X75357442Y-27943784D01*
X75357442Y-27943784D02*
X75452680Y-27991403D01*
X75452680Y-27991403D02*
X75547918Y-28086641D01*
X75547918Y-28086641D02*
X75595537Y-28277117D01*
X75595537Y-28277117D02*
X75595537Y-28610450D01*
X75595537Y-28610450D02*
X75547918Y-28800926D01*
X75547918Y-28800926D02*
X75452680Y-28896165D01*
X75452680Y-28896165D02*
X75357442Y-28943784D01*
X75357442Y-28943784D02*
X75166966Y-28943784D01*
X75166966Y-28943784D02*
X75071728Y-28896165D01*
X75071728Y-28896165D02*
X74976490Y-28800926D01*
X74976490Y-28800926D02*
X74928871Y-28610450D01*
X74928871Y-28610450D02*
X74928871Y-28277117D01*
X74928871Y-28277117D02*
X74976490Y-28086641D01*
X74976490Y-28086641D02*
X75071728Y-27991403D01*
X75071728Y-27991403D02*
X75166966Y-27943784D01*
X76547918Y-28943784D02*
X75976490Y-28943784D01*
X76262204Y-28943784D02*
X76262204Y-27943784D01*
X76262204Y-27943784D02*
X76166966Y-28086641D01*
X76166966Y-28086641D02*
X76071728Y-28181879D01*
X76071728Y-28181879D02*
X75976490Y-28229498D01*
X76928871Y-28039022D02*
X76976490Y-27991403D01*
X76976490Y-27991403D02*
X77071728Y-27943784D01*
X77071728Y-27943784D02*
X77309823Y-27943784D01*
X77309823Y-27943784D02*
X77405061Y-27991403D01*
X77405061Y-27991403D02*
X77452680Y-28039022D01*
X77452680Y-28039022D02*
X77500299Y-28134260D01*
X77500299Y-28134260D02*
X77500299Y-28229498D01*
X77500299Y-28229498D02*
X77452680Y-28372355D01*
X77452680Y-28372355D02*
X76881252Y-28943784D01*
X76881252Y-28943784D02*
X77500299Y-28943784D01*
X79214585Y-27991403D02*
X79119347Y-27943784D01*
X79119347Y-27943784D02*
X78976490Y-27943784D01*
X78976490Y-27943784D02*
X78833633Y-27991403D01*
X78833633Y-27991403D02*
X78738395Y-28086641D01*
X78738395Y-28086641D02*
X78690776Y-28181879D01*
X78690776Y-28181879D02*
X78643157Y-28372355D01*
X78643157Y-28372355D02*
X78643157Y-28515212D01*
X78643157Y-28515212D02*
X78690776Y-28705688D01*
X78690776Y-28705688D02*
X78738395Y-28800926D01*
X78738395Y-28800926D02*
X78833633Y-28896165D01*
X78833633Y-28896165D02*
X78976490Y-28943784D01*
X78976490Y-28943784D02*
X79071728Y-28943784D01*
X79071728Y-28943784D02*
X79214585Y-28896165D01*
X79214585Y-28896165D02*
X79262204Y-28848545D01*
X79262204Y-28848545D02*
X79262204Y-28515212D01*
X79262204Y-28515212D02*
X79071728Y-28515212D01*
X79690776Y-28943784D02*
X79690776Y-27943784D01*
X79690776Y-27943784D02*
X80071728Y-27943784D01*
X80071728Y-27943784D02*
X80166966Y-27991403D01*
X80166966Y-27991403D02*
X80214585Y-28039022D01*
X80214585Y-28039022D02*
X80262204Y-28134260D01*
X80262204Y-28134260D02*
X80262204Y-28277117D01*
X80262204Y-28277117D02*
X80214585Y-28372355D01*
X80214585Y-28372355D02*
X80166966Y-28419974D01*
X80166966Y-28419974D02*
X80071728Y-28467593D01*
X80071728Y-28467593D02*
X79690776Y-28467593D01*
X80690776Y-28943784D02*
X80690776Y-27943784D01*
X81357442Y-27943784D02*
X81547918Y-27943784D01*
X81547918Y-27943784D02*
X81643156Y-27991403D01*
X81643156Y-27991403D02*
X81738394Y-28086641D01*
X81738394Y-28086641D02*
X81786013Y-28277117D01*
X81786013Y-28277117D02*
X81786013Y-28610450D01*
X81786013Y-28610450D02*
X81738394Y-28800926D01*
X81738394Y-28800926D02*
X81643156Y-28896165D01*
X81643156Y-28896165D02*
X81547918Y-28943784D01*
X81547918Y-28943784D02*
X81357442Y-28943784D01*
X81357442Y-28943784D02*
X81262204Y-28896165D01*
X81262204Y-28896165D02*
X81166966Y-28800926D01*
X81166966Y-28800926D02*
X81119347Y-28610450D01*
X81119347Y-28610450D02*
X81119347Y-28277117D01*
X81119347Y-28277117D02*
X81166966Y-28086641D01*
X81166966Y-28086641D02*
X81262204Y-27991403D01*
X81262204Y-27991403D02*
X81357442Y-27943784D01*
X82738394Y-28943784D02*
X82166966Y-28943784D01*
X82452680Y-28943784D02*
X82452680Y-27943784D01*
X82452680Y-27943784D02*
X82357442Y-28086641D01*
X82357442Y-28086641D02*
X82262204Y-28181879D01*
X82262204Y-28181879D02*
X82166966Y-28229498D01*
X83595537Y-28277117D02*
X83595537Y-28943784D01*
X83357442Y-27896165D02*
X83119347Y-28610450D01*
X83119347Y-28610450D02*
X83738394Y-28610450D01*
X77101133Y-58657190D02*
X77101133Y-58181000D01*
X77386848Y-58752428D02*
X76386848Y-58419095D01*
X76386848Y-58419095D02*
X77386848Y-58085762D01*
X76720181Y-57752428D02*
X77386848Y-57752428D01*
X76815419Y-57752428D02*
X76767800Y-57704809D01*
X76767800Y-57704809D02*
X76720181Y-57609571D01*
X76720181Y-57609571D02*
X76720181Y-57466714D01*
X76720181Y-57466714D02*
X76767800Y-57371476D01*
X76767800Y-57371476D02*
X76863038Y-57323857D01*
X76863038Y-57323857D02*
X77386848Y-57323857D01*
X77386848Y-56419095D02*
X76863038Y-56419095D01*
X76863038Y-56419095D02*
X76767800Y-56466714D01*
X76767800Y-56466714D02*
X76720181Y-56561952D01*
X76720181Y-56561952D02*
X76720181Y-56752428D01*
X76720181Y-56752428D02*
X76767800Y-56847666D01*
X77339229Y-56419095D02*
X77386848Y-56514333D01*
X77386848Y-56514333D02*
X77386848Y-56752428D01*
X77386848Y-56752428D02*
X77339229Y-56847666D01*
X77339229Y-56847666D02*
X77243990Y-56895285D01*
X77243990Y-56895285D02*
X77148752Y-56895285D01*
X77148752Y-56895285D02*
X77053514Y-56847666D01*
X77053514Y-56847666D02*
X77005895Y-56752428D01*
X77005895Y-56752428D02*
X77005895Y-56514333D01*
X77005895Y-56514333D02*
X76958276Y-56419095D01*
X77386848Y-55800047D02*
X77339229Y-55895285D01*
X77339229Y-55895285D02*
X77243990Y-55942904D01*
X77243990Y-55942904D02*
X76386848Y-55942904D01*
X77386848Y-55276237D02*
X77339229Y-55371475D01*
X77339229Y-55371475D02*
X77291609Y-55419094D01*
X77291609Y-55419094D02*
X77196371Y-55466713D01*
X77196371Y-55466713D02*
X76910657Y-55466713D01*
X76910657Y-55466713D02*
X76815419Y-55419094D01*
X76815419Y-55419094D02*
X76767800Y-55371475D01*
X76767800Y-55371475D02*
X76720181Y-55276237D01*
X76720181Y-55276237D02*
X76720181Y-55133380D01*
X76720181Y-55133380D02*
X76767800Y-55038142D01*
X76767800Y-55038142D02*
X76815419Y-54990523D01*
X76815419Y-54990523D02*
X76910657Y-54942904D01*
X76910657Y-54942904D02*
X77196371Y-54942904D01*
X77196371Y-54942904D02*
X77291609Y-54990523D01*
X77291609Y-54990523D02*
X77339229Y-55038142D01*
X77339229Y-55038142D02*
X77386848Y-55133380D01*
X77386848Y-55133380D02*
X77386848Y-55276237D01*
X76720181Y-54085761D02*
X77529705Y-54085761D01*
X77529705Y-54085761D02*
X77624943Y-54133380D01*
X77624943Y-54133380D02*
X77672562Y-54180999D01*
X77672562Y-54180999D02*
X77720181Y-54276237D01*
X77720181Y-54276237D02*
X77720181Y-54419094D01*
X77720181Y-54419094D02*
X77672562Y-54514332D01*
X77339229Y-54085761D02*
X77386848Y-54180999D01*
X77386848Y-54180999D02*
X77386848Y-54371475D01*
X77386848Y-54371475D02*
X77339229Y-54466713D01*
X77339229Y-54466713D02*
X77291609Y-54514332D01*
X77291609Y-54514332D02*
X77196371Y-54561951D01*
X77196371Y-54561951D02*
X76910657Y-54561951D01*
X76910657Y-54561951D02*
X76815419Y-54514332D01*
X76815419Y-54514332D02*
X76767800Y-54466713D01*
X76767800Y-54466713D02*
X76720181Y-54371475D01*
X76720181Y-54371475D02*
X76720181Y-54180999D01*
X76720181Y-54180999D02*
X76767800Y-54085761D01*
X81467438Y-44859411D02*
X81419819Y-44954649D01*
X81419819Y-44954649D02*
X81419819Y-45097506D01*
X81419819Y-45097506D02*
X81467438Y-45240363D01*
X81467438Y-45240363D02*
X81562676Y-45335601D01*
X81562676Y-45335601D02*
X81657914Y-45383220D01*
X81657914Y-45383220D02*
X81848390Y-45430839D01*
X81848390Y-45430839D02*
X81991247Y-45430839D01*
X81991247Y-45430839D02*
X82181723Y-45383220D01*
X82181723Y-45383220D02*
X82276961Y-45335601D01*
X82276961Y-45335601D02*
X82372200Y-45240363D01*
X82372200Y-45240363D02*
X82419819Y-45097506D01*
X82419819Y-45097506D02*
X82419819Y-45002268D01*
X82419819Y-45002268D02*
X82372200Y-44859411D01*
X82372200Y-44859411D02*
X82324580Y-44811792D01*
X82324580Y-44811792D02*
X81991247Y-44811792D01*
X81991247Y-44811792D02*
X81991247Y-45002268D01*
X82419819Y-44383220D02*
X81419819Y-44383220D01*
X81419819Y-44383220D02*
X82419819Y-43811792D01*
X82419819Y-43811792D02*
X81419819Y-43811792D01*
X82419819Y-43335601D02*
X81419819Y-43335601D01*
X81419819Y-43335601D02*
X81419819Y-43097506D01*
X81419819Y-43097506D02*
X81467438Y-42954649D01*
X81467438Y-42954649D02*
X81562676Y-42859411D01*
X81562676Y-42859411D02*
X81657914Y-42811792D01*
X81657914Y-42811792D02*
X81848390Y-42764173D01*
X81848390Y-42764173D02*
X81991247Y-42764173D01*
X81991247Y-42764173D02*
X82181723Y-42811792D01*
X82181723Y-42811792D02*
X82276961Y-42859411D01*
X82276961Y-42859411D02*
X82372200Y-42954649D01*
X82372200Y-42954649D02*
X82419819Y-43097506D01*
X82419819Y-43097506D02*
X82419819Y-43335601D01*
X73985329Y-44273894D02*
X73985329Y-44750084D01*
X73985329Y-44750084D02*
X74461519Y-44797703D01*
X74461519Y-44797703D02*
X74413900Y-44750084D01*
X74413900Y-44750084D02*
X74366281Y-44654846D01*
X74366281Y-44654846D02*
X74366281Y-44416751D01*
X74366281Y-44416751D02*
X74413900Y-44321513D01*
X74413900Y-44321513D02*
X74461519Y-44273894D01*
X74461519Y-44273894D02*
X74556757Y-44226275D01*
X74556757Y-44226275D02*
X74794852Y-44226275D01*
X74794852Y-44226275D02*
X74890090Y-44273894D01*
X74890090Y-44273894D02*
X74937710Y-44321513D01*
X74937710Y-44321513D02*
X74985329Y-44416751D01*
X74985329Y-44416751D02*
X74985329Y-44654846D01*
X74985329Y-44654846D02*
X74937710Y-44750084D01*
X74937710Y-44750084D02*
X74890090Y-44797703D01*
X73985329Y-43940560D02*
X74985329Y-43607227D01*
X74985329Y-43607227D02*
X73985329Y-43273894D01*
X77136666Y-48984819D02*
X77136666Y-49699104D01*
X77136666Y-49699104D02*
X77089047Y-49841961D01*
X77089047Y-49841961D02*
X76993809Y-49937200D01*
X76993809Y-49937200D02*
X76850952Y-49984819D01*
X76850952Y-49984819D02*
X76755714Y-49984819D01*
X78136666Y-49984819D02*
X77565238Y-49984819D01*
X77850952Y-49984819D02*
X77850952Y-48984819D01*
X77850952Y-48984819D02*
X77755714Y-49127676D01*
X77755714Y-49127676D02*
X77660476Y-49222914D01*
X77660476Y-49222914D02*
X77565238Y-49270533D01*
X65873333Y-41094819D02*
X65540000Y-40618628D01*
X65301905Y-41094819D02*
X65301905Y-40094819D01*
X65301905Y-40094819D02*
X65682857Y-40094819D01*
X65682857Y-40094819D02*
X65778095Y-40142438D01*
X65778095Y-40142438D02*
X65825714Y-40190057D01*
X65825714Y-40190057D02*
X65873333Y-40285295D01*
X65873333Y-40285295D02*
X65873333Y-40428152D01*
X65873333Y-40428152D02*
X65825714Y-40523390D01*
X65825714Y-40523390D02*
X65778095Y-40571009D01*
X65778095Y-40571009D02*
X65682857Y-40618628D01*
X65682857Y-40618628D02*
X65301905Y-40618628D01*
X66778095Y-40094819D02*
X66301905Y-40094819D01*
X66301905Y-40094819D02*
X66254286Y-40571009D01*
X66254286Y-40571009D02*
X66301905Y-40523390D01*
X66301905Y-40523390D02*
X66397143Y-40475771D01*
X66397143Y-40475771D02*
X66635238Y-40475771D01*
X66635238Y-40475771D02*
X66730476Y-40523390D01*
X66730476Y-40523390D02*
X66778095Y-40571009D01*
X66778095Y-40571009D02*
X66825714Y-40666247D01*
X66825714Y-40666247D02*
X66825714Y-40904342D01*
X66825714Y-40904342D02*
X66778095Y-40999580D01*
X66778095Y-40999580D02*
X66730476Y-41047200D01*
X66730476Y-41047200D02*
X66635238Y-41094819D01*
X66635238Y-41094819D02*
X66397143Y-41094819D01*
X66397143Y-41094819D02*
X66301905Y-41047200D01*
X66301905Y-41047200D02*
X66254286Y-40999580D01*
X65873333Y-37284819D02*
X65540000Y-36808628D01*
X65301905Y-37284819D02*
X65301905Y-36284819D01*
X65301905Y-36284819D02*
X65682857Y-36284819D01*
X65682857Y-36284819D02*
X65778095Y-36332438D01*
X65778095Y-36332438D02*
X65825714Y-36380057D01*
X65825714Y-36380057D02*
X65873333Y-36475295D01*
X65873333Y-36475295D02*
X65873333Y-36618152D01*
X65873333Y-36618152D02*
X65825714Y-36713390D01*
X65825714Y-36713390D02*
X65778095Y-36761009D01*
X65778095Y-36761009D02*
X65682857Y-36808628D01*
X65682857Y-36808628D02*
X65301905Y-36808628D01*
X66730476Y-36618152D02*
X66730476Y-37284819D01*
X66492381Y-36237200D02*
X66254286Y-36951485D01*
X66254286Y-36951485D02*
X66873333Y-36951485D01*
X65397142Y-33474819D02*
X65063809Y-32998628D01*
X64825714Y-33474819D02*
X64825714Y-32474819D01*
X64825714Y-32474819D02*
X65206666Y-32474819D01*
X65206666Y-32474819D02*
X65301904Y-32522438D01*
X65301904Y-32522438D02*
X65349523Y-32570057D01*
X65349523Y-32570057D02*
X65397142Y-32665295D01*
X65397142Y-32665295D02*
X65397142Y-32808152D01*
X65397142Y-32808152D02*
X65349523Y-32903390D01*
X65349523Y-32903390D02*
X65301904Y-32951009D01*
X65301904Y-32951009D02*
X65206666Y-32998628D01*
X65206666Y-32998628D02*
X64825714Y-32998628D01*
X66349523Y-33474819D02*
X65778095Y-33474819D01*
X66063809Y-33474819D02*
X66063809Y-32474819D01*
X66063809Y-32474819D02*
X65968571Y-32617676D01*
X65968571Y-32617676D02*
X65873333Y-32712914D01*
X65873333Y-32712914D02*
X65778095Y-32760533D01*
X67206666Y-32808152D02*
X67206666Y-33474819D01*
X66968571Y-32427200D02*
X66730476Y-33141485D01*
X66730476Y-33141485D02*
X67349523Y-33141485D01*
X65397142Y-29664819D02*
X65063809Y-29188628D01*
X64825714Y-29664819D02*
X64825714Y-28664819D01*
X64825714Y-28664819D02*
X65206666Y-28664819D01*
X65206666Y-28664819D02*
X65301904Y-28712438D01*
X65301904Y-28712438D02*
X65349523Y-28760057D01*
X65349523Y-28760057D02*
X65397142Y-28855295D01*
X65397142Y-28855295D02*
X65397142Y-28998152D01*
X65397142Y-28998152D02*
X65349523Y-29093390D01*
X65349523Y-29093390D02*
X65301904Y-29141009D01*
X65301904Y-29141009D02*
X65206666Y-29188628D01*
X65206666Y-29188628D02*
X64825714Y-29188628D01*
X66349523Y-29664819D02*
X65778095Y-29664819D01*
X66063809Y-29664819D02*
X66063809Y-28664819D01*
X66063809Y-28664819D02*
X65968571Y-28807676D01*
X65968571Y-28807676D02*
X65873333Y-28902914D01*
X65873333Y-28902914D02*
X65778095Y-28950533D01*
X66730476Y-28760057D02*
X66778095Y-28712438D01*
X66778095Y-28712438D02*
X66873333Y-28664819D01*
X66873333Y-28664819D02*
X67111428Y-28664819D01*
X67111428Y-28664819D02*
X67206666Y-28712438D01*
X67206666Y-28712438D02*
X67254285Y-28760057D01*
X67254285Y-28760057D02*
X67301904Y-28855295D01*
X67301904Y-28855295D02*
X67301904Y-28950533D01*
X67301904Y-28950533D02*
X67254285Y-29093390D01*
X67254285Y-29093390D02*
X66682857Y-29664819D01*
X66682857Y-29664819D02*
X67301904Y-29664819D01*
X61058095Y-61008006D02*
X61058095Y-61817529D01*
X61058095Y-61817529D02*
X61105714Y-61912767D01*
X61105714Y-61912767D02*
X61153333Y-61960387D01*
X61153333Y-61960387D02*
X61248571Y-62008006D01*
X61248571Y-62008006D02*
X61439047Y-62008006D01*
X61439047Y-62008006D02*
X61534285Y-61960387D01*
X61534285Y-61960387D02*
X61581904Y-61912767D01*
X61581904Y-61912767D02*
X61629523Y-61817529D01*
X61629523Y-61817529D02*
X61629523Y-61008006D01*
X62058095Y-61103244D02*
X62105714Y-61055625D01*
X62105714Y-61055625D02*
X62200952Y-61008006D01*
X62200952Y-61008006D02*
X62439047Y-61008006D01*
X62439047Y-61008006D02*
X62534285Y-61055625D01*
X62534285Y-61055625D02*
X62581904Y-61103244D01*
X62581904Y-61103244D02*
X62629523Y-61198482D01*
X62629523Y-61198482D02*
X62629523Y-61293720D01*
X62629523Y-61293720D02*
X62581904Y-61436577D01*
X62581904Y-61436577D02*
X62010476Y-62008006D01*
X62010476Y-62008006D02*
X62629523Y-62008006D01*
X84274819Y-57745238D02*
X83798628Y-58078571D01*
X84274819Y-58316666D02*
X83274819Y-58316666D01*
X83274819Y-58316666D02*
X83274819Y-57935714D01*
X83274819Y-57935714D02*
X83322438Y-57840476D01*
X83322438Y-57840476D02*
X83370057Y-57792857D01*
X83370057Y-57792857D02*
X83465295Y-57745238D01*
X83465295Y-57745238D02*
X83608152Y-57745238D01*
X83608152Y-57745238D02*
X83703390Y-57792857D01*
X83703390Y-57792857D02*
X83751009Y-57840476D01*
X83751009Y-57840476D02*
X83798628Y-57935714D01*
X83798628Y-57935714D02*
X83798628Y-58316666D01*
X83989104Y-57364285D02*
X83989104Y-56888095D01*
X84274819Y-57459523D02*
X83274819Y-57126190D01*
X83274819Y-57126190D02*
X84274819Y-56792857D01*
X84274819Y-55935714D02*
X84274819Y-56507142D01*
X84274819Y-56221428D02*
X83274819Y-56221428D01*
X83274819Y-56221428D02*
X83417676Y-56316666D01*
X83417676Y-56316666D02*
X83512914Y-56411904D01*
X83512914Y-56411904D02*
X83560533Y-56507142D01*
D12*
%TO.C,J1*%
X79950000Y-50860000D02*
X79950000Y-49530000D01*
X81280000Y-50860000D02*
X79950000Y-50860000D01*
X82550000Y-48200000D02*
X85150000Y-48200000D01*
X82550000Y-50860000D02*
X82550000Y-48200000D01*
X82550000Y-50860000D02*
X85150000Y-50860000D01*
X85150000Y-50860000D02*
X85150000Y-48200000D01*
%TO.C,J9*%
X73035279Y-32337484D02*
X73035279Y-31007484D01*
X74365279Y-32337484D02*
X73035279Y-32337484D01*
X75635279Y-29677484D02*
X83315279Y-29677484D01*
X75635279Y-32337484D02*
X75635279Y-29677484D01*
X75635279Y-32337484D02*
X83315279Y-32337484D01*
X83315279Y-32337484D02*
X83315279Y-29677484D01*
%TO.C,R5*%
X62770000Y-39270000D02*
X62770000Y-39600000D01*
X62770000Y-42010000D02*
X62770000Y-41680000D01*
X69310000Y-39270000D02*
X62770000Y-39270000D01*
X69310000Y-39600000D02*
X69310000Y-39270000D01*
X69310000Y-41680000D02*
X69310000Y-42010000D01*
X69310000Y-42010000D02*
X62770000Y-42010000D01*
%TO.C,R4*%
X62770000Y-35460000D02*
X62770000Y-35790000D01*
X62770000Y-38200000D02*
X62770000Y-37870000D01*
X69310000Y-35460000D02*
X62770000Y-35460000D01*
X69310000Y-35790000D02*
X69310000Y-35460000D01*
X69310000Y-37870000D02*
X69310000Y-38200000D01*
X69310000Y-38200000D02*
X62770000Y-38200000D01*
%TO.C,J8*%
X73035279Y-37417484D02*
X73035279Y-36087484D01*
X74365279Y-37417484D02*
X73035279Y-37417484D01*
X75635279Y-34757484D02*
X83315279Y-34757484D01*
X75635279Y-37417484D02*
X75635279Y-34757484D01*
X75635279Y-37417484D02*
X83315279Y-37417484D01*
X83315279Y-37417484D02*
X83315279Y-34757484D01*
%TO.C,R14*%
X62770000Y-31650000D02*
X62770000Y-31980000D01*
X62770000Y-34390000D02*
X62770000Y-34060000D01*
X69310000Y-31650000D02*
X62770000Y-31650000D01*
X69310000Y-31980000D02*
X69310000Y-31650000D01*
X69310000Y-34060000D02*
X69310000Y-34390000D01*
X69310000Y-34390000D02*
X62770000Y-34390000D01*
%TO.C,R12*%
X62770000Y-27840000D02*
X62770000Y-28170000D01*
X62770000Y-30580000D02*
X62770000Y-30250000D01*
X69310000Y-27840000D02*
X62770000Y-27840000D01*
X69310000Y-28170000D02*
X69310000Y-27840000D01*
X69310000Y-30250000D02*
X69310000Y-30580000D01*
X69310000Y-30580000D02*
X62770000Y-30580000D01*
%TO.C,J7*%
X78421775Y-54037942D02*
X79751775Y-54037942D01*
X78421775Y-55367942D02*
X78421775Y-54037942D01*
X78421775Y-56637942D02*
X78421775Y-59237942D01*
X78421775Y-56637942D02*
X81081775Y-56637942D01*
X78421775Y-59237942D02*
X81081775Y-59237942D01*
X81081775Y-56637942D02*
X81081775Y-59237942D01*
%TO.C,J10*%
X73086951Y-42137414D02*
X73086951Y-40807414D01*
X74416951Y-42137414D02*
X73086951Y-42137414D01*
X75686951Y-39477414D02*
X83366951Y-39477414D01*
X75686951Y-42137414D02*
X75686951Y-39477414D01*
X75686951Y-42137414D02*
X83366951Y-42137414D01*
X83366951Y-42137414D02*
X83366951Y-39477414D01*
%TO.C,U2*%
X59460000Y-62433187D02*
X59460000Y-94763187D01*
X61580000Y-96893187D02*
X83190000Y-96893187D01*
X82780000Y-62433187D02*
X59460000Y-62433187D01*
X82780000Y-69333187D02*
X82780000Y-62433187D01*
X85320000Y-69333187D02*
X82780000Y-69333187D01*
X85320000Y-69333187D02*
X85320000Y-94763187D01*
X61590000Y-96893187D02*
G75*
G02*
X59460000Y-94763187I0J2130000D01*
G01*
X85320000Y-94763187D02*
G75*
G02*
X83190000Y-96893187I-2130002J2D01*
G01*
D11*
X86360000Y-89188187D02*
X85725000Y-88553187D01*
X86360000Y-87918187D01*
X86360000Y-89188187D01*
G36*
X86360000Y-89188187D02*
G01*
X85725000Y-88553187D01*
X86360000Y-87918187D01*
X86360000Y-89188187D01*
G37*
D12*
%TO.C,RA1*%
X82450000Y-53880000D02*
X82780000Y-53880000D01*
X82450000Y-60420000D02*
X82450000Y-53880000D01*
X82780000Y-60420000D02*
X82450000Y-60420000D01*
X84860000Y-60420000D02*
X85190000Y-60420000D01*
X85190000Y-53880000D02*
X84860000Y-53880000D01*
X85190000Y-60420000D02*
X85190000Y-53880000D01*
%TD*%
M02*
