%TF.GenerationSoftware,KiCad,Pcbnew,8.0.5*%
%TF.CreationDate,2024-12-15T10:39:48+01:00*%
%TF.ProjectId,esp8266-expansion-board,65737038-3236-4362-9d65-7870616e7369,rev?*%
%TF.SameCoordinates,Original*%
%TF.FileFunction,Drillmap*%
%TF.FilePolarity,Positive*%
%FSLAX45Y45*%
G04 Gerber Fmt 4.5, Leading zero omitted, Abs format (unit mm)*
G04 Created by KiCad (PCBNEW 8.0.5) date 2024-12-15 10:39:48*
%MOMM*%
%LPD*%
G01*
G04 APERTURE LIST*
%ADD10C,0.050000*%
%ADD11C,0.200000*%
G04 APERTURE END LIST*
D10*
X8130482Y-2547929D02*
G75*
G02*
X8628017Y-3055766I-2482J-500071D01*
G01*
X6352482Y-10167928D02*
G75*
G02*
X5844482Y-9659929I-2J507998D01*
G01*
X5844482Y-3055929D02*
G75*
G02*
X6352482Y-2547932I507998J-1D01*
G01*
X8130482Y-10167929D02*
X6352482Y-10167929D01*
X8638482Y-9659929D02*
G75*
G02*
X8130482Y-10167932I-508002J-1D01*
G01*
X8628017Y-3055766D02*
X8638482Y-9659929D01*
X6352482Y-2547929D02*
X8130482Y-2547929D01*
X5844482Y-3055929D02*
X5844482Y-9659929D01*
D11*
X6102758Y-10481913D02*
X6102758Y-10281913D01*
X6102758Y-10281913D02*
X6150377Y-10281913D01*
X6150377Y-10281913D02*
X6178949Y-10291437D01*
X6178949Y-10291437D02*
X6197997Y-10310484D01*
X6197997Y-10310484D02*
X6207520Y-10329532D01*
X6207520Y-10329532D02*
X6217044Y-10367627D01*
X6217044Y-10367627D02*
X6217044Y-10396199D01*
X6217044Y-10396199D02*
X6207520Y-10434294D01*
X6207520Y-10434294D02*
X6197997Y-10453341D01*
X6197997Y-10453341D02*
X6178949Y-10472389D01*
X6178949Y-10472389D02*
X6150377Y-10481913D01*
X6150377Y-10481913D02*
X6102758Y-10481913D01*
X6302758Y-10481913D02*
X6302758Y-10348579D01*
X6302758Y-10386675D02*
X6312282Y-10367627D01*
X6312282Y-10367627D02*
X6321806Y-10358103D01*
X6321806Y-10358103D02*
X6340854Y-10348579D01*
X6340854Y-10348579D02*
X6359901Y-10348579D01*
X6426568Y-10481913D02*
X6426568Y-10348579D01*
X6426568Y-10281913D02*
X6417044Y-10291437D01*
X6417044Y-10291437D02*
X6426568Y-10300960D01*
X6426568Y-10300960D02*
X6436092Y-10291437D01*
X6436092Y-10291437D02*
X6426568Y-10281913D01*
X6426568Y-10281913D02*
X6426568Y-10300960D01*
X6550377Y-10481913D02*
X6531330Y-10472389D01*
X6531330Y-10472389D02*
X6521806Y-10453341D01*
X6521806Y-10453341D02*
X6521806Y-10281913D01*
X6655139Y-10481913D02*
X6636092Y-10472389D01*
X6636092Y-10472389D02*
X6626568Y-10453341D01*
X6626568Y-10453341D02*
X6626568Y-10281913D01*
X6883711Y-10481913D02*
X6883711Y-10281913D01*
X6883711Y-10281913D02*
X6950378Y-10424770D01*
X6950378Y-10424770D02*
X7017044Y-10281913D01*
X7017044Y-10281913D02*
X7017044Y-10481913D01*
X7197997Y-10481913D02*
X7197997Y-10377151D01*
X7197997Y-10377151D02*
X7188473Y-10358103D01*
X7188473Y-10358103D02*
X7169425Y-10348579D01*
X7169425Y-10348579D02*
X7131330Y-10348579D01*
X7131330Y-10348579D02*
X7112282Y-10358103D01*
X7197997Y-10472389D02*
X7178949Y-10481913D01*
X7178949Y-10481913D02*
X7131330Y-10481913D01*
X7131330Y-10481913D02*
X7112282Y-10472389D01*
X7112282Y-10472389D02*
X7102758Y-10453341D01*
X7102758Y-10453341D02*
X7102758Y-10434294D01*
X7102758Y-10434294D02*
X7112282Y-10415246D01*
X7112282Y-10415246D02*
X7131330Y-10405722D01*
X7131330Y-10405722D02*
X7178949Y-10405722D01*
X7178949Y-10405722D02*
X7197997Y-10396199D01*
X7293235Y-10348579D02*
X7293235Y-10548579D01*
X7293235Y-10358103D02*
X7312282Y-10348579D01*
X7312282Y-10348579D02*
X7350378Y-10348579D01*
X7350378Y-10348579D02*
X7369425Y-10358103D01*
X7369425Y-10358103D02*
X7378949Y-10367627D01*
X7378949Y-10367627D02*
X7388473Y-10386675D01*
X7388473Y-10386675D02*
X7388473Y-10443818D01*
X7388473Y-10443818D02*
X7378949Y-10462865D01*
X7378949Y-10462865D02*
X7369425Y-10472389D01*
X7369425Y-10472389D02*
X7350378Y-10481913D01*
X7350378Y-10481913D02*
X7312282Y-10481913D01*
X7312282Y-10481913D02*
X7293235Y-10472389D01*
X7474187Y-10462865D02*
X7483711Y-10472389D01*
X7483711Y-10472389D02*
X7474187Y-10481913D01*
X7474187Y-10481913D02*
X7464663Y-10472389D01*
X7464663Y-10472389D02*
X7474187Y-10462865D01*
X7474187Y-10462865D02*
X7474187Y-10481913D01*
X7474187Y-10358103D02*
X7483711Y-10367627D01*
X7483711Y-10367627D02*
X7474187Y-10377151D01*
X7474187Y-10377151D02*
X7464663Y-10367627D01*
X7464663Y-10367627D02*
X7474187Y-10358103D01*
X7474187Y-10358103D02*
X7474187Y-10377151D01*
M02*
