%TF.GenerationSoftware,KiCad,Pcbnew,7.0.10*%
%TF.CreationDate,2024-02-08T08:12:44+01:00*%
%TF.ProjectId,door_relay_sensor,646f6f72-5f72-4656-9c61-795f73656e73,rev?*%
%TF.SameCoordinates,Original*%
%TF.FileFunction,Copper,L1,Top*%
%TF.FilePolarity,Positive*%
%FSLAX46Y46*%
G04 Gerber Fmt 4.6, Leading zero omitted, Abs format (unit mm)*
G04 Created by KiCad (PCBNEW 7.0.10) date 2024-02-08 08:12:44*
%MOMM*%
%LPD*%
G01*
G04 APERTURE LIST*
G04 Aperture macros list*
%AMRoundRect*
0 Rectangle with rounded corners*
0 $1 Rounding radius*
0 $2 $3 $4 $5 $6 $7 $8 $9 X,Y pos of 4 corners*
0 Add a 4 corners polygon primitive as box body*
4,1,4,$2,$3,$4,$5,$6,$7,$8,$9,$2,$3,0*
0 Add four circle primitives for the rounded corners*
1,1,$1+$1,$2,$3*
1,1,$1+$1,$4,$5*
1,1,$1+$1,$6,$7*
1,1,$1+$1,$8,$9*
0 Add four rect primitives between the rounded corners*
20,1,$1+$1,$2,$3,$4,$5,0*
20,1,$1+$1,$4,$5,$6,$7,0*
20,1,$1+$1,$6,$7,$8,$9,0*
20,1,$1+$1,$8,$9,$2,$3,0*%
G04 Aperture macros list end*
%TA.AperFunction,ComponentPad*%
%ADD10R,3.000000X3.000000*%
%TD*%
%TA.AperFunction,ComponentPad*%
%ADD11C,3.000000*%
%TD*%
%TA.AperFunction,ComponentPad*%
%ADD12R,2.200000X2.200000*%
%TD*%
%TA.AperFunction,ComponentPad*%
%ADD13O,2.200000X2.200000*%
%TD*%
%TA.AperFunction,ComponentPad*%
%ADD14RoundRect,0.250000X-0.600000X-0.750000X0.600000X-0.750000X0.600000X0.750000X-0.600000X0.750000X0*%
%TD*%
%TA.AperFunction,ComponentPad*%
%ADD15O,1.700000X2.000000*%
%TD*%
%TA.AperFunction,ComponentPad*%
%ADD16R,1.500000X1.500000*%
%TD*%
%TA.AperFunction,ComponentPad*%
%ADD17C,1.500000*%
%TD*%
%TA.AperFunction,ComponentPad*%
%ADD18C,1.600000*%
%TD*%
%TA.AperFunction,ComponentPad*%
%ADD19O,1.600000X1.600000*%
%TD*%
%TA.AperFunction,ComponentPad*%
%ADD20RoundRect,0.200000X-0.900000X0.900000X-0.900000X-0.900000X0.900000X-0.900000X0.900000X0.900000X0*%
%TD*%
%TA.AperFunction,ComponentPad*%
%ADD21C,2.500000*%
%TD*%
%TA.AperFunction,ComponentPad*%
%ADD22RoundRect,0.250000X-0.600000X-0.725000X0.600000X-0.725000X0.600000X0.725000X-0.600000X0.725000X0*%
%TD*%
%TA.AperFunction,ComponentPad*%
%ADD23O,1.700000X1.950000*%
%TD*%
%TA.AperFunction,ComponentPad*%
%ADD24O,2.000000X1.600000*%
%TD*%
%TA.AperFunction,ComponentPad*%
%ADD25R,2.000000X2.000000*%
%TD*%
%TA.AperFunction,Conductor*%
%ADD26C,0.800000*%
%TD*%
%TA.AperFunction,Conductor*%
%ADD27C,2.540000*%
%TD*%
%TA.AperFunction,Conductor*%
%ADD28C,1.270000*%
%TD*%
%TA.AperFunction,Conductor*%
%ADD29C,0.508000*%
%TD*%
G04 APERTURE END LIST*
D10*
%TO.P,DoorRelay1,1,Pin_1*%
%TO.N,GND*%
X86360000Y-78740000D03*
D11*
%TO.P,DoorRelay1,2,Pin_2*%
%TO.N,/Relay1_NO*%
X91440000Y-78740000D03*
%TO.P,DoorRelay1,3,Pin_3*%
%TO.N,/Relay1_NC*%
X96520000Y-78740000D03*
%TD*%
D12*
%TO.P,D1,1,K*%
%TO.N,+5V*%
X90170000Y-46990000D03*
D13*
%TO.P,D1,2,A*%
%TO.N,Net-(D1-A)*%
X90170000Y-39370000D03*
%TD*%
D14*
%TO.P,DoorSensor1,1,Pin_1*%
%TO.N,/Door_Sensor*%
X85130000Y-30480000D03*
D15*
%TO.P,DoorSensor1,2,Pin_2*%
%TO.N,+3.3V*%
X87630000Y-30480000D03*
%TD*%
D16*
%TO.P,Q1,1,E*%
%TO.N,GND*%
X96020000Y-45720000D03*
D17*
%TO.P,Q1,2,B*%
%TO.N,Net-(Q1-B)*%
X93480000Y-43180000D03*
%TO.P,Q1,3,C*%
%TO.N,Net-(D1-A)*%
X96020000Y-40640000D03*
%TD*%
D18*
%TO.P,R2,1*%
%TO.N,Net-(Q2-B)*%
X85090000Y-46990000D03*
D19*
%TO.P,R2,2*%
%TO.N,/Relay2*%
X85090000Y-39370000D03*
%TD*%
D10*
%TO.P,Relay1,1,Pin_1*%
%TO.N,/R2_NO*%
X103230206Y-78740000D03*
D11*
%TO.P,Relay1,2,Pin_2*%
%TO.N,/R2_COM*%
X108310206Y-78740000D03*
%TO.P,Relay1,3,Pin_3*%
%TO.N,/R2_NC*%
X113390206Y-78740000D03*
%TD*%
D20*
%TO.P,U2,1,-IN*%
%TO.N,GND*%
X55860000Y-84730000D03*
X53660000Y-84730000D03*
%TO.P,U2,2,+IN*%
%TO.N,+12V*%
X68060000Y-84730000D03*
X65860000Y-84730000D03*
%TO.P,U2,3,OUT-*%
%TO.N,GND*%
X55860000Y-64930000D03*
X53660000Y-64930000D03*
%TO.P,U2,4,OUT+*%
%TO.N,+5V*%
X68060000Y-64930000D03*
X65860000Y-64930000D03*
%TD*%
D11*
%TO.P,K2,1*%
%TO.N,/R2_COM*%
X108416818Y-55009562D03*
D21*
%TO.P,K2,2*%
%TO.N,+5V*%
X102366818Y-56959562D03*
D11*
%TO.P,K2,3*%
%TO.N,/R2_NO*%
X102366818Y-69159562D03*
%TO.P,K2,4*%
%TO.N,/R2_NC*%
X114416818Y-69209562D03*
D21*
%TO.P,K2,5*%
%TO.N,Net-(D2-A)*%
X114366818Y-56959562D03*
%TD*%
D10*
%TO.P,PowerIn1,1,Pin_1*%
%TO.N,+12V*%
X73660000Y-78740000D03*
D11*
%TO.P,PowerIn1,2,Pin_2*%
%TO.N,GND*%
X78740000Y-78740000D03*
%TD*%
%TO.P,K1,1*%
%TO.N,+12V*%
X91440000Y-55000000D03*
D21*
%TO.P,K1,2*%
%TO.N,+5V*%
X85390000Y-56950000D03*
D11*
%TO.P,K1,3*%
%TO.N,/Relay1_NO*%
X85390000Y-69150000D03*
%TO.P,K1,4*%
%TO.N,/Relay1_NC*%
X97440000Y-69200000D03*
D21*
%TO.P,K1,5*%
%TO.N,Net-(D1-A)*%
X97390000Y-56950000D03*
%TD*%
D18*
%TO.P,R3,1*%
%TO.N,Net-(MotionSensor1-Pin_2)*%
X61705783Y-53349927D03*
D19*
%TO.P,R3,2*%
%TO.N,/Motion_Sensor*%
X61705783Y-45729927D03*
%TD*%
D12*
%TO.P,D2,1,K*%
%TO.N,+5V*%
X105410000Y-46990000D03*
D13*
%TO.P,D2,2,A*%
%TO.N,Net-(D2-A)*%
X105410000Y-39370000D03*
%TD*%
D22*
%TO.P,MotionSensor1,1,Pin_1*%
%TO.N,+12V*%
X107990000Y-30480000D03*
D23*
%TO.P,MotionSensor1,2,Pin_2*%
%TO.N,Net-(MotionSensor1-Pin_2)*%
X110490000Y-30480000D03*
%TO.P,MotionSensor1,3,Pin_3*%
%TO.N,GND*%
X112990000Y-30480000D03*
%TD*%
D18*
%TO.P,R1,1*%
%TO.N,Net-(Q1-B)*%
X81280000Y-46990000D03*
D19*
%TO.P,R1,2*%
%TO.N,/Relay1*%
X81280000Y-39370000D03*
%TD*%
D16*
%TO.P,Q2,1,E*%
%TO.N,GND*%
X111760000Y-45720000D03*
D17*
%TO.P,Q2,2,B*%
%TO.N,Net-(Q2-B)*%
X109220000Y-43180000D03*
%TO.P,Q2,3,C*%
%TO.N,Net-(D2-A)*%
X111760000Y-40640000D03*
%TD*%
D18*
%TO.P,R5,1*%
%TO.N,/Door_Sensor*%
X68580000Y-45720000D03*
D19*
%TO.P,R5,2*%
%TO.N,GND*%
X68580000Y-53340000D03*
%TD*%
D24*
%TO.P,U1,16,TX*%
%TO.N,unconnected-(U1-TX-Pad16)*%
X77470000Y-35560000D03*
%TO.P,U1,15,RX*%
%TO.N,unconnected-(U1-RX-Pad15)*%
X77470000Y-38100000D03*
%TO.P,U1,14,SCL/D1*%
%TO.N,/Relay2*%
X77470000Y-40640000D03*
%TO.P,U1,13,SDA/D2*%
%TO.N,/Relay1*%
X77470000Y-43180000D03*
%TO.P,U1,12,D3*%
%TO.N,unconnected-(U1-D3-Pad12)*%
X77470000Y-45720000D03*
%TO.P,U1,11,D4*%
%TO.N,unconnected-(U1-D4-Pad11)*%
X77470000Y-48260000D03*
%TO.P,U1,10,GND*%
%TO.N,GND*%
X77470000Y-50800000D03*
%TO.P,U1,9,5V*%
%TO.N,+5V*%
X77470000Y-53340000D03*
%TO.P,U1,8,3V3*%
%TO.N,+3.3V*%
X54610000Y-53340000D03*
%TO.P,U1,7,CS/D8*%
%TO.N,unconnected-(U1-CS{slash}D8-Pad7)*%
X54610000Y-50800000D03*
%TO.P,U1,6,MOSI/D7*%
%TO.N,/Temp_Sensor*%
X54610000Y-48260000D03*
%TO.P,U1,5,MISO/D6*%
%TO.N,/Motion_Sensor*%
X54610000Y-45720000D03*
%TO.P,U1,4,SCK/D5*%
%TO.N,/Door_Sensor*%
X54610000Y-43180000D03*
%TO.P,U1,3,D0*%
%TO.N,unconnected-(U1-D0-Pad3)*%
X54610000Y-40640000D03*
%TO.P,U1,2,A0*%
%TO.N,unconnected-(U1-A0-Pad2)*%
X54610000Y-38100000D03*
D25*
%TO.P,U1,1,~{RST}*%
%TO.N,unconnected-(U1-~{RST}-Pad1)*%
X54610000Y-35560000D03*
%TD*%
D18*
%TO.P,R4,1*%
%TO.N,GND*%
X64770000Y-53340000D03*
D19*
%TO.P,R4,2*%
%TO.N,/Motion_Sensor*%
X64770000Y-45720000D03*
%TD*%
D22*
%TO.P,TempSensor1,1,Pin_1*%
%TO.N,+5V*%
X95290000Y-30480000D03*
D23*
%TO.P,TempSensor1,2,Pin_2*%
%TO.N,/Temp_Sensor*%
X97790000Y-30480000D03*
%TO.P,TempSensor1,3,Pin_3*%
%TO.N,GND*%
X100290000Y-30480000D03*
%TD*%
D26*
%TO.N,Net-(MotionSensor1-Pin_2)*%
X69850000Y-50800000D02*
X64255710Y-50800000D01*
X64255710Y-50800000D02*
X61705783Y-53349927D01*
X110490000Y-30480000D02*
X110490000Y-32255000D01*
X110490000Y-32255000D02*
X108585000Y-34160000D01*
X108585000Y-34160000D02*
X76330000Y-34160000D01*
X73660000Y-46990000D02*
X69850000Y-50800000D01*
X76330000Y-34160000D02*
X73660000Y-36830000D01*
X73660000Y-36830000D02*
X73660000Y-46990000D01*
D27*
%TO.N,/Relay1_NC*%
X97440000Y-77820000D02*
X96520000Y-78740000D01*
X97440000Y-69200000D02*
X97440000Y-77820000D01*
%TO.N,/Relay1_NO*%
X90740000Y-69150000D02*
X91440000Y-69850000D01*
X85390000Y-69150000D02*
X90740000Y-69150000D01*
X91440000Y-69850000D02*
X91440000Y-78740000D01*
%TO.N,/R2_NC*%
X113390206Y-78740000D02*
X113390206Y-70239286D01*
X113390206Y-70239286D02*
X114429492Y-69200000D01*
%TO.N,/R2_COM*%
X108429492Y-78659749D02*
X108429414Y-78659827D01*
X108429492Y-55000000D02*
X108429492Y-78659749D01*
%TO.N,/R2_NO*%
X103230206Y-70000714D02*
X102379492Y-69150000D01*
X103230206Y-78740000D02*
X103230206Y-70000714D01*
%TO.N,+12V*%
X114300000Y-27940000D02*
X109220000Y-27940000D01*
X83590000Y-64770000D02*
X91440000Y-64770000D01*
X117399492Y-31039492D02*
X114300000Y-27940000D01*
X117399492Y-79450508D02*
X117399492Y-31039492D01*
X80010000Y-85090000D02*
X111760000Y-85090000D01*
X107990000Y-29170000D02*
X107990000Y-30480000D01*
X73660000Y-78740000D02*
X73660000Y-79130000D01*
X91440000Y-64770000D02*
X91440000Y-55000000D01*
X73660000Y-79130000D02*
X68060000Y-84730000D01*
X73660000Y-74700000D02*
X83590000Y-64770000D01*
X111760000Y-85090000D02*
X117399492Y-79450508D01*
X68060000Y-84730000D02*
X65860000Y-84730000D01*
X73660000Y-78740000D02*
X80010000Y-85090000D01*
X73660000Y-78740000D02*
X73660000Y-74700000D01*
X109220000Y-27940000D02*
X107990000Y-29170000D01*
D28*
%TO.N,GND*%
X96020000Y-45720000D02*
X99225000Y-48925000D01*
X99225000Y-48925000D02*
X108555000Y-48925000D01*
X77470000Y-50800000D02*
X78106356Y-50163644D01*
X76835000Y-51435000D02*
X74930000Y-53340000D01*
X91576356Y-50163644D02*
X96020000Y-45720000D01*
X74930000Y-53340000D02*
X68580000Y-53340000D01*
X59690000Y-61100000D02*
X55860000Y-64930000D01*
X67170000Y-61100000D02*
X76835000Y-51435000D01*
X77470000Y-50800000D02*
X76835000Y-51435000D01*
X78106356Y-50163644D02*
X91576356Y-50163644D01*
X68580000Y-53340000D02*
X64770000Y-53340000D01*
X108555000Y-48925000D02*
X111760000Y-45720000D01*
X59690000Y-61100000D02*
X67170000Y-61100000D01*
D26*
%TO.N,/Door_Sensor*%
X66040000Y-43180000D02*
X68580000Y-45720000D01*
X54610000Y-43180000D02*
X66040000Y-43180000D01*
X68580000Y-36830000D02*
X74930000Y-30480000D01*
X74930000Y-30480000D02*
X85130000Y-30480000D01*
X68580000Y-45720000D02*
X68580000Y-36830000D01*
D29*
%TO.N,+5V*%
X85090000Y-56650000D02*
X85390000Y-56950000D01*
D26*
%TO.N,/Temp_Sensor*%
X54610000Y-48260000D02*
X68580000Y-48260000D01*
X75591650Y-32358350D02*
X97181650Y-32358350D01*
X68580000Y-48260000D02*
X71120000Y-45720000D01*
X71120000Y-45720000D02*
X71120000Y-36830000D01*
X97181650Y-32358350D02*
X97790000Y-31750000D01*
X71120000Y-36830000D02*
X75591650Y-32358350D01*
X97790000Y-31750000D02*
X97790000Y-30480000D01*
%TO.N,/Relay1*%
X77470000Y-43180000D02*
X81280000Y-39370000D01*
%TO.N,/Relay2*%
X80140000Y-37970000D02*
X83690000Y-37970000D01*
X83690000Y-37970000D02*
X85090000Y-39370000D01*
X77470000Y-40640000D02*
X80140000Y-37970000D01*
D28*
%TO.N,+3.3V*%
X87630000Y-28210000D02*
X87630000Y-30480000D01*
X52070000Y-29210000D02*
X54610000Y-26670000D01*
X54610000Y-53340000D02*
X52070000Y-50800000D01*
X54610000Y-26670000D02*
X86090000Y-26670000D01*
X52070000Y-50800000D02*
X52070000Y-29210000D01*
X86090000Y-26670000D02*
X87630000Y-28210000D01*
D26*
%TO.N,/Motion_Sensor*%
X62230000Y-45720000D02*
X54610000Y-45720000D01*
X64770000Y-45720000D02*
X62230000Y-45720000D01*
D29*
%TO.N,Net-(D1-A)*%
X97790000Y-56550000D02*
X97390000Y-56950000D01*
D26*
X90170000Y-39370000D02*
X94750000Y-39370000D01*
X94750000Y-39370000D02*
X96020000Y-40640000D01*
%TO.N,Net-(Q1-B)*%
X85090000Y-43180000D02*
X93480000Y-43180000D01*
X81280000Y-46990000D02*
X85090000Y-43180000D01*
%TO.N,Net-(D2-A)*%
X105410000Y-39370000D02*
X110490000Y-39370000D01*
X110490000Y-39370000D02*
X111760000Y-40640000D01*
%TO.N,Net-(Q2-B)*%
X85090000Y-46990000D02*
X87550000Y-44530000D01*
X87550000Y-44530000D02*
X94510000Y-44530000D01*
X94510000Y-44530000D02*
X95860000Y-43180000D01*
X95860000Y-43180000D02*
X109220000Y-43180000D01*
%TD*%
M02*
