%TF.GenerationSoftware,KiCad,Pcbnew,7.0.10*%
%TF.CreationDate,2024-02-08T08:12:44+01:00*%
%TF.ProjectId,door_relay_sensor,646f6f72-5f72-4656-9c61-795f73656e73,rev?*%
%TF.SameCoordinates,Original*%
%TF.FileFunction,Profile,NP*%
%FSLAX46Y46*%
G04 Gerber Fmt 4.6, Leading zero omitted, Abs format (unit mm)*
G04 Created by KiCad (PCBNEW 7.0.10) date 2024-02-08 08:12:44*
%MOMM*%
%LPD*%
G01*
G04 APERTURE LIST*
%TA.AperFunction,Profile*%
%ADD10C,0.200000*%
%TD*%
G04 APERTURE END LIST*
D10*
X112235694Y-54583435D02*
G75*
G03*
X104615694Y-54583435I-3810000J0D01*
G01*
X93980028Y-57149999D02*
G75*
G03*
X95195417Y-57148480I607672J18499D01*
G01*
X119379999Y-30480000D02*
G75*
G03*
X114300000Y-25400001I-5079999J0D01*
G01*
X50800000Y-88900000D02*
G75*
G03*
X55880000Y-93980000I5080000J0D01*
G01*
X87630000Y-54610000D02*
X87730918Y-57150001D01*
X93980000Y-54610000D02*
G75*
G03*
X88900000Y-54610000I-2540000J0D01*
G01*
X55880000Y-93980000D02*
X114300000Y-93980000D01*
X114300000Y-93980000D02*
G75*
G03*
X119380000Y-88900000I0J5080000D01*
G01*
X110965694Y-54583435D02*
X110965695Y-57123435D01*
X110965734Y-57123434D02*
G75*
G03*
X112181111Y-57121915I607666J18434D01*
G01*
X88900000Y-54610000D02*
X88900000Y-57150000D01*
X104716706Y-57123436D02*
G75*
G03*
X105885694Y-57123435I584494J36D01*
G01*
X50800000Y-30480000D02*
X50800000Y-88900000D01*
X110965694Y-54583435D02*
G75*
G03*
X105885694Y-54583435I-2540000J0D01*
G01*
X55880000Y-25400000D02*
G75*
G03*
X50800000Y-30480000I0J-5080000D01*
G01*
X95250000Y-54610000D02*
X95195417Y-57148480D01*
X114300000Y-25400001D02*
X55880000Y-25400000D01*
X105885694Y-54583435D02*
X105885694Y-57123435D01*
X119380000Y-88900000D02*
X119379999Y-30480000D01*
X112235694Y-54583435D02*
X112181111Y-57121915D01*
X93980000Y-54610000D02*
X93980001Y-57150000D01*
X95250000Y-54610000D02*
G75*
G03*
X87630000Y-54610000I-3810000J0D01*
G01*
X87731000Y-57150001D02*
G75*
G03*
X88900000Y-57150000I584500J101D01*
G01*
X104615694Y-54583435D02*
X104716612Y-57123436D01*
M02*
