M48
; DRILL file {KiCad 7.0.10} date Thu Feb  8 08:15:38 2024
; FORMAT={-:-/ absolute / metric / decimal}
; #@! TF.CreationDate,2024-02-08T08:15:38+01:00
; #@! TF.GenerationSoftware,Kicad,Pcbnew,7.0.10
; #@! TF.FileFunction,Plated,1,2,PTH
FMAT,2
METRIC
; #@! TA.AperFunction,Plated,PTH,ComponentDrill
T1C0.800
; #@! TA.AperFunction,Plated,PTH,ComponentDrill
T2C0.950
; #@! TA.AperFunction,Plated,PTH,ComponentDrill
T3C1.000
; #@! TA.AperFunction,Plated,PTH,ComponentDrill
T4C1.100
; #@! TA.AperFunction,Plated,PTH,ComponentDrill
T5C1.300
; #@! TA.AperFunction,Plated,PTH,ComponentDrill
T6C1.520
%
G90
G05
T1
X61.706Y-45.73
X61.706Y-53.35
X64.77Y-45.72
X64.77Y-53.34
X68.58Y-45.72
X68.58Y-53.34
X81.28Y-39.37
X81.28Y-46.99
X85.09Y-39.37
X85.09Y-46.99
X93.48Y-43.18
X96.02Y-40.64
X96.02Y-45.72
X109.22Y-43.18
X111.76Y-40.64
X111.76Y-45.72
T2
X95.29Y-30.48
X97.79Y-30.48
X100.29Y-30.48
X107.99Y-30.48
X110.49Y-30.48
X112.99Y-30.48
T3
X54.61Y-35.56
X54.61Y-38.1
X54.61Y-40.64
X54.61Y-43.18
X54.61Y-45.72
X54.61Y-48.26
X54.61Y-50.8
X54.61Y-53.34
X77.47Y-35.56
X77.47Y-38.1
X77.47Y-40.64
X77.47Y-43.18
X77.47Y-45.72
X77.47Y-48.26
X77.47Y-50.8
X77.47Y-53.34
X85.13Y-30.48
X85.39Y-56.95
X87.63Y-30.48
X97.39Y-56.95
X102.367Y-56.96
X114.367Y-56.96
T4
X53.66Y-64.93
X53.66Y-84.73
X55.86Y-64.93
X55.86Y-84.73
X65.86Y-64.93
X65.86Y-84.73
X68.06Y-64.93
X68.06Y-84.73
X90.17Y-39.37
X90.17Y-46.99
X105.41Y-39.37
X105.41Y-46.99
T5
X85.39Y-69.15
X91.44Y-55.0
X97.44Y-69.2
X102.367Y-69.16
X108.417Y-55.01
X114.417Y-69.21
T6
X73.66Y-78.74
X78.74Y-78.74
X86.36Y-78.74
X91.44Y-78.74
X96.52Y-78.74
X103.23Y-78.74
X108.31Y-78.74
X113.39Y-78.74
M30
