%TF.GenerationSoftware,KiCad,Pcbnew,7.0.10*%
%TF.CreationDate,2024-02-08T08:15:40+01:00*%
%TF.ProjectId,door_relay_sensor,646f6f72-5f72-4656-9c61-795f73656e73,rev?*%
%TF.SameCoordinates,Original*%
%TF.FileFunction,Drillmap*%
%TF.FilePolarity,Positive*%
%FSLAX45Y45*%
G04 Gerber Fmt 4.5, Leading zero omitted, Abs format (unit mm)*
G04 Created by KiCad (PCBNEW 7.0.10) date 2024-02-08 08:15:40*
%MOMM*%
%LPD*%
G01*
G04 APERTURE LIST*
%ADD10C,0.200000*%
%ADD11C,0.100000*%
%ADD12C,0.110000*%
%ADD13C,0.130000*%
%ADD14C,0.152000*%
G04 APERTURE END LIST*
D10*
X11223569Y-5458344D02*
G75*
G03*
X10461569Y-5458344I-381000J0D01*
G01*
X9398003Y-5715000D02*
G75*
G03*
X9519542Y-5714848I60767J1850D01*
G01*
X11938000Y-3048000D02*
G75*
G03*
X11430000Y-2540000I-508000J0D01*
G01*
X5080000Y-8890000D02*
G75*
G03*
X5588000Y-9398000I508000J0D01*
G01*
X8763000Y-5461000D02*
X8773092Y-5715000D01*
X9398000Y-5461000D02*
G75*
G03*
X8890000Y-5461000I-254000J0D01*
G01*
X5588000Y-9398000D02*
X11430000Y-9398000D01*
X11430000Y-9398000D02*
G75*
G03*
X11938000Y-8890000I0J508000D01*
G01*
X11096569Y-5458344D02*
X11096570Y-5712343D01*
X11096573Y-5712343D02*
G75*
G03*
X11218111Y-5712191I60767J1843D01*
G01*
X8890000Y-5461000D02*
X8890000Y-5715000D01*
X10471671Y-5712344D02*
G75*
G03*
X10588569Y-5712343I58449J4D01*
G01*
X5080000Y-3048000D02*
X5080000Y-8890000D01*
X11096569Y-5458344D02*
G75*
G03*
X10588569Y-5458344I-254000J0D01*
G01*
X5588000Y-2540000D02*
G75*
G03*
X5080000Y-3048000I0J-508000D01*
G01*
X9525000Y-5461000D02*
X9519542Y-5714848D01*
X11430000Y-2540000D02*
X5588000Y-2540000D01*
X10588569Y-5458344D02*
X10588569Y-5712343D01*
X11938000Y-8890000D02*
X11938000Y-3048000D01*
X11223569Y-5458344D02*
X11218111Y-5712191D01*
X9398000Y-5461000D02*
X9398000Y-5715000D01*
X9525000Y-5461000D02*
G75*
G03*
X8763000Y-5461000I-381000J0D01*
G01*
X8773100Y-5715000D02*
G75*
G03*
X8890000Y-5715000I58450J10D01*
G01*
X10461569Y-5458344D02*
X10471661Y-5712344D01*
D11*
X6130578Y-4532993D02*
X6210578Y-4612993D01*
X6210578Y-4532993D02*
X6130578Y-4612993D01*
X6130578Y-5294993D02*
X6210578Y-5374993D01*
X6210578Y-5294993D02*
X6130578Y-5374993D01*
X6437000Y-4532000D02*
X6517000Y-4612000D01*
X6517000Y-4532000D02*
X6437000Y-4612000D01*
X6437000Y-5294000D02*
X6517000Y-5374000D01*
X6517000Y-5294000D02*
X6437000Y-5374000D01*
X6818000Y-4532000D02*
X6898000Y-4612000D01*
X6898000Y-4532000D02*
X6818000Y-4612000D01*
X6818000Y-5294000D02*
X6898000Y-5374000D01*
X6898000Y-5294000D02*
X6818000Y-5374000D01*
X8088000Y-3897000D02*
X8168000Y-3977000D01*
X8168000Y-3897000D02*
X8088000Y-3977000D01*
X8088000Y-4659000D02*
X8168000Y-4739000D01*
X8168000Y-4659000D02*
X8088000Y-4739000D01*
X8469000Y-3897000D02*
X8549000Y-3977000D01*
X8549000Y-3897000D02*
X8469000Y-3977000D01*
X8469000Y-4659000D02*
X8549000Y-4739000D01*
X8549000Y-4659000D02*
X8469000Y-4739000D01*
X9308000Y-4278000D02*
X9388000Y-4358000D01*
X9388000Y-4278000D02*
X9308000Y-4358000D01*
X9562000Y-4024000D02*
X9642000Y-4104000D01*
X9642000Y-4024000D02*
X9562000Y-4104000D01*
X9562000Y-4532000D02*
X9642000Y-4612000D01*
X9642000Y-4532000D02*
X9562000Y-4612000D01*
X10882000Y-4278000D02*
X10962000Y-4358000D01*
X10962000Y-4278000D02*
X10882000Y-4358000D01*
X11136000Y-4024000D02*
X11216000Y-4104000D01*
X11216000Y-4024000D02*
X11136000Y-4104000D01*
X11136000Y-4532000D02*
X11216000Y-4612000D01*
X11216000Y-4532000D02*
X11136000Y-4612000D01*
X9576500Y-3048000D02*
G75*
G03*
X9481500Y-3048000I-47500J0D01*
G01*
X9481500Y-3048000D02*
G75*
G03*
X9576500Y-3048000I47500J0D01*
G01*
X9826500Y-3048000D02*
G75*
G03*
X9731500Y-3048000I-47500J0D01*
G01*
X9731500Y-3048000D02*
G75*
G03*
X9826500Y-3048000I47500J0D01*
G01*
X10076500Y-3048000D02*
G75*
G03*
X9981500Y-3048000I-47500J0D01*
G01*
X9981500Y-3048000D02*
G75*
G03*
X10076500Y-3048000I47500J0D01*
G01*
X10846500Y-3048000D02*
G75*
G03*
X10751500Y-3048000I-47500J0D01*
G01*
X10751500Y-3048000D02*
G75*
G03*
X10846500Y-3048000I47500J0D01*
G01*
X11096500Y-3048000D02*
G75*
G03*
X11001500Y-3048000I-47500J0D01*
G01*
X11001500Y-3048000D02*
G75*
G03*
X11096500Y-3048000I47500J0D01*
G01*
X11346500Y-3048000D02*
G75*
G03*
X11251500Y-3048000I-47500J0D01*
G01*
X11251500Y-3048000D02*
G75*
G03*
X11346500Y-3048000I47500J0D01*
G01*
X5461000Y-3506000D02*
X5461000Y-3606000D01*
X5411000Y-3556000D02*
X5511000Y-3556000D01*
X5461000Y-3760000D02*
X5461000Y-3860000D01*
X5411000Y-3810000D02*
X5511000Y-3810000D01*
X5461000Y-4014000D02*
X5461000Y-4114000D01*
X5411000Y-4064000D02*
X5511000Y-4064000D01*
X5461000Y-4268000D02*
X5461000Y-4368000D01*
X5411000Y-4318000D02*
X5511000Y-4318000D01*
X5461000Y-4522000D02*
X5461000Y-4622000D01*
X5411000Y-4572000D02*
X5511000Y-4572000D01*
X5461000Y-4776000D02*
X5461000Y-4876000D01*
X5411000Y-4826000D02*
X5511000Y-4826000D01*
X5461000Y-5030000D02*
X5461000Y-5130000D01*
X5411000Y-5080000D02*
X5511000Y-5080000D01*
X5461000Y-5284000D02*
X5461000Y-5384000D01*
X5411000Y-5334000D02*
X5511000Y-5334000D01*
X7747000Y-3506000D02*
X7747000Y-3606000D01*
X7697000Y-3556000D02*
X7797000Y-3556000D01*
X7747000Y-3760000D02*
X7747000Y-3860000D01*
X7697000Y-3810000D02*
X7797000Y-3810000D01*
X7747000Y-4014000D02*
X7747000Y-4114000D01*
X7697000Y-4064000D02*
X7797000Y-4064000D01*
X7747000Y-4268000D02*
X7747000Y-4368000D01*
X7697000Y-4318000D02*
X7797000Y-4318000D01*
X7747000Y-4522000D02*
X7747000Y-4622000D01*
X7697000Y-4572000D02*
X7797000Y-4572000D01*
X7747000Y-4776000D02*
X7747000Y-4876000D01*
X7697000Y-4826000D02*
X7797000Y-4826000D01*
X7747000Y-5030000D02*
X7747000Y-5130000D01*
X7697000Y-5080000D02*
X7797000Y-5080000D01*
X7747000Y-5284000D02*
X7747000Y-5384000D01*
X7697000Y-5334000D02*
X7797000Y-5334000D01*
X8513000Y-2998000D02*
X8513000Y-3098000D01*
X8463000Y-3048000D02*
X8563000Y-3048000D01*
X8539000Y-5645000D02*
X8539000Y-5745000D01*
X8489000Y-5695000D02*
X8589000Y-5695000D01*
X8763000Y-2998000D02*
X8763000Y-3098000D01*
X8713000Y-3048000D02*
X8813000Y-3048000D01*
X9739000Y-5645000D02*
X9739000Y-5745000D01*
X9689000Y-5695000D02*
X9789000Y-5695000D01*
X10236682Y-5645956D02*
X10236682Y-5745956D01*
X10186682Y-5695956D02*
X10286682Y-5695956D01*
X11436682Y-5645956D02*
X11436682Y-5745956D01*
X11386682Y-5695956D02*
X11486682Y-5695956D01*
D12*
X5404891Y-6531891D02*
X5404891Y-6454109D01*
X5327109Y-6454109D01*
X5327109Y-6531891D01*
X5404891Y-6531891D01*
X5404891Y-8511891D02*
X5404891Y-8434109D01*
X5327109Y-8434109D01*
X5327109Y-8511891D01*
X5404891Y-8511891D01*
X5624891Y-6531891D02*
X5624891Y-6454109D01*
X5547109Y-6454109D01*
X5547109Y-6531891D01*
X5624891Y-6531891D01*
X5624891Y-8511891D02*
X5624891Y-8434109D01*
X5547109Y-8434109D01*
X5547109Y-8511891D01*
X5624891Y-8511891D01*
X6624891Y-6531891D02*
X6624891Y-6454109D01*
X6547109Y-6454109D01*
X6547109Y-6531891D01*
X6624891Y-6531891D01*
X6624891Y-8511891D02*
X6624891Y-8434109D01*
X6547109Y-8434109D01*
X6547109Y-8511891D01*
X6624891Y-8511891D01*
X6844891Y-6531891D02*
X6844891Y-6454109D01*
X6767109Y-6454109D01*
X6767109Y-6531891D01*
X6844891Y-6531891D01*
X6844891Y-8511891D02*
X6844891Y-8434109D01*
X6767109Y-8434109D01*
X6767109Y-8511891D01*
X6844891Y-8511891D01*
X9055891Y-3975891D02*
X9055891Y-3898109D01*
X8978109Y-3898109D01*
X8978109Y-3975891D01*
X9055891Y-3975891D01*
X9055891Y-4737891D02*
X9055891Y-4660109D01*
X8978109Y-4660109D01*
X8978109Y-4737891D01*
X9055891Y-4737891D01*
X10579891Y-3975891D02*
X10579891Y-3898109D01*
X10502109Y-3898109D01*
X10502109Y-3975891D01*
X10579891Y-3975891D01*
X10579891Y-4737891D02*
X10579891Y-4660109D01*
X10502109Y-4660109D01*
X10502109Y-4737891D01*
X10579891Y-4737891D01*
D13*
X8539000Y-6980000D02*
X8604000Y-6915000D01*
X8539000Y-6850000D01*
X8474000Y-6915000D01*
X8539000Y-6980000D01*
X9144000Y-5565000D02*
X9209000Y-5500000D01*
X9144000Y-5435000D01*
X9079000Y-5500000D01*
X9144000Y-5565000D01*
X9744000Y-6985000D02*
X9809000Y-6920000D01*
X9744000Y-6855000D01*
X9679000Y-6920000D01*
X9744000Y-6985000D01*
X10236682Y-6980956D02*
X10301682Y-6915956D01*
X10236682Y-6850956D01*
X10171682Y-6915956D01*
X10236682Y-6980956D01*
X10841682Y-5565956D02*
X10906682Y-5500956D01*
X10841682Y-5435956D01*
X10776682Y-5500956D01*
X10841682Y-5565956D01*
X11441682Y-6985956D02*
X11506682Y-6920956D01*
X11441682Y-6855956D01*
X11376682Y-6920956D01*
X11441682Y-6985956D01*
D14*
X7290000Y-7798000D02*
X7442000Y-7950000D01*
X7442000Y-7798000D02*
X7290000Y-7950000D01*
X7442000Y-7874000D02*
G75*
G03*
X7290000Y-7874000I-76000J0D01*
G01*
X7290000Y-7874000D02*
G75*
G03*
X7442000Y-7874000I76000J0D01*
G01*
X7798000Y-7798000D02*
X7950000Y-7950000D01*
X7950000Y-7798000D02*
X7798000Y-7950000D01*
X7950000Y-7874000D02*
G75*
G03*
X7798000Y-7874000I-76000J0D01*
G01*
X7798000Y-7874000D02*
G75*
G03*
X7950000Y-7874000I76000J0D01*
G01*
X8560000Y-7798000D02*
X8712000Y-7950000D01*
X8712000Y-7798000D02*
X8560000Y-7950000D01*
X8712000Y-7874000D02*
G75*
G03*
X8560000Y-7874000I-76000J0D01*
G01*
X8560000Y-7874000D02*
G75*
G03*
X8712000Y-7874000I76000J0D01*
G01*
X9068000Y-7798000D02*
X9220000Y-7950000D01*
X9220000Y-7798000D02*
X9068000Y-7950000D01*
X9220000Y-7874000D02*
G75*
G03*
X9068000Y-7874000I-76000J0D01*
G01*
X9068000Y-7874000D02*
G75*
G03*
X9220000Y-7874000I76000J0D01*
G01*
X9576000Y-7798000D02*
X9728000Y-7950000D01*
X9728000Y-7798000D02*
X9576000Y-7950000D01*
X9728000Y-7874000D02*
G75*
G03*
X9576000Y-7874000I-76000J0D01*
G01*
X9576000Y-7874000D02*
G75*
G03*
X9728000Y-7874000I76000J0D01*
G01*
X10247021Y-7798000D02*
X10399021Y-7950000D01*
X10399021Y-7798000D02*
X10247021Y-7950000D01*
X10399021Y-7874000D02*
G75*
G03*
X10247021Y-7874000I-76000J0D01*
G01*
X10247021Y-7874000D02*
G75*
G03*
X10399021Y-7874000I76000J0D01*
G01*
X10755021Y-7798000D02*
X10907021Y-7950000D01*
X10907021Y-7798000D02*
X10755021Y-7950000D01*
X10907021Y-7874000D02*
G75*
G03*
X10755021Y-7874000I-76000J0D01*
G01*
X10755021Y-7874000D02*
G75*
G03*
X10907021Y-7874000I76000J0D01*
G01*
X11263021Y-7798000D02*
X11415021Y-7950000D01*
X11415021Y-7798000D02*
X11263021Y-7950000D01*
X11415021Y-7874000D02*
G75*
G03*
X11263021Y-7874000I-76000J0D01*
G01*
X11263021Y-7874000D02*
G75*
G03*
X11415021Y-7874000I76000J0D01*
G01*
D10*
X5330777Y-9719484D02*
X5330777Y-9519484D01*
X5330777Y-9519484D02*
X5378396Y-9519484D01*
X5378396Y-9519484D02*
X5406967Y-9529008D01*
X5406967Y-9529008D02*
X5426015Y-9548055D01*
X5426015Y-9548055D02*
X5435539Y-9567103D01*
X5435539Y-9567103D02*
X5445063Y-9605198D01*
X5445063Y-9605198D02*
X5445063Y-9633770D01*
X5445063Y-9633770D02*
X5435539Y-9671865D01*
X5435539Y-9671865D02*
X5426015Y-9690912D01*
X5426015Y-9690912D02*
X5406967Y-9709960D01*
X5406967Y-9709960D02*
X5378396Y-9719484D01*
X5378396Y-9719484D02*
X5330777Y-9719484D01*
X5530777Y-9719484D02*
X5530777Y-9586150D01*
X5530777Y-9624246D02*
X5540301Y-9605198D01*
X5540301Y-9605198D02*
X5549824Y-9595674D01*
X5549824Y-9595674D02*
X5568872Y-9586150D01*
X5568872Y-9586150D02*
X5587920Y-9586150D01*
X5654586Y-9719484D02*
X5654586Y-9586150D01*
X5654586Y-9519484D02*
X5645062Y-9529008D01*
X5645062Y-9529008D02*
X5654586Y-9538531D01*
X5654586Y-9538531D02*
X5664110Y-9529008D01*
X5664110Y-9529008D02*
X5654586Y-9519484D01*
X5654586Y-9519484D02*
X5654586Y-9538531D01*
X5778396Y-9719484D02*
X5759348Y-9709960D01*
X5759348Y-9709960D02*
X5749824Y-9690912D01*
X5749824Y-9690912D02*
X5749824Y-9519484D01*
X5883158Y-9719484D02*
X5864110Y-9709960D01*
X5864110Y-9709960D02*
X5854586Y-9690912D01*
X5854586Y-9690912D02*
X5854586Y-9519484D01*
X6111729Y-9719484D02*
X6111729Y-9519484D01*
X6111729Y-9519484D02*
X6178396Y-9662341D01*
X6178396Y-9662341D02*
X6245062Y-9519484D01*
X6245062Y-9519484D02*
X6245062Y-9719484D01*
X6426015Y-9719484D02*
X6426015Y-9614722D01*
X6426015Y-9614722D02*
X6416491Y-9595674D01*
X6416491Y-9595674D02*
X6397443Y-9586150D01*
X6397443Y-9586150D02*
X6359348Y-9586150D01*
X6359348Y-9586150D02*
X6340301Y-9595674D01*
X6426015Y-9709960D02*
X6406967Y-9719484D01*
X6406967Y-9719484D02*
X6359348Y-9719484D01*
X6359348Y-9719484D02*
X6340301Y-9709960D01*
X6340301Y-9709960D02*
X6330777Y-9690912D01*
X6330777Y-9690912D02*
X6330777Y-9671865D01*
X6330777Y-9671865D02*
X6340301Y-9652817D01*
X6340301Y-9652817D02*
X6359348Y-9643293D01*
X6359348Y-9643293D02*
X6406967Y-9643293D01*
X6406967Y-9643293D02*
X6426015Y-9633770D01*
X6521253Y-9586150D02*
X6521253Y-9786150D01*
X6521253Y-9595674D02*
X6540301Y-9586150D01*
X6540301Y-9586150D02*
X6578396Y-9586150D01*
X6578396Y-9586150D02*
X6597443Y-9595674D01*
X6597443Y-9595674D02*
X6606967Y-9605198D01*
X6606967Y-9605198D02*
X6616491Y-9624246D01*
X6616491Y-9624246D02*
X6616491Y-9681389D01*
X6616491Y-9681389D02*
X6606967Y-9700436D01*
X6606967Y-9700436D02*
X6597443Y-9709960D01*
X6597443Y-9709960D02*
X6578396Y-9719484D01*
X6578396Y-9719484D02*
X6540301Y-9719484D01*
X6540301Y-9719484D02*
X6521253Y-9709960D01*
X6702205Y-9700436D02*
X6711729Y-9709960D01*
X6711729Y-9709960D02*
X6702205Y-9719484D01*
X6702205Y-9719484D02*
X6692682Y-9709960D01*
X6692682Y-9709960D02*
X6702205Y-9700436D01*
X6702205Y-9700436D02*
X6702205Y-9719484D01*
X6702205Y-9595674D02*
X6711729Y-9605198D01*
X6711729Y-9605198D02*
X6702205Y-9614722D01*
X6702205Y-9614722D02*
X6692682Y-9605198D01*
X6692682Y-9605198D02*
X6702205Y-9595674D01*
X6702205Y-9595674D02*
X6702205Y-9614722D01*
D11*
X4990000Y-10008000D02*
X5070000Y-10088000D01*
X5070000Y-10008000D02*
X4990000Y-10088000D01*
D10*
X5368872Y-9939484D02*
X5387920Y-9939484D01*
X5387920Y-9939484D02*
X5406967Y-9949008D01*
X5406967Y-9949008D02*
X5416491Y-9958531D01*
X5416491Y-9958531D02*
X5426015Y-9977579D01*
X5426015Y-9977579D02*
X5435539Y-10015674D01*
X5435539Y-10015674D02*
X5435539Y-10063293D01*
X5435539Y-10063293D02*
X5426015Y-10101389D01*
X5426015Y-10101389D02*
X5416491Y-10120436D01*
X5416491Y-10120436D02*
X5406967Y-10129960D01*
X5406967Y-10129960D02*
X5387920Y-10139484D01*
X5387920Y-10139484D02*
X5368872Y-10139484D01*
X5368872Y-10139484D02*
X5349824Y-10129960D01*
X5349824Y-10129960D02*
X5340301Y-10120436D01*
X5340301Y-10120436D02*
X5330777Y-10101389D01*
X5330777Y-10101389D02*
X5321253Y-10063293D01*
X5321253Y-10063293D02*
X5321253Y-10015674D01*
X5321253Y-10015674D02*
X5330777Y-9977579D01*
X5330777Y-9977579D02*
X5340301Y-9958531D01*
X5340301Y-9958531D02*
X5349824Y-9949008D01*
X5349824Y-9949008D02*
X5368872Y-9939484D01*
X5521253Y-10120436D02*
X5530777Y-10129960D01*
X5530777Y-10129960D02*
X5521253Y-10139484D01*
X5521253Y-10139484D02*
X5511729Y-10129960D01*
X5511729Y-10129960D02*
X5521253Y-10120436D01*
X5521253Y-10120436D02*
X5521253Y-10139484D01*
X5645062Y-10025198D02*
X5626015Y-10015674D01*
X5626015Y-10015674D02*
X5616491Y-10006150D01*
X5616491Y-10006150D02*
X5606967Y-9987103D01*
X5606967Y-9987103D02*
X5606967Y-9977579D01*
X5606967Y-9977579D02*
X5616491Y-9958531D01*
X5616491Y-9958531D02*
X5626015Y-9949008D01*
X5626015Y-9949008D02*
X5645062Y-9939484D01*
X5645062Y-9939484D02*
X5683158Y-9939484D01*
X5683158Y-9939484D02*
X5702205Y-9949008D01*
X5702205Y-9949008D02*
X5711729Y-9958531D01*
X5711729Y-9958531D02*
X5721253Y-9977579D01*
X5721253Y-9977579D02*
X5721253Y-9987103D01*
X5721253Y-9987103D02*
X5711729Y-10006150D01*
X5711729Y-10006150D02*
X5702205Y-10015674D01*
X5702205Y-10015674D02*
X5683158Y-10025198D01*
X5683158Y-10025198D02*
X5645062Y-10025198D01*
X5645062Y-10025198D02*
X5626015Y-10034722D01*
X5626015Y-10034722D02*
X5616491Y-10044246D01*
X5616491Y-10044246D02*
X5606967Y-10063293D01*
X5606967Y-10063293D02*
X5606967Y-10101389D01*
X5606967Y-10101389D02*
X5616491Y-10120436D01*
X5616491Y-10120436D02*
X5626015Y-10129960D01*
X5626015Y-10129960D02*
X5645062Y-10139484D01*
X5645062Y-10139484D02*
X5683158Y-10139484D01*
X5683158Y-10139484D02*
X5702205Y-10129960D01*
X5702205Y-10129960D02*
X5711729Y-10120436D01*
X5711729Y-10120436D02*
X5721253Y-10101389D01*
X5721253Y-10101389D02*
X5721253Y-10063293D01*
X5721253Y-10063293D02*
X5711729Y-10044246D01*
X5711729Y-10044246D02*
X5702205Y-10034722D01*
X5702205Y-10034722D02*
X5683158Y-10025198D01*
X5845062Y-9939484D02*
X5864110Y-9939484D01*
X5864110Y-9939484D02*
X5883158Y-9949008D01*
X5883158Y-9949008D02*
X5892682Y-9958531D01*
X5892682Y-9958531D02*
X5902205Y-9977579D01*
X5902205Y-9977579D02*
X5911729Y-10015674D01*
X5911729Y-10015674D02*
X5911729Y-10063293D01*
X5911729Y-10063293D02*
X5902205Y-10101389D01*
X5902205Y-10101389D02*
X5892682Y-10120436D01*
X5892682Y-10120436D02*
X5883158Y-10129960D01*
X5883158Y-10129960D02*
X5864110Y-10139484D01*
X5864110Y-10139484D02*
X5845062Y-10139484D01*
X5845062Y-10139484D02*
X5826015Y-10129960D01*
X5826015Y-10129960D02*
X5816491Y-10120436D01*
X5816491Y-10120436D02*
X5806967Y-10101389D01*
X5806967Y-10101389D02*
X5797443Y-10063293D01*
X5797443Y-10063293D02*
X5797443Y-10015674D01*
X5797443Y-10015674D02*
X5806967Y-9977579D01*
X5806967Y-9977579D02*
X5816491Y-9958531D01*
X5816491Y-9958531D02*
X5826015Y-9949008D01*
X5826015Y-9949008D02*
X5845062Y-9939484D01*
X6035539Y-9939484D02*
X6054586Y-9939484D01*
X6054586Y-9939484D02*
X6073634Y-9949008D01*
X6073634Y-9949008D02*
X6083158Y-9958531D01*
X6083158Y-9958531D02*
X6092682Y-9977579D01*
X6092682Y-9977579D02*
X6102205Y-10015674D01*
X6102205Y-10015674D02*
X6102205Y-10063293D01*
X6102205Y-10063293D02*
X6092682Y-10101389D01*
X6092682Y-10101389D02*
X6083158Y-10120436D01*
X6083158Y-10120436D02*
X6073634Y-10129960D01*
X6073634Y-10129960D02*
X6054586Y-10139484D01*
X6054586Y-10139484D02*
X6035539Y-10139484D01*
X6035539Y-10139484D02*
X6016491Y-10129960D01*
X6016491Y-10129960D02*
X6006967Y-10120436D01*
X6006967Y-10120436D02*
X5997443Y-10101389D01*
X5997443Y-10101389D02*
X5987920Y-10063293D01*
X5987920Y-10063293D02*
X5987920Y-10015674D01*
X5987920Y-10015674D02*
X5997443Y-9977579D01*
X5997443Y-9977579D02*
X6006967Y-9958531D01*
X6006967Y-9958531D02*
X6016491Y-9949008D01*
X6016491Y-9949008D02*
X6035539Y-9939484D01*
X6187920Y-10139484D02*
X6187920Y-10006150D01*
X6187920Y-10025198D02*
X6197443Y-10015674D01*
X6197443Y-10015674D02*
X6216491Y-10006150D01*
X6216491Y-10006150D02*
X6245063Y-10006150D01*
X6245063Y-10006150D02*
X6264110Y-10015674D01*
X6264110Y-10015674D02*
X6273634Y-10034722D01*
X6273634Y-10034722D02*
X6273634Y-10139484D01*
X6273634Y-10034722D02*
X6283158Y-10015674D01*
X6283158Y-10015674D02*
X6302205Y-10006150D01*
X6302205Y-10006150D02*
X6330777Y-10006150D01*
X6330777Y-10006150D02*
X6349824Y-10015674D01*
X6349824Y-10015674D02*
X6359348Y-10034722D01*
X6359348Y-10034722D02*
X6359348Y-10139484D01*
X6454586Y-10139484D02*
X6454586Y-10006150D01*
X6454586Y-10025198D02*
X6464110Y-10015674D01*
X6464110Y-10015674D02*
X6483158Y-10006150D01*
X6483158Y-10006150D02*
X6511729Y-10006150D01*
X6511729Y-10006150D02*
X6530777Y-10015674D01*
X6530777Y-10015674D02*
X6540301Y-10034722D01*
X6540301Y-10034722D02*
X6540301Y-10139484D01*
X6540301Y-10034722D02*
X6549824Y-10015674D01*
X6549824Y-10015674D02*
X6568872Y-10006150D01*
X6568872Y-10006150D02*
X6597443Y-10006150D01*
X6597443Y-10006150D02*
X6616491Y-10015674D01*
X6616491Y-10015674D02*
X6626015Y-10034722D01*
X6626015Y-10034722D02*
X6626015Y-10139484D01*
X7016491Y-9929960D02*
X6845063Y-10187103D01*
X7273634Y-9939484D02*
X7292682Y-9939484D01*
X7292682Y-9939484D02*
X7311729Y-9949008D01*
X7311729Y-9949008D02*
X7321253Y-9958531D01*
X7321253Y-9958531D02*
X7330777Y-9977579D01*
X7330777Y-9977579D02*
X7340301Y-10015674D01*
X7340301Y-10015674D02*
X7340301Y-10063293D01*
X7340301Y-10063293D02*
X7330777Y-10101389D01*
X7330777Y-10101389D02*
X7321253Y-10120436D01*
X7321253Y-10120436D02*
X7311729Y-10129960D01*
X7311729Y-10129960D02*
X7292682Y-10139484D01*
X7292682Y-10139484D02*
X7273634Y-10139484D01*
X7273634Y-10139484D02*
X7254586Y-10129960D01*
X7254586Y-10129960D02*
X7245063Y-10120436D01*
X7245063Y-10120436D02*
X7235539Y-10101389D01*
X7235539Y-10101389D02*
X7226015Y-10063293D01*
X7226015Y-10063293D02*
X7226015Y-10015674D01*
X7226015Y-10015674D02*
X7235539Y-9977579D01*
X7235539Y-9977579D02*
X7245063Y-9958531D01*
X7245063Y-9958531D02*
X7254586Y-9949008D01*
X7254586Y-9949008D02*
X7273634Y-9939484D01*
X7426015Y-10120436D02*
X7435539Y-10129960D01*
X7435539Y-10129960D02*
X7426015Y-10139484D01*
X7426015Y-10139484D02*
X7416491Y-10129960D01*
X7416491Y-10129960D02*
X7426015Y-10120436D01*
X7426015Y-10120436D02*
X7426015Y-10139484D01*
X7559348Y-9939484D02*
X7578396Y-9939484D01*
X7578396Y-9939484D02*
X7597444Y-9949008D01*
X7597444Y-9949008D02*
X7606967Y-9958531D01*
X7606967Y-9958531D02*
X7616491Y-9977579D01*
X7616491Y-9977579D02*
X7626015Y-10015674D01*
X7626015Y-10015674D02*
X7626015Y-10063293D01*
X7626015Y-10063293D02*
X7616491Y-10101389D01*
X7616491Y-10101389D02*
X7606967Y-10120436D01*
X7606967Y-10120436D02*
X7597444Y-10129960D01*
X7597444Y-10129960D02*
X7578396Y-10139484D01*
X7578396Y-10139484D02*
X7559348Y-10139484D01*
X7559348Y-10139484D02*
X7540301Y-10129960D01*
X7540301Y-10129960D02*
X7530777Y-10120436D01*
X7530777Y-10120436D02*
X7521253Y-10101389D01*
X7521253Y-10101389D02*
X7511729Y-10063293D01*
X7511729Y-10063293D02*
X7511729Y-10015674D01*
X7511729Y-10015674D02*
X7521253Y-9977579D01*
X7521253Y-9977579D02*
X7530777Y-9958531D01*
X7530777Y-9958531D02*
X7540301Y-9949008D01*
X7540301Y-9949008D02*
X7559348Y-9939484D01*
X7692682Y-9939484D02*
X7816491Y-9939484D01*
X7816491Y-9939484D02*
X7749825Y-10015674D01*
X7749825Y-10015674D02*
X7778396Y-10015674D01*
X7778396Y-10015674D02*
X7797444Y-10025198D01*
X7797444Y-10025198D02*
X7806967Y-10034722D01*
X7806967Y-10034722D02*
X7816491Y-10053770D01*
X7816491Y-10053770D02*
X7816491Y-10101389D01*
X7816491Y-10101389D02*
X7806967Y-10120436D01*
X7806967Y-10120436D02*
X7797444Y-10129960D01*
X7797444Y-10129960D02*
X7778396Y-10139484D01*
X7778396Y-10139484D02*
X7721253Y-10139484D01*
X7721253Y-10139484D02*
X7702206Y-10129960D01*
X7702206Y-10129960D02*
X7692682Y-10120436D01*
X8006967Y-10139484D02*
X7892682Y-10139484D01*
X7949825Y-10139484D02*
X7949825Y-9939484D01*
X7949825Y-9939484D02*
X7930777Y-9968055D01*
X7930777Y-9968055D02*
X7911729Y-9987103D01*
X7911729Y-9987103D02*
X7892682Y-9996627D01*
X8187920Y-9939484D02*
X8092682Y-9939484D01*
X8092682Y-9939484D02*
X8083158Y-10034722D01*
X8083158Y-10034722D02*
X8092682Y-10025198D01*
X8092682Y-10025198D02*
X8111729Y-10015674D01*
X8111729Y-10015674D02*
X8159348Y-10015674D01*
X8159348Y-10015674D02*
X8178396Y-10025198D01*
X8178396Y-10025198D02*
X8187920Y-10034722D01*
X8187920Y-10034722D02*
X8197444Y-10053770D01*
X8197444Y-10053770D02*
X8197444Y-10101389D01*
X8197444Y-10101389D02*
X8187920Y-10120436D01*
X8187920Y-10120436D02*
X8178396Y-10129960D01*
X8178396Y-10129960D02*
X8159348Y-10139484D01*
X8159348Y-10139484D02*
X8111729Y-10139484D01*
X8111729Y-10139484D02*
X8092682Y-10129960D01*
X8092682Y-10129960D02*
X8083158Y-10120436D01*
X8273634Y-9939484D02*
X8273634Y-9977579D01*
X8349825Y-9939484D02*
X8349825Y-9977579D01*
X8645063Y-10215674D02*
X8635539Y-10206150D01*
X8635539Y-10206150D02*
X8616491Y-10177579D01*
X8616491Y-10177579D02*
X8606968Y-10158531D01*
X8606968Y-10158531D02*
X8597444Y-10129960D01*
X8597444Y-10129960D02*
X8587920Y-10082341D01*
X8587920Y-10082341D02*
X8587920Y-10044246D01*
X8587920Y-10044246D02*
X8597444Y-9996627D01*
X8597444Y-9996627D02*
X8606968Y-9968055D01*
X8606968Y-9968055D02*
X8616491Y-9949008D01*
X8616491Y-9949008D02*
X8635539Y-9920436D01*
X8635539Y-9920436D02*
X8645063Y-9910912D01*
X8826015Y-10139484D02*
X8711730Y-10139484D01*
X8768872Y-10139484D02*
X8768872Y-9939484D01*
X8768872Y-9939484D02*
X8749825Y-9968055D01*
X8749825Y-9968055D02*
X8730777Y-9987103D01*
X8730777Y-9987103D02*
X8711730Y-9996627D01*
X8997444Y-9939484D02*
X8959349Y-9939484D01*
X8959349Y-9939484D02*
X8940301Y-9949008D01*
X8940301Y-9949008D02*
X8930777Y-9958531D01*
X8930777Y-9958531D02*
X8911730Y-9987103D01*
X8911730Y-9987103D02*
X8902206Y-10025198D01*
X8902206Y-10025198D02*
X8902206Y-10101389D01*
X8902206Y-10101389D02*
X8911730Y-10120436D01*
X8911730Y-10120436D02*
X8921253Y-10129960D01*
X8921253Y-10129960D02*
X8940301Y-10139484D01*
X8940301Y-10139484D02*
X8978396Y-10139484D01*
X8978396Y-10139484D02*
X8997444Y-10129960D01*
X8997444Y-10129960D02*
X9006968Y-10120436D01*
X9006968Y-10120436D02*
X9016491Y-10101389D01*
X9016491Y-10101389D02*
X9016491Y-10053770D01*
X9016491Y-10053770D02*
X9006968Y-10034722D01*
X9006968Y-10034722D02*
X8997444Y-10025198D01*
X8997444Y-10025198D02*
X8978396Y-10015674D01*
X8978396Y-10015674D02*
X8940301Y-10015674D01*
X8940301Y-10015674D02*
X8921253Y-10025198D01*
X8921253Y-10025198D02*
X8911730Y-10034722D01*
X8911730Y-10034722D02*
X8902206Y-10053770D01*
X9254587Y-10139484D02*
X9254587Y-9939484D01*
X9340301Y-10139484D02*
X9340301Y-10034722D01*
X9340301Y-10034722D02*
X9330777Y-10015674D01*
X9330777Y-10015674D02*
X9311730Y-10006150D01*
X9311730Y-10006150D02*
X9283158Y-10006150D01*
X9283158Y-10006150D02*
X9264111Y-10015674D01*
X9264111Y-10015674D02*
X9254587Y-10025198D01*
X9464111Y-10139484D02*
X9445063Y-10129960D01*
X9445063Y-10129960D02*
X9435539Y-10120436D01*
X9435539Y-10120436D02*
X9426015Y-10101389D01*
X9426015Y-10101389D02*
X9426015Y-10044246D01*
X9426015Y-10044246D02*
X9435539Y-10025198D01*
X9435539Y-10025198D02*
X9445063Y-10015674D01*
X9445063Y-10015674D02*
X9464111Y-10006150D01*
X9464111Y-10006150D02*
X9492682Y-10006150D01*
X9492682Y-10006150D02*
X9511730Y-10015674D01*
X9511730Y-10015674D02*
X9521253Y-10025198D01*
X9521253Y-10025198D02*
X9530777Y-10044246D01*
X9530777Y-10044246D02*
X9530777Y-10101389D01*
X9530777Y-10101389D02*
X9521253Y-10120436D01*
X9521253Y-10120436D02*
X9511730Y-10129960D01*
X9511730Y-10129960D02*
X9492682Y-10139484D01*
X9492682Y-10139484D02*
X9464111Y-10139484D01*
X9645063Y-10139484D02*
X9626015Y-10129960D01*
X9626015Y-10129960D02*
X9616492Y-10110912D01*
X9616492Y-10110912D02*
X9616492Y-9939484D01*
X9797444Y-10129960D02*
X9778396Y-10139484D01*
X9778396Y-10139484D02*
X9740301Y-10139484D01*
X9740301Y-10139484D02*
X9721253Y-10129960D01*
X9721253Y-10129960D02*
X9711730Y-10110912D01*
X9711730Y-10110912D02*
X9711730Y-10034722D01*
X9711730Y-10034722D02*
X9721253Y-10015674D01*
X9721253Y-10015674D02*
X9740301Y-10006150D01*
X9740301Y-10006150D02*
X9778396Y-10006150D01*
X9778396Y-10006150D02*
X9797444Y-10015674D01*
X9797444Y-10015674D02*
X9806968Y-10034722D01*
X9806968Y-10034722D02*
X9806968Y-10053770D01*
X9806968Y-10053770D02*
X9711730Y-10072817D01*
X9883158Y-10129960D02*
X9902206Y-10139484D01*
X9902206Y-10139484D02*
X9940301Y-10139484D01*
X9940301Y-10139484D02*
X9959349Y-10129960D01*
X9959349Y-10129960D02*
X9968873Y-10110912D01*
X9968873Y-10110912D02*
X9968873Y-10101389D01*
X9968873Y-10101389D02*
X9959349Y-10082341D01*
X9959349Y-10082341D02*
X9940301Y-10072817D01*
X9940301Y-10072817D02*
X9911730Y-10072817D01*
X9911730Y-10072817D02*
X9892682Y-10063293D01*
X9892682Y-10063293D02*
X9883158Y-10044246D01*
X9883158Y-10044246D02*
X9883158Y-10034722D01*
X9883158Y-10034722D02*
X9892682Y-10015674D01*
X9892682Y-10015674D02*
X9911730Y-10006150D01*
X9911730Y-10006150D02*
X9940301Y-10006150D01*
X9940301Y-10006150D02*
X9959349Y-10015674D01*
X10035539Y-10215674D02*
X10045063Y-10206150D01*
X10045063Y-10206150D02*
X10064111Y-10177579D01*
X10064111Y-10177579D02*
X10073634Y-10158531D01*
X10073634Y-10158531D02*
X10083158Y-10129960D01*
X10083158Y-10129960D02*
X10092682Y-10082341D01*
X10092682Y-10082341D02*
X10092682Y-10044246D01*
X10092682Y-10044246D02*
X10083158Y-9996627D01*
X10083158Y-9996627D02*
X10073634Y-9968055D01*
X10073634Y-9968055D02*
X10064111Y-9949008D01*
X10064111Y-9949008D02*
X10045063Y-9920436D01*
X10045063Y-9920436D02*
X10035539Y-9910912D01*
D11*
X5070000Y-10312000D02*
G75*
G03*
X4975000Y-10312000I-47500J0D01*
G01*
X4975000Y-10312000D02*
G75*
G03*
X5070000Y-10312000I47500J0D01*
G01*
D10*
X5368872Y-10203484D02*
X5387920Y-10203484D01*
X5387920Y-10203484D02*
X5406967Y-10213008D01*
X5406967Y-10213008D02*
X5416491Y-10222531D01*
X5416491Y-10222531D02*
X5426015Y-10241579D01*
X5426015Y-10241579D02*
X5435539Y-10279674D01*
X5435539Y-10279674D02*
X5435539Y-10327293D01*
X5435539Y-10327293D02*
X5426015Y-10365389D01*
X5426015Y-10365389D02*
X5416491Y-10384436D01*
X5416491Y-10384436D02*
X5406967Y-10393960D01*
X5406967Y-10393960D02*
X5387920Y-10403484D01*
X5387920Y-10403484D02*
X5368872Y-10403484D01*
X5368872Y-10403484D02*
X5349824Y-10393960D01*
X5349824Y-10393960D02*
X5340301Y-10384436D01*
X5340301Y-10384436D02*
X5330777Y-10365389D01*
X5330777Y-10365389D02*
X5321253Y-10327293D01*
X5321253Y-10327293D02*
X5321253Y-10279674D01*
X5321253Y-10279674D02*
X5330777Y-10241579D01*
X5330777Y-10241579D02*
X5340301Y-10222531D01*
X5340301Y-10222531D02*
X5349824Y-10213008D01*
X5349824Y-10213008D02*
X5368872Y-10203484D01*
X5521253Y-10384436D02*
X5530777Y-10393960D01*
X5530777Y-10393960D02*
X5521253Y-10403484D01*
X5521253Y-10403484D02*
X5511729Y-10393960D01*
X5511729Y-10393960D02*
X5521253Y-10384436D01*
X5521253Y-10384436D02*
X5521253Y-10403484D01*
X5626015Y-10403484D02*
X5664110Y-10403484D01*
X5664110Y-10403484D02*
X5683158Y-10393960D01*
X5683158Y-10393960D02*
X5692682Y-10384436D01*
X5692682Y-10384436D02*
X5711729Y-10355865D01*
X5711729Y-10355865D02*
X5721253Y-10317770D01*
X5721253Y-10317770D02*
X5721253Y-10241579D01*
X5721253Y-10241579D02*
X5711729Y-10222531D01*
X5711729Y-10222531D02*
X5702205Y-10213008D01*
X5702205Y-10213008D02*
X5683158Y-10203484D01*
X5683158Y-10203484D02*
X5645062Y-10203484D01*
X5645062Y-10203484D02*
X5626015Y-10213008D01*
X5626015Y-10213008D02*
X5616491Y-10222531D01*
X5616491Y-10222531D02*
X5606967Y-10241579D01*
X5606967Y-10241579D02*
X5606967Y-10289198D01*
X5606967Y-10289198D02*
X5616491Y-10308246D01*
X5616491Y-10308246D02*
X5626015Y-10317770D01*
X5626015Y-10317770D02*
X5645062Y-10327293D01*
X5645062Y-10327293D02*
X5683158Y-10327293D01*
X5683158Y-10327293D02*
X5702205Y-10317770D01*
X5702205Y-10317770D02*
X5711729Y-10308246D01*
X5711729Y-10308246D02*
X5721253Y-10289198D01*
X5902205Y-10203484D02*
X5806967Y-10203484D01*
X5806967Y-10203484D02*
X5797443Y-10298722D01*
X5797443Y-10298722D02*
X5806967Y-10289198D01*
X5806967Y-10289198D02*
X5826015Y-10279674D01*
X5826015Y-10279674D02*
X5873634Y-10279674D01*
X5873634Y-10279674D02*
X5892682Y-10289198D01*
X5892682Y-10289198D02*
X5902205Y-10298722D01*
X5902205Y-10298722D02*
X5911729Y-10317770D01*
X5911729Y-10317770D02*
X5911729Y-10365389D01*
X5911729Y-10365389D02*
X5902205Y-10384436D01*
X5902205Y-10384436D02*
X5892682Y-10393960D01*
X5892682Y-10393960D02*
X5873634Y-10403484D01*
X5873634Y-10403484D02*
X5826015Y-10403484D01*
X5826015Y-10403484D02*
X5806967Y-10393960D01*
X5806967Y-10393960D02*
X5797443Y-10384436D01*
X6035539Y-10203484D02*
X6054586Y-10203484D01*
X6054586Y-10203484D02*
X6073634Y-10213008D01*
X6073634Y-10213008D02*
X6083158Y-10222531D01*
X6083158Y-10222531D02*
X6092682Y-10241579D01*
X6092682Y-10241579D02*
X6102205Y-10279674D01*
X6102205Y-10279674D02*
X6102205Y-10327293D01*
X6102205Y-10327293D02*
X6092682Y-10365389D01*
X6092682Y-10365389D02*
X6083158Y-10384436D01*
X6083158Y-10384436D02*
X6073634Y-10393960D01*
X6073634Y-10393960D02*
X6054586Y-10403484D01*
X6054586Y-10403484D02*
X6035539Y-10403484D01*
X6035539Y-10403484D02*
X6016491Y-10393960D01*
X6016491Y-10393960D02*
X6006967Y-10384436D01*
X6006967Y-10384436D02*
X5997443Y-10365389D01*
X5997443Y-10365389D02*
X5987920Y-10327293D01*
X5987920Y-10327293D02*
X5987920Y-10279674D01*
X5987920Y-10279674D02*
X5997443Y-10241579D01*
X5997443Y-10241579D02*
X6006967Y-10222531D01*
X6006967Y-10222531D02*
X6016491Y-10213008D01*
X6016491Y-10213008D02*
X6035539Y-10203484D01*
X6187920Y-10403484D02*
X6187920Y-10270150D01*
X6187920Y-10289198D02*
X6197443Y-10279674D01*
X6197443Y-10279674D02*
X6216491Y-10270150D01*
X6216491Y-10270150D02*
X6245063Y-10270150D01*
X6245063Y-10270150D02*
X6264110Y-10279674D01*
X6264110Y-10279674D02*
X6273634Y-10298722D01*
X6273634Y-10298722D02*
X6273634Y-10403484D01*
X6273634Y-10298722D02*
X6283158Y-10279674D01*
X6283158Y-10279674D02*
X6302205Y-10270150D01*
X6302205Y-10270150D02*
X6330777Y-10270150D01*
X6330777Y-10270150D02*
X6349824Y-10279674D01*
X6349824Y-10279674D02*
X6359348Y-10298722D01*
X6359348Y-10298722D02*
X6359348Y-10403484D01*
X6454586Y-10403484D02*
X6454586Y-10270150D01*
X6454586Y-10289198D02*
X6464110Y-10279674D01*
X6464110Y-10279674D02*
X6483158Y-10270150D01*
X6483158Y-10270150D02*
X6511729Y-10270150D01*
X6511729Y-10270150D02*
X6530777Y-10279674D01*
X6530777Y-10279674D02*
X6540301Y-10298722D01*
X6540301Y-10298722D02*
X6540301Y-10403484D01*
X6540301Y-10298722D02*
X6549824Y-10279674D01*
X6549824Y-10279674D02*
X6568872Y-10270150D01*
X6568872Y-10270150D02*
X6597443Y-10270150D01*
X6597443Y-10270150D02*
X6616491Y-10279674D01*
X6616491Y-10279674D02*
X6626015Y-10298722D01*
X6626015Y-10298722D02*
X6626015Y-10403484D01*
X7016491Y-10193960D02*
X6845063Y-10451103D01*
X7273634Y-10203484D02*
X7292682Y-10203484D01*
X7292682Y-10203484D02*
X7311729Y-10213008D01*
X7311729Y-10213008D02*
X7321253Y-10222531D01*
X7321253Y-10222531D02*
X7330777Y-10241579D01*
X7330777Y-10241579D02*
X7340301Y-10279674D01*
X7340301Y-10279674D02*
X7340301Y-10327293D01*
X7340301Y-10327293D02*
X7330777Y-10365389D01*
X7330777Y-10365389D02*
X7321253Y-10384436D01*
X7321253Y-10384436D02*
X7311729Y-10393960D01*
X7311729Y-10393960D02*
X7292682Y-10403484D01*
X7292682Y-10403484D02*
X7273634Y-10403484D01*
X7273634Y-10403484D02*
X7254586Y-10393960D01*
X7254586Y-10393960D02*
X7245063Y-10384436D01*
X7245063Y-10384436D02*
X7235539Y-10365389D01*
X7235539Y-10365389D02*
X7226015Y-10327293D01*
X7226015Y-10327293D02*
X7226015Y-10279674D01*
X7226015Y-10279674D02*
X7235539Y-10241579D01*
X7235539Y-10241579D02*
X7245063Y-10222531D01*
X7245063Y-10222531D02*
X7254586Y-10213008D01*
X7254586Y-10213008D02*
X7273634Y-10203484D01*
X7426015Y-10384436D02*
X7435539Y-10393960D01*
X7435539Y-10393960D02*
X7426015Y-10403484D01*
X7426015Y-10403484D02*
X7416491Y-10393960D01*
X7416491Y-10393960D02*
X7426015Y-10384436D01*
X7426015Y-10384436D02*
X7426015Y-10403484D01*
X7559348Y-10203484D02*
X7578396Y-10203484D01*
X7578396Y-10203484D02*
X7597444Y-10213008D01*
X7597444Y-10213008D02*
X7606967Y-10222531D01*
X7606967Y-10222531D02*
X7616491Y-10241579D01*
X7616491Y-10241579D02*
X7626015Y-10279674D01*
X7626015Y-10279674D02*
X7626015Y-10327293D01*
X7626015Y-10327293D02*
X7616491Y-10365389D01*
X7616491Y-10365389D02*
X7606967Y-10384436D01*
X7606967Y-10384436D02*
X7597444Y-10393960D01*
X7597444Y-10393960D02*
X7578396Y-10403484D01*
X7578396Y-10403484D02*
X7559348Y-10403484D01*
X7559348Y-10403484D02*
X7540301Y-10393960D01*
X7540301Y-10393960D02*
X7530777Y-10384436D01*
X7530777Y-10384436D02*
X7521253Y-10365389D01*
X7521253Y-10365389D02*
X7511729Y-10327293D01*
X7511729Y-10327293D02*
X7511729Y-10279674D01*
X7511729Y-10279674D02*
X7521253Y-10241579D01*
X7521253Y-10241579D02*
X7530777Y-10222531D01*
X7530777Y-10222531D02*
X7540301Y-10213008D01*
X7540301Y-10213008D02*
X7559348Y-10203484D01*
X7692682Y-10203484D02*
X7816491Y-10203484D01*
X7816491Y-10203484D02*
X7749825Y-10279674D01*
X7749825Y-10279674D02*
X7778396Y-10279674D01*
X7778396Y-10279674D02*
X7797444Y-10289198D01*
X7797444Y-10289198D02*
X7806967Y-10298722D01*
X7806967Y-10298722D02*
X7816491Y-10317770D01*
X7816491Y-10317770D02*
X7816491Y-10365389D01*
X7816491Y-10365389D02*
X7806967Y-10384436D01*
X7806967Y-10384436D02*
X7797444Y-10393960D01*
X7797444Y-10393960D02*
X7778396Y-10403484D01*
X7778396Y-10403484D02*
X7721253Y-10403484D01*
X7721253Y-10403484D02*
X7702206Y-10393960D01*
X7702206Y-10393960D02*
X7692682Y-10384436D01*
X7883158Y-10203484D02*
X8016491Y-10203484D01*
X8016491Y-10203484D02*
X7930777Y-10403484D01*
X8178396Y-10270150D02*
X8178396Y-10403484D01*
X8130777Y-10193960D02*
X8083158Y-10336817D01*
X8083158Y-10336817D02*
X8206967Y-10336817D01*
X8273634Y-10203484D02*
X8273634Y-10241579D01*
X8349825Y-10203484D02*
X8349825Y-10241579D01*
X8645063Y-10479674D02*
X8635539Y-10470150D01*
X8635539Y-10470150D02*
X8616491Y-10441579D01*
X8616491Y-10441579D02*
X8606968Y-10422531D01*
X8606968Y-10422531D02*
X8597444Y-10393960D01*
X8597444Y-10393960D02*
X8587920Y-10346341D01*
X8587920Y-10346341D02*
X8587920Y-10308246D01*
X8587920Y-10308246D02*
X8597444Y-10260627D01*
X8597444Y-10260627D02*
X8606968Y-10232055D01*
X8606968Y-10232055D02*
X8616491Y-10213008D01*
X8616491Y-10213008D02*
X8635539Y-10184436D01*
X8635539Y-10184436D02*
X8645063Y-10174912D01*
X8806968Y-10203484D02*
X8768872Y-10203484D01*
X8768872Y-10203484D02*
X8749825Y-10213008D01*
X8749825Y-10213008D02*
X8740301Y-10222531D01*
X8740301Y-10222531D02*
X8721253Y-10251103D01*
X8721253Y-10251103D02*
X8711730Y-10289198D01*
X8711730Y-10289198D02*
X8711730Y-10365389D01*
X8711730Y-10365389D02*
X8721253Y-10384436D01*
X8721253Y-10384436D02*
X8730777Y-10393960D01*
X8730777Y-10393960D02*
X8749825Y-10403484D01*
X8749825Y-10403484D02*
X8787920Y-10403484D01*
X8787920Y-10403484D02*
X8806968Y-10393960D01*
X8806968Y-10393960D02*
X8816491Y-10384436D01*
X8816491Y-10384436D02*
X8826015Y-10365389D01*
X8826015Y-10365389D02*
X8826015Y-10317770D01*
X8826015Y-10317770D02*
X8816491Y-10298722D01*
X8816491Y-10298722D02*
X8806968Y-10289198D01*
X8806968Y-10289198D02*
X8787920Y-10279674D01*
X8787920Y-10279674D02*
X8749825Y-10279674D01*
X8749825Y-10279674D02*
X8730777Y-10289198D01*
X8730777Y-10289198D02*
X8721253Y-10298722D01*
X8721253Y-10298722D02*
X8711730Y-10317770D01*
X9064111Y-10403484D02*
X9064111Y-10203484D01*
X9149825Y-10403484D02*
X9149825Y-10298722D01*
X9149825Y-10298722D02*
X9140301Y-10279674D01*
X9140301Y-10279674D02*
X9121253Y-10270150D01*
X9121253Y-10270150D02*
X9092682Y-10270150D01*
X9092682Y-10270150D02*
X9073634Y-10279674D01*
X9073634Y-10279674D02*
X9064111Y-10289198D01*
X9273634Y-10403484D02*
X9254587Y-10393960D01*
X9254587Y-10393960D02*
X9245063Y-10384436D01*
X9245063Y-10384436D02*
X9235539Y-10365389D01*
X9235539Y-10365389D02*
X9235539Y-10308246D01*
X9235539Y-10308246D02*
X9245063Y-10289198D01*
X9245063Y-10289198D02*
X9254587Y-10279674D01*
X9254587Y-10279674D02*
X9273634Y-10270150D01*
X9273634Y-10270150D02*
X9302206Y-10270150D01*
X9302206Y-10270150D02*
X9321253Y-10279674D01*
X9321253Y-10279674D02*
X9330777Y-10289198D01*
X9330777Y-10289198D02*
X9340301Y-10308246D01*
X9340301Y-10308246D02*
X9340301Y-10365389D01*
X9340301Y-10365389D02*
X9330777Y-10384436D01*
X9330777Y-10384436D02*
X9321253Y-10393960D01*
X9321253Y-10393960D02*
X9302206Y-10403484D01*
X9302206Y-10403484D02*
X9273634Y-10403484D01*
X9454587Y-10403484D02*
X9435539Y-10393960D01*
X9435539Y-10393960D02*
X9426015Y-10374912D01*
X9426015Y-10374912D02*
X9426015Y-10203484D01*
X9606968Y-10393960D02*
X9587920Y-10403484D01*
X9587920Y-10403484D02*
X9549825Y-10403484D01*
X9549825Y-10403484D02*
X9530777Y-10393960D01*
X9530777Y-10393960D02*
X9521253Y-10374912D01*
X9521253Y-10374912D02*
X9521253Y-10298722D01*
X9521253Y-10298722D02*
X9530777Y-10279674D01*
X9530777Y-10279674D02*
X9549825Y-10270150D01*
X9549825Y-10270150D02*
X9587920Y-10270150D01*
X9587920Y-10270150D02*
X9606968Y-10279674D01*
X9606968Y-10279674D02*
X9616492Y-10298722D01*
X9616492Y-10298722D02*
X9616492Y-10317770D01*
X9616492Y-10317770D02*
X9521253Y-10336817D01*
X9692682Y-10393960D02*
X9711730Y-10403484D01*
X9711730Y-10403484D02*
X9749825Y-10403484D01*
X9749825Y-10403484D02*
X9768873Y-10393960D01*
X9768873Y-10393960D02*
X9778396Y-10374912D01*
X9778396Y-10374912D02*
X9778396Y-10365389D01*
X9778396Y-10365389D02*
X9768873Y-10346341D01*
X9768873Y-10346341D02*
X9749825Y-10336817D01*
X9749825Y-10336817D02*
X9721253Y-10336817D01*
X9721253Y-10336817D02*
X9702206Y-10327293D01*
X9702206Y-10327293D02*
X9692682Y-10308246D01*
X9692682Y-10308246D02*
X9692682Y-10298722D01*
X9692682Y-10298722D02*
X9702206Y-10279674D01*
X9702206Y-10279674D02*
X9721253Y-10270150D01*
X9721253Y-10270150D02*
X9749825Y-10270150D01*
X9749825Y-10270150D02*
X9768873Y-10279674D01*
X9845063Y-10479674D02*
X9854587Y-10470150D01*
X9854587Y-10470150D02*
X9873634Y-10441579D01*
X9873634Y-10441579D02*
X9883158Y-10422531D01*
X9883158Y-10422531D02*
X9892682Y-10393960D01*
X9892682Y-10393960D02*
X9902206Y-10346341D01*
X9902206Y-10346341D02*
X9902206Y-10308246D01*
X9902206Y-10308246D02*
X9892682Y-10260627D01*
X9892682Y-10260627D02*
X9883158Y-10232055D01*
X9883158Y-10232055D02*
X9873634Y-10213008D01*
X9873634Y-10213008D02*
X9854587Y-10184436D01*
X9854587Y-10184436D02*
X9845063Y-10174912D01*
D11*
X5020000Y-10526000D02*
X5020000Y-10626000D01*
X4970000Y-10576000D02*
X5070000Y-10576000D01*
D10*
X5435539Y-10667484D02*
X5321253Y-10667484D01*
X5378396Y-10667484D02*
X5378396Y-10467484D01*
X5378396Y-10467484D02*
X5359348Y-10496055D01*
X5359348Y-10496055D02*
X5340301Y-10515103D01*
X5340301Y-10515103D02*
X5321253Y-10524627D01*
X5521253Y-10648436D02*
X5530777Y-10657960D01*
X5530777Y-10657960D02*
X5521253Y-10667484D01*
X5521253Y-10667484D02*
X5511729Y-10657960D01*
X5511729Y-10657960D02*
X5521253Y-10648436D01*
X5521253Y-10648436D02*
X5521253Y-10667484D01*
X5654586Y-10467484D02*
X5673634Y-10467484D01*
X5673634Y-10467484D02*
X5692682Y-10477008D01*
X5692682Y-10477008D02*
X5702205Y-10486531D01*
X5702205Y-10486531D02*
X5711729Y-10505579D01*
X5711729Y-10505579D02*
X5721253Y-10543674D01*
X5721253Y-10543674D02*
X5721253Y-10591293D01*
X5721253Y-10591293D02*
X5711729Y-10629389D01*
X5711729Y-10629389D02*
X5702205Y-10648436D01*
X5702205Y-10648436D02*
X5692682Y-10657960D01*
X5692682Y-10657960D02*
X5673634Y-10667484D01*
X5673634Y-10667484D02*
X5654586Y-10667484D01*
X5654586Y-10667484D02*
X5635539Y-10657960D01*
X5635539Y-10657960D02*
X5626015Y-10648436D01*
X5626015Y-10648436D02*
X5616491Y-10629389D01*
X5616491Y-10629389D02*
X5606967Y-10591293D01*
X5606967Y-10591293D02*
X5606967Y-10543674D01*
X5606967Y-10543674D02*
X5616491Y-10505579D01*
X5616491Y-10505579D02*
X5626015Y-10486531D01*
X5626015Y-10486531D02*
X5635539Y-10477008D01*
X5635539Y-10477008D02*
X5654586Y-10467484D01*
X5845062Y-10467484D02*
X5864110Y-10467484D01*
X5864110Y-10467484D02*
X5883158Y-10477008D01*
X5883158Y-10477008D02*
X5892682Y-10486531D01*
X5892682Y-10486531D02*
X5902205Y-10505579D01*
X5902205Y-10505579D02*
X5911729Y-10543674D01*
X5911729Y-10543674D02*
X5911729Y-10591293D01*
X5911729Y-10591293D02*
X5902205Y-10629389D01*
X5902205Y-10629389D02*
X5892682Y-10648436D01*
X5892682Y-10648436D02*
X5883158Y-10657960D01*
X5883158Y-10657960D02*
X5864110Y-10667484D01*
X5864110Y-10667484D02*
X5845062Y-10667484D01*
X5845062Y-10667484D02*
X5826015Y-10657960D01*
X5826015Y-10657960D02*
X5816491Y-10648436D01*
X5816491Y-10648436D02*
X5806967Y-10629389D01*
X5806967Y-10629389D02*
X5797443Y-10591293D01*
X5797443Y-10591293D02*
X5797443Y-10543674D01*
X5797443Y-10543674D02*
X5806967Y-10505579D01*
X5806967Y-10505579D02*
X5816491Y-10486531D01*
X5816491Y-10486531D02*
X5826015Y-10477008D01*
X5826015Y-10477008D02*
X5845062Y-10467484D01*
X6035539Y-10467484D02*
X6054586Y-10467484D01*
X6054586Y-10467484D02*
X6073634Y-10477008D01*
X6073634Y-10477008D02*
X6083158Y-10486531D01*
X6083158Y-10486531D02*
X6092682Y-10505579D01*
X6092682Y-10505579D02*
X6102205Y-10543674D01*
X6102205Y-10543674D02*
X6102205Y-10591293D01*
X6102205Y-10591293D02*
X6092682Y-10629389D01*
X6092682Y-10629389D02*
X6083158Y-10648436D01*
X6083158Y-10648436D02*
X6073634Y-10657960D01*
X6073634Y-10657960D02*
X6054586Y-10667484D01*
X6054586Y-10667484D02*
X6035539Y-10667484D01*
X6035539Y-10667484D02*
X6016491Y-10657960D01*
X6016491Y-10657960D02*
X6006967Y-10648436D01*
X6006967Y-10648436D02*
X5997443Y-10629389D01*
X5997443Y-10629389D02*
X5987920Y-10591293D01*
X5987920Y-10591293D02*
X5987920Y-10543674D01*
X5987920Y-10543674D02*
X5997443Y-10505579D01*
X5997443Y-10505579D02*
X6006967Y-10486531D01*
X6006967Y-10486531D02*
X6016491Y-10477008D01*
X6016491Y-10477008D02*
X6035539Y-10467484D01*
X6187920Y-10667484D02*
X6187920Y-10534150D01*
X6187920Y-10553198D02*
X6197443Y-10543674D01*
X6197443Y-10543674D02*
X6216491Y-10534150D01*
X6216491Y-10534150D02*
X6245063Y-10534150D01*
X6245063Y-10534150D02*
X6264110Y-10543674D01*
X6264110Y-10543674D02*
X6273634Y-10562722D01*
X6273634Y-10562722D02*
X6273634Y-10667484D01*
X6273634Y-10562722D02*
X6283158Y-10543674D01*
X6283158Y-10543674D02*
X6302205Y-10534150D01*
X6302205Y-10534150D02*
X6330777Y-10534150D01*
X6330777Y-10534150D02*
X6349824Y-10543674D01*
X6349824Y-10543674D02*
X6359348Y-10562722D01*
X6359348Y-10562722D02*
X6359348Y-10667484D01*
X6454586Y-10667484D02*
X6454586Y-10534150D01*
X6454586Y-10553198D02*
X6464110Y-10543674D01*
X6464110Y-10543674D02*
X6483158Y-10534150D01*
X6483158Y-10534150D02*
X6511729Y-10534150D01*
X6511729Y-10534150D02*
X6530777Y-10543674D01*
X6530777Y-10543674D02*
X6540301Y-10562722D01*
X6540301Y-10562722D02*
X6540301Y-10667484D01*
X6540301Y-10562722D02*
X6549824Y-10543674D01*
X6549824Y-10543674D02*
X6568872Y-10534150D01*
X6568872Y-10534150D02*
X6597443Y-10534150D01*
X6597443Y-10534150D02*
X6616491Y-10543674D01*
X6616491Y-10543674D02*
X6626015Y-10562722D01*
X6626015Y-10562722D02*
X6626015Y-10667484D01*
X7016491Y-10457960D02*
X6845063Y-10715103D01*
X7273634Y-10467484D02*
X7292682Y-10467484D01*
X7292682Y-10467484D02*
X7311729Y-10477008D01*
X7311729Y-10477008D02*
X7321253Y-10486531D01*
X7321253Y-10486531D02*
X7330777Y-10505579D01*
X7330777Y-10505579D02*
X7340301Y-10543674D01*
X7340301Y-10543674D02*
X7340301Y-10591293D01*
X7340301Y-10591293D02*
X7330777Y-10629389D01*
X7330777Y-10629389D02*
X7321253Y-10648436D01*
X7321253Y-10648436D02*
X7311729Y-10657960D01*
X7311729Y-10657960D02*
X7292682Y-10667484D01*
X7292682Y-10667484D02*
X7273634Y-10667484D01*
X7273634Y-10667484D02*
X7254586Y-10657960D01*
X7254586Y-10657960D02*
X7245063Y-10648436D01*
X7245063Y-10648436D02*
X7235539Y-10629389D01*
X7235539Y-10629389D02*
X7226015Y-10591293D01*
X7226015Y-10591293D02*
X7226015Y-10543674D01*
X7226015Y-10543674D02*
X7235539Y-10505579D01*
X7235539Y-10505579D02*
X7245063Y-10486531D01*
X7245063Y-10486531D02*
X7254586Y-10477008D01*
X7254586Y-10477008D02*
X7273634Y-10467484D01*
X7426015Y-10648436D02*
X7435539Y-10657960D01*
X7435539Y-10657960D02*
X7426015Y-10667484D01*
X7426015Y-10667484D02*
X7416491Y-10657960D01*
X7416491Y-10657960D02*
X7426015Y-10648436D01*
X7426015Y-10648436D02*
X7426015Y-10667484D01*
X7559348Y-10467484D02*
X7578396Y-10467484D01*
X7578396Y-10467484D02*
X7597444Y-10477008D01*
X7597444Y-10477008D02*
X7606967Y-10486531D01*
X7606967Y-10486531D02*
X7616491Y-10505579D01*
X7616491Y-10505579D02*
X7626015Y-10543674D01*
X7626015Y-10543674D02*
X7626015Y-10591293D01*
X7626015Y-10591293D02*
X7616491Y-10629389D01*
X7616491Y-10629389D02*
X7606967Y-10648436D01*
X7606967Y-10648436D02*
X7597444Y-10657960D01*
X7597444Y-10657960D02*
X7578396Y-10667484D01*
X7578396Y-10667484D02*
X7559348Y-10667484D01*
X7559348Y-10667484D02*
X7540301Y-10657960D01*
X7540301Y-10657960D02*
X7530777Y-10648436D01*
X7530777Y-10648436D02*
X7521253Y-10629389D01*
X7521253Y-10629389D02*
X7511729Y-10591293D01*
X7511729Y-10591293D02*
X7511729Y-10543674D01*
X7511729Y-10543674D02*
X7521253Y-10505579D01*
X7521253Y-10505579D02*
X7530777Y-10486531D01*
X7530777Y-10486531D02*
X7540301Y-10477008D01*
X7540301Y-10477008D02*
X7559348Y-10467484D01*
X7692682Y-10467484D02*
X7816491Y-10467484D01*
X7816491Y-10467484D02*
X7749825Y-10543674D01*
X7749825Y-10543674D02*
X7778396Y-10543674D01*
X7778396Y-10543674D02*
X7797444Y-10553198D01*
X7797444Y-10553198D02*
X7806967Y-10562722D01*
X7806967Y-10562722D02*
X7816491Y-10581770D01*
X7816491Y-10581770D02*
X7816491Y-10629389D01*
X7816491Y-10629389D02*
X7806967Y-10648436D01*
X7806967Y-10648436D02*
X7797444Y-10657960D01*
X7797444Y-10657960D02*
X7778396Y-10667484D01*
X7778396Y-10667484D02*
X7721253Y-10667484D01*
X7721253Y-10667484D02*
X7702206Y-10657960D01*
X7702206Y-10657960D02*
X7692682Y-10648436D01*
X7911729Y-10667484D02*
X7949825Y-10667484D01*
X7949825Y-10667484D02*
X7968872Y-10657960D01*
X7968872Y-10657960D02*
X7978396Y-10648436D01*
X7978396Y-10648436D02*
X7997444Y-10619865D01*
X7997444Y-10619865D02*
X8006967Y-10581770D01*
X8006967Y-10581770D02*
X8006967Y-10505579D01*
X8006967Y-10505579D02*
X7997444Y-10486531D01*
X7997444Y-10486531D02*
X7987920Y-10477008D01*
X7987920Y-10477008D02*
X7968872Y-10467484D01*
X7968872Y-10467484D02*
X7930777Y-10467484D01*
X7930777Y-10467484D02*
X7911729Y-10477008D01*
X7911729Y-10477008D02*
X7902206Y-10486531D01*
X7902206Y-10486531D02*
X7892682Y-10505579D01*
X7892682Y-10505579D02*
X7892682Y-10553198D01*
X7892682Y-10553198D02*
X7902206Y-10572246D01*
X7902206Y-10572246D02*
X7911729Y-10581770D01*
X7911729Y-10581770D02*
X7930777Y-10591293D01*
X7930777Y-10591293D02*
X7968872Y-10591293D01*
X7968872Y-10591293D02*
X7987920Y-10581770D01*
X7987920Y-10581770D02*
X7997444Y-10572246D01*
X7997444Y-10572246D02*
X8006967Y-10553198D01*
X8178396Y-10534150D02*
X8178396Y-10667484D01*
X8130777Y-10457960D02*
X8083158Y-10600817D01*
X8083158Y-10600817D02*
X8206967Y-10600817D01*
X8273634Y-10467484D02*
X8273634Y-10505579D01*
X8349825Y-10467484D02*
X8349825Y-10505579D01*
X8645063Y-10743674D02*
X8635539Y-10734150D01*
X8635539Y-10734150D02*
X8616491Y-10705579D01*
X8616491Y-10705579D02*
X8606968Y-10686531D01*
X8606968Y-10686531D02*
X8597444Y-10657960D01*
X8597444Y-10657960D02*
X8587920Y-10610341D01*
X8587920Y-10610341D02*
X8587920Y-10572246D01*
X8587920Y-10572246D02*
X8597444Y-10524627D01*
X8597444Y-10524627D02*
X8606968Y-10496055D01*
X8606968Y-10496055D02*
X8616491Y-10477008D01*
X8616491Y-10477008D02*
X8635539Y-10448436D01*
X8635539Y-10448436D02*
X8645063Y-10438912D01*
X8711730Y-10486531D02*
X8721253Y-10477008D01*
X8721253Y-10477008D02*
X8740301Y-10467484D01*
X8740301Y-10467484D02*
X8787920Y-10467484D01*
X8787920Y-10467484D02*
X8806968Y-10477008D01*
X8806968Y-10477008D02*
X8816491Y-10486531D01*
X8816491Y-10486531D02*
X8826015Y-10505579D01*
X8826015Y-10505579D02*
X8826015Y-10524627D01*
X8826015Y-10524627D02*
X8816491Y-10553198D01*
X8816491Y-10553198D02*
X8702206Y-10667484D01*
X8702206Y-10667484D02*
X8826015Y-10667484D01*
X8902206Y-10486531D02*
X8911730Y-10477008D01*
X8911730Y-10477008D02*
X8930777Y-10467484D01*
X8930777Y-10467484D02*
X8978396Y-10467484D01*
X8978396Y-10467484D02*
X8997444Y-10477008D01*
X8997444Y-10477008D02*
X9006968Y-10486531D01*
X9006968Y-10486531D02*
X9016491Y-10505579D01*
X9016491Y-10505579D02*
X9016491Y-10524627D01*
X9016491Y-10524627D02*
X9006968Y-10553198D01*
X9006968Y-10553198D02*
X8892682Y-10667484D01*
X8892682Y-10667484D02*
X9016491Y-10667484D01*
X9254587Y-10667484D02*
X9254587Y-10467484D01*
X9340301Y-10667484D02*
X9340301Y-10562722D01*
X9340301Y-10562722D02*
X9330777Y-10543674D01*
X9330777Y-10543674D02*
X9311730Y-10534150D01*
X9311730Y-10534150D02*
X9283158Y-10534150D01*
X9283158Y-10534150D02*
X9264111Y-10543674D01*
X9264111Y-10543674D02*
X9254587Y-10553198D01*
X9464111Y-10667484D02*
X9445063Y-10657960D01*
X9445063Y-10657960D02*
X9435539Y-10648436D01*
X9435539Y-10648436D02*
X9426015Y-10629389D01*
X9426015Y-10629389D02*
X9426015Y-10572246D01*
X9426015Y-10572246D02*
X9435539Y-10553198D01*
X9435539Y-10553198D02*
X9445063Y-10543674D01*
X9445063Y-10543674D02*
X9464111Y-10534150D01*
X9464111Y-10534150D02*
X9492682Y-10534150D01*
X9492682Y-10534150D02*
X9511730Y-10543674D01*
X9511730Y-10543674D02*
X9521253Y-10553198D01*
X9521253Y-10553198D02*
X9530777Y-10572246D01*
X9530777Y-10572246D02*
X9530777Y-10629389D01*
X9530777Y-10629389D02*
X9521253Y-10648436D01*
X9521253Y-10648436D02*
X9511730Y-10657960D01*
X9511730Y-10657960D02*
X9492682Y-10667484D01*
X9492682Y-10667484D02*
X9464111Y-10667484D01*
X9645063Y-10667484D02*
X9626015Y-10657960D01*
X9626015Y-10657960D02*
X9616492Y-10638912D01*
X9616492Y-10638912D02*
X9616492Y-10467484D01*
X9797444Y-10657960D02*
X9778396Y-10667484D01*
X9778396Y-10667484D02*
X9740301Y-10667484D01*
X9740301Y-10667484D02*
X9721253Y-10657960D01*
X9721253Y-10657960D02*
X9711730Y-10638912D01*
X9711730Y-10638912D02*
X9711730Y-10562722D01*
X9711730Y-10562722D02*
X9721253Y-10543674D01*
X9721253Y-10543674D02*
X9740301Y-10534150D01*
X9740301Y-10534150D02*
X9778396Y-10534150D01*
X9778396Y-10534150D02*
X9797444Y-10543674D01*
X9797444Y-10543674D02*
X9806968Y-10562722D01*
X9806968Y-10562722D02*
X9806968Y-10581770D01*
X9806968Y-10581770D02*
X9711730Y-10600817D01*
X9883158Y-10657960D02*
X9902206Y-10667484D01*
X9902206Y-10667484D02*
X9940301Y-10667484D01*
X9940301Y-10667484D02*
X9959349Y-10657960D01*
X9959349Y-10657960D02*
X9968873Y-10638912D01*
X9968873Y-10638912D02*
X9968873Y-10629389D01*
X9968873Y-10629389D02*
X9959349Y-10610341D01*
X9959349Y-10610341D02*
X9940301Y-10600817D01*
X9940301Y-10600817D02*
X9911730Y-10600817D01*
X9911730Y-10600817D02*
X9892682Y-10591293D01*
X9892682Y-10591293D02*
X9883158Y-10572246D01*
X9883158Y-10572246D02*
X9883158Y-10562722D01*
X9883158Y-10562722D02*
X9892682Y-10543674D01*
X9892682Y-10543674D02*
X9911730Y-10534150D01*
X9911730Y-10534150D02*
X9940301Y-10534150D01*
X9940301Y-10534150D02*
X9959349Y-10543674D01*
X10035539Y-10743674D02*
X10045063Y-10734150D01*
X10045063Y-10734150D02*
X10064111Y-10705579D01*
X10064111Y-10705579D02*
X10073634Y-10686531D01*
X10073634Y-10686531D02*
X10083158Y-10657960D01*
X10083158Y-10657960D02*
X10092682Y-10610341D01*
X10092682Y-10610341D02*
X10092682Y-10572246D01*
X10092682Y-10572246D02*
X10083158Y-10524627D01*
X10083158Y-10524627D02*
X10073634Y-10496055D01*
X10073634Y-10496055D02*
X10064111Y-10477008D01*
X10064111Y-10477008D02*
X10045063Y-10448436D01*
X10045063Y-10448436D02*
X10035539Y-10438912D01*
D12*
X5053891Y-10878891D02*
X5053891Y-10801109D01*
X4976109Y-10801109D01*
X4976109Y-10878891D01*
X5053891Y-10878891D01*
D10*
X5435539Y-10931484D02*
X5321253Y-10931484D01*
X5378396Y-10931484D02*
X5378396Y-10731484D01*
X5378396Y-10731484D02*
X5359348Y-10760055D01*
X5359348Y-10760055D02*
X5340301Y-10779103D01*
X5340301Y-10779103D02*
X5321253Y-10788627D01*
X5521253Y-10912436D02*
X5530777Y-10921960D01*
X5530777Y-10921960D02*
X5521253Y-10931484D01*
X5521253Y-10931484D02*
X5511729Y-10921960D01*
X5511729Y-10921960D02*
X5521253Y-10912436D01*
X5521253Y-10912436D02*
X5521253Y-10931484D01*
X5721253Y-10931484D02*
X5606967Y-10931484D01*
X5664110Y-10931484D02*
X5664110Y-10731484D01*
X5664110Y-10731484D02*
X5645062Y-10760055D01*
X5645062Y-10760055D02*
X5626015Y-10779103D01*
X5626015Y-10779103D02*
X5606967Y-10788627D01*
X5845062Y-10731484D02*
X5864110Y-10731484D01*
X5864110Y-10731484D02*
X5883158Y-10741008D01*
X5883158Y-10741008D02*
X5892682Y-10750531D01*
X5892682Y-10750531D02*
X5902205Y-10769579D01*
X5902205Y-10769579D02*
X5911729Y-10807674D01*
X5911729Y-10807674D02*
X5911729Y-10855293D01*
X5911729Y-10855293D02*
X5902205Y-10893389D01*
X5902205Y-10893389D02*
X5892682Y-10912436D01*
X5892682Y-10912436D02*
X5883158Y-10921960D01*
X5883158Y-10921960D02*
X5864110Y-10931484D01*
X5864110Y-10931484D02*
X5845062Y-10931484D01*
X5845062Y-10931484D02*
X5826015Y-10921960D01*
X5826015Y-10921960D02*
X5816491Y-10912436D01*
X5816491Y-10912436D02*
X5806967Y-10893389D01*
X5806967Y-10893389D02*
X5797443Y-10855293D01*
X5797443Y-10855293D02*
X5797443Y-10807674D01*
X5797443Y-10807674D02*
X5806967Y-10769579D01*
X5806967Y-10769579D02*
X5816491Y-10750531D01*
X5816491Y-10750531D02*
X5826015Y-10741008D01*
X5826015Y-10741008D02*
X5845062Y-10731484D01*
X6035539Y-10731484D02*
X6054586Y-10731484D01*
X6054586Y-10731484D02*
X6073634Y-10741008D01*
X6073634Y-10741008D02*
X6083158Y-10750531D01*
X6083158Y-10750531D02*
X6092682Y-10769579D01*
X6092682Y-10769579D02*
X6102205Y-10807674D01*
X6102205Y-10807674D02*
X6102205Y-10855293D01*
X6102205Y-10855293D02*
X6092682Y-10893389D01*
X6092682Y-10893389D02*
X6083158Y-10912436D01*
X6083158Y-10912436D02*
X6073634Y-10921960D01*
X6073634Y-10921960D02*
X6054586Y-10931484D01*
X6054586Y-10931484D02*
X6035539Y-10931484D01*
X6035539Y-10931484D02*
X6016491Y-10921960D01*
X6016491Y-10921960D02*
X6006967Y-10912436D01*
X6006967Y-10912436D02*
X5997443Y-10893389D01*
X5997443Y-10893389D02*
X5987920Y-10855293D01*
X5987920Y-10855293D02*
X5987920Y-10807674D01*
X5987920Y-10807674D02*
X5997443Y-10769579D01*
X5997443Y-10769579D02*
X6006967Y-10750531D01*
X6006967Y-10750531D02*
X6016491Y-10741008D01*
X6016491Y-10741008D02*
X6035539Y-10731484D01*
X6187920Y-10931484D02*
X6187920Y-10798150D01*
X6187920Y-10817198D02*
X6197443Y-10807674D01*
X6197443Y-10807674D02*
X6216491Y-10798150D01*
X6216491Y-10798150D02*
X6245063Y-10798150D01*
X6245063Y-10798150D02*
X6264110Y-10807674D01*
X6264110Y-10807674D02*
X6273634Y-10826722D01*
X6273634Y-10826722D02*
X6273634Y-10931484D01*
X6273634Y-10826722D02*
X6283158Y-10807674D01*
X6283158Y-10807674D02*
X6302205Y-10798150D01*
X6302205Y-10798150D02*
X6330777Y-10798150D01*
X6330777Y-10798150D02*
X6349824Y-10807674D01*
X6349824Y-10807674D02*
X6359348Y-10826722D01*
X6359348Y-10826722D02*
X6359348Y-10931484D01*
X6454586Y-10931484D02*
X6454586Y-10798150D01*
X6454586Y-10817198D02*
X6464110Y-10807674D01*
X6464110Y-10807674D02*
X6483158Y-10798150D01*
X6483158Y-10798150D02*
X6511729Y-10798150D01*
X6511729Y-10798150D02*
X6530777Y-10807674D01*
X6530777Y-10807674D02*
X6540301Y-10826722D01*
X6540301Y-10826722D02*
X6540301Y-10931484D01*
X6540301Y-10826722D02*
X6549824Y-10807674D01*
X6549824Y-10807674D02*
X6568872Y-10798150D01*
X6568872Y-10798150D02*
X6597443Y-10798150D01*
X6597443Y-10798150D02*
X6616491Y-10807674D01*
X6616491Y-10807674D02*
X6626015Y-10826722D01*
X6626015Y-10826722D02*
X6626015Y-10931484D01*
X7016491Y-10721960D02*
X6845063Y-10979103D01*
X7273634Y-10731484D02*
X7292682Y-10731484D01*
X7292682Y-10731484D02*
X7311729Y-10741008D01*
X7311729Y-10741008D02*
X7321253Y-10750531D01*
X7321253Y-10750531D02*
X7330777Y-10769579D01*
X7330777Y-10769579D02*
X7340301Y-10807674D01*
X7340301Y-10807674D02*
X7340301Y-10855293D01*
X7340301Y-10855293D02*
X7330777Y-10893389D01*
X7330777Y-10893389D02*
X7321253Y-10912436D01*
X7321253Y-10912436D02*
X7311729Y-10921960D01*
X7311729Y-10921960D02*
X7292682Y-10931484D01*
X7292682Y-10931484D02*
X7273634Y-10931484D01*
X7273634Y-10931484D02*
X7254586Y-10921960D01*
X7254586Y-10921960D02*
X7245063Y-10912436D01*
X7245063Y-10912436D02*
X7235539Y-10893389D01*
X7235539Y-10893389D02*
X7226015Y-10855293D01*
X7226015Y-10855293D02*
X7226015Y-10807674D01*
X7226015Y-10807674D02*
X7235539Y-10769579D01*
X7235539Y-10769579D02*
X7245063Y-10750531D01*
X7245063Y-10750531D02*
X7254586Y-10741008D01*
X7254586Y-10741008D02*
X7273634Y-10731484D01*
X7426015Y-10912436D02*
X7435539Y-10921960D01*
X7435539Y-10921960D02*
X7426015Y-10931484D01*
X7426015Y-10931484D02*
X7416491Y-10921960D01*
X7416491Y-10921960D02*
X7426015Y-10912436D01*
X7426015Y-10912436D02*
X7426015Y-10931484D01*
X7559348Y-10731484D02*
X7578396Y-10731484D01*
X7578396Y-10731484D02*
X7597444Y-10741008D01*
X7597444Y-10741008D02*
X7606967Y-10750531D01*
X7606967Y-10750531D02*
X7616491Y-10769579D01*
X7616491Y-10769579D02*
X7626015Y-10807674D01*
X7626015Y-10807674D02*
X7626015Y-10855293D01*
X7626015Y-10855293D02*
X7616491Y-10893389D01*
X7616491Y-10893389D02*
X7606967Y-10912436D01*
X7606967Y-10912436D02*
X7597444Y-10921960D01*
X7597444Y-10921960D02*
X7578396Y-10931484D01*
X7578396Y-10931484D02*
X7559348Y-10931484D01*
X7559348Y-10931484D02*
X7540301Y-10921960D01*
X7540301Y-10921960D02*
X7530777Y-10912436D01*
X7530777Y-10912436D02*
X7521253Y-10893389D01*
X7521253Y-10893389D02*
X7511729Y-10855293D01*
X7511729Y-10855293D02*
X7511729Y-10807674D01*
X7511729Y-10807674D02*
X7521253Y-10769579D01*
X7521253Y-10769579D02*
X7530777Y-10750531D01*
X7530777Y-10750531D02*
X7540301Y-10741008D01*
X7540301Y-10741008D02*
X7559348Y-10731484D01*
X7797444Y-10798150D02*
X7797444Y-10931484D01*
X7749825Y-10721960D02*
X7702206Y-10864817D01*
X7702206Y-10864817D02*
X7826015Y-10864817D01*
X7883158Y-10731484D02*
X8006967Y-10731484D01*
X8006967Y-10731484D02*
X7940301Y-10807674D01*
X7940301Y-10807674D02*
X7968872Y-10807674D01*
X7968872Y-10807674D02*
X7987920Y-10817198D01*
X7987920Y-10817198D02*
X7997444Y-10826722D01*
X7997444Y-10826722D02*
X8006967Y-10845770D01*
X8006967Y-10845770D02*
X8006967Y-10893389D01*
X8006967Y-10893389D02*
X7997444Y-10912436D01*
X7997444Y-10912436D02*
X7987920Y-10921960D01*
X7987920Y-10921960D02*
X7968872Y-10931484D01*
X7968872Y-10931484D02*
X7911729Y-10931484D01*
X7911729Y-10931484D02*
X7892682Y-10921960D01*
X7892682Y-10921960D02*
X7883158Y-10912436D01*
X8073634Y-10731484D02*
X8197444Y-10731484D01*
X8197444Y-10731484D02*
X8130777Y-10807674D01*
X8130777Y-10807674D02*
X8159348Y-10807674D01*
X8159348Y-10807674D02*
X8178396Y-10817198D01*
X8178396Y-10817198D02*
X8187920Y-10826722D01*
X8187920Y-10826722D02*
X8197444Y-10845770D01*
X8197444Y-10845770D02*
X8197444Y-10893389D01*
X8197444Y-10893389D02*
X8187920Y-10912436D01*
X8187920Y-10912436D02*
X8178396Y-10921960D01*
X8178396Y-10921960D02*
X8159348Y-10931484D01*
X8159348Y-10931484D02*
X8102206Y-10931484D01*
X8102206Y-10931484D02*
X8083158Y-10921960D01*
X8083158Y-10921960D02*
X8073634Y-10912436D01*
X8273634Y-10731484D02*
X8273634Y-10769579D01*
X8349825Y-10731484D02*
X8349825Y-10769579D01*
X8645063Y-11007674D02*
X8635539Y-10998150D01*
X8635539Y-10998150D02*
X8616491Y-10969579D01*
X8616491Y-10969579D02*
X8606968Y-10950531D01*
X8606968Y-10950531D02*
X8597444Y-10921960D01*
X8597444Y-10921960D02*
X8587920Y-10874341D01*
X8587920Y-10874341D02*
X8587920Y-10836246D01*
X8587920Y-10836246D02*
X8597444Y-10788627D01*
X8597444Y-10788627D02*
X8606968Y-10760055D01*
X8606968Y-10760055D02*
X8616491Y-10741008D01*
X8616491Y-10741008D02*
X8635539Y-10712436D01*
X8635539Y-10712436D02*
X8645063Y-10702912D01*
X8826015Y-10931484D02*
X8711730Y-10931484D01*
X8768872Y-10931484D02*
X8768872Y-10731484D01*
X8768872Y-10731484D02*
X8749825Y-10760055D01*
X8749825Y-10760055D02*
X8730777Y-10779103D01*
X8730777Y-10779103D02*
X8711730Y-10788627D01*
X8902206Y-10750531D02*
X8911730Y-10741008D01*
X8911730Y-10741008D02*
X8930777Y-10731484D01*
X8930777Y-10731484D02*
X8978396Y-10731484D01*
X8978396Y-10731484D02*
X8997444Y-10741008D01*
X8997444Y-10741008D02*
X9006968Y-10750531D01*
X9006968Y-10750531D02*
X9016491Y-10769579D01*
X9016491Y-10769579D02*
X9016491Y-10788627D01*
X9016491Y-10788627D02*
X9006968Y-10817198D01*
X9006968Y-10817198D02*
X8892682Y-10931484D01*
X8892682Y-10931484D02*
X9016491Y-10931484D01*
X9254587Y-10931484D02*
X9254587Y-10731484D01*
X9340301Y-10931484D02*
X9340301Y-10826722D01*
X9340301Y-10826722D02*
X9330777Y-10807674D01*
X9330777Y-10807674D02*
X9311730Y-10798150D01*
X9311730Y-10798150D02*
X9283158Y-10798150D01*
X9283158Y-10798150D02*
X9264111Y-10807674D01*
X9264111Y-10807674D02*
X9254587Y-10817198D01*
X9464111Y-10931484D02*
X9445063Y-10921960D01*
X9445063Y-10921960D02*
X9435539Y-10912436D01*
X9435539Y-10912436D02*
X9426015Y-10893389D01*
X9426015Y-10893389D02*
X9426015Y-10836246D01*
X9426015Y-10836246D02*
X9435539Y-10817198D01*
X9435539Y-10817198D02*
X9445063Y-10807674D01*
X9445063Y-10807674D02*
X9464111Y-10798150D01*
X9464111Y-10798150D02*
X9492682Y-10798150D01*
X9492682Y-10798150D02*
X9511730Y-10807674D01*
X9511730Y-10807674D02*
X9521253Y-10817198D01*
X9521253Y-10817198D02*
X9530777Y-10836246D01*
X9530777Y-10836246D02*
X9530777Y-10893389D01*
X9530777Y-10893389D02*
X9521253Y-10912436D01*
X9521253Y-10912436D02*
X9511730Y-10921960D01*
X9511730Y-10921960D02*
X9492682Y-10931484D01*
X9492682Y-10931484D02*
X9464111Y-10931484D01*
X9645063Y-10931484D02*
X9626015Y-10921960D01*
X9626015Y-10921960D02*
X9616492Y-10902912D01*
X9616492Y-10902912D02*
X9616492Y-10731484D01*
X9797444Y-10921960D02*
X9778396Y-10931484D01*
X9778396Y-10931484D02*
X9740301Y-10931484D01*
X9740301Y-10931484D02*
X9721253Y-10921960D01*
X9721253Y-10921960D02*
X9711730Y-10902912D01*
X9711730Y-10902912D02*
X9711730Y-10826722D01*
X9711730Y-10826722D02*
X9721253Y-10807674D01*
X9721253Y-10807674D02*
X9740301Y-10798150D01*
X9740301Y-10798150D02*
X9778396Y-10798150D01*
X9778396Y-10798150D02*
X9797444Y-10807674D01*
X9797444Y-10807674D02*
X9806968Y-10826722D01*
X9806968Y-10826722D02*
X9806968Y-10845770D01*
X9806968Y-10845770D02*
X9711730Y-10864817D01*
X9883158Y-10921960D02*
X9902206Y-10931484D01*
X9902206Y-10931484D02*
X9940301Y-10931484D01*
X9940301Y-10931484D02*
X9959349Y-10921960D01*
X9959349Y-10921960D02*
X9968873Y-10902912D01*
X9968873Y-10902912D02*
X9968873Y-10893389D01*
X9968873Y-10893389D02*
X9959349Y-10874341D01*
X9959349Y-10874341D02*
X9940301Y-10864817D01*
X9940301Y-10864817D02*
X9911730Y-10864817D01*
X9911730Y-10864817D02*
X9892682Y-10855293D01*
X9892682Y-10855293D02*
X9883158Y-10836246D01*
X9883158Y-10836246D02*
X9883158Y-10826722D01*
X9883158Y-10826722D02*
X9892682Y-10807674D01*
X9892682Y-10807674D02*
X9911730Y-10798150D01*
X9911730Y-10798150D02*
X9940301Y-10798150D01*
X9940301Y-10798150D02*
X9959349Y-10807674D01*
X10035539Y-11007674D02*
X10045063Y-10998150D01*
X10045063Y-10998150D02*
X10064111Y-10969579D01*
X10064111Y-10969579D02*
X10073634Y-10950531D01*
X10073634Y-10950531D02*
X10083158Y-10921960D01*
X10083158Y-10921960D02*
X10092682Y-10874341D01*
X10092682Y-10874341D02*
X10092682Y-10836246D01*
X10092682Y-10836246D02*
X10083158Y-10788627D01*
X10083158Y-10788627D02*
X10073634Y-10760055D01*
X10073634Y-10760055D02*
X10064111Y-10741008D01*
X10064111Y-10741008D02*
X10045063Y-10712436D01*
X10045063Y-10712436D02*
X10035539Y-10702912D01*
D13*
X5005000Y-11169000D02*
X5070000Y-11104000D01*
X5005000Y-11039000D01*
X4940000Y-11104000D01*
X5005000Y-11169000D01*
D10*
X5435539Y-11195484D02*
X5321253Y-11195484D01*
X5378396Y-11195484D02*
X5378396Y-10995484D01*
X5378396Y-10995484D02*
X5359348Y-11024055D01*
X5359348Y-11024055D02*
X5340301Y-11043103D01*
X5340301Y-11043103D02*
X5321253Y-11052627D01*
X5521253Y-11176436D02*
X5530777Y-11185960D01*
X5530777Y-11185960D02*
X5521253Y-11195484D01*
X5521253Y-11195484D02*
X5511729Y-11185960D01*
X5511729Y-11185960D02*
X5521253Y-11176436D01*
X5521253Y-11176436D02*
X5521253Y-11195484D01*
X5597443Y-10995484D02*
X5721253Y-10995484D01*
X5721253Y-10995484D02*
X5654586Y-11071674D01*
X5654586Y-11071674D02*
X5683158Y-11071674D01*
X5683158Y-11071674D02*
X5702205Y-11081198D01*
X5702205Y-11081198D02*
X5711729Y-11090722D01*
X5711729Y-11090722D02*
X5721253Y-11109770D01*
X5721253Y-11109770D02*
X5721253Y-11157389D01*
X5721253Y-11157389D02*
X5711729Y-11176436D01*
X5711729Y-11176436D02*
X5702205Y-11185960D01*
X5702205Y-11185960D02*
X5683158Y-11195484D01*
X5683158Y-11195484D02*
X5626015Y-11195484D01*
X5626015Y-11195484D02*
X5606967Y-11185960D01*
X5606967Y-11185960D02*
X5597443Y-11176436D01*
X5845062Y-10995484D02*
X5864110Y-10995484D01*
X5864110Y-10995484D02*
X5883158Y-11005008D01*
X5883158Y-11005008D02*
X5892682Y-11014531D01*
X5892682Y-11014531D02*
X5902205Y-11033579D01*
X5902205Y-11033579D02*
X5911729Y-11071674D01*
X5911729Y-11071674D02*
X5911729Y-11119293D01*
X5911729Y-11119293D02*
X5902205Y-11157389D01*
X5902205Y-11157389D02*
X5892682Y-11176436D01*
X5892682Y-11176436D02*
X5883158Y-11185960D01*
X5883158Y-11185960D02*
X5864110Y-11195484D01*
X5864110Y-11195484D02*
X5845062Y-11195484D01*
X5845062Y-11195484D02*
X5826015Y-11185960D01*
X5826015Y-11185960D02*
X5816491Y-11176436D01*
X5816491Y-11176436D02*
X5806967Y-11157389D01*
X5806967Y-11157389D02*
X5797443Y-11119293D01*
X5797443Y-11119293D02*
X5797443Y-11071674D01*
X5797443Y-11071674D02*
X5806967Y-11033579D01*
X5806967Y-11033579D02*
X5816491Y-11014531D01*
X5816491Y-11014531D02*
X5826015Y-11005008D01*
X5826015Y-11005008D02*
X5845062Y-10995484D01*
X6035539Y-10995484D02*
X6054586Y-10995484D01*
X6054586Y-10995484D02*
X6073634Y-11005008D01*
X6073634Y-11005008D02*
X6083158Y-11014531D01*
X6083158Y-11014531D02*
X6092682Y-11033579D01*
X6092682Y-11033579D02*
X6102205Y-11071674D01*
X6102205Y-11071674D02*
X6102205Y-11119293D01*
X6102205Y-11119293D02*
X6092682Y-11157389D01*
X6092682Y-11157389D02*
X6083158Y-11176436D01*
X6083158Y-11176436D02*
X6073634Y-11185960D01*
X6073634Y-11185960D02*
X6054586Y-11195484D01*
X6054586Y-11195484D02*
X6035539Y-11195484D01*
X6035539Y-11195484D02*
X6016491Y-11185960D01*
X6016491Y-11185960D02*
X6006967Y-11176436D01*
X6006967Y-11176436D02*
X5997443Y-11157389D01*
X5997443Y-11157389D02*
X5987920Y-11119293D01*
X5987920Y-11119293D02*
X5987920Y-11071674D01*
X5987920Y-11071674D02*
X5997443Y-11033579D01*
X5997443Y-11033579D02*
X6006967Y-11014531D01*
X6006967Y-11014531D02*
X6016491Y-11005008D01*
X6016491Y-11005008D02*
X6035539Y-10995484D01*
X6187920Y-11195484D02*
X6187920Y-11062150D01*
X6187920Y-11081198D02*
X6197443Y-11071674D01*
X6197443Y-11071674D02*
X6216491Y-11062150D01*
X6216491Y-11062150D02*
X6245063Y-11062150D01*
X6245063Y-11062150D02*
X6264110Y-11071674D01*
X6264110Y-11071674D02*
X6273634Y-11090722D01*
X6273634Y-11090722D02*
X6273634Y-11195484D01*
X6273634Y-11090722D02*
X6283158Y-11071674D01*
X6283158Y-11071674D02*
X6302205Y-11062150D01*
X6302205Y-11062150D02*
X6330777Y-11062150D01*
X6330777Y-11062150D02*
X6349824Y-11071674D01*
X6349824Y-11071674D02*
X6359348Y-11090722D01*
X6359348Y-11090722D02*
X6359348Y-11195484D01*
X6454586Y-11195484D02*
X6454586Y-11062150D01*
X6454586Y-11081198D02*
X6464110Y-11071674D01*
X6464110Y-11071674D02*
X6483158Y-11062150D01*
X6483158Y-11062150D02*
X6511729Y-11062150D01*
X6511729Y-11062150D02*
X6530777Y-11071674D01*
X6530777Y-11071674D02*
X6540301Y-11090722D01*
X6540301Y-11090722D02*
X6540301Y-11195484D01*
X6540301Y-11090722D02*
X6549824Y-11071674D01*
X6549824Y-11071674D02*
X6568872Y-11062150D01*
X6568872Y-11062150D02*
X6597443Y-11062150D01*
X6597443Y-11062150D02*
X6616491Y-11071674D01*
X6616491Y-11071674D02*
X6626015Y-11090722D01*
X6626015Y-11090722D02*
X6626015Y-11195484D01*
X7016491Y-10985960D02*
X6845063Y-11243103D01*
X7273634Y-10995484D02*
X7292682Y-10995484D01*
X7292682Y-10995484D02*
X7311729Y-11005008D01*
X7311729Y-11005008D02*
X7321253Y-11014531D01*
X7321253Y-11014531D02*
X7330777Y-11033579D01*
X7330777Y-11033579D02*
X7340301Y-11071674D01*
X7340301Y-11071674D02*
X7340301Y-11119293D01*
X7340301Y-11119293D02*
X7330777Y-11157389D01*
X7330777Y-11157389D02*
X7321253Y-11176436D01*
X7321253Y-11176436D02*
X7311729Y-11185960D01*
X7311729Y-11185960D02*
X7292682Y-11195484D01*
X7292682Y-11195484D02*
X7273634Y-11195484D01*
X7273634Y-11195484D02*
X7254586Y-11185960D01*
X7254586Y-11185960D02*
X7245063Y-11176436D01*
X7245063Y-11176436D02*
X7235539Y-11157389D01*
X7235539Y-11157389D02*
X7226015Y-11119293D01*
X7226015Y-11119293D02*
X7226015Y-11071674D01*
X7226015Y-11071674D02*
X7235539Y-11033579D01*
X7235539Y-11033579D02*
X7245063Y-11014531D01*
X7245063Y-11014531D02*
X7254586Y-11005008D01*
X7254586Y-11005008D02*
X7273634Y-10995484D01*
X7426015Y-11176436D02*
X7435539Y-11185960D01*
X7435539Y-11185960D02*
X7426015Y-11195484D01*
X7426015Y-11195484D02*
X7416491Y-11185960D01*
X7416491Y-11185960D02*
X7426015Y-11176436D01*
X7426015Y-11176436D02*
X7426015Y-11195484D01*
X7559348Y-10995484D02*
X7578396Y-10995484D01*
X7578396Y-10995484D02*
X7597444Y-11005008D01*
X7597444Y-11005008D02*
X7606967Y-11014531D01*
X7606967Y-11014531D02*
X7616491Y-11033579D01*
X7616491Y-11033579D02*
X7626015Y-11071674D01*
X7626015Y-11071674D02*
X7626015Y-11119293D01*
X7626015Y-11119293D02*
X7616491Y-11157389D01*
X7616491Y-11157389D02*
X7606967Y-11176436D01*
X7606967Y-11176436D02*
X7597444Y-11185960D01*
X7597444Y-11185960D02*
X7578396Y-11195484D01*
X7578396Y-11195484D02*
X7559348Y-11195484D01*
X7559348Y-11195484D02*
X7540301Y-11185960D01*
X7540301Y-11185960D02*
X7530777Y-11176436D01*
X7530777Y-11176436D02*
X7521253Y-11157389D01*
X7521253Y-11157389D02*
X7511729Y-11119293D01*
X7511729Y-11119293D02*
X7511729Y-11071674D01*
X7511729Y-11071674D02*
X7521253Y-11033579D01*
X7521253Y-11033579D02*
X7530777Y-11014531D01*
X7530777Y-11014531D02*
X7540301Y-11005008D01*
X7540301Y-11005008D02*
X7559348Y-10995484D01*
X7806967Y-10995484D02*
X7711729Y-10995484D01*
X7711729Y-10995484D02*
X7702206Y-11090722D01*
X7702206Y-11090722D02*
X7711729Y-11081198D01*
X7711729Y-11081198D02*
X7730777Y-11071674D01*
X7730777Y-11071674D02*
X7778396Y-11071674D01*
X7778396Y-11071674D02*
X7797444Y-11081198D01*
X7797444Y-11081198D02*
X7806967Y-11090722D01*
X7806967Y-11090722D02*
X7816491Y-11109770D01*
X7816491Y-11109770D02*
X7816491Y-11157389D01*
X7816491Y-11157389D02*
X7806967Y-11176436D01*
X7806967Y-11176436D02*
X7797444Y-11185960D01*
X7797444Y-11185960D02*
X7778396Y-11195484D01*
X7778396Y-11195484D02*
X7730777Y-11195484D01*
X7730777Y-11195484D02*
X7711729Y-11185960D01*
X7711729Y-11185960D02*
X7702206Y-11176436D01*
X8006967Y-11195484D02*
X7892682Y-11195484D01*
X7949825Y-11195484D02*
X7949825Y-10995484D01*
X7949825Y-10995484D02*
X7930777Y-11024055D01*
X7930777Y-11024055D02*
X7911729Y-11043103D01*
X7911729Y-11043103D02*
X7892682Y-11052627D01*
X8083158Y-11014531D02*
X8092682Y-11005008D01*
X8092682Y-11005008D02*
X8111729Y-10995484D01*
X8111729Y-10995484D02*
X8159348Y-10995484D01*
X8159348Y-10995484D02*
X8178396Y-11005008D01*
X8178396Y-11005008D02*
X8187920Y-11014531D01*
X8187920Y-11014531D02*
X8197444Y-11033579D01*
X8197444Y-11033579D02*
X8197444Y-11052627D01*
X8197444Y-11052627D02*
X8187920Y-11081198D01*
X8187920Y-11081198D02*
X8073634Y-11195484D01*
X8073634Y-11195484D02*
X8197444Y-11195484D01*
X8273634Y-10995484D02*
X8273634Y-11033579D01*
X8349825Y-10995484D02*
X8349825Y-11033579D01*
X8645063Y-11271674D02*
X8635539Y-11262150D01*
X8635539Y-11262150D02*
X8616491Y-11233579D01*
X8616491Y-11233579D02*
X8606968Y-11214531D01*
X8606968Y-11214531D02*
X8597444Y-11185960D01*
X8597444Y-11185960D02*
X8587920Y-11138341D01*
X8587920Y-11138341D02*
X8587920Y-11100246D01*
X8587920Y-11100246D02*
X8597444Y-11052627D01*
X8597444Y-11052627D02*
X8606968Y-11024055D01*
X8606968Y-11024055D02*
X8616491Y-11005008D01*
X8616491Y-11005008D02*
X8635539Y-10976436D01*
X8635539Y-10976436D02*
X8645063Y-10966912D01*
X8806968Y-10995484D02*
X8768872Y-10995484D01*
X8768872Y-10995484D02*
X8749825Y-11005008D01*
X8749825Y-11005008D02*
X8740301Y-11014531D01*
X8740301Y-11014531D02*
X8721253Y-11043103D01*
X8721253Y-11043103D02*
X8711730Y-11081198D01*
X8711730Y-11081198D02*
X8711730Y-11157389D01*
X8711730Y-11157389D02*
X8721253Y-11176436D01*
X8721253Y-11176436D02*
X8730777Y-11185960D01*
X8730777Y-11185960D02*
X8749825Y-11195484D01*
X8749825Y-11195484D02*
X8787920Y-11195484D01*
X8787920Y-11195484D02*
X8806968Y-11185960D01*
X8806968Y-11185960D02*
X8816491Y-11176436D01*
X8816491Y-11176436D02*
X8826015Y-11157389D01*
X8826015Y-11157389D02*
X8826015Y-11109770D01*
X8826015Y-11109770D02*
X8816491Y-11090722D01*
X8816491Y-11090722D02*
X8806968Y-11081198D01*
X8806968Y-11081198D02*
X8787920Y-11071674D01*
X8787920Y-11071674D02*
X8749825Y-11071674D01*
X8749825Y-11071674D02*
X8730777Y-11081198D01*
X8730777Y-11081198D02*
X8721253Y-11090722D01*
X8721253Y-11090722D02*
X8711730Y-11109770D01*
X9064111Y-11195484D02*
X9064111Y-10995484D01*
X9149825Y-11195484D02*
X9149825Y-11090722D01*
X9149825Y-11090722D02*
X9140301Y-11071674D01*
X9140301Y-11071674D02*
X9121253Y-11062150D01*
X9121253Y-11062150D02*
X9092682Y-11062150D01*
X9092682Y-11062150D02*
X9073634Y-11071674D01*
X9073634Y-11071674D02*
X9064111Y-11081198D01*
X9273634Y-11195484D02*
X9254587Y-11185960D01*
X9254587Y-11185960D02*
X9245063Y-11176436D01*
X9245063Y-11176436D02*
X9235539Y-11157389D01*
X9235539Y-11157389D02*
X9235539Y-11100246D01*
X9235539Y-11100246D02*
X9245063Y-11081198D01*
X9245063Y-11081198D02*
X9254587Y-11071674D01*
X9254587Y-11071674D02*
X9273634Y-11062150D01*
X9273634Y-11062150D02*
X9302206Y-11062150D01*
X9302206Y-11062150D02*
X9321253Y-11071674D01*
X9321253Y-11071674D02*
X9330777Y-11081198D01*
X9330777Y-11081198D02*
X9340301Y-11100246D01*
X9340301Y-11100246D02*
X9340301Y-11157389D01*
X9340301Y-11157389D02*
X9330777Y-11176436D01*
X9330777Y-11176436D02*
X9321253Y-11185960D01*
X9321253Y-11185960D02*
X9302206Y-11195484D01*
X9302206Y-11195484D02*
X9273634Y-11195484D01*
X9454587Y-11195484D02*
X9435539Y-11185960D01*
X9435539Y-11185960D02*
X9426015Y-11166912D01*
X9426015Y-11166912D02*
X9426015Y-10995484D01*
X9606968Y-11185960D02*
X9587920Y-11195484D01*
X9587920Y-11195484D02*
X9549825Y-11195484D01*
X9549825Y-11195484D02*
X9530777Y-11185960D01*
X9530777Y-11185960D02*
X9521253Y-11166912D01*
X9521253Y-11166912D02*
X9521253Y-11090722D01*
X9521253Y-11090722D02*
X9530777Y-11071674D01*
X9530777Y-11071674D02*
X9549825Y-11062150D01*
X9549825Y-11062150D02*
X9587920Y-11062150D01*
X9587920Y-11062150D02*
X9606968Y-11071674D01*
X9606968Y-11071674D02*
X9616492Y-11090722D01*
X9616492Y-11090722D02*
X9616492Y-11109770D01*
X9616492Y-11109770D02*
X9521253Y-11128817D01*
X9692682Y-11185960D02*
X9711730Y-11195484D01*
X9711730Y-11195484D02*
X9749825Y-11195484D01*
X9749825Y-11195484D02*
X9768873Y-11185960D01*
X9768873Y-11185960D02*
X9778396Y-11166912D01*
X9778396Y-11166912D02*
X9778396Y-11157389D01*
X9778396Y-11157389D02*
X9768873Y-11138341D01*
X9768873Y-11138341D02*
X9749825Y-11128817D01*
X9749825Y-11128817D02*
X9721253Y-11128817D01*
X9721253Y-11128817D02*
X9702206Y-11119293D01*
X9702206Y-11119293D02*
X9692682Y-11100246D01*
X9692682Y-11100246D02*
X9692682Y-11090722D01*
X9692682Y-11090722D02*
X9702206Y-11071674D01*
X9702206Y-11071674D02*
X9721253Y-11062150D01*
X9721253Y-11062150D02*
X9749825Y-11062150D01*
X9749825Y-11062150D02*
X9768873Y-11071674D01*
X9845063Y-11271674D02*
X9854587Y-11262150D01*
X9854587Y-11262150D02*
X9873634Y-11233579D01*
X9873634Y-11233579D02*
X9883158Y-11214531D01*
X9883158Y-11214531D02*
X9892682Y-11185960D01*
X9892682Y-11185960D02*
X9902206Y-11138341D01*
X9902206Y-11138341D02*
X9902206Y-11100246D01*
X9902206Y-11100246D02*
X9892682Y-11052627D01*
X9892682Y-11052627D02*
X9883158Y-11024055D01*
X9883158Y-11024055D02*
X9873634Y-11005008D01*
X9873634Y-11005008D02*
X9854587Y-10976436D01*
X9854587Y-10976436D02*
X9845063Y-10966912D01*
D14*
X4918000Y-11292000D02*
X5070000Y-11444000D01*
X5070000Y-11292000D02*
X4918000Y-11444000D01*
X5070000Y-11368000D02*
G75*
G03*
X4918000Y-11368000I-76000J0D01*
G01*
X4918000Y-11368000D02*
G75*
G03*
X5070000Y-11368000I76000J0D01*
G01*
D10*
X5435539Y-11459484D02*
X5321253Y-11459484D01*
X5378396Y-11459484D02*
X5378396Y-11259484D01*
X5378396Y-11259484D02*
X5359348Y-11288055D01*
X5359348Y-11288055D02*
X5340301Y-11307103D01*
X5340301Y-11307103D02*
X5321253Y-11316627D01*
X5521253Y-11440436D02*
X5530777Y-11449960D01*
X5530777Y-11449960D02*
X5521253Y-11459484D01*
X5521253Y-11459484D02*
X5511729Y-11449960D01*
X5511729Y-11449960D02*
X5521253Y-11440436D01*
X5521253Y-11440436D02*
X5521253Y-11459484D01*
X5711729Y-11259484D02*
X5616491Y-11259484D01*
X5616491Y-11259484D02*
X5606967Y-11354722D01*
X5606967Y-11354722D02*
X5616491Y-11345198D01*
X5616491Y-11345198D02*
X5635539Y-11335674D01*
X5635539Y-11335674D02*
X5683158Y-11335674D01*
X5683158Y-11335674D02*
X5702205Y-11345198D01*
X5702205Y-11345198D02*
X5711729Y-11354722D01*
X5711729Y-11354722D02*
X5721253Y-11373769D01*
X5721253Y-11373769D02*
X5721253Y-11421388D01*
X5721253Y-11421388D02*
X5711729Y-11440436D01*
X5711729Y-11440436D02*
X5702205Y-11449960D01*
X5702205Y-11449960D02*
X5683158Y-11459484D01*
X5683158Y-11459484D02*
X5635539Y-11459484D01*
X5635539Y-11459484D02*
X5616491Y-11449960D01*
X5616491Y-11449960D02*
X5606967Y-11440436D01*
X5797443Y-11278531D02*
X5806967Y-11269008D01*
X5806967Y-11269008D02*
X5826015Y-11259484D01*
X5826015Y-11259484D02*
X5873634Y-11259484D01*
X5873634Y-11259484D02*
X5892682Y-11269008D01*
X5892682Y-11269008D02*
X5902205Y-11278531D01*
X5902205Y-11278531D02*
X5911729Y-11297579D01*
X5911729Y-11297579D02*
X5911729Y-11316627D01*
X5911729Y-11316627D02*
X5902205Y-11345198D01*
X5902205Y-11345198D02*
X5787920Y-11459484D01*
X5787920Y-11459484D02*
X5911729Y-11459484D01*
X6035539Y-11259484D02*
X6054586Y-11259484D01*
X6054586Y-11259484D02*
X6073634Y-11269008D01*
X6073634Y-11269008D02*
X6083158Y-11278531D01*
X6083158Y-11278531D02*
X6092682Y-11297579D01*
X6092682Y-11297579D02*
X6102205Y-11335674D01*
X6102205Y-11335674D02*
X6102205Y-11383293D01*
X6102205Y-11383293D02*
X6092682Y-11421388D01*
X6092682Y-11421388D02*
X6083158Y-11440436D01*
X6083158Y-11440436D02*
X6073634Y-11449960D01*
X6073634Y-11449960D02*
X6054586Y-11459484D01*
X6054586Y-11459484D02*
X6035539Y-11459484D01*
X6035539Y-11459484D02*
X6016491Y-11449960D01*
X6016491Y-11449960D02*
X6006967Y-11440436D01*
X6006967Y-11440436D02*
X5997443Y-11421388D01*
X5997443Y-11421388D02*
X5987920Y-11383293D01*
X5987920Y-11383293D02*
X5987920Y-11335674D01*
X5987920Y-11335674D02*
X5997443Y-11297579D01*
X5997443Y-11297579D02*
X6006967Y-11278531D01*
X6006967Y-11278531D02*
X6016491Y-11269008D01*
X6016491Y-11269008D02*
X6035539Y-11259484D01*
X6187920Y-11459484D02*
X6187920Y-11326150D01*
X6187920Y-11345198D02*
X6197443Y-11335674D01*
X6197443Y-11335674D02*
X6216491Y-11326150D01*
X6216491Y-11326150D02*
X6245063Y-11326150D01*
X6245063Y-11326150D02*
X6264110Y-11335674D01*
X6264110Y-11335674D02*
X6273634Y-11354722D01*
X6273634Y-11354722D02*
X6273634Y-11459484D01*
X6273634Y-11354722D02*
X6283158Y-11335674D01*
X6283158Y-11335674D02*
X6302205Y-11326150D01*
X6302205Y-11326150D02*
X6330777Y-11326150D01*
X6330777Y-11326150D02*
X6349824Y-11335674D01*
X6349824Y-11335674D02*
X6359348Y-11354722D01*
X6359348Y-11354722D02*
X6359348Y-11459484D01*
X6454586Y-11459484D02*
X6454586Y-11326150D01*
X6454586Y-11345198D02*
X6464110Y-11335674D01*
X6464110Y-11335674D02*
X6483158Y-11326150D01*
X6483158Y-11326150D02*
X6511729Y-11326150D01*
X6511729Y-11326150D02*
X6530777Y-11335674D01*
X6530777Y-11335674D02*
X6540301Y-11354722D01*
X6540301Y-11354722D02*
X6540301Y-11459484D01*
X6540301Y-11354722D02*
X6549824Y-11335674D01*
X6549824Y-11335674D02*
X6568872Y-11326150D01*
X6568872Y-11326150D02*
X6597443Y-11326150D01*
X6597443Y-11326150D02*
X6616491Y-11335674D01*
X6616491Y-11335674D02*
X6626015Y-11354722D01*
X6626015Y-11354722D02*
X6626015Y-11459484D01*
X7016491Y-11249960D02*
X6845063Y-11507103D01*
X7273634Y-11259484D02*
X7292682Y-11259484D01*
X7292682Y-11259484D02*
X7311729Y-11269008D01*
X7311729Y-11269008D02*
X7321253Y-11278531D01*
X7321253Y-11278531D02*
X7330777Y-11297579D01*
X7330777Y-11297579D02*
X7340301Y-11335674D01*
X7340301Y-11335674D02*
X7340301Y-11383293D01*
X7340301Y-11383293D02*
X7330777Y-11421388D01*
X7330777Y-11421388D02*
X7321253Y-11440436D01*
X7321253Y-11440436D02*
X7311729Y-11449960D01*
X7311729Y-11449960D02*
X7292682Y-11459484D01*
X7292682Y-11459484D02*
X7273634Y-11459484D01*
X7273634Y-11459484D02*
X7254586Y-11449960D01*
X7254586Y-11449960D02*
X7245063Y-11440436D01*
X7245063Y-11440436D02*
X7235539Y-11421388D01*
X7235539Y-11421388D02*
X7226015Y-11383293D01*
X7226015Y-11383293D02*
X7226015Y-11335674D01*
X7226015Y-11335674D02*
X7235539Y-11297579D01*
X7235539Y-11297579D02*
X7245063Y-11278531D01*
X7245063Y-11278531D02*
X7254586Y-11269008D01*
X7254586Y-11269008D02*
X7273634Y-11259484D01*
X7426015Y-11440436D02*
X7435539Y-11449960D01*
X7435539Y-11449960D02*
X7426015Y-11459484D01*
X7426015Y-11459484D02*
X7416491Y-11449960D01*
X7416491Y-11449960D02*
X7426015Y-11440436D01*
X7426015Y-11440436D02*
X7426015Y-11459484D01*
X7559348Y-11259484D02*
X7578396Y-11259484D01*
X7578396Y-11259484D02*
X7597444Y-11269008D01*
X7597444Y-11269008D02*
X7606967Y-11278531D01*
X7606967Y-11278531D02*
X7616491Y-11297579D01*
X7616491Y-11297579D02*
X7626015Y-11335674D01*
X7626015Y-11335674D02*
X7626015Y-11383293D01*
X7626015Y-11383293D02*
X7616491Y-11421388D01*
X7616491Y-11421388D02*
X7606967Y-11440436D01*
X7606967Y-11440436D02*
X7597444Y-11449960D01*
X7597444Y-11449960D02*
X7578396Y-11459484D01*
X7578396Y-11459484D02*
X7559348Y-11459484D01*
X7559348Y-11459484D02*
X7540301Y-11449960D01*
X7540301Y-11449960D02*
X7530777Y-11440436D01*
X7530777Y-11440436D02*
X7521253Y-11421388D01*
X7521253Y-11421388D02*
X7511729Y-11383293D01*
X7511729Y-11383293D02*
X7511729Y-11335674D01*
X7511729Y-11335674D02*
X7521253Y-11297579D01*
X7521253Y-11297579D02*
X7530777Y-11278531D01*
X7530777Y-11278531D02*
X7540301Y-11269008D01*
X7540301Y-11269008D02*
X7559348Y-11259484D01*
X7806967Y-11259484D02*
X7711729Y-11259484D01*
X7711729Y-11259484D02*
X7702206Y-11354722D01*
X7702206Y-11354722D02*
X7711729Y-11345198D01*
X7711729Y-11345198D02*
X7730777Y-11335674D01*
X7730777Y-11335674D02*
X7778396Y-11335674D01*
X7778396Y-11335674D02*
X7797444Y-11345198D01*
X7797444Y-11345198D02*
X7806967Y-11354722D01*
X7806967Y-11354722D02*
X7816491Y-11373769D01*
X7816491Y-11373769D02*
X7816491Y-11421388D01*
X7816491Y-11421388D02*
X7806967Y-11440436D01*
X7806967Y-11440436D02*
X7797444Y-11449960D01*
X7797444Y-11449960D02*
X7778396Y-11459484D01*
X7778396Y-11459484D02*
X7730777Y-11459484D01*
X7730777Y-11459484D02*
X7711729Y-11449960D01*
X7711729Y-11449960D02*
X7702206Y-11440436D01*
X7911729Y-11459484D02*
X7949825Y-11459484D01*
X7949825Y-11459484D02*
X7968872Y-11449960D01*
X7968872Y-11449960D02*
X7978396Y-11440436D01*
X7978396Y-11440436D02*
X7997444Y-11411865D01*
X7997444Y-11411865D02*
X8006967Y-11373769D01*
X8006967Y-11373769D02*
X8006967Y-11297579D01*
X8006967Y-11297579D02*
X7997444Y-11278531D01*
X7997444Y-11278531D02*
X7987920Y-11269008D01*
X7987920Y-11269008D02*
X7968872Y-11259484D01*
X7968872Y-11259484D02*
X7930777Y-11259484D01*
X7930777Y-11259484D02*
X7911729Y-11269008D01*
X7911729Y-11269008D02*
X7902206Y-11278531D01*
X7902206Y-11278531D02*
X7892682Y-11297579D01*
X7892682Y-11297579D02*
X7892682Y-11345198D01*
X7892682Y-11345198D02*
X7902206Y-11364246D01*
X7902206Y-11364246D02*
X7911729Y-11373769D01*
X7911729Y-11373769D02*
X7930777Y-11383293D01*
X7930777Y-11383293D02*
X7968872Y-11383293D01*
X7968872Y-11383293D02*
X7987920Y-11373769D01*
X7987920Y-11373769D02*
X7997444Y-11364246D01*
X7997444Y-11364246D02*
X8006967Y-11345198D01*
X8121253Y-11345198D02*
X8102206Y-11335674D01*
X8102206Y-11335674D02*
X8092682Y-11326150D01*
X8092682Y-11326150D02*
X8083158Y-11307103D01*
X8083158Y-11307103D02*
X8083158Y-11297579D01*
X8083158Y-11297579D02*
X8092682Y-11278531D01*
X8092682Y-11278531D02*
X8102206Y-11269008D01*
X8102206Y-11269008D02*
X8121253Y-11259484D01*
X8121253Y-11259484D02*
X8159348Y-11259484D01*
X8159348Y-11259484D02*
X8178396Y-11269008D01*
X8178396Y-11269008D02*
X8187920Y-11278531D01*
X8187920Y-11278531D02*
X8197444Y-11297579D01*
X8197444Y-11297579D02*
X8197444Y-11307103D01*
X8197444Y-11307103D02*
X8187920Y-11326150D01*
X8187920Y-11326150D02*
X8178396Y-11335674D01*
X8178396Y-11335674D02*
X8159348Y-11345198D01*
X8159348Y-11345198D02*
X8121253Y-11345198D01*
X8121253Y-11345198D02*
X8102206Y-11354722D01*
X8102206Y-11354722D02*
X8092682Y-11364246D01*
X8092682Y-11364246D02*
X8083158Y-11383293D01*
X8083158Y-11383293D02*
X8083158Y-11421388D01*
X8083158Y-11421388D02*
X8092682Y-11440436D01*
X8092682Y-11440436D02*
X8102206Y-11449960D01*
X8102206Y-11449960D02*
X8121253Y-11459484D01*
X8121253Y-11459484D02*
X8159348Y-11459484D01*
X8159348Y-11459484D02*
X8178396Y-11449960D01*
X8178396Y-11449960D02*
X8187920Y-11440436D01*
X8187920Y-11440436D02*
X8197444Y-11421388D01*
X8197444Y-11421388D02*
X8197444Y-11383293D01*
X8197444Y-11383293D02*
X8187920Y-11364246D01*
X8187920Y-11364246D02*
X8178396Y-11354722D01*
X8178396Y-11354722D02*
X8159348Y-11345198D01*
X8273634Y-11259484D02*
X8273634Y-11297579D01*
X8349825Y-11259484D02*
X8349825Y-11297579D01*
X8645063Y-11535674D02*
X8635539Y-11526150D01*
X8635539Y-11526150D02*
X8616491Y-11497579D01*
X8616491Y-11497579D02*
X8606968Y-11478531D01*
X8606968Y-11478531D02*
X8597444Y-11449960D01*
X8597444Y-11449960D02*
X8587920Y-11402341D01*
X8587920Y-11402341D02*
X8587920Y-11364246D01*
X8587920Y-11364246D02*
X8597444Y-11316627D01*
X8597444Y-11316627D02*
X8606968Y-11288055D01*
X8606968Y-11288055D02*
X8616491Y-11269008D01*
X8616491Y-11269008D02*
X8635539Y-11240436D01*
X8635539Y-11240436D02*
X8645063Y-11230912D01*
X8749825Y-11345198D02*
X8730777Y-11335674D01*
X8730777Y-11335674D02*
X8721253Y-11326150D01*
X8721253Y-11326150D02*
X8711730Y-11307103D01*
X8711730Y-11307103D02*
X8711730Y-11297579D01*
X8711730Y-11297579D02*
X8721253Y-11278531D01*
X8721253Y-11278531D02*
X8730777Y-11269008D01*
X8730777Y-11269008D02*
X8749825Y-11259484D01*
X8749825Y-11259484D02*
X8787920Y-11259484D01*
X8787920Y-11259484D02*
X8806968Y-11269008D01*
X8806968Y-11269008D02*
X8816491Y-11278531D01*
X8816491Y-11278531D02*
X8826015Y-11297579D01*
X8826015Y-11297579D02*
X8826015Y-11307103D01*
X8826015Y-11307103D02*
X8816491Y-11326150D01*
X8816491Y-11326150D02*
X8806968Y-11335674D01*
X8806968Y-11335674D02*
X8787920Y-11345198D01*
X8787920Y-11345198D02*
X8749825Y-11345198D01*
X8749825Y-11345198D02*
X8730777Y-11354722D01*
X8730777Y-11354722D02*
X8721253Y-11364246D01*
X8721253Y-11364246D02*
X8711730Y-11383293D01*
X8711730Y-11383293D02*
X8711730Y-11421388D01*
X8711730Y-11421388D02*
X8721253Y-11440436D01*
X8721253Y-11440436D02*
X8730777Y-11449960D01*
X8730777Y-11449960D02*
X8749825Y-11459484D01*
X8749825Y-11459484D02*
X8787920Y-11459484D01*
X8787920Y-11459484D02*
X8806968Y-11449960D01*
X8806968Y-11449960D02*
X8816491Y-11440436D01*
X8816491Y-11440436D02*
X8826015Y-11421388D01*
X8826015Y-11421388D02*
X8826015Y-11383293D01*
X8826015Y-11383293D02*
X8816491Y-11364246D01*
X8816491Y-11364246D02*
X8806968Y-11354722D01*
X8806968Y-11354722D02*
X8787920Y-11345198D01*
X9064111Y-11459484D02*
X9064111Y-11259484D01*
X9149825Y-11459484D02*
X9149825Y-11354722D01*
X9149825Y-11354722D02*
X9140301Y-11335674D01*
X9140301Y-11335674D02*
X9121253Y-11326150D01*
X9121253Y-11326150D02*
X9092682Y-11326150D01*
X9092682Y-11326150D02*
X9073634Y-11335674D01*
X9073634Y-11335674D02*
X9064111Y-11345198D01*
X9273634Y-11459484D02*
X9254587Y-11449960D01*
X9254587Y-11449960D02*
X9245063Y-11440436D01*
X9245063Y-11440436D02*
X9235539Y-11421388D01*
X9235539Y-11421388D02*
X9235539Y-11364246D01*
X9235539Y-11364246D02*
X9245063Y-11345198D01*
X9245063Y-11345198D02*
X9254587Y-11335674D01*
X9254587Y-11335674D02*
X9273634Y-11326150D01*
X9273634Y-11326150D02*
X9302206Y-11326150D01*
X9302206Y-11326150D02*
X9321253Y-11335674D01*
X9321253Y-11335674D02*
X9330777Y-11345198D01*
X9330777Y-11345198D02*
X9340301Y-11364246D01*
X9340301Y-11364246D02*
X9340301Y-11421388D01*
X9340301Y-11421388D02*
X9330777Y-11440436D01*
X9330777Y-11440436D02*
X9321253Y-11449960D01*
X9321253Y-11449960D02*
X9302206Y-11459484D01*
X9302206Y-11459484D02*
X9273634Y-11459484D01*
X9454587Y-11459484D02*
X9435539Y-11449960D01*
X9435539Y-11449960D02*
X9426015Y-11430912D01*
X9426015Y-11430912D02*
X9426015Y-11259484D01*
X9606968Y-11449960D02*
X9587920Y-11459484D01*
X9587920Y-11459484D02*
X9549825Y-11459484D01*
X9549825Y-11459484D02*
X9530777Y-11449960D01*
X9530777Y-11449960D02*
X9521253Y-11430912D01*
X9521253Y-11430912D02*
X9521253Y-11354722D01*
X9521253Y-11354722D02*
X9530777Y-11335674D01*
X9530777Y-11335674D02*
X9549825Y-11326150D01*
X9549825Y-11326150D02*
X9587920Y-11326150D01*
X9587920Y-11326150D02*
X9606968Y-11335674D01*
X9606968Y-11335674D02*
X9616492Y-11354722D01*
X9616492Y-11354722D02*
X9616492Y-11373769D01*
X9616492Y-11373769D02*
X9521253Y-11392817D01*
X9692682Y-11449960D02*
X9711730Y-11459484D01*
X9711730Y-11459484D02*
X9749825Y-11459484D01*
X9749825Y-11459484D02*
X9768873Y-11449960D01*
X9768873Y-11449960D02*
X9778396Y-11430912D01*
X9778396Y-11430912D02*
X9778396Y-11421388D01*
X9778396Y-11421388D02*
X9768873Y-11402341D01*
X9768873Y-11402341D02*
X9749825Y-11392817D01*
X9749825Y-11392817D02*
X9721253Y-11392817D01*
X9721253Y-11392817D02*
X9702206Y-11383293D01*
X9702206Y-11383293D02*
X9692682Y-11364246D01*
X9692682Y-11364246D02*
X9692682Y-11354722D01*
X9692682Y-11354722D02*
X9702206Y-11335674D01*
X9702206Y-11335674D02*
X9721253Y-11326150D01*
X9721253Y-11326150D02*
X9749825Y-11326150D01*
X9749825Y-11326150D02*
X9768873Y-11335674D01*
X9845063Y-11535674D02*
X9854587Y-11526150D01*
X9854587Y-11526150D02*
X9873634Y-11497579D01*
X9873634Y-11497579D02*
X9883158Y-11478531D01*
X9883158Y-11478531D02*
X9892682Y-11449960D01*
X9892682Y-11449960D02*
X9902206Y-11402341D01*
X9902206Y-11402341D02*
X9902206Y-11364246D01*
X9902206Y-11364246D02*
X9892682Y-11316627D01*
X9892682Y-11316627D02*
X9883158Y-11288055D01*
X9883158Y-11288055D02*
X9873634Y-11269008D01*
X9873634Y-11269008D02*
X9854587Y-11240436D01*
X9854587Y-11240436D02*
X9845063Y-11230912D01*
M02*
