M48
; DRILL file {KiCad 8.0.4} date 2024-08-20T20:09:26+0200
; FORMAT={-:-/ absolute / metric / decimal}
; #@! TF.CreationDate,2024-08-20T20:09:26+02:00
; #@! TF.GenerationSoftware,Kicad,Pcbnew,8.0.4
; #@! TF.FileFunction,Plated,1,2,PTH
FMAT,2
METRIC
; #@! TA.AperFunction,Plated,PTH,ComponentDrill
T1C0.700
; #@! TA.AperFunction,Plated,PTH,ComponentDrill
T2C0.800
; #@! TA.AperFunction,Plated,PTH,ComponentDrill
T3C0.950
; #@! TA.AperFunction,Plated,PTH,ComponentDrill
T4C1.000
; #@! TA.AperFunction,Plated,PTH,ComponentDrill
T5C1.100
; #@! TA.AperFunction,Plated,PTH,ComponentDrill
T6C1.520
%
G90
G05
T1
X99.06Y-55.88
X99.06Y-58.42
X99.06Y-68.58
X99.06Y-71.12
X99.06Y-81.28
X99.06Y-83.82
X99.06Y-93.98
X99.06Y-96.52
T2
X113.03Y-68.607
X113.03Y-73.66
X113.03Y-78.74
X113.03Y-83.82
X120.65Y-68.607
X120.65Y-73.66
X120.65Y-78.74
X120.65Y-83.82
T3
X83.82Y-71.2
X83.82Y-73.7
X83.82Y-76.2
X83.82Y-78.7
X83.82Y-81.2
X83.82Y-88.9
X83.82Y-91.4
X83.82Y-93.9
T4
X104.14Y-71.12
X104.14Y-73.66
X104.14Y-76.2
X104.14Y-78.74
X104.14Y-81.28
X104.14Y-83.82
X104.14Y-86.36
X104.14Y-88.9
X106.68Y-50.8
X106.68Y-53.34
X106.68Y-55.88
X127.0Y-71.12
X127.0Y-73.66
X127.0Y-76.2
X127.0Y-78.74
X127.0Y-81.28
X127.0Y-83.82
X127.0Y-86.36
X127.0Y-88.9
T5
X93.98Y-50.8
X93.98Y-53.34
X93.98Y-55.88
X93.98Y-63.5
X93.98Y-66.04
X93.98Y-68.58
X93.98Y-76.2
X93.98Y-78.74
X93.98Y-81.28
X93.98Y-88.9
X93.98Y-91.44
X93.98Y-93.98
X109.74Y-43.54
X109.74Y-63.34
X111.94Y-43.54
X111.94Y-63.34
X121.94Y-43.54
X121.94Y-63.34
X124.14Y-43.54
X124.14Y-63.34
T6
X114.3Y-38.1
X119.38Y-38.1
M30
