%TF.GenerationSoftware,KiCad,Pcbnew,8.0.4*%
%TF.CreationDate,2024-08-20T20:09:37+02:00*%
%TF.ProjectId,rgb_controller,7267625f-636f-46e7-9472-6f6c6c65722e,rev?*%
%TF.SameCoordinates,Original*%
%TF.FileFunction,Drillmap*%
%TF.FilePolarity,Positive*%
%FSLAX45Y45*%
G04 Gerber Fmt 4.5, Leading zero omitted, Abs format (unit mm)*
G04 Created by KiCad (PCBNEW 8.0.4) date 2024-08-20 20:09:37*
%MOMM*%
%LPD*%
G01*
G04 APERTURE LIST*
%ADD10C,0.100000*%
%ADD11C,0.200000*%
G04 APERTURE END LIST*
D10*
X5588000Y-3048000D02*
G75*
G02*
X6096000Y-2540000I508000J0D01*
G01*
X12446000Y-2540000D02*
G75*
G02*
X12954000Y-3048000I0J-508000D01*
G01*
X6096000Y-9906000D02*
G75*
G02*
X5588000Y-9398000I0J508000D01*
G01*
X12954000Y-3048000D02*
X12954000Y-9398000D01*
X9441000Y-4223000D02*
G75*
G02*
X9101000Y-4223000I-170000J0D01*
G01*
X9101000Y-4223000D02*
G75*
G02*
X9441000Y-4223000I170000J0D01*
G01*
X6096000Y-2540000D02*
X12446000Y-2540000D01*
X12954000Y-9398000D02*
G75*
G02*
X12446000Y-9906000I-508000J0D01*
G01*
X5588000Y-9398000D02*
X5588000Y-3048000D01*
X12446000Y-9906000D02*
X6096000Y-9906000D01*
D11*
X5843777Y-10222484D02*
X5843777Y-10022484D01*
X5843777Y-10022484D02*
X5891396Y-10022484D01*
X5891396Y-10022484D02*
X5919967Y-10032008D01*
X5919967Y-10032008D02*
X5939015Y-10051055D01*
X5939015Y-10051055D02*
X5948539Y-10070103D01*
X5948539Y-10070103D02*
X5958062Y-10108198D01*
X5958062Y-10108198D02*
X5958062Y-10136770D01*
X5958062Y-10136770D02*
X5948539Y-10174865D01*
X5948539Y-10174865D02*
X5939015Y-10193912D01*
X5939015Y-10193912D02*
X5919967Y-10212960D01*
X5919967Y-10212960D02*
X5891396Y-10222484D01*
X5891396Y-10222484D02*
X5843777Y-10222484D01*
X6043777Y-10222484D02*
X6043777Y-10089150D01*
X6043777Y-10127246D02*
X6053301Y-10108198D01*
X6053301Y-10108198D02*
X6062824Y-10098674D01*
X6062824Y-10098674D02*
X6081872Y-10089150D01*
X6081872Y-10089150D02*
X6100920Y-10089150D01*
X6167586Y-10222484D02*
X6167586Y-10089150D01*
X6167586Y-10022484D02*
X6158062Y-10032008D01*
X6158062Y-10032008D02*
X6167586Y-10041531D01*
X6167586Y-10041531D02*
X6177110Y-10032008D01*
X6177110Y-10032008D02*
X6167586Y-10022484D01*
X6167586Y-10022484D02*
X6167586Y-10041531D01*
X6291396Y-10222484D02*
X6272348Y-10212960D01*
X6272348Y-10212960D02*
X6262824Y-10193912D01*
X6262824Y-10193912D02*
X6262824Y-10022484D01*
X6396158Y-10222484D02*
X6377110Y-10212960D01*
X6377110Y-10212960D02*
X6367586Y-10193912D01*
X6367586Y-10193912D02*
X6367586Y-10022484D01*
X6624729Y-10222484D02*
X6624729Y-10022484D01*
X6624729Y-10022484D02*
X6691396Y-10165341D01*
X6691396Y-10165341D02*
X6758062Y-10022484D01*
X6758062Y-10022484D02*
X6758062Y-10222484D01*
X6939015Y-10222484D02*
X6939015Y-10117722D01*
X6939015Y-10117722D02*
X6929491Y-10098674D01*
X6929491Y-10098674D02*
X6910443Y-10089150D01*
X6910443Y-10089150D02*
X6872348Y-10089150D01*
X6872348Y-10089150D02*
X6853301Y-10098674D01*
X6939015Y-10212960D02*
X6919967Y-10222484D01*
X6919967Y-10222484D02*
X6872348Y-10222484D01*
X6872348Y-10222484D02*
X6853301Y-10212960D01*
X6853301Y-10212960D02*
X6843777Y-10193912D01*
X6843777Y-10193912D02*
X6843777Y-10174865D01*
X6843777Y-10174865D02*
X6853301Y-10155817D01*
X6853301Y-10155817D02*
X6872348Y-10146293D01*
X6872348Y-10146293D02*
X6919967Y-10146293D01*
X6919967Y-10146293D02*
X6939015Y-10136770D01*
X7034253Y-10089150D02*
X7034253Y-10289150D01*
X7034253Y-10098674D02*
X7053301Y-10089150D01*
X7053301Y-10089150D02*
X7091396Y-10089150D01*
X7091396Y-10089150D02*
X7110443Y-10098674D01*
X7110443Y-10098674D02*
X7119967Y-10108198D01*
X7119967Y-10108198D02*
X7129491Y-10127246D01*
X7129491Y-10127246D02*
X7129491Y-10184389D01*
X7129491Y-10184389D02*
X7119967Y-10203436D01*
X7119967Y-10203436D02*
X7110443Y-10212960D01*
X7110443Y-10212960D02*
X7091396Y-10222484D01*
X7091396Y-10222484D02*
X7053301Y-10222484D01*
X7053301Y-10222484D02*
X7034253Y-10212960D01*
X7215205Y-10203436D02*
X7224729Y-10212960D01*
X7224729Y-10212960D02*
X7215205Y-10222484D01*
X7215205Y-10222484D02*
X7205682Y-10212960D01*
X7205682Y-10212960D02*
X7215205Y-10203436D01*
X7215205Y-10203436D02*
X7215205Y-10222484D01*
X7215205Y-10098674D02*
X7224729Y-10108198D01*
X7224729Y-10108198D02*
X7215205Y-10117722D01*
X7215205Y-10117722D02*
X7205682Y-10108198D01*
X7205682Y-10108198D02*
X7215205Y-10098674D01*
X7215205Y-10098674D02*
X7215205Y-10117722D01*
M02*
