%TF.GenerationSoftware,KiCad,Pcbnew,8.0.4*%
%TF.CreationDate,2024-08-20T20:09:37+02:00*%
%TF.ProjectId,rgb_controller,7267625f-636f-46e7-9472-6f6c6c65722e,rev?*%
%TF.SameCoordinates,Original*%
%TF.FileFunction,Drillmap*%
%TF.FilePolarity,Positive*%
%FSLAX45Y45*%
G04 Gerber Fmt 4.5, Leading zero omitted, Abs format (unit mm)*
G04 Created by KiCad (PCBNEW 8.0.4) date 2024-08-20 20:09:37*
%MOMM*%
%LPD*%
G01*
G04 APERTURE LIST*
%ADD10C,0.100000*%
%ADD11C,0.200000*%
%ADD12C,0.110000*%
%ADD13C,0.152000*%
G04 APERTURE END LIST*
D10*
X5588000Y-3048000D02*
G75*
G02*
X6096000Y-2540000I508000J0D01*
G01*
X12446000Y-2540000D02*
G75*
G02*
X12954000Y-3048000I0J-508000D01*
G01*
X6096000Y-9906000D02*
G75*
G02*
X5588000Y-9398000I0J508000D01*
G01*
X12954000Y-3048000D02*
X12954000Y-9398000D01*
X9441000Y-4223000D02*
G75*
G02*
X9101000Y-4223000I-170000J0D01*
G01*
X9101000Y-4223000D02*
G75*
G02*
X9441000Y-4223000I170000J0D01*
G01*
X6096000Y-2540000D02*
X12446000Y-2540000D01*
X12954000Y-9398000D02*
G75*
G02*
X12446000Y-9906000I-508000J0D01*
G01*
X5588000Y-9398000D02*
X5588000Y-3048000D01*
X12446000Y-9906000D02*
X6096000Y-9906000D01*
D11*
D10*
X9871000Y-5553000D02*
X9941000Y-5623000D01*
X9941000Y-5553000D02*
X9871000Y-5623000D01*
X9871000Y-5807000D02*
X9941000Y-5877000D01*
X9941000Y-5807000D02*
X9871000Y-5877000D01*
X9871000Y-6823000D02*
X9941000Y-6893000D01*
X9941000Y-6823000D02*
X9871000Y-6893000D01*
X9871000Y-7077000D02*
X9941000Y-7147000D01*
X9941000Y-7077000D02*
X9871000Y-7147000D01*
X9871000Y-8093000D02*
X9941000Y-8163000D01*
X9941000Y-8093000D02*
X9871000Y-8163000D01*
X9871000Y-8347000D02*
X9941000Y-8417000D01*
X9941000Y-8347000D02*
X9871000Y-8417000D01*
X9871000Y-9363000D02*
X9941000Y-9433000D01*
X9941000Y-9363000D02*
X9871000Y-9433000D01*
X9871000Y-9617000D02*
X9941000Y-9687000D01*
X9941000Y-9617000D02*
X9871000Y-9687000D01*
X11343000Y-6860721D02*
G75*
G02*
X11263000Y-6860721I-40000J0D01*
G01*
X11263000Y-6860721D02*
G75*
G02*
X11343000Y-6860721I40000J0D01*
G01*
X11343000Y-7366000D02*
G75*
G02*
X11263000Y-7366000I-40000J0D01*
G01*
X11263000Y-7366000D02*
G75*
G02*
X11343000Y-7366000I40000J0D01*
G01*
X11343000Y-7874000D02*
G75*
G02*
X11263000Y-7874000I-40000J0D01*
G01*
X11263000Y-7874000D02*
G75*
G02*
X11343000Y-7874000I40000J0D01*
G01*
X11343000Y-8382000D02*
G75*
G02*
X11263000Y-8382000I-40000J0D01*
G01*
X11263000Y-8382000D02*
G75*
G02*
X11343000Y-8382000I40000J0D01*
G01*
X12105000Y-6860721D02*
G75*
G02*
X12025000Y-6860721I-40000J0D01*
G01*
X12025000Y-6860721D02*
G75*
G02*
X12105000Y-6860721I40000J0D01*
G01*
X12105000Y-7366000D02*
G75*
G02*
X12025000Y-7366000I-40000J0D01*
G01*
X12025000Y-7366000D02*
G75*
G02*
X12105000Y-7366000I40000J0D01*
G01*
X12105000Y-7874000D02*
G75*
G02*
X12025000Y-7874000I-40000J0D01*
G01*
X12025000Y-7874000D02*
G75*
G02*
X12105000Y-7874000I40000J0D01*
G01*
X12105000Y-8382000D02*
G75*
G02*
X12025000Y-8382000I-40000J0D01*
G01*
X12025000Y-8382000D02*
G75*
G02*
X12105000Y-8382000I40000J0D01*
G01*
X8382000Y-7072500D02*
X8382000Y-7167500D01*
X8334500Y-7120000D02*
X8429500Y-7120000D01*
X8382000Y-7322500D02*
X8382000Y-7417500D01*
X8334500Y-7370000D02*
X8429500Y-7370000D01*
X8382000Y-7572500D02*
X8382000Y-7667500D01*
X8334500Y-7620000D02*
X8429500Y-7620000D01*
X8382000Y-7822500D02*
X8382000Y-7917500D01*
X8334500Y-7870000D02*
X8429500Y-7870000D01*
X8382000Y-8072500D02*
X8382000Y-8167500D01*
X8334500Y-8120000D02*
X8429500Y-8120000D01*
X8382000Y-8842500D02*
X8382000Y-8937500D01*
X8334500Y-8890000D02*
X8429500Y-8890000D01*
X8382000Y-9092500D02*
X8382000Y-9187500D01*
X8334500Y-9140000D02*
X8429500Y-9140000D01*
X8382000Y-9342500D02*
X8382000Y-9437500D01*
X8334500Y-9390000D02*
X8429500Y-9390000D01*
X10449356Y-7147356D02*
X10449356Y-7076644D01*
X10378644Y-7076644D01*
X10378644Y-7147356D01*
X10449356Y-7147356D01*
X10449356Y-7401356D02*
X10449356Y-7330644D01*
X10378644Y-7330644D01*
X10378644Y-7401356D01*
X10449356Y-7401356D01*
X10449356Y-7655356D02*
X10449356Y-7584644D01*
X10378644Y-7584644D01*
X10378644Y-7655356D01*
X10449356Y-7655356D01*
X10449356Y-7909356D02*
X10449356Y-7838644D01*
X10378644Y-7838644D01*
X10378644Y-7909356D01*
X10449356Y-7909356D01*
X10449356Y-8163356D02*
X10449356Y-8092644D01*
X10378644Y-8092644D01*
X10378644Y-8163356D01*
X10449356Y-8163356D01*
X10449356Y-8417356D02*
X10449356Y-8346644D01*
X10378644Y-8346644D01*
X10378644Y-8417356D01*
X10449356Y-8417356D01*
X10449356Y-8671356D02*
X10449356Y-8600644D01*
X10378644Y-8600644D01*
X10378644Y-8671356D01*
X10449356Y-8671356D01*
X10449356Y-8925356D02*
X10449356Y-8854644D01*
X10378644Y-8854644D01*
X10378644Y-8925356D01*
X10449356Y-8925356D01*
X10703356Y-5115356D02*
X10703356Y-5044644D01*
X10632644Y-5044644D01*
X10632644Y-5115356D01*
X10703356Y-5115356D01*
X10703356Y-5369356D02*
X10703356Y-5298644D01*
X10632644Y-5298644D01*
X10632644Y-5369356D01*
X10703356Y-5369356D01*
X10703356Y-5623356D02*
X10703356Y-5552644D01*
X10632644Y-5552644D01*
X10632644Y-5623356D01*
X10703356Y-5623356D01*
X12735356Y-7147356D02*
X12735356Y-7076644D01*
X12664644Y-7076644D01*
X12664644Y-7147356D01*
X12735356Y-7147356D01*
X12735356Y-7401356D02*
X12735356Y-7330644D01*
X12664644Y-7330644D01*
X12664644Y-7401356D01*
X12735356Y-7401356D01*
X12735356Y-7655356D02*
X12735356Y-7584644D01*
X12664644Y-7584644D01*
X12664644Y-7655356D01*
X12735356Y-7655356D01*
X12735356Y-7909356D02*
X12735356Y-7838644D01*
X12664644Y-7838644D01*
X12664644Y-7909356D01*
X12735356Y-7909356D01*
X12735356Y-8163356D02*
X12735356Y-8092644D01*
X12664644Y-8092644D01*
X12664644Y-8163356D01*
X12735356Y-8163356D01*
X12735356Y-8417356D02*
X12735356Y-8346644D01*
X12664644Y-8346644D01*
X12664644Y-8417356D01*
X12735356Y-8417356D01*
X12735356Y-8671356D02*
X12735356Y-8600644D01*
X12664644Y-8600644D01*
X12664644Y-8671356D01*
X12735356Y-8671356D01*
X12735356Y-8925356D02*
X12735356Y-8854644D01*
X12664644Y-8854644D01*
X12664644Y-8925356D01*
X12735356Y-8925356D01*
D12*
X9398000Y-5135000D02*
X9453000Y-5080000D01*
X9398000Y-5025000D01*
X9343000Y-5080000D01*
X9398000Y-5135000D01*
X9398000Y-5389000D02*
X9453000Y-5334000D01*
X9398000Y-5279000D01*
X9343000Y-5334000D01*
X9398000Y-5389000D01*
X9398000Y-5643000D02*
X9453000Y-5588000D01*
X9398000Y-5533000D01*
X9343000Y-5588000D01*
X9398000Y-5643000D01*
X9398000Y-6405000D02*
X9453000Y-6350000D01*
X9398000Y-6295000D01*
X9343000Y-6350000D01*
X9398000Y-6405000D01*
X9398000Y-6659000D02*
X9453000Y-6604000D01*
X9398000Y-6549000D01*
X9343000Y-6604000D01*
X9398000Y-6659000D01*
X9398000Y-6913000D02*
X9453000Y-6858000D01*
X9398000Y-6803000D01*
X9343000Y-6858000D01*
X9398000Y-6913000D01*
X9398000Y-7675000D02*
X9453000Y-7620000D01*
X9398000Y-7565000D01*
X9343000Y-7620000D01*
X9398000Y-7675000D01*
X9398000Y-7929000D02*
X9453000Y-7874000D01*
X9398000Y-7819000D01*
X9343000Y-7874000D01*
X9398000Y-7929000D01*
X9398000Y-8183000D02*
X9453000Y-8128000D01*
X9398000Y-8073000D01*
X9343000Y-8128000D01*
X9398000Y-8183000D01*
X9398000Y-8945000D02*
X9453000Y-8890000D01*
X9398000Y-8835000D01*
X9343000Y-8890000D01*
X9398000Y-8945000D01*
X9398000Y-9199000D02*
X9453000Y-9144000D01*
X9398000Y-9089000D01*
X9343000Y-9144000D01*
X9398000Y-9199000D01*
X9398000Y-9453000D02*
X9453000Y-9398000D01*
X9398000Y-9343000D01*
X9343000Y-9398000D01*
X9398000Y-9453000D01*
X10974000Y-4409000D02*
X11029000Y-4354000D01*
X10974000Y-4299000D01*
X10919000Y-4354000D01*
X10974000Y-4409000D01*
X10974000Y-6389000D02*
X11029000Y-6334000D01*
X10974000Y-6279000D01*
X10919000Y-6334000D01*
X10974000Y-6389000D01*
X11194000Y-4409000D02*
X11249000Y-4354000D01*
X11194000Y-4299000D01*
X11139000Y-4354000D01*
X11194000Y-4409000D01*
X11194000Y-6389000D02*
X11249000Y-6334000D01*
X11194000Y-6279000D01*
X11139000Y-6334000D01*
X11194000Y-6389000D01*
X12194000Y-4409000D02*
X12249000Y-4354000D01*
X12194000Y-4299000D01*
X12139000Y-4354000D01*
X12194000Y-4409000D01*
X12194000Y-6389000D02*
X12249000Y-6334000D01*
X12194000Y-6279000D01*
X12139000Y-6334000D01*
X12194000Y-6389000D01*
X12414000Y-4409000D02*
X12469000Y-4354000D01*
X12414000Y-4299000D01*
X12359000Y-4354000D01*
X12414000Y-4409000D01*
X12414000Y-6389000D02*
X12469000Y-6334000D01*
X12414000Y-6279000D01*
X12359000Y-6334000D01*
X12414000Y-6389000D01*
D13*
X11354000Y-3734000D02*
X11506000Y-3886000D01*
X11506000Y-3734000D02*
X11354000Y-3886000D01*
X11506000Y-3810000D02*
G75*
G02*
X11354000Y-3810000I-76000J0D01*
G01*
X11354000Y-3810000D02*
G75*
G02*
X11506000Y-3810000I76000J0D01*
G01*
X11862000Y-3734000D02*
X12014000Y-3886000D01*
X12014000Y-3734000D02*
X11862000Y-3886000D01*
X12014000Y-3810000D02*
G75*
G02*
X11862000Y-3810000I-76000J0D01*
G01*
X11862000Y-3810000D02*
G75*
G02*
X12014000Y-3810000I76000J0D01*
G01*
D11*
X5843777Y-10222484D02*
X5843777Y-10022484D01*
X5843777Y-10022484D02*
X5891396Y-10022484D01*
X5891396Y-10022484D02*
X5919967Y-10032008D01*
X5919967Y-10032008D02*
X5939015Y-10051055D01*
X5939015Y-10051055D02*
X5948539Y-10070103D01*
X5948539Y-10070103D02*
X5958062Y-10108198D01*
X5958062Y-10108198D02*
X5958062Y-10136770D01*
X5958062Y-10136770D02*
X5948539Y-10174865D01*
X5948539Y-10174865D02*
X5939015Y-10193912D01*
X5939015Y-10193912D02*
X5919967Y-10212960D01*
X5919967Y-10212960D02*
X5891396Y-10222484D01*
X5891396Y-10222484D02*
X5843777Y-10222484D01*
X6043777Y-10222484D02*
X6043777Y-10089150D01*
X6043777Y-10127246D02*
X6053301Y-10108198D01*
X6053301Y-10108198D02*
X6062824Y-10098674D01*
X6062824Y-10098674D02*
X6081872Y-10089150D01*
X6081872Y-10089150D02*
X6100920Y-10089150D01*
X6167586Y-10222484D02*
X6167586Y-10089150D01*
X6167586Y-10022484D02*
X6158062Y-10032008D01*
X6158062Y-10032008D02*
X6167586Y-10041531D01*
X6167586Y-10041531D02*
X6177110Y-10032008D01*
X6177110Y-10032008D02*
X6167586Y-10022484D01*
X6167586Y-10022484D02*
X6167586Y-10041531D01*
X6291396Y-10222484D02*
X6272348Y-10212960D01*
X6272348Y-10212960D02*
X6262824Y-10193912D01*
X6262824Y-10193912D02*
X6262824Y-10022484D01*
X6396158Y-10222484D02*
X6377110Y-10212960D01*
X6377110Y-10212960D02*
X6367586Y-10193912D01*
X6367586Y-10193912D02*
X6367586Y-10022484D01*
X6624729Y-10222484D02*
X6624729Y-10022484D01*
X6624729Y-10022484D02*
X6691396Y-10165341D01*
X6691396Y-10165341D02*
X6758062Y-10022484D01*
X6758062Y-10022484D02*
X6758062Y-10222484D01*
X6939015Y-10222484D02*
X6939015Y-10117722D01*
X6939015Y-10117722D02*
X6929491Y-10098674D01*
X6929491Y-10098674D02*
X6910443Y-10089150D01*
X6910443Y-10089150D02*
X6872348Y-10089150D01*
X6872348Y-10089150D02*
X6853301Y-10098674D01*
X6939015Y-10212960D02*
X6919967Y-10222484D01*
X6919967Y-10222484D02*
X6872348Y-10222484D01*
X6872348Y-10222484D02*
X6853301Y-10212960D01*
X6853301Y-10212960D02*
X6843777Y-10193912D01*
X6843777Y-10193912D02*
X6843777Y-10174865D01*
X6843777Y-10174865D02*
X6853301Y-10155817D01*
X6853301Y-10155817D02*
X6872348Y-10146293D01*
X6872348Y-10146293D02*
X6919967Y-10146293D01*
X6919967Y-10146293D02*
X6939015Y-10136770D01*
X7034253Y-10089150D02*
X7034253Y-10289150D01*
X7034253Y-10098674D02*
X7053301Y-10089150D01*
X7053301Y-10089150D02*
X7091396Y-10089150D01*
X7091396Y-10089150D02*
X7110443Y-10098674D01*
X7110443Y-10098674D02*
X7119967Y-10108198D01*
X7119967Y-10108198D02*
X7129491Y-10127246D01*
X7129491Y-10127246D02*
X7129491Y-10184389D01*
X7129491Y-10184389D02*
X7119967Y-10203436D01*
X7119967Y-10203436D02*
X7110443Y-10212960D01*
X7110443Y-10212960D02*
X7091396Y-10222484D01*
X7091396Y-10222484D02*
X7053301Y-10222484D01*
X7053301Y-10222484D02*
X7034253Y-10212960D01*
X7215205Y-10203436D02*
X7224729Y-10212960D01*
X7224729Y-10212960D02*
X7215205Y-10222484D01*
X7215205Y-10222484D02*
X7205682Y-10212960D01*
X7205682Y-10212960D02*
X7215205Y-10203436D01*
X7215205Y-10203436D02*
X7215205Y-10222484D01*
X7215205Y-10098674D02*
X7224729Y-10108198D01*
X7224729Y-10108198D02*
X7215205Y-10117722D01*
X7215205Y-10117722D02*
X7205682Y-10108198D01*
X7205682Y-10108198D02*
X7215205Y-10098674D01*
X7215205Y-10098674D02*
X7215205Y-10117722D01*
D10*
X5513000Y-10516000D02*
X5583000Y-10586000D01*
X5583000Y-10516000D02*
X5513000Y-10586000D01*
D11*
X5881872Y-10442484D02*
X5900920Y-10442484D01*
X5900920Y-10442484D02*
X5919967Y-10452008D01*
X5919967Y-10452008D02*
X5929491Y-10461531D01*
X5929491Y-10461531D02*
X5939015Y-10480579D01*
X5939015Y-10480579D02*
X5948539Y-10518674D01*
X5948539Y-10518674D02*
X5948539Y-10566293D01*
X5948539Y-10566293D02*
X5939015Y-10604389D01*
X5939015Y-10604389D02*
X5929491Y-10623436D01*
X5929491Y-10623436D02*
X5919967Y-10632960D01*
X5919967Y-10632960D02*
X5900920Y-10642484D01*
X5900920Y-10642484D02*
X5881872Y-10642484D01*
X5881872Y-10642484D02*
X5862824Y-10632960D01*
X5862824Y-10632960D02*
X5853301Y-10623436D01*
X5853301Y-10623436D02*
X5843777Y-10604389D01*
X5843777Y-10604389D02*
X5834253Y-10566293D01*
X5834253Y-10566293D02*
X5834253Y-10518674D01*
X5834253Y-10518674D02*
X5843777Y-10480579D01*
X5843777Y-10480579D02*
X5853301Y-10461531D01*
X5853301Y-10461531D02*
X5862824Y-10452008D01*
X5862824Y-10452008D02*
X5881872Y-10442484D01*
X6034253Y-10623436D02*
X6043777Y-10632960D01*
X6043777Y-10632960D02*
X6034253Y-10642484D01*
X6034253Y-10642484D02*
X6024729Y-10632960D01*
X6024729Y-10632960D02*
X6034253Y-10623436D01*
X6034253Y-10623436D02*
X6034253Y-10642484D01*
X6110443Y-10442484D02*
X6243777Y-10442484D01*
X6243777Y-10442484D02*
X6158062Y-10642484D01*
X6358062Y-10442484D02*
X6377110Y-10442484D01*
X6377110Y-10442484D02*
X6396158Y-10452008D01*
X6396158Y-10452008D02*
X6405682Y-10461531D01*
X6405682Y-10461531D02*
X6415205Y-10480579D01*
X6415205Y-10480579D02*
X6424729Y-10518674D01*
X6424729Y-10518674D02*
X6424729Y-10566293D01*
X6424729Y-10566293D02*
X6415205Y-10604389D01*
X6415205Y-10604389D02*
X6405682Y-10623436D01*
X6405682Y-10623436D02*
X6396158Y-10632960D01*
X6396158Y-10632960D02*
X6377110Y-10642484D01*
X6377110Y-10642484D02*
X6358062Y-10642484D01*
X6358062Y-10642484D02*
X6339015Y-10632960D01*
X6339015Y-10632960D02*
X6329491Y-10623436D01*
X6329491Y-10623436D02*
X6319967Y-10604389D01*
X6319967Y-10604389D02*
X6310443Y-10566293D01*
X6310443Y-10566293D02*
X6310443Y-10518674D01*
X6310443Y-10518674D02*
X6319967Y-10480579D01*
X6319967Y-10480579D02*
X6329491Y-10461531D01*
X6329491Y-10461531D02*
X6339015Y-10452008D01*
X6339015Y-10452008D02*
X6358062Y-10442484D01*
X6548539Y-10442484D02*
X6567586Y-10442484D01*
X6567586Y-10442484D02*
X6586634Y-10452008D01*
X6586634Y-10452008D02*
X6596158Y-10461531D01*
X6596158Y-10461531D02*
X6605682Y-10480579D01*
X6605682Y-10480579D02*
X6615205Y-10518674D01*
X6615205Y-10518674D02*
X6615205Y-10566293D01*
X6615205Y-10566293D02*
X6605682Y-10604389D01*
X6605682Y-10604389D02*
X6596158Y-10623436D01*
X6596158Y-10623436D02*
X6586634Y-10632960D01*
X6586634Y-10632960D02*
X6567586Y-10642484D01*
X6567586Y-10642484D02*
X6548539Y-10642484D01*
X6548539Y-10642484D02*
X6529491Y-10632960D01*
X6529491Y-10632960D02*
X6519967Y-10623436D01*
X6519967Y-10623436D02*
X6510443Y-10604389D01*
X6510443Y-10604389D02*
X6500920Y-10566293D01*
X6500920Y-10566293D02*
X6500920Y-10518674D01*
X6500920Y-10518674D02*
X6510443Y-10480579D01*
X6510443Y-10480579D02*
X6519967Y-10461531D01*
X6519967Y-10461531D02*
X6529491Y-10452008D01*
X6529491Y-10452008D02*
X6548539Y-10442484D01*
X6700920Y-10642484D02*
X6700920Y-10509150D01*
X6700920Y-10528198D02*
X6710443Y-10518674D01*
X6710443Y-10518674D02*
X6729491Y-10509150D01*
X6729491Y-10509150D02*
X6758063Y-10509150D01*
X6758063Y-10509150D02*
X6777110Y-10518674D01*
X6777110Y-10518674D02*
X6786634Y-10537722D01*
X6786634Y-10537722D02*
X6786634Y-10642484D01*
X6786634Y-10537722D02*
X6796158Y-10518674D01*
X6796158Y-10518674D02*
X6815205Y-10509150D01*
X6815205Y-10509150D02*
X6843777Y-10509150D01*
X6843777Y-10509150D02*
X6862824Y-10518674D01*
X6862824Y-10518674D02*
X6872348Y-10537722D01*
X6872348Y-10537722D02*
X6872348Y-10642484D01*
X6967586Y-10642484D02*
X6967586Y-10509150D01*
X6967586Y-10528198D02*
X6977110Y-10518674D01*
X6977110Y-10518674D02*
X6996158Y-10509150D01*
X6996158Y-10509150D02*
X7024729Y-10509150D01*
X7024729Y-10509150D02*
X7043777Y-10518674D01*
X7043777Y-10518674D02*
X7053301Y-10537722D01*
X7053301Y-10537722D02*
X7053301Y-10642484D01*
X7053301Y-10537722D02*
X7062824Y-10518674D01*
X7062824Y-10518674D02*
X7081872Y-10509150D01*
X7081872Y-10509150D02*
X7110443Y-10509150D01*
X7110443Y-10509150D02*
X7129491Y-10518674D01*
X7129491Y-10518674D02*
X7139015Y-10537722D01*
X7139015Y-10537722D02*
X7139015Y-10642484D01*
X7529491Y-10432960D02*
X7358063Y-10690103D01*
X7786634Y-10442484D02*
X7805682Y-10442484D01*
X7805682Y-10442484D02*
X7824729Y-10452008D01*
X7824729Y-10452008D02*
X7834253Y-10461531D01*
X7834253Y-10461531D02*
X7843777Y-10480579D01*
X7843777Y-10480579D02*
X7853301Y-10518674D01*
X7853301Y-10518674D02*
X7853301Y-10566293D01*
X7853301Y-10566293D02*
X7843777Y-10604389D01*
X7843777Y-10604389D02*
X7834253Y-10623436D01*
X7834253Y-10623436D02*
X7824729Y-10632960D01*
X7824729Y-10632960D02*
X7805682Y-10642484D01*
X7805682Y-10642484D02*
X7786634Y-10642484D01*
X7786634Y-10642484D02*
X7767586Y-10632960D01*
X7767586Y-10632960D02*
X7758063Y-10623436D01*
X7758063Y-10623436D02*
X7748539Y-10604389D01*
X7748539Y-10604389D02*
X7739015Y-10566293D01*
X7739015Y-10566293D02*
X7739015Y-10518674D01*
X7739015Y-10518674D02*
X7748539Y-10480579D01*
X7748539Y-10480579D02*
X7758063Y-10461531D01*
X7758063Y-10461531D02*
X7767586Y-10452008D01*
X7767586Y-10452008D02*
X7786634Y-10442484D01*
X7939015Y-10623436D02*
X7948539Y-10632960D01*
X7948539Y-10632960D02*
X7939015Y-10642484D01*
X7939015Y-10642484D02*
X7929491Y-10632960D01*
X7929491Y-10632960D02*
X7939015Y-10623436D01*
X7939015Y-10623436D02*
X7939015Y-10642484D01*
X8072348Y-10442484D02*
X8091396Y-10442484D01*
X8091396Y-10442484D02*
X8110444Y-10452008D01*
X8110444Y-10452008D02*
X8119967Y-10461531D01*
X8119967Y-10461531D02*
X8129491Y-10480579D01*
X8129491Y-10480579D02*
X8139015Y-10518674D01*
X8139015Y-10518674D02*
X8139015Y-10566293D01*
X8139015Y-10566293D02*
X8129491Y-10604389D01*
X8129491Y-10604389D02*
X8119967Y-10623436D01*
X8119967Y-10623436D02*
X8110444Y-10632960D01*
X8110444Y-10632960D02*
X8091396Y-10642484D01*
X8091396Y-10642484D02*
X8072348Y-10642484D01*
X8072348Y-10642484D02*
X8053301Y-10632960D01*
X8053301Y-10632960D02*
X8043777Y-10623436D01*
X8043777Y-10623436D02*
X8034253Y-10604389D01*
X8034253Y-10604389D02*
X8024729Y-10566293D01*
X8024729Y-10566293D02*
X8024729Y-10518674D01*
X8024729Y-10518674D02*
X8034253Y-10480579D01*
X8034253Y-10480579D02*
X8043777Y-10461531D01*
X8043777Y-10461531D02*
X8053301Y-10452008D01*
X8053301Y-10452008D02*
X8072348Y-10442484D01*
X8215206Y-10461531D02*
X8224729Y-10452008D01*
X8224729Y-10452008D02*
X8243777Y-10442484D01*
X8243777Y-10442484D02*
X8291396Y-10442484D01*
X8291396Y-10442484D02*
X8310444Y-10452008D01*
X8310444Y-10452008D02*
X8319967Y-10461531D01*
X8319967Y-10461531D02*
X8329491Y-10480579D01*
X8329491Y-10480579D02*
X8329491Y-10499627D01*
X8329491Y-10499627D02*
X8319967Y-10528198D01*
X8319967Y-10528198D02*
X8205682Y-10642484D01*
X8205682Y-10642484D02*
X8329491Y-10642484D01*
X8396158Y-10442484D02*
X8529491Y-10442484D01*
X8529491Y-10442484D02*
X8443777Y-10642484D01*
X8691396Y-10442484D02*
X8653301Y-10442484D01*
X8653301Y-10442484D02*
X8634253Y-10452008D01*
X8634253Y-10452008D02*
X8624729Y-10461531D01*
X8624729Y-10461531D02*
X8605682Y-10490103D01*
X8605682Y-10490103D02*
X8596158Y-10528198D01*
X8596158Y-10528198D02*
X8596158Y-10604389D01*
X8596158Y-10604389D02*
X8605682Y-10623436D01*
X8605682Y-10623436D02*
X8615206Y-10632960D01*
X8615206Y-10632960D02*
X8634253Y-10642484D01*
X8634253Y-10642484D02*
X8672349Y-10642484D01*
X8672349Y-10642484D02*
X8691396Y-10632960D01*
X8691396Y-10632960D02*
X8700920Y-10623436D01*
X8700920Y-10623436D02*
X8710444Y-10604389D01*
X8710444Y-10604389D02*
X8710444Y-10556770D01*
X8710444Y-10556770D02*
X8700920Y-10537722D01*
X8700920Y-10537722D02*
X8691396Y-10528198D01*
X8691396Y-10528198D02*
X8672349Y-10518674D01*
X8672349Y-10518674D02*
X8634253Y-10518674D01*
X8634253Y-10518674D02*
X8615206Y-10528198D01*
X8615206Y-10528198D02*
X8605682Y-10537722D01*
X8605682Y-10537722D02*
X8596158Y-10556770D01*
X8786634Y-10442484D02*
X8786634Y-10480579D01*
X8862825Y-10442484D02*
X8862825Y-10480579D01*
X9158063Y-10718674D02*
X9148539Y-10709150D01*
X9148539Y-10709150D02*
X9129491Y-10680579D01*
X9129491Y-10680579D02*
X9119968Y-10661531D01*
X9119968Y-10661531D02*
X9110444Y-10632960D01*
X9110444Y-10632960D02*
X9100920Y-10585341D01*
X9100920Y-10585341D02*
X9100920Y-10547246D01*
X9100920Y-10547246D02*
X9110444Y-10499627D01*
X9110444Y-10499627D02*
X9119968Y-10471055D01*
X9119968Y-10471055D02*
X9129491Y-10452008D01*
X9129491Y-10452008D02*
X9148539Y-10423436D01*
X9148539Y-10423436D02*
X9158063Y-10413912D01*
X9262825Y-10528198D02*
X9243777Y-10518674D01*
X9243777Y-10518674D02*
X9234253Y-10509150D01*
X9234253Y-10509150D02*
X9224730Y-10490103D01*
X9224730Y-10490103D02*
X9224730Y-10480579D01*
X9224730Y-10480579D02*
X9234253Y-10461531D01*
X9234253Y-10461531D02*
X9243777Y-10452008D01*
X9243777Y-10452008D02*
X9262825Y-10442484D01*
X9262825Y-10442484D02*
X9300920Y-10442484D01*
X9300920Y-10442484D02*
X9319968Y-10452008D01*
X9319968Y-10452008D02*
X9329491Y-10461531D01*
X9329491Y-10461531D02*
X9339015Y-10480579D01*
X9339015Y-10480579D02*
X9339015Y-10490103D01*
X9339015Y-10490103D02*
X9329491Y-10509150D01*
X9329491Y-10509150D02*
X9319968Y-10518674D01*
X9319968Y-10518674D02*
X9300920Y-10528198D01*
X9300920Y-10528198D02*
X9262825Y-10528198D01*
X9262825Y-10528198D02*
X9243777Y-10537722D01*
X9243777Y-10537722D02*
X9234253Y-10547246D01*
X9234253Y-10547246D02*
X9224730Y-10566293D01*
X9224730Y-10566293D02*
X9224730Y-10604389D01*
X9224730Y-10604389D02*
X9234253Y-10623436D01*
X9234253Y-10623436D02*
X9243777Y-10632960D01*
X9243777Y-10632960D02*
X9262825Y-10642484D01*
X9262825Y-10642484D02*
X9300920Y-10642484D01*
X9300920Y-10642484D02*
X9319968Y-10632960D01*
X9319968Y-10632960D02*
X9329491Y-10623436D01*
X9329491Y-10623436D02*
X9339015Y-10604389D01*
X9339015Y-10604389D02*
X9339015Y-10566293D01*
X9339015Y-10566293D02*
X9329491Y-10547246D01*
X9329491Y-10547246D02*
X9319968Y-10537722D01*
X9319968Y-10537722D02*
X9300920Y-10528198D01*
X9577111Y-10642484D02*
X9577111Y-10442484D01*
X9662825Y-10642484D02*
X9662825Y-10537722D01*
X9662825Y-10537722D02*
X9653301Y-10518674D01*
X9653301Y-10518674D02*
X9634253Y-10509150D01*
X9634253Y-10509150D02*
X9605682Y-10509150D01*
X9605682Y-10509150D02*
X9586634Y-10518674D01*
X9586634Y-10518674D02*
X9577111Y-10528198D01*
X9786634Y-10642484D02*
X9767587Y-10632960D01*
X9767587Y-10632960D02*
X9758063Y-10623436D01*
X9758063Y-10623436D02*
X9748539Y-10604389D01*
X9748539Y-10604389D02*
X9748539Y-10547246D01*
X9748539Y-10547246D02*
X9758063Y-10528198D01*
X9758063Y-10528198D02*
X9767587Y-10518674D01*
X9767587Y-10518674D02*
X9786634Y-10509150D01*
X9786634Y-10509150D02*
X9815206Y-10509150D01*
X9815206Y-10509150D02*
X9834253Y-10518674D01*
X9834253Y-10518674D02*
X9843777Y-10528198D01*
X9843777Y-10528198D02*
X9853301Y-10547246D01*
X9853301Y-10547246D02*
X9853301Y-10604389D01*
X9853301Y-10604389D02*
X9843777Y-10623436D01*
X9843777Y-10623436D02*
X9834253Y-10632960D01*
X9834253Y-10632960D02*
X9815206Y-10642484D01*
X9815206Y-10642484D02*
X9786634Y-10642484D01*
X9967587Y-10642484D02*
X9948539Y-10632960D01*
X9948539Y-10632960D02*
X9939015Y-10613912D01*
X9939015Y-10613912D02*
X9939015Y-10442484D01*
X10119968Y-10632960D02*
X10100920Y-10642484D01*
X10100920Y-10642484D02*
X10062825Y-10642484D01*
X10062825Y-10642484D02*
X10043777Y-10632960D01*
X10043777Y-10632960D02*
X10034253Y-10613912D01*
X10034253Y-10613912D02*
X10034253Y-10537722D01*
X10034253Y-10537722D02*
X10043777Y-10518674D01*
X10043777Y-10518674D02*
X10062825Y-10509150D01*
X10062825Y-10509150D02*
X10100920Y-10509150D01*
X10100920Y-10509150D02*
X10119968Y-10518674D01*
X10119968Y-10518674D02*
X10129492Y-10537722D01*
X10129492Y-10537722D02*
X10129492Y-10556770D01*
X10129492Y-10556770D02*
X10034253Y-10575817D01*
X10205682Y-10632960D02*
X10224730Y-10642484D01*
X10224730Y-10642484D02*
X10262825Y-10642484D01*
X10262825Y-10642484D02*
X10281873Y-10632960D01*
X10281873Y-10632960D02*
X10291396Y-10613912D01*
X10291396Y-10613912D02*
X10291396Y-10604389D01*
X10291396Y-10604389D02*
X10281873Y-10585341D01*
X10281873Y-10585341D02*
X10262825Y-10575817D01*
X10262825Y-10575817D02*
X10234253Y-10575817D01*
X10234253Y-10575817D02*
X10215206Y-10566293D01*
X10215206Y-10566293D02*
X10205682Y-10547246D01*
X10205682Y-10547246D02*
X10205682Y-10537722D01*
X10205682Y-10537722D02*
X10215206Y-10518674D01*
X10215206Y-10518674D02*
X10234253Y-10509150D01*
X10234253Y-10509150D02*
X10262825Y-10509150D01*
X10262825Y-10509150D02*
X10281873Y-10518674D01*
X10358063Y-10718674D02*
X10367587Y-10709150D01*
X10367587Y-10709150D02*
X10386634Y-10680579D01*
X10386634Y-10680579D02*
X10396158Y-10661531D01*
X10396158Y-10661531D02*
X10405682Y-10632960D01*
X10405682Y-10632960D02*
X10415206Y-10585341D01*
X10415206Y-10585341D02*
X10415206Y-10547246D01*
X10415206Y-10547246D02*
X10405682Y-10499627D01*
X10405682Y-10499627D02*
X10396158Y-10471055D01*
X10396158Y-10471055D02*
X10386634Y-10452008D01*
X10386634Y-10452008D02*
X10367587Y-10423436D01*
X10367587Y-10423436D02*
X10358063Y-10413912D01*
D10*
X5583000Y-10815000D02*
G75*
G02*
X5503000Y-10815000I-40000J0D01*
G01*
X5503000Y-10815000D02*
G75*
G02*
X5583000Y-10815000I40000J0D01*
G01*
D11*
X5881872Y-10706484D02*
X5900920Y-10706484D01*
X5900920Y-10706484D02*
X5919967Y-10716008D01*
X5919967Y-10716008D02*
X5929491Y-10725531D01*
X5929491Y-10725531D02*
X5939015Y-10744579D01*
X5939015Y-10744579D02*
X5948539Y-10782674D01*
X5948539Y-10782674D02*
X5948539Y-10830293D01*
X5948539Y-10830293D02*
X5939015Y-10868389D01*
X5939015Y-10868389D02*
X5929491Y-10887436D01*
X5929491Y-10887436D02*
X5919967Y-10896960D01*
X5919967Y-10896960D02*
X5900920Y-10906484D01*
X5900920Y-10906484D02*
X5881872Y-10906484D01*
X5881872Y-10906484D02*
X5862824Y-10896960D01*
X5862824Y-10896960D02*
X5853301Y-10887436D01*
X5853301Y-10887436D02*
X5843777Y-10868389D01*
X5843777Y-10868389D02*
X5834253Y-10830293D01*
X5834253Y-10830293D02*
X5834253Y-10782674D01*
X5834253Y-10782674D02*
X5843777Y-10744579D01*
X5843777Y-10744579D02*
X5853301Y-10725531D01*
X5853301Y-10725531D02*
X5862824Y-10716008D01*
X5862824Y-10716008D02*
X5881872Y-10706484D01*
X6034253Y-10887436D02*
X6043777Y-10896960D01*
X6043777Y-10896960D02*
X6034253Y-10906484D01*
X6034253Y-10906484D02*
X6024729Y-10896960D01*
X6024729Y-10896960D02*
X6034253Y-10887436D01*
X6034253Y-10887436D02*
X6034253Y-10906484D01*
X6158062Y-10792198D02*
X6139015Y-10782674D01*
X6139015Y-10782674D02*
X6129491Y-10773150D01*
X6129491Y-10773150D02*
X6119967Y-10754103D01*
X6119967Y-10754103D02*
X6119967Y-10744579D01*
X6119967Y-10744579D02*
X6129491Y-10725531D01*
X6129491Y-10725531D02*
X6139015Y-10716008D01*
X6139015Y-10716008D02*
X6158062Y-10706484D01*
X6158062Y-10706484D02*
X6196158Y-10706484D01*
X6196158Y-10706484D02*
X6215205Y-10716008D01*
X6215205Y-10716008D02*
X6224729Y-10725531D01*
X6224729Y-10725531D02*
X6234253Y-10744579D01*
X6234253Y-10744579D02*
X6234253Y-10754103D01*
X6234253Y-10754103D02*
X6224729Y-10773150D01*
X6224729Y-10773150D02*
X6215205Y-10782674D01*
X6215205Y-10782674D02*
X6196158Y-10792198D01*
X6196158Y-10792198D02*
X6158062Y-10792198D01*
X6158062Y-10792198D02*
X6139015Y-10801722D01*
X6139015Y-10801722D02*
X6129491Y-10811246D01*
X6129491Y-10811246D02*
X6119967Y-10830293D01*
X6119967Y-10830293D02*
X6119967Y-10868389D01*
X6119967Y-10868389D02*
X6129491Y-10887436D01*
X6129491Y-10887436D02*
X6139015Y-10896960D01*
X6139015Y-10896960D02*
X6158062Y-10906484D01*
X6158062Y-10906484D02*
X6196158Y-10906484D01*
X6196158Y-10906484D02*
X6215205Y-10896960D01*
X6215205Y-10896960D02*
X6224729Y-10887436D01*
X6224729Y-10887436D02*
X6234253Y-10868389D01*
X6234253Y-10868389D02*
X6234253Y-10830293D01*
X6234253Y-10830293D02*
X6224729Y-10811246D01*
X6224729Y-10811246D02*
X6215205Y-10801722D01*
X6215205Y-10801722D02*
X6196158Y-10792198D01*
X6358062Y-10706484D02*
X6377110Y-10706484D01*
X6377110Y-10706484D02*
X6396158Y-10716008D01*
X6396158Y-10716008D02*
X6405682Y-10725531D01*
X6405682Y-10725531D02*
X6415205Y-10744579D01*
X6415205Y-10744579D02*
X6424729Y-10782674D01*
X6424729Y-10782674D02*
X6424729Y-10830293D01*
X6424729Y-10830293D02*
X6415205Y-10868389D01*
X6415205Y-10868389D02*
X6405682Y-10887436D01*
X6405682Y-10887436D02*
X6396158Y-10896960D01*
X6396158Y-10896960D02*
X6377110Y-10906484D01*
X6377110Y-10906484D02*
X6358062Y-10906484D01*
X6358062Y-10906484D02*
X6339015Y-10896960D01*
X6339015Y-10896960D02*
X6329491Y-10887436D01*
X6329491Y-10887436D02*
X6319967Y-10868389D01*
X6319967Y-10868389D02*
X6310443Y-10830293D01*
X6310443Y-10830293D02*
X6310443Y-10782674D01*
X6310443Y-10782674D02*
X6319967Y-10744579D01*
X6319967Y-10744579D02*
X6329491Y-10725531D01*
X6329491Y-10725531D02*
X6339015Y-10716008D01*
X6339015Y-10716008D02*
X6358062Y-10706484D01*
X6548539Y-10706484D02*
X6567586Y-10706484D01*
X6567586Y-10706484D02*
X6586634Y-10716008D01*
X6586634Y-10716008D02*
X6596158Y-10725531D01*
X6596158Y-10725531D02*
X6605682Y-10744579D01*
X6605682Y-10744579D02*
X6615205Y-10782674D01*
X6615205Y-10782674D02*
X6615205Y-10830293D01*
X6615205Y-10830293D02*
X6605682Y-10868389D01*
X6605682Y-10868389D02*
X6596158Y-10887436D01*
X6596158Y-10887436D02*
X6586634Y-10896960D01*
X6586634Y-10896960D02*
X6567586Y-10906484D01*
X6567586Y-10906484D02*
X6548539Y-10906484D01*
X6548539Y-10906484D02*
X6529491Y-10896960D01*
X6529491Y-10896960D02*
X6519967Y-10887436D01*
X6519967Y-10887436D02*
X6510443Y-10868389D01*
X6510443Y-10868389D02*
X6500920Y-10830293D01*
X6500920Y-10830293D02*
X6500920Y-10782674D01*
X6500920Y-10782674D02*
X6510443Y-10744579D01*
X6510443Y-10744579D02*
X6519967Y-10725531D01*
X6519967Y-10725531D02*
X6529491Y-10716008D01*
X6529491Y-10716008D02*
X6548539Y-10706484D01*
X6700920Y-10906484D02*
X6700920Y-10773150D01*
X6700920Y-10792198D02*
X6710443Y-10782674D01*
X6710443Y-10782674D02*
X6729491Y-10773150D01*
X6729491Y-10773150D02*
X6758063Y-10773150D01*
X6758063Y-10773150D02*
X6777110Y-10782674D01*
X6777110Y-10782674D02*
X6786634Y-10801722D01*
X6786634Y-10801722D02*
X6786634Y-10906484D01*
X6786634Y-10801722D02*
X6796158Y-10782674D01*
X6796158Y-10782674D02*
X6815205Y-10773150D01*
X6815205Y-10773150D02*
X6843777Y-10773150D01*
X6843777Y-10773150D02*
X6862824Y-10782674D01*
X6862824Y-10782674D02*
X6872348Y-10801722D01*
X6872348Y-10801722D02*
X6872348Y-10906484D01*
X6967586Y-10906484D02*
X6967586Y-10773150D01*
X6967586Y-10792198D02*
X6977110Y-10782674D01*
X6977110Y-10782674D02*
X6996158Y-10773150D01*
X6996158Y-10773150D02*
X7024729Y-10773150D01*
X7024729Y-10773150D02*
X7043777Y-10782674D01*
X7043777Y-10782674D02*
X7053301Y-10801722D01*
X7053301Y-10801722D02*
X7053301Y-10906484D01*
X7053301Y-10801722D02*
X7062824Y-10782674D01*
X7062824Y-10782674D02*
X7081872Y-10773150D01*
X7081872Y-10773150D02*
X7110443Y-10773150D01*
X7110443Y-10773150D02*
X7129491Y-10782674D01*
X7129491Y-10782674D02*
X7139015Y-10801722D01*
X7139015Y-10801722D02*
X7139015Y-10906484D01*
X7529491Y-10696960D02*
X7358063Y-10954103D01*
X7786634Y-10706484D02*
X7805682Y-10706484D01*
X7805682Y-10706484D02*
X7824729Y-10716008D01*
X7824729Y-10716008D02*
X7834253Y-10725531D01*
X7834253Y-10725531D02*
X7843777Y-10744579D01*
X7843777Y-10744579D02*
X7853301Y-10782674D01*
X7853301Y-10782674D02*
X7853301Y-10830293D01*
X7853301Y-10830293D02*
X7843777Y-10868389D01*
X7843777Y-10868389D02*
X7834253Y-10887436D01*
X7834253Y-10887436D02*
X7824729Y-10896960D01*
X7824729Y-10896960D02*
X7805682Y-10906484D01*
X7805682Y-10906484D02*
X7786634Y-10906484D01*
X7786634Y-10906484D02*
X7767586Y-10896960D01*
X7767586Y-10896960D02*
X7758063Y-10887436D01*
X7758063Y-10887436D02*
X7748539Y-10868389D01*
X7748539Y-10868389D02*
X7739015Y-10830293D01*
X7739015Y-10830293D02*
X7739015Y-10782674D01*
X7739015Y-10782674D02*
X7748539Y-10744579D01*
X7748539Y-10744579D02*
X7758063Y-10725531D01*
X7758063Y-10725531D02*
X7767586Y-10716008D01*
X7767586Y-10716008D02*
X7786634Y-10706484D01*
X7939015Y-10887436D02*
X7948539Y-10896960D01*
X7948539Y-10896960D02*
X7939015Y-10906484D01*
X7939015Y-10906484D02*
X7929491Y-10896960D01*
X7929491Y-10896960D02*
X7939015Y-10887436D01*
X7939015Y-10887436D02*
X7939015Y-10906484D01*
X8072348Y-10706484D02*
X8091396Y-10706484D01*
X8091396Y-10706484D02*
X8110444Y-10716008D01*
X8110444Y-10716008D02*
X8119967Y-10725531D01*
X8119967Y-10725531D02*
X8129491Y-10744579D01*
X8129491Y-10744579D02*
X8139015Y-10782674D01*
X8139015Y-10782674D02*
X8139015Y-10830293D01*
X8139015Y-10830293D02*
X8129491Y-10868389D01*
X8129491Y-10868389D02*
X8119967Y-10887436D01*
X8119967Y-10887436D02*
X8110444Y-10896960D01*
X8110444Y-10896960D02*
X8091396Y-10906484D01*
X8091396Y-10906484D02*
X8072348Y-10906484D01*
X8072348Y-10906484D02*
X8053301Y-10896960D01*
X8053301Y-10896960D02*
X8043777Y-10887436D01*
X8043777Y-10887436D02*
X8034253Y-10868389D01*
X8034253Y-10868389D02*
X8024729Y-10830293D01*
X8024729Y-10830293D02*
X8024729Y-10782674D01*
X8024729Y-10782674D02*
X8034253Y-10744579D01*
X8034253Y-10744579D02*
X8043777Y-10725531D01*
X8043777Y-10725531D02*
X8053301Y-10716008D01*
X8053301Y-10716008D02*
X8072348Y-10706484D01*
X8205682Y-10706484D02*
X8329491Y-10706484D01*
X8329491Y-10706484D02*
X8262825Y-10782674D01*
X8262825Y-10782674D02*
X8291396Y-10782674D01*
X8291396Y-10782674D02*
X8310444Y-10792198D01*
X8310444Y-10792198D02*
X8319967Y-10801722D01*
X8319967Y-10801722D02*
X8329491Y-10820770D01*
X8329491Y-10820770D02*
X8329491Y-10868389D01*
X8329491Y-10868389D02*
X8319967Y-10887436D01*
X8319967Y-10887436D02*
X8310444Y-10896960D01*
X8310444Y-10896960D02*
X8291396Y-10906484D01*
X8291396Y-10906484D02*
X8234253Y-10906484D01*
X8234253Y-10906484D02*
X8215206Y-10896960D01*
X8215206Y-10896960D02*
X8205682Y-10887436D01*
X8519968Y-10906484D02*
X8405682Y-10906484D01*
X8462825Y-10906484D02*
X8462825Y-10706484D01*
X8462825Y-10706484D02*
X8443777Y-10735055D01*
X8443777Y-10735055D02*
X8424729Y-10754103D01*
X8424729Y-10754103D02*
X8405682Y-10763627D01*
X8700920Y-10706484D02*
X8605682Y-10706484D01*
X8605682Y-10706484D02*
X8596158Y-10801722D01*
X8596158Y-10801722D02*
X8605682Y-10792198D01*
X8605682Y-10792198D02*
X8624729Y-10782674D01*
X8624729Y-10782674D02*
X8672349Y-10782674D01*
X8672349Y-10782674D02*
X8691396Y-10792198D01*
X8691396Y-10792198D02*
X8700920Y-10801722D01*
X8700920Y-10801722D02*
X8710444Y-10820770D01*
X8710444Y-10820770D02*
X8710444Y-10868389D01*
X8710444Y-10868389D02*
X8700920Y-10887436D01*
X8700920Y-10887436D02*
X8691396Y-10896960D01*
X8691396Y-10896960D02*
X8672349Y-10906484D01*
X8672349Y-10906484D02*
X8624729Y-10906484D01*
X8624729Y-10906484D02*
X8605682Y-10896960D01*
X8605682Y-10896960D02*
X8596158Y-10887436D01*
X8786634Y-10706484D02*
X8786634Y-10744579D01*
X8862825Y-10706484D02*
X8862825Y-10744579D01*
X9158063Y-10982674D02*
X9148539Y-10973150D01*
X9148539Y-10973150D02*
X9129491Y-10944579D01*
X9129491Y-10944579D02*
X9119968Y-10925531D01*
X9119968Y-10925531D02*
X9110444Y-10896960D01*
X9110444Y-10896960D02*
X9100920Y-10849341D01*
X9100920Y-10849341D02*
X9100920Y-10811246D01*
X9100920Y-10811246D02*
X9110444Y-10763627D01*
X9110444Y-10763627D02*
X9119968Y-10735055D01*
X9119968Y-10735055D02*
X9129491Y-10716008D01*
X9129491Y-10716008D02*
X9148539Y-10687436D01*
X9148539Y-10687436D02*
X9158063Y-10677912D01*
X9262825Y-10792198D02*
X9243777Y-10782674D01*
X9243777Y-10782674D02*
X9234253Y-10773150D01*
X9234253Y-10773150D02*
X9224730Y-10754103D01*
X9224730Y-10754103D02*
X9224730Y-10744579D01*
X9224730Y-10744579D02*
X9234253Y-10725531D01*
X9234253Y-10725531D02*
X9243777Y-10716008D01*
X9243777Y-10716008D02*
X9262825Y-10706484D01*
X9262825Y-10706484D02*
X9300920Y-10706484D01*
X9300920Y-10706484D02*
X9319968Y-10716008D01*
X9319968Y-10716008D02*
X9329491Y-10725531D01*
X9329491Y-10725531D02*
X9339015Y-10744579D01*
X9339015Y-10744579D02*
X9339015Y-10754103D01*
X9339015Y-10754103D02*
X9329491Y-10773150D01*
X9329491Y-10773150D02*
X9319968Y-10782674D01*
X9319968Y-10782674D02*
X9300920Y-10792198D01*
X9300920Y-10792198D02*
X9262825Y-10792198D01*
X9262825Y-10792198D02*
X9243777Y-10801722D01*
X9243777Y-10801722D02*
X9234253Y-10811246D01*
X9234253Y-10811246D02*
X9224730Y-10830293D01*
X9224730Y-10830293D02*
X9224730Y-10868389D01*
X9224730Y-10868389D02*
X9234253Y-10887436D01*
X9234253Y-10887436D02*
X9243777Y-10896960D01*
X9243777Y-10896960D02*
X9262825Y-10906484D01*
X9262825Y-10906484D02*
X9300920Y-10906484D01*
X9300920Y-10906484D02*
X9319968Y-10896960D01*
X9319968Y-10896960D02*
X9329491Y-10887436D01*
X9329491Y-10887436D02*
X9339015Y-10868389D01*
X9339015Y-10868389D02*
X9339015Y-10830293D01*
X9339015Y-10830293D02*
X9329491Y-10811246D01*
X9329491Y-10811246D02*
X9319968Y-10801722D01*
X9319968Y-10801722D02*
X9300920Y-10792198D01*
X9577111Y-10906484D02*
X9577111Y-10706484D01*
X9662825Y-10906484D02*
X9662825Y-10801722D01*
X9662825Y-10801722D02*
X9653301Y-10782674D01*
X9653301Y-10782674D02*
X9634253Y-10773150D01*
X9634253Y-10773150D02*
X9605682Y-10773150D01*
X9605682Y-10773150D02*
X9586634Y-10782674D01*
X9586634Y-10782674D02*
X9577111Y-10792198D01*
X9786634Y-10906484D02*
X9767587Y-10896960D01*
X9767587Y-10896960D02*
X9758063Y-10887436D01*
X9758063Y-10887436D02*
X9748539Y-10868389D01*
X9748539Y-10868389D02*
X9748539Y-10811246D01*
X9748539Y-10811246D02*
X9758063Y-10792198D01*
X9758063Y-10792198D02*
X9767587Y-10782674D01*
X9767587Y-10782674D02*
X9786634Y-10773150D01*
X9786634Y-10773150D02*
X9815206Y-10773150D01*
X9815206Y-10773150D02*
X9834253Y-10782674D01*
X9834253Y-10782674D02*
X9843777Y-10792198D01*
X9843777Y-10792198D02*
X9853301Y-10811246D01*
X9853301Y-10811246D02*
X9853301Y-10868389D01*
X9853301Y-10868389D02*
X9843777Y-10887436D01*
X9843777Y-10887436D02*
X9834253Y-10896960D01*
X9834253Y-10896960D02*
X9815206Y-10906484D01*
X9815206Y-10906484D02*
X9786634Y-10906484D01*
X9967587Y-10906484D02*
X9948539Y-10896960D01*
X9948539Y-10896960D02*
X9939015Y-10877912D01*
X9939015Y-10877912D02*
X9939015Y-10706484D01*
X10119968Y-10896960D02*
X10100920Y-10906484D01*
X10100920Y-10906484D02*
X10062825Y-10906484D01*
X10062825Y-10906484D02*
X10043777Y-10896960D01*
X10043777Y-10896960D02*
X10034253Y-10877912D01*
X10034253Y-10877912D02*
X10034253Y-10801722D01*
X10034253Y-10801722D02*
X10043777Y-10782674D01*
X10043777Y-10782674D02*
X10062825Y-10773150D01*
X10062825Y-10773150D02*
X10100920Y-10773150D01*
X10100920Y-10773150D02*
X10119968Y-10782674D01*
X10119968Y-10782674D02*
X10129492Y-10801722D01*
X10129492Y-10801722D02*
X10129492Y-10820770D01*
X10129492Y-10820770D02*
X10034253Y-10839817D01*
X10205682Y-10896960D02*
X10224730Y-10906484D01*
X10224730Y-10906484D02*
X10262825Y-10906484D01*
X10262825Y-10906484D02*
X10281873Y-10896960D01*
X10281873Y-10896960D02*
X10291396Y-10877912D01*
X10291396Y-10877912D02*
X10291396Y-10868389D01*
X10291396Y-10868389D02*
X10281873Y-10849341D01*
X10281873Y-10849341D02*
X10262825Y-10839817D01*
X10262825Y-10839817D02*
X10234253Y-10839817D01*
X10234253Y-10839817D02*
X10215206Y-10830293D01*
X10215206Y-10830293D02*
X10205682Y-10811246D01*
X10205682Y-10811246D02*
X10205682Y-10801722D01*
X10205682Y-10801722D02*
X10215206Y-10782674D01*
X10215206Y-10782674D02*
X10234253Y-10773150D01*
X10234253Y-10773150D02*
X10262825Y-10773150D01*
X10262825Y-10773150D02*
X10281873Y-10782674D01*
X10358063Y-10982674D02*
X10367587Y-10973150D01*
X10367587Y-10973150D02*
X10386634Y-10944579D01*
X10386634Y-10944579D02*
X10396158Y-10925531D01*
X10396158Y-10925531D02*
X10405682Y-10896960D01*
X10405682Y-10896960D02*
X10415206Y-10849341D01*
X10415206Y-10849341D02*
X10415206Y-10811246D01*
X10415206Y-10811246D02*
X10405682Y-10763627D01*
X10405682Y-10763627D02*
X10396158Y-10735055D01*
X10396158Y-10735055D02*
X10386634Y-10716008D01*
X10386634Y-10716008D02*
X10367587Y-10687436D01*
X10367587Y-10687436D02*
X10358063Y-10677912D01*
D10*
X5535500Y-11031500D02*
X5535500Y-11126500D01*
X5488000Y-11079000D02*
X5583000Y-11079000D01*
D11*
X5881872Y-10970484D02*
X5900920Y-10970484D01*
X5900920Y-10970484D02*
X5919967Y-10980008D01*
X5919967Y-10980008D02*
X5929491Y-10989531D01*
X5929491Y-10989531D02*
X5939015Y-11008579D01*
X5939015Y-11008579D02*
X5948539Y-11046674D01*
X5948539Y-11046674D02*
X5948539Y-11094293D01*
X5948539Y-11094293D02*
X5939015Y-11132389D01*
X5939015Y-11132389D02*
X5929491Y-11151436D01*
X5929491Y-11151436D02*
X5919967Y-11160960D01*
X5919967Y-11160960D02*
X5900920Y-11170484D01*
X5900920Y-11170484D02*
X5881872Y-11170484D01*
X5881872Y-11170484D02*
X5862824Y-11160960D01*
X5862824Y-11160960D02*
X5853301Y-11151436D01*
X5853301Y-11151436D02*
X5843777Y-11132389D01*
X5843777Y-11132389D02*
X5834253Y-11094293D01*
X5834253Y-11094293D02*
X5834253Y-11046674D01*
X5834253Y-11046674D02*
X5843777Y-11008579D01*
X5843777Y-11008579D02*
X5853301Y-10989531D01*
X5853301Y-10989531D02*
X5862824Y-10980008D01*
X5862824Y-10980008D02*
X5881872Y-10970484D01*
X6034253Y-11151436D02*
X6043777Y-11160960D01*
X6043777Y-11160960D02*
X6034253Y-11170484D01*
X6034253Y-11170484D02*
X6024729Y-11160960D01*
X6024729Y-11160960D02*
X6034253Y-11151436D01*
X6034253Y-11151436D02*
X6034253Y-11170484D01*
X6139015Y-11170484D02*
X6177110Y-11170484D01*
X6177110Y-11170484D02*
X6196158Y-11160960D01*
X6196158Y-11160960D02*
X6205682Y-11151436D01*
X6205682Y-11151436D02*
X6224729Y-11122865D01*
X6224729Y-11122865D02*
X6234253Y-11084770D01*
X6234253Y-11084770D02*
X6234253Y-11008579D01*
X6234253Y-11008579D02*
X6224729Y-10989531D01*
X6224729Y-10989531D02*
X6215205Y-10980008D01*
X6215205Y-10980008D02*
X6196158Y-10970484D01*
X6196158Y-10970484D02*
X6158062Y-10970484D01*
X6158062Y-10970484D02*
X6139015Y-10980008D01*
X6139015Y-10980008D02*
X6129491Y-10989531D01*
X6129491Y-10989531D02*
X6119967Y-11008579D01*
X6119967Y-11008579D02*
X6119967Y-11056198D01*
X6119967Y-11056198D02*
X6129491Y-11075246D01*
X6129491Y-11075246D02*
X6139015Y-11084770D01*
X6139015Y-11084770D02*
X6158062Y-11094293D01*
X6158062Y-11094293D02*
X6196158Y-11094293D01*
X6196158Y-11094293D02*
X6215205Y-11084770D01*
X6215205Y-11084770D02*
X6224729Y-11075246D01*
X6224729Y-11075246D02*
X6234253Y-11056198D01*
X6415205Y-10970484D02*
X6319967Y-10970484D01*
X6319967Y-10970484D02*
X6310443Y-11065722D01*
X6310443Y-11065722D02*
X6319967Y-11056198D01*
X6319967Y-11056198D02*
X6339015Y-11046674D01*
X6339015Y-11046674D02*
X6386634Y-11046674D01*
X6386634Y-11046674D02*
X6405682Y-11056198D01*
X6405682Y-11056198D02*
X6415205Y-11065722D01*
X6415205Y-11065722D02*
X6424729Y-11084770D01*
X6424729Y-11084770D02*
X6424729Y-11132389D01*
X6424729Y-11132389D02*
X6415205Y-11151436D01*
X6415205Y-11151436D02*
X6405682Y-11160960D01*
X6405682Y-11160960D02*
X6386634Y-11170484D01*
X6386634Y-11170484D02*
X6339015Y-11170484D01*
X6339015Y-11170484D02*
X6319967Y-11160960D01*
X6319967Y-11160960D02*
X6310443Y-11151436D01*
X6548539Y-10970484D02*
X6567586Y-10970484D01*
X6567586Y-10970484D02*
X6586634Y-10980008D01*
X6586634Y-10980008D02*
X6596158Y-10989531D01*
X6596158Y-10989531D02*
X6605682Y-11008579D01*
X6605682Y-11008579D02*
X6615205Y-11046674D01*
X6615205Y-11046674D02*
X6615205Y-11094293D01*
X6615205Y-11094293D02*
X6605682Y-11132389D01*
X6605682Y-11132389D02*
X6596158Y-11151436D01*
X6596158Y-11151436D02*
X6586634Y-11160960D01*
X6586634Y-11160960D02*
X6567586Y-11170484D01*
X6567586Y-11170484D02*
X6548539Y-11170484D01*
X6548539Y-11170484D02*
X6529491Y-11160960D01*
X6529491Y-11160960D02*
X6519967Y-11151436D01*
X6519967Y-11151436D02*
X6510443Y-11132389D01*
X6510443Y-11132389D02*
X6500920Y-11094293D01*
X6500920Y-11094293D02*
X6500920Y-11046674D01*
X6500920Y-11046674D02*
X6510443Y-11008579D01*
X6510443Y-11008579D02*
X6519967Y-10989531D01*
X6519967Y-10989531D02*
X6529491Y-10980008D01*
X6529491Y-10980008D02*
X6548539Y-10970484D01*
X6700920Y-11170484D02*
X6700920Y-11037150D01*
X6700920Y-11056198D02*
X6710443Y-11046674D01*
X6710443Y-11046674D02*
X6729491Y-11037150D01*
X6729491Y-11037150D02*
X6758063Y-11037150D01*
X6758063Y-11037150D02*
X6777110Y-11046674D01*
X6777110Y-11046674D02*
X6786634Y-11065722D01*
X6786634Y-11065722D02*
X6786634Y-11170484D01*
X6786634Y-11065722D02*
X6796158Y-11046674D01*
X6796158Y-11046674D02*
X6815205Y-11037150D01*
X6815205Y-11037150D02*
X6843777Y-11037150D01*
X6843777Y-11037150D02*
X6862824Y-11046674D01*
X6862824Y-11046674D02*
X6872348Y-11065722D01*
X6872348Y-11065722D02*
X6872348Y-11170484D01*
X6967586Y-11170484D02*
X6967586Y-11037150D01*
X6967586Y-11056198D02*
X6977110Y-11046674D01*
X6977110Y-11046674D02*
X6996158Y-11037150D01*
X6996158Y-11037150D02*
X7024729Y-11037150D01*
X7024729Y-11037150D02*
X7043777Y-11046674D01*
X7043777Y-11046674D02*
X7053301Y-11065722D01*
X7053301Y-11065722D02*
X7053301Y-11170484D01*
X7053301Y-11065722D02*
X7062824Y-11046674D01*
X7062824Y-11046674D02*
X7081872Y-11037150D01*
X7081872Y-11037150D02*
X7110443Y-11037150D01*
X7110443Y-11037150D02*
X7129491Y-11046674D01*
X7129491Y-11046674D02*
X7139015Y-11065722D01*
X7139015Y-11065722D02*
X7139015Y-11170484D01*
X7529491Y-10960960D02*
X7358063Y-11218103D01*
X7786634Y-10970484D02*
X7805682Y-10970484D01*
X7805682Y-10970484D02*
X7824729Y-10980008D01*
X7824729Y-10980008D02*
X7834253Y-10989531D01*
X7834253Y-10989531D02*
X7843777Y-11008579D01*
X7843777Y-11008579D02*
X7853301Y-11046674D01*
X7853301Y-11046674D02*
X7853301Y-11094293D01*
X7853301Y-11094293D02*
X7843777Y-11132389D01*
X7843777Y-11132389D02*
X7834253Y-11151436D01*
X7834253Y-11151436D02*
X7824729Y-11160960D01*
X7824729Y-11160960D02*
X7805682Y-11170484D01*
X7805682Y-11170484D02*
X7786634Y-11170484D01*
X7786634Y-11170484D02*
X7767586Y-11160960D01*
X7767586Y-11160960D02*
X7758063Y-11151436D01*
X7758063Y-11151436D02*
X7748539Y-11132389D01*
X7748539Y-11132389D02*
X7739015Y-11094293D01*
X7739015Y-11094293D02*
X7739015Y-11046674D01*
X7739015Y-11046674D02*
X7748539Y-11008579D01*
X7748539Y-11008579D02*
X7758063Y-10989531D01*
X7758063Y-10989531D02*
X7767586Y-10980008D01*
X7767586Y-10980008D02*
X7786634Y-10970484D01*
X7939015Y-11151436D02*
X7948539Y-11160960D01*
X7948539Y-11160960D02*
X7939015Y-11170484D01*
X7939015Y-11170484D02*
X7929491Y-11160960D01*
X7929491Y-11160960D02*
X7939015Y-11151436D01*
X7939015Y-11151436D02*
X7939015Y-11170484D01*
X8072348Y-10970484D02*
X8091396Y-10970484D01*
X8091396Y-10970484D02*
X8110444Y-10980008D01*
X8110444Y-10980008D02*
X8119967Y-10989531D01*
X8119967Y-10989531D02*
X8129491Y-11008579D01*
X8129491Y-11008579D02*
X8139015Y-11046674D01*
X8139015Y-11046674D02*
X8139015Y-11094293D01*
X8139015Y-11094293D02*
X8129491Y-11132389D01*
X8129491Y-11132389D02*
X8119967Y-11151436D01*
X8119967Y-11151436D02*
X8110444Y-11160960D01*
X8110444Y-11160960D02*
X8091396Y-11170484D01*
X8091396Y-11170484D02*
X8072348Y-11170484D01*
X8072348Y-11170484D02*
X8053301Y-11160960D01*
X8053301Y-11160960D02*
X8043777Y-11151436D01*
X8043777Y-11151436D02*
X8034253Y-11132389D01*
X8034253Y-11132389D02*
X8024729Y-11094293D01*
X8024729Y-11094293D02*
X8024729Y-11046674D01*
X8024729Y-11046674D02*
X8034253Y-11008579D01*
X8034253Y-11008579D02*
X8043777Y-10989531D01*
X8043777Y-10989531D02*
X8053301Y-10980008D01*
X8053301Y-10980008D02*
X8072348Y-10970484D01*
X8205682Y-10970484D02*
X8329491Y-10970484D01*
X8329491Y-10970484D02*
X8262825Y-11046674D01*
X8262825Y-11046674D02*
X8291396Y-11046674D01*
X8291396Y-11046674D02*
X8310444Y-11056198D01*
X8310444Y-11056198D02*
X8319967Y-11065722D01*
X8319967Y-11065722D02*
X8329491Y-11084770D01*
X8329491Y-11084770D02*
X8329491Y-11132389D01*
X8329491Y-11132389D02*
X8319967Y-11151436D01*
X8319967Y-11151436D02*
X8310444Y-11160960D01*
X8310444Y-11160960D02*
X8291396Y-11170484D01*
X8291396Y-11170484D02*
X8234253Y-11170484D01*
X8234253Y-11170484D02*
X8215206Y-11160960D01*
X8215206Y-11160960D02*
X8205682Y-11151436D01*
X8396158Y-10970484D02*
X8529491Y-10970484D01*
X8529491Y-10970484D02*
X8443777Y-11170484D01*
X8691396Y-11037150D02*
X8691396Y-11170484D01*
X8643777Y-10960960D02*
X8596158Y-11103817D01*
X8596158Y-11103817D02*
X8719968Y-11103817D01*
X8786634Y-10970484D02*
X8786634Y-11008579D01*
X8862825Y-10970484D02*
X8862825Y-11008579D01*
X9158063Y-11246674D02*
X9148539Y-11237150D01*
X9148539Y-11237150D02*
X9129491Y-11208579D01*
X9129491Y-11208579D02*
X9119968Y-11189531D01*
X9119968Y-11189531D02*
X9110444Y-11160960D01*
X9110444Y-11160960D02*
X9100920Y-11113341D01*
X9100920Y-11113341D02*
X9100920Y-11075246D01*
X9100920Y-11075246D02*
X9110444Y-11027627D01*
X9110444Y-11027627D02*
X9119968Y-10999055D01*
X9119968Y-10999055D02*
X9129491Y-10980008D01*
X9129491Y-10980008D02*
X9148539Y-10951436D01*
X9148539Y-10951436D02*
X9158063Y-10941912D01*
X9262825Y-11056198D02*
X9243777Y-11046674D01*
X9243777Y-11046674D02*
X9234253Y-11037150D01*
X9234253Y-11037150D02*
X9224730Y-11018103D01*
X9224730Y-11018103D02*
X9224730Y-11008579D01*
X9224730Y-11008579D02*
X9234253Y-10989531D01*
X9234253Y-10989531D02*
X9243777Y-10980008D01*
X9243777Y-10980008D02*
X9262825Y-10970484D01*
X9262825Y-10970484D02*
X9300920Y-10970484D01*
X9300920Y-10970484D02*
X9319968Y-10980008D01*
X9319968Y-10980008D02*
X9329491Y-10989531D01*
X9329491Y-10989531D02*
X9339015Y-11008579D01*
X9339015Y-11008579D02*
X9339015Y-11018103D01*
X9339015Y-11018103D02*
X9329491Y-11037150D01*
X9329491Y-11037150D02*
X9319968Y-11046674D01*
X9319968Y-11046674D02*
X9300920Y-11056198D01*
X9300920Y-11056198D02*
X9262825Y-11056198D01*
X9262825Y-11056198D02*
X9243777Y-11065722D01*
X9243777Y-11065722D02*
X9234253Y-11075246D01*
X9234253Y-11075246D02*
X9224730Y-11094293D01*
X9224730Y-11094293D02*
X9224730Y-11132389D01*
X9224730Y-11132389D02*
X9234253Y-11151436D01*
X9234253Y-11151436D02*
X9243777Y-11160960D01*
X9243777Y-11160960D02*
X9262825Y-11170484D01*
X9262825Y-11170484D02*
X9300920Y-11170484D01*
X9300920Y-11170484D02*
X9319968Y-11160960D01*
X9319968Y-11160960D02*
X9329491Y-11151436D01*
X9329491Y-11151436D02*
X9339015Y-11132389D01*
X9339015Y-11132389D02*
X9339015Y-11094293D01*
X9339015Y-11094293D02*
X9329491Y-11075246D01*
X9329491Y-11075246D02*
X9319968Y-11065722D01*
X9319968Y-11065722D02*
X9300920Y-11056198D01*
X9577111Y-11170484D02*
X9577111Y-10970484D01*
X9662825Y-11170484D02*
X9662825Y-11065722D01*
X9662825Y-11065722D02*
X9653301Y-11046674D01*
X9653301Y-11046674D02*
X9634253Y-11037150D01*
X9634253Y-11037150D02*
X9605682Y-11037150D01*
X9605682Y-11037150D02*
X9586634Y-11046674D01*
X9586634Y-11046674D02*
X9577111Y-11056198D01*
X9786634Y-11170484D02*
X9767587Y-11160960D01*
X9767587Y-11160960D02*
X9758063Y-11151436D01*
X9758063Y-11151436D02*
X9748539Y-11132389D01*
X9748539Y-11132389D02*
X9748539Y-11075246D01*
X9748539Y-11075246D02*
X9758063Y-11056198D01*
X9758063Y-11056198D02*
X9767587Y-11046674D01*
X9767587Y-11046674D02*
X9786634Y-11037150D01*
X9786634Y-11037150D02*
X9815206Y-11037150D01*
X9815206Y-11037150D02*
X9834253Y-11046674D01*
X9834253Y-11046674D02*
X9843777Y-11056198D01*
X9843777Y-11056198D02*
X9853301Y-11075246D01*
X9853301Y-11075246D02*
X9853301Y-11132389D01*
X9853301Y-11132389D02*
X9843777Y-11151436D01*
X9843777Y-11151436D02*
X9834253Y-11160960D01*
X9834253Y-11160960D02*
X9815206Y-11170484D01*
X9815206Y-11170484D02*
X9786634Y-11170484D01*
X9967587Y-11170484D02*
X9948539Y-11160960D01*
X9948539Y-11160960D02*
X9939015Y-11141912D01*
X9939015Y-11141912D02*
X9939015Y-10970484D01*
X10119968Y-11160960D02*
X10100920Y-11170484D01*
X10100920Y-11170484D02*
X10062825Y-11170484D01*
X10062825Y-11170484D02*
X10043777Y-11160960D01*
X10043777Y-11160960D02*
X10034253Y-11141912D01*
X10034253Y-11141912D02*
X10034253Y-11065722D01*
X10034253Y-11065722D02*
X10043777Y-11046674D01*
X10043777Y-11046674D02*
X10062825Y-11037150D01*
X10062825Y-11037150D02*
X10100920Y-11037150D01*
X10100920Y-11037150D02*
X10119968Y-11046674D01*
X10119968Y-11046674D02*
X10129492Y-11065722D01*
X10129492Y-11065722D02*
X10129492Y-11084770D01*
X10129492Y-11084770D02*
X10034253Y-11103817D01*
X10205682Y-11160960D02*
X10224730Y-11170484D01*
X10224730Y-11170484D02*
X10262825Y-11170484D01*
X10262825Y-11170484D02*
X10281873Y-11160960D01*
X10281873Y-11160960D02*
X10291396Y-11141912D01*
X10291396Y-11141912D02*
X10291396Y-11132389D01*
X10291396Y-11132389D02*
X10281873Y-11113341D01*
X10281873Y-11113341D02*
X10262825Y-11103817D01*
X10262825Y-11103817D02*
X10234253Y-11103817D01*
X10234253Y-11103817D02*
X10215206Y-11094293D01*
X10215206Y-11094293D02*
X10205682Y-11075246D01*
X10205682Y-11075246D02*
X10205682Y-11065722D01*
X10205682Y-11065722D02*
X10215206Y-11046674D01*
X10215206Y-11046674D02*
X10234253Y-11037150D01*
X10234253Y-11037150D02*
X10262825Y-11037150D01*
X10262825Y-11037150D02*
X10281873Y-11046674D01*
X10358063Y-11246674D02*
X10367587Y-11237150D01*
X10367587Y-11237150D02*
X10386634Y-11208579D01*
X10386634Y-11208579D02*
X10396158Y-11189531D01*
X10396158Y-11189531D02*
X10405682Y-11160960D01*
X10405682Y-11160960D02*
X10415206Y-11113341D01*
X10415206Y-11113341D02*
X10415206Y-11075246D01*
X10415206Y-11075246D02*
X10405682Y-11027627D01*
X10405682Y-11027627D02*
X10396158Y-10999055D01*
X10396158Y-10999055D02*
X10386634Y-10980008D01*
X10386634Y-10980008D02*
X10367587Y-10951436D01*
X10367587Y-10951436D02*
X10358063Y-10941912D01*
D10*
X5568356Y-11378356D02*
X5568356Y-11307644D01*
X5497644Y-11307644D01*
X5497644Y-11378356D01*
X5568356Y-11378356D01*
D11*
X5948539Y-11434484D02*
X5834253Y-11434484D01*
X5891396Y-11434484D02*
X5891396Y-11234484D01*
X5891396Y-11234484D02*
X5872348Y-11263055D01*
X5872348Y-11263055D02*
X5853301Y-11282103D01*
X5853301Y-11282103D02*
X5834253Y-11291627D01*
X6034253Y-11415436D02*
X6043777Y-11424960D01*
X6043777Y-11424960D02*
X6034253Y-11434484D01*
X6034253Y-11434484D02*
X6024729Y-11424960D01*
X6024729Y-11424960D02*
X6034253Y-11415436D01*
X6034253Y-11415436D02*
X6034253Y-11434484D01*
X6167586Y-11234484D02*
X6186634Y-11234484D01*
X6186634Y-11234484D02*
X6205682Y-11244008D01*
X6205682Y-11244008D02*
X6215205Y-11253531D01*
X6215205Y-11253531D02*
X6224729Y-11272579D01*
X6224729Y-11272579D02*
X6234253Y-11310674D01*
X6234253Y-11310674D02*
X6234253Y-11358293D01*
X6234253Y-11358293D02*
X6224729Y-11396388D01*
X6224729Y-11396388D02*
X6215205Y-11415436D01*
X6215205Y-11415436D02*
X6205682Y-11424960D01*
X6205682Y-11424960D02*
X6186634Y-11434484D01*
X6186634Y-11434484D02*
X6167586Y-11434484D01*
X6167586Y-11434484D02*
X6148539Y-11424960D01*
X6148539Y-11424960D02*
X6139015Y-11415436D01*
X6139015Y-11415436D02*
X6129491Y-11396388D01*
X6129491Y-11396388D02*
X6119967Y-11358293D01*
X6119967Y-11358293D02*
X6119967Y-11310674D01*
X6119967Y-11310674D02*
X6129491Y-11272579D01*
X6129491Y-11272579D02*
X6139015Y-11253531D01*
X6139015Y-11253531D02*
X6148539Y-11244008D01*
X6148539Y-11244008D02*
X6167586Y-11234484D01*
X6358062Y-11234484D02*
X6377110Y-11234484D01*
X6377110Y-11234484D02*
X6396158Y-11244008D01*
X6396158Y-11244008D02*
X6405682Y-11253531D01*
X6405682Y-11253531D02*
X6415205Y-11272579D01*
X6415205Y-11272579D02*
X6424729Y-11310674D01*
X6424729Y-11310674D02*
X6424729Y-11358293D01*
X6424729Y-11358293D02*
X6415205Y-11396388D01*
X6415205Y-11396388D02*
X6405682Y-11415436D01*
X6405682Y-11415436D02*
X6396158Y-11424960D01*
X6396158Y-11424960D02*
X6377110Y-11434484D01*
X6377110Y-11434484D02*
X6358062Y-11434484D01*
X6358062Y-11434484D02*
X6339015Y-11424960D01*
X6339015Y-11424960D02*
X6329491Y-11415436D01*
X6329491Y-11415436D02*
X6319967Y-11396388D01*
X6319967Y-11396388D02*
X6310443Y-11358293D01*
X6310443Y-11358293D02*
X6310443Y-11310674D01*
X6310443Y-11310674D02*
X6319967Y-11272579D01*
X6319967Y-11272579D02*
X6329491Y-11253531D01*
X6329491Y-11253531D02*
X6339015Y-11244008D01*
X6339015Y-11244008D02*
X6358062Y-11234484D01*
X6548539Y-11234484D02*
X6567586Y-11234484D01*
X6567586Y-11234484D02*
X6586634Y-11244008D01*
X6586634Y-11244008D02*
X6596158Y-11253531D01*
X6596158Y-11253531D02*
X6605682Y-11272579D01*
X6605682Y-11272579D02*
X6615205Y-11310674D01*
X6615205Y-11310674D02*
X6615205Y-11358293D01*
X6615205Y-11358293D02*
X6605682Y-11396388D01*
X6605682Y-11396388D02*
X6596158Y-11415436D01*
X6596158Y-11415436D02*
X6586634Y-11424960D01*
X6586634Y-11424960D02*
X6567586Y-11434484D01*
X6567586Y-11434484D02*
X6548539Y-11434484D01*
X6548539Y-11434484D02*
X6529491Y-11424960D01*
X6529491Y-11424960D02*
X6519967Y-11415436D01*
X6519967Y-11415436D02*
X6510443Y-11396388D01*
X6510443Y-11396388D02*
X6500920Y-11358293D01*
X6500920Y-11358293D02*
X6500920Y-11310674D01*
X6500920Y-11310674D02*
X6510443Y-11272579D01*
X6510443Y-11272579D02*
X6519967Y-11253531D01*
X6519967Y-11253531D02*
X6529491Y-11244008D01*
X6529491Y-11244008D02*
X6548539Y-11234484D01*
X6700920Y-11434484D02*
X6700920Y-11301150D01*
X6700920Y-11320198D02*
X6710443Y-11310674D01*
X6710443Y-11310674D02*
X6729491Y-11301150D01*
X6729491Y-11301150D02*
X6758063Y-11301150D01*
X6758063Y-11301150D02*
X6777110Y-11310674D01*
X6777110Y-11310674D02*
X6786634Y-11329722D01*
X6786634Y-11329722D02*
X6786634Y-11434484D01*
X6786634Y-11329722D02*
X6796158Y-11310674D01*
X6796158Y-11310674D02*
X6815205Y-11301150D01*
X6815205Y-11301150D02*
X6843777Y-11301150D01*
X6843777Y-11301150D02*
X6862824Y-11310674D01*
X6862824Y-11310674D02*
X6872348Y-11329722D01*
X6872348Y-11329722D02*
X6872348Y-11434484D01*
X6967586Y-11434484D02*
X6967586Y-11301150D01*
X6967586Y-11320198D02*
X6977110Y-11310674D01*
X6977110Y-11310674D02*
X6996158Y-11301150D01*
X6996158Y-11301150D02*
X7024729Y-11301150D01*
X7024729Y-11301150D02*
X7043777Y-11310674D01*
X7043777Y-11310674D02*
X7053301Y-11329722D01*
X7053301Y-11329722D02*
X7053301Y-11434484D01*
X7053301Y-11329722D02*
X7062824Y-11310674D01*
X7062824Y-11310674D02*
X7081872Y-11301150D01*
X7081872Y-11301150D02*
X7110443Y-11301150D01*
X7110443Y-11301150D02*
X7129491Y-11310674D01*
X7129491Y-11310674D02*
X7139015Y-11329722D01*
X7139015Y-11329722D02*
X7139015Y-11434484D01*
X7529491Y-11224960D02*
X7358063Y-11482103D01*
X7786634Y-11234484D02*
X7805682Y-11234484D01*
X7805682Y-11234484D02*
X7824729Y-11244008D01*
X7824729Y-11244008D02*
X7834253Y-11253531D01*
X7834253Y-11253531D02*
X7843777Y-11272579D01*
X7843777Y-11272579D02*
X7853301Y-11310674D01*
X7853301Y-11310674D02*
X7853301Y-11358293D01*
X7853301Y-11358293D02*
X7843777Y-11396388D01*
X7843777Y-11396388D02*
X7834253Y-11415436D01*
X7834253Y-11415436D02*
X7824729Y-11424960D01*
X7824729Y-11424960D02*
X7805682Y-11434484D01*
X7805682Y-11434484D02*
X7786634Y-11434484D01*
X7786634Y-11434484D02*
X7767586Y-11424960D01*
X7767586Y-11424960D02*
X7758063Y-11415436D01*
X7758063Y-11415436D02*
X7748539Y-11396388D01*
X7748539Y-11396388D02*
X7739015Y-11358293D01*
X7739015Y-11358293D02*
X7739015Y-11310674D01*
X7739015Y-11310674D02*
X7748539Y-11272579D01*
X7748539Y-11272579D02*
X7758063Y-11253531D01*
X7758063Y-11253531D02*
X7767586Y-11244008D01*
X7767586Y-11244008D02*
X7786634Y-11234484D01*
X7939015Y-11415436D02*
X7948539Y-11424960D01*
X7948539Y-11424960D02*
X7939015Y-11434484D01*
X7939015Y-11434484D02*
X7929491Y-11424960D01*
X7929491Y-11424960D02*
X7939015Y-11415436D01*
X7939015Y-11415436D02*
X7939015Y-11434484D01*
X8072348Y-11234484D02*
X8091396Y-11234484D01*
X8091396Y-11234484D02*
X8110444Y-11244008D01*
X8110444Y-11244008D02*
X8119967Y-11253531D01*
X8119967Y-11253531D02*
X8129491Y-11272579D01*
X8129491Y-11272579D02*
X8139015Y-11310674D01*
X8139015Y-11310674D02*
X8139015Y-11358293D01*
X8139015Y-11358293D02*
X8129491Y-11396388D01*
X8129491Y-11396388D02*
X8119967Y-11415436D01*
X8119967Y-11415436D02*
X8110444Y-11424960D01*
X8110444Y-11424960D02*
X8091396Y-11434484D01*
X8091396Y-11434484D02*
X8072348Y-11434484D01*
X8072348Y-11434484D02*
X8053301Y-11424960D01*
X8053301Y-11424960D02*
X8043777Y-11415436D01*
X8043777Y-11415436D02*
X8034253Y-11396388D01*
X8034253Y-11396388D02*
X8024729Y-11358293D01*
X8024729Y-11358293D02*
X8024729Y-11310674D01*
X8024729Y-11310674D02*
X8034253Y-11272579D01*
X8034253Y-11272579D02*
X8043777Y-11253531D01*
X8043777Y-11253531D02*
X8053301Y-11244008D01*
X8053301Y-11244008D02*
X8072348Y-11234484D01*
X8205682Y-11234484D02*
X8329491Y-11234484D01*
X8329491Y-11234484D02*
X8262825Y-11310674D01*
X8262825Y-11310674D02*
X8291396Y-11310674D01*
X8291396Y-11310674D02*
X8310444Y-11320198D01*
X8310444Y-11320198D02*
X8319967Y-11329722D01*
X8319967Y-11329722D02*
X8329491Y-11348769D01*
X8329491Y-11348769D02*
X8329491Y-11396388D01*
X8329491Y-11396388D02*
X8319967Y-11415436D01*
X8319967Y-11415436D02*
X8310444Y-11424960D01*
X8310444Y-11424960D02*
X8291396Y-11434484D01*
X8291396Y-11434484D02*
X8234253Y-11434484D01*
X8234253Y-11434484D02*
X8215206Y-11424960D01*
X8215206Y-11424960D02*
X8205682Y-11415436D01*
X8424729Y-11434484D02*
X8462825Y-11434484D01*
X8462825Y-11434484D02*
X8481872Y-11424960D01*
X8481872Y-11424960D02*
X8491396Y-11415436D01*
X8491396Y-11415436D02*
X8510444Y-11386865D01*
X8510444Y-11386865D02*
X8519968Y-11348769D01*
X8519968Y-11348769D02*
X8519968Y-11272579D01*
X8519968Y-11272579D02*
X8510444Y-11253531D01*
X8510444Y-11253531D02*
X8500920Y-11244008D01*
X8500920Y-11244008D02*
X8481872Y-11234484D01*
X8481872Y-11234484D02*
X8443777Y-11234484D01*
X8443777Y-11234484D02*
X8424729Y-11244008D01*
X8424729Y-11244008D02*
X8415206Y-11253531D01*
X8415206Y-11253531D02*
X8405682Y-11272579D01*
X8405682Y-11272579D02*
X8405682Y-11320198D01*
X8405682Y-11320198D02*
X8415206Y-11339246D01*
X8415206Y-11339246D02*
X8424729Y-11348769D01*
X8424729Y-11348769D02*
X8443777Y-11358293D01*
X8443777Y-11358293D02*
X8481872Y-11358293D01*
X8481872Y-11358293D02*
X8500920Y-11348769D01*
X8500920Y-11348769D02*
X8510444Y-11339246D01*
X8510444Y-11339246D02*
X8519968Y-11320198D01*
X8691396Y-11301150D02*
X8691396Y-11434484D01*
X8643777Y-11224960D02*
X8596158Y-11367817D01*
X8596158Y-11367817D02*
X8719968Y-11367817D01*
X8786634Y-11234484D02*
X8786634Y-11272579D01*
X8862825Y-11234484D02*
X8862825Y-11272579D01*
X9158063Y-11510674D02*
X9148539Y-11501150D01*
X9148539Y-11501150D02*
X9129491Y-11472579D01*
X9129491Y-11472579D02*
X9119968Y-11453531D01*
X9119968Y-11453531D02*
X9110444Y-11424960D01*
X9110444Y-11424960D02*
X9100920Y-11377341D01*
X9100920Y-11377341D02*
X9100920Y-11339246D01*
X9100920Y-11339246D02*
X9110444Y-11291627D01*
X9110444Y-11291627D02*
X9119968Y-11263055D01*
X9119968Y-11263055D02*
X9129491Y-11244008D01*
X9129491Y-11244008D02*
X9148539Y-11215436D01*
X9148539Y-11215436D02*
X9158063Y-11205912D01*
X9339015Y-11434484D02*
X9224730Y-11434484D01*
X9281872Y-11434484D02*
X9281872Y-11234484D01*
X9281872Y-11234484D02*
X9262825Y-11263055D01*
X9262825Y-11263055D02*
X9243777Y-11282103D01*
X9243777Y-11282103D02*
X9224730Y-11291627D01*
X9434253Y-11434484D02*
X9472349Y-11434484D01*
X9472349Y-11434484D02*
X9491396Y-11424960D01*
X9491396Y-11424960D02*
X9500920Y-11415436D01*
X9500920Y-11415436D02*
X9519968Y-11386865D01*
X9519968Y-11386865D02*
X9529491Y-11348769D01*
X9529491Y-11348769D02*
X9529491Y-11272579D01*
X9529491Y-11272579D02*
X9519968Y-11253531D01*
X9519968Y-11253531D02*
X9510444Y-11244008D01*
X9510444Y-11244008D02*
X9491396Y-11234484D01*
X9491396Y-11234484D02*
X9453301Y-11234484D01*
X9453301Y-11234484D02*
X9434253Y-11244008D01*
X9434253Y-11244008D02*
X9424730Y-11253531D01*
X9424730Y-11253531D02*
X9415206Y-11272579D01*
X9415206Y-11272579D02*
X9415206Y-11320198D01*
X9415206Y-11320198D02*
X9424730Y-11339246D01*
X9424730Y-11339246D02*
X9434253Y-11348769D01*
X9434253Y-11348769D02*
X9453301Y-11358293D01*
X9453301Y-11358293D02*
X9491396Y-11358293D01*
X9491396Y-11358293D02*
X9510444Y-11348769D01*
X9510444Y-11348769D02*
X9519968Y-11339246D01*
X9519968Y-11339246D02*
X9529491Y-11320198D01*
X9767587Y-11434484D02*
X9767587Y-11234484D01*
X9853301Y-11434484D02*
X9853301Y-11329722D01*
X9853301Y-11329722D02*
X9843777Y-11310674D01*
X9843777Y-11310674D02*
X9824730Y-11301150D01*
X9824730Y-11301150D02*
X9796158Y-11301150D01*
X9796158Y-11301150D02*
X9777111Y-11310674D01*
X9777111Y-11310674D02*
X9767587Y-11320198D01*
X9977111Y-11434484D02*
X9958063Y-11424960D01*
X9958063Y-11424960D02*
X9948539Y-11415436D01*
X9948539Y-11415436D02*
X9939015Y-11396388D01*
X9939015Y-11396388D02*
X9939015Y-11339246D01*
X9939015Y-11339246D02*
X9948539Y-11320198D01*
X9948539Y-11320198D02*
X9958063Y-11310674D01*
X9958063Y-11310674D02*
X9977111Y-11301150D01*
X9977111Y-11301150D02*
X10005682Y-11301150D01*
X10005682Y-11301150D02*
X10024730Y-11310674D01*
X10024730Y-11310674D02*
X10034253Y-11320198D01*
X10034253Y-11320198D02*
X10043777Y-11339246D01*
X10043777Y-11339246D02*
X10043777Y-11396388D01*
X10043777Y-11396388D02*
X10034253Y-11415436D01*
X10034253Y-11415436D02*
X10024730Y-11424960D01*
X10024730Y-11424960D02*
X10005682Y-11434484D01*
X10005682Y-11434484D02*
X9977111Y-11434484D01*
X10158063Y-11434484D02*
X10139015Y-11424960D01*
X10139015Y-11424960D02*
X10129492Y-11405912D01*
X10129492Y-11405912D02*
X10129492Y-11234484D01*
X10310444Y-11424960D02*
X10291396Y-11434484D01*
X10291396Y-11434484D02*
X10253301Y-11434484D01*
X10253301Y-11434484D02*
X10234253Y-11424960D01*
X10234253Y-11424960D02*
X10224730Y-11405912D01*
X10224730Y-11405912D02*
X10224730Y-11329722D01*
X10224730Y-11329722D02*
X10234253Y-11310674D01*
X10234253Y-11310674D02*
X10253301Y-11301150D01*
X10253301Y-11301150D02*
X10291396Y-11301150D01*
X10291396Y-11301150D02*
X10310444Y-11310674D01*
X10310444Y-11310674D02*
X10319968Y-11329722D01*
X10319968Y-11329722D02*
X10319968Y-11348769D01*
X10319968Y-11348769D02*
X10224730Y-11367817D01*
X10396158Y-11424960D02*
X10415206Y-11434484D01*
X10415206Y-11434484D02*
X10453301Y-11434484D01*
X10453301Y-11434484D02*
X10472349Y-11424960D01*
X10472349Y-11424960D02*
X10481873Y-11405912D01*
X10481873Y-11405912D02*
X10481873Y-11396388D01*
X10481873Y-11396388D02*
X10472349Y-11377341D01*
X10472349Y-11377341D02*
X10453301Y-11367817D01*
X10453301Y-11367817D02*
X10424730Y-11367817D01*
X10424730Y-11367817D02*
X10405682Y-11358293D01*
X10405682Y-11358293D02*
X10396158Y-11339246D01*
X10396158Y-11339246D02*
X10396158Y-11329722D01*
X10396158Y-11329722D02*
X10405682Y-11310674D01*
X10405682Y-11310674D02*
X10424730Y-11301150D01*
X10424730Y-11301150D02*
X10453301Y-11301150D01*
X10453301Y-11301150D02*
X10472349Y-11310674D01*
X10548539Y-11510674D02*
X10558063Y-11501150D01*
X10558063Y-11501150D02*
X10577111Y-11472579D01*
X10577111Y-11472579D02*
X10586634Y-11453531D01*
X10586634Y-11453531D02*
X10596158Y-11424960D01*
X10596158Y-11424960D02*
X10605682Y-11377341D01*
X10605682Y-11377341D02*
X10605682Y-11339246D01*
X10605682Y-11339246D02*
X10596158Y-11291627D01*
X10596158Y-11291627D02*
X10586634Y-11263055D01*
X10586634Y-11263055D02*
X10577111Y-11244008D01*
X10577111Y-11244008D02*
X10558063Y-11215436D01*
X10558063Y-11215436D02*
X10548539Y-11205912D01*
D12*
X5528000Y-11662000D02*
X5583000Y-11607000D01*
X5528000Y-11552000D01*
X5473000Y-11607000D01*
X5528000Y-11662000D01*
D11*
X5948539Y-11698484D02*
X5834253Y-11698484D01*
X5891396Y-11698484D02*
X5891396Y-11498484D01*
X5891396Y-11498484D02*
X5872348Y-11527055D01*
X5872348Y-11527055D02*
X5853301Y-11546103D01*
X5853301Y-11546103D02*
X5834253Y-11555627D01*
X6034253Y-11679436D02*
X6043777Y-11688960D01*
X6043777Y-11688960D02*
X6034253Y-11698484D01*
X6034253Y-11698484D02*
X6024729Y-11688960D01*
X6024729Y-11688960D02*
X6034253Y-11679436D01*
X6034253Y-11679436D02*
X6034253Y-11698484D01*
X6234253Y-11698484D02*
X6119967Y-11698484D01*
X6177110Y-11698484D02*
X6177110Y-11498484D01*
X6177110Y-11498484D02*
X6158062Y-11527055D01*
X6158062Y-11527055D02*
X6139015Y-11546103D01*
X6139015Y-11546103D02*
X6119967Y-11555627D01*
X6358062Y-11498484D02*
X6377110Y-11498484D01*
X6377110Y-11498484D02*
X6396158Y-11508008D01*
X6396158Y-11508008D02*
X6405682Y-11517531D01*
X6405682Y-11517531D02*
X6415205Y-11536579D01*
X6415205Y-11536579D02*
X6424729Y-11574674D01*
X6424729Y-11574674D02*
X6424729Y-11622293D01*
X6424729Y-11622293D02*
X6415205Y-11660388D01*
X6415205Y-11660388D02*
X6405682Y-11679436D01*
X6405682Y-11679436D02*
X6396158Y-11688960D01*
X6396158Y-11688960D02*
X6377110Y-11698484D01*
X6377110Y-11698484D02*
X6358062Y-11698484D01*
X6358062Y-11698484D02*
X6339015Y-11688960D01*
X6339015Y-11688960D02*
X6329491Y-11679436D01*
X6329491Y-11679436D02*
X6319967Y-11660388D01*
X6319967Y-11660388D02*
X6310443Y-11622293D01*
X6310443Y-11622293D02*
X6310443Y-11574674D01*
X6310443Y-11574674D02*
X6319967Y-11536579D01*
X6319967Y-11536579D02*
X6329491Y-11517531D01*
X6329491Y-11517531D02*
X6339015Y-11508008D01*
X6339015Y-11508008D02*
X6358062Y-11498484D01*
X6548539Y-11498484D02*
X6567586Y-11498484D01*
X6567586Y-11498484D02*
X6586634Y-11508008D01*
X6586634Y-11508008D02*
X6596158Y-11517531D01*
X6596158Y-11517531D02*
X6605682Y-11536579D01*
X6605682Y-11536579D02*
X6615205Y-11574674D01*
X6615205Y-11574674D02*
X6615205Y-11622293D01*
X6615205Y-11622293D02*
X6605682Y-11660388D01*
X6605682Y-11660388D02*
X6596158Y-11679436D01*
X6596158Y-11679436D02*
X6586634Y-11688960D01*
X6586634Y-11688960D02*
X6567586Y-11698484D01*
X6567586Y-11698484D02*
X6548539Y-11698484D01*
X6548539Y-11698484D02*
X6529491Y-11688960D01*
X6529491Y-11688960D02*
X6519967Y-11679436D01*
X6519967Y-11679436D02*
X6510443Y-11660388D01*
X6510443Y-11660388D02*
X6500920Y-11622293D01*
X6500920Y-11622293D02*
X6500920Y-11574674D01*
X6500920Y-11574674D02*
X6510443Y-11536579D01*
X6510443Y-11536579D02*
X6519967Y-11517531D01*
X6519967Y-11517531D02*
X6529491Y-11508008D01*
X6529491Y-11508008D02*
X6548539Y-11498484D01*
X6700920Y-11698484D02*
X6700920Y-11565150D01*
X6700920Y-11584198D02*
X6710443Y-11574674D01*
X6710443Y-11574674D02*
X6729491Y-11565150D01*
X6729491Y-11565150D02*
X6758063Y-11565150D01*
X6758063Y-11565150D02*
X6777110Y-11574674D01*
X6777110Y-11574674D02*
X6786634Y-11593722D01*
X6786634Y-11593722D02*
X6786634Y-11698484D01*
X6786634Y-11593722D02*
X6796158Y-11574674D01*
X6796158Y-11574674D02*
X6815205Y-11565150D01*
X6815205Y-11565150D02*
X6843777Y-11565150D01*
X6843777Y-11565150D02*
X6862824Y-11574674D01*
X6862824Y-11574674D02*
X6872348Y-11593722D01*
X6872348Y-11593722D02*
X6872348Y-11698484D01*
X6967586Y-11698484D02*
X6967586Y-11565150D01*
X6967586Y-11584198D02*
X6977110Y-11574674D01*
X6977110Y-11574674D02*
X6996158Y-11565150D01*
X6996158Y-11565150D02*
X7024729Y-11565150D01*
X7024729Y-11565150D02*
X7043777Y-11574674D01*
X7043777Y-11574674D02*
X7053301Y-11593722D01*
X7053301Y-11593722D02*
X7053301Y-11698484D01*
X7053301Y-11593722D02*
X7062824Y-11574674D01*
X7062824Y-11574674D02*
X7081872Y-11565150D01*
X7081872Y-11565150D02*
X7110443Y-11565150D01*
X7110443Y-11565150D02*
X7129491Y-11574674D01*
X7129491Y-11574674D02*
X7139015Y-11593722D01*
X7139015Y-11593722D02*
X7139015Y-11698484D01*
X7529491Y-11488960D02*
X7358063Y-11746103D01*
X7786634Y-11498484D02*
X7805682Y-11498484D01*
X7805682Y-11498484D02*
X7824729Y-11508008D01*
X7824729Y-11508008D02*
X7834253Y-11517531D01*
X7834253Y-11517531D02*
X7843777Y-11536579D01*
X7843777Y-11536579D02*
X7853301Y-11574674D01*
X7853301Y-11574674D02*
X7853301Y-11622293D01*
X7853301Y-11622293D02*
X7843777Y-11660388D01*
X7843777Y-11660388D02*
X7834253Y-11679436D01*
X7834253Y-11679436D02*
X7824729Y-11688960D01*
X7824729Y-11688960D02*
X7805682Y-11698484D01*
X7805682Y-11698484D02*
X7786634Y-11698484D01*
X7786634Y-11698484D02*
X7767586Y-11688960D01*
X7767586Y-11688960D02*
X7758063Y-11679436D01*
X7758063Y-11679436D02*
X7748539Y-11660388D01*
X7748539Y-11660388D02*
X7739015Y-11622293D01*
X7739015Y-11622293D02*
X7739015Y-11574674D01*
X7739015Y-11574674D02*
X7748539Y-11536579D01*
X7748539Y-11536579D02*
X7758063Y-11517531D01*
X7758063Y-11517531D02*
X7767586Y-11508008D01*
X7767586Y-11508008D02*
X7786634Y-11498484D01*
X7939015Y-11679436D02*
X7948539Y-11688960D01*
X7948539Y-11688960D02*
X7939015Y-11698484D01*
X7939015Y-11698484D02*
X7929491Y-11688960D01*
X7929491Y-11688960D02*
X7939015Y-11679436D01*
X7939015Y-11679436D02*
X7939015Y-11698484D01*
X8072348Y-11498484D02*
X8091396Y-11498484D01*
X8091396Y-11498484D02*
X8110444Y-11508008D01*
X8110444Y-11508008D02*
X8119967Y-11517531D01*
X8119967Y-11517531D02*
X8129491Y-11536579D01*
X8129491Y-11536579D02*
X8139015Y-11574674D01*
X8139015Y-11574674D02*
X8139015Y-11622293D01*
X8139015Y-11622293D02*
X8129491Y-11660388D01*
X8129491Y-11660388D02*
X8119967Y-11679436D01*
X8119967Y-11679436D02*
X8110444Y-11688960D01*
X8110444Y-11688960D02*
X8091396Y-11698484D01*
X8091396Y-11698484D02*
X8072348Y-11698484D01*
X8072348Y-11698484D02*
X8053301Y-11688960D01*
X8053301Y-11688960D02*
X8043777Y-11679436D01*
X8043777Y-11679436D02*
X8034253Y-11660388D01*
X8034253Y-11660388D02*
X8024729Y-11622293D01*
X8024729Y-11622293D02*
X8024729Y-11574674D01*
X8024729Y-11574674D02*
X8034253Y-11536579D01*
X8034253Y-11536579D02*
X8043777Y-11517531D01*
X8043777Y-11517531D02*
X8053301Y-11508008D01*
X8053301Y-11508008D02*
X8072348Y-11498484D01*
X8310444Y-11565150D02*
X8310444Y-11698484D01*
X8262825Y-11488960D02*
X8215206Y-11631817D01*
X8215206Y-11631817D02*
X8339015Y-11631817D01*
X8396158Y-11498484D02*
X8519968Y-11498484D01*
X8519968Y-11498484D02*
X8453301Y-11574674D01*
X8453301Y-11574674D02*
X8481872Y-11574674D01*
X8481872Y-11574674D02*
X8500920Y-11584198D01*
X8500920Y-11584198D02*
X8510444Y-11593722D01*
X8510444Y-11593722D02*
X8519968Y-11612769D01*
X8519968Y-11612769D02*
X8519968Y-11660388D01*
X8519968Y-11660388D02*
X8510444Y-11679436D01*
X8510444Y-11679436D02*
X8500920Y-11688960D01*
X8500920Y-11688960D02*
X8481872Y-11698484D01*
X8481872Y-11698484D02*
X8424729Y-11698484D01*
X8424729Y-11698484D02*
X8405682Y-11688960D01*
X8405682Y-11688960D02*
X8396158Y-11679436D01*
X8586634Y-11498484D02*
X8710444Y-11498484D01*
X8710444Y-11498484D02*
X8643777Y-11574674D01*
X8643777Y-11574674D02*
X8672349Y-11574674D01*
X8672349Y-11574674D02*
X8691396Y-11584198D01*
X8691396Y-11584198D02*
X8700920Y-11593722D01*
X8700920Y-11593722D02*
X8710444Y-11612769D01*
X8710444Y-11612769D02*
X8710444Y-11660388D01*
X8710444Y-11660388D02*
X8700920Y-11679436D01*
X8700920Y-11679436D02*
X8691396Y-11688960D01*
X8691396Y-11688960D02*
X8672349Y-11698484D01*
X8672349Y-11698484D02*
X8615206Y-11698484D01*
X8615206Y-11698484D02*
X8596158Y-11688960D01*
X8596158Y-11688960D02*
X8586634Y-11679436D01*
X8786634Y-11498484D02*
X8786634Y-11536579D01*
X8862825Y-11498484D02*
X8862825Y-11536579D01*
X9158063Y-11774674D02*
X9148539Y-11765150D01*
X9148539Y-11765150D02*
X9129491Y-11736579D01*
X9129491Y-11736579D02*
X9119968Y-11717531D01*
X9119968Y-11717531D02*
X9110444Y-11688960D01*
X9110444Y-11688960D02*
X9100920Y-11641341D01*
X9100920Y-11641341D02*
X9100920Y-11603246D01*
X9100920Y-11603246D02*
X9110444Y-11555627D01*
X9110444Y-11555627D02*
X9119968Y-11527055D01*
X9119968Y-11527055D02*
X9129491Y-11508008D01*
X9129491Y-11508008D02*
X9148539Y-11479436D01*
X9148539Y-11479436D02*
X9158063Y-11469912D01*
X9224730Y-11517531D02*
X9234253Y-11508008D01*
X9234253Y-11508008D02*
X9253301Y-11498484D01*
X9253301Y-11498484D02*
X9300920Y-11498484D01*
X9300920Y-11498484D02*
X9319968Y-11508008D01*
X9319968Y-11508008D02*
X9329491Y-11517531D01*
X9329491Y-11517531D02*
X9339015Y-11536579D01*
X9339015Y-11536579D02*
X9339015Y-11555627D01*
X9339015Y-11555627D02*
X9329491Y-11584198D01*
X9329491Y-11584198D02*
X9215206Y-11698484D01*
X9215206Y-11698484D02*
X9339015Y-11698484D01*
X9462825Y-11498484D02*
X9481872Y-11498484D01*
X9481872Y-11498484D02*
X9500920Y-11508008D01*
X9500920Y-11508008D02*
X9510444Y-11517531D01*
X9510444Y-11517531D02*
X9519968Y-11536579D01*
X9519968Y-11536579D02*
X9529491Y-11574674D01*
X9529491Y-11574674D02*
X9529491Y-11622293D01*
X9529491Y-11622293D02*
X9519968Y-11660388D01*
X9519968Y-11660388D02*
X9510444Y-11679436D01*
X9510444Y-11679436D02*
X9500920Y-11688960D01*
X9500920Y-11688960D02*
X9481872Y-11698484D01*
X9481872Y-11698484D02*
X9462825Y-11698484D01*
X9462825Y-11698484D02*
X9443777Y-11688960D01*
X9443777Y-11688960D02*
X9434253Y-11679436D01*
X9434253Y-11679436D02*
X9424730Y-11660388D01*
X9424730Y-11660388D02*
X9415206Y-11622293D01*
X9415206Y-11622293D02*
X9415206Y-11574674D01*
X9415206Y-11574674D02*
X9424730Y-11536579D01*
X9424730Y-11536579D02*
X9434253Y-11517531D01*
X9434253Y-11517531D02*
X9443777Y-11508008D01*
X9443777Y-11508008D02*
X9462825Y-11498484D01*
X9767587Y-11698484D02*
X9767587Y-11498484D01*
X9853301Y-11698484D02*
X9853301Y-11593722D01*
X9853301Y-11593722D02*
X9843777Y-11574674D01*
X9843777Y-11574674D02*
X9824730Y-11565150D01*
X9824730Y-11565150D02*
X9796158Y-11565150D01*
X9796158Y-11565150D02*
X9777111Y-11574674D01*
X9777111Y-11574674D02*
X9767587Y-11584198D01*
X9977111Y-11698484D02*
X9958063Y-11688960D01*
X9958063Y-11688960D02*
X9948539Y-11679436D01*
X9948539Y-11679436D02*
X9939015Y-11660388D01*
X9939015Y-11660388D02*
X9939015Y-11603246D01*
X9939015Y-11603246D02*
X9948539Y-11584198D01*
X9948539Y-11584198D02*
X9958063Y-11574674D01*
X9958063Y-11574674D02*
X9977111Y-11565150D01*
X9977111Y-11565150D02*
X10005682Y-11565150D01*
X10005682Y-11565150D02*
X10024730Y-11574674D01*
X10024730Y-11574674D02*
X10034253Y-11584198D01*
X10034253Y-11584198D02*
X10043777Y-11603246D01*
X10043777Y-11603246D02*
X10043777Y-11660388D01*
X10043777Y-11660388D02*
X10034253Y-11679436D01*
X10034253Y-11679436D02*
X10024730Y-11688960D01*
X10024730Y-11688960D02*
X10005682Y-11698484D01*
X10005682Y-11698484D02*
X9977111Y-11698484D01*
X10158063Y-11698484D02*
X10139015Y-11688960D01*
X10139015Y-11688960D02*
X10129492Y-11669912D01*
X10129492Y-11669912D02*
X10129492Y-11498484D01*
X10310444Y-11688960D02*
X10291396Y-11698484D01*
X10291396Y-11698484D02*
X10253301Y-11698484D01*
X10253301Y-11698484D02*
X10234253Y-11688960D01*
X10234253Y-11688960D02*
X10224730Y-11669912D01*
X10224730Y-11669912D02*
X10224730Y-11593722D01*
X10224730Y-11593722D02*
X10234253Y-11574674D01*
X10234253Y-11574674D02*
X10253301Y-11565150D01*
X10253301Y-11565150D02*
X10291396Y-11565150D01*
X10291396Y-11565150D02*
X10310444Y-11574674D01*
X10310444Y-11574674D02*
X10319968Y-11593722D01*
X10319968Y-11593722D02*
X10319968Y-11612769D01*
X10319968Y-11612769D02*
X10224730Y-11631817D01*
X10396158Y-11688960D02*
X10415206Y-11698484D01*
X10415206Y-11698484D02*
X10453301Y-11698484D01*
X10453301Y-11698484D02*
X10472349Y-11688960D01*
X10472349Y-11688960D02*
X10481873Y-11669912D01*
X10481873Y-11669912D02*
X10481873Y-11660388D01*
X10481873Y-11660388D02*
X10472349Y-11641341D01*
X10472349Y-11641341D02*
X10453301Y-11631817D01*
X10453301Y-11631817D02*
X10424730Y-11631817D01*
X10424730Y-11631817D02*
X10405682Y-11622293D01*
X10405682Y-11622293D02*
X10396158Y-11603246D01*
X10396158Y-11603246D02*
X10396158Y-11593722D01*
X10396158Y-11593722D02*
X10405682Y-11574674D01*
X10405682Y-11574674D02*
X10424730Y-11565150D01*
X10424730Y-11565150D02*
X10453301Y-11565150D01*
X10453301Y-11565150D02*
X10472349Y-11574674D01*
X10548539Y-11774674D02*
X10558063Y-11765150D01*
X10558063Y-11765150D02*
X10577111Y-11736579D01*
X10577111Y-11736579D02*
X10586634Y-11717531D01*
X10586634Y-11717531D02*
X10596158Y-11688960D01*
X10596158Y-11688960D02*
X10605682Y-11641341D01*
X10605682Y-11641341D02*
X10605682Y-11603246D01*
X10605682Y-11603246D02*
X10596158Y-11555627D01*
X10596158Y-11555627D02*
X10586634Y-11527055D01*
X10586634Y-11527055D02*
X10577111Y-11508008D01*
X10577111Y-11508008D02*
X10558063Y-11479436D01*
X10558063Y-11479436D02*
X10548539Y-11469912D01*
D13*
X5431000Y-11795000D02*
X5583000Y-11947000D01*
X5583000Y-11795000D02*
X5431000Y-11947000D01*
X5583000Y-11871000D02*
G75*
G02*
X5431000Y-11871000I-76000J0D01*
G01*
X5431000Y-11871000D02*
G75*
G02*
X5583000Y-11871000I76000J0D01*
G01*
D11*
X5948539Y-11962484D02*
X5834253Y-11962484D01*
X5891396Y-11962484D02*
X5891396Y-11762484D01*
X5891396Y-11762484D02*
X5872348Y-11791055D01*
X5872348Y-11791055D02*
X5853301Y-11810103D01*
X5853301Y-11810103D02*
X5834253Y-11819627D01*
X6034253Y-11943436D02*
X6043777Y-11952960D01*
X6043777Y-11952960D02*
X6034253Y-11962484D01*
X6034253Y-11962484D02*
X6024729Y-11952960D01*
X6024729Y-11952960D02*
X6034253Y-11943436D01*
X6034253Y-11943436D02*
X6034253Y-11962484D01*
X6224729Y-11762484D02*
X6129491Y-11762484D01*
X6129491Y-11762484D02*
X6119967Y-11857722D01*
X6119967Y-11857722D02*
X6129491Y-11848198D01*
X6129491Y-11848198D02*
X6148539Y-11838674D01*
X6148539Y-11838674D02*
X6196158Y-11838674D01*
X6196158Y-11838674D02*
X6215205Y-11848198D01*
X6215205Y-11848198D02*
X6224729Y-11857722D01*
X6224729Y-11857722D02*
X6234253Y-11876769D01*
X6234253Y-11876769D02*
X6234253Y-11924388D01*
X6234253Y-11924388D02*
X6224729Y-11943436D01*
X6224729Y-11943436D02*
X6215205Y-11952960D01*
X6215205Y-11952960D02*
X6196158Y-11962484D01*
X6196158Y-11962484D02*
X6148539Y-11962484D01*
X6148539Y-11962484D02*
X6129491Y-11952960D01*
X6129491Y-11952960D02*
X6119967Y-11943436D01*
X6310443Y-11781531D02*
X6319967Y-11772008D01*
X6319967Y-11772008D02*
X6339015Y-11762484D01*
X6339015Y-11762484D02*
X6386634Y-11762484D01*
X6386634Y-11762484D02*
X6405682Y-11772008D01*
X6405682Y-11772008D02*
X6415205Y-11781531D01*
X6415205Y-11781531D02*
X6424729Y-11800579D01*
X6424729Y-11800579D02*
X6424729Y-11819627D01*
X6424729Y-11819627D02*
X6415205Y-11848198D01*
X6415205Y-11848198D02*
X6300920Y-11962484D01*
X6300920Y-11962484D02*
X6424729Y-11962484D01*
X6548539Y-11762484D02*
X6567586Y-11762484D01*
X6567586Y-11762484D02*
X6586634Y-11772008D01*
X6586634Y-11772008D02*
X6596158Y-11781531D01*
X6596158Y-11781531D02*
X6605682Y-11800579D01*
X6605682Y-11800579D02*
X6615205Y-11838674D01*
X6615205Y-11838674D02*
X6615205Y-11886293D01*
X6615205Y-11886293D02*
X6605682Y-11924388D01*
X6605682Y-11924388D02*
X6596158Y-11943436D01*
X6596158Y-11943436D02*
X6586634Y-11952960D01*
X6586634Y-11952960D02*
X6567586Y-11962484D01*
X6567586Y-11962484D02*
X6548539Y-11962484D01*
X6548539Y-11962484D02*
X6529491Y-11952960D01*
X6529491Y-11952960D02*
X6519967Y-11943436D01*
X6519967Y-11943436D02*
X6510443Y-11924388D01*
X6510443Y-11924388D02*
X6500920Y-11886293D01*
X6500920Y-11886293D02*
X6500920Y-11838674D01*
X6500920Y-11838674D02*
X6510443Y-11800579D01*
X6510443Y-11800579D02*
X6519967Y-11781531D01*
X6519967Y-11781531D02*
X6529491Y-11772008D01*
X6529491Y-11772008D02*
X6548539Y-11762484D01*
X6700920Y-11962484D02*
X6700920Y-11829150D01*
X6700920Y-11848198D02*
X6710443Y-11838674D01*
X6710443Y-11838674D02*
X6729491Y-11829150D01*
X6729491Y-11829150D02*
X6758063Y-11829150D01*
X6758063Y-11829150D02*
X6777110Y-11838674D01*
X6777110Y-11838674D02*
X6786634Y-11857722D01*
X6786634Y-11857722D02*
X6786634Y-11962484D01*
X6786634Y-11857722D02*
X6796158Y-11838674D01*
X6796158Y-11838674D02*
X6815205Y-11829150D01*
X6815205Y-11829150D02*
X6843777Y-11829150D01*
X6843777Y-11829150D02*
X6862824Y-11838674D01*
X6862824Y-11838674D02*
X6872348Y-11857722D01*
X6872348Y-11857722D02*
X6872348Y-11962484D01*
X6967586Y-11962484D02*
X6967586Y-11829150D01*
X6967586Y-11848198D02*
X6977110Y-11838674D01*
X6977110Y-11838674D02*
X6996158Y-11829150D01*
X6996158Y-11829150D02*
X7024729Y-11829150D01*
X7024729Y-11829150D02*
X7043777Y-11838674D01*
X7043777Y-11838674D02*
X7053301Y-11857722D01*
X7053301Y-11857722D02*
X7053301Y-11962484D01*
X7053301Y-11857722D02*
X7062824Y-11838674D01*
X7062824Y-11838674D02*
X7081872Y-11829150D01*
X7081872Y-11829150D02*
X7110443Y-11829150D01*
X7110443Y-11829150D02*
X7129491Y-11838674D01*
X7129491Y-11838674D02*
X7139015Y-11857722D01*
X7139015Y-11857722D02*
X7139015Y-11962484D01*
X7529491Y-11752960D02*
X7358063Y-12010103D01*
X7786634Y-11762484D02*
X7805682Y-11762484D01*
X7805682Y-11762484D02*
X7824729Y-11772008D01*
X7824729Y-11772008D02*
X7834253Y-11781531D01*
X7834253Y-11781531D02*
X7843777Y-11800579D01*
X7843777Y-11800579D02*
X7853301Y-11838674D01*
X7853301Y-11838674D02*
X7853301Y-11886293D01*
X7853301Y-11886293D02*
X7843777Y-11924388D01*
X7843777Y-11924388D02*
X7834253Y-11943436D01*
X7834253Y-11943436D02*
X7824729Y-11952960D01*
X7824729Y-11952960D02*
X7805682Y-11962484D01*
X7805682Y-11962484D02*
X7786634Y-11962484D01*
X7786634Y-11962484D02*
X7767586Y-11952960D01*
X7767586Y-11952960D02*
X7758063Y-11943436D01*
X7758063Y-11943436D02*
X7748539Y-11924388D01*
X7748539Y-11924388D02*
X7739015Y-11886293D01*
X7739015Y-11886293D02*
X7739015Y-11838674D01*
X7739015Y-11838674D02*
X7748539Y-11800579D01*
X7748539Y-11800579D02*
X7758063Y-11781531D01*
X7758063Y-11781531D02*
X7767586Y-11772008D01*
X7767586Y-11772008D02*
X7786634Y-11762484D01*
X7939015Y-11943436D02*
X7948539Y-11952960D01*
X7948539Y-11952960D02*
X7939015Y-11962484D01*
X7939015Y-11962484D02*
X7929491Y-11952960D01*
X7929491Y-11952960D02*
X7939015Y-11943436D01*
X7939015Y-11943436D02*
X7939015Y-11962484D01*
X8072348Y-11762484D02*
X8091396Y-11762484D01*
X8091396Y-11762484D02*
X8110444Y-11772008D01*
X8110444Y-11772008D02*
X8119967Y-11781531D01*
X8119967Y-11781531D02*
X8129491Y-11800579D01*
X8129491Y-11800579D02*
X8139015Y-11838674D01*
X8139015Y-11838674D02*
X8139015Y-11886293D01*
X8139015Y-11886293D02*
X8129491Y-11924388D01*
X8129491Y-11924388D02*
X8119967Y-11943436D01*
X8119967Y-11943436D02*
X8110444Y-11952960D01*
X8110444Y-11952960D02*
X8091396Y-11962484D01*
X8091396Y-11962484D02*
X8072348Y-11962484D01*
X8072348Y-11962484D02*
X8053301Y-11952960D01*
X8053301Y-11952960D02*
X8043777Y-11943436D01*
X8043777Y-11943436D02*
X8034253Y-11924388D01*
X8034253Y-11924388D02*
X8024729Y-11886293D01*
X8024729Y-11886293D02*
X8024729Y-11838674D01*
X8024729Y-11838674D02*
X8034253Y-11800579D01*
X8034253Y-11800579D02*
X8043777Y-11781531D01*
X8043777Y-11781531D02*
X8053301Y-11772008D01*
X8053301Y-11772008D02*
X8072348Y-11762484D01*
X8319967Y-11762484D02*
X8224729Y-11762484D01*
X8224729Y-11762484D02*
X8215206Y-11857722D01*
X8215206Y-11857722D02*
X8224729Y-11848198D01*
X8224729Y-11848198D02*
X8243777Y-11838674D01*
X8243777Y-11838674D02*
X8291396Y-11838674D01*
X8291396Y-11838674D02*
X8310444Y-11848198D01*
X8310444Y-11848198D02*
X8319967Y-11857722D01*
X8319967Y-11857722D02*
X8329491Y-11876769D01*
X8329491Y-11876769D02*
X8329491Y-11924388D01*
X8329491Y-11924388D02*
X8319967Y-11943436D01*
X8319967Y-11943436D02*
X8310444Y-11952960D01*
X8310444Y-11952960D02*
X8291396Y-11962484D01*
X8291396Y-11962484D02*
X8243777Y-11962484D01*
X8243777Y-11962484D02*
X8224729Y-11952960D01*
X8224729Y-11952960D02*
X8215206Y-11943436D01*
X8424729Y-11962484D02*
X8462825Y-11962484D01*
X8462825Y-11962484D02*
X8481872Y-11952960D01*
X8481872Y-11952960D02*
X8491396Y-11943436D01*
X8491396Y-11943436D02*
X8510444Y-11914865D01*
X8510444Y-11914865D02*
X8519968Y-11876769D01*
X8519968Y-11876769D02*
X8519968Y-11800579D01*
X8519968Y-11800579D02*
X8510444Y-11781531D01*
X8510444Y-11781531D02*
X8500920Y-11772008D01*
X8500920Y-11772008D02*
X8481872Y-11762484D01*
X8481872Y-11762484D02*
X8443777Y-11762484D01*
X8443777Y-11762484D02*
X8424729Y-11772008D01*
X8424729Y-11772008D02*
X8415206Y-11781531D01*
X8415206Y-11781531D02*
X8405682Y-11800579D01*
X8405682Y-11800579D02*
X8405682Y-11848198D01*
X8405682Y-11848198D02*
X8415206Y-11867246D01*
X8415206Y-11867246D02*
X8424729Y-11876769D01*
X8424729Y-11876769D02*
X8443777Y-11886293D01*
X8443777Y-11886293D02*
X8481872Y-11886293D01*
X8481872Y-11886293D02*
X8500920Y-11876769D01*
X8500920Y-11876769D02*
X8510444Y-11867246D01*
X8510444Y-11867246D02*
X8519968Y-11848198D01*
X8634253Y-11848198D02*
X8615206Y-11838674D01*
X8615206Y-11838674D02*
X8605682Y-11829150D01*
X8605682Y-11829150D02*
X8596158Y-11810103D01*
X8596158Y-11810103D02*
X8596158Y-11800579D01*
X8596158Y-11800579D02*
X8605682Y-11781531D01*
X8605682Y-11781531D02*
X8615206Y-11772008D01*
X8615206Y-11772008D02*
X8634253Y-11762484D01*
X8634253Y-11762484D02*
X8672349Y-11762484D01*
X8672349Y-11762484D02*
X8691396Y-11772008D01*
X8691396Y-11772008D02*
X8700920Y-11781531D01*
X8700920Y-11781531D02*
X8710444Y-11800579D01*
X8710444Y-11800579D02*
X8710444Y-11810103D01*
X8710444Y-11810103D02*
X8700920Y-11829150D01*
X8700920Y-11829150D02*
X8691396Y-11838674D01*
X8691396Y-11838674D02*
X8672349Y-11848198D01*
X8672349Y-11848198D02*
X8634253Y-11848198D01*
X8634253Y-11848198D02*
X8615206Y-11857722D01*
X8615206Y-11857722D02*
X8605682Y-11867246D01*
X8605682Y-11867246D02*
X8596158Y-11886293D01*
X8596158Y-11886293D02*
X8596158Y-11924388D01*
X8596158Y-11924388D02*
X8605682Y-11943436D01*
X8605682Y-11943436D02*
X8615206Y-11952960D01*
X8615206Y-11952960D02*
X8634253Y-11962484D01*
X8634253Y-11962484D02*
X8672349Y-11962484D01*
X8672349Y-11962484D02*
X8691396Y-11952960D01*
X8691396Y-11952960D02*
X8700920Y-11943436D01*
X8700920Y-11943436D02*
X8710444Y-11924388D01*
X8710444Y-11924388D02*
X8710444Y-11886293D01*
X8710444Y-11886293D02*
X8700920Y-11867246D01*
X8700920Y-11867246D02*
X8691396Y-11857722D01*
X8691396Y-11857722D02*
X8672349Y-11848198D01*
X8786634Y-11762484D02*
X8786634Y-11800579D01*
X8862825Y-11762484D02*
X8862825Y-11800579D01*
X9158063Y-12038674D02*
X9148539Y-12029150D01*
X9148539Y-12029150D02*
X9129491Y-12000579D01*
X9129491Y-12000579D02*
X9119968Y-11981531D01*
X9119968Y-11981531D02*
X9110444Y-11952960D01*
X9110444Y-11952960D02*
X9100920Y-11905341D01*
X9100920Y-11905341D02*
X9100920Y-11867246D01*
X9100920Y-11867246D02*
X9110444Y-11819627D01*
X9110444Y-11819627D02*
X9119968Y-11791055D01*
X9119968Y-11791055D02*
X9129491Y-11772008D01*
X9129491Y-11772008D02*
X9148539Y-11743436D01*
X9148539Y-11743436D02*
X9158063Y-11733912D01*
X9224730Y-11781531D02*
X9234253Y-11772008D01*
X9234253Y-11772008D02*
X9253301Y-11762484D01*
X9253301Y-11762484D02*
X9300920Y-11762484D01*
X9300920Y-11762484D02*
X9319968Y-11772008D01*
X9319968Y-11772008D02*
X9329491Y-11781531D01*
X9329491Y-11781531D02*
X9339015Y-11800579D01*
X9339015Y-11800579D02*
X9339015Y-11819627D01*
X9339015Y-11819627D02*
X9329491Y-11848198D01*
X9329491Y-11848198D02*
X9215206Y-11962484D01*
X9215206Y-11962484D02*
X9339015Y-11962484D01*
X9577111Y-11962484D02*
X9577111Y-11762484D01*
X9662825Y-11962484D02*
X9662825Y-11857722D01*
X9662825Y-11857722D02*
X9653301Y-11838674D01*
X9653301Y-11838674D02*
X9634253Y-11829150D01*
X9634253Y-11829150D02*
X9605682Y-11829150D01*
X9605682Y-11829150D02*
X9586634Y-11838674D01*
X9586634Y-11838674D02*
X9577111Y-11848198D01*
X9786634Y-11962484D02*
X9767587Y-11952960D01*
X9767587Y-11952960D02*
X9758063Y-11943436D01*
X9758063Y-11943436D02*
X9748539Y-11924388D01*
X9748539Y-11924388D02*
X9748539Y-11867246D01*
X9748539Y-11867246D02*
X9758063Y-11848198D01*
X9758063Y-11848198D02*
X9767587Y-11838674D01*
X9767587Y-11838674D02*
X9786634Y-11829150D01*
X9786634Y-11829150D02*
X9815206Y-11829150D01*
X9815206Y-11829150D02*
X9834253Y-11838674D01*
X9834253Y-11838674D02*
X9843777Y-11848198D01*
X9843777Y-11848198D02*
X9853301Y-11867246D01*
X9853301Y-11867246D02*
X9853301Y-11924388D01*
X9853301Y-11924388D02*
X9843777Y-11943436D01*
X9843777Y-11943436D02*
X9834253Y-11952960D01*
X9834253Y-11952960D02*
X9815206Y-11962484D01*
X9815206Y-11962484D02*
X9786634Y-11962484D01*
X9967587Y-11962484D02*
X9948539Y-11952960D01*
X9948539Y-11952960D02*
X9939015Y-11933912D01*
X9939015Y-11933912D02*
X9939015Y-11762484D01*
X10119968Y-11952960D02*
X10100920Y-11962484D01*
X10100920Y-11962484D02*
X10062825Y-11962484D01*
X10062825Y-11962484D02*
X10043777Y-11952960D01*
X10043777Y-11952960D02*
X10034253Y-11933912D01*
X10034253Y-11933912D02*
X10034253Y-11857722D01*
X10034253Y-11857722D02*
X10043777Y-11838674D01*
X10043777Y-11838674D02*
X10062825Y-11829150D01*
X10062825Y-11829150D02*
X10100920Y-11829150D01*
X10100920Y-11829150D02*
X10119968Y-11838674D01*
X10119968Y-11838674D02*
X10129492Y-11857722D01*
X10129492Y-11857722D02*
X10129492Y-11876769D01*
X10129492Y-11876769D02*
X10034253Y-11895817D01*
X10205682Y-11952960D02*
X10224730Y-11962484D01*
X10224730Y-11962484D02*
X10262825Y-11962484D01*
X10262825Y-11962484D02*
X10281873Y-11952960D01*
X10281873Y-11952960D02*
X10291396Y-11933912D01*
X10291396Y-11933912D02*
X10291396Y-11924388D01*
X10291396Y-11924388D02*
X10281873Y-11905341D01*
X10281873Y-11905341D02*
X10262825Y-11895817D01*
X10262825Y-11895817D02*
X10234253Y-11895817D01*
X10234253Y-11895817D02*
X10215206Y-11886293D01*
X10215206Y-11886293D02*
X10205682Y-11867246D01*
X10205682Y-11867246D02*
X10205682Y-11857722D01*
X10205682Y-11857722D02*
X10215206Y-11838674D01*
X10215206Y-11838674D02*
X10234253Y-11829150D01*
X10234253Y-11829150D02*
X10262825Y-11829150D01*
X10262825Y-11829150D02*
X10281873Y-11838674D01*
X10358063Y-12038674D02*
X10367587Y-12029150D01*
X10367587Y-12029150D02*
X10386634Y-12000579D01*
X10386634Y-12000579D02*
X10396158Y-11981531D01*
X10396158Y-11981531D02*
X10405682Y-11952960D01*
X10405682Y-11952960D02*
X10415206Y-11905341D01*
X10415206Y-11905341D02*
X10415206Y-11867246D01*
X10415206Y-11867246D02*
X10405682Y-11819627D01*
X10405682Y-11819627D02*
X10396158Y-11791055D01*
X10396158Y-11791055D02*
X10386634Y-11772008D01*
X10386634Y-11772008D02*
X10367587Y-11743436D01*
X10367587Y-11743436D02*
X10358063Y-11733912D01*
M02*
