G04 #@! TF.GenerationSoftware,KiCad,Pcbnew,8.0.4*
G04 #@! TF.CreationDate,2024-08-20T20:08:57+02:00*
G04 #@! TF.ProjectId,rgb_controller,7267625f-636f-46e7-9472-6f6c6c65722e,rev?*
G04 #@! TF.SameCoordinates,Original*
G04 #@! TF.FileFunction,Soldermask,Bot*
G04 #@! TF.FilePolarity,Negative*
%FSLAX46Y46*%
G04 Gerber Fmt 4.6, Leading zero omitted, Abs format (unit mm)*
G04 Created by KiCad (PCBNEW 8.0.4) date 2024-08-20 20:08:57*
%MOMM*%
%LPD*%
G01*
G04 APERTURE LIST*
G04 Aperture macros list*
%AMRoundRect*
0 Rectangle with rounded corners*
0 $1 Rounding radius*
0 $2 $3 $4 $5 $6 $7 $8 $9 X,Y pos of 4 corners*
0 Add a 4 corners polygon primitive as box body*
4,1,4,$2,$3,$4,$5,$6,$7,$8,$9,$2,$3,0*
0 Add four circle primitives for the rounded corners*
1,1,$1+$1,$2,$3*
1,1,$1+$1,$4,$5*
1,1,$1+$1,$6,$7*
1,1,$1+$1,$8,$9*
0 Add four rect primitives between the rounded corners*
20,1,$1+$1,$2,$3,$4,$5,0*
20,1,$1+$1,$4,$5,$6,$7,0*
20,1,$1+$1,$6,$7,$8,$9,0*
20,1,$1+$1,$8,$9,$2,$3,0*%
G04 Aperture macros list end*
%ADD10RoundRect,0.250000X0.725000X-0.600000X0.725000X0.600000X-0.725000X0.600000X-0.725000X-0.600000X0*%
%ADD11O,1.950000X1.700000*%
%ADD12R,2.000000X1.905000*%
%ADD13O,2.000000X1.905000*%
%ADD14C,1.400000*%
%ADD15O,1.400000X1.400000*%
%ADD16C,1.600000*%
%ADD17O,1.600000X1.600000*%
%ADD18R,2.000000X2.000000*%
%ADD19O,2.000000X1.600000*%
%ADD20R,3.000000X3.000000*%
%ADD21C,3.000000*%
%ADD22RoundRect,0.200000X0.900000X-0.900000X0.900000X0.900000X-0.900000X0.900000X-0.900000X-0.900000X0*%
%ADD23R,1.700000X1.700000*%
%ADD24O,1.700000X1.700000*%
G04 APERTURE END LIST*
D10*
X83820000Y-93900000D03*
D11*
X83820000Y-91400000D03*
X83820000Y-88900000D03*
D12*
X93980000Y-68580000D03*
D13*
X93980000Y-66040000D03*
X93980000Y-63500000D03*
D10*
X83820000Y-81200000D03*
D11*
X83820000Y-78700000D03*
X83820000Y-76200000D03*
X83820000Y-73700000D03*
X83820000Y-71200000D03*
D14*
X99060000Y-68580000D03*
D15*
X99060000Y-71120000D03*
D12*
X93980000Y-55880000D03*
D13*
X93980000Y-53340000D03*
X93980000Y-50800000D03*
D14*
X99060000Y-55880000D03*
D15*
X99060000Y-58420000D03*
D16*
X113030000Y-73660000D03*
D17*
X120650000Y-73660000D03*
D18*
X127000000Y-88900000D03*
D19*
X127000000Y-86360000D03*
X127000000Y-83820000D03*
X127000000Y-81280000D03*
X127000000Y-78740000D03*
X127000000Y-76200000D03*
X127000000Y-73660000D03*
X127000000Y-71120000D03*
X104140000Y-71120000D03*
X104140000Y-73660000D03*
X104140000Y-76200000D03*
X104140000Y-78740000D03*
X104140000Y-81280000D03*
X104140000Y-83820000D03*
X104140000Y-86360000D03*
X104140000Y-88900000D03*
D14*
X99060000Y-93980000D03*
D15*
X99060000Y-96520000D03*
D14*
X99060000Y-81280000D03*
D15*
X99060000Y-83820000D03*
D20*
X119380000Y-38100000D03*
D21*
X114300000Y-38100000D03*
D12*
X93980000Y-93980000D03*
D13*
X93980000Y-91440000D03*
X93980000Y-88900000D03*
D22*
X121940000Y-43540000D03*
X124140000Y-43540000D03*
X109740000Y-43540000D03*
X111940000Y-43540000D03*
X121940000Y-63340000D03*
X124140000Y-63340000D03*
X109740000Y-63340000D03*
X111940000Y-63340000D03*
D23*
X106680000Y-50800000D03*
D24*
X106680000Y-53340000D03*
X106680000Y-55880000D03*
D16*
X120650000Y-83820000D03*
D17*
X113030000Y-83820000D03*
D16*
X120650000Y-78740000D03*
D17*
X113030000Y-78740000D03*
D12*
X93980000Y-81280000D03*
D13*
X93980000Y-78740000D03*
X93980000Y-76200000D03*
D16*
X113030000Y-68607215D03*
D17*
X120650000Y-68607215D03*
M02*
