G04 #@! TF.GenerationSoftware,KiCad,Pcbnew,8.0.4*
G04 #@! TF.CreationDate,2024-08-20T20:08:57+02:00*
G04 #@! TF.ProjectId,rgb_controller,7267625f-636f-46e7-9472-6f6c6c65722e,rev?*
G04 #@! TF.SameCoordinates,Original*
G04 #@! TF.FileFunction,Legend,Top*
G04 #@! TF.FilePolarity,Positive*
%FSLAX46Y46*%
G04 Gerber Fmt 4.6, Leading zero omitted, Abs format (unit mm)*
G04 Created by KiCad (PCBNEW 8.0.4) date 2024-08-20 20:08:57*
%MOMM*%
%LPD*%
G01*
G04 APERTURE LIST*
G04 Aperture macros list*
%AMRoundRect*
0 Rectangle with rounded corners*
0 $1 Rounding radius*
0 $2 $3 $4 $5 $6 $7 $8 $9 X,Y pos of 4 corners*
0 Add a 4 corners polygon primitive as box body*
4,1,4,$2,$3,$4,$5,$6,$7,$8,$9,$2,$3,0*
0 Add four circle primitives for the rounded corners*
1,1,$1+$1,$2,$3*
1,1,$1+$1,$4,$5*
1,1,$1+$1,$6,$7*
1,1,$1+$1,$8,$9*
0 Add four rect primitives between the rounded corners*
20,1,$1+$1,$2,$3,$4,$5,0*
20,1,$1+$1,$4,$5,$6,$7,0*
20,1,$1+$1,$6,$7,$8,$9,0*
20,1,$1+$1,$8,$9,$2,$3,0*%
G04 Aperture macros list end*
%ADD10C,0.150000*%
%ADD11C,0.300000*%
%ADD12C,0.200000*%
%ADD13C,0.100000*%
%ADD14C,0.120000*%
%ADD15RoundRect,0.250000X0.725000X-0.600000X0.725000X0.600000X-0.725000X0.600000X-0.725000X-0.600000X0*%
%ADD16O,1.950000X1.700000*%
%ADD17R,2.000000X1.905000*%
%ADD18O,2.000000X1.905000*%
%ADD19C,1.400000*%
%ADD20O,1.400000X1.400000*%
%ADD21C,1.600000*%
%ADD22O,1.600000X1.600000*%
%ADD23R,2.000000X2.000000*%
%ADD24O,2.000000X1.600000*%
%ADD25R,3.000000X3.000000*%
%ADD26C,3.000000*%
%ADD27RoundRect,0.200000X0.900000X-0.900000X0.900000X0.900000X-0.900000X0.900000X-0.900000X-0.900000X0*%
%ADD28R,1.700000X1.700000*%
%ADD29O,1.700000X1.700000*%
G04 APERTURE END LIST*
D10*
X60960000Y-27940000D02*
X91440000Y-27940000D01*
X91440000Y-40640000D01*
X60960000Y-40640000D01*
X60960000Y-27940000D01*
X64360588Y-30577662D02*
X64265350Y-30530043D01*
X64265350Y-30530043D02*
X64122493Y-30530043D01*
X64122493Y-30530043D02*
X63979636Y-30577662D01*
X63979636Y-30577662D02*
X63884398Y-30672900D01*
X63884398Y-30672900D02*
X63836779Y-30768138D01*
X63836779Y-30768138D02*
X63789160Y-30958614D01*
X63789160Y-30958614D02*
X63789160Y-31101471D01*
X63789160Y-31101471D02*
X63836779Y-31291947D01*
X63836779Y-31291947D02*
X63884398Y-31387185D01*
X63884398Y-31387185D02*
X63979636Y-31482424D01*
X63979636Y-31482424D02*
X64122493Y-31530043D01*
X64122493Y-31530043D02*
X64217731Y-31530043D01*
X64217731Y-31530043D02*
X64360588Y-31482424D01*
X64360588Y-31482424D02*
X64408207Y-31434804D01*
X64408207Y-31434804D02*
X64408207Y-31101471D01*
X64408207Y-31101471D02*
X64217731Y-31101471D01*
X64836779Y-31530043D02*
X64836779Y-30530043D01*
X64836779Y-30530043D02*
X65217731Y-30530043D01*
X65217731Y-30530043D02*
X65312969Y-30577662D01*
X65312969Y-30577662D02*
X65360588Y-30625281D01*
X65360588Y-30625281D02*
X65408207Y-30720519D01*
X65408207Y-30720519D02*
X65408207Y-30863376D01*
X65408207Y-30863376D02*
X65360588Y-30958614D01*
X65360588Y-30958614D02*
X65312969Y-31006233D01*
X65312969Y-31006233D02*
X65217731Y-31053852D01*
X65217731Y-31053852D02*
X64836779Y-31053852D01*
X65836779Y-31530043D02*
X65836779Y-30530043D01*
X66503445Y-30530043D02*
X66693921Y-30530043D01*
X66693921Y-30530043D02*
X66789159Y-30577662D01*
X66789159Y-30577662D02*
X66884397Y-30672900D01*
X66884397Y-30672900D02*
X66932016Y-30863376D01*
X66932016Y-30863376D02*
X66932016Y-31196709D01*
X66932016Y-31196709D02*
X66884397Y-31387185D01*
X66884397Y-31387185D02*
X66789159Y-31482424D01*
X66789159Y-31482424D02*
X66693921Y-31530043D01*
X66693921Y-31530043D02*
X66503445Y-31530043D01*
X66503445Y-31530043D02*
X66408207Y-31482424D01*
X66408207Y-31482424D02*
X66312969Y-31387185D01*
X66312969Y-31387185D02*
X66265350Y-31196709D01*
X66265350Y-31196709D02*
X66265350Y-30863376D01*
X66265350Y-30863376D02*
X66312969Y-30672900D01*
X66312969Y-30672900D02*
X66408207Y-30577662D01*
X66408207Y-30577662D02*
X66503445Y-30530043D01*
X68551064Y-30863376D02*
X68551064Y-31530043D01*
X68312969Y-30482424D02*
X68074874Y-31196709D01*
X68074874Y-31196709D02*
X68693921Y-31196709D01*
X70598684Y-31149090D02*
X71360589Y-31149090D01*
X73122493Y-30577662D02*
X73027255Y-30530043D01*
X73027255Y-30530043D02*
X72884398Y-30530043D01*
X72884398Y-30530043D02*
X72741541Y-30577662D01*
X72741541Y-30577662D02*
X72646303Y-30672900D01*
X72646303Y-30672900D02*
X72598684Y-30768138D01*
X72598684Y-30768138D02*
X72551065Y-30958614D01*
X72551065Y-30958614D02*
X72551065Y-31101471D01*
X72551065Y-31101471D02*
X72598684Y-31291947D01*
X72598684Y-31291947D02*
X72646303Y-31387185D01*
X72646303Y-31387185D02*
X72741541Y-31482424D01*
X72741541Y-31482424D02*
X72884398Y-31530043D01*
X72884398Y-31530043D02*
X72979636Y-31530043D01*
X72979636Y-31530043D02*
X73122493Y-31482424D01*
X73122493Y-31482424D02*
X73170112Y-31434804D01*
X73170112Y-31434804D02*
X73170112Y-31101471D01*
X73170112Y-31101471D02*
X72979636Y-31101471D01*
X73598684Y-31530043D02*
X73598684Y-30863376D01*
X73598684Y-31053852D02*
X73646303Y-30958614D01*
X73646303Y-30958614D02*
X73693922Y-30910995D01*
X73693922Y-30910995D02*
X73789160Y-30863376D01*
X73789160Y-30863376D02*
X73884398Y-30863376D01*
X74598684Y-31482424D02*
X74503446Y-31530043D01*
X74503446Y-31530043D02*
X74312970Y-31530043D01*
X74312970Y-31530043D02*
X74217732Y-31482424D01*
X74217732Y-31482424D02*
X74170113Y-31387185D01*
X74170113Y-31387185D02*
X74170113Y-31006233D01*
X74170113Y-31006233D02*
X74217732Y-30910995D01*
X74217732Y-30910995D02*
X74312970Y-30863376D01*
X74312970Y-30863376D02*
X74503446Y-30863376D01*
X74503446Y-30863376D02*
X74598684Y-30910995D01*
X74598684Y-30910995D02*
X74646303Y-31006233D01*
X74646303Y-31006233D02*
X74646303Y-31101471D01*
X74646303Y-31101471D02*
X74170113Y-31196709D01*
X75455827Y-31482424D02*
X75360589Y-31530043D01*
X75360589Y-31530043D02*
X75170113Y-31530043D01*
X75170113Y-31530043D02*
X75074875Y-31482424D01*
X75074875Y-31482424D02*
X75027256Y-31387185D01*
X75027256Y-31387185D02*
X75027256Y-31006233D01*
X75027256Y-31006233D02*
X75074875Y-30910995D01*
X75074875Y-30910995D02*
X75170113Y-30863376D01*
X75170113Y-30863376D02*
X75360589Y-30863376D01*
X75360589Y-30863376D02*
X75455827Y-30910995D01*
X75455827Y-30910995D02*
X75503446Y-31006233D01*
X75503446Y-31006233D02*
X75503446Y-31101471D01*
X75503446Y-31101471D02*
X75027256Y-31196709D01*
X75932018Y-30863376D02*
X75932018Y-31530043D01*
X75932018Y-30958614D02*
X75979637Y-30910995D01*
X75979637Y-30910995D02*
X76074875Y-30863376D01*
X76074875Y-30863376D02*
X76217732Y-30863376D01*
X76217732Y-30863376D02*
X76312970Y-30910995D01*
X76312970Y-30910995D02*
X76360589Y-31006233D01*
X76360589Y-31006233D02*
X76360589Y-31530043D01*
X64360588Y-32187606D02*
X64265350Y-32139987D01*
X64265350Y-32139987D02*
X64122493Y-32139987D01*
X64122493Y-32139987D02*
X63979636Y-32187606D01*
X63979636Y-32187606D02*
X63884398Y-32282844D01*
X63884398Y-32282844D02*
X63836779Y-32378082D01*
X63836779Y-32378082D02*
X63789160Y-32568558D01*
X63789160Y-32568558D02*
X63789160Y-32711415D01*
X63789160Y-32711415D02*
X63836779Y-32901891D01*
X63836779Y-32901891D02*
X63884398Y-32997129D01*
X63884398Y-32997129D02*
X63979636Y-33092368D01*
X63979636Y-33092368D02*
X64122493Y-33139987D01*
X64122493Y-33139987D02*
X64217731Y-33139987D01*
X64217731Y-33139987D02*
X64360588Y-33092368D01*
X64360588Y-33092368D02*
X64408207Y-33044748D01*
X64408207Y-33044748D02*
X64408207Y-32711415D01*
X64408207Y-32711415D02*
X64217731Y-32711415D01*
X64836779Y-33139987D02*
X64836779Y-32139987D01*
X64836779Y-32139987D02*
X65217731Y-32139987D01*
X65217731Y-32139987D02*
X65312969Y-32187606D01*
X65312969Y-32187606D02*
X65360588Y-32235225D01*
X65360588Y-32235225D02*
X65408207Y-32330463D01*
X65408207Y-32330463D02*
X65408207Y-32473320D01*
X65408207Y-32473320D02*
X65360588Y-32568558D01*
X65360588Y-32568558D02*
X65312969Y-32616177D01*
X65312969Y-32616177D02*
X65217731Y-32663796D01*
X65217731Y-32663796D02*
X64836779Y-32663796D01*
X65836779Y-33139987D02*
X65836779Y-32139987D01*
X66503445Y-32139987D02*
X66693921Y-32139987D01*
X66693921Y-32139987D02*
X66789159Y-32187606D01*
X66789159Y-32187606D02*
X66884397Y-32282844D01*
X66884397Y-32282844D02*
X66932016Y-32473320D01*
X66932016Y-32473320D02*
X66932016Y-32806653D01*
X66932016Y-32806653D02*
X66884397Y-32997129D01*
X66884397Y-32997129D02*
X66789159Y-33092368D01*
X66789159Y-33092368D02*
X66693921Y-33139987D01*
X66693921Y-33139987D02*
X66503445Y-33139987D01*
X66503445Y-33139987D02*
X66408207Y-33092368D01*
X66408207Y-33092368D02*
X66312969Y-32997129D01*
X66312969Y-32997129D02*
X66265350Y-32806653D01*
X66265350Y-32806653D02*
X66265350Y-32473320D01*
X66265350Y-32473320D02*
X66312969Y-32282844D01*
X66312969Y-32282844D02*
X66408207Y-32187606D01*
X66408207Y-32187606D02*
X66503445Y-32139987D01*
X68598683Y-32139987D02*
X68122493Y-32139987D01*
X68122493Y-32139987D02*
X68074874Y-32616177D01*
X68074874Y-32616177D02*
X68122493Y-32568558D01*
X68122493Y-32568558D02*
X68217731Y-32520939D01*
X68217731Y-32520939D02*
X68455826Y-32520939D01*
X68455826Y-32520939D02*
X68551064Y-32568558D01*
X68551064Y-32568558D02*
X68598683Y-32616177D01*
X68598683Y-32616177D02*
X68646302Y-32711415D01*
X68646302Y-32711415D02*
X68646302Y-32949510D01*
X68646302Y-32949510D02*
X68598683Y-33044748D01*
X68598683Y-33044748D02*
X68551064Y-33092368D01*
X68551064Y-33092368D02*
X68455826Y-33139987D01*
X68455826Y-33139987D02*
X68217731Y-33139987D01*
X68217731Y-33139987D02*
X68122493Y-33092368D01*
X68122493Y-33092368D02*
X68074874Y-33044748D01*
X70598684Y-32759034D02*
X71360589Y-32759034D01*
X73170112Y-33139987D02*
X72836779Y-32663796D01*
X72598684Y-33139987D02*
X72598684Y-32139987D01*
X72598684Y-32139987D02*
X72979636Y-32139987D01*
X72979636Y-32139987D02*
X73074874Y-32187606D01*
X73074874Y-32187606D02*
X73122493Y-32235225D01*
X73122493Y-32235225D02*
X73170112Y-32330463D01*
X73170112Y-32330463D02*
X73170112Y-32473320D01*
X73170112Y-32473320D02*
X73122493Y-32568558D01*
X73122493Y-32568558D02*
X73074874Y-32616177D01*
X73074874Y-32616177D02*
X72979636Y-32663796D01*
X72979636Y-32663796D02*
X72598684Y-32663796D01*
X73979636Y-33092368D02*
X73884398Y-33139987D01*
X73884398Y-33139987D02*
X73693922Y-33139987D01*
X73693922Y-33139987D02*
X73598684Y-33092368D01*
X73598684Y-33092368D02*
X73551065Y-32997129D01*
X73551065Y-32997129D02*
X73551065Y-32616177D01*
X73551065Y-32616177D02*
X73598684Y-32520939D01*
X73598684Y-32520939D02*
X73693922Y-32473320D01*
X73693922Y-32473320D02*
X73884398Y-32473320D01*
X73884398Y-32473320D02*
X73979636Y-32520939D01*
X73979636Y-32520939D02*
X74027255Y-32616177D01*
X74027255Y-32616177D02*
X74027255Y-32711415D01*
X74027255Y-32711415D02*
X73551065Y-32806653D01*
X74884398Y-33139987D02*
X74884398Y-32139987D01*
X74884398Y-33092368D02*
X74789160Y-33139987D01*
X74789160Y-33139987D02*
X74598684Y-33139987D01*
X74598684Y-33139987D02*
X74503446Y-33092368D01*
X74503446Y-33092368D02*
X74455827Y-33044748D01*
X74455827Y-33044748D02*
X74408208Y-32949510D01*
X74408208Y-32949510D02*
X74408208Y-32663796D01*
X74408208Y-32663796D02*
X74455827Y-32568558D01*
X74455827Y-32568558D02*
X74503446Y-32520939D01*
X74503446Y-32520939D02*
X74598684Y-32473320D01*
X74598684Y-32473320D02*
X74789160Y-32473320D01*
X74789160Y-32473320D02*
X74884398Y-32520939D01*
X64360588Y-33797550D02*
X64265350Y-33749931D01*
X64265350Y-33749931D02*
X64122493Y-33749931D01*
X64122493Y-33749931D02*
X63979636Y-33797550D01*
X63979636Y-33797550D02*
X63884398Y-33892788D01*
X63884398Y-33892788D02*
X63836779Y-33988026D01*
X63836779Y-33988026D02*
X63789160Y-34178502D01*
X63789160Y-34178502D02*
X63789160Y-34321359D01*
X63789160Y-34321359D02*
X63836779Y-34511835D01*
X63836779Y-34511835D02*
X63884398Y-34607073D01*
X63884398Y-34607073D02*
X63979636Y-34702312D01*
X63979636Y-34702312D02*
X64122493Y-34749931D01*
X64122493Y-34749931D02*
X64217731Y-34749931D01*
X64217731Y-34749931D02*
X64360588Y-34702312D01*
X64360588Y-34702312D02*
X64408207Y-34654692D01*
X64408207Y-34654692D02*
X64408207Y-34321359D01*
X64408207Y-34321359D02*
X64217731Y-34321359D01*
X64836779Y-34749931D02*
X64836779Y-33749931D01*
X64836779Y-33749931D02*
X65217731Y-33749931D01*
X65217731Y-33749931D02*
X65312969Y-33797550D01*
X65312969Y-33797550D02*
X65360588Y-33845169D01*
X65360588Y-33845169D02*
X65408207Y-33940407D01*
X65408207Y-33940407D02*
X65408207Y-34083264D01*
X65408207Y-34083264D02*
X65360588Y-34178502D01*
X65360588Y-34178502D02*
X65312969Y-34226121D01*
X65312969Y-34226121D02*
X65217731Y-34273740D01*
X65217731Y-34273740D02*
X64836779Y-34273740D01*
X65836779Y-34749931D02*
X65836779Y-33749931D01*
X66503445Y-33749931D02*
X66693921Y-33749931D01*
X66693921Y-33749931D02*
X66789159Y-33797550D01*
X66789159Y-33797550D02*
X66884397Y-33892788D01*
X66884397Y-33892788D02*
X66932016Y-34083264D01*
X66932016Y-34083264D02*
X66932016Y-34416597D01*
X66932016Y-34416597D02*
X66884397Y-34607073D01*
X66884397Y-34607073D02*
X66789159Y-34702312D01*
X66789159Y-34702312D02*
X66693921Y-34749931D01*
X66693921Y-34749931D02*
X66503445Y-34749931D01*
X66503445Y-34749931D02*
X66408207Y-34702312D01*
X66408207Y-34702312D02*
X66312969Y-34607073D01*
X66312969Y-34607073D02*
X66265350Y-34416597D01*
X66265350Y-34416597D02*
X66265350Y-34083264D01*
X66265350Y-34083264D02*
X66312969Y-33892788D01*
X66312969Y-33892788D02*
X66408207Y-33797550D01*
X66408207Y-33797550D02*
X66503445Y-33749931D01*
X68646302Y-34749931D02*
X68074874Y-34749931D01*
X68360588Y-34749931D02*
X68360588Y-33749931D01*
X68360588Y-33749931D02*
X68265350Y-33892788D01*
X68265350Y-33892788D02*
X68170112Y-33988026D01*
X68170112Y-33988026D02*
X68074874Y-34035645D01*
X69027255Y-33845169D02*
X69074874Y-33797550D01*
X69074874Y-33797550D02*
X69170112Y-33749931D01*
X69170112Y-33749931D02*
X69408207Y-33749931D01*
X69408207Y-33749931D02*
X69503445Y-33797550D01*
X69503445Y-33797550D02*
X69551064Y-33845169D01*
X69551064Y-33845169D02*
X69598683Y-33940407D01*
X69598683Y-33940407D02*
X69598683Y-34035645D01*
X69598683Y-34035645D02*
X69551064Y-34178502D01*
X69551064Y-34178502D02*
X68979636Y-34749931D01*
X68979636Y-34749931D02*
X69598683Y-34749931D01*
X70789160Y-34368978D02*
X71551065Y-34368978D01*
X73122493Y-34226121D02*
X73265350Y-34273740D01*
X73265350Y-34273740D02*
X73312969Y-34321359D01*
X73312969Y-34321359D02*
X73360588Y-34416597D01*
X73360588Y-34416597D02*
X73360588Y-34559454D01*
X73360588Y-34559454D02*
X73312969Y-34654692D01*
X73312969Y-34654692D02*
X73265350Y-34702312D01*
X73265350Y-34702312D02*
X73170112Y-34749931D01*
X73170112Y-34749931D02*
X72789160Y-34749931D01*
X72789160Y-34749931D02*
X72789160Y-33749931D01*
X72789160Y-33749931D02*
X73122493Y-33749931D01*
X73122493Y-33749931D02*
X73217731Y-33797550D01*
X73217731Y-33797550D02*
X73265350Y-33845169D01*
X73265350Y-33845169D02*
X73312969Y-33940407D01*
X73312969Y-33940407D02*
X73312969Y-34035645D01*
X73312969Y-34035645D02*
X73265350Y-34130883D01*
X73265350Y-34130883D02*
X73217731Y-34178502D01*
X73217731Y-34178502D02*
X73122493Y-34226121D01*
X73122493Y-34226121D02*
X72789160Y-34226121D01*
X73932017Y-34749931D02*
X73836779Y-34702312D01*
X73836779Y-34702312D02*
X73789160Y-34607073D01*
X73789160Y-34607073D02*
X73789160Y-33749931D01*
X74741541Y-34083264D02*
X74741541Y-34749931D01*
X74312970Y-34083264D02*
X74312970Y-34607073D01*
X74312970Y-34607073D02*
X74360589Y-34702312D01*
X74360589Y-34702312D02*
X74455827Y-34749931D01*
X74455827Y-34749931D02*
X74598684Y-34749931D01*
X74598684Y-34749931D02*
X74693922Y-34702312D01*
X74693922Y-34702312D02*
X74741541Y-34654692D01*
X75598684Y-34702312D02*
X75503446Y-34749931D01*
X75503446Y-34749931D02*
X75312970Y-34749931D01*
X75312970Y-34749931D02*
X75217732Y-34702312D01*
X75217732Y-34702312D02*
X75170113Y-34607073D01*
X75170113Y-34607073D02*
X75170113Y-34226121D01*
X75170113Y-34226121D02*
X75217732Y-34130883D01*
X75217732Y-34130883D02*
X75312970Y-34083264D01*
X75312970Y-34083264D02*
X75503446Y-34083264D01*
X75503446Y-34083264D02*
X75598684Y-34130883D01*
X75598684Y-34130883D02*
X75646303Y-34226121D01*
X75646303Y-34226121D02*
X75646303Y-34321359D01*
X75646303Y-34321359D02*
X75170113Y-34416597D01*
X64360588Y-35407494D02*
X64265350Y-35359875D01*
X64265350Y-35359875D02*
X64122493Y-35359875D01*
X64122493Y-35359875D02*
X63979636Y-35407494D01*
X63979636Y-35407494D02*
X63884398Y-35502732D01*
X63884398Y-35502732D02*
X63836779Y-35597970D01*
X63836779Y-35597970D02*
X63789160Y-35788446D01*
X63789160Y-35788446D02*
X63789160Y-35931303D01*
X63789160Y-35931303D02*
X63836779Y-36121779D01*
X63836779Y-36121779D02*
X63884398Y-36217017D01*
X63884398Y-36217017D02*
X63979636Y-36312256D01*
X63979636Y-36312256D02*
X64122493Y-36359875D01*
X64122493Y-36359875D02*
X64217731Y-36359875D01*
X64217731Y-36359875D02*
X64360588Y-36312256D01*
X64360588Y-36312256D02*
X64408207Y-36264636D01*
X64408207Y-36264636D02*
X64408207Y-35931303D01*
X64408207Y-35931303D02*
X64217731Y-35931303D01*
X64836779Y-36359875D02*
X64836779Y-35359875D01*
X64836779Y-35359875D02*
X65217731Y-35359875D01*
X65217731Y-35359875D02*
X65312969Y-35407494D01*
X65312969Y-35407494D02*
X65360588Y-35455113D01*
X65360588Y-35455113D02*
X65408207Y-35550351D01*
X65408207Y-35550351D02*
X65408207Y-35693208D01*
X65408207Y-35693208D02*
X65360588Y-35788446D01*
X65360588Y-35788446D02*
X65312969Y-35836065D01*
X65312969Y-35836065D02*
X65217731Y-35883684D01*
X65217731Y-35883684D02*
X64836779Y-35883684D01*
X65836779Y-36359875D02*
X65836779Y-35359875D01*
X66503445Y-35359875D02*
X66693921Y-35359875D01*
X66693921Y-35359875D02*
X66789159Y-35407494D01*
X66789159Y-35407494D02*
X66884397Y-35502732D01*
X66884397Y-35502732D02*
X66932016Y-35693208D01*
X66932016Y-35693208D02*
X66932016Y-36026541D01*
X66932016Y-36026541D02*
X66884397Y-36217017D01*
X66884397Y-36217017D02*
X66789159Y-36312256D01*
X66789159Y-36312256D02*
X66693921Y-36359875D01*
X66693921Y-36359875D02*
X66503445Y-36359875D01*
X66503445Y-36359875D02*
X66408207Y-36312256D01*
X66408207Y-36312256D02*
X66312969Y-36217017D01*
X66312969Y-36217017D02*
X66265350Y-36026541D01*
X66265350Y-36026541D02*
X66265350Y-35693208D01*
X66265350Y-35693208D02*
X66312969Y-35502732D01*
X66312969Y-35502732D02*
X66408207Y-35407494D01*
X66408207Y-35407494D02*
X66503445Y-35359875D01*
X68646302Y-36359875D02*
X68074874Y-36359875D01*
X68360588Y-36359875D02*
X68360588Y-35359875D01*
X68360588Y-35359875D02*
X68265350Y-35502732D01*
X68265350Y-35502732D02*
X68170112Y-35597970D01*
X68170112Y-35597970D02*
X68074874Y-35645589D01*
X68979636Y-35359875D02*
X69598683Y-35359875D01*
X69598683Y-35359875D02*
X69265350Y-35740827D01*
X69265350Y-35740827D02*
X69408207Y-35740827D01*
X69408207Y-35740827D02*
X69503445Y-35788446D01*
X69503445Y-35788446D02*
X69551064Y-35836065D01*
X69551064Y-35836065D02*
X69598683Y-35931303D01*
X69598683Y-35931303D02*
X69598683Y-36169398D01*
X69598683Y-36169398D02*
X69551064Y-36264636D01*
X69551064Y-36264636D02*
X69503445Y-36312256D01*
X69503445Y-36312256D02*
X69408207Y-36359875D01*
X69408207Y-36359875D02*
X69122493Y-36359875D01*
X69122493Y-36359875D02*
X69027255Y-36312256D01*
X69027255Y-36312256D02*
X68979636Y-36264636D01*
X70789160Y-35978922D02*
X71551065Y-35978922D01*
X72693922Y-35359875D02*
X72932017Y-36359875D01*
X72932017Y-36359875D02*
X73122493Y-35645589D01*
X73122493Y-35645589D02*
X73312969Y-36359875D01*
X73312969Y-36359875D02*
X73551065Y-35359875D01*
X73932017Y-36359875D02*
X73932017Y-35359875D01*
X74360588Y-36359875D02*
X74360588Y-35836065D01*
X74360588Y-35836065D02*
X74312969Y-35740827D01*
X74312969Y-35740827D02*
X74217731Y-35693208D01*
X74217731Y-35693208D02*
X74074874Y-35693208D01*
X74074874Y-35693208D02*
X73979636Y-35740827D01*
X73979636Y-35740827D02*
X73932017Y-35788446D01*
X74836779Y-36359875D02*
X74836779Y-35693208D01*
X74836779Y-35359875D02*
X74789160Y-35407494D01*
X74789160Y-35407494D02*
X74836779Y-35455113D01*
X74836779Y-35455113D02*
X74884398Y-35407494D01*
X74884398Y-35407494D02*
X74836779Y-35359875D01*
X74836779Y-35359875D02*
X74836779Y-35455113D01*
X75170112Y-35693208D02*
X75551064Y-35693208D01*
X75312969Y-35359875D02*
X75312969Y-36217017D01*
X75312969Y-36217017D02*
X75360588Y-36312256D01*
X75360588Y-36312256D02*
X75455826Y-36359875D01*
X75455826Y-36359875D02*
X75551064Y-36359875D01*
X76265350Y-36312256D02*
X76170112Y-36359875D01*
X76170112Y-36359875D02*
X75979636Y-36359875D01*
X75979636Y-36359875D02*
X75884398Y-36312256D01*
X75884398Y-36312256D02*
X75836779Y-36217017D01*
X75836779Y-36217017D02*
X75836779Y-35836065D01*
X75836779Y-35836065D02*
X75884398Y-35740827D01*
X75884398Y-35740827D02*
X75979636Y-35693208D01*
X75979636Y-35693208D02*
X76170112Y-35693208D01*
X76170112Y-35693208D02*
X76265350Y-35740827D01*
X76265350Y-35740827D02*
X76312969Y-35836065D01*
X76312969Y-35836065D02*
X76312969Y-35931303D01*
X76312969Y-35931303D02*
X75836779Y-36026541D01*
X64360588Y-37017438D02*
X64265350Y-36969819D01*
X64265350Y-36969819D02*
X64122493Y-36969819D01*
X64122493Y-36969819D02*
X63979636Y-37017438D01*
X63979636Y-37017438D02*
X63884398Y-37112676D01*
X63884398Y-37112676D02*
X63836779Y-37207914D01*
X63836779Y-37207914D02*
X63789160Y-37398390D01*
X63789160Y-37398390D02*
X63789160Y-37541247D01*
X63789160Y-37541247D02*
X63836779Y-37731723D01*
X63836779Y-37731723D02*
X63884398Y-37826961D01*
X63884398Y-37826961D02*
X63979636Y-37922200D01*
X63979636Y-37922200D02*
X64122493Y-37969819D01*
X64122493Y-37969819D02*
X64217731Y-37969819D01*
X64217731Y-37969819D02*
X64360588Y-37922200D01*
X64360588Y-37922200D02*
X64408207Y-37874580D01*
X64408207Y-37874580D02*
X64408207Y-37541247D01*
X64408207Y-37541247D02*
X64217731Y-37541247D01*
X64836779Y-37969819D02*
X64836779Y-36969819D01*
X64836779Y-36969819D02*
X65217731Y-36969819D01*
X65217731Y-36969819D02*
X65312969Y-37017438D01*
X65312969Y-37017438D02*
X65360588Y-37065057D01*
X65360588Y-37065057D02*
X65408207Y-37160295D01*
X65408207Y-37160295D02*
X65408207Y-37303152D01*
X65408207Y-37303152D02*
X65360588Y-37398390D01*
X65360588Y-37398390D02*
X65312969Y-37446009D01*
X65312969Y-37446009D02*
X65217731Y-37493628D01*
X65217731Y-37493628D02*
X64836779Y-37493628D01*
X65836779Y-37969819D02*
X65836779Y-36969819D01*
X66503445Y-36969819D02*
X66693921Y-36969819D01*
X66693921Y-36969819D02*
X66789159Y-37017438D01*
X66789159Y-37017438D02*
X66884397Y-37112676D01*
X66884397Y-37112676D02*
X66932016Y-37303152D01*
X66932016Y-37303152D02*
X66932016Y-37636485D01*
X66932016Y-37636485D02*
X66884397Y-37826961D01*
X66884397Y-37826961D02*
X66789159Y-37922200D01*
X66789159Y-37922200D02*
X66693921Y-37969819D01*
X66693921Y-37969819D02*
X66503445Y-37969819D01*
X66503445Y-37969819D02*
X66408207Y-37922200D01*
X66408207Y-37922200D02*
X66312969Y-37826961D01*
X66312969Y-37826961D02*
X66265350Y-37636485D01*
X66265350Y-37636485D02*
X66265350Y-37303152D01*
X66265350Y-37303152D02*
X66312969Y-37112676D01*
X66312969Y-37112676D02*
X66408207Y-37017438D01*
X66408207Y-37017438D02*
X66503445Y-36969819D01*
X68646302Y-37969819D02*
X68074874Y-37969819D01*
X68360588Y-37969819D02*
X68360588Y-36969819D01*
X68360588Y-36969819D02*
X68265350Y-37112676D01*
X68265350Y-37112676D02*
X68170112Y-37207914D01*
X68170112Y-37207914D02*
X68074874Y-37255533D01*
X69503445Y-37303152D02*
X69503445Y-37969819D01*
X69265350Y-36922200D02*
X69027255Y-37636485D01*
X69027255Y-37636485D02*
X69646302Y-37636485D01*
X70789160Y-37588866D02*
X71551065Y-37588866D01*
X72741541Y-37922200D02*
X72884398Y-37969819D01*
X72884398Y-37969819D02*
X73122493Y-37969819D01*
X73122493Y-37969819D02*
X73217731Y-37922200D01*
X73217731Y-37922200D02*
X73265350Y-37874580D01*
X73265350Y-37874580D02*
X73312969Y-37779342D01*
X73312969Y-37779342D02*
X73312969Y-37684104D01*
X73312969Y-37684104D02*
X73265350Y-37588866D01*
X73265350Y-37588866D02*
X73217731Y-37541247D01*
X73217731Y-37541247D02*
X73122493Y-37493628D01*
X73122493Y-37493628D02*
X72932017Y-37446009D01*
X72932017Y-37446009D02*
X72836779Y-37398390D01*
X72836779Y-37398390D02*
X72789160Y-37350771D01*
X72789160Y-37350771D02*
X72741541Y-37255533D01*
X72741541Y-37255533D02*
X72741541Y-37160295D01*
X72741541Y-37160295D02*
X72789160Y-37065057D01*
X72789160Y-37065057D02*
X72836779Y-37017438D01*
X72836779Y-37017438D02*
X72932017Y-36969819D01*
X72932017Y-36969819D02*
X73170112Y-36969819D01*
X73170112Y-36969819D02*
X73312969Y-37017438D01*
X74122493Y-37922200D02*
X74027255Y-37969819D01*
X74027255Y-37969819D02*
X73836779Y-37969819D01*
X73836779Y-37969819D02*
X73741541Y-37922200D01*
X73741541Y-37922200D02*
X73693922Y-37826961D01*
X73693922Y-37826961D02*
X73693922Y-37446009D01*
X73693922Y-37446009D02*
X73741541Y-37350771D01*
X73741541Y-37350771D02*
X73836779Y-37303152D01*
X73836779Y-37303152D02*
X74027255Y-37303152D01*
X74027255Y-37303152D02*
X74122493Y-37350771D01*
X74122493Y-37350771D02*
X74170112Y-37446009D01*
X74170112Y-37446009D02*
X74170112Y-37541247D01*
X74170112Y-37541247D02*
X73693922Y-37636485D01*
X74598684Y-37303152D02*
X74598684Y-37969819D01*
X74598684Y-37398390D02*
X74646303Y-37350771D01*
X74646303Y-37350771D02*
X74741541Y-37303152D01*
X74741541Y-37303152D02*
X74884398Y-37303152D01*
X74884398Y-37303152D02*
X74979636Y-37350771D01*
X74979636Y-37350771D02*
X75027255Y-37446009D01*
X75027255Y-37446009D02*
X75027255Y-37969819D01*
X75455827Y-37922200D02*
X75551065Y-37969819D01*
X75551065Y-37969819D02*
X75741541Y-37969819D01*
X75741541Y-37969819D02*
X75836779Y-37922200D01*
X75836779Y-37922200D02*
X75884398Y-37826961D01*
X75884398Y-37826961D02*
X75884398Y-37779342D01*
X75884398Y-37779342D02*
X75836779Y-37684104D01*
X75836779Y-37684104D02*
X75741541Y-37636485D01*
X75741541Y-37636485D02*
X75598684Y-37636485D01*
X75598684Y-37636485D02*
X75503446Y-37588866D01*
X75503446Y-37588866D02*
X75455827Y-37493628D01*
X75455827Y-37493628D02*
X75455827Y-37446009D01*
X75455827Y-37446009D02*
X75503446Y-37350771D01*
X75503446Y-37350771D02*
X75598684Y-37303152D01*
X75598684Y-37303152D02*
X75741541Y-37303152D01*
X75741541Y-37303152D02*
X75836779Y-37350771D01*
X76455827Y-37969819D02*
X76360589Y-37922200D01*
X76360589Y-37922200D02*
X76312970Y-37874580D01*
X76312970Y-37874580D02*
X76265351Y-37779342D01*
X76265351Y-37779342D02*
X76265351Y-37493628D01*
X76265351Y-37493628D02*
X76312970Y-37398390D01*
X76312970Y-37398390D02*
X76360589Y-37350771D01*
X76360589Y-37350771D02*
X76455827Y-37303152D01*
X76455827Y-37303152D02*
X76598684Y-37303152D01*
X76598684Y-37303152D02*
X76693922Y-37350771D01*
X76693922Y-37350771D02*
X76741541Y-37398390D01*
X76741541Y-37398390D02*
X76789160Y-37493628D01*
X76789160Y-37493628D02*
X76789160Y-37779342D01*
X76789160Y-37779342D02*
X76741541Y-37874580D01*
X76741541Y-37874580D02*
X76693922Y-37922200D01*
X76693922Y-37922200D02*
X76598684Y-37969819D01*
X76598684Y-37969819D02*
X76455827Y-37969819D01*
X77217732Y-37969819D02*
X77217732Y-37303152D01*
X77217732Y-37493628D02*
X77265351Y-37398390D01*
X77265351Y-37398390D02*
X77312970Y-37350771D01*
X77312970Y-37350771D02*
X77408208Y-37303152D01*
X77408208Y-37303152D02*
X77503446Y-37303152D01*
X129515067Y-62250303D02*
X127474148Y-63271320D01*
X127460660Y-60977872D01*
X129515067Y-62250303D01*
G36*
X129515067Y-62250303D02*
G01*
X127474148Y-63271320D01*
X127460660Y-60977872D01*
X129515067Y-62250303D01*
G37*
X58161811Y-63558518D02*
X56107404Y-62286087D01*
X58148323Y-61265070D01*
X58161811Y-63558518D01*
G36*
X58161811Y-63558518D02*
G01*
X56107404Y-62286087D01*
X58148323Y-61265070D01*
X58161811Y-63558518D01*
G37*
X101600000Y-86360000D02*
X96520000Y-86360000D01*
X58121457Y-39326340D02*
X56067050Y-38053909D01*
X58107969Y-37032892D01*
X58121457Y-39326340D01*
G36*
X58121457Y-39326340D02*
G01*
X56067050Y-38053909D01*
X58107969Y-37032892D01*
X58121457Y-39326340D01*
G37*
X58045303Y-87704624D02*
X55990896Y-86432193D01*
X58031815Y-85411176D01*
X58045303Y-87704624D01*
G36*
X58045303Y-87704624D02*
G01*
X55990896Y-86432193D01*
X58031815Y-85411176D01*
X58045303Y-87704624D01*
G37*
X101600000Y-53340000D02*
X101600000Y-86360000D01*
X96520000Y-86360000D02*
X95306650Y-84924694D01*
X93607763Y-27581063D02*
X91314315Y-27594551D01*
X92586746Y-25540144D01*
X93607763Y-27581063D01*
G36*
X93607763Y-27581063D02*
G01*
X91314315Y-27594551D01*
X92586746Y-25540144D01*
X93607763Y-27581063D01*
G37*
X117735332Y-27506125D02*
X115441884Y-27519613D01*
X116714315Y-25465206D01*
X117735332Y-27506125D01*
G36*
X117735332Y-27506125D02*
G01*
X115441884Y-27519613D01*
X116714315Y-25465206D01*
X117735332Y-27506125D01*
G37*
X88515502Y-84924694D02*
X83820000Y-88900000D01*
X95306650Y-84924694D02*
X88515502Y-84924694D01*
X69475332Y-27506125D02*
X67181884Y-27519613D01*
X68454315Y-25465206D01*
X69475332Y-27506125D01*
G36*
X69475332Y-27506125D02*
G01*
X67181884Y-27519613D01*
X68454315Y-25465206D01*
X69475332Y-27506125D01*
G37*
X129371496Y-86357133D02*
X127330577Y-87378150D01*
X127317089Y-85084702D01*
X129371496Y-86357133D01*
G36*
X129371496Y-86357133D02*
G01*
X127330577Y-87378150D01*
X127317089Y-85084702D01*
X129371496Y-86357133D01*
G37*
X92707569Y-98985062D02*
X91686552Y-96944143D01*
X93980000Y-96930655D01*
X92707569Y-98985062D01*
G36*
X92707569Y-98985062D02*
G01*
X91686552Y-96944143D01*
X93980000Y-96930655D01*
X92707569Y-98985062D01*
G37*
X68580000Y-99060000D02*
X67558983Y-97019081D01*
X69852431Y-97005593D01*
X68580000Y-99060000D01*
G36*
X68580000Y-99060000D02*
G01*
X67558983Y-97019081D01*
X69852431Y-97005593D01*
X68580000Y-99060000D01*
G37*
X116840000Y-99060000D02*
X115818983Y-97019081D01*
X118112431Y-97005593D01*
X116840000Y-99060000D01*
G36*
X116840000Y-99060000D02*
G01*
X115818983Y-97019081D01*
X118112431Y-97005593D01*
X116840000Y-99060000D01*
G37*
X106680000Y-53340000D02*
X101600000Y-53340000D01*
X129040919Y-38117872D02*
X127000000Y-39138889D01*
X126986512Y-36845441D01*
X129040919Y-38117872D01*
G36*
X129040919Y-38117872D02*
G01*
X127000000Y-39138889D01*
X126986512Y-36845441D01*
X129040919Y-38117872D01*
G37*
D11*
X113100225Y-32820828D02*
X112243082Y-32820828D01*
X112671653Y-32820828D02*
X112671653Y-31320828D01*
X112671653Y-31320828D02*
X112528796Y-31535114D01*
X112528796Y-31535114D02*
X112385939Y-31677971D01*
X112385939Y-31677971D02*
X112243082Y-31749400D01*
X113671653Y-31463685D02*
X113743081Y-31392257D01*
X113743081Y-31392257D02*
X113885939Y-31320828D01*
X113885939Y-31320828D02*
X114243081Y-31320828D01*
X114243081Y-31320828D02*
X114385939Y-31392257D01*
X114385939Y-31392257D02*
X114457367Y-31463685D01*
X114457367Y-31463685D02*
X114528796Y-31606542D01*
X114528796Y-31606542D02*
X114528796Y-31749400D01*
X114528796Y-31749400D02*
X114457367Y-31963685D01*
X114457367Y-31963685D02*
X113600224Y-32820828D01*
X113600224Y-32820828D02*
X114528796Y-32820828D01*
X115028795Y-31820828D02*
X115385938Y-32820828D01*
X115385938Y-32820828D02*
X115743081Y-31820828D01*
X118243081Y-31392257D02*
X118100224Y-31320828D01*
X118100224Y-31320828D02*
X117885938Y-31320828D01*
X117885938Y-31320828D02*
X117671652Y-31392257D01*
X117671652Y-31392257D02*
X117528795Y-31535114D01*
X117528795Y-31535114D02*
X117457366Y-31677971D01*
X117457366Y-31677971D02*
X117385938Y-31963685D01*
X117385938Y-31963685D02*
X117385938Y-32177971D01*
X117385938Y-32177971D02*
X117457366Y-32463685D01*
X117457366Y-32463685D02*
X117528795Y-32606542D01*
X117528795Y-32606542D02*
X117671652Y-32749400D01*
X117671652Y-32749400D02*
X117885938Y-32820828D01*
X117885938Y-32820828D02*
X118028795Y-32820828D01*
X118028795Y-32820828D02*
X118243081Y-32749400D01*
X118243081Y-32749400D02*
X118314509Y-32677971D01*
X118314509Y-32677971D02*
X118314509Y-32177971D01*
X118314509Y-32177971D02*
X118028795Y-32177971D01*
X118957366Y-32820828D02*
X118957366Y-31320828D01*
X118957366Y-31320828D02*
X119814509Y-32820828D01*
X119814509Y-32820828D02*
X119814509Y-31320828D01*
X120528795Y-32820828D02*
X120528795Y-31320828D01*
X120528795Y-31320828D02*
X120885938Y-31320828D01*
X120885938Y-31320828D02*
X121100224Y-31392257D01*
X121100224Y-31392257D02*
X121243081Y-31535114D01*
X121243081Y-31535114D02*
X121314510Y-31677971D01*
X121314510Y-31677971D02*
X121385938Y-31963685D01*
X121385938Y-31963685D02*
X121385938Y-32177971D01*
X121385938Y-32177971D02*
X121314510Y-32463685D01*
X121314510Y-32463685D02*
X121243081Y-32606542D01*
X121243081Y-32606542D02*
X121100224Y-32749400D01*
X121100224Y-32749400D02*
X120885938Y-32820828D01*
X120885938Y-32820828D02*
X120528795Y-32820828D01*
D12*
X104118307Y-56590557D02*
X104118307Y-57161985D01*
X104118307Y-56876271D02*
X103118307Y-56876271D01*
X103118307Y-56876271D02*
X103261164Y-56971509D01*
X103261164Y-56971509D02*
X103356402Y-57066747D01*
X103356402Y-57066747D02*
X103404021Y-57161985D01*
X103213545Y-56209604D02*
X103165926Y-56161985D01*
X103165926Y-56161985D02*
X103118307Y-56066747D01*
X103118307Y-56066747D02*
X103118307Y-55828652D01*
X103118307Y-55828652D02*
X103165926Y-55733414D01*
X103165926Y-55733414D02*
X103213545Y-55685795D01*
X103213545Y-55685795D02*
X103308783Y-55638176D01*
X103308783Y-55638176D02*
X103404021Y-55638176D01*
X103404021Y-55638176D02*
X103546878Y-55685795D01*
X103546878Y-55685795D02*
X104118307Y-56257223D01*
X104118307Y-56257223D02*
X104118307Y-55638176D01*
X103451640Y-55304842D02*
X104118307Y-55066747D01*
X104118307Y-55066747D02*
X103451640Y-54828652D01*
X103737354Y-53685794D02*
X103737354Y-52923890D01*
X104118307Y-53304842D02*
X103356402Y-53304842D01*
X103118307Y-51209604D02*
X103118307Y-51685794D01*
X103118307Y-51685794D02*
X103594497Y-51733413D01*
X103594497Y-51733413D02*
X103546878Y-51685794D01*
X103546878Y-51685794D02*
X103499259Y-51590556D01*
X103499259Y-51590556D02*
X103499259Y-51352461D01*
X103499259Y-51352461D02*
X103546878Y-51257223D01*
X103546878Y-51257223D02*
X103594497Y-51209604D01*
X103594497Y-51209604D02*
X103689735Y-51161985D01*
X103689735Y-51161985D02*
X103927830Y-51161985D01*
X103927830Y-51161985D02*
X104023068Y-51209604D01*
X104023068Y-51209604D02*
X104070688Y-51257223D01*
X104070688Y-51257223D02*
X104118307Y-51352461D01*
X104118307Y-51352461D02*
X104118307Y-51590556D01*
X104118307Y-51590556D02*
X104070688Y-51685794D01*
X104070688Y-51685794D02*
X104023068Y-51733413D01*
X103451640Y-50828651D02*
X104118307Y-50590556D01*
X104118307Y-50590556D02*
X103451640Y-50352461D01*
D11*
X79730785Y-82207263D02*
X79730785Y-81064406D01*
X80302213Y-81635834D02*
X79159356Y-81635834D01*
X80302213Y-78350120D02*
X79587927Y-78850120D01*
X80302213Y-79207263D02*
X78802213Y-79207263D01*
X78802213Y-79207263D02*
X78802213Y-78635834D01*
X78802213Y-78635834D02*
X78873642Y-78492977D01*
X78873642Y-78492977D02*
X78945070Y-78421548D01*
X78945070Y-78421548D02*
X79087927Y-78350120D01*
X79087927Y-78350120D02*
X79302213Y-78350120D01*
X79302213Y-78350120D02*
X79445070Y-78421548D01*
X79445070Y-78421548D02*
X79516499Y-78492977D01*
X79516499Y-78492977D02*
X79587927Y-78635834D01*
X79587927Y-78635834D02*
X79587927Y-79207263D01*
X78873642Y-75778691D02*
X78802213Y-75921549D01*
X78802213Y-75921549D02*
X78802213Y-76135834D01*
X78802213Y-76135834D02*
X78873642Y-76350120D01*
X78873642Y-76350120D02*
X79016499Y-76492977D01*
X79016499Y-76492977D02*
X79159356Y-76564406D01*
X79159356Y-76564406D02*
X79445070Y-76635834D01*
X79445070Y-76635834D02*
X79659356Y-76635834D01*
X79659356Y-76635834D02*
X79945070Y-76564406D01*
X79945070Y-76564406D02*
X80087927Y-76492977D01*
X80087927Y-76492977D02*
X80230785Y-76350120D01*
X80230785Y-76350120D02*
X80302213Y-76135834D01*
X80302213Y-76135834D02*
X80302213Y-75992977D01*
X80302213Y-75992977D02*
X80230785Y-75778691D01*
X80230785Y-75778691D02*
X80159356Y-75707263D01*
X80159356Y-75707263D02*
X79659356Y-75707263D01*
X79659356Y-75707263D02*
X79659356Y-75992977D01*
X79516499Y-73421549D02*
X79587927Y-73207263D01*
X79587927Y-73207263D02*
X79659356Y-73135834D01*
X79659356Y-73135834D02*
X79802213Y-73064406D01*
X79802213Y-73064406D02*
X80016499Y-73064406D01*
X80016499Y-73064406D02*
X80159356Y-73135834D01*
X80159356Y-73135834D02*
X80230785Y-73207263D01*
X80230785Y-73207263D02*
X80302213Y-73350120D01*
X80302213Y-73350120D02*
X80302213Y-73921549D01*
X80302213Y-73921549D02*
X78802213Y-73921549D01*
X78802213Y-73921549D02*
X78802213Y-73421549D01*
X78802213Y-73421549D02*
X78873642Y-73278692D01*
X78873642Y-73278692D02*
X78945070Y-73207263D01*
X78945070Y-73207263D02*
X79087927Y-73135834D01*
X79087927Y-73135834D02*
X79230785Y-73135834D01*
X79230785Y-73135834D02*
X79373642Y-73207263D01*
X79373642Y-73207263D02*
X79445070Y-73278692D01*
X79445070Y-73278692D02*
X79516499Y-73421549D01*
X79516499Y-73421549D02*
X79516499Y-73921549D01*
X78802213Y-71421549D02*
X80302213Y-71064406D01*
X80302213Y-71064406D02*
X79230785Y-70778692D01*
X79230785Y-70778692D02*
X80302213Y-70492977D01*
X80302213Y-70492977D02*
X78802213Y-70135835D01*
X79916319Y-88234516D02*
X79916319Y-89377374D01*
X79344890Y-88805945D02*
X80487747Y-88805945D01*
X79416319Y-91163088D02*
X79344890Y-91377374D01*
X79344890Y-91377374D02*
X79344890Y-91734516D01*
X79344890Y-91734516D02*
X79416319Y-91877374D01*
X79416319Y-91877374D02*
X79487747Y-91948802D01*
X79487747Y-91948802D02*
X79630604Y-92020231D01*
X79630604Y-92020231D02*
X79773461Y-92020231D01*
X79773461Y-92020231D02*
X79916319Y-91948802D01*
X79916319Y-91948802D02*
X79987747Y-91877374D01*
X79987747Y-91877374D02*
X80059176Y-91734516D01*
X80059176Y-91734516D02*
X80130604Y-91448802D01*
X80130604Y-91448802D02*
X80202033Y-91305945D01*
X80202033Y-91305945D02*
X80273461Y-91234516D01*
X80273461Y-91234516D02*
X80416319Y-91163088D01*
X80416319Y-91163088D02*
X80559176Y-91163088D01*
X80559176Y-91163088D02*
X80702033Y-91234516D01*
X80702033Y-91234516D02*
X80773461Y-91305945D01*
X80773461Y-91305945D02*
X80844890Y-91448802D01*
X80844890Y-91448802D02*
X80844890Y-91805945D01*
X80844890Y-91805945D02*
X80773461Y-92020231D01*
X79916319Y-93805944D02*
X79916319Y-94948802D01*
D10*
X113697143Y-43634819D02*
X113697143Y-42634819D01*
X113697143Y-42634819D02*
X114078095Y-42634819D01*
X114078095Y-42634819D02*
X114173333Y-42682438D01*
X114173333Y-42682438D02*
X114220952Y-42730057D01*
X114220952Y-42730057D02*
X114268571Y-42825295D01*
X114268571Y-42825295D02*
X114268571Y-42968152D01*
X114268571Y-42968152D02*
X114220952Y-43063390D01*
X114220952Y-43063390D02*
X114173333Y-43111009D01*
X114173333Y-43111009D02*
X114078095Y-43158628D01*
X114078095Y-43158628D02*
X113697143Y-43158628D01*
X114840000Y-43634819D02*
X114744762Y-43587200D01*
X114744762Y-43587200D02*
X114697143Y-43539580D01*
X114697143Y-43539580D02*
X114649524Y-43444342D01*
X114649524Y-43444342D02*
X114649524Y-43158628D01*
X114649524Y-43158628D02*
X114697143Y-43063390D01*
X114697143Y-43063390D02*
X114744762Y-43015771D01*
X114744762Y-43015771D02*
X114840000Y-42968152D01*
X114840000Y-42968152D02*
X114982857Y-42968152D01*
X114982857Y-42968152D02*
X115078095Y-43015771D01*
X115078095Y-43015771D02*
X115125714Y-43063390D01*
X115125714Y-43063390D02*
X115173333Y-43158628D01*
X115173333Y-43158628D02*
X115173333Y-43444342D01*
X115173333Y-43444342D02*
X115125714Y-43539580D01*
X115125714Y-43539580D02*
X115078095Y-43587200D01*
X115078095Y-43587200D02*
X114982857Y-43634819D01*
X114982857Y-43634819D02*
X114840000Y-43634819D01*
X115506667Y-42968152D02*
X115697143Y-43634819D01*
X115697143Y-43634819D02*
X115887619Y-43158628D01*
X115887619Y-43158628D02*
X116078095Y-43634819D01*
X116078095Y-43634819D02*
X116268571Y-42968152D01*
X117030476Y-43587200D02*
X116935238Y-43634819D01*
X116935238Y-43634819D02*
X116744762Y-43634819D01*
X116744762Y-43634819D02*
X116649524Y-43587200D01*
X116649524Y-43587200D02*
X116601905Y-43491961D01*
X116601905Y-43491961D02*
X116601905Y-43111009D01*
X116601905Y-43111009D02*
X116649524Y-43015771D01*
X116649524Y-43015771D02*
X116744762Y-42968152D01*
X116744762Y-42968152D02*
X116935238Y-42968152D01*
X116935238Y-42968152D02*
X117030476Y-43015771D01*
X117030476Y-43015771D02*
X117078095Y-43111009D01*
X117078095Y-43111009D02*
X117078095Y-43206247D01*
X117078095Y-43206247D02*
X116601905Y-43301485D01*
X117506667Y-43634819D02*
X117506667Y-42968152D01*
X117506667Y-43158628D02*
X117554286Y-43063390D01*
X117554286Y-43063390D02*
X117601905Y-43015771D01*
X117601905Y-43015771D02*
X117697143Y-42968152D01*
X117697143Y-42968152D02*
X117792381Y-42968152D01*
X118125715Y-43634819D02*
X118125715Y-42634819D01*
X118601905Y-42968152D02*
X118601905Y-43634819D01*
X118601905Y-43063390D02*
X118649524Y-43015771D01*
X118649524Y-43015771D02*
X118744762Y-42968152D01*
X118744762Y-42968152D02*
X118887619Y-42968152D01*
X118887619Y-42968152D02*
X118982857Y-43015771D01*
X118982857Y-43015771D02*
X119030476Y-43111009D01*
X119030476Y-43111009D02*
X119030476Y-43634819D01*
X120030476Y-43634819D02*
X119459048Y-43634819D01*
X119744762Y-43634819D02*
X119744762Y-42634819D01*
X119744762Y-42634819D02*
X119649524Y-42777676D01*
X119649524Y-42777676D02*
X119554286Y-42872914D01*
X119554286Y-42872914D02*
X119459048Y-42920533D01*
D13*
X126112419Y-64045639D02*
X126112419Y-63855163D01*
X126112419Y-63855163D02*
X126160038Y-63759925D01*
X126160038Y-63759925D02*
X126255276Y-63664687D01*
X126255276Y-63664687D02*
X126445752Y-63617068D01*
X126445752Y-63617068D02*
X126779085Y-63617068D01*
X126779085Y-63617068D02*
X126969561Y-63664687D01*
X126969561Y-63664687D02*
X127064800Y-63759925D01*
X127064800Y-63759925D02*
X127112419Y-63855163D01*
X127112419Y-63855163D02*
X127112419Y-64045639D01*
X127112419Y-64045639D02*
X127064800Y-64140877D01*
X127064800Y-64140877D02*
X126969561Y-64236115D01*
X126969561Y-64236115D02*
X126779085Y-64283734D01*
X126779085Y-64283734D02*
X126445752Y-64283734D01*
X126445752Y-64283734D02*
X126255276Y-64236115D01*
X126255276Y-64236115D02*
X126160038Y-64140877D01*
X126160038Y-64140877D02*
X126112419Y-64045639D01*
X126112419Y-63188496D02*
X126921942Y-63188496D01*
X126921942Y-63188496D02*
X127017180Y-63140877D01*
X127017180Y-63140877D02*
X127064800Y-63093258D01*
X127064800Y-63093258D02*
X127112419Y-62998020D01*
X127112419Y-62998020D02*
X127112419Y-62807544D01*
X127112419Y-62807544D02*
X127064800Y-62712306D01*
X127064800Y-62712306D02*
X127017180Y-62664687D01*
X127017180Y-62664687D02*
X126921942Y-62617068D01*
X126921942Y-62617068D02*
X126112419Y-62617068D01*
X126112419Y-62283734D02*
X126112419Y-61712306D01*
X127112419Y-61998020D02*
X126112419Y-61998020D01*
X126731466Y-60617067D02*
X126731466Y-59855163D01*
X107312419Y-45436115D02*
X106312419Y-45436115D01*
X107312419Y-44959925D02*
X106312419Y-44959925D01*
X106312419Y-44959925D02*
X107312419Y-44388497D01*
X107312419Y-44388497D02*
X106312419Y-44388497D01*
X106931466Y-43150401D02*
X106931466Y-42388497D01*
X107312419Y-42769449D02*
X106550514Y-42769449D01*
X106112419Y-64045639D02*
X106112419Y-63855163D01*
X106112419Y-63855163D02*
X106160038Y-63759925D01*
X106160038Y-63759925D02*
X106255276Y-63664687D01*
X106255276Y-63664687D02*
X106445752Y-63617068D01*
X106445752Y-63617068D02*
X106779085Y-63617068D01*
X106779085Y-63617068D02*
X106969561Y-63664687D01*
X106969561Y-63664687D02*
X107064800Y-63759925D01*
X107064800Y-63759925D02*
X107112419Y-63855163D01*
X107112419Y-63855163D02*
X107112419Y-64045639D01*
X107112419Y-64045639D02*
X107064800Y-64140877D01*
X107064800Y-64140877D02*
X106969561Y-64236115D01*
X106969561Y-64236115D02*
X106779085Y-64283734D01*
X106779085Y-64283734D02*
X106445752Y-64283734D01*
X106445752Y-64283734D02*
X106255276Y-64236115D01*
X106255276Y-64236115D02*
X106160038Y-64140877D01*
X106160038Y-64140877D02*
X106112419Y-64045639D01*
X106112419Y-63188496D02*
X106921942Y-63188496D01*
X106921942Y-63188496D02*
X107017180Y-63140877D01*
X107017180Y-63140877D02*
X107064800Y-63093258D01*
X107064800Y-63093258D02*
X107112419Y-62998020D01*
X107112419Y-62998020D02*
X107112419Y-62807544D01*
X107112419Y-62807544D02*
X107064800Y-62712306D01*
X107064800Y-62712306D02*
X107017180Y-62664687D01*
X107017180Y-62664687D02*
X106921942Y-62617068D01*
X106921942Y-62617068D02*
X106112419Y-62617068D01*
X106112419Y-62283734D02*
X106112419Y-61712306D01*
X107112419Y-61998020D02*
X106112419Y-61998020D01*
X106731466Y-60617067D02*
X106731466Y-59855163D01*
X107112419Y-60236115D02*
X106350514Y-60236115D01*
X126712419Y-45236115D02*
X125712419Y-45236115D01*
X126712419Y-44759925D02*
X125712419Y-44759925D01*
X125712419Y-44759925D02*
X126712419Y-44188497D01*
X126712419Y-44188497D02*
X125712419Y-44188497D01*
X126331466Y-42950401D02*
X126331466Y-42188497D01*
D14*
X82110000Y-86290000D02*
X82110000Y-96510000D01*
X82110000Y-96510000D02*
X86130000Y-96510000D01*
X82610000Y-86790000D02*
X83820000Y-86790000D01*
X82610000Y-96010000D02*
X82610000Y-86790000D01*
X83820000Y-86790000D02*
X83820000Y-86290000D01*
X83820000Y-96010000D02*
X82610000Y-96010000D01*
X83820000Y-96510000D02*
X83820000Y-96010000D01*
X83930000Y-96810000D02*
X86430000Y-96810000D01*
X84630000Y-86290000D02*
X84630000Y-87290000D01*
X84630000Y-87290000D02*
X86130000Y-87290000D01*
X84630000Y-95510000D02*
X86130000Y-95510000D01*
X84630000Y-96510000D02*
X84630000Y-95510000D01*
X86130000Y-86290000D02*
X82110000Y-86290000D01*
X86130000Y-96510000D02*
X86130000Y-86290000D01*
X86430000Y-96810000D02*
X86430000Y-94310000D01*
X90710000Y-60920000D02*
X95351000Y-60920000D01*
X90710000Y-64189000D02*
X92220000Y-64189000D01*
X90710000Y-67890000D02*
X92220000Y-67890000D01*
X90710000Y-71160000D02*
X90710000Y-60920000D01*
X90710000Y-71160000D02*
X95351000Y-71160000D01*
X92220000Y-71160000D02*
X92220000Y-60920000D01*
X95351000Y-71160000D02*
X95351000Y-60920000D01*
X82110000Y-68590000D02*
X82110000Y-83810000D01*
X82110000Y-83810000D02*
X86130000Y-83810000D01*
X82610000Y-69090000D02*
X83820000Y-69090000D01*
X82610000Y-83310000D02*
X82610000Y-69090000D01*
X83820000Y-69090000D02*
X83820000Y-68590000D01*
X83820000Y-83310000D02*
X82610000Y-83310000D01*
X83820000Y-83810000D02*
X83820000Y-83310000D01*
X83930000Y-84110000D02*
X86430000Y-84110000D01*
X84630000Y-68590000D02*
X84630000Y-69590000D01*
X84630000Y-69590000D02*
X86130000Y-69590000D01*
X84630000Y-82810000D02*
X86130000Y-82810000D01*
X84630000Y-83810000D02*
X84630000Y-82810000D01*
X86130000Y-68590000D02*
X82110000Y-68590000D01*
X86130000Y-83810000D02*
X86130000Y-68590000D01*
X86430000Y-84110000D02*
X86430000Y-81610000D01*
X99060000Y-69500000D02*
X99060000Y-70120000D01*
X99980000Y-68580000D02*
G75*
G02*
X98140000Y-68580000I-920000J0D01*
G01*
X98140000Y-68580000D02*
G75*
G02*
X99980000Y-68580000I920000J0D01*
G01*
X90710000Y-48220000D02*
X95351000Y-48220000D01*
X90710000Y-51489000D02*
X92220000Y-51489000D01*
X90710000Y-55190000D02*
X92220000Y-55190000D01*
X90710000Y-58460000D02*
X90710000Y-48220000D01*
X90710000Y-58460000D02*
X95351000Y-58460000D01*
X92220000Y-58460000D02*
X92220000Y-48220000D01*
X95351000Y-58460000D02*
X95351000Y-48220000D01*
X99060000Y-56800000D02*
X99060000Y-57420000D01*
X99980000Y-55880000D02*
G75*
G02*
X98140000Y-55880000I-920000J0D01*
G01*
X98140000Y-55880000D02*
G75*
G02*
X99980000Y-55880000I920000J0D01*
G01*
X113570000Y-72290000D02*
X120110000Y-72290000D01*
X113570000Y-72620000D02*
X113570000Y-72290000D01*
X113570000Y-74700000D02*
X113570000Y-75030000D01*
X113570000Y-75030000D02*
X120110000Y-75030000D01*
X120110000Y-72290000D02*
X120110000Y-72620000D01*
X120110000Y-75030000D02*
X120110000Y-74700000D01*
X102640000Y-62780000D02*
X102640000Y-95110000D01*
X104760000Y-97240000D02*
X126370000Y-97240000D01*
X125960000Y-62780000D02*
X102640000Y-62780000D01*
X125960000Y-69680000D02*
X125960000Y-62780000D01*
X128500000Y-69680000D02*
X125960000Y-69680000D01*
X128500000Y-69680000D02*
X128500000Y-95110000D01*
X104770000Y-97240000D02*
G75*
G02*
X102640000Y-95110000I0J2130000D01*
G01*
X128500000Y-95110000D02*
G75*
G02*
X126370000Y-97240000I-2130002J2D01*
G01*
D10*
X129540000Y-89535000D02*
X128905000Y-88900000D01*
X129540000Y-88265000D01*
X129540000Y-89535000D01*
G36*
X129540000Y-89535000D02*
G01*
X128905000Y-88900000D01*
X129540000Y-88265000D01*
X129540000Y-89535000D01*
G37*
D14*
X99060000Y-94900000D02*
X99060000Y-95520000D01*
X99980000Y-93980000D02*
G75*
G02*
X98140000Y-93980000I-920000J0D01*
G01*
X98140000Y-93980000D02*
G75*
G02*
X99980000Y-93980000I920000J0D01*
G01*
X99060000Y-82200000D02*
X99060000Y-82820000D01*
X99980000Y-81280000D02*
G75*
G02*
X98140000Y-81280000I-920000J0D01*
G01*
X98140000Y-81280000D02*
G75*
G02*
X99980000Y-81280000I920000J0D01*
G01*
X111760000Y-34290000D02*
X111760000Y-41910000D01*
X111760000Y-35560000D02*
X121920000Y-35560000D01*
X111760000Y-41910000D02*
X121920000Y-41910000D01*
X121920000Y-34290000D02*
X111760000Y-34290000D01*
X121920000Y-41910000D02*
X121920000Y-34290000D01*
X90710000Y-86320000D02*
X95351000Y-86320000D01*
X90710000Y-89589000D02*
X92220000Y-89589000D01*
X90710000Y-93290000D02*
X92220000Y-93290000D01*
X90710000Y-96560000D02*
X90710000Y-86320000D01*
X90710000Y-96560000D02*
X95351000Y-96560000D01*
X92220000Y-96560000D02*
X92220000Y-86320000D01*
X95351000Y-96560000D02*
X95351000Y-86320000D01*
D13*
X108540000Y-64540000D02*
X125240000Y-64540000D01*
X125240000Y-42340000D01*
X108540000Y-42340000D01*
X108540000Y-64540000D01*
X117240000Y-60540000D02*
X118240000Y-60540000D01*
X116840000Y-61540000D01*
X115640000Y-60540000D01*
X116640000Y-60540000D01*
X116640000Y-46940000D01*
X117240000Y-46940000D01*
X117240000Y-60540000D01*
G36*
X117240000Y-60540000D02*
G01*
X118240000Y-60540000D01*
X116840000Y-61540000D01*
X115640000Y-60540000D01*
X116640000Y-60540000D01*
X116640000Y-46940000D01*
X117240000Y-46940000D01*
X117240000Y-60540000D01*
G37*
D14*
X105350000Y-49470000D02*
X106680000Y-49470000D01*
X105350000Y-50800000D02*
X105350000Y-49470000D01*
X105350000Y-52070000D02*
X105350000Y-57210000D01*
X105350000Y-52070000D02*
X108010000Y-52070000D01*
X105350000Y-57210000D02*
X108010000Y-57210000D01*
X108010000Y-52070000D02*
X108010000Y-57210000D01*
X113570000Y-82450000D02*
X113570000Y-82780000D01*
X113570000Y-85190000D02*
X113570000Y-84860000D01*
X120110000Y-82450000D02*
X113570000Y-82450000D01*
X120110000Y-82780000D02*
X120110000Y-82450000D01*
X120110000Y-84860000D02*
X120110000Y-85190000D01*
X120110000Y-85190000D02*
X113570000Y-85190000D01*
X113570000Y-77370000D02*
X113570000Y-77700000D01*
X113570000Y-80110000D02*
X113570000Y-79780000D01*
X120110000Y-77370000D02*
X113570000Y-77370000D01*
X120110000Y-77700000D02*
X120110000Y-77370000D01*
X120110000Y-79780000D02*
X120110000Y-80110000D01*
X120110000Y-80110000D02*
X113570000Y-80110000D01*
X90710000Y-73620000D02*
X95351000Y-73620000D01*
X90710000Y-76889000D02*
X92220000Y-76889000D01*
X90710000Y-80590000D02*
X92220000Y-80590000D01*
X90710000Y-83860000D02*
X90710000Y-73620000D01*
X90710000Y-83860000D02*
X95351000Y-83860000D01*
X92220000Y-83860000D02*
X92220000Y-73620000D01*
X95351000Y-83860000D02*
X95351000Y-73620000D01*
X113570000Y-67237215D02*
X120110000Y-67237215D01*
X113570000Y-67567215D02*
X113570000Y-67237215D01*
X113570000Y-69647215D02*
X113570000Y-69977215D01*
X113570000Y-69977215D02*
X120110000Y-69977215D01*
X120110000Y-67237215D02*
X120110000Y-67567215D01*
X120110000Y-69977215D02*
X120110000Y-69647215D01*
%LPC*%
D15*
X83820000Y-93900000D03*
D16*
X83820000Y-91400000D03*
X83820000Y-88900000D03*
D17*
X93980000Y-68580000D03*
D18*
X93980000Y-66040000D03*
X93980000Y-63500000D03*
D15*
X83820000Y-81200000D03*
D16*
X83820000Y-78700000D03*
X83820000Y-76200000D03*
X83820000Y-73700000D03*
X83820000Y-71200000D03*
D19*
X99060000Y-68580000D03*
D20*
X99060000Y-71120000D03*
D17*
X93980000Y-55880000D03*
D18*
X93980000Y-53340000D03*
X93980000Y-50800000D03*
D19*
X99060000Y-55880000D03*
D20*
X99060000Y-58420000D03*
D21*
X113030000Y-73660000D03*
D22*
X120650000Y-73660000D03*
D23*
X127000000Y-88900000D03*
D24*
X127000000Y-86360000D03*
X127000000Y-83820000D03*
X127000000Y-81280000D03*
X127000000Y-78740000D03*
X127000000Y-76200000D03*
X127000000Y-73660000D03*
X127000000Y-71120000D03*
X104140000Y-71120000D03*
X104140000Y-73660000D03*
X104140000Y-76200000D03*
X104140000Y-78740000D03*
X104140000Y-81280000D03*
X104140000Y-83820000D03*
X104140000Y-86360000D03*
X104140000Y-88900000D03*
D19*
X99060000Y-93980000D03*
D20*
X99060000Y-96520000D03*
D19*
X99060000Y-81280000D03*
D20*
X99060000Y-83820000D03*
D25*
X119380000Y-38100000D03*
D26*
X114300000Y-38100000D03*
D17*
X93980000Y-93980000D03*
D18*
X93980000Y-91440000D03*
X93980000Y-88900000D03*
D27*
X121940000Y-43540000D03*
X124140000Y-43540000D03*
X109740000Y-43540000D03*
X111940000Y-43540000D03*
X121940000Y-63340000D03*
X124140000Y-63340000D03*
X109740000Y-63340000D03*
X111940000Y-63340000D03*
D28*
X106680000Y-50800000D03*
D29*
X106680000Y-53340000D03*
X106680000Y-55880000D03*
D21*
X120650000Y-83820000D03*
D22*
X113030000Y-83820000D03*
D21*
X120650000Y-78740000D03*
D22*
X113030000Y-78740000D03*
D17*
X93980000Y-81280000D03*
D18*
X93980000Y-78740000D03*
X93980000Y-76200000D03*
D21*
X113030000Y-68607215D03*
D22*
X120650000Y-68607215D03*
%LPD*%
M02*
