G04 #@! TF.GenerationSoftware,KiCad,Pcbnew,8.0.4*
G04 #@! TF.CreationDate,2024-09-06T18:50:31+02:00*
G04 #@! TF.ProjectId,rgb_controller,7267625f-636f-46e7-9472-6f6c6c65722e,rev?*
G04 #@! TF.SameCoordinates,Original*
G04 #@! TF.FileFunction,Legend,Bot*
G04 #@! TF.FilePolarity,Positive*
%FSLAX46Y46*%
G04 Gerber Fmt 4.6, Leading zero omitted, Abs format (unit mm)*
G04 Created by KiCad (PCBNEW 8.0.4) date 2024-09-06 18:50:31*
%MOMM*%
%LPD*%
G01*
G04 APERTURE LIST*
G04 Aperture macros list*
%AMRoundRect*
0 Rectangle with rounded corners*
0 $1 Rounding radius*
0 $2 $3 $4 $5 $6 $7 $8 $9 X,Y pos of 4 corners*
0 Add a 4 corners polygon primitive as box body*
4,1,4,$2,$3,$4,$5,$6,$7,$8,$9,$2,$3,0*
0 Add four circle primitives for the rounded corners*
1,1,$1+$1,$2,$3*
1,1,$1+$1,$4,$5*
1,1,$1+$1,$6,$7*
1,1,$1+$1,$8,$9*
0 Add four rect primitives between the rounded corners*
20,1,$1+$1,$2,$3,$4,$5,0*
20,1,$1+$1,$4,$5,$6,$7,0*
20,1,$1+$1,$6,$7,$8,$9,0*
20,1,$1+$1,$8,$9,$2,$3,0*%
G04 Aperture macros list end*
%ADD10C,0.150000*%
%ADD11C,0.000000*%
%ADD12RoundRect,0.250000X0.725000X-0.600000X0.725000X0.600000X-0.725000X0.600000X-0.725000X-0.600000X0*%
%ADD13O,1.950000X1.700000*%
%ADD14R,2.000000X1.905000*%
%ADD15O,2.000000X1.905000*%
%ADD16C,1.400000*%
%ADD17O,1.400000X1.400000*%
%ADD18C,1.600000*%
%ADD19O,1.600000X1.600000*%
%ADD20R,2.000000X2.000000*%
%ADD21O,2.000000X1.600000*%
%ADD22R,3.000000X3.000000*%
%ADD23C,3.000000*%
%ADD24RoundRect,0.200000X0.900000X-0.900000X0.900000X0.900000X-0.900000X0.900000X-0.900000X-0.900000X0*%
%ADD25R,1.700000X1.700000*%
%ADD26O,1.700000X1.700000*%
G04 APERTURE END LIST*
D10*
X72751792Y-65909819D02*
X73085125Y-65433628D01*
X73323220Y-65909819D02*
X73323220Y-64909819D01*
X73323220Y-64909819D02*
X72942268Y-64909819D01*
X72942268Y-64909819D02*
X72847030Y-64957438D01*
X72847030Y-64957438D02*
X72799411Y-65005057D01*
X72799411Y-65005057D02*
X72751792Y-65100295D01*
X72751792Y-65100295D02*
X72751792Y-65243152D01*
X72751792Y-65243152D02*
X72799411Y-65338390D01*
X72799411Y-65338390D02*
X72847030Y-65386009D01*
X72847030Y-65386009D02*
X72942268Y-65433628D01*
X72942268Y-65433628D02*
X73323220Y-65433628D01*
X71799411Y-64957438D02*
X71894649Y-64909819D01*
X71894649Y-64909819D02*
X72037506Y-64909819D01*
X72037506Y-64909819D02*
X72180363Y-64957438D01*
X72180363Y-64957438D02*
X72275601Y-65052676D01*
X72275601Y-65052676D02*
X72323220Y-65147914D01*
X72323220Y-65147914D02*
X72370839Y-65338390D01*
X72370839Y-65338390D02*
X72370839Y-65481247D01*
X72370839Y-65481247D02*
X72323220Y-65671723D01*
X72323220Y-65671723D02*
X72275601Y-65766961D01*
X72275601Y-65766961D02*
X72180363Y-65862200D01*
X72180363Y-65862200D02*
X72037506Y-65909819D01*
X72037506Y-65909819D02*
X71942268Y-65909819D01*
X71942268Y-65909819D02*
X71799411Y-65862200D01*
X71799411Y-65862200D02*
X71751792Y-65814580D01*
X71751792Y-65814580D02*
X71751792Y-65481247D01*
X71751792Y-65481247D02*
X71942268Y-65481247D01*
X70989887Y-65386009D02*
X70847030Y-65433628D01*
X70847030Y-65433628D02*
X70799411Y-65481247D01*
X70799411Y-65481247D02*
X70751792Y-65576485D01*
X70751792Y-65576485D02*
X70751792Y-65719342D01*
X70751792Y-65719342D02*
X70799411Y-65814580D01*
X70799411Y-65814580D02*
X70847030Y-65862200D01*
X70847030Y-65862200D02*
X70942268Y-65909819D01*
X70942268Y-65909819D02*
X71323220Y-65909819D01*
X71323220Y-65909819D02*
X71323220Y-64909819D01*
X71323220Y-64909819D02*
X70989887Y-64909819D01*
X70989887Y-64909819D02*
X70894649Y-64957438D01*
X70894649Y-64957438D02*
X70847030Y-65005057D01*
X70847030Y-65005057D02*
X70799411Y-65100295D01*
X70799411Y-65100295D02*
X70799411Y-65195533D01*
X70799411Y-65195533D02*
X70847030Y-65290771D01*
X70847030Y-65290771D02*
X70894649Y-65338390D01*
X70894649Y-65338390D02*
X70989887Y-65386009D01*
X70989887Y-65386009D02*
X71323220Y-65386009D01*
X70418458Y-64909819D02*
X70180363Y-65909819D01*
X70180363Y-65909819D02*
X69989887Y-65195533D01*
X69989887Y-65195533D02*
X69799411Y-65909819D01*
X69799411Y-65909819D02*
X69561316Y-64909819D01*
X67989887Y-65862200D02*
X68085125Y-65909819D01*
X68085125Y-65909819D02*
X68275601Y-65909819D01*
X68275601Y-65909819D02*
X68370839Y-65862200D01*
X68370839Y-65862200D02*
X68418458Y-65814580D01*
X68418458Y-65814580D02*
X68466077Y-65719342D01*
X68466077Y-65719342D02*
X68466077Y-65433628D01*
X68466077Y-65433628D02*
X68418458Y-65338390D01*
X68418458Y-65338390D02*
X68370839Y-65290771D01*
X68370839Y-65290771D02*
X68275601Y-65243152D01*
X68275601Y-65243152D02*
X68085125Y-65243152D01*
X68085125Y-65243152D02*
X67989887Y-65290771D01*
X67418458Y-65909819D02*
X67513696Y-65862200D01*
X67513696Y-65862200D02*
X67561315Y-65814580D01*
X67561315Y-65814580D02*
X67608934Y-65719342D01*
X67608934Y-65719342D02*
X67608934Y-65433628D01*
X67608934Y-65433628D02*
X67561315Y-65338390D01*
X67561315Y-65338390D02*
X67513696Y-65290771D01*
X67513696Y-65290771D02*
X67418458Y-65243152D01*
X67418458Y-65243152D02*
X67275601Y-65243152D01*
X67275601Y-65243152D02*
X67180363Y-65290771D01*
X67180363Y-65290771D02*
X67132744Y-65338390D01*
X67132744Y-65338390D02*
X67085125Y-65433628D01*
X67085125Y-65433628D02*
X67085125Y-65719342D01*
X67085125Y-65719342D02*
X67132744Y-65814580D01*
X67132744Y-65814580D02*
X67180363Y-65862200D01*
X67180363Y-65862200D02*
X67275601Y-65909819D01*
X67275601Y-65909819D02*
X67418458Y-65909819D01*
X66656553Y-65243152D02*
X66656553Y-65909819D01*
X66656553Y-65338390D02*
X66608934Y-65290771D01*
X66608934Y-65290771D02*
X66513696Y-65243152D01*
X66513696Y-65243152D02*
X66370839Y-65243152D01*
X66370839Y-65243152D02*
X66275601Y-65290771D01*
X66275601Y-65290771D02*
X66227982Y-65386009D01*
X66227982Y-65386009D02*
X66227982Y-65909819D01*
X65894648Y-65243152D02*
X65513696Y-65243152D01*
X65751791Y-64909819D02*
X65751791Y-65766961D01*
X65751791Y-65766961D02*
X65704172Y-65862200D01*
X65704172Y-65862200D02*
X65608934Y-65909819D01*
X65608934Y-65909819D02*
X65513696Y-65909819D01*
X65180362Y-65909819D02*
X65180362Y-65243152D01*
X65180362Y-65433628D02*
X65132743Y-65338390D01*
X65132743Y-65338390D02*
X65085124Y-65290771D01*
X65085124Y-65290771D02*
X64989886Y-65243152D01*
X64989886Y-65243152D02*
X64894648Y-65243152D01*
X64418457Y-65909819D02*
X64513695Y-65862200D01*
X64513695Y-65862200D02*
X64561314Y-65814580D01*
X64561314Y-65814580D02*
X64608933Y-65719342D01*
X64608933Y-65719342D02*
X64608933Y-65433628D01*
X64608933Y-65433628D02*
X64561314Y-65338390D01*
X64561314Y-65338390D02*
X64513695Y-65290771D01*
X64513695Y-65290771D02*
X64418457Y-65243152D01*
X64418457Y-65243152D02*
X64275600Y-65243152D01*
X64275600Y-65243152D02*
X64180362Y-65290771D01*
X64180362Y-65290771D02*
X64132743Y-65338390D01*
X64132743Y-65338390D02*
X64085124Y-65433628D01*
X64085124Y-65433628D02*
X64085124Y-65719342D01*
X64085124Y-65719342D02*
X64132743Y-65814580D01*
X64132743Y-65814580D02*
X64180362Y-65862200D01*
X64180362Y-65862200D02*
X64275600Y-65909819D01*
X64275600Y-65909819D02*
X64418457Y-65909819D01*
X63513695Y-65909819D02*
X63608933Y-65862200D01*
X63608933Y-65862200D02*
X63656552Y-65766961D01*
X63656552Y-65766961D02*
X63656552Y-64909819D01*
X62989885Y-65909819D02*
X63085123Y-65862200D01*
X63085123Y-65862200D02*
X63132742Y-65766961D01*
X63132742Y-65766961D02*
X63132742Y-64909819D01*
X62227980Y-65862200D02*
X62323218Y-65909819D01*
X62323218Y-65909819D02*
X62513694Y-65909819D01*
X62513694Y-65909819D02*
X62608932Y-65862200D01*
X62608932Y-65862200D02*
X62656551Y-65766961D01*
X62656551Y-65766961D02*
X62656551Y-65386009D01*
X62656551Y-65386009D02*
X62608932Y-65290771D01*
X62608932Y-65290771D02*
X62513694Y-65243152D01*
X62513694Y-65243152D02*
X62323218Y-65243152D01*
X62323218Y-65243152D02*
X62227980Y-65290771D01*
X62227980Y-65290771D02*
X62180361Y-65386009D01*
X62180361Y-65386009D02*
X62180361Y-65481247D01*
X62180361Y-65481247D02*
X62656551Y-65576485D01*
X61751789Y-65909819D02*
X61751789Y-65243152D01*
X61751789Y-65433628D02*
X61704170Y-65338390D01*
X61704170Y-65338390D02*
X61656551Y-65290771D01*
X61656551Y-65290771D02*
X61561313Y-65243152D01*
X61561313Y-65243152D02*
X61466075Y-65243152D01*
X60466074Y-65243152D02*
X60227979Y-65909819D01*
X60227979Y-65909819D02*
X59989884Y-65243152D01*
X59656550Y-65005057D02*
X59608931Y-64957438D01*
X59608931Y-64957438D02*
X59513693Y-64909819D01*
X59513693Y-64909819D02*
X59275598Y-64909819D01*
X59275598Y-64909819D02*
X59180360Y-64957438D01*
X59180360Y-64957438D02*
X59132741Y-65005057D01*
X59132741Y-65005057D02*
X59085122Y-65100295D01*
X59085122Y-65100295D02*
X59085122Y-65195533D01*
X59085122Y-65195533D02*
X59132741Y-65338390D01*
X59132741Y-65338390D02*
X59704169Y-65909819D01*
X59704169Y-65909819D02*
X59085122Y-65909819D01*
X78498458Y-95723152D02*
X78307982Y-96389819D01*
X78307982Y-96389819D02*
X78117506Y-95913628D01*
X78117506Y-95913628D02*
X77927030Y-96389819D01*
X77927030Y-96389819D02*
X77736554Y-95723152D01*
X76927030Y-96389819D02*
X76927030Y-95866009D01*
X76927030Y-95866009D02*
X76974649Y-95770771D01*
X76974649Y-95770771D02*
X77069887Y-95723152D01*
X77069887Y-95723152D02*
X77260363Y-95723152D01*
X77260363Y-95723152D02*
X77355601Y-95770771D01*
X76927030Y-96342200D02*
X77022268Y-96389819D01*
X77022268Y-96389819D02*
X77260363Y-96389819D01*
X77260363Y-96389819D02*
X77355601Y-96342200D01*
X77355601Y-96342200D02*
X77403220Y-96246961D01*
X77403220Y-96246961D02*
X77403220Y-96151723D01*
X77403220Y-96151723D02*
X77355601Y-96056485D01*
X77355601Y-96056485D02*
X77260363Y-96008866D01*
X77260363Y-96008866D02*
X77022268Y-96008866D01*
X77022268Y-96008866D02*
X76927030Y-95961247D01*
X76022268Y-95723152D02*
X76022268Y-96532676D01*
X76022268Y-96532676D02*
X76069887Y-96627914D01*
X76069887Y-96627914D02*
X76117506Y-96675533D01*
X76117506Y-96675533D02*
X76212744Y-96723152D01*
X76212744Y-96723152D02*
X76355601Y-96723152D01*
X76355601Y-96723152D02*
X76450839Y-96675533D01*
X76022268Y-96342200D02*
X76117506Y-96389819D01*
X76117506Y-96389819D02*
X76307982Y-96389819D01*
X76307982Y-96389819D02*
X76403220Y-96342200D01*
X76403220Y-96342200D02*
X76450839Y-96294580D01*
X76450839Y-96294580D02*
X76498458Y-96199342D01*
X76498458Y-96199342D02*
X76498458Y-95913628D01*
X76498458Y-95913628D02*
X76450839Y-95818390D01*
X76450839Y-95818390D02*
X76403220Y-95770771D01*
X76403220Y-95770771D02*
X76307982Y-95723152D01*
X76307982Y-95723152D02*
X76117506Y-95723152D01*
X76117506Y-95723152D02*
X76022268Y-95770771D01*
X75546077Y-95723152D02*
X75546077Y-96389819D01*
X75546077Y-95818390D02*
X75498458Y-95770771D01*
X75498458Y-95770771D02*
X75403220Y-95723152D01*
X75403220Y-95723152D02*
X75260363Y-95723152D01*
X75260363Y-95723152D02*
X75165125Y-95770771D01*
X75165125Y-95770771D02*
X75117506Y-95866009D01*
X75117506Y-95866009D02*
X75117506Y-96389819D01*
X74260363Y-96342200D02*
X74355601Y-96389819D01*
X74355601Y-96389819D02*
X74546077Y-96389819D01*
X74546077Y-96389819D02*
X74641315Y-96342200D01*
X74641315Y-96342200D02*
X74688934Y-96246961D01*
X74688934Y-96246961D02*
X74688934Y-95866009D01*
X74688934Y-95866009D02*
X74641315Y-95770771D01*
X74641315Y-95770771D02*
X74546077Y-95723152D01*
X74546077Y-95723152D02*
X74355601Y-95723152D01*
X74355601Y-95723152D02*
X74260363Y-95770771D01*
X74260363Y-95770771D02*
X74212744Y-95866009D01*
X74212744Y-95866009D02*
X74212744Y-95961247D01*
X74212744Y-95961247D02*
X74688934Y-96056485D01*
X73784172Y-96389819D02*
X73784172Y-95723152D01*
X73784172Y-95913628D02*
X73736553Y-95818390D01*
X73736553Y-95818390D02*
X73688934Y-95770771D01*
X73688934Y-95770771D02*
X73593696Y-95723152D01*
X73593696Y-95723152D02*
X73498458Y-95723152D01*
X73165124Y-96294580D02*
X73117505Y-96342200D01*
X73117505Y-96342200D02*
X73165124Y-96389819D01*
X73165124Y-96389819D02*
X73212743Y-96342200D01*
X73212743Y-96342200D02*
X73165124Y-96294580D01*
X73165124Y-96294580D02*
X73165124Y-96389819D01*
X72688934Y-96389819D02*
X72688934Y-95723152D01*
X72688934Y-95818390D02*
X72641315Y-95770771D01*
X72641315Y-95770771D02*
X72546077Y-95723152D01*
X72546077Y-95723152D02*
X72403220Y-95723152D01*
X72403220Y-95723152D02*
X72307982Y-95770771D01*
X72307982Y-95770771D02*
X72260363Y-95866009D01*
X72260363Y-95866009D02*
X72260363Y-96389819D01*
X72260363Y-95866009D02*
X72212744Y-95770771D01*
X72212744Y-95770771D02*
X72117506Y-95723152D01*
X72117506Y-95723152D02*
X71974649Y-95723152D01*
X71974649Y-95723152D02*
X71879410Y-95770771D01*
X71879410Y-95770771D02*
X71831791Y-95866009D01*
X71831791Y-95866009D02*
X71831791Y-96389819D01*
X70927030Y-96389819D02*
X70927030Y-95866009D01*
X70927030Y-95866009D02*
X70974649Y-95770771D01*
X70974649Y-95770771D02*
X71069887Y-95723152D01*
X71069887Y-95723152D02*
X71260363Y-95723152D01*
X71260363Y-95723152D02*
X71355601Y-95770771D01*
X70927030Y-96342200D02*
X71022268Y-96389819D01*
X71022268Y-96389819D02*
X71260363Y-96389819D01*
X71260363Y-96389819D02*
X71355601Y-96342200D01*
X71355601Y-96342200D02*
X71403220Y-96246961D01*
X71403220Y-96246961D02*
X71403220Y-96151723D01*
X71403220Y-96151723D02*
X71355601Y-96056485D01*
X71355601Y-96056485D02*
X71260363Y-96008866D01*
X71260363Y-96008866D02*
X71022268Y-96008866D01*
X71022268Y-96008866D02*
X70927030Y-95961247D01*
X70450839Y-96389819D02*
X70450839Y-95723152D01*
X70450839Y-95913628D02*
X70403220Y-95818390D01*
X70403220Y-95818390D02*
X70355601Y-95770771D01*
X70355601Y-95770771D02*
X70260363Y-95723152D01*
X70260363Y-95723152D02*
X70165125Y-95723152D01*
X69403220Y-96342200D02*
X69498458Y-96389819D01*
X69498458Y-96389819D02*
X69688934Y-96389819D01*
X69688934Y-96389819D02*
X69784172Y-96342200D01*
X69784172Y-96342200D02*
X69831791Y-96294580D01*
X69831791Y-96294580D02*
X69879410Y-96199342D01*
X69879410Y-96199342D02*
X69879410Y-95913628D01*
X69879410Y-95913628D02*
X69831791Y-95818390D01*
X69831791Y-95818390D02*
X69784172Y-95770771D01*
X69784172Y-95770771D02*
X69688934Y-95723152D01*
X69688934Y-95723152D02*
X69498458Y-95723152D01*
X69498458Y-95723152D02*
X69403220Y-95770771D01*
X68355601Y-95913628D02*
X68403220Y-95866009D01*
X68403220Y-95866009D02*
X68498458Y-95818390D01*
X68498458Y-95818390D02*
X68593696Y-95818390D01*
X68593696Y-95818390D02*
X68688934Y-95866009D01*
X68688934Y-95866009D02*
X68736553Y-95913628D01*
X68736553Y-95913628D02*
X68784172Y-96008866D01*
X68784172Y-96008866D02*
X68784172Y-96104104D01*
X68784172Y-96104104D02*
X68736553Y-96199342D01*
X68736553Y-96199342D02*
X68688934Y-96246961D01*
X68688934Y-96246961D02*
X68593696Y-96294580D01*
X68593696Y-96294580D02*
X68498458Y-96294580D01*
X68498458Y-96294580D02*
X68403220Y-96246961D01*
X68403220Y-96246961D02*
X68355601Y-96199342D01*
X68355601Y-95818390D02*
X68355601Y-96199342D01*
X68355601Y-96199342D02*
X68307982Y-96246961D01*
X68307982Y-96246961D02*
X68260363Y-96246961D01*
X68260363Y-96246961D02*
X68165124Y-96199342D01*
X68165124Y-96199342D02*
X68117505Y-96104104D01*
X68117505Y-96104104D02*
X68117505Y-95866009D01*
X68117505Y-95866009D02*
X68212744Y-95723152D01*
X68212744Y-95723152D02*
X68355601Y-95627914D01*
X68355601Y-95627914D02*
X68546077Y-95580295D01*
X68546077Y-95580295D02*
X68736553Y-95627914D01*
X68736553Y-95627914D02*
X68879410Y-95723152D01*
X68879410Y-95723152D02*
X68974648Y-95866009D01*
X68974648Y-95866009D02*
X69022267Y-96056485D01*
X69022267Y-96056485D02*
X68974648Y-96246961D01*
X68974648Y-96246961D02*
X68879410Y-96389819D01*
X68879410Y-96389819D02*
X68736553Y-96485057D01*
X68736553Y-96485057D02*
X68546077Y-96532676D01*
X68546077Y-96532676D02*
X68355601Y-96485057D01*
X68355601Y-96485057D02*
X68212744Y-96389819D01*
X67260363Y-95723152D02*
X67260363Y-96532676D01*
X67260363Y-96532676D02*
X67307982Y-96627914D01*
X67307982Y-96627914D02*
X67355601Y-96675533D01*
X67355601Y-96675533D02*
X67450839Y-96723152D01*
X67450839Y-96723152D02*
X67593696Y-96723152D01*
X67593696Y-96723152D02*
X67688934Y-96675533D01*
X67260363Y-96342200D02*
X67355601Y-96389819D01*
X67355601Y-96389819D02*
X67546077Y-96389819D01*
X67546077Y-96389819D02*
X67641315Y-96342200D01*
X67641315Y-96342200D02*
X67688934Y-96294580D01*
X67688934Y-96294580D02*
X67736553Y-96199342D01*
X67736553Y-96199342D02*
X67736553Y-95913628D01*
X67736553Y-95913628D02*
X67688934Y-95818390D01*
X67688934Y-95818390D02*
X67641315Y-95770771D01*
X67641315Y-95770771D02*
X67546077Y-95723152D01*
X67546077Y-95723152D02*
X67355601Y-95723152D01*
X67355601Y-95723152D02*
X67260363Y-95770771D01*
X66784172Y-96389819D02*
X66784172Y-95723152D01*
X66784172Y-95818390D02*
X66736553Y-95770771D01*
X66736553Y-95770771D02*
X66641315Y-95723152D01*
X66641315Y-95723152D02*
X66498458Y-95723152D01*
X66498458Y-95723152D02*
X66403220Y-95770771D01*
X66403220Y-95770771D02*
X66355601Y-95866009D01*
X66355601Y-95866009D02*
X66355601Y-96389819D01*
X66355601Y-95866009D02*
X66307982Y-95770771D01*
X66307982Y-95770771D02*
X66212744Y-95723152D01*
X66212744Y-95723152D02*
X66069887Y-95723152D01*
X66069887Y-95723152D02*
X65974648Y-95770771D01*
X65974648Y-95770771D02*
X65927029Y-95866009D01*
X65927029Y-95866009D02*
X65927029Y-96389819D01*
X65022268Y-96389819D02*
X65022268Y-95866009D01*
X65022268Y-95866009D02*
X65069887Y-95770771D01*
X65069887Y-95770771D02*
X65165125Y-95723152D01*
X65165125Y-95723152D02*
X65355601Y-95723152D01*
X65355601Y-95723152D02*
X65450839Y-95770771D01*
X65022268Y-96342200D02*
X65117506Y-96389819D01*
X65117506Y-96389819D02*
X65355601Y-96389819D01*
X65355601Y-96389819D02*
X65450839Y-96342200D01*
X65450839Y-96342200D02*
X65498458Y-96246961D01*
X65498458Y-96246961D02*
X65498458Y-96151723D01*
X65498458Y-96151723D02*
X65450839Y-96056485D01*
X65450839Y-96056485D02*
X65355601Y-96008866D01*
X65355601Y-96008866D02*
X65117506Y-96008866D01*
X65117506Y-96008866D02*
X65022268Y-95961247D01*
X64546077Y-96389819D02*
X64546077Y-95723152D01*
X64546077Y-95389819D02*
X64593696Y-95437438D01*
X64593696Y-95437438D02*
X64546077Y-95485057D01*
X64546077Y-95485057D02*
X64498458Y-95437438D01*
X64498458Y-95437438D02*
X64546077Y-95389819D01*
X64546077Y-95389819D02*
X64546077Y-95485057D01*
X63927030Y-96389819D02*
X64022268Y-96342200D01*
X64022268Y-96342200D02*
X64069887Y-96246961D01*
X64069887Y-96246961D02*
X64069887Y-95389819D01*
X63546077Y-96294580D02*
X63498458Y-96342200D01*
X63498458Y-96342200D02*
X63546077Y-96389819D01*
X63546077Y-96389819D02*
X63593696Y-96342200D01*
X63593696Y-96342200D02*
X63546077Y-96294580D01*
X63546077Y-96294580D02*
X63546077Y-96389819D01*
X62641316Y-96342200D02*
X62736554Y-96389819D01*
X62736554Y-96389819D02*
X62927030Y-96389819D01*
X62927030Y-96389819D02*
X63022268Y-96342200D01*
X63022268Y-96342200D02*
X63069887Y-96294580D01*
X63069887Y-96294580D02*
X63117506Y-96199342D01*
X63117506Y-96199342D02*
X63117506Y-95913628D01*
X63117506Y-95913628D02*
X63069887Y-95818390D01*
X63069887Y-95818390D02*
X63022268Y-95770771D01*
X63022268Y-95770771D02*
X62927030Y-95723152D01*
X62927030Y-95723152D02*
X62736554Y-95723152D01*
X62736554Y-95723152D02*
X62641316Y-95770771D01*
X62069887Y-96389819D02*
X62165125Y-96342200D01*
X62165125Y-96342200D02*
X62212744Y-96294580D01*
X62212744Y-96294580D02*
X62260363Y-96199342D01*
X62260363Y-96199342D02*
X62260363Y-95913628D01*
X62260363Y-95913628D02*
X62212744Y-95818390D01*
X62212744Y-95818390D02*
X62165125Y-95770771D01*
X62165125Y-95770771D02*
X62069887Y-95723152D01*
X62069887Y-95723152D02*
X61927030Y-95723152D01*
X61927030Y-95723152D02*
X61831792Y-95770771D01*
X61831792Y-95770771D02*
X61784173Y-95818390D01*
X61784173Y-95818390D02*
X61736554Y-95913628D01*
X61736554Y-95913628D02*
X61736554Y-96199342D01*
X61736554Y-96199342D02*
X61784173Y-96294580D01*
X61784173Y-96294580D02*
X61831792Y-96342200D01*
X61831792Y-96342200D02*
X61927030Y-96389819D01*
X61927030Y-96389819D02*
X62069887Y-96389819D01*
X61307982Y-96389819D02*
X61307982Y-95723152D01*
X61307982Y-95818390D02*
X61260363Y-95770771D01*
X61260363Y-95770771D02*
X61165125Y-95723152D01*
X61165125Y-95723152D02*
X61022268Y-95723152D01*
X61022268Y-95723152D02*
X60927030Y-95770771D01*
X60927030Y-95770771D02*
X60879411Y-95866009D01*
X60879411Y-95866009D02*
X60879411Y-96389819D01*
X60879411Y-95866009D02*
X60831792Y-95770771D01*
X60831792Y-95770771D02*
X60736554Y-95723152D01*
X60736554Y-95723152D02*
X60593697Y-95723152D01*
X60593697Y-95723152D02*
X60498458Y-95770771D01*
X60498458Y-95770771D02*
X60450839Y-95866009D01*
X60450839Y-95866009D02*
X60450839Y-96389819D01*
D11*
G36*
X69908756Y-56743018D02*
G01*
X70240024Y-56816992D01*
X70442372Y-57002173D01*
X70545748Y-57321255D01*
X70557281Y-57427941D01*
X70510393Y-57771239D01*
X70346523Y-58032091D01*
X70090425Y-58164644D01*
X69718314Y-58177536D01*
X69385557Y-58065217D01*
X69164461Y-57838116D01*
X69084264Y-57515109D01*
X69091282Y-57367662D01*
X69195748Y-57019034D01*
X69424747Y-56809237D01*
X69777524Y-56739118D01*
X69908756Y-56743018D01*
G37*
G36*
X67342187Y-49592492D02*
G01*
X67403382Y-49832718D01*
X67397464Y-49901839D01*
X67261620Y-50146031D01*
X66950462Y-50344688D01*
X66469558Y-50493869D01*
X66108465Y-50543714D01*
X65645373Y-50538367D01*
X65197538Y-50469004D01*
X64799222Y-50346721D01*
X64484689Y-50182611D01*
X64288199Y-49987767D01*
X64244017Y-49773282D01*
X64264781Y-49695902D01*
X64407763Y-49519846D01*
X64659642Y-49495104D01*
X65020815Y-49621597D01*
X65512220Y-49787662D01*
X66074111Y-49803795D01*
X66624298Y-49634959D01*
X66865522Y-49535856D01*
X67161467Y-49493174D01*
X67342187Y-49592492D01*
G37*
G36*
X73955965Y-40246999D02*
G01*
X74310712Y-40416945D01*
X74567466Y-40691380D01*
X74712549Y-41032434D01*
X74732285Y-41402238D01*
X74612999Y-41762926D01*
X74341014Y-42076628D01*
X74057657Y-42217415D01*
X73644259Y-42264853D01*
X73338135Y-42245303D01*
X73119919Y-42162323D01*
X72909794Y-41981486D01*
X72746758Y-41787116D01*
X72655528Y-41561460D01*
X72632794Y-41244101D01*
X72633342Y-41168448D01*
X72660420Y-40897933D01*
X72757082Y-40704915D01*
X72962881Y-40500262D01*
X73074074Y-40408548D01*
X73353177Y-40253664D01*
X73667030Y-40210441D01*
X73955965Y-40246999D01*
G37*
G36*
X67268915Y-48526123D02*
G01*
X67368369Y-48650988D01*
X67388159Y-48879723D01*
X67255544Y-49119543D01*
X66983161Y-49334687D01*
X66642749Y-49462385D01*
X66180582Y-49539575D01*
X65681476Y-49555846D01*
X65215839Y-49509125D01*
X64854076Y-49397342D01*
X64733357Y-49332622D01*
X64411880Y-49105327D01*
X64245186Y-48884497D01*
X64241311Y-48685859D01*
X64408295Y-48525138D01*
X64506222Y-48490542D01*
X64714038Y-48504481D01*
X65023022Y-48615235D01*
X65531026Y-48765223D01*
X66129748Y-48774847D01*
X66704917Y-48604153D01*
X66720952Y-48596640D01*
X66985284Y-48487589D01*
X67149038Y-48466699D01*
X67268915Y-48526123D01*
G37*
G36*
X68030771Y-55732651D02*
G01*
X68180025Y-55849275D01*
X68380419Y-56028807D01*
X68583519Y-56225364D01*
X68740896Y-56393064D01*
X68804117Y-56486024D01*
X68796799Y-56507805D01*
X68730421Y-56651900D01*
X68617353Y-56879191D01*
X68483838Y-57206974D01*
X68445257Y-57596101D01*
X68568375Y-57953088D01*
X68673621Y-58138078D01*
X68763145Y-58301683D01*
X68758887Y-58376592D01*
X68657081Y-58561883D01*
X68467418Y-58791940D01*
X68316959Y-58940628D01*
X68120297Y-59103683D01*
X67995878Y-59167059D01*
X67963259Y-59160650D01*
X67810940Y-59043505D01*
X67631291Y-58816208D01*
X67458978Y-58527621D01*
X67328664Y-58226605D01*
X67251010Y-57875601D01*
X67220837Y-57432306D01*
X67247322Y-57004510D01*
X67330376Y-56673475D01*
X67390443Y-56544870D01*
X67551899Y-56251284D01*
X67726644Y-55983115D01*
X67882431Y-55787583D01*
X67987013Y-55711912D01*
X68030771Y-55732651D01*
G37*
G36*
X73958274Y-38302947D02*
G01*
X74374195Y-38312469D01*
X74675189Y-38336715D01*
X74909965Y-38383787D01*
X75127229Y-38461786D01*
X75375691Y-38578811D01*
X75701102Y-38763012D01*
X75967749Y-38997635D01*
X76067641Y-39241396D01*
X76011550Y-39510074D01*
X75869849Y-39689894D01*
X75628542Y-39743530D01*
X75420147Y-39716851D01*
X75293316Y-39648732D01*
X75288000Y-39640862D01*
X75128144Y-39521854D01*
X74838365Y-39391489D01*
X74468945Y-39269255D01*
X74070167Y-39174643D01*
X73700362Y-39147356D01*
X73235568Y-39188363D01*
X72770833Y-39290380D01*
X72368066Y-39439441D01*
X72089175Y-39621576D01*
X71928114Y-39716923D01*
X71659208Y-39723602D01*
X71402831Y-39588983D01*
X71310732Y-39491022D01*
X71227413Y-39274082D01*
X71315886Y-39053050D01*
X71580552Y-38820730D01*
X72025808Y-38569925D01*
X72170065Y-38500792D01*
X72396660Y-38406064D01*
X72614834Y-38346544D01*
X72873374Y-38314433D01*
X73221064Y-38301932D01*
X73706691Y-38301244D01*
X73958274Y-38302947D01*
G37*
G36*
X66987660Y-54971809D02*
G01*
X67412572Y-55396721D01*
X67014053Y-55993507D01*
X66867740Y-56216276D01*
X66725770Y-56466001D01*
X66650014Y-56689489D01*
X66619332Y-56957733D01*
X66612583Y-57341728D01*
X66617966Y-57774734D01*
X66651844Y-58154918D01*
X66730431Y-58453528D01*
X66869464Y-58726881D01*
X67084679Y-59031298D01*
X67419701Y-59470200D01*
X67018569Y-59878924D01*
X66828718Y-60066243D01*
X66653679Y-60224848D01*
X66566843Y-60284677D01*
X66551718Y-60282535D01*
X66404851Y-60200232D01*
X66256875Y-60056006D01*
X66189411Y-59927169D01*
X66185423Y-59893754D01*
X66110878Y-59820735D01*
X66102556Y-59818197D01*
X66014871Y-59715410D01*
X65877762Y-59492356D01*
X65717077Y-59190405D01*
X65610153Y-58972453D01*
X65511231Y-58740033D01*
X65450002Y-58520416D01*
X65417515Y-58263712D01*
X65404821Y-57920032D01*
X65402969Y-57439485D01*
X65403549Y-57235006D01*
X65410879Y-56803434D01*
X65432560Y-56492575D01*
X65476087Y-56254532D01*
X65548953Y-56041405D01*
X65658653Y-55805294D01*
X65772471Y-55594781D01*
X66007032Y-55223929D01*
X66237962Y-54919294D01*
X66562748Y-54546897D01*
X66987660Y-54971809D01*
G37*
G36*
X74460289Y-36227401D02*
G01*
X74942667Y-36299864D01*
X75332104Y-36406954D01*
X75816233Y-36574492D01*
X76290187Y-36769887D01*
X76720258Y-36976721D01*
X77072738Y-37178576D01*
X77313918Y-37359033D01*
X77410090Y-37501673D01*
X77417633Y-37609723D01*
X77386190Y-37908753D01*
X77276254Y-38080481D01*
X77237834Y-38102475D01*
X76973611Y-38143989D01*
X76648235Y-38020674D01*
X76514776Y-37946473D01*
X75940380Y-37658002D01*
X75376271Y-37418515D01*
X74892760Y-37258540D01*
X74785909Y-37233228D01*
X74240430Y-37158053D01*
X73615179Y-37137505D01*
X72990323Y-37171533D01*
X72446029Y-37260086D01*
X72389113Y-37274594D01*
X72061866Y-37376190D01*
X71701762Y-37510129D01*
X71361562Y-37654335D01*
X71094025Y-37786734D01*
X70951911Y-37885248D01*
X70794476Y-38001871D01*
X70524608Y-38110989D01*
X70255681Y-38156030D01*
X70092928Y-38123863D01*
X69918696Y-37968819D01*
X69863627Y-37733639D01*
X69951794Y-37472474D01*
X69993960Y-37420231D01*
X70222356Y-37236542D01*
X70571935Y-37025900D01*
X70999770Y-36809020D01*
X71462933Y-36606613D01*
X71918498Y-36439394D01*
X72323538Y-36328074D01*
X72626323Y-36275622D01*
X73232122Y-36216034D01*
X73866776Y-36199709D01*
X74460289Y-36227401D01*
G37*
G36*
X74483539Y-34244088D02*
G01*
X75089713Y-34294524D01*
X75568212Y-34378657D01*
X75583910Y-34382669D01*
X76086855Y-34515285D01*
X76471363Y-34630100D01*
X76799543Y-34749682D01*
X77133508Y-34896599D01*
X77535367Y-35093418D01*
X77960733Y-35311042D01*
X78327449Y-35515003D01*
X78569583Y-35680750D01*
X78711889Y-35829180D01*
X78779120Y-35981190D01*
X78796029Y-36157677D01*
X78793525Y-36245913D01*
X78738281Y-36452695D01*
X78585919Y-36562042D01*
X78505573Y-36584379D01*
X78291228Y-36562957D01*
X78002279Y-36423623D01*
X77857863Y-36339703D01*
X76989387Y-35879627D01*
X76188375Y-35545512D01*
X75408120Y-35323581D01*
X74601919Y-35200054D01*
X73723067Y-35161153D01*
X73186014Y-35172647D01*
X72129471Y-35282997D01*
X71171915Y-35518614D01*
X70278099Y-35889681D01*
X69412771Y-36406381D01*
X69163036Y-36567385D01*
X68966328Y-36645220D01*
X68808119Y-36616639D01*
X68631641Y-36487539D01*
X68536391Y-36391902D01*
X68443416Y-36196471D01*
X68494448Y-35991844D01*
X68698115Y-35766600D01*
X69063045Y-35509320D01*
X69597867Y-35208581D01*
X69911292Y-35045717D01*
X70240783Y-34883259D01*
X70527462Y-34760243D01*
X70827324Y-34655456D01*
X71196360Y-34547685D01*
X71690562Y-34415714D01*
X71900602Y-34368613D01*
X72458221Y-34289609D01*
X73111868Y-34242165D01*
X73805616Y-34226812D01*
X74483539Y-34244088D01*
G37*
G36*
X65953116Y-42314753D02*
G01*
X66359254Y-42325577D01*
X66648973Y-42359140D01*
X66877373Y-42424769D01*
X67099557Y-42531790D01*
X67495955Y-42803663D01*
X67943704Y-43258893D01*
X68298903Y-43793338D01*
X68532978Y-44362036D01*
X68617353Y-44920025D01*
X68601882Y-45134260D01*
X68486811Y-45643711D01*
X68268736Y-46246167D01*
X67958688Y-46908328D01*
X67894076Y-47034629D01*
X67738758Y-47351818D01*
X67630683Y-47592876D01*
X67590147Y-47713457D01*
X67555363Y-47810468D01*
X67435600Y-47977169D01*
X67304610Y-48082557D01*
X67115055Y-48147941D01*
X67059831Y-48141147D01*
X66920699Y-48022710D01*
X66862371Y-47786516D01*
X66883601Y-47471262D01*
X66983144Y-47115648D01*
X67159755Y-46758374D01*
X67230313Y-46637497D01*
X67404586Y-46289703D01*
X67576765Y-45891292D01*
X67725806Y-45496329D01*
X67830664Y-45158880D01*
X67870294Y-44933009D01*
X67867965Y-44882227D01*
X67793599Y-44561443D01*
X67640030Y-44186632D01*
X67441805Y-43831705D01*
X67233471Y-43570576D01*
X67211434Y-43550073D01*
X66820538Y-43260329D01*
X66396202Y-43104858D01*
X65871782Y-43058603D01*
X65634715Y-43069289D01*
X65044479Y-43206286D01*
X64556928Y-43493463D01*
X64185236Y-43921120D01*
X63942575Y-44479552D01*
X63896248Y-44705413D01*
X63893690Y-45082065D01*
X63984349Y-45510735D01*
X64175935Y-46022782D01*
X64476160Y-46649565D01*
X64521072Y-46737868D01*
X64744937Y-47227420D01*
X64858200Y-47593507D01*
X64865130Y-47856278D01*
X64770000Y-48035882D01*
X64689657Y-48105542D01*
X64555572Y-48154744D01*
X64418654Y-48094728D01*
X64262650Y-47909295D01*
X64071311Y-47582248D01*
X63828384Y-47097390D01*
X63628271Y-46673588D01*
X63442216Y-46263600D01*
X63297617Y-45928019D01*
X63215089Y-45713370D01*
X63151135Y-45471529D01*
X63106209Y-44827108D01*
X63231061Y-44190016D01*
X63514954Y-43586087D01*
X63947151Y-43041156D01*
X64516916Y-42581057D01*
X64683360Y-42479313D01*
X64875952Y-42391079D01*
X65092810Y-42341609D01*
X65388073Y-42319792D01*
X65815882Y-42314520D01*
X65953116Y-42314753D01*
G37*
G36*
X84577197Y-48585944D02*
G01*
X84580990Y-48978283D01*
X84552018Y-49324160D01*
X84488900Y-49555128D01*
X84487566Y-49557610D01*
X84253222Y-49871385D01*
X83918273Y-50177251D01*
X83557869Y-50406491D01*
X83073073Y-50551517D01*
X82551537Y-50536946D01*
X82046984Y-50363554D01*
X81591691Y-50042666D01*
X81217936Y-49585604D01*
X81217605Y-49585068D01*
X81063568Y-49174275D01*
X81033042Y-48689575D01*
X81033694Y-48685658D01*
X82095118Y-48685658D01*
X82152151Y-49019344D01*
X82352064Y-49291875D01*
X82401610Y-49328693D01*
X82718816Y-49444327D01*
X83057350Y-49414807D01*
X83357991Y-49255349D01*
X83561519Y-48981165D01*
X83583294Y-48920217D01*
X83596388Y-48584598D01*
X83450765Y-48265566D01*
X83166201Y-48011617D01*
X82904853Y-47857235D01*
X82904853Y-45574647D01*
X82904774Y-45453897D01*
X82899943Y-44697594D01*
X82887860Y-44095024D01*
X82868862Y-43654422D01*
X82843287Y-43384022D01*
X82811470Y-43292059D01*
X82804774Y-43295686D01*
X82774418Y-43423601D01*
X82750253Y-43728633D01*
X82732596Y-44202801D01*
X82721768Y-44838123D01*
X82718088Y-45626618D01*
X82716613Y-46217174D01*
X82709506Y-46875988D01*
X82696040Y-47368180D01*
X82675689Y-47705366D01*
X82647927Y-47899160D01*
X82612225Y-47961177D01*
X82596493Y-47963366D01*
X82456373Y-48048162D01*
X82280202Y-48217978D01*
X82185249Y-48354855D01*
X82095118Y-48685658D01*
X81033694Y-48685658D01*
X81116530Y-48188071D01*
X81304536Y-47726866D01*
X81587563Y-47363064D01*
X81648545Y-47300932D01*
X81696958Y-47220646D01*
X81732251Y-47100143D01*
X81756489Y-46915000D01*
X81771743Y-46640792D01*
X81780078Y-46253094D01*
X81783562Y-45727482D01*
X81784264Y-45039531D01*
X81784264Y-42893891D01*
X82117752Y-42579372D01*
X82149429Y-42550289D01*
X82529133Y-42315432D01*
X82934465Y-42265530D01*
X83363810Y-42400813D01*
X83525820Y-42498828D01*
X83661360Y-42628299D01*
X83763353Y-42806252D01*
X83836426Y-43055721D01*
X83885206Y-43399736D01*
X83914320Y-43861330D01*
X83928395Y-44463534D01*
X83932058Y-45229382D01*
X83932447Y-45750524D01*
X83935299Y-46297105D01*
X83942844Y-46700905D01*
X83957294Y-46987011D01*
X83980862Y-47180509D01*
X84015758Y-47306486D01*
X84064195Y-47390029D01*
X84128384Y-47456226D01*
X84288035Y-47633339D01*
X84455222Y-47886282D01*
X84476841Y-47935666D01*
X84542020Y-48215590D01*
X84577069Y-48584598D01*
X84577197Y-48585944D01*
G37*
G36*
X88414411Y-63182500D02*
G01*
X83594408Y-63182500D01*
X82504671Y-63183245D01*
X81561877Y-63185810D01*
X80775227Y-63190600D01*
X80129258Y-63198024D01*
X79608503Y-63208486D01*
X79197496Y-63222395D01*
X78880773Y-63240156D01*
X78642869Y-63262177D01*
X78468316Y-63288864D01*
X78341651Y-63320624D01*
X78255779Y-63347277D01*
X77871881Y-63457400D01*
X77386773Y-63587550D01*
X76862823Y-63721656D01*
X76362399Y-63843647D01*
X75947867Y-63937452D01*
X75718318Y-63991417D01*
X75348321Y-64088226D01*
X74967353Y-64195963D01*
X74652962Y-64279880D01*
X74306835Y-64353510D01*
X74056875Y-64385886D01*
X73753382Y-64396471D01*
X73753382Y-63789485D01*
X73753382Y-63182500D01*
X66282794Y-63182500D01*
X58812206Y-63182500D01*
X58812206Y-52609360D01*
X58812206Y-42524519D01*
X59932794Y-42524519D01*
X59932794Y-52293216D01*
X59932794Y-62061912D01*
X64601911Y-62061912D01*
X69271029Y-62061912D01*
X69271029Y-60441616D01*
X69271029Y-58821320D01*
X69714595Y-58828716D01*
X69845330Y-58827658D01*
X70132175Y-58803730D01*
X70321581Y-58758139D01*
X70368415Y-58742069D01*
X70414529Y-58760090D01*
X70446613Y-58844213D01*
X70467184Y-59018568D01*
X70478760Y-59307288D01*
X70483859Y-59734504D01*
X70485000Y-60324347D01*
X70485000Y-61968530D01*
X72119191Y-61968530D01*
X73753382Y-61968530D01*
X73753382Y-57439485D01*
X73753382Y-57112647D01*
X74967353Y-57112647D01*
X74967353Y-57439485D01*
X74967353Y-57766324D01*
X75714411Y-57766324D01*
X76461470Y-57766324D01*
X76461470Y-57439485D01*
X76461470Y-57112647D01*
X75714411Y-57112647D01*
X74967353Y-57112647D01*
X73753382Y-57112647D01*
X73753382Y-52910441D01*
X72119191Y-52910441D01*
X70485000Y-52910441D01*
X70485000Y-54554623D01*
X70484391Y-55017215D01*
X70480427Y-55482020D01*
X70470550Y-55802679D01*
X70452245Y-56003446D01*
X70422994Y-56108573D01*
X70380278Y-56142312D01*
X70321581Y-56128916D01*
X70134402Y-56063083D01*
X69764494Y-56013015D01*
X69468518Y-56079702D01*
X69271029Y-56185395D01*
X69271029Y-53940933D01*
X69271029Y-51696471D01*
X71508115Y-51696471D01*
X73745200Y-51696471D01*
X73772637Y-51054959D01*
X73800073Y-50413448D01*
X74648643Y-50622475D01*
X74815525Y-50663881D01*
X75226682Y-50768221D01*
X75580918Y-50861142D01*
X75815923Y-50926421D01*
X75987728Y-50973280D01*
X76329981Y-51056097D01*
X76694926Y-51135568D01*
X76931565Y-51186520D01*
X77338083Y-51283220D01*
X77675441Y-51373606D01*
X77754011Y-51396549D01*
X78136267Y-51504541D01*
X78492536Y-51600691D01*
X78889411Y-51703968D01*
X78889411Y-56882940D01*
X78889411Y-57112647D01*
X78889411Y-62061912D01*
X83138308Y-62061912D01*
X87387206Y-62061912D01*
X87387206Y-52313469D01*
X87387206Y-42565027D01*
X80513154Y-35692157D01*
X73639102Y-28819288D01*
X66785948Y-35671903D01*
X59932794Y-42524519D01*
X58812206Y-42524519D01*
X58812206Y-42036221D01*
X66166066Y-34680325D01*
X66414398Y-34431991D01*
X67381510Y-33466148D01*
X68310656Y-32540216D01*
X69193304Y-31662594D01*
X70020925Y-30841685D01*
X70784985Y-30085887D01*
X71476954Y-29403601D01*
X72088301Y-28803227D01*
X72610494Y-28293166D01*
X73035001Y-27881818D01*
X73353292Y-27577583D01*
X73556835Y-27388861D01*
X73637099Y-27324053D01*
X73644249Y-27327554D01*
X73753780Y-27421613D01*
X73984617Y-27637616D01*
X74328210Y-27967148D01*
X74776015Y-28401798D01*
X75319482Y-28933153D01*
X75950065Y-29552801D01*
X76659216Y-30252330D01*
X77438388Y-31023327D01*
X78279034Y-31857379D01*
X79172607Y-32746075D01*
X80110558Y-33681002D01*
X81084341Y-34653747D01*
X88414411Y-41983817D01*
X88414411Y-52583158D01*
X88414411Y-62061912D01*
X88414411Y-63182500D01*
G37*
G36*
X69908756Y-56743018D02*
G01*
X70240024Y-56816992D01*
X70442372Y-57002173D01*
X70545748Y-57321255D01*
X70557281Y-57427941D01*
X70510393Y-57771239D01*
X70346523Y-58032091D01*
X70090425Y-58164644D01*
X69718314Y-58177536D01*
X69385557Y-58065217D01*
X69164461Y-57838116D01*
X69084264Y-57515109D01*
X69091282Y-57367662D01*
X69195748Y-57019034D01*
X69424747Y-56809237D01*
X69777524Y-56739118D01*
X69908756Y-56743018D01*
G37*
G36*
X67342187Y-49592492D02*
G01*
X67403382Y-49832718D01*
X67397464Y-49901839D01*
X67261620Y-50146031D01*
X66950462Y-50344688D01*
X66469558Y-50493869D01*
X66108465Y-50543714D01*
X65645373Y-50538367D01*
X65197538Y-50469004D01*
X64799222Y-50346721D01*
X64484689Y-50182611D01*
X64288199Y-49987767D01*
X64244017Y-49773282D01*
X64264781Y-49695902D01*
X64407763Y-49519846D01*
X64659642Y-49495104D01*
X65020815Y-49621597D01*
X65512220Y-49787662D01*
X66074111Y-49803795D01*
X66624298Y-49634959D01*
X66865522Y-49535856D01*
X67161467Y-49493174D01*
X67342187Y-49592492D01*
G37*
G36*
X73955965Y-40246999D02*
G01*
X74310712Y-40416945D01*
X74567466Y-40691380D01*
X74712549Y-41032434D01*
X74732285Y-41402238D01*
X74612999Y-41762926D01*
X74341014Y-42076628D01*
X74057657Y-42217415D01*
X73644259Y-42264853D01*
X73338135Y-42245303D01*
X73119919Y-42162323D01*
X72909794Y-41981486D01*
X72746758Y-41787116D01*
X72655528Y-41561460D01*
X72632794Y-41244101D01*
X72633342Y-41168448D01*
X72660420Y-40897933D01*
X72757082Y-40704915D01*
X72962881Y-40500262D01*
X73074074Y-40408548D01*
X73353177Y-40253664D01*
X73667030Y-40210441D01*
X73955965Y-40246999D01*
G37*
G36*
X67268915Y-48526123D02*
G01*
X67368369Y-48650988D01*
X67388159Y-48879723D01*
X67255544Y-49119543D01*
X66983161Y-49334687D01*
X66642749Y-49462385D01*
X66180582Y-49539575D01*
X65681476Y-49555846D01*
X65215839Y-49509125D01*
X64854076Y-49397342D01*
X64733357Y-49332622D01*
X64411880Y-49105327D01*
X64245186Y-48884497D01*
X64241311Y-48685859D01*
X64408295Y-48525138D01*
X64506222Y-48490542D01*
X64714038Y-48504481D01*
X65023022Y-48615235D01*
X65531026Y-48765223D01*
X66129748Y-48774847D01*
X66704917Y-48604153D01*
X66720952Y-48596640D01*
X66985284Y-48487589D01*
X67149038Y-48466699D01*
X67268915Y-48526123D01*
G37*
G36*
X68030771Y-55732651D02*
G01*
X68180025Y-55849275D01*
X68380419Y-56028807D01*
X68583519Y-56225364D01*
X68740896Y-56393064D01*
X68804117Y-56486024D01*
X68796799Y-56507805D01*
X68730421Y-56651900D01*
X68617353Y-56879191D01*
X68483838Y-57206974D01*
X68445257Y-57596101D01*
X68568375Y-57953088D01*
X68673621Y-58138078D01*
X68763145Y-58301683D01*
X68758887Y-58376592D01*
X68657081Y-58561883D01*
X68467418Y-58791940D01*
X68316959Y-58940628D01*
X68120297Y-59103683D01*
X67995878Y-59167059D01*
X67963259Y-59160650D01*
X67810940Y-59043505D01*
X67631291Y-58816208D01*
X67458978Y-58527621D01*
X67328664Y-58226605D01*
X67251010Y-57875601D01*
X67220837Y-57432306D01*
X67247322Y-57004510D01*
X67330376Y-56673475D01*
X67390443Y-56544870D01*
X67551899Y-56251284D01*
X67726644Y-55983115D01*
X67882431Y-55787583D01*
X67987013Y-55711912D01*
X68030771Y-55732651D01*
G37*
G36*
X73958274Y-38302947D02*
G01*
X74374195Y-38312469D01*
X74675189Y-38336715D01*
X74909965Y-38383787D01*
X75127229Y-38461786D01*
X75375691Y-38578811D01*
X75701102Y-38763012D01*
X75967749Y-38997635D01*
X76067641Y-39241396D01*
X76011550Y-39510074D01*
X75869849Y-39689894D01*
X75628542Y-39743530D01*
X75420147Y-39716851D01*
X75293316Y-39648732D01*
X75288000Y-39640862D01*
X75128144Y-39521854D01*
X74838365Y-39391489D01*
X74468945Y-39269255D01*
X74070167Y-39174643D01*
X73700362Y-39147356D01*
X73235568Y-39188363D01*
X72770833Y-39290380D01*
X72368066Y-39439441D01*
X72089175Y-39621576D01*
X71928114Y-39716923D01*
X71659208Y-39723602D01*
X71402831Y-39588983D01*
X71310732Y-39491022D01*
X71227413Y-39274082D01*
X71315886Y-39053050D01*
X71580552Y-38820730D01*
X72025808Y-38569925D01*
X72170065Y-38500792D01*
X72396660Y-38406064D01*
X72614834Y-38346544D01*
X72873374Y-38314433D01*
X73221064Y-38301932D01*
X73706691Y-38301244D01*
X73958274Y-38302947D01*
G37*
G36*
X66987660Y-54971809D02*
G01*
X67412572Y-55396721D01*
X67014053Y-55993507D01*
X66867740Y-56216276D01*
X66725770Y-56466001D01*
X66650014Y-56689489D01*
X66619332Y-56957733D01*
X66612583Y-57341728D01*
X66617966Y-57774734D01*
X66651844Y-58154918D01*
X66730431Y-58453528D01*
X66869464Y-58726881D01*
X67084679Y-59031298D01*
X67419701Y-59470200D01*
X67018569Y-59878924D01*
X66828718Y-60066243D01*
X66653679Y-60224848D01*
X66566843Y-60284677D01*
X66551718Y-60282535D01*
X66404851Y-60200232D01*
X66256875Y-60056006D01*
X66189411Y-59927169D01*
X66185423Y-59893754D01*
X66110878Y-59820735D01*
X66102556Y-59818197D01*
X66014871Y-59715410D01*
X65877762Y-59492356D01*
X65717077Y-59190405D01*
X65610153Y-58972453D01*
X65511231Y-58740033D01*
X65450002Y-58520416D01*
X65417515Y-58263712D01*
X65404821Y-57920032D01*
X65402969Y-57439485D01*
X65403549Y-57235006D01*
X65410879Y-56803434D01*
X65432560Y-56492575D01*
X65476087Y-56254532D01*
X65548953Y-56041405D01*
X65658653Y-55805294D01*
X65772471Y-55594781D01*
X66007032Y-55223929D01*
X66237962Y-54919294D01*
X66562748Y-54546897D01*
X66987660Y-54971809D01*
G37*
G36*
X74460289Y-36227401D02*
G01*
X74942667Y-36299864D01*
X75332104Y-36406954D01*
X75816233Y-36574492D01*
X76290187Y-36769887D01*
X76720258Y-36976721D01*
X77072738Y-37178576D01*
X77313918Y-37359033D01*
X77410090Y-37501673D01*
X77417633Y-37609723D01*
X77386190Y-37908753D01*
X77276254Y-38080481D01*
X77237834Y-38102475D01*
X76973611Y-38143989D01*
X76648235Y-38020674D01*
X76514776Y-37946473D01*
X75940380Y-37658002D01*
X75376271Y-37418515D01*
X74892760Y-37258540D01*
X74785909Y-37233228D01*
X74240430Y-37158053D01*
X73615179Y-37137505D01*
X72990323Y-37171533D01*
X72446029Y-37260086D01*
X72389113Y-37274594D01*
X72061866Y-37376190D01*
X71701762Y-37510129D01*
X71361562Y-37654335D01*
X71094025Y-37786734D01*
X70951911Y-37885248D01*
X70794476Y-38001871D01*
X70524608Y-38110989D01*
X70255681Y-38156030D01*
X70092928Y-38123863D01*
X69918696Y-37968819D01*
X69863627Y-37733639D01*
X69951794Y-37472474D01*
X69993960Y-37420231D01*
X70222356Y-37236542D01*
X70571935Y-37025900D01*
X70999770Y-36809020D01*
X71462933Y-36606613D01*
X71918498Y-36439394D01*
X72323538Y-36328074D01*
X72626323Y-36275622D01*
X73232122Y-36216034D01*
X73866776Y-36199709D01*
X74460289Y-36227401D01*
G37*
G36*
X74483539Y-34244088D02*
G01*
X75089713Y-34294524D01*
X75568212Y-34378657D01*
X75583910Y-34382669D01*
X76086855Y-34515285D01*
X76471363Y-34630100D01*
X76799543Y-34749682D01*
X77133508Y-34896599D01*
X77535367Y-35093418D01*
X77960733Y-35311042D01*
X78327449Y-35515003D01*
X78569583Y-35680750D01*
X78711889Y-35829180D01*
X78779120Y-35981190D01*
X78796029Y-36157677D01*
X78793525Y-36245913D01*
X78738281Y-36452695D01*
X78585919Y-36562042D01*
X78505573Y-36584379D01*
X78291228Y-36562957D01*
X78002279Y-36423623D01*
X77857863Y-36339703D01*
X76989387Y-35879627D01*
X76188375Y-35545512D01*
X75408120Y-35323581D01*
X74601919Y-35200054D01*
X73723067Y-35161153D01*
X73186014Y-35172647D01*
X72129471Y-35282997D01*
X71171915Y-35518614D01*
X70278099Y-35889681D01*
X69412771Y-36406381D01*
X69163036Y-36567385D01*
X68966328Y-36645220D01*
X68808119Y-36616639D01*
X68631641Y-36487539D01*
X68536391Y-36391902D01*
X68443416Y-36196471D01*
X68494448Y-35991844D01*
X68698115Y-35766600D01*
X69063045Y-35509320D01*
X69597867Y-35208581D01*
X69911292Y-35045717D01*
X70240783Y-34883259D01*
X70527462Y-34760243D01*
X70827324Y-34655456D01*
X71196360Y-34547685D01*
X71690562Y-34415714D01*
X71900602Y-34368613D01*
X72458221Y-34289609D01*
X73111868Y-34242165D01*
X73805616Y-34226812D01*
X74483539Y-34244088D01*
G37*
G36*
X65953116Y-42314753D02*
G01*
X66359254Y-42325577D01*
X66648973Y-42359140D01*
X66877373Y-42424769D01*
X67099557Y-42531790D01*
X67495955Y-42803663D01*
X67943704Y-43258893D01*
X68298903Y-43793338D01*
X68532978Y-44362036D01*
X68617353Y-44920025D01*
X68601882Y-45134260D01*
X68486811Y-45643711D01*
X68268736Y-46246167D01*
X67958688Y-46908328D01*
X67894076Y-47034629D01*
X67738758Y-47351818D01*
X67630683Y-47592876D01*
X67590147Y-47713457D01*
X67555363Y-47810468D01*
X67435600Y-47977169D01*
X67304610Y-48082557D01*
X67115055Y-48147941D01*
X67059831Y-48141147D01*
X66920699Y-48022710D01*
X66862371Y-47786516D01*
X66883601Y-47471262D01*
X66983144Y-47115648D01*
X67159755Y-46758374D01*
X67230313Y-46637497D01*
X67404586Y-46289703D01*
X67576765Y-45891292D01*
X67725806Y-45496329D01*
X67830664Y-45158880D01*
X67870294Y-44933009D01*
X67867965Y-44882227D01*
X67793599Y-44561443D01*
X67640030Y-44186632D01*
X67441805Y-43831705D01*
X67233471Y-43570576D01*
X67211434Y-43550073D01*
X66820538Y-43260329D01*
X66396202Y-43104858D01*
X65871782Y-43058603D01*
X65634715Y-43069289D01*
X65044479Y-43206286D01*
X64556928Y-43493463D01*
X64185236Y-43921120D01*
X63942575Y-44479552D01*
X63896248Y-44705413D01*
X63893690Y-45082065D01*
X63984349Y-45510735D01*
X64175935Y-46022782D01*
X64476160Y-46649565D01*
X64521072Y-46737868D01*
X64744937Y-47227420D01*
X64858200Y-47593507D01*
X64865130Y-47856278D01*
X64770000Y-48035882D01*
X64689657Y-48105542D01*
X64555572Y-48154744D01*
X64418654Y-48094728D01*
X64262650Y-47909295D01*
X64071311Y-47582248D01*
X63828384Y-47097390D01*
X63628271Y-46673588D01*
X63442216Y-46263600D01*
X63297617Y-45928019D01*
X63215089Y-45713370D01*
X63151135Y-45471529D01*
X63106209Y-44827108D01*
X63231061Y-44190016D01*
X63514954Y-43586087D01*
X63947151Y-43041156D01*
X64516916Y-42581057D01*
X64683360Y-42479313D01*
X64875952Y-42391079D01*
X65092810Y-42341609D01*
X65388073Y-42319792D01*
X65815882Y-42314520D01*
X65953116Y-42314753D01*
G37*
G36*
X84577197Y-48585944D02*
G01*
X84580990Y-48978283D01*
X84552018Y-49324160D01*
X84488900Y-49555128D01*
X84487566Y-49557610D01*
X84253222Y-49871385D01*
X83918273Y-50177251D01*
X83557869Y-50406491D01*
X83073073Y-50551517D01*
X82551537Y-50536946D01*
X82046984Y-50363554D01*
X81591691Y-50042666D01*
X81217936Y-49585604D01*
X81217605Y-49585068D01*
X81063568Y-49174275D01*
X81033042Y-48689575D01*
X81033694Y-48685658D01*
X82095118Y-48685658D01*
X82152151Y-49019344D01*
X82352064Y-49291875D01*
X82401610Y-49328693D01*
X82718816Y-49444327D01*
X83057350Y-49414807D01*
X83357991Y-49255349D01*
X83561519Y-48981165D01*
X83583294Y-48920217D01*
X83596388Y-48584598D01*
X83450765Y-48265566D01*
X83166201Y-48011617D01*
X82904853Y-47857235D01*
X82904853Y-45574647D01*
X82904774Y-45453897D01*
X82899943Y-44697594D01*
X82887860Y-44095024D01*
X82868862Y-43654422D01*
X82843287Y-43384022D01*
X82811470Y-43292059D01*
X82804774Y-43295686D01*
X82774418Y-43423601D01*
X82750253Y-43728633D01*
X82732596Y-44202801D01*
X82721768Y-44838123D01*
X82718088Y-45626618D01*
X82716613Y-46217174D01*
X82709506Y-46875988D01*
X82696040Y-47368180D01*
X82675689Y-47705366D01*
X82647927Y-47899160D01*
X82612225Y-47961177D01*
X82596493Y-47963366D01*
X82456373Y-48048162D01*
X82280202Y-48217978D01*
X82185249Y-48354855D01*
X82095118Y-48685658D01*
X81033694Y-48685658D01*
X81116530Y-48188071D01*
X81304536Y-47726866D01*
X81587563Y-47363064D01*
X81648545Y-47300932D01*
X81696958Y-47220646D01*
X81732251Y-47100143D01*
X81756489Y-46915000D01*
X81771743Y-46640792D01*
X81780078Y-46253094D01*
X81783562Y-45727482D01*
X81784264Y-45039531D01*
X81784264Y-42893891D01*
X82117752Y-42579372D01*
X82149429Y-42550289D01*
X82529133Y-42315432D01*
X82934465Y-42265530D01*
X83363810Y-42400813D01*
X83525820Y-42498828D01*
X83661360Y-42628299D01*
X83763353Y-42806252D01*
X83836426Y-43055721D01*
X83885206Y-43399736D01*
X83914320Y-43861330D01*
X83928395Y-44463534D01*
X83932058Y-45229382D01*
X83932447Y-45750524D01*
X83935299Y-46297105D01*
X83942844Y-46700905D01*
X83957294Y-46987011D01*
X83980862Y-47180509D01*
X84015758Y-47306486D01*
X84064195Y-47390029D01*
X84128384Y-47456226D01*
X84288035Y-47633339D01*
X84455222Y-47886282D01*
X84476841Y-47935666D01*
X84542020Y-48215590D01*
X84577069Y-48584598D01*
X84577197Y-48585944D01*
G37*
G36*
X88414411Y-63182500D02*
G01*
X83594408Y-63182500D01*
X82504671Y-63183245D01*
X81561877Y-63185810D01*
X80775227Y-63190600D01*
X80129258Y-63198024D01*
X79608503Y-63208486D01*
X79197496Y-63222395D01*
X78880773Y-63240156D01*
X78642869Y-63262177D01*
X78468316Y-63288864D01*
X78341651Y-63320624D01*
X78255779Y-63347277D01*
X77871881Y-63457400D01*
X77386773Y-63587550D01*
X76862823Y-63721656D01*
X76362399Y-63843647D01*
X75947867Y-63937452D01*
X75718318Y-63991417D01*
X75348321Y-64088226D01*
X74967353Y-64195963D01*
X74652962Y-64279880D01*
X74306835Y-64353510D01*
X74056875Y-64385886D01*
X73753382Y-64396471D01*
X73753382Y-63789485D01*
X73753382Y-63182500D01*
X66282794Y-63182500D01*
X58812206Y-63182500D01*
X58812206Y-52609360D01*
X58812206Y-42524519D01*
X59932794Y-42524519D01*
X59932794Y-52293216D01*
X59932794Y-62061912D01*
X64601911Y-62061912D01*
X69271029Y-62061912D01*
X69271029Y-60441616D01*
X69271029Y-58821320D01*
X69714595Y-58828716D01*
X69845330Y-58827658D01*
X70132175Y-58803730D01*
X70321581Y-58758139D01*
X70368415Y-58742069D01*
X70414529Y-58760090D01*
X70446613Y-58844213D01*
X70467184Y-59018568D01*
X70478760Y-59307288D01*
X70483859Y-59734504D01*
X70485000Y-60324347D01*
X70485000Y-61968530D01*
X72119191Y-61968530D01*
X73753382Y-61968530D01*
X73753382Y-57439485D01*
X73753382Y-57112647D01*
X74967353Y-57112647D01*
X74967353Y-57439485D01*
X74967353Y-57766324D01*
X75714411Y-57766324D01*
X76461470Y-57766324D01*
X76461470Y-57439485D01*
X76461470Y-57112647D01*
X75714411Y-57112647D01*
X74967353Y-57112647D01*
X73753382Y-57112647D01*
X73753382Y-52910441D01*
X72119191Y-52910441D01*
X70485000Y-52910441D01*
X70485000Y-54554623D01*
X70484391Y-55017215D01*
X70480427Y-55482020D01*
X70470550Y-55802679D01*
X70452245Y-56003446D01*
X70422994Y-56108573D01*
X70380278Y-56142312D01*
X70321581Y-56128916D01*
X70134402Y-56063083D01*
X69764494Y-56013015D01*
X69468518Y-56079702D01*
X69271029Y-56185395D01*
X69271029Y-53940933D01*
X69271029Y-51696471D01*
X71508115Y-51696471D01*
X73745200Y-51696471D01*
X73772637Y-51054959D01*
X73800073Y-50413448D01*
X74648643Y-50622475D01*
X74815525Y-50663881D01*
X75226682Y-50768221D01*
X75580918Y-50861142D01*
X75815923Y-50926421D01*
X75987728Y-50973280D01*
X76329981Y-51056097D01*
X76694926Y-51135568D01*
X76931565Y-51186520D01*
X77338083Y-51283220D01*
X77675441Y-51373606D01*
X77754011Y-51396549D01*
X78136267Y-51504541D01*
X78492536Y-51600691D01*
X78889411Y-51703968D01*
X78889411Y-56882940D01*
X78889411Y-57112647D01*
X78889411Y-62061912D01*
X83138308Y-62061912D01*
X87387206Y-62061912D01*
X87387206Y-52313469D01*
X87387206Y-42565027D01*
X80513154Y-35692157D01*
X73639102Y-28819288D01*
X66785948Y-35671903D01*
X59932794Y-42524519D01*
X58812206Y-42524519D01*
X58812206Y-42036221D01*
X66166066Y-34680325D01*
X66414398Y-34431991D01*
X67381510Y-33466148D01*
X68310656Y-32540216D01*
X69193304Y-31662594D01*
X70020925Y-30841685D01*
X70784985Y-30085887D01*
X71476954Y-29403601D01*
X72088301Y-28803227D01*
X72610494Y-28293166D01*
X73035001Y-27881818D01*
X73353292Y-27577583D01*
X73556835Y-27388861D01*
X73637099Y-27324053D01*
X73644249Y-27327554D01*
X73753780Y-27421613D01*
X73984617Y-27637616D01*
X74328210Y-27967148D01*
X74776015Y-28401798D01*
X75319482Y-28933153D01*
X75950065Y-29552801D01*
X76659216Y-30252330D01*
X77438388Y-31023327D01*
X78279034Y-31857379D01*
X79172607Y-32746075D01*
X80110558Y-33681002D01*
X81084341Y-34653747D01*
X88414411Y-41983817D01*
X88414411Y-52583158D01*
X88414411Y-62061912D01*
X88414411Y-63182500D01*
G37*
%LPC*%
D12*
X83820000Y-93900000D03*
D13*
X83820000Y-91400000D03*
X83820000Y-88900000D03*
D14*
X93980000Y-68580000D03*
D15*
X93980000Y-66040000D03*
X93980000Y-63500000D03*
D12*
X83820000Y-81200000D03*
D13*
X83820000Y-78700000D03*
X83820000Y-76200000D03*
X83820000Y-73700000D03*
X83820000Y-71200000D03*
D16*
X99060000Y-68580000D03*
D17*
X99060000Y-71120000D03*
D14*
X93980000Y-55880000D03*
D15*
X93980000Y-53340000D03*
X93980000Y-50800000D03*
D16*
X99060000Y-55880000D03*
D17*
X99060000Y-58420000D03*
D18*
X113030000Y-73660000D03*
D19*
X120650000Y-73660000D03*
D20*
X127000000Y-88900000D03*
D21*
X127000000Y-86360000D03*
X127000000Y-83820000D03*
X127000000Y-81280000D03*
X127000000Y-78740000D03*
X127000000Y-76200000D03*
X127000000Y-73660000D03*
X127000000Y-71120000D03*
X104140000Y-71120000D03*
X104140000Y-73660000D03*
X104140000Y-76200000D03*
X104140000Y-78740000D03*
X104140000Y-81280000D03*
X104140000Y-83820000D03*
X104140000Y-86360000D03*
X104140000Y-88900000D03*
D16*
X99060000Y-93980000D03*
D17*
X99060000Y-96520000D03*
D16*
X99060000Y-81280000D03*
D17*
X99060000Y-83820000D03*
D22*
X119380000Y-38100000D03*
D23*
X114300000Y-38100000D03*
D14*
X93980000Y-93980000D03*
D15*
X93980000Y-91440000D03*
X93980000Y-88900000D03*
D24*
X121940000Y-43540000D03*
X124140000Y-43540000D03*
X109740000Y-43540000D03*
X111940000Y-43540000D03*
X121940000Y-63340000D03*
X124140000Y-63340000D03*
X109740000Y-63340000D03*
X111940000Y-63340000D03*
D25*
X106680000Y-50800000D03*
D26*
X106680000Y-53340000D03*
X106680000Y-55880000D03*
D18*
X120650000Y-83820000D03*
D19*
X113030000Y-83820000D03*
D18*
X120650000Y-78740000D03*
D19*
X113030000Y-78740000D03*
D14*
X93980000Y-81280000D03*
D15*
X93980000Y-78740000D03*
X93980000Y-76200000D03*
D18*
X113030000Y-68607215D03*
D19*
X120650000Y-68607215D03*
%LPD*%
M02*
