G04 #@! TF.GenerationSoftware,KiCad,Pcbnew,8.0.4*
G04 #@! TF.CreationDate,2024-09-06T18:50:31+02:00*
G04 #@! TF.ProjectId,rgb_controller,7267625f-636f-46e7-9472-6f6c6c65722e,rev?*
G04 #@! TF.SameCoordinates,Original*
G04 #@! TF.FileFunction,Copper,L2,Bot*
G04 #@! TF.FilePolarity,Positive*
%FSLAX46Y46*%
G04 Gerber Fmt 4.6, Leading zero omitted, Abs format (unit mm)*
G04 Created by KiCad (PCBNEW 8.0.4) date 2024-09-06 18:50:31*
%MOMM*%
%LPD*%
G01*
G04 APERTURE LIST*
G04 Aperture macros list*
%AMRoundRect*
0 Rectangle with rounded corners*
0 $1 Rounding radius*
0 $2 $3 $4 $5 $6 $7 $8 $9 X,Y pos of 4 corners*
0 Add a 4 corners polygon primitive as box body*
4,1,4,$2,$3,$4,$5,$6,$7,$8,$9,$2,$3,0*
0 Add four circle primitives for the rounded corners*
1,1,$1+$1,$2,$3*
1,1,$1+$1,$4,$5*
1,1,$1+$1,$6,$7*
1,1,$1+$1,$8,$9*
0 Add four rect primitives between the rounded corners*
20,1,$1+$1,$2,$3,$4,$5,0*
20,1,$1+$1,$4,$5,$6,$7,0*
20,1,$1+$1,$6,$7,$8,$9,0*
20,1,$1+$1,$8,$9,$2,$3,0*%
G04 Aperture macros list end*
G04 #@! TA.AperFunction,ComponentPad*
%ADD10RoundRect,0.250000X0.725000X-0.600000X0.725000X0.600000X-0.725000X0.600000X-0.725000X-0.600000X0*%
G04 #@! TD*
G04 #@! TA.AperFunction,ComponentPad*
%ADD11O,1.950000X1.700000*%
G04 #@! TD*
G04 #@! TA.AperFunction,ComponentPad*
%ADD12R,2.000000X1.905000*%
G04 #@! TD*
G04 #@! TA.AperFunction,ComponentPad*
%ADD13O,2.000000X1.905000*%
G04 #@! TD*
G04 #@! TA.AperFunction,ComponentPad*
%ADD14C,1.400000*%
G04 #@! TD*
G04 #@! TA.AperFunction,ComponentPad*
%ADD15O,1.400000X1.400000*%
G04 #@! TD*
G04 #@! TA.AperFunction,ComponentPad*
%ADD16C,1.600000*%
G04 #@! TD*
G04 #@! TA.AperFunction,ComponentPad*
%ADD17O,1.600000X1.600000*%
G04 #@! TD*
G04 #@! TA.AperFunction,ComponentPad*
%ADD18R,2.000000X2.000000*%
G04 #@! TD*
G04 #@! TA.AperFunction,ComponentPad*
%ADD19O,2.000000X1.600000*%
G04 #@! TD*
G04 #@! TA.AperFunction,ComponentPad*
%ADD20R,3.000000X3.000000*%
G04 #@! TD*
G04 #@! TA.AperFunction,ComponentPad*
%ADD21C,3.000000*%
G04 #@! TD*
G04 #@! TA.AperFunction,ComponentPad*
%ADD22RoundRect,0.200000X0.900000X-0.900000X0.900000X0.900000X-0.900000X0.900000X-0.900000X-0.900000X0*%
G04 #@! TD*
G04 #@! TA.AperFunction,ComponentPad*
%ADD23R,1.700000X1.700000*%
G04 #@! TD*
G04 #@! TA.AperFunction,ComponentPad*
%ADD24O,1.700000X1.700000*%
G04 #@! TD*
G04 #@! TA.AperFunction,Conductor*
%ADD25C,2.540000*%
G04 #@! TD*
G04 #@! TA.AperFunction,Conductor*
%ADD26C,0.508000*%
G04 #@! TD*
G04 APERTURE END LIST*
D10*
X83820000Y-93900000D03*
D11*
X83820000Y-91400000D03*
X83820000Y-88900000D03*
D12*
X93980000Y-68580000D03*
D13*
X93980000Y-66040000D03*
X93980000Y-63500000D03*
D10*
X83820000Y-81200000D03*
D11*
X83820000Y-78700000D03*
X83820000Y-76200000D03*
X83820000Y-73700000D03*
X83820000Y-71200000D03*
D14*
X99060000Y-68580000D03*
D15*
X99060000Y-71120000D03*
D12*
X93980000Y-55880000D03*
D13*
X93980000Y-53340000D03*
X93980000Y-50800000D03*
D14*
X99060000Y-55880000D03*
D15*
X99060000Y-58420000D03*
D16*
X113030000Y-73660000D03*
D17*
X120650000Y-73660000D03*
D18*
X127000000Y-88900000D03*
D19*
X127000000Y-86360000D03*
X127000000Y-83820000D03*
X127000000Y-81280000D03*
X127000000Y-78740000D03*
X127000000Y-76200000D03*
X127000000Y-73660000D03*
X127000000Y-71120000D03*
X104140000Y-71120000D03*
X104140000Y-73660000D03*
X104140000Y-76200000D03*
X104140000Y-78740000D03*
X104140000Y-81280000D03*
X104140000Y-83820000D03*
X104140000Y-86360000D03*
X104140000Y-88900000D03*
D14*
X99060000Y-93980000D03*
D15*
X99060000Y-96520000D03*
D14*
X99060000Y-81280000D03*
D15*
X99060000Y-83820000D03*
D20*
X119380000Y-38100000D03*
D21*
X114300000Y-38100000D03*
D12*
X93980000Y-93980000D03*
D13*
X93980000Y-91440000D03*
X93980000Y-88900000D03*
D22*
X121940000Y-43540000D03*
X124140000Y-43540000D03*
X109740000Y-43540000D03*
X111940000Y-43540000D03*
X121940000Y-63340000D03*
X124140000Y-63340000D03*
X109740000Y-63340000D03*
X111940000Y-63340000D03*
D23*
X106680000Y-50800000D03*
D24*
X106680000Y-53340000D03*
X106680000Y-55880000D03*
D16*
X120650000Y-83820000D03*
D17*
X113030000Y-83820000D03*
D16*
X120650000Y-78740000D03*
D17*
X113030000Y-78740000D03*
D12*
X93980000Y-81280000D03*
D13*
X93980000Y-78740000D03*
X93980000Y-76200000D03*
D16*
X113030000Y-68607215D03*
D17*
X120650000Y-68607215D03*
D25*
X104140000Y-68580000D02*
X104140000Y-71120000D01*
X109740000Y-63340000D02*
X109380000Y-63340000D01*
X109380000Y-63340000D02*
X104140000Y-68580000D01*
D26*
X93980000Y-93980000D02*
X99060000Y-93980000D01*
X93980000Y-81280000D02*
X99060000Y-81280000D01*
X93980000Y-68580000D02*
X99060000Y-68580000D01*
X93980000Y-55880000D02*
X99060000Y-55880000D01*
G04 #@! TA.AperFunction,Conductor*
G36*
X124460642Y-25400007D02*
G01*
X124676973Y-25402365D01*
X124686405Y-25402829D01*
X125117999Y-25440589D01*
X125128719Y-25442000D01*
X125554715Y-25517115D01*
X125565249Y-25519450D01*
X125983101Y-25631413D01*
X125993384Y-25634655D01*
X126399884Y-25782609D01*
X126409850Y-25786737D01*
X126801899Y-25969552D01*
X126811485Y-25974543D01*
X127186092Y-26190822D01*
X127195211Y-26196631D01*
X127549551Y-26444743D01*
X127558119Y-26451317D01*
X127889501Y-26729379D01*
X127897462Y-26736676D01*
X128203323Y-27042537D01*
X128210620Y-27050499D01*
X128488679Y-27381876D01*
X128495256Y-27390448D01*
X128743368Y-27744788D01*
X128749180Y-27753912D01*
X128965454Y-28128510D01*
X128970449Y-28138105D01*
X129153256Y-28530135D01*
X129157396Y-28540130D01*
X129305337Y-28946595D01*
X129308590Y-28956912D01*
X129420546Y-29374739D01*
X129422887Y-29385300D01*
X129497998Y-29811279D01*
X129499410Y-29822003D01*
X129537169Y-30253581D01*
X129537634Y-30263037D01*
X129539993Y-30479357D01*
X129540000Y-30480709D01*
X129540000Y-88776000D01*
X129520315Y-88843039D01*
X129467511Y-88888794D01*
X129416000Y-88900000D01*
X129124499Y-88900000D01*
X129057460Y-88880315D01*
X129011705Y-88827511D01*
X129000499Y-88776000D01*
X129000499Y-87841971D01*
X129000499Y-87841968D01*
X129000499Y-87841964D01*
X128989886Y-87722582D01*
X128933909Y-87526951D01*
X128839698Y-87346593D01*
X128839695Y-87346590D01*
X128839694Y-87346587D01*
X128817481Y-87319345D01*
X128790372Y-87254949D01*
X128802382Y-87186119D01*
X128806188Y-87178999D01*
X128818284Y-87158049D01*
X128908606Y-86939993D01*
X128969693Y-86712014D01*
X129000500Y-86478011D01*
X129000500Y-86241989D01*
X128969693Y-86007986D01*
X128908606Y-85780007D01*
X128818284Y-85561951D01*
X128818282Y-85561948D01*
X128818280Y-85561943D01*
X128776118Y-85488918D01*
X128700273Y-85357550D01*
X128603655Y-85231635D01*
X128554121Y-85167080D01*
X128555286Y-85166185D01*
X128528469Y-85108381D01*
X128537998Y-85039165D01*
X128554619Y-85013302D01*
X128554121Y-85012920D01*
X128608814Y-84941641D01*
X128700273Y-84822450D01*
X128818284Y-84618049D01*
X128908606Y-84399993D01*
X128969693Y-84172014D01*
X129000500Y-83938011D01*
X129000500Y-83701989D01*
X128969693Y-83467986D01*
X128908606Y-83240007D01*
X128818284Y-83021951D01*
X128818282Y-83021948D01*
X128818280Y-83021943D01*
X128743261Y-82892008D01*
X128700273Y-82817550D01*
X128653662Y-82756805D01*
X128554121Y-82627080D01*
X128555286Y-82626185D01*
X128528469Y-82568381D01*
X128537998Y-82499165D01*
X128554619Y-82473302D01*
X128554121Y-82472920D01*
X128694068Y-82290536D01*
X128700273Y-82282450D01*
X128818284Y-82078049D01*
X128908606Y-81859993D01*
X128969693Y-81632014D01*
X129000500Y-81398011D01*
X129000500Y-81161989D01*
X128969693Y-80927986D01*
X128908606Y-80700007D01*
X128818284Y-80481951D01*
X128818282Y-80481948D01*
X128818280Y-80481943D01*
X128773036Y-80403579D01*
X128700273Y-80277550D01*
X128603655Y-80151635D01*
X128554121Y-80087080D01*
X128555286Y-80086185D01*
X128528469Y-80028381D01*
X128537998Y-79959165D01*
X128554619Y-79933302D01*
X128554121Y-79932920D01*
X128646043Y-79813124D01*
X128700273Y-79742450D01*
X128818284Y-79538049D01*
X128908606Y-79319993D01*
X128969693Y-79092014D01*
X129000500Y-78858011D01*
X129000500Y-78621989D01*
X128969693Y-78387986D01*
X128908606Y-78160007D01*
X128818284Y-77941951D01*
X128818282Y-77941948D01*
X128818280Y-77941943D01*
X128776118Y-77868918D01*
X128700273Y-77737550D01*
X128635122Y-77652643D01*
X128554121Y-77547080D01*
X128555286Y-77546185D01*
X128528469Y-77488381D01*
X128537998Y-77419165D01*
X128554619Y-77393302D01*
X128554121Y-77392920D01*
X128608814Y-77321641D01*
X128700273Y-77202450D01*
X128818284Y-76998049D01*
X128908606Y-76779993D01*
X128969693Y-76552014D01*
X129000500Y-76318011D01*
X129000500Y-76081989D01*
X128969693Y-75847986D01*
X128908606Y-75620007D01*
X128818284Y-75401951D01*
X128818282Y-75401948D01*
X128818280Y-75401943D01*
X128776118Y-75328918D01*
X128700273Y-75197550D01*
X128603655Y-75071635D01*
X128554121Y-75007080D01*
X128555286Y-75006185D01*
X128528469Y-74948381D01*
X128537998Y-74879165D01*
X128554619Y-74853302D01*
X128554121Y-74852920D01*
X128648218Y-74730289D01*
X128700273Y-74662450D01*
X128818284Y-74458049D01*
X128908606Y-74239993D01*
X128969693Y-74012014D01*
X129000500Y-73778011D01*
X129000500Y-73541989D01*
X128969693Y-73307986D01*
X128908606Y-73080007D01*
X128818284Y-72861951D01*
X128818282Y-72861948D01*
X128818280Y-72861943D01*
X128776118Y-72788918D01*
X128700273Y-72657550D01*
X128585618Y-72508128D01*
X128554121Y-72467080D01*
X128555286Y-72466185D01*
X128528469Y-72408381D01*
X128537998Y-72339165D01*
X128554619Y-72313302D01*
X128554121Y-72312920D01*
X128617525Y-72230289D01*
X128700273Y-72122450D01*
X128818284Y-71918049D01*
X128908606Y-71699993D01*
X128969693Y-71472014D01*
X129000500Y-71238011D01*
X129000500Y-71001989D01*
X128969693Y-70767986D01*
X128908606Y-70540007D01*
X128818284Y-70321951D01*
X128818282Y-70321948D01*
X128818280Y-70321943D01*
X128731057Y-70170870D01*
X128700273Y-70117550D01*
X128592627Y-69977263D01*
X128556593Y-69930302D01*
X128556587Y-69930295D01*
X128389704Y-69763412D01*
X128389697Y-69763406D01*
X128202454Y-69619730D01*
X128202453Y-69619729D01*
X128202450Y-69619727D01*
X128119495Y-69571833D01*
X127998056Y-69501719D01*
X127998045Y-69501714D01*
X127779993Y-69411394D01*
X127702445Y-69390615D01*
X127552014Y-69350307D01*
X127552013Y-69350306D01*
X127552010Y-69350306D01*
X127318020Y-69319501D01*
X127318017Y-69319500D01*
X127318011Y-69319500D01*
X126681989Y-69319500D01*
X126681983Y-69319500D01*
X126681979Y-69319501D01*
X126447989Y-69350306D01*
X126220006Y-69411394D01*
X126001954Y-69501714D01*
X126001943Y-69501719D01*
X125797545Y-69619730D01*
X125610302Y-69763406D01*
X125610295Y-69763412D01*
X125443412Y-69930295D01*
X125443406Y-69930302D01*
X125299730Y-70117545D01*
X125181719Y-70321943D01*
X125181714Y-70321954D01*
X125091394Y-70540006D01*
X125030306Y-70767989D01*
X124999501Y-71001979D01*
X124999500Y-71001995D01*
X124999500Y-71238004D01*
X124999501Y-71238020D01*
X125030306Y-71472010D01*
X125091394Y-71699993D01*
X125181714Y-71918045D01*
X125181719Y-71918056D01*
X125240696Y-72020205D01*
X125299727Y-72122450D01*
X125299729Y-72122453D01*
X125299730Y-72122454D01*
X125445879Y-72312920D01*
X125444720Y-72313808D01*
X125471537Y-72371662D01*
X125461983Y-72440876D01*
X125445385Y-72466701D01*
X125445879Y-72467080D01*
X125299730Y-72657545D01*
X125181719Y-72861943D01*
X125181714Y-72861954D01*
X125091394Y-73080006D01*
X125030306Y-73307989D01*
X124999501Y-73541979D01*
X124999500Y-73541995D01*
X124999500Y-73778004D01*
X124999501Y-73778020D01*
X125030306Y-74012010D01*
X125091394Y-74239993D01*
X125181714Y-74458045D01*
X125181719Y-74458056D01*
X125252677Y-74580957D01*
X125299727Y-74662450D01*
X125299729Y-74662453D01*
X125299730Y-74662454D01*
X125445879Y-74852920D01*
X125444720Y-74853808D01*
X125471537Y-74911662D01*
X125461983Y-74980876D01*
X125445385Y-75006701D01*
X125445879Y-75007080D01*
X125299730Y-75197545D01*
X125181719Y-75401943D01*
X125181714Y-75401954D01*
X125091394Y-75620006D01*
X125030306Y-75847989D01*
X124999501Y-76081979D01*
X124999500Y-76081995D01*
X124999500Y-76318004D01*
X124999501Y-76318020D01*
X125030306Y-76552010D01*
X125091394Y-76779993D01*
X125181714Y-76998045D01*
X125181719Y-76998056D01*
X125247882Y-77112652D01*
X125299727Y-77202450D01*
X125299729Y-77202453D01*
X125299730Y-77202454D01*
X125445879Y-77392920D01*
X125444720Y-77393808D01*
X125471537Y-77451662D01*
X125461983Y-77520876D01*
X125445385Y-77546701D01*
X125445879Y-77547080D01*
X125299730Y-77737545D01*
X125181719Y-77941943D01*
X125181714Y-77941954D01*
X125091394Y-78160006D01*
X125030306Y-78387989D01*
X124999501Y-78621979D01*
X124999500Y-78621995D01*
X124999500Y-78858004D01*
X124999501Y-78858020D01*
X125030306Y-79092010D01*
X125091394Y-79319993D01*
X125181714Y-79538045D01*
X125181719Y-79538056D01*
X125252677Y-79660957D01*
X125299727Y-79742450D01*
X125299729Y-79742453D01*
X125299730Y-79742454D01*
X125445879Y-79932920D01*
X125444720Y-79933808D01*
X125471537Y-79991662D01*
X125461983Y-80060876D01*
X125445385Y-80086701D01*
X125445879Y-80087080D01*
X125299730Y-80277545D01*
X125181719Y-80481943D01*
X125181714Y-80481954D01*
X125091394Y-80700006D01*
X125030306Y-80927989D01*
X124999501Y-81161979D01*
X124999500Y-81161995D01*
X124999500Y-81398004D01*
X124999501Y-81398020D01*
X125030306Y-81632010D01*
X125091394Y-81859993D01*
X125181714Y-82078045D01*
X125181719Y-82078056D01*
X125252677Y-82200957D01*
X125299727Y-82282450D01*
X125299729Y-82282453D01*
X125299730Y-82282454D01*
X125445879Y-82472920D01*
X125444720Y-82473808D01*
X125471537Y-82531662D01*
X125461983Y-82600876D01*
X125445385Y-82626701D01*
X125445879Y-82627080D01*
X125299730Y-82817545D01*
X125181719Y-83021943D01*
X125181714Y-83021954D01*
X125091394Y-83240006D01*
X125030306Y-83467989D01*
X124999501Y-83701979D01*
X124999500Y-83701995D01*
X124999500Y-83938004D01*
X124999501Y-83938020D01*
X125030306Y-84172010D01*
X125091394Y-84399993D01*
X125181714Y-84618045D01*
X125181719Y-84618056D01*
X125252677Y-84740957D01*
X125299727Y-84822450D01*
X125299729Y-84822453D01*
X125299730Y-84822454D01*
X125445879Y-85012920D01*
X125444720Y-85013808D01*
X125471537Y-85071662D01*
X125461983Y-85140876D01*
X125445385Y-85166701D01*
X125445879Y-85167080D01*
X125299730Y-85357545D01*
X125181719Y-85561943D01*
X125181714Y-85561954D01*
X125091394Y-85780006D01*
X125030306Y-86007989D01*
X124999501Y-86241979D01*
X124999500Y-86241995D01*
X124999500Y-86478004D01*
X124999501Y-86478020D01*
X125030306Y-86712010D01*
X125091394Y-86939993D01*
X125181713Y-87158042D01*
X125181715Y-87158047D01*
X125193804Y-87178986D01*
X125210275Y-87246887D01*
X125187423Y-87312913D01*
X125182520Y-87319344D01*
X125160303Y-87346591D01*
X125066089Y-87526954D01*
X125010114Y-87722583D01*
X125010113Y-87722586D01*
X125002607Y-87807016D01*
X124999500Y-87841963D01*
X124999500Y-88776001D01*
X124979817Y-88843039D01*
X124927013Y-88888794D01*
X124875501Y-88900000D01*
X106264374Y-88900000D01*
X106197335Y-88880315D01*
X106151580Y-88827511D01*
X106141114Y-88786001D01*
X106141030Y-88786013D01*
X106140934Y-88785286D01*
X106140640Y-88784119D01*
X106140500Y-88781989D01*
X106109693Y-88547989D01*
X106109693Y-88547986D01*
X106048606Y-88320007D01*
X105958284Y-88101951D01*
X105958282Y-88101948D01*
X105958280Y-88101943D01*
X105916118Y-88028918D01*
X105840273Y-87897550D01*
X105797626Y-87841971D01*
X105694121Y-87707080D01*
X105695286Y-87706185D01*
X105668469Y-87648381D01*
X105677998Y-87579165D01*
X105694619Y-87553302D01*
X105694121Y-87552920D01*
X105748814Y-87481641D01*
X105840273Y-87362450D01*
X105958284Y-87158049D01*
X106048606Y-86939993D01*
X106109693Y-86712014D01*
X106140500Y-86478011D01*
X106140500Y-86241989D01*
X106109693Y-86007986D01*
X106048606Y-85780007D01*
X105958284Y-85561951D01*
X105958282Y-85561948D01*
X105958280Y-85561943D01*
X105916118Y-85488918D01*
X105840273Y-85357550D01*
X105743655Y-85231635D01*
X105694121Y-85167080D01*
X105695286Y-85166185D01*
X105668469Y-85108381D01*
X105677998Y-85039165D01*
X105694619Y-85013302D01*
X105694121Y-85012920D01*
X105748814Y-84941641D01*
X105840273Y-84822450D01*
X105958284Y-84618049D01*
X106048606Y-84399993D01*
X106109693Y-84172014D01*
X106140500Y-83938011D01*
X106140500Y-83819995D01*
X111224451Y-83819995D01*
X111224451Y-83820004D01*
X111244616Y-84089101D01*
X111304664Y-84352188D01*
X111304666Y-84352195D01*
X111323425Y-84399993D01*
X111403257Y-84603398D01*
X111538185Y-84837102D01*
X111674080Y-85007509D01*
X111706442Y-85048089D01*
X111893183Y-85221358D01*
X111904259Y-85231635D01*
X112127226Y-85383651D01*
X112370359Y-85500738D01*
X112628228Y-85580280D01*
X112628229Y-85580280D01*
X112628232Y-85580281D01*
X112895063Y-85620499D01*
X112895068Y-85620499D01*
X112895071Y-85620500D01*
X112895072Y-85620500D01*
X113164928Y-85620500D01*
X113164929Y-85620500D01*
X113164936Y-85620499D01*
X113431767Y-85580281D01*
X113431768Y-85580280D01*
X113431772Y-85580280D01*
X113689641Y-85500738D01*
X113932775Y-85383651D01*
X114155741Y-85231635D01*
X114353561Y-85048085D01*
X114521815Y-84837102D01*
X114656743Y-84603398D01*
X114755334Y-84352195D01*
X114815383Y-84089103D01*
X114835549Y-83820000D01*
X114835549Y-83819995D01*
X118844451Y-83819995D01*
X118844451Y-83820004D01*
X118864616Y-84089101D01*
X118924664Y-84352188D01*
X118924666Y-84352195D01*
X118943425Y-84399993D01*
X119023257Y-84603398D01*
X119158185Y-84837102D01*
X119294080Y-85007509D01*
X119326442Y-85048089D01*
X119513183Y-85221358D01*
X119524259Y-85231635D01*
X119747226Y-85383651D01*
X119990359Y-85500738D01*
X120248228Y-85580280D01*
X120248229Y-85580280D01*
X120248232Y-85580281D01*
X120515063Y-85620499D01*
X120515068Y-85620499D01*
X120515071Y-85620500D01*
X120515072Y-85620500D01*
X120784928Y-85620500D01*
X120784929Y-85620500D01*
X120784936Y-85620499D01*
X121051767Y-85580281D01*
X121051768Y-85580280D01*
X121051772Y-85580280D01*
X121309641Y-85500738D01*
X121552775Y-85383651D01*
X121775741Y-85231635D01*
X121973561Y-85048085D01*
X122141815Y-84837102D01*
X122276743Y-84603398D01*
X122375334Y-84352195D01*
X122435383Y-84089103D01*
X122455549Y-83820000D01*
X122435383Y-83550897D01*
X122375334Y-83287805D01*
X122276743Y-83036602D01*
X122141815Y-82802898D01*
X121973561Y-82591915D01*
X121973560Y-82591914D01*
X121973557Y-82591910D01*
X121775741Y-82408365D01*
X121552775Y-82256349D01*
X121552769Y-82256346D01*
X121552768Y-82256345D01*
X121552767Y-82256344D01*
X121309643Y-82139263D01*
X121309645Y-82139263D01*
X121051773Y-82059720D01*
X121051767Y-82059718D01*
X120784936Y-82019500D01*
X120784929Y-82019500D01*
X120515071Y-82019500D01*
X120515063Y-82019500D01*
X120248232Y-82059718D01*
X120248226Y-82059720D01*
X119990358Y-82139262D01*
X119747230Y-82256346D01*
X119524258Y-82408365D01*
X119326442Y-82591910D01*
X119158185Y-82802898D01*
X119023258Y-83036599D01*
X119023256Y-83036603D01*
X118924666Y-83287804D01*
X118924664Y-83287811D01*
X118864616Y-83550898D01*
X118844451Y-83819995D01*
X114835549Y-83819995D01*
X114815383Y-83550897D01*
X114755334Y-83287805D01*
X114656743Y-83036602D01*
X114521815Y-82802898D01*
X114353561Y-82591915D01*
X114353560Y-82591914D01*
X114353557Y-82591910D01*
X114155741Y-82408365D01*
X113932775Y-82256349D01*
X113932769Y-82256346D01*
X113932768Y-82256345D01*
X113932767Y-82256344D01*
X113689643Y-82139263D01*
X113689645Y-82139263D01*
X113431773Y-82059720D01*
X113431767Y-82059718D01*
X113164936Y-82019500D01*
X113164929Y-82019500D01*
X112895071Y-82019500D01*
X112895063Y-82019500D01*
X112628232Y-82059718D01*
X112628226Y-82059720D01*
X112370358Y-82139262D01*
X112127230Y-82256346D01*
X111904258Y-82408365D01*
X111706442Y-82591910D01*
X111538185Y-82802898D01*
X111403258Y-83036599D01*
X111403256Y-83036603D01*
X111304666Y-83287804D01*
X111304664Y-83287811D01*
X111244616Y-83550898D01*
X111224451Y-83819995D01*
X106140500Y-83819995D01*
X106140500Y-83701989D01*
X106109693Y-83467986D01*
X106048606Y-83240007D01*
X105958284Y-83021951D01*
X105958282Y-83021948D01*
X105958280Y-83021943D01*
X105883261Y-82892008D01*
X105840273Y-82817550D01*
X105793662Y-82756805D01*
X105694121Y-82627080D01*
X105695286Y-82626185D01*
X105668469Y-82568381D01*
X105677998Y-82499165D01*
X105694619Y-82473302D01*
X105694121Y-82472920D01*
X105834068Y-82290536D01*
X105840273Y-82282450D01*
X105958284Y-82078049D01*
X106048606Y-81859993D01*
X106109693Y-81632014D01*
X106140500Y-81398011D01*
X106140500Y-81161989D01*
X106109693Y-80927986D01*
X106048606Y-80700007D01*
X105958284Y-80481951D01*
X105958282Y-80481948D01*
X105958280Y-80481943D01*
X105913036Y-80403579D01*
X105840273Y-80277550D01*
X105743655Y-80151635D01*
X105694121Y-80087080D01*
X105695286Y-80086185D01*
X105668469Y-80028381D01*
X105677998Y-79959165D01*
X105694619Y-79933302D01*
X105694121Y-79932920D01*
X105786043Y-79813124D01*
X105840273Y-79742450D01*
X105958284Y-79538049D01*
X106048606Y-79319993D01*
X106109693Y-79092014D01*
X106140500Y-78858011D01*
X106140500Y-78739995D01*
X111224451Y-78739995D01*
X111224451Y-78740004D01*
X111244616Y-79009101D01*
X111304664Y-79272188D01*
X111304666Y-79272195D01*
X111402006Y-79520212D01*
X111403257Y-79523398D01*
X111538185Y-79757102D01*
X111674080Y-79927509D01*
X111706442Y-79968089D01*
X111870295Y-80120121D01*
X111904259Y-80151635D01*
X112127226Y-80303651D01*
X112370359Y-80420738D01*
X112628228Y-80500280D01*
X112628229Y-80500280D01*
X112628232Y-80500281D01*
X112895063Y-80540499D01*
X112895068Y-80540499D01*
X112895071Y-80540500D01*
X112895072Y-80540500D01*
X113164928Y-80540500D01*
X113164929Y-80540500D01*
X113164936Y-80540499D01*
X113431767Y-80500281D01*
X113431768Y-80500280D01*
X113431772Y-80500280D01*
X113689641Y-80420738D01*
X113932775Y-80303651D01*
X114155741Y-80151635D01*
X114328151Y-79991662D01*
X114353557Y-79968089D01*
X114353557Y-79968087D01*
X114353561Y-79968085D01*
X114521815Y-79757102D01*
X114656743Y-79523398D01*
X114755334Y-79272195D01*
X114815383Y-79009103D01*
X114826706Y-78858004D01*
X114835549Y-78740004D01*
X114835549Y-78739995D01*
X118844451Y-78739995D01*
X118844451Y-78740004D01*
X118864616Y-79009101D01*
X118924664Y-79272188D01*
X118924666Y-79272195D01*
X119022006Y-79520212D01*
X119023257Y-79523398D01*
X119158185Y-79757102D01*
X119294080Y-79927509D01*
X119326442Y-79968089D01*
X119490295Y-80120121D01*
X119524259Y-80151635D01*
X119747226Y-80303651D01*
X119990359Y-80420738D01*
X120248228Y-80500280D01*
X120248229Y-80500280D01*
X120248232Y-80500281D01*
X120515063Y-80540499D01*
X120515068Y-80540499D01*
X120515071Y-80540500D01*
X120515072Y-80540500D01*
X120784928Y-80540500D01*
X120784929Y-80540500D01*
X120784936Y-80540499D01*
X121051767Y-80500281D01*
X121051768Y-80500280D01*
X121051772Y-80500280D01*
X121309641Y-80420738D01*
X121552775Y-80303651D01*
X121775741Y-80151635D01*
X121948151Y-79991662D01*
X121973557Y-79968089D01*
X121973557Y-79968087D01*
X121973561Y-79968085D01*
X122141815Y-79757102D01*
X122276743Y-79523398D01*
X122375334Y-79272195D01*
X122435383Y-79009103D01*
X122446706Y-78858004D01*
X122455549Y-78740004D01*
X122455549Y-78739995D01*
X122435383Y-78470898D01*
X122375335Y-78207811D01*
X122375334Y-78207805D01*
X122276743Y-77956602D01*
X122141815Y-77722898D01*
X121973561Y-77511915D01*
X121973560Y-77511914D01*
X121973557Y-77511910D01*
X121775741Y-77328365D01*
X121552775Y-77176349D01*
X121552769Y-77176346D01*
X121552768Y-77176345D01*
X121552767Y-77176344D01*
X121309643Y-77059263D01*
X121309645Y-77059263D01*
X121051773Y-76979720D01*
X121051767Y-76979718D01*
X120784936Y-76939500D01*
X120784929Y-76939500D01*
X120515071Y-76939500D01*
X120515063Y-76939500D01*
X120248232Y-76979718D01*
X120248226Y-76979720D01*
X119990358Y-77059262D01*
X119747230Y-77176346D01*
X119524258Y-77328365D01*
X119326442Y-77511910D01*
X119158185Y-77722898D01*
X119023258Y-77956599D01*
X119023256Y-77956603D01*
X118924666Y-78207804D01*
X118924664Y-78207811D01*
X118864616Y-78470898D01*
X118844451Y-78739995D01*
X114835549Y-78739995D01*
X114815383Y-78470898D01*
X114755335Y-78207811D01*
X114755334Y-78207805D01*
X114656743Y-77956602D01*
X114521815Y-77722898D01*
X114353561Y-77511915D01*
X114353560Y-77511914D01*
X114353557Y-77511910D01*
X114155741Y-77328365D01*
X113932775Y-77176349D01*
X113932769Y-77176346D01*
X113932768Y-77176345D01*
X113932767Y-77176344D01*
X113689643Y-77059263D01*
X113689645Y-77059263D01*
X113431773Y-76979720D01*
X113431767Y-76979718D01*
X113164936Y-76939500D01*
X113164929Y-76939500D01*
X112895071Y-76939500D01*
X112895063Y-76939500D01*
X112628232Y-76979718D01*
X112628226Y-76979720D01*
X112370358Y-77059262D01*
X112127230Y-77176346D01*
X111904258Y-77328365D01*
X111706442Y-77511910D01*
X111538185Y-77722898D01*
X111403258Y-77956599D01*
X111403256Y-77956603D01*
X111304666Y-78207804D01*
X111304664Y-78207811D01*
X111244616Y-78470898D01*
X111224451Y-78739995D01*
X106140500Y-78739995D01*
X106140500Y-78621989D01*
X106109693Y-78387986D01*
X106048606Y-78160007D01*
X105958284Y-77941951D01*
X105958282Y-77941948D01*
X105958280Y-77941943D01*
X105916118Y-77868918D01*
X105840273Y-77737550D01*
X105775122Y-77652643D01*
X105694121Y-77547080D01*
X105695286Y-77546185D01*
X105668469Y-77488381D01*
X105677998Y-77419165D01*
X105694619Y-77393302D01*
X105694121Y-77392920D01*
X105748814Y-77321641D01*
X105840273Y-77202450D01*
X105958284Y-76998049D01*
X106048606Y-76779993D01*
X106109693Y-76552014D01*
X106140500Y-76318011D01*
X106140500Y-76081989D01*
X106109693Y-75847986D01*
X106048606Y-75620007D01*
X105958284Y-75401951D01*
X105958282Y-75401948D01*
X105958280Y-75401943D01*
X105916118Y-75328918D01*
X105840273Y-75197550D01*
X105696592Y-75010301D01*
X105696587Y-75010295D01*
X105529704Y-74843412D01*
X105529697Y-74843406D01*
X105342454Y-74699730D01*
X105342453Y-74699729D01*
X105342450Y-74699727D01*
X105260957Y-74652677D01*
X105138056Y-74581719D01*
X105138045Y-74581714D01*
X104919993Y-74491394D01*
X104795533Y-74458045D01*
X104692014Y-74430307D01*
X104692013Y-74430306D01*
X104692010Y-74430306D01*
X104458020Y-74399501D01*
X104458017Y-74399500D01*
X104458011Y-74399500D01*
X103821989Y-74399500D01*
X103821983Y-74399500D01*
X103821979Y-74399501D01*
X103587989Y-74430306D01*
X103360006Y-74491394D01*
X103141954Y-74581714D01*
X103141943Y-74581719D01*
X102937545Y-74699730D01*
X102750302Y-74843406D01*
X102750295Y-74843412D01*
X102583412Y-75010295D01*
X102583406Y-75010302D01*
X102439730Y-75197545D01*
X102321719Y-75401943D01*
X102321714Y-75401954D01*
X102231394Y-75620006D01*
X102170306Y-75847989D01*
X102139501Y-76081979D01*
X102139500Y-76081995D01*
X102139500Y-76318004D01*
X102139501Y-76318020D01*
X102170306Y-76552010D01*
X102231394Y-76779993D01*
X102321714Y-76998045D01*
X102321719Y-76998056D01*
X102387882Y-77112652D01*
X102439727Y-77202450D01*
X102439729Y-77202453D01*
X102439730Y-77202454D01*
X102585879Y-77392920D01*
X102584720Y-77393808D01*
X102611537Y-77451662D01*
X102601983Y-77520876D01*
X102585385Y-77546701D01*
X102585879Y-77547080D01*
X102439730Y-77737545D01*
X102321719Y-77941943D01*
X102321714Y-77941954D01*
X102231394Y-78160006D01*
X102170306Y-78387989D01*
X102139501Y-78621979D01*
X102139500Y-78621995D01*
X102139500Y-78858004D01*
X102139501Y-78858020D01*
X102170306Y-79092010D01*
X102231394Y-79319993D01*
X102321714Y-79538045D01*
X102321719Y-79538056D01*
X102392677Y-79660957D01*
X102439727Y-79742450D01*
X102439729Y-79742453D01*
X102439730Y-79742454D01*
X102585879Y-79932920D01*
X102584720Y-79933808D01*
X102611537Y-79991662D01*
X102601983Y-80060876D01*
X102585385Y-80086701D01*
X102585879Y-80087080D01*
X102439730Y-80277545D01*
X102321719Y-80481943D01*
X102321714Y-80481954D01*
X102231394Y-80700006D01*
X102170306Y-80927989D01*
X102139501Y-81161979D01*
X102139500Y-81161995D01*
X102139500Y-81398004D01*
X102139501Y-81398020D01*
X102170306Y-81632010D01*
X102231394Y-81859993D01*
X102321714Y-82078045D01*
X102321719Y-82078056D01*
X102392677Y-82200957D01*
X102439727Y-82282450D01*
X102439729Y-82282453D01*
X102439730Y-82282454D01*
X102585879Y-82472920D01*
X102584720Y-82473808D01*
X102611537Y-82531662D01*
X102601983Y-82600876D01*
X102585385Y-82626701D01*
X102585879Y-82627080D01*
X102439730Y-82817545D01*
X102321719Y-83021943D01*
X102321714Y-83021954D01*
X102231394Y-83240006D01*
X102170306Y-83467989D01*
X102139501Y-83701979D01*
X102139500Y-83701995D01*
X102139500Y-83938004D01*
X102139501Y-83938020D01*
X102170306Y-84172010D01*
X102231394Y-84399993D01*
X102321714Y-84618045D01*
X102321719Y-84618056D01*
X102392677Y-84740957D01*
X102439727Y-84822450D01*
X102439729Y-84822453D01*
X102439730Y-84822454D01*
X102585879Y-85012920D01*
X102584720Y-85013808D01*
X102611537Y-85071662D01*
X102601983Y-85140876D01*
X102585385Y-85166701D01*
X102585879Y-85167080D01*
X102439730Y-85357545D01*
X102321719Y-85561943D01*
X102321714Y-85561954D01*
X102231394Y-85780006D01*
X102170306Y-86007989D01*
X102139501Y-86241979D01*
X102139500Y-86241995D01*
X102139500Y-86478004D01*
X102139501Y-86478020D01*
X102170306Y-86712010D01*
X102231394Y-86939993D01*
X102321714Y-87158045D01*
X102321719Y-87158056D01*
X102376569Y-87253058D01*
X102439727Y-87362450D01*
X102439729Y-87362453D01*
X102439730Y-87362454D01*
X102585879Y-87552920D01*
X102584720Y-87553808D01*
X102611537Y-87611662D01*
X102601983Y-87680876D01*
X102585385Y-87706701D01*
X102585879Y-87707080D01*
X102439730Y-87897545D01*
X102321719Y-88101943D01*
X102321714Y-88101954D01*
X102231394Y-88320006D01*
X102170306Y-88547989D01*
X102139499Y-88781989D01*
X102139360Y-88784119D01*
X102139140Y-88784718D01*
X102138970Y-88786013D01*
X102138680Y-88785974D01*
X102115328Y-88849726D01*
X102059641Y-88891925D01*
X102015626Y-88900000D01*
X101600000Y-88900000D01*
X101600000Y-98936000D01*
X101580315Y-99003039D01*
X101527511Y-99048794D01*
X101476000Y-99060000D01*
X78740000Y-99060000D01*
X60960710Y-99060000D01*
X60959358Y-99059993D01*
X60743037Y-99057634D01*
X60733581Y-99057169D01*
X60302003Y-99019410D01*
X60291279Y-99017998D01*
X59865300Y-98942887D01*
X59854739Y-98940546D01*
X59436912Y-98828590D01*
X59426601Y-98825339D01*
X59020127Y-98677394D01*
X59010135Y-98673256D01*
X58618105Y-98490449D01*
X58608510Y-98485454D01*
X58233912Y-98269180D01*
X58224788Y-98263368D01*
X57870448Y-98015256D01*
X57861876Y-98008679D01*
X57530499Y-97730620D01*
X57522537Y-97723323D01*
X57216676Y-97417462D01*
X57209379Y-97409501D01*
X56931317Y-97078119D01*
X56924743Y-97069551D01*
X56676631Y-96715211D01*
X56670819Y-96706087D01*
X56454545Y-96331489D01*
X56449550Y-96321894D01*
X56266737Y-95929850D01*
X56262609Y-95919884D01*
X56114655Y-95513384D01*
X56111413Y-95503101D01*
X55999450Y-95085249D01*
X55997115Y-95074715D01*
X55922000Y-94648719D01*
X55920589Y-94637996D01*
X55882830Y-94206418D01*
X55882365Y-94196962D01*
X55880007Y-93980642D01*
X55880000Y-93979290D01*
X55880000Y-88778711D01*
X81844500Y-88778711D01*
X81844500Y-89021288D01*
X81876161Y-89261785D01*
X81938947Y-89496104D01*
X82017043Y-89684644D01*
X82031776Y-89720212D01*
X82153064Y-89930289D01*
X82153066Y-89930292D01*
X82153067Y-89930293D01*
X82263731Y-90074514D01*
X82288925Y-90139683D01*
X82274887Y-90208128D01*
X82263731Y-90225486D01*
X82153067Y-90369706D01*
X82031777Y-90579785D01*
X82031773Y-90579794D01*
X81938947Y-90803895D01*
X81876161Y-91038214D01*
X81844500Y-91278711D01*
X81844500Y-91521288D01*
X81876161Y-91761785D01*
X81938947Y-91996104D01*
X82031773Y-92220205D01*
X82031776Y-92220212D01*
X82153064Y-92430289D01*
X82153066Y-92430292D01*
X82153067Y-92430293D01*
X82300733Y-92622736D01*
X82300739Y-92622743D01*
X82472256Y-92794260D01*
X82472263Y-92794266D01*
X82545009Y-92850086D01*
X82664711Y-92941936D01*
X82874788Y-93063224D01*
X83098900Y-93156054D01*
X83333211Y-93218838D01*
X83494783Y-93240109D01*
X83573711Y-93250500D01*
X83573712Y-93250500D01*
X84066289Y-93250500D01*
X84114388Y-93244167D01*
X84306789Y-93218838D01*
X84541100Y-93156054D01*
X84765212Y-93063224D01*
X84975289Y-92941936D01*
X85167738Y-92794265D01*
X85339265Y-92622738D01*
X85486936Y-92430289D01*
X85608224Y-92220212D01*
X85701054Y-91996100D01*
X85763838Y-91761789D01*
X85795500Y-91521288D01*
X85795500Y-91311986D01*
X91979500Y-91311986D01*
X91979500Y-91568013D01*
X92005012Y-91761785D01*
X92012917Y-91821829D01*
X92048425Y-91954349D01*
X92079177Y-92069116D01*
X92177144Y-92305631D01*
X92178943Y-92309278D01*
X92177561Y-92309959D01*
X92192519Y-92371646D01*
X92169660Y-92437671D01*
X92164764Y-92444092D01*
X92140303Y-92474091D01*
X92046089Y-92654454D01*
X91990114Y-92850083D01*
X91990113Y-92850086D01*
X91979500Y-92969466D01*
X91979500Y-94990528D01*
X91979501Y-94990534D01*
X91990113Y-95109915D01*
X92046089Y-95305545D01*
X92046090Y-95305548D01*
X92046091Y-95305549D01*
X92140302Y-95485907D01*
X92140304Y-95485909D01*
X92268890Y-95643609D01*
X92314133Y-95680499D01*
X92426593Y-95772198D01*
X92606951Y-95866409D01*
X92802582Y-95922386D01*
X92921963Y-95933000D01*
X95038036Y-95932999D01*
X95157418Y-95922386D01*
X95353049Y-95866409D01*
X95533407Y-95772198D01*
X95691109Y-95643609D01*
X95819698Y-95485907D01*
X95913909Y-95305549D01*
X95913909Y-95305547D01*
X95916239Y-95301088D01*
X95964726Y-95250781D01*
X96026148Y-95234500D01*
X97863264Y-95234500D01*
X97930303Y-95254185D01*
X97947601Y-95267598D01*
X97996783Y-95313232D01*
X98207366Y-95456805D01*
X98207371Y-95456807D01*
X98207372Y-95456808D01*
X98207373Y-95456809D01*
X98324853Y-95513384D01*
X98436992Y-95567387D01*
X98436993Y-95567387D01*
X98436996Y-95567389D01*
X98680542Y-95642513D01*
X98932565Y-95680500D01*
X99187435Y-95680500D01*
X99439458Y-95642513D01*
X99683004Y-95567389D01*
X99912634Y-95456805D01*
X100123217Y-95313232D01*
X100310050Y-95139877D01*
X100468959Y-94940612D01*
X100596393Y-94719888D01*
X100689508Y-94482637D01*
X100746222Y-94234157D01*
X100765268Y-93980000D01*
X100746222Y-93725843D01*
X100689508Y-93477363D01*
X100596393Y-93240112D01*
X100468959Y-93019388D01*
X100310050Y-92820123D01*
X100123217Y-92646768D01*
X99912634Y-92503195D01*
X99912630Y-92503193D01*
X99912627Y-92503191D01*
X99912626Y-92503190D01*
X99683006Y-92392612D01*
X99683008Y-92392612D01*
X99439466Y-92317489D01*
X99439462Y-92317488D01*
X99439458Y-92317487D01*
X99318231Y-92299214D01*
X99187440Y-92279500D01*
X99187435Y-92279500D01*
X98932565Y-92279500D01*
X98932559Y-92279500D01*
X98775609Y-92303157D01*
X98680542Y-92317487D01*
X98680539Y-92317488D01*
X98680533Y-92317489D01*
X98436992Y-92392612D01*
X98207373Y-92503190D01*
X98207372Y-92503191D01*
X97996782Y-92646768D01*
X97965476Y-92675815D01*
X97947603Y-92692399D01*
X97885073Y-92723567D01*
X97863264Y-92725500D01*
X96026148Y-92725500D01*
X95959109Y-92705815D01*
X95916239Y-92658912D01*
X95913909Y-92654451D01*
X95819698Y-92474093D01*
X95795237Y-92444094D01*
X95768128Y-92379700D01*
X95780137Y-92310870D01*
X95781875Y-92307618D01*
X95782854Y-92305634D01*
X95818240Y-92220205D01*
X95880822Y-92069118D01*
X95947083Y-91821829D01*
X95980500Y-91568006D01*
X95980500Y-91311994D01*
X95947083Y-91058171D01*
X95880822Y-90810882D01*
X95822340Y-90669693D01*
X95782855Y-90574368D01*
X95782848Y-90574353D01*
X95654847Y-90352647D01*
X95557273Y-90225487D01*
X95498993Y-90149535D01*
X95498991Y-90149533D01*
X95498988Y-90149529D01*
X95317970Y-89968511D01*
X95268158Y-89930289D01*
X95114857Y-89812656D01*
X95114852Y-89812652D01*
X94893146Y-89684651D01*
X94893131Y-89684644D01*
X94656616Y-89586677D01*
X94541849Y-89555925D01*
X94409329Y-89520417D01*
X94352923Y-89512991D01*
X94155513Y-89487000D01*
X94155506Y-89487000D01*
X93804494Y-89487000D01*
X93804486Y-89487000D01*
X93578873Y-89516704D01*
X93550671Y-89520417D01*
X93484411Y-89538171D01*
X93303383Y-89586677D01*
X93066868Y-89684644D01*
X93066853Y-89684651D01*
X92845147Y-89812652D01*
X92642029Y-89968511D01*
X92461011Y-90149529D01*
X92305152Y-90352647D01*
X92177151Y-90574353D01*
X92177144Y-90574368D01*
X92079177Y-90810883D01*
X92055165Y-90900499D01*
X92018265Y-91038214D01*
X92012917Y-91058172D01*
X91979500Y-91311986D01*
X85795500Y-91311986D01*
X85795500Y-91278712D01*
X85763838Y-91038211D01*
X85701054Y-90803900D01*
X85608224Y-90579788D01*
X85486936Y-90369711D01*
X85376266Y-90225483D01*
X85351074Y-90160317D01*
X85365112Y-90091873D01*
X85376261Y-90074523D01*
X85486936Y-89930289D01*
X85608224Y-89720212D01*
X85701054Y-89496100D01*
X85763838Y-89261789D01*
X85795500Y-89021288D01*
X85795500Y-88778712D01*
X85763838Y-88538211D01*
X85701054Y-88303900D01*
X85608224Y-88079788D01*
X85486936Y-87869711D01*
X85361854Y-87706701D01*
X85339266Y-87677263D01*
X85339260Y-87677256D01*
X85167743Y-87505739D01*
X85167736Y-87505733D01*
X84975293Y-87358067D01*
X84975292Y-87358066D01*
X84975289Y-87358064D01*
X84765212Y-87236776D01*
X84765205Y-87236773D01*
X84541104Y-87143947D01*
X84306785Y-87081161D01*
X84066289Y-87049500D01*
X84066288Y-87049500D01*
X83573712Y-87049500D01*
X83573711Y-87049500D01*
X83333214Y-87081161D01*
X83098895Y-87143947D01*
X82874794Y-87236773D01*
X82874785Y-87236777D01*
X82664706Y-87358067D01*
X82472263Y-87505733D01*
X82472256Y-87505739D01*
X82300739Y-87677256D01*
X82300733Y-87677263D01*
X82153067Y-87869706D01*
X82031777Y-88079785D01*
X82031773Y-88079794D01*
X81938947Y-88303895D01*
X81876161Y-88538214D01*
X81844500Y-88778711D01*
X55880000Y-88778711D01*
X55880000Y-71078711D01*
X81844500Y-71078711D01*
X81844500Y-71321288D01*
X81864342Y-71472010D01*
X81876162Y-71561789D01*
X81907554Y-71678944D01*
X81938947Y-71796104D01*
X82014814Y-71979262D01*
X82031776Y-72020212D01*
X82153064Y-72230289D01*
X82153066Y-72230292D01*
X82153067Y-72230293D01*
X82263731Y-72374514D01*
X82288925Y-72439683D01*
X82274887Y-72508128D01*
X82263731Y-72525486D01*
X82153067Y-72669706D01*
X82031777Y-72879785D01*
X82031773Y-72879794D01*
X81938947Y-73103895D01*
X81876161Y-73338214D01*
X81844500Y-73578711D01*
X81844500Y-73821288D01*
X81876161Y-74061785D01*
X81938947Y-74296104D01*
X82006027Y-74458049D01*
X82031776Y-74520212D01*
X82153064Y-74730289D01*
X82153066Y-74730292D01*
X82153067Y-74730293D01*
X82263731Y-74874514D01*
X82288925Y-74939683D01*
X82274887Y-75008128D01*
X82263731Y-75025486D01*
X82153067Y-75169706D01*
X82031777Y-75379785D01*
X82031773Y-75379794D01*
X81938947Y-75603895D01*
X81876161Y-75838214D01*
X81844500Y-76078711D01*
X81844500Y-76321288D01*
X81876161Y-76561785D01*
X81938947Y-76796104D01*
X81998344Y-76939500D01*
X82031776Y-77020212D01*
X82153064Y-77230289D01*
X82153066Y-77230292D01*
X82153067Y-77230293D01*
X82263731Y-77374514D01*
X82288925Y-77439683D01*
X82274887Y-77508128D01*
X82263731Y-77525486D01*
X82153067Y-77669706D01*
X82031777Y-77879785D01*
X82031773Y-77879794D01*
X81938947Y-78103895D01*
X81876161Y-78338214D01*
X81844500Y-78578711D01*
X81844500Y-78821288D01*
X81876161Y-79061785D01*
X81938947Y-79296104D01*
X82031773Y-79520205D01*
X82031777Y-79520215D01*
X82124322Y-79680508D01*
X82140795Y-79748409D01*
X82118863Y-79813124D01*
X82002997Y-79980367D01*
X82002991Y-79980377D01*
X81909903Y-80185318D01*
X81909902Y-80185321D01*
X81854905Y-80403579D01*
X81854904Y-80403586D01*
X81844500Y-80535777D01*
X81844500Y-81864208D01*
X81844501Y-81864223D01*
X81854904Y-81996413D01*
X81854905Y-81996420D01*
X81909902Y-82214678D01*
X81909903Y-82214681D01*
X82002991Y-82419622D01*
X82002997Y-82419632D01*
X82131174Y-82604645D01*
X82131178Y-82604650D01*
X82131181Y-82604654D01*
X82290346Y-82763819D01*
X82290350Y-82763822D01*
X82290354Y-82763825D01*
X82367902Y-82817550D01*
X82475374Y-82892007D01*
X82680317Y-82985096D01*
X82680321Y-82985097D01*
X82898579Y-83040094D01*
X82898581Y-83040094D01*
X82898588Y-83040096D01*
X83030783Y-83050500D01*
X84609216Y-83050499D01*
X84741412Y-83040096D01*
X84959683Y-82985096D01*
X85164626Y-82892007D01*
X85349654Y-82763819D01*
X85508819Y-82604654D01*
X85637007Y-82419626D01*
X85730096Y-82214683D01*
X85785096Y-81996412D01*
X85795500Y-81864217D01*
X85795499Y-80535784D01*
X85785096Y-80403588D01*
X85730096Y-80185317D01*
X85637007Y-79980374D01*
X85637005Y-79980371D01*
X85637003Y-79980367D01*
X85521135Y-79813123D01*
X85499138Y-79746807D01*
X85515674Y-79680512D01*
X85608224Y-79520212D01*
X85701054Y-79296100D01*
X85763838Y-79061789D01*
X85795500Y-78821288D01*
X85795500Y-78611986D01*
X91979500Y-78611986D01*
X91979500Y-78868013D01*
X91998076Y-79009101D01*
X92012917Y-79121829D01*
X92048425Y-79254349D01*
X92079177Y-79369116D01*
X92177144Y-79605631D01*
X92178943Y-79609278D01*
X92177561Y-79609959D01*
X92192519Y-79671646D01*
X92169660Y-79737671D01*
X92164764Y-79744092D01*
X92140303Y-79774091D01*
X92046089Y-79954454D01*
X91990114Y-80150083D01*
X91990113Y-80150086D01*
X91979500Y-80269466D01*
X91979500Y-82290528D01*
X91979501Y-82290534D01*
X91990113Y-82409915D01*
X92046089Y-82605545D01*
X92046090Y-82605548D01*
X92046091Y-82605549D01*
X92140302Y-82785907D01*
X92174977Y-82828433D01*
X92268890Y-82943609D01*
X92319772Y-82985097D01*
X92426593Y-83072198D01*
X92606951Y-83166409D01*
X92802582Y-83222386D01*
X92921963Y-83233000D01*
X95038036Y-83232999D01*
X95157418Y-83222386D01*
X95353049Y-83166409D01*
X95533407Y-83072198D01*
X95691109Y-82943609D01*
X95819698Y-82785907D01*
X95913909Y-82605549D01*
X95913909Y-82605547D01*
X95916239Y-82601088D01*
X95964726Y-82550781D01*
X96026148Y-82534500D01*
X97863264Y-82534500D01*
X97930303Y-82554185D01*
X97947601Y-82567598D01*
X97996783Y-82613232D01*
X98207366Y-82756805D01*
X98207371Y-82756807D01*
X98207372Y-82756808D01*
X98207373Y-82756809D01*
X98303079Y-82802898D01*
X98436992Y-82867387D01*
X98436993Y-82867387D01*
X98436996Y-82867389D01*
X98680542Y-82942513D01*
X98932565Y-82980500D01*
X99187435Y-82980500D01*
X99439458Y-82942513D01*
X99683004Y-82867389D01*
X99912634Y-82756805D01*
X100123217Y-82613232D01*
X100310050Y-82439877D01*
X100468959Y-82240612D01*
X100596393Y-82019888D01*
X100689508Y-81782637D01*
X100746222Y-81534157D01*
X100756424Y-81398020D01*
X100765268Y-81280004D01*
X100765268Y-81279995D01*
X100746222Y-81025845D01*
X100723886Y-80927986D01*
X100689508Y-80777363D01*
X100596393Y-80540112D01*
X100468959Y-80319388D01*
X100310050Y-80120123D01*
X100123217Y-79946768D01*
X99912634Y-79803195D01*
X99912630Y-79803193D01*
X99912627Y-79803191D01*
X99912626Y-79803190D01*
X99683006Y-79692612D01*
X99683008Y-79692612D01*
X99439466Y-79617489D01*
X99439462Y-79617488D01*
X99439458Y-79617487D01*
X99318231Y-79599214D01*
X99187440Y-79579500D01*
X99187435Y-79579500D01*
X98932565Y-79579500D01*
X98932559Y-79579500D01*
X98775609Y-79603157D01*
X98680542Y-79617487D01*
X98680539Y-79617488D01*
X98680533Y-79617489D01*
X98436992Y-79692612D01*
X98207373Y-79803190D01*
X98207372Y-79803191D01*
X97996782Y-79946768D01*
X97973804Y-79968089D01*
X97947603Y-79992399D01*
X97885073Y-80023567D01*
X97863264Y-80025500D01*
X96026148Y-80025500D01*
X95959109Y-80005815D01*
X95916239Y-79958912D01*
X95913909Y-79954451D01*
X95819698Y-79774093D01*
X95795237Y-79744094D01*
X95768128Y-79679700D01*
X95780137Y-79610870D01*
X95781875Y-79607618D01*
X95782854Y-79605634D01*
X95818240Y-79520205D01*
X95880822Y-79369118D01*
X95947083Y-79121829D01*
X95980500Y-78868006D01*
X95980500Y-78611994D01*
X95947083Y-78358171D01*
X95880822Y-78110882D01*
X95833518Y-77996682D01*
X95782855Y-77874368D01*
X95782848Y-77874353D01*
X95654847Y-77652647D01*
X95573551Y-77546701D01*
X95498993Y-77449535D01*
X95498991Y-77449533D01*
X95498988Y-77449529D01*
X95317970Y-77268511D01*
X95268158Y-77230289D01*
X95114857Y-77112656D01*
X95114852Y-77112652D01*
X94893146Y-76984651D01*
X94893131Y-76984644D01*
X94656616Y-76886677D01*
X94541849Y-76855925D01*
X94409329Y-76820417D01*
X94352923Y-76812991D01*
X94155513Y-76787000D01*
X94155506Y-76787000D01*
X93804494Y-76787000D01*
X93804486Y-76787000D01*
X93578873Y-76816704D01*
X93550671Y-76820417D01*
X93484411Y-76838171D01*
X93303383Y-76886677D01*
X93066868Y-76984644D01*
X93066853Y-76984651D01*
X92845147Y-77112652D01*
X92642029Y-77268511D01*
X92461011Y-77449529D01*
X92305152Y-77652647D01*
X92177151Y-77874353D01*
X92177144Y-77874368D01*
X92079177Y-78110883D01*
X92053206Y-78207811D01*
X92018265Y-78338214D01*
X92012917Y-78358172D01*
X91979500Y-78611986D01*
X85795500Y-78611986D01*
X85795500Y-78578712D01*
X85763838Y-78338211D01*
X85701054Y-78103900D01*
X85608224Y-77879788D01*
X85486936Y-77669711D01*
X85376266Y-77525483D01*
X85351074Y-77460317D01*
X85365112Y-77391873D01*
X85376261Y-77374523D01*
X85486936Y-77230289D01*
X85608224Y-77020212D01*
X85701054Y-76796100D01*
X85763838Y-76561789D01*
X85795500Y-76321288D01*
X85795500Y-76078712D01*
X85763838Y-75838211D01*
X85701054Y-75603900D01*
X85608224Y-75379788D01*
X85486936Y-75169711D01*
X85376266Y-75025483D01*
X85351074Y-74960317D01*
X85365112Y-74891873D01*
X85376261Y-74874523D01*
X85486936Y-74730289D01*
X85608224Y-74520212D01*
X85701054Y-74296100D01*
X85763838Y-74061789D01*
X85795500Y-73821288D01*
X85795500Y-73659995D01*
X111224451Y-73659995D01*
X111224451Y-73660004D01*
X111244616Y-73929101D01*
X111304664Y-74192188D01*
X111304666Y-74192195D01*
X111386028Y-74399501D01*
X111403257Y-74443398D01*
X111538185Y-74677102D01*
X111580604Y-74730293D01*
X111706442Y-74888089D01*
X111854522Y-75025486D01*
X111904259Y-75071635D01*
X112127226Y-75223651D01*
X112370359Y-75340738D01*
X112628228Y-75420280D01*
X112628229Y-75420280D01*
X112628232Y-75420281D01*
X112895063Y-75460499D01*
X112895068Y-75460499D01*
X112895071Y-75460500D01*
X112895072Y-75460500D01*
X113164928Y-75460500D01*
X113164929Y-75460500D01*
X113164936Y-75460499D01*
X113431767Y-75420281D01*
X113431768Y-75420280D01*
X113431772Y-75420280D01*
X113689641Y-75340738D01*
X113932775Y-75223651D01*
X114155741Y-75071635D01*
X114353561Y-74888085D01*
X114521815Y-74677102D01*
X114656743Y-74443398D01*
X114755334Y-74192195D01*
X114815383Y-73929103D01*
X114835549Y-73660000D01*
X114835549Y-73659995D01*
X118844451Y-73659995D01*
X118844451Y-73660004D01*
X118864616Y-73929101D01*
X118924664Y-74192188D01*
X118924666Y-74192195D01*
X119006028Y-74399501D01*
X119023257Y-74443398D01*
X119158185Y-74677102D01*
X119200604Y-74730293D01*
X119326442Y-74888089D01*
X119474522Y-75025486D01*
X119524259Y-75071635D01*
X119747226Y-75223651D01*
X119990359Y-75340738D01*
X120248228Y-75420280D01*
X120248229Y-75420280D01*
X120248232Y-75420281D01*
X120515063Y-75460499D01*
X120515068Y-75460499D01*
X120515071Y-75460500D01*
X120515072Y-75460500D01*
X120784928Y-75460500D01*
X120784929Y-75460500D01*
X120784936Y-75460499D01*
X121051767Y-75420281D01*
X121051768Y-75420280D01*
X121051772Y-75420280D01*
X121309641Y-75340738D01*
X121552775Y-75223651D01*
X121775741Y-75071635D01*
X121973561Y-74888085D01*
X122141815Y-74677102D01*
X122276743Y-74443398D01*
X122375334Y-74192195D01*
X122435383Y-73929103D01*
X122455549Y-73660000D01*
X122449457Y-73578712D01*
X122435383Y-73390898D01*
X122375335Y-73127811D01*
X122375334Y-73127805D01*
X122276743Y-72876602D01*
X122141815Y-72642898D01*
X121973561Y-72431915D01*
X121973560Y-72431914D01*
X121973557Y-72431910D01*
X121775741Y-72248365D01*
X121596813Y-72126374D01*
X121552775Y-72096349D01*
X121552769Y-72096346D01*
X121552768Y-72096345D01*
X121552767Y-72096344D01*
X121309643Y-71979263D01*
X121309645Y-71979263D01*
X121051773Y-71899720D01*
X121051767Y-71899718D01*
X120784936Y-71859500D01*
X120784929Y-71859500D01*
X120515071Y-71859500D01*
X120515063Y-71859500D01*
X120248232Y-71899718D01*
X120248226Y-71899720D01*
X119990358Y-71979262D01*
X119747230Y-72096346D01*
X119524258Y-72248365D01*
X119326442Y-72431910D01*
X119158185Y-72642898D01*
X119023258Y-72876599D01*
X119023256Y-72876603D01*
X118924666Y-73127804D01*
X118924664Y-73127811D01*
X118864616Y-73390898D01*
X118844451Y-73659995D01*
X114835549Y-73659995D01*
X114829457Y-73578712D01*
X114815383Y-73390898D01*
X114755335Y-73127811D01*
X114755334Y-73127805D01*
X114656743Y-72876602D01*
X114521815Y-72642898D01*
X114353561Y-72431915D01*
X114353560Y-72431914D01*
X114353557Y-72431910D01*
X114155741Y-72248365D01*
X113976813Y-72126374D01*
X113932775Y-72096349D01*
X113932769Y-72096346D01*
X113932768Y-72096345D01*
X113932767Y-72096344D01*
X113689643Y-71979263D01*
X113689645Y-71979263D01*
X113431773Y-71899720D01*
X113431767Y-71899718D01*
X113164936Y-71859500D01*
X113164929Y-71859500D01*
X112895071Y-71859500D01*
X112895063Y-71859500D01*
X112628232Y-71899718D01*
X112628226Y-71899720D01*
X112370358Y-71979262D01*
X112127230Y-72096346D01*
X111904258Y-72248365D01*
X111706442Y-72431910D01*
X111538185Y-72642898D01*
X111403258Y-72876599D01*
X111403256Y-72876603D01*
X111304666Y-73127804D01*
X111304664Y-73127811D01*
X111244616Y-73390898D01*
X111224451Y-73659995D01*
X85795500Y-73659995D01*
X85795500Y-73578712D01*
X85763838Y-73338211D01*
X85701054Y-73103900D01*
X85608224Y-72879788D01*
X85486936Y-72669711D01*
X85376266Y-72525483D01*
X85351074Y-72460317D01*
X85365112Y-72391873D01*
X85376261Y-72374523D01*
X85486936Y-72230289D01*
X85608224Y-72020212D01*
X85701054Y-71796100D01*
X85763838Y-71561789D01*
X85795500Y-71321288D01*
X85795500Y-71078712D01*
X85763838Y-70838211D01*
X85701054Y-70603900D01*
X85608224Y-70379788D01*
X85486936Y-70169711D01*
X85422631Y-70085907D01*
X85339266Y-69977263D01*
X85339260Y-69977256D01*
X85167743Y-69805739D01*
X85167736Y-69805733D01*
X84975293Y-69658067D01*
X84975292Y-69658066D01*
X84975289Y-69658064D01*
X84771856Y-69540612D01*
X84765214Y-69536777D01*
X84765205Y-69536773D01*
X84541104Y-69443947D01*
X84306785Y-69381161D01*
X84066289Y-69349500D01*
X84066288Y-69349500D01*
X83573712Y-69349500D01*
X83573711Y-69349500D01*
X83333214Y-69381161D01*
X83098895Y-69443947D01*
X82874794Y-69536773D01*
X82874785Y-69536777D01*
X82664706Y-69658067D01*
X82472263Y-69805733D01*
X82472256Y-69805739D01*
X82300739Y-69977256D01*
X82300733Y-69977263D01*
X82153067Y-70169706D01*
X82153064Y-70169710D01*
X82153064Y-70169711D01*
X82152395Y-70170870D01*
X82031777Y-70379785D01*
X82031773Y-70379794D01*
X81938947Y-70603895D01*
X81876161Y-70838214D01*
X81844500Y-71078711D01*
X55880000Y-71078711D01*
X55880000Y-65911986D01*
X91979500Y-65911986D01*
X91979500Y-66168013D01*
X92005491Y-66365423D01*
X92012917Y-66421829D01*
X92048425Y-66554349D01*
X92079177Y-66669116D01*
X92177144Y-66905631D01*
X92178943Y-66909278D01*
X92177561Y-66909959D01*
X92192519Y-66971646D01*
X92169660Y-67037671D01*
X92164764Y-67044092D01*
X92140303Y-67074091D01*
X92046089Y-67254454D01*
X91990113Y-67450084D01*
X91979500Y-67569466D01*
X91979500Y-69590528D01*
X91979501Y-69590534D01*
X91990113Y-69709915D01*
X92046089Y-69905545D01*
X92046090Y-69905548D01*
X92046091Y-69905549D01*
X92140302Y-70085907D01*
X92174977Y-70128433D01*
X92268890Y-70243609D01*
X92362803Y-70320184D01*
X92426593Y-70372198D01*
X92606951Y-70466409D01*
X92802582Y-70522386D01*
X92921963Y-70533000D01*
X95038036Y-70532999D01*
X95157418Y-70522386D01*
X95353049Y-70466409D01*
X95533407Y-70372198D01*
X95691109Y-70243609D01*
X95819698Y-70085907D01*
X95913909Y-69905549D01*
X95913909Y-69905547D01*
X95916239Y-69901088D01*
X95964726Y-69850781D01*
X96026148Y-69834500D01*
X97863264Y-69834500D01*
X97930303Y-69854185D01*
X97947601Y-69867598D01*
X97996783Y-69913232D01*
X98207366Y-70056805D01*
X98207371Y-70056807D01*
X98207372Y-70056808D01*
X98207373Y-70056809D01*
X98329328Y-70115538D01*
X98436992Y-70167387D01*
X98436993Y-70167387D01*
X98436996Y-70167389D01*
X98680542Y-70242513D01*
X98932565Y-70280500D01*
X99187435Y-70280500D01*
X99439458Y-70242513D01*
X99683004Y-70167389D01*
X99912634Y-70056805D01*
X100123217Y-69913232D01*
X100310050Y-69739877D01*
X100468959Y-69540612D01*
X100596393Y-69319888D01*
X100689508Y-69082637D01*
X100746222Y-68834157D01*
X100754384Y-68725232D01*
X100765268Y-68580004D01*
X100765268Y-68579995D01*
X100754116Y-68431183D01*
X101869500Y-68431183D01*
X101869500Y-71268809D01*
X101869501Y-71268825D01*
X101908348Y-71563901D01*
X101985382Y-71851396D01*
X102099278Y-72126364D01*
X102099282Y-72126374D01*
X102248096Y-72384128D01*
X102429283Y-72620255D01*
X102429289Y-72620262D01*
X102639737Y-72830710D01*
X102639744Y-72830716D01*
X102875871Y-73011903D01*
X103133625Y-73160717D01*
X103133626Y-73160717D01*
X103133629Y-73160719D01*
X103316947Y-73236651D01*
X103408603Y-73274617D01*
X103408604Y-73274617D01*
X103408606Y-73274618D01*
X103696097Y-73351651D01*
X103991184Y-73390500D01*
X103991191Y-73390500D01*
X104288809Y-73390500D01*
X104288816Y-73390500D01*
X104583903Y-73351651D01*
X104871394Y-73274618D01*
X105146371Y-73160719D01*
X105404129Y-73011903D01*
X105640257Y-72830715D01*
X105850715Y-72620257D01*
X106031903Y-72384129D01*
X106180719Y-72126371D01*
X106294618Y-71851394D01*
X106371651Y-71563903D01*
X106410500Y-71268816D01*
X106410500Y-69571833D01*
X106430185Y-69504794D01*
X106446814Y-69484157D01*
X107323761Y-68607210D01*
X111224451Y-68607210D01*
X111224451Y-68607219D01*
X111244616Y-68876316D01*
X111291706Y-69082630D01*
X111304666Y-69139410D01*
X111403257Y-69390613D01*
X111538185Y-69624317D01*
X111630342Y-69739878D01*
X111706442Y-69835304D01*
X111859431Y-69977256D01*
X111904259Y-70018850D01*
X112127226Y-70170866D01*
X112370359Y-70287953D01*
X112628228Y-70367495D01*
X112628229Y-70367495D01*
X112628232Y-70367496D01*
X112895063Y-70407714D01*
X112895068Y-70407714D01*
X112895071Y-70407715D01*
X112895072Y-70407715D01*
X113164928Y-70407715D01*
X113164929Y-70407715D01*
X113164936Y-70407714D01*
X113431767Y-70367496D01*
X113431768Y-70367495D01*
X113431772Y-70367495D01*
X113689641Y-70287953D01*
X113932775Y-70170866D01*
X114155741Y-70018850D01*
X114333208Y-69854185D01*
X114353557Y-69835304D01*
X114353557Y-69835302D01*
X114353561Y-69835300D01*
X114521815Y-69624317D01*
X114656743Y-69390613D01*
X114755334Y-69139410D01*
X114815383Y-68876318D01*
X114835549Y-68607215D01*
X114835549Y-68607210D01*
X118844451Y-68607210D01*
X118844451Y-68607219D01*
X118864616Y-68876316D01*
X118911706Y-69082630D01*
X118924666Y-69139410D01*
X119023257Y-69390613D01*
X119158185Y-69624317D01*
X119250342Y-69739878D01*
X119326442Y-69835304D01*
X119479431Y-69977256D01*
X119524259Y-70018850D01*
X119747226Y-70170866D01*
X119990359Y-70287953D01*
X120248228Y-70367495D01*
X120248229Y-70367495D01*
X120248232Y-70367496D01*
X120515063Y-70407714D01*
X120515068Y-70407714D01*
X120515071Y-70407715D01*
X120515072Y-70407715D01*
X120784928Y-70407715D01*
X120784929Y-70407715D01*
X120784936Y-70407714D01*
X121051767Y-70367496D01*
X121051768Y-70367495D01*
X121051772Y-70367495D01*
X121309641Y-70287953D01*
X121552775Y-70170866D01*
X121775741Y-70018850D01*
X121953208Y-69854185D01*
X121973557Y-69835304D01*
X121973557Y-69835302D01*
X121973561Y-69835300D01*
X122141815Y-69624317D01*
X122276743Y-69390613D01*
X122375334Y-69139410D01*
X122435383Y-68876318D01*
X122455549Y-68607215D01*
X122453509Y-68579995D01*
X122435383Y-68338113D01*
X122432583Y-68325845D01*
X122375334Y-68075020D01*
X122276743Y-67823817D01*
X122141815Y-67590113D01*
X121973561Y-67379130D01*
X121973560Y-67379129D01*
X121973557Y-67379125D01*
X121775741Y-67195580D01*
X121640237Y-67103195D01*
X121552775Y-67043564D01*
X121552769Y-67043561D01*
X121552768Y-67043560D01*
X121552767Y-67043559D01*
X121309643Y-66926478D01*
X121309645Y-66926478D01*
X121051773Y-66846935D01*
X121051767Y-66846933D01*
X120784936Y-66806715D01*
X120784929Y-66806715D01*
X120515071Y-66806715D01*
X120515063Y-66806715D01*
X120248232Y-66846933D01*
X120248226Y-66846935D01*
X119990358Y-66926477D01*
X119747230Y-67043561D01*
X119524258Y-67195580D01*
X119326442Y-67379125D01*
X119158185Y-67590113D01*
X119023258Y-67823814D01*
X119023256Y-67823818D01*
X118924666Y-68075019D01*
X118924664Y-68075026D01*
X118864616Y-68338113D01*
X118844451Y-68607210D01*
X114835549Y-68607210D01*
X114833509Y-68579995D01*
X114815383Y-68338113D01*
X114812583Y-68325845D01*
X114755334Y-68075020D01*
X114656743Y-67823817D01*
X114521815Y-67590113D01*
X114353561Y-67379130D01*
X114353560Y-67379129D01*
X114353557Y-67379125D01*
X114155741Y-67195580D01*
X114020237Y-67103195D01*
X113932775Y-67043564D01*
X113932769Y-67043561D01*
X113932768Y-67043560D01*
X113932767Y-67043559D01*
X113689643Y-66926478D01*
X113689645Y-66926478D01*
X113431773Y-66846935D01*
X113431767Y-66846933D01*
X113164936Y-66806715D01*
X113164929Y-66806715D01*
X112895071Y-66806715D01*
X112895063Y-66806715D01*
X112628232Y-66846933D01*
X112628226Y-66846935D01*
X112370358Y-66926477D01*
X112127230Y-67043561D01*
X111904258Y-67195580D01*
X111706442Y-67379125D01*
X111538185Y-67590113D01*
X111403258Y-67823814D01*
X111403256Y-67823818D01*
X111304666Y-68075019D01*
X111304664Y-68075026D01*
X111244616Y-68338113D01*
X111224451Y-68607210D01*
X107323761Y-68607210D01*
X110400034Y-65530936D01*
X110455625Y-65498843D01*
X110471384Y-65494621D01*
X110471386Y-65494619D01*
X110471394Y-65494618D01*
X110579259Y-65449938D01*
X110626712Y-65440500D01*
X110714096Y-65440500D01*
X110747719Y-65438165D01*
X110806567Y-65434081D01*
X110811605Y-65432896D01*
X110868395Y-65432896D01*
X110873433Y-65434081D01*
X110928918Y-65437932D01*
X110965904Y-65440500D01*
X110965908Y-65440500D01*
X112914096Y-65440500D01*
X112951082Y-65437932D01*
X113006567Y-65434081D01*
X113006573Y-65434079D01*
X113006577Y-65434079D01*
X113223135Y-65383145D01*
X113223135Y-65383144D01*
X113223143Y-65383143D01*
X113426671Y-65293277D01*
X113610221Y-65167542D01*
X113767542Y-65010221D01*
X113893277Y-64826671D01*
X113983143Y-64623143D01*
X114034081Y-64406567D01*
X114040500Y-64314092D01*
X114040500Y-62365908D01*
X114034081Y-62273433D01*
X114034079Y-62273427D01*
X114034079Y-62273422D01*
X113983145Y-62056864D01*
X113983144Y-62056861D01*
X113983143Y-62056857D01*
X113893277Y-61853329D01*
X113767542Y-61669779D01*
X113767537Y-61669773D01*
X113610226Y-61512462D01*
X113610220Y-61512457D01*
X113426668Y-61386721D01*
X113223151Y-61296860D01*
X113223135Y-61296854D01*
X113006577Y-61245920D01*
X113006561Y-61245918D01*
X112914096Y-61239500D01*
X112914092Y-61239500D01*
X110965908Y-61239500D01*
X110965904Y-61239500D01*
X110873432Y-61245918D01*
X110868383Y-61247106D01*
X110811617Y-61247106D01*
X110806566Y-61245918D01*
X110806569Y-61245918D01*
X110714096Y-61239500D01*
X110714092Y-61239500D01*
X110626712Y-61239500D01*
X110579259Y-61230061D01*
X110471396Y-61185382D01*
X110183901Y-61108348D01*
X109888825Y-61069501D01*
X109888822Y-61069500D01*
X109888816Y-61069500D01*
X109528816Y-61069500D01*
X109231184Y-61069500D01*
X109231183Y-61069500D01*
X108936100Y-61108347D01*
X108648604Y-61185382D01*
X108517953Y-61239500D01*
X108373635Y-61299278D01*
X108373625Y-61299282D01*
X108115871Y-61448096D01*
X107879744Y-61629283D01*
X107879737Y-61629289D01*
X102639743Y-66869285D01*
X102429288Y-67079738D01*
X102429283Y-67079744D01*
X102248097Y-67315869D01*
X102170612Y-67450081D01*
X102170611Y-67450082D01*
X102099284Y-67573621D01*
X102099276Y-67573637D01*
X101985382Y-67848605D01*
X101908347Y-68136100D01*
X101883368Y-68325843D01*
X101869500Y-68431183D01*
X100754116Y-68431183D01*
X100746222Y-68325845D01*
X100702913Y-68136097D01*
X100689508Y-68077363D01*
X100596393Y-67840112D01*
X100468959Y-67619388D01*
X100310050Y-67420123D01*
X100123217Y-67246768D01*
X99912634Y-67103195D01*
X99912630Y-67103193D01*
X99912627Y-67103191D01*
X99912626Y-67103190D01*
X99683006Y-66992612D01*
X99683008Y-66992612D01*
X99439466Y-66917489D01*
X99439462Y-66917488D01*
X99439458Y-66917487D01*
X99318231Y-66899214D01*
X99187440Y-66879500D01*
X99187435Y-66879500D01*
X98932565Y-66879500D01*
X98932559Y-66879500D01*
X98775609Y-66903157D01*
X98680542Y-66917487D01*
X98680539Y-66917488D01*
X98680533Y-66917489D01*
X98436992Y-66992612D01*
X98207373Y-67103190D01*
X98207372Y-67103191D01*
X97996782Y-67246768D01*
X97965476Y-67275815D01*
X97947603Y-67292399D01*
X97885073Y-67323567D01*
X97863264Y-67325500D01*
X96026148Y-67325500D01*
X95959109Y-67305815D01*
X95916239Y-67258912D01*
X95913909Y-67254451D01*
X95819698Y-67074093D01*
X95795237Y-67044094D01*
X95768128Y-66979700D01*
X95780137Y-66910870D01*
X95781875Y-66907618D01*
X95782854Y-66905634D01*
X95823827Y-66806715D01*
X95880822Y-66669118D01*
X95947083Y-66421829D01*
X95980500Y-66168006D01*
X95980500Y-65911994D01*
X95947083Y-65658171D01*
X95880822Y-65410882D01*
X95782850Y-65174357D01*
X95782848Y-65174353D01*
X95654847Y-64952647D01*
X95558182Y-64826671D01*
X95498993Y-64749535D01*
X95498991Y-64749533D01*
X95498988Y-64749529D01*
X95317970Y-64568511D01*
X95114852Y-64412652D01*
X94893146Y-64284651D01*
X94893131Y-64284644D01*
X94656616Y-64186677D01*
X94541849Y-64155925D01*
X94409329Y-64120417D01*
X94352923Y-64112991D01*
X94155513Y-64087000D01*
X94155506Y-64087000D01*
X93804494Y-64087000D01*
X93804486Y-64087000D01*
X93578873Y-64116704D01*
X93550671Y-64120417D01*
X93484411Y-64138171D01*
X93303383Y-64186677D01*
X93066868Y-64284644D01*
X93066853Y-64284651D01*
X92845147Y-64412652D01*
X92642029Y-64568511D01*
X92461011Y-64749529D01*
X92305152Y-64952647D01*
X92177151Y-65174353D01*
X92177144Y-65174368D01*
X92079177Y-65410883D01*
X92012917Y-65658172D01*
X91979500Y-65911986D01*
X55880000Y-65911986D01*
X55880000Y-53211986D01*
X91979500Y-53211986D01*
X91979500Y-53468013D01*
X92005491Y-53665423D01*
X92012917Y-53721829D01*
X92048425Y-53854349D01*
X92079177Y-53969116D01*
X92177144Y-54205631D01*
X92178943Y-54209278D01*
X92177561Y-54209959D01*
X92192519Y-54271646D01*
X92169660Y-54337671D01*
X92164764Y-54344092D01*
X92140303Y-54374091D01*
X92046089Y-54554454D01*
X91990114Y-54750083D01*
X91990113Y-54750086D01*
X91979500Y-54869466D01*
X91979500Y-56890528D01*
X91979501Y-56890534D01*
X91990113Y-57009915D01*
X92046089Y-57205545D01*
X92046090Y-57205548D01*
X92046091Y-57205549D01*
X92140302Y-57385907D01*
X92140304Y-57385909D01*
X92268890Y-57543609D01*
X92314133Y-57580499D01*
X92426593Y-57672198D01*
X92606951Y-57766409D01*
X92802582Y-57822386D01*
X92921963Y-57833000D01*
X95038036Y-57832999D01*
X95157418Y-57822386D01*
X95353049Y-57766409D01*
X95533407Y-57672198D01*
X95691109Y-57543609D01*
X95819698Y-57385907D01*
X95913909Y-57205549D01*
X95913909Y-57205547D01*
X95916239Y-57201088D01*
X95964726Y-57150781D01*
X96026148Y-57134500D01*
X97863264Y-57134500D01*
X97930303Y-57154185D01*
X97947601Y-57167598D01*
X97996783Y-57213232D01*
X98207366Y-57356805D01*
X98207371Y-57356807D01*
X98207372Y-57356808D01*
X98207373Y-57356809D01*
X98329328Y-57415538D01*
X98436992Y-57467387D01*
X98436993Y-57467387D01*
X98436996Y-57467389D01*
X98680542Y-57542513D01*
X98932565Y-57580500D01*
X99187435Y-57580500D01*
X99439458Y-57542513D01*
X99683004Y-57467389D01*
X99912634Y-57356805D01*
X100123217Y-57213232D01*
X100310050Y-57039877D01*
X100468959Y-56840612D01*
X100596393Y-56619888D01*
X100689508Y-56382637D01*
X100746222Y-56134157D01*
X100765268Y-55880000D01*
X100746222Y-55625843D01*
X100689508Y-55377363D01*
X100596393Y-55140112D01*
X100468959Y-54919388D01*
X100310050Y-54720123D01*
X100123217Y-54546768D01*
X99912634Y-54403195D01*
X99912630Y-54403193D01*
X99912627Y-54403191D01*
X99912626Y-54403190D01*
X99683006Y-54292612D01*
X99683008Y-54292612D01*
X99439466Y-54217489D01*
X99439462Y-54217488D01*
X99439458Y-54217487D01*
X99318231Y-54199214D01*
X99187440Y-54179500D01*
X99187435Y-54179500D01*
X98932565Y-54179500D01*
X98932559Y-54179500D01*
X98775609Y-54203157D01*
X98680542Y-54217487D01*
X98680539Y-54217488D01*
X98680533Y-54217489D01*
X98436992Y-54292612D01*
X98207373Y-54403190D01*
X98207372Y-54403191D01*
X97996782Y-54546768D01*
X97965476Y-54575815D01*
X97947603Y-54592399D01*
X97885073Y-54623567D01*
X97863264Y-54625500D01*
X96026148Y-54625500D01*
X95959109Y-54605815D01*
X95916239Y-54558912D01*
X95911883Y-54550573D01*
X95819698Y-54374093D01*
X95795237Y-54344094D01*
X95768128Y-54279700D01*
X95780137Y-54210870D01*
X95781875Y-54207618D01*
X95782854Y-54205634D01*
X95822181Y-54110689D01*
X95880822Y-53969118D01*
X95947083Y-53721829D01*
X95980500Y-53468006D01*
X95980500Y-53339998D01*
X104824773Y-53339998D01*
X104824773Y-53340001D01*
X104843657Y-53604027D01*
X104843658Y-53604034D01*
X104899921Y-53862673D01*
X104992426Y-54110690D01*
X104992428Y-54110694D01*
X105119280Y-54343005D01*
X105119285Y-54343013D01*
X105263520Y-54535690D01*
X105287937Y-54601155D01*
X105273085Y-54669427D01*
X105263520Y-54684310D01*
X105119285Y-54876986D01*
X105119280Y-54876994D01*
X104992428Y-55109305D01*
X104992426Y-55109309D01*
X104899921Y-55357326D01*
X104843658Y-55615965D01*
X104843657Y-55615972D01*
X104824773Y-55879998D01*
X104824773Y-55880001D01*
X104843657Y-56144027D01*
X104843658Y-56144034D01*
X104899921Y-56402673D01*
X104992426Y-56650690D01*
X104992428Y-56650694D01*
X105119280Y-56883005D01*
X105119285Y-56883013D01*
X105277906Y-57094907D01*
X105277922Y-57094925D01*
X105465074Y-57282077D01*
X105465092Y-57282093D01*
X105676986Y-57440714D01*
X105676994Y-57440719D01*
X105909305Y-57567571D01*
X105909309Y-57567573D01*
X105909311Y-57567574D01*
X106157322Y-57660077D01*
X106157325Y-57660077D01*
X106157326Y-57660078D01*
X106352552Y-57702546D01*
X106415974Y-57716343D01*
X106659660Y-57733772D01*
X106679999Y-57735227D01*
X106680000Y-57735227D01*
X106680001Y-57735227D01*
X106698885Y-57733876D01*
X106944026Y-57716343D01*
X107202678Y-57660077D01*
X107450689Y-57567574D01*
X107683011Y-57440716D01*
X107894915Y-57282087D01*
X108082087Y-57094915D01*
X108240716Y-56883011D01*
X108367574Y-56650689D01*
X108460077Y-56402678D01*
X108516343Y-56144026D01*
X108535227Y-55880000D01*
X108516343Y-55615974D01*
X108464437Y-55377363D01*
X108460078Y-55357326D01*
X108367573Y-55109309D01*
X108367571Y-55109305D01*
X108240719Y-54876994D01*
X108240714Y-54876986D01*
X108096479Y-54684310D01*
X108072062Y-54618846D01*
X108086914Y-54550573D01*
X108096479Y-54535690D01*
X108195666Y-54403191D01*
X108240716Y-54343011D01*
X108367574Y-54110689D01*
X108460077Y-53862678D01*
X108516343Y-53604026D01*
X108535227Y-53340000D01*
X108516343Y-53075974D01*
X108460077Y-52817322D01*
X108367574Y-52569311D01*
X108288717Y-52424896D01*
X108273865Y-52356624D01*
X108298282Y-52291159D01*
X108301426Y-52287134D01*
X108369698Y-52203407D01*
X108463909Y-52023049D01*
X108519886Y-51827418D01*
X108530500Y-51708037D01*
X108530499Y-49891964D01*
X108519886Y-49772582D01*
X108463909Y-49576951D01*
X108369698Y-49396593D01*
X108317684Y-49332803D01*
X108241109Y-49238890D01*
X108083409Y-49110304D01*
X108083410Y-49110304D01*
X108083407Y-49110302D01*
X107903049Y-49016091D01*
X107903048Y-49016090D01*
X107903045Y-49016089D01*
X107785829Y-48982550D01*
X107707418Y-48960114D01*
X107707415Y-48960113D01*
X107707413Y-48960113D01*
X107641102Y-48954217D01*
X107588037Y-48949500D01*
X107588032Y-48949500D01*
X105771971Y-48949500D01*
X105771965Y-48949500D01*
X105771964Y-48949501D01*
X105760316Y-48950536D01*
X105652584Y-48960113D01*
X105456954Y-49016089D01*
X105366772Y-49063196D01*
X105276593Y-49110302D01*
X105276591Y-49110303D01*
X105276590Y-49110304D01*
X105118890Y-49238890D01*
X104990304Y-49396590D01*
X104896089Y-49576954D01*
X104840114Y-49772583D01*
X104840113Y-49772586D01*
X104829500Y-49891966D01*
X104829500Y-51708028D01*
X104829500Y-51708033D01*
X104829501Y-51708036D01*
X104829912Y-51712656D01*
X104840113Y-51827415D01*
X104896089Y-52023045D01*
X104896090Y-52023047D01*
X104896091Y-52023049D01*
X104990302Y-52203407D01*
X104990304Y-52203409D01*
X105058551Y-52287108D01*
X105085660Y-52351505D01*
X105073651Y-52420334D01*
X105071282Y-52424895D01*
X104992426Y-52569309D01*
X104899921Y-52817326D01*
X104843658Y-53075965D01*
X104843657Y-53075972D01*
X104824773Y-53339998D01*
X95980500Y-53339998D01*
X95980500Y-53211994D01*
X95947083Y-52958171D01*
X95880822Y-52710882D01*
X95822181Y-52569311D01*
X95782855Y-52474368D01*
X95782848Y-52474353D01*
X95654847Y-52252647D01*
X95498988Y-52049529D01*
X95317970Y-51868511D01*
X95264410Y-51827413D01*
X95114857Y-51712656D01*
X95114852Y-51712652D01*
X94893146Y-51584651D01*
X94893131Y-51584644D01*
X94656616Y-51486677D01*
X94541849Y-51455925D01*
X94409329Y-51420417D01*
X94352923Y-51412991D01*
X94155513Y-51387000D01*
X94155506Y-51387000D01*
X93804494Y-51387000D01*
X93804486Y-51387000D01*
X93578873Y-51416704D01*
X93550671Y-51420417D01*
X93484411Y-51438171D01*
X93303383Y-51486677D01*
X93066868Y-51584644D01*
X93066853Y-51584651D01*
X92845147Y-51712652D01*
X92642029Y-51868511D01*
X92461011Y-52049529D01*
X92305152Y-52252647D01*
X92177151Y-52474353D01*
X92177144Y-52474368D01*
X92079177Y-52710883D01*
X92012917Y-52958172D01*
X91979500Y-53211986D01*
X55880000Y-53211986D01*
X55880000Y-42229997D01*
X91007499Y-42229997D01*
X91007499Y-42230000D01*
X91027451Y-42489884D01*
X91027451Y-42489889D01*
X91086840Y-42743677D01*
X91086841Y-42743682D01*
X91184277Y-42985435D01*
X91184281Y-42985441D01*
X91317474Y-43209481D01*
X91483311Y-43410570D01*
X91584794Y-43501011D01*
X91677899Y-43583986D01*
X91677907Y-43583993D01*
X91896676Y-43725666D01*
X91896684Y-43725670D01*
X92134523Y-43832291D01*
X92134525Y-43832292D01*
X92244861Y-43862612D01*
X92385859Y-43901360D01*
X92644790Y-43931252D01*
X92905249Y-43921269D01*
X93161131Y-43871643D01*
X93161134Y-43871642D01*
X93406435Y-43783541D01*
X93406436Y-43783540D01*
X93406440Y-43783539D01*
X93635425Y-43659021D01*
X93842718Y-43501008D01*
X94023461Y-43313204D01*
X94173419Y-43100010D01*
X94289074Y-42866424D01*
X94367718Y-42617921D01*
X94375752Y-42565904D01*
X107639500Y-42565904D01*
X107639500Y-44514095D01*
X107645918Y-44606561D01*
X107645920Y-44606577D01*
X107696854Y-44823135D01*
X107696860Y-44823151D01*
X107786721Y-45026668D01*
X107912457Y-45210220D01*
X107912462Y-45210226D01*
X108069773Y-45367537D01*
X108069779Y-45367542D01*
X108253329Y-45493277D01*
X108456857Y-45583143D01*
X108456861Y-45583144D01*
X108456864Y-45583145D01*
X108673422Y-45634079D01*
X108673427Y-45634079D01*
X108673433Y-45634081D01*
X108724808Y-45637647D01*
X108765904Y-45640500D01*
X108765908Y-45640500D01*
X110714096Y-45640500D01*
X110747719Y-45638165D01*
X110806567Y-45634081D01*
X110811605Y-45632896D01*
X110868395Y-45632896D01*
X110873433Y-45634081D01*
X110928918Y-45637932D01*
X110965904Y-45640500D01*
X110965908Y-45640500D01*
X112914096Y-45640500D01*
X112951082Y-45637932D01*
X113006567Y-45634081D01*
X113006573Y-45634079D01*
X113006577Y-45634079D01*
X113223135Y-45583145D01*
X113223135Y-45583144D01*
X113223143Y-45583143D01*
X113426671Y-45493277D01*
X113610221Y-45367542D01*
X113767542Y-45210221D01*
X113893277Y-45026671D01*
X113983143Y-44823143D01*
X114034081Y-44606567D01*
X114040500Y-44514092D01*
X114040500Y-42565908D01*
X114034081Y-42473433D01*
X114034079Y-42473427D01*
X114034079Y-42473422D01*
X113983145Y-42256864D01*
X113983144Y-42256861D01*
X113983143Y-42256857D01*
X113893277Y-42053329D01*
X113767542Y-41869779D01*
X113767537Y-41869773D01*
X113610226Y-41712462D01*
X113610220Y-41712457D01*
X113426668Y-41586721D01*
X113223151Y-41496860D01*
X113223135Y-41496854D01*
X113006577Y-41445920D01*
X113006561Y-41445918D01*
X112914096Y-41439500D01*
X112914092Y-41439500D01*
X110965908Y-41439500D01*
X110965904Y-41439500D01*
X110873432Y-41445918D01*
X110868383Y-41447106D01*
X110811617Y-41447106D01*
X110806566Y-41445918D01*
X110806569Y-41445918D01*
X110714096Y-41439500D01*
X110714092Y-41439500D01*
X108765908Y-41439500D01*
X108765904Y-41439500D01*
X108673438Y-41445918D01*
X108673422Y-41445920D01*
X108456864Y-41496854D01*
X108456848Y-41496860D01*
X108253331Y-41586721D01*
X108069779Y-41712457D01*
X108069773Y-41712462D01*
X107912462Y-41869773D01*
X107912457Y-41869779D01*
X107786721Y-42053331D01*
X107696860Y-42256848D01*
X107696854Y-42256864D01*
X107645920Y-42473422D01*
X107645918Y-42473438D01*
X107639500Y-42565904D01*
X94375752Y-42565904D01*
X94407506Y-42360325D01*
X94410000Y-42230000D01*
X94407506Y-42099675D01*
X94367718Y-41842079D01*
X94289074Y-41593576D01*
X94173419Y-41359990D01*
X94023461Y-41146796D01*
X93842718Y-40958992D01*
X93635425Y-40800979D01*
X93505500Y-40730328D01*
X93406435Y-40676458D01*
X93161134Y-40588357D01*
X92905249Y-40538730D01*
X92644790Y-40528748D01*
X92385857Y-40558640D01*
X92385853Y-40558641D01*
X92134525Y-40627707D01*
X92134523Y-40627708D01*
X91896684Y-40734329D01*
X91896676Y-40734333D01*
X91677907Y-40876006D01*
X91677899Y-40876013D01*
X91483309Y-41049431D01*
X91317473Y-41250520D01*
X91184281Y-41474558D01*
X91184277Y-41474564D01*
X91086841Y-41716317D01*
X91086840Y-41716322D01*
X91027451Y-41970110D01*
X91027451Y-41970115D01*
X91007499Y-42229997D01*
X55880000Y-42229997D01*
X55880000Y-38099994D01*
X111794556Y-38099994D01*
X111794556Y-38100005D01*
X111814310Y-38414004D01*
X111814311Y-38414011D01*
X111873270Y-38723083D01*
X111970497Y-39022316D01*
X111970499Y-39022321D01*
X112104461Y-39307003D01*
X112104464Y-39307009D01*
X112273051Y-39572661D01*
X112273054Y-39572665D01*
X112473606Y-39815090D01*
X112473608Y-39815092D01*
X112702968Y-40030476D01*
X112702978Y-40030484D01*
X112957504Y-40215408D01*
X112957509Y-40215410D01*
X112957516Y-40215416D01*
X113233234Y-40366994D01*
X113233239Y-40366996D01*
X113233241Y-40366997D01*
X113233242Y-40366998D01*
X113525771Y-40482818D01*
X113525774Y-40482819D01*
X113743534Y-40538730D01*
X113830527Y-40561066D01*
X113896010Y-40569338D01*
X114142670Y-40600499D01*
X114142679Y-40600499D01*
X114142682Y-40600500D01*
X114142684Y-40600500D01*
X114457316Y-40600500D01*
X114457318Y-40600500D01*
X114457321Y-40600499D01*
X114457329Y-40600499D01*
X114643593Y-40576968D01*
X114769473Y-40561066D01*
X115074225Y-40482819D01*
X115074228Y-40482818D01*
X115366757Y-40366998D01*
X115366758Y-40366997D01*
X115366756Y-40366997D01*
X115366766Y-40366994D01*
X115642484Y-40215416D01*
X115897030Y-40030478D01*
X116126390Y-39815094D01*
X116326947Y-39572663D01*
X116495537Y-39307007D01*
X116629503Y-39022315D01*
X116726731Y-38723079D01*
X116785688Y-38414015D01*
X116805444Y-38100000D01*
X116785688Y-37785985D01*
X116726731Y-37476921D01*
X116629503Y-37177685D01*
X116495537Y-36892993D01*
X116326947Y-36627337D01*
X116326945Y-36627334D01*
X116126393Y-36384909D01*
X116126391Y-36384907D01*
X115897031Y-36169523D01*
X115897021Y-36169515D01*
X115642495Y-35984591D01*
X115642488Y-35984586D01*
X115642484Y-35984584D01*
X115366766Y-35833006D01*
X115366763Y-35833004D01*
X115366758Y-35833002D01*
X115366757Y-35833001D01*
X115074228Y-35717181D01*
X115074225Y-35717180D01*
X114769476Y-35638934D01*
X114769463Y-35638932D01*
X114457329Y-35599500D01*
X114457318Y-35599500D01*
X114142682Y-35599500D01*
X114142670Y-35599500D01*
X113830536Y-35638932D01*
X113830523Y-35638934D01*
X113525774Y-35717180D01*
X113525771Y-35717181D01*
X113233242Y-35833001D01*
X113233241Y-35833002D01*
X112957516Y-35984584D01*
X112957504Y-35984591D01*
X112702978Y-36169515D01*
X112702968Y-36169523D01*
X112473608Y-36384907D01*
X112473606Y-36384909D01*
X112273054Y-36627334D01*
X112273051Y-36627338D01*
X112104464Y-36892990D01*
X112104461Y-36892996D01*
X111970499Y-37177678D01*
X111970497Y-37177683D01*
X111873270Y-37476916D01*
X111814311Y-37785988D01*
X111814310Y-37785995D01*
X111794556Y-38099994D01*
X55880000Y-38099994D01*
X55880000Y-30480709D01*
X55880007Y-30479357D01*
X55882365Y-30263037D01*
X55882829Y-30253595D01*
X55920589Y-29821997D01*
X55922001Y-29811279D01*
X55997116Y-29385279D01*
X55999449Y-29374755D01*
X56111415Y-28956891D01*
X56114653Y-28946622D01*
X56262612Y-28540107D01*
X56266733Y-28530157D01*
X56449557Y-28138090D01*
X56454537Y-28128523D01*
X56670828Y-27753896D01*
X56676621Y-27744802D01*
X56924751Y-27390436D01*
X56931308Y-27381890D01*
X57209389Y-27050487D01*
X57216665Y-27042548D01*
X57522548Y-26736665D01*
X57530487Y-26729389D01*
X57861890Y-26451308D01*
X57870436Y-26444751D01*
X58224802Y-26196621D01*
X58233896Y-26190828D01*
X58608523Y-25974537D01*
X58618090Y-25969557D01*
X59010157Y-25786733D01*
X59020107Y-25782612D01*
X59426622Y-25634653D01*
X59436891Y-25631415D01*
X59854755Y-25519449D01*
X59865279Y-25517116D01*
X60291282Y-25442000D01*
X60301997Y-25440589D01*
X60733595Y-25402829D01*
X60743025Y-25402365D01*
X60959358Y-25400007D01*
X60960710Y-25400000D01*
X124459290Y-25400000D01*
X124460642Y-25400007D01*
G37*
G04 #@! TD.AperFunction*
M02*
