G04 #@! TF.GenerationSoftware,KiCad,Pcbnew,7.0.10*
G04 #@! TF.CreationDate,2024-03-10T12:38:40+01:00*
G04 #@! TF.ProjectId,double_relay,646f7562-6c65-45f7-9265-6c61792e6b69,rev?*
G04 #@! TF.SameCoordinates,Original*
G04 #@! TF.FileFunction,Profile,NP*
%FSLAX46Y46*%
G04 Gerber Fmt 4.6, Leading zero omitted, Abs format (unit mm)*
G04 Created by KiCad (PCBNEW 7.0.10) date 2024-03-10 12:38:40*
%MOMM*%
%LPD*%
G01*
G04 APERTURE LIST*
G04 #@! TA.AperFunction,Profile*
%ADD10C,0.100000*%
G04 #@! TD*
G04 APERTURE END LIST*
D10*
X60960000Y-25400000D02*
G75*
G03*
X55880000Y-30480000I0J-5080000D01*
G01*
X75627466Y-51193396D02*
G75*
G03*
X77367214Y-51187815I869834J15196D01*
G01*
X129540000Y-30480000D02*
G75*
G03*
X124460000Y-25400000I-5080000J0D01*
G01*
X65267049Y-71120000D02*
X67833824Y-74219140D01*
X66903550Y-71120000D02*
X66903550Y-60300077D01*
X82323145Y-51187686D02*
X82323145Y-70259742D01*
X96886055Y-62279541D02*
G75*
G03*
X93669893Y-62276916I-1608085J-3609D01*
G01*
X117657709Y-83865903D02*
X117657709Y-90865903D01*
X66903550Y-60300077D02*
G75*
G03*
X65267048Y-60300077I-818251J0D01*
G01*
X82323135Y-51187686D02*
G75*
G03*
X75627474Y-51193396I-3347825J-9194D01*
G01*
X120990989Y-61764220D02*
G75*
G03*
X122730691Y-61758640I869811J15220D01*
G01*
X80583404Y-51193267D02*
X80583404Y-70265323D01*
X66903550Y-71120000D02*
X69470325Y-74219140D01*
X117657709Y-83865903D02*
G75*
G03*
X116021209Y-83865903I-818250J0D01*
G01*
X55880000Y-93980000D02*
G75*
G03*
X60960000Y-99060000I5080000J0D01*
G01*
X67833824Y-74219140D02*
X67833824Y-81219140D01*
X91930210Y-62279669D02*
G75*
G03*
X93669872Y-62274089I869790J15469D01*
G01*
X116034921Y-61764352D02*
G75*
G03*
X117774759Y-61758769I869879J15352D01*
G01*
X91984708Y-84323313D02*
X91984708Y-91323313D01*
X129540000Y-30480000D02*
X129540000Y-93980000D01*
X94410000Y-42230000D02*
G75*
G03*
X91010000Y-42230000I-1700000J0D01*
G01*
X91010000Y-42230000D02*
G75*
G03*
X94410000Y-42230000I1700000J0D01*
G01*
X93621209Y-84323313D02*
X93621209Y-91323313D01*
X80583393Y-51193267D02*
G75*
G03*
X77367235Y-51190642I-1608083J-3693D01*
G01*
X69470325Y-74219140D02*
X69470325Y-81219140D01*
X122730689Y-61758640D02*
G75*
G03*
X116035020Y-61764350I-3347829J-9200D01*
G01*
X116021208Y-83865903D02*
X116021208Y-90865903D01*
X67833824Y-81219140D02*
G75*
G03*
X69470326Y-81219140I818251J0D01*
G01*
X91984708Y-91323313D02*
G75*
G03*
X93621210Y-91323313I818251J0D01*
G01*
X116021208Y-90865903D02*
G75*
G03*
X117657710Y-90865903I818251J0D01*
G01*
X96886078Y-62279541D02*
G75*
G03*
X98625802Y-62273960I869822J15241D01*
G01*
X98625797Y-62273960D02*
G75*
G03*
X91930132Y-62279670I-3347827J-9190D01*
G01*
X93621209Y-84323313D02*
G75*
G03*
X91984709Y-84323313I-818250J0D01*
G01*
X60960000Y-25400000D02*
X124460000Y-25400000D01*
X124460000Y-99060000D02*
G75*
G03*
X129540000Y-93980000I0J5080000D01*
G01*
X55880000Y-93980000D02*
X55880000Y-30480000D01*
X80583336Y-70265324D02*
G75*
G03*
X82323144Y-70259742I869864J15324D01*
G01*
X120991026Y-61764221D02*
G75*
G03*
X117774782Y-61761596I-1608126J-3579D01*
G01*
X65267049Y-71120000D02*
X65267049Y-60300077D01*
X124460000Y-99060000D02*
X60960000Y-99060000D01*
M02*
