%TF.GenerationSoftware,KiCad,Pcbnew,7.0.10*%
%TF.CreationDate,2024-02-08T08:41:23+01:00*%
%TF.ProjectId,double_relay,646f7562-6c65-45f7-9265-6c61792e6b69,rev?*%
%TF.SameCoordinates,Original*%
%TF.FileFunction,Drillmap*%
%TF.FilePolarity,Positive*%
%FSLAX45Y45*%
G04 Gerber Fmt 4.5, Leading zero omitted, Abs format (unit mm)*
G04 Created by KiCad (PCBNEW 7.0.10) date 2024-02-08 08:41:23*
%MOMM*%
%LPD*%
G01*
G04 APERTURE LIST*
%ADD10C,0.100000*%
%ADD11C,0.200000*%
%ADD12C,0.110000*%
%ADD13C,0.120000*%
%ADD14C,0.130000*%
%ADD15C,0.152000*%
G04 APERTURE END LIST*
D10*
X6455072Y-6873138D02*
X6455072Y-7878420D01*
X8273941Y-8651725D02*
G75*
G03*
X8273383Y-8477747I-1532J86985D01*
G01*
D11*
X11938000Y-3048000D02*
G75*
G03*
X11430000Y-2540000I-508000J0D01*
G01*
X5080000Y-8890000D02*
G75*
G03*
X5588000Y-9398000I508000J0D01*
G01*
X11430000Y-9398000D02*
G75*
G03*
X11938000Y-8890000I0J508000D01*
G01*
D10*
X8274141Y-6445051D02*
G75*
G03*
X8273879Y-6766668I359J-160809D01*
G01*
X8273370Y-7982154D02*
G75*
G03*
X8273941Y-8651721I920J-334783D01*
G01*
D11*
X7620000Y-9144000D02*
X7618949Y-8750647D01*
D10*
X7112000Y-7619994D02*
G75*
G03*
X7112558Y-7793974I1530J-86986D01*
G01*
D11*
X5080000Y-3048000D02*
X5080000Y-8890000D01*
X7366000Y-9144000D02*
X7366332Y-8756662D01*
X7618950Y-8750647D02*
G75*
G03*
X7366332Y-8756662I-126145J-9906D01*
G01*
D10*
X8274154Y-6940642D02*
G75*
G03*
X8273596Y-6766670I-1534J86982D01*
G01*
D11*
X5588000Y-2540000D02*
G75*
G03*
X5080000Y-3048000I0J-508000D01*
G01*
X11430000Y-2540000D02*
X5588000Y-2540000D01*
X7620000Y-9144000D02*
G75*
G03*
X7874000Y-9398000I254000J0D01*
G01*
D10*
X7111987Y-7124407D02*
G75*
G03*
X7112545Y-7298381I1533J-86983D01*
G01*
X6213690Y-8511691D02*
X6210851Y-7307624D01*
D11*
X11938000Y-8890000D02*
X11938000Y-3048000D01*
D10*
X6210851Y-7307624D02*
X6253447Y-7151436D01*
X6455072Y-7878420D02*
X6358519Y-8219194D01*
X6358519Y-8219194D02*
X6358519Y-8511691D01*
X8273928Y-8156134D02*
G75*
G03*
X8273666Y-8477745I362J-160806D01*
G01*
D11*
X7874000Y-9398000D02*
X11430000Y-9398000D01*
D10*
X6253447Y-7151436D02*
X6254236Y-6870278D01*
X7112558Y-7793974D02*
G75*
G03*
X7111987Y-7124407I-920J334783D01*
G01*
X8274142Y-6445055D02*
G75*
G03*
X8273583Y-6271077I-1532J86985D01*
G01*
D11*
X7112000Y-9398000D02*
G75*
G03*
X7366000Y-9144000I0J254000D01*
G01*
D10*
X6213690Y-8511691D02*
G75*
G03*
X6358519Y-8511691I72414J0D01*
G01*
X8273583Y-6271077D02*
G75*
G03*
X8274154Y-6940644I920J-334783D01*
G01*
X6455064Y-6873137D02*
G75*
G03*
X6254236Y-6870278I-100414J1428D01*
G01*
X8273928Y-8156118D02*
G75*
G03*
X8273370Y-7982154I-1528J86978D01*
G01*
X7112000Y-7619998D02*
G75*
G03*
X7112262Y-7298383I-360J160808D01*
G01*
D11*
X7112000Y-9398000D02*
X5588000Y-9398000D01*
D10*
X9124000Y-5568000D02*
X9164000Y-5608000D01*
X9164000Y-5568000D02*
X9124000Y-5608000D01*
X9124000Y-5822000D02*
X9164000Y-5862000D01*
X9164000Y-5822000D02*
X9124000Y-5862000D01*
X5494483Y-8033946D02*
G75*
G03*
X5434483Y-8033946I-30000J0D01*
G01*
X5434483Y-8033946D02*
G75*
G03*
X5494483Y-8033946I30000J0D01*
G01*
X5614483Y-7533946D02*
G75*
G03*
X5554483Y-7533946I-30000J0D01*
G01*
X5554483Y-7533946D02*
G75*
G03*
X5614483Y-7533946I30000J0D01*
G01*
X6107284Y-7437212D02*
G75*
G03*
X6047284Y-7437212I-30000J0D01*
G01*
X6047284Y-7437212D02*
G75*
G03*
X6107284Y-7437212I30000J0D01*
G01*
X6607284Y-7557212D02*
G75*
G03*
X6547284Y-7557212I-30000J0D01*
G01*
X6547284Y-7557212D02*
G75*
G03*
X6607284Y-7557212I30000J0D01*
G01*
X6350000Y-3262000D02*
X6350000Y-3342000D01*
X6310000Y-3302000D02*
X6390000Y-3302000D01*
X6850000Y-3262000D02*
X6850000Y-3342000D01*
X6810000Y-3302000D02*
X6890000Y-3302000D01*
X7741507Y-7436521D02*
X7741507Y-7516521D01*
X7701507Y-7476521D02*
X7781507Y-7476521D01*
X7741507Y-7944521D02*
X7741507Y-8024521D01*
X7701507Y-7984521D02*
X7781507Y-7984521D01*
X7754482Y-5538054D02*
X7754482Y-5618054D01*
X7714482Y-5578054D02*
X7794482Y-5578054D01*
X7754482Y-6046054D02*
X7754482Y-6126054D01*
X7714482Y-6086054D02*
X7794482Y-6086054D01*
X7995507Y-7690521D02*
X7995507Y-7770521D01*
X7955507Y-7730521D02*
X8035507Y-7730521D01*
X8008482Y-5792054D02*
X8008482Y-5872054D01*
X7968482Y-5832054D02*
X8048482Y-5832054D01*
X8509000Y-3262000D02*
X8509000Y-3342000D01*
X8469000Y-3302000D02*
X8549000Y-3302000D01*
X8509000Y-4278000D02*
X8509000Y-4358000D01*
X8469000Y-4318000D02*
X8549000Y-4318000D01*
X8509000Y-4532000D02*
X8509000Y-4612000D01*
X8469000Y-4572000D02*
X8549000Y-4572000D01*
X9271000Y-3262000D02*
X9271000Y-3342000D01*
X9231000Y-3302000D02*
X9311000Y-3302000D01*
X9271000Y-4278000D02*
X9271000Y-4358000D01*
X9231000Y-4318000D02*
X9311000Y-4318000D01*
X9271000Y-4532000D02*
X9271000Y-4612000D01*
X9231000Y-4572000D02*
X9311000Y-4572000D01*
X5615356Y-4139606D02*
X5615356Y-4068894D01*
X5544644Y-4068894D01*
X5544644Y-4139606D01*
X5615356Y-4139606D01*
X5623356Y-3083356D02*
X5623356Y-3012644D01*
X5552644Y-3012644D01*
X5552644Y-3083356D01*
X5623356Y-3083356D01*
X5623356Y-3333356D02*
X5623356Y-3262644D01*
X5552644Y-3262644D01*
X5552644Y-3333356D01*
X5623356Y-3333356D01*
X6135356Y-7079606D02*
X6135356Y-7008894D01*
X6064644Y-7008894D01*
X6064644Y-7079606D01*
X6135356Y-7079606D01*
X6635356Y-7079606D02*
X6635356Y-7008894D01*
X6564644Y-7008894D01*
X6564644Y-7079606D01*
X6635356Y-7079606D01*
X7155356Y-4139606D02*
X7155356Y-4068894D01*
X7084644Y-4068894D01*
X7084644Y-4139606D01*
X7155356Y-4139606D01*
X7600952Y-4066777D02*
X7600952Y-3996066D01*
X7530241Y-3996066D01*
X7530241Y-4066777D01*
X7600952Y-4066777D01*
X7600952Y-4320777D02*
X7600952Y-4250066D01*
X7530241Y-4250066D01*
X7530241Y-4320777D01*
X7600952Y-4320777D01*
X7600952Y-4574777D02*
X7600952Y-4504066D01*
X7530241Y-4504066D01*
X7530241Y-4574777D01*
X7600952Y-4574777D01*
X7971976Y-4066777D02*
X7971976Y-3996066D01*
X7901264Y-3996066D01*
X7901264Y-4066777D01*
X7971976Y-4066777D01*
X7971976Y-4320777D02*
X7971976Y-4250066D01*
X7901264Y-4250066D01*
X7901264Y-4320777D01*
X7971976Y-4320777D01*
X7971976Y-4574777D02*
X7971976Y-4504066D01*
X7901264Y-4504066D01*
X7901264Y-4574777D01*
X7971976Y-4574777D01*
X8519356Y-7757356D02*
X8519356Y-7686644D01*
X8448644Y-7686644D01*
X8448644Y-7757356D01*
X8519356Y-7757356D01*
X8519356Y-8957356D02*
X8519356Y-8886644D01*
X8448644Y-8886644D01*
X8448644Y-8957356D01*
X8519356Y-8957356D01*
X8524356Y-6044356D02*
X8524356Y-5973644D01*
X8453644Y-5973644D01*
X8453644Y-6044356D01*
X8524356Y-6044356D01*
X8524356Y-7244356D02*
X8524356Y-7173644D01*
X8453644Y-7173644D01*
X8453644Y-7244356D01*
X8524356Y-7244356D01*
X9179356Y-2829356D02*
X9179356Y-2758644D01*
X9108644Y-2758644D01*
X9108644Y-2829356D01*
X9179356Y-2829356D01*
X9179356Y-5115356D02*
X9179356Y-5044644D01*
X9108644Y-5044644D01*
X9108644Y-5115356D01*
X9179356Y-5115356D01*
X9433356Y-2829356D02*
X9433356Y-2758644D01*
X9362644Y-2758644D01*
X9362644Y-2829356D01*
X9433356Y-2829356D01*
X9433356Y-5115356D02*
X9433356Y-5044644D01*
X9362644Y-5044644D01*
X9362644Y-5115356D01*
X9433356Y-5115356D01*
X9687356Y-2829356D02*
X9687356Y-2758644D01*
X9616644Y-2758644D01*
X9616644Y-2829356D01*
X9687356Y-2829356D01*
X9687356Y-5115356D02*
X9687356Y-5044644D01*
X9616644Y-5044644D01*
X9616644Y-5115356D01*
X9687356Y-5115356D01*
X9941356Y-2829356D02*
X9941356Y-2758644D01*
X9870644Y-2758644D01*
X9870644Y-2829356D01*
X9941356Y-2829356D01*
X9941356Y-5115356D02*
X9941356Y-5044644D01*
X9870644Y-5044644D01*
X9870644Y-5115356D01*
X9941356Y-5115356D01*
X10195356Y-2829356D02*
X10195356Y-2758644D01*
X10124644Y-2758644D01*
X10124644Y-2829356D01*
X10195356Y-2829356D01*
X10195356Y-5115356D02*
X10195356Y-5044644D01*
X10124644Y-5044644D01*
X10124644Y-5115356D01*
X10195356Y-5115356D01*
X10449356Y-2829356D02*
X10449356Y-2758644D01*
X10378644Y-2758644D01*
X10378644Y-2829356D01*
X10449356Y-2829356D01*
X10449356Y-5115356D02*
X10449356Y-5044644D01*
X10378644Y-5044644D01*
X10378644Y-5115356D01*
X10449356Y-5115356D01*
X10703356Y-2829356D02*
X10703356Y-2758644D01*
X10632644Y-2758644D01*
X10632644Y-2829356D01*
X10703356Y-2829356D01*
X10703356Y-5115356D02*
X10703356Y-5044644D01*
X10632644Y-5044644D01*
X10632644Y-5115356D01*
X10703356Y-5115356D01*
X10957356Y-2829356D02*
X10957356Y-2758644D01*
X10886644Y-2758644D01*
X10886644Y-2829356D01*
X10957356Y-2829356D01*
X10957356Y-5115356D02*
X10957356Y-5044644D01*
X10886644Y-5044644D01*
X10886644Y-5115356D01*
X10957356Y-5115356D01*
D12*
X7751947Y-6389576D02*
X7806947Y-6334576D01*
X7751947Y-6279576D01*
X7696947Y-6334576D01*
X7751947Y-6389576D01*
X7751947Y-7151576D02*
X7806947Y-7096576D01*
X7751947Y-7041576D01*
X7696947Y-7096576D01*
X7751947Y-7151576D01*
X7790507Y-8281917D02*
X7845507Y-8226917D01*
X7790507Y-8171917D01*
X7735507Y-8226917D01*
X7790507Y-8281917D01*
X7790507Y-9043917D02*
X7845507Y-8988917D01*
X7790507Y-8933917D01*
X7735507Y-8988917D01*
X7790507Y-9043917D01*
D13*
X7046169Y-7398352D02*
X7166169Y-7518352D01*
X7166169Y-7398352D02*
X7046169Y-7518352D01*
X7166169Y-7458352D02*
G75*
G03*
X7046169Y-7458352I-60000J0D01*
G01*
X7046169Y-7458352D02*
G75*
G03*
X7166169Y-7458352I60000J0D01*
G01*
X7046169Y-8922352D02*
X7166169Y-9042352D01*
X7166169Y-8922352D02*
X7046169Y-9042352D01*
X7166169Y-8982352D02*
G75*
G03*
X7046169Y-8982352I-60000J0D01*
G01*
X7046169Y-8982352D02*
G75*
G03*
X7166169Y-8982352I60000J0D01*
G01*
D14*
X8224000Y-8252000D02*
X8354000Y-8382000D01*
X8354000Y-8252000D02*
X8224000Y-8382000D01*
X8289000Y-8252000D02*
X8289000Y-8382000D01*
X8224000Y-8317000D02*
X8354000Y-8317000D01*
X8229000Y-6539000D02*
X8359000Y-6669000D01*
X8359000Y-6539000D02*
X8229000Y-6669000D01*
X8294000Y-6539000D02*
X8294000Y-6669000D01*
X8229000Y-6604000D02*
X8359000Y-6604000D01*
X9639000Y-8857000D02*
X9769000Y-8987000D01*
X9769000Y-8857000D02*
X9639000Y-8987000D01*
X9704000Y-8857000D02*
X9704000Y-8987000D01*
X9639000Y-8922000D02*
X9769000Y-8922000D01*
X9644000Y-7144000D02*
X9774000Y-7274000D01*
X9774000Y-7144000D02*
X9644000Y-7274000D01*
X9709000Y-7144000D02*
X9709000Y-7274000D01*
X9644000Y-7209000D02*
X9774000Y-7209000D01*
X9644000Y-7652000D02*
X9774000Y-7782000D01*
X9774000Y-7652000D02*
X9644000Y-7782000D01*
X9709000Y-7652000D02*
X9709000Y-7782000D01*
X9644000Y-7717000D02*
X9774000Y-7717000D01*
X9649000Y-5939000D02*
X9779000Y-6069000D01*
X9779000Y-5939000D02*
X9649000Y-6069000D01*
X9714000Y-5939000D02*
X9714000Y-6069000D01*
X9649000Y-6004000D02*
X9779000Y-6004000D01*
D15*
X5955964Y-8182857D02*
X6107964Y-8334857D01*
X6107964Y-8182857D02*
X5955964Y-8334857D01*
X6085705Y-8312598D02*
X6085705Y-8205116D01*
X5978224Y-8205116D01*
X5978224Y-8312598D01*
X6085705Y-8312598D01*
X6463964Y-8182857D02*
X6615964Y-8334857D01*
X6615964Y-8182857D02*
X6463964Y-8334857D01*
X6593705Y-8312598D02*
X6593705Y-8205116D01*
X6486224Y-8205116D01*
X6486224Y-8312598D01*
X6593705Y-8312598D01*
X10512951Y-6021429D02*
X10664951Y-6173429D01*
X10664951Y-6021429D02*
X10512951Y-6173429D01*
X10642692Y-6151170D02*
X10642692Y-6043688D01*
X10535211Y-6043688D01*
X10535211Y-6151170D01*
X10642692Y-6151170D01*
X10512951Y-6529429D02*
X10664951Y-6681429D01*
X10664951Y-6529429D02*
X10512951Y-6681429D01*
X10642692Y-6659170D02*
X10642692Y-6551688D01*
X10535211Y-6551688D01*
X10535211Y-6659170D01*
X10642692Y-6659170D01*
X10512951Y-7037429D02*
X10664951Y-7189429D01*
X10664951Y-7037429D02*
X10512951Y-7189429D01*
X10642692Y-7167170D02*
X10642692Y-7059688D01*
X10535211Y-7059688D01*
X10535211Y-7167170D01*
X10642692Y-7167170D01*
X10521678Y-7719747D02*
X10673678Y-7871747D01*
X10673678Y-7719747D02*
X10521678Y-7871747D01*
X10651419Y-7849488D02*
X10651419Y-7742007D01*
X10543938Y-7742007D01*
X10543938Y-7849488D01*
X10651419Y-7849488D01*
X10521678Y-8227747D02*
X10673678Y-8379747D01*
X10673678Y-8227747D02*
X10521678Y-8379747D01*
X10651419Y-8357488D02*
X10651419Y-8250007D01*
X10543938Y-8250007D01*
X10543938Y-8357488D01*
X10651419Y-8357488D01*
X10521678Y-8735748D02*
X10673678Y-8887748D01*
X10673678Y-8735748D02*
X10521678Y-8887748D01*
X10651419Y-8865488D02*
X10651419Y-8758007D01*
X10543938Y-8758007D01*
X10543938Y-8865488D01*
X10651419Y-8865488D01*
D11*
X5330777Y-9719484D02*
X5330777Y-9519484D01*
X5330777Y-9519484D02*
X5378396Y-9519484D01*
X5378396Y-9519484D02*
X5406967Y-9529008D01*
X5406967Y-9529008D02*
X5426015Y-9548055D01*
X5426015Y-9548055D02*
X5435539Y-9567103D01*
X5435539Y-9567103D02*
X5445063Y-9605198D01*
X5445063Y-9605198D02*
X5445063Y-9633770D01*
X5445063Y-9633770D02*
X5435539Y-9671865D01*
X5435539Y-9671865D02*
X5426015Y-9690912D01*
X5426015Y-9690912D02*
X5406967Y-9709960D01*
X5406967Y-9709960D02*
X5378396Y-9719484D01*
X5378396Y-9719484D02*
X5330777Y-9719484D01*
X5530777Y-9719484D02*
X5530777Y-9586150D01*
X5530777Y-9624246D02*
X5540301Y-9605198D01*
X5540301Y-9605198D02*
X5549824Y-9595674D01*
X5549824Y-9595674D02*
X5568872Y-9586150D01*
X5568872Y-9586150D02*
X5587920Y-9586150D01*
X5654586Y-9719484D02*
X5654586Y-9586150D01*
X5654586Y-9519484D02*
X5645062Y-9529008D01*
X5645062Y-9529008D02*
X5654586Y-9538531D01*
X5654586Y-9538531D02*
X5664110Y-9529008D01*
X5664110Y-9529008D02*
X5654586Y-9519484D01*
X5654586Y-9519484D02*
X5654586Y-9538531D01*
X5778396Y-9719484D02*
X5759348Y-9709960D01*
X5759348Y-9709960D02*
X5749824Y-9690912D01*
X5749824Y-9690912D02*
X5749824Y-9519484D01*
X5883158Y-9719484D02*
X5864110Y-9709960D01*
X5864110Y-9709960D02*
X5854586Y-9690912D01*
X5854586Y-9690912D02*
X5854586Y-9519484D01*
X6111729Y-9719484D02*
X6111729Y-9519484D01*
X6111729Y-9519484D02*
X6178396Y-9662341D01*
X6178396Y-9662341D02*
X6245062Y-9519484D01*
X6245062Y-9519484D02*
X6245062Y-9719484D01*
X6426015Y-9719484D02*
X6426015Y-9614722D01*
X6426015Y-9614722D02*
X6416491Y-9595674D01*
X6416491Y-9595674D02*
X6397443Y-9586150D01*
X6397443Y-9586150D02*
X6359348Y-9586150D01*
X6359348Y-9586150D02*
X6340301Y-9595674D01*
X6426015Y-9709960D02*
X6406967Y-9719484D01*
X6406967Y-9719484D02*
X6359348Y-9719484D01*
X6359348Y-9719484D02*
X6340301Y-9709960D01*
X6340301Y-9709960D02*
X6330777Y-9690912D01*
X6330777Y-9690912D02*
X6330777Y-9671865D01*
X6330777Y-9671865D02*
X6340301Y-9652817D01*
X6340301Y-9652817D02*
X6359348Y-9643293D01*
X6359348Y-9643293D02*
X6406967Y-9643293D01*
X6406967Y-9643293D02*
X6426015Y-9633770D01*
X6521253Y-9586150D02*
X6521253Y-9786150D01*
X6521253Y-9595674D02*
X6540301Y-9586150D01*
X6540301Y-9586150D02*
X6578396Y-9586150D01*
X6578396Y-9586150D02*
X6597443Y-9595674D01*
X6597443Y-9595674D02*
X6606967Y-9605198D01*
X6606967Y-9605198D02*
X6616491Y-9624246D01*
X6616491Y-9624246D02*
X6616491Y-9681389D01*
X6616491Y-9681389D02*
X6606967Y-9700436D01*
X6606967Y-9700436D02*
X6597443Y-9709960D01*
X6597443Y-9709960D02*
X6578396Y-9719484D01*
X6578396Y-9719484D02*
X6540301Y-9719484D01*
X6540301Y-9719484D02*
X6521253Y-9709960D01*
X6702205Y-9700436D02*
X6711729Y-9709960D01*
X6711729Y-9709960D02*
X6702205Y-9719484D01*
X6702205Y-9719484D02*
X6692682Y-9709960D01*
X6692682Y-9709960D02*
X6702205Y-9700436D01*
X6702205Y-9700436D02*
X6702205Y-9719484D01*
X6702205Y-9595674D02*
X6711729Y-9605198D01*
X6711729Y-9605198D02*
X6702205Y-9614722D01*
X6702205Y-9614722D02*
X6692682Y-9605198D01*
X6692682Y-9605198D02*
X6702205Y-9595674D01*
X6702205Y-9595674D02*
X6702205Y-9614722D01*
D10*
X5030000Y-10028000D02*
X5070000Y-10068000D01*
X5070000Y-10028000D02*
X5030000Y-10068000D01*
D11*
X5368872Y-9939484D02*
X5387920Y-9939484D01*
X5387920Y-9939484D02*
X5406967Y-9949008D01*
X5406967Y-9949008D02*
X5416491Y-9958531D01*
X5416491Y-9958531D02*
X5426015Y-9977579D01*
X5426015Y-9977579D02*
X5435539Y-10015674D01*
X5435539Y-10015674D02*
X5435539Y-10063293D01*
X5435539Y-10063293D02*
X5426015Y-10101389D01*
X5426015Y-10101389D02*
X5416491Y-10120436D01*
X5416491Y-10120436D02*
X5406967Y-10129960D01*
X5406967Y-10129960D02*
X5387920Y-10139484D01*
X5387920Y-10139484D02*
X5368872Y-10139484D01*
X5368872Y-10139484D02*
X5349824Y-10129960D01*
X5349824Y-10129960D02*
X5340301Y-10120436D01*
X5340301Y-10120436D02*
X5330777Y-10101389D01*
X5330777Y-10101389D02*
X5321253Y-10063293D01*
X5321253Y-10063293D02*
X5321253Y-10015674D01*
X5321253Y-10015674D02*
X5330777Y-9977579D01*
X5330777Y-9977579D02*
X5340301Y-9958531D01*
X5340301Y-9958531D02*
X5349824Y-9949008D01*
X5349824Y-9949008D02*
X5368872Y-9939484D01*
X5521253Y-10120436D02*
X5530777Y-10129960D01*
X5530777Y-10129960D02*
X5521253Y-10139484D01*
X5521253Y-10139484D02*
X5511729Y-10129960D01*
X5511729Y-10129960D02*
X5521253Y-10120436D01*
X5521253Y-10120436D02*
X5521253Y-10139484D01*
X5702205Y-10006150D02*
X5702205Y-10139484D01*
X5654586Y-9929960D02*
X5606967Y-10072817D01*
X5606967Y-10072817D02*
X5730777Y-10072817D01*
X5845062Y-9939484D02*
X5864110Y-9939484D01*
X5864110Y-9939484D02*
X5883158Y-9949008D01*
X5883158Y-9949008D02*
X5892682Y-9958531D01*
X5892682Y-9958531D02*
X5902205Y-9977579D01*
X5902205Y-9977579D02*
X5911729Y-10015674D01*
X5911729Y-10015674D02*
X5911729Y-10063293D01*
X5911729Y-10063293D02*
X5902205Y-10101389D01*
X5902205Y-10101389D02*
X5892682Y-10120436D01*
X5892682Y-10120436D02*
X5883158Y-10129960D01*
X5883158Y-10129960D02*
X5864110Y-10139484D01*
X5864110Y-10139484D02*
X5845062Y-10139484D01*
X5845062Y-10139484D02*
X5826015Y-10129960D01*
X5826015Y-10129960D02*
X5816491Y-10120436D01*
X5816491Y-10120436D02*
X5806967Y-10101389D01*
X5806967Y-10101389D02*
X5797443Y-10063293D01*
X5797443Y-10063293D02*
X5797443Y-10015674D01*
X5797443Y-10015674D02*
X5806967Y-9977579D01*
X5806967Y-9977579D02*
X5816491Y-9958531D01*
X5816491Y-9958531D02*
X5826015Y-9949008D01*
X5826015Y-9949008D02*
X5845062Y-9939484D01*
X6035539Y-9939484D02*
X6054586Y-9939484D01*
X6054586Y-9939484D02*
X6073634Y-9949008D01*
X6073634Y-9949008D02*
X6083158Y-9958531D01*
X6083158Y-9958531D02*
X6092682Y-9977579D01*
X6092682Y-9977579D02*
X6102205Y-10015674D01*
X6102205Y-10015674D02*
X6102205Y-10063293D01*
X6102205Y-10063293D02*
X6092682Y-10101389D01*
X6092682Y-10101389D02*
X6083158Y-10120436D01*
X6083158Y-10120436D02*
X6073634Y-10129960D01*
X6073634Y-10129960D02*
X6054586Y-10139484D01*
X6054586Y-10139484D02*
X6035539Y-10139484D01*
X6035539Y-10139484D02*
X6016491Y-10129960D01*
X6016491Y-10129960D02*
X6006967Y-10120436D01*
X6006967Y-10120436D02*
X5997443Y-10101389D01*
X5997443Y-10101389D02*
X5987920Y-10063293D01*
X5987920Y-10063293D02*
X5987920Y-10015674D01*
X5987920Y-10015674D02*
X5997443Y-9977579D01*
X5997443Y-9977579D02*
X6006967Y-9958531D01*
X6006967Y-9958531D02*
X6016491Y-9949008D01*
X6016491Y-9949008D02*
X6035539Y-9939484D01*
X6187920Y-10139484D02*
X6187920Y-10006150D01*
X6187920Y-10025198D02*
X6197443Y-10015674D01*
X6197443Y-10015674D02*
X6216491Y-10006150D01*
X6216491Y-10006150D02*
X6245063Y-10006150D01*
X6245063Y-10006150D02*
X6264110Y-10015674D01*
X6264110Y-10015674D02*
X6273634Y-10034722D01*
X6273634Y-10034722D02*
X6273634Y-10139484D01*
X6273634Y-10034722D02*
X6283158Y-10015674D01*
X6283158Y-10015674D02*
X6302205Y-10006150D01*
X6302205Y-10006150D02*
X6330777Y-10006150D01*
X6330777Y-10006150D02*
X6349824Y-10015674D01*
X6349824Y-10015674D02*
X6359348Y-10034722D01*
X6359348Y-10034722D02*
X6359348Y-10139484D01*
X6454586Y-10139484D02*
X6454586Y-10006150D01*
X6454586Y-10025198D02*
X6464110Y-10015674D01*
X6464110Y-10015674D02*
X6483158Y-10006150D01*
X6483158Y-10006150D02*
X6511729Y-10006150D01*
X6511729Y-10006150D02*
X6530777Y-10015674D01*
X6530777Y-10015674D02*
X6540301Y-10034722D01*
X6540301Y-10034722D02*
X6540301Y-10139484D01*
X6540301Y-10034722D02*
X6549824Y-10015674D01*
X6549824Y-10015674D02*
X6568872Y-10006150D01*
X6568872Y-10006150D02*
X6597443Y-10006150D01*
X6597443Y-10006150D02*
X6616491Y-10015674D01*
X6616491Y-10015674D02*
X6626015Y-10034722D01*
X6626015Y-10034722D02*
X6626015Y-10139484D01*
X7016491Y-9929960D02*
X6845063Y-10187103D01*
X7273634Y-9939484D02*
X7292682Y-9939484D01*
X7292682Y-9939484D02*
X7311729Y-9949008D01*
X7311729Y-9949008D02*
X7321253Y-9958531D01*
X7321253Y-9958531D02*
X7330777Y-9977579D01*
X7330777Y-9977579D02*
X7340301Y-10015674D01*
X7340301Y-10015674D02*
X7340301Y-10063293D01*
X7340301Y-10063293D02*
X7330777Y-10101389D01*
X7330777Y-10101389D02*
X7321253Y-10120436D01*
X7321253Y-10120436D02*
X7311729Y-10129960D01*
X7311729Y-10129960D02*
X7292682Y-10139484D01*
X7292682Y-10139484D02*
X7273634Y-10139484D01*
X7273634Y-10139484D02*
X7254586Y-10129960D01*
X7254586Y-10129960D02*
X7245063Y-10120436D01*
X7245063Y-10120436D02*
X7235539Y-10101389D01*
X7235539Y-10101389D02*
X7226015Y-10063293D01*
X7226015Y-10063293D02*
X7226015Y-10015674D01*
X7226015Y-10015674D02*
X7235539Y-9977579D01*
X7235539Y-9977579D02*
X7245063Y-9958531D01*
X7245063Y-9958531D02*
X7254586Y-9949008D01*
X7254586Y-9949008D02*
X7273634Y-9939484D01*
X7426015Y-10120436D02*
X7435539Y-10129960D01*
X7435539Y-10129960D02*
X7426015Y-10139484D01*
X7426015Y-10139484D02*
X7416491Y-10129960D01*
X7416491Y-10129960D02*
X7426015Y-10120436D01*
X7426015Y-10120436D02*
X7426015Y-10139484D01*
X7559348Y-9939484D02*
X7578396Y-9939484D01*
X7578396Y-9939484D02*
X7597444Y-9949008D01*
X7597444Y-9949008D02*
X7606967Y-9958531D01*
X7606967Y-9958531D02*
X7616491Y-9977579D01*
X7616491Y-9977579D02*
X7626015Y-10015674D01*
X7626015Y-10015674D02*
X7626015Y-10063293D01*
X7626015Y-10063293D02*
X7616491Y-10101389D01*
X7616491Y-10101389D02*
X7606967Y-10120436D01*
X7606967Y-10120436D02*
X7597444Y-10129960D01*
X7597444Y-10129960D02*
X7578396Y-10139484D01*
X7578396Y-10139484D02*
X7559348Y-10139484D01*
X7559348Y-10139484D02*
X7540301Y-10129960D01*
X7540301Y-10129960D02*
X7530777Y-10120436D01*
X7530777Y-10120436D02*
X7521253Y-10101389D01*
X7521253Y-10101389D02*
X7511729Y-10063293D01*
X7511729Y-10063293D02*
X7511729Y-10015674D01*
X7511729Y-10015674D02*
X7521253Y-9977579D01*
X7521253Y-9977579D02*
X7530777Y-9958531D01*
X7530777Y-9958531D02*
X7540301Y-9949008D01*
X7540301Y-9949008D02*
X7559348Y-9939484D01*
X7816491Y-10139484D02*
X7702206Y-10139484D01*
X7759348Y-10139484D02*
X7759348Y-9939484D01*
X7759348Y-9939484D02*
X7740301Y-9968055D01*
X7740301Y-9968055D02*
X7721253Y-9987103D01*
X7721253Y-9987103D02*
X7702206Y-9996627D01*
X7997444Y-9939484D02*
X7902206Y-9939484D01*
X7902206Y-9939484D02*
X7892682Y-10034722D01*
X7892682Y-10034722D02*
X7902206Y-10025198D01*
X7902206Y-10025198D02*
X7921253Y-10015674D01*
X7921253Y-10015674D02*
X7968872Y-10015674D01*
X7968872Y-10015674D02*
X7987920Y-10025198D01*
X7987920Y-10025198D02*
X7997444Y-10034722D01*
X7997444Y-10034722D02*
X8006967Y-10053770D01*
X8006967Y-10053770D02*
X8006967Y-10101389D01*
X8006967Y-10101389D02*
X7997444Y-10120436D01*
X7997444Y-10120436D02*
X7987920Y-10129960D01*
X7987920Y-10129960D02*
X7968872Y-10139484D01*
X7968872Y-10139484D02*
X7921253Y-10139484D01*
X7921253Y-10139484D02*
X7902206Y-10129960D01*
X7902206Y-10129960D02*
X7892682Y-10120436D01*
X8073634Y-9939484D02*
X8206967Y-9939484D01*
X8206967Y-9939484D02*
X8121253Y-10139484D01*
X8273634Y-9939484D02*
X8273634Y-9977579D01*
X8349825Y-9939484D02*
X8349825Y-9977579D01*
X8645063Y-10215674D02*
X8635539Y-10206150D01*
X8635539Y-10206150D02*
X8616491Y-10177579D01*
X8616491Y-10177579D02*
X8606968Y-10158531D01*
X8606968Y-10158531D02*
X8597444Y-10129960D01*
X8597444Y-10129960D02*
X8587920Y-10082341D01*
X8587920Y-10082341D02*
X8587920Y-10044246D01*
X8587920Y-10044246D02*
X8597444Y-9996627D01*
X8597444Y-9996627D02*
X8606968Y-9968055D01*
X8606968Y-9968055D02*
X8616491Y-9949008D01*
X8616491Y-9949008D02*
X8635539Y-9920436D01*
X8635539Y-9920436D02*
X8645063Y-9910912D01*
X8711730Y-9958531D02*
X8721253Y-9949008D01*
X8721253Y-9949008D02*
X8740301Y-9939484D01*
X8740301Y-9939484D02*
X8787920Y-9939484D01*
X8787920Y-9939484D02*
X8806968Y-9949008D01*
X8806968Y-9949008D02*
X8816491Y-9958531D01*
X8816491Y-9958531D02*
X8826015Y-9977579D01*
X8826015Y-9977579D02*
X8826015Y-9996627D01*
X8826015Y-9996627D02*
X8816491Y-10025198D01*
X8816491Y-10025198D02*
X8702206Y-10139484D01*
X8702206Y-10139484D02*
X8826015Y-10139484D01*
X9064111Y-10139484D02*
X9064111Y-9939484D01*
X9149825Y-10139484D02*
X9149825Y-10034722D01*
X9149825Y-10034722D02*
X9140301Y-10015674D01*
X9140301Y-10015674D02*
X9121253Y-10006150D01*
X9121253Y-10006150D02*
X9092682Y-10006150D01*
X9092682Y-10006150D02*
X9073634Y-10015674D01*
X9073634Y-10015674D02*
X9064111Y-10025198D01*
X9273634Y-10139484D02*
X9254587Y-10129960D01*
X9254587Y-10129960D02*
X9245063Y-10120436D01*
X9245063Y-10120436D02*
X9235539Y-10101389D01*
X9235539Y-10101389D02*
X9235539Y-10044246D01*
X9235539Y-10044246D02*
X9245063Y-10025198D01*
X9245063Y-10025198D02*
X9254587Y-10015674D01*
X9254587Y-10015674D02*
X9273634Y-10006150D01*
X9273634Y-10006150D02*
X9302206Y-10006150D01*
X9302206Y-10006150D02*
X9321253Y-10015674D01*
X9321253Y-10015674D02*
X9330777Y-10025198D01*
X9330777Y-10025198D02*
X9340301Y-10044246D01*
X9340301Y-10044246D02*
X9340301Y-10101389D01*
X9340301Y-10101389D02*
X9330777Y-10120436D01*
X9330777Y-10120436D02*
X9321253Y-10129960D01*
X9321253Y-10129960D02*
X9302206Y-10139484D01*
X9302206Y-10139484D02*
X9273634Y-10139484D01*
X9454587Y-10139484D02*
X9435539Y-10129960D01*
X9435539Y-10129960D02*
X9426015Y-10110912D01*
X9426015Y-10110912D02*
X9426015Y-9939484D01*
X9606968Y-10129960D02*
X9587920Y-10139484D01*
X9587920Y-10139484D02*
X9549825Y-10139484D01*
X9549825Y-10139484D02*
X9530777Y-10129960D01*
X9530777Y-10129960D02*
X9521253Y-10110912D01*
X9521253Y-10110912D02*
X9521253Y-10034722D01*
X9521253Y-10034722D02*
X9530777Y-10015674D01*
X9530777Y-10015674D02*
X9549825Y-10006150D01*
X9549825Y-10006150D02*
X9587920Y-10006150D01*
X9587920Y-10006150D02*
X9606968Y-10015674D01*
X9606968Y-10015674D02*
X9616492Y-10034722D01*
X9616492Y-10034722D02*
X9616492Y-10053770D01*
X9616492Y-10053770D02*
X9521253Y-10072817D01*
X9692682Y-10129960D02*
X9711730Y-10139484D01*
X9711730Y-10139484D02*
X9749825Y-10139484D01*
X9749825Y-10139484D02*
X9768873Y-10129960D01*
X9768873Y-10129960D02*
X9778396Y-10110912D01*
X9778396Y-10110912D02*
X9778396Y-10101389D01*
X9778396Y-10101389D02*
X9768873Y-10082341D01*
X9768873Y-10082341D02*
X9749825Y-10072817D01*
X9749825Y-10072817D02*
X9721253Y-10072817D01*
X9721253Y-10072817D02*
X9702206Y-10063293D01*
X9702206Y-10063293D02*
X9692682Y-10044246D01*
X9692682Y-10044246D02*
X9692682Y-10034722D01*
X9692682Y-10034722D02*
X9702206Y-10015674D01*
X9702206Y-10015674D02*
X9721253Y-10006150D01*
X9721253Y-10006150D02*
X9749825Y-10006150D01*
X9749825Y-10006150D02*
X9768873Y-10015674D01*
X9845063Y-10215674D02*
X9854587Y-10206150D01*
X9854587Y-10206150D02*
X9873634Y-10177579D01*
X9873634Y-10177579D02*
X9883158Y-10158531D01*
X9883158Y-10158531D02*
X9892682Y-10129960D01*
X9892682Y-10129960D02*
X9902206Y-10082341D01*
X9902206Y-10082341D02*
X9902206Y-10044246D01*
X9902206Y-10044246D02*
X9892682Y-9996627D01*
X9892682Y-9996627D02*
X9883158Y-9968055D01*
X9883158Y-9968055D02*
X9873634Y-9949008D01*
X9873634Y-9949008D02*
X9854587Y-9920436D01*
X9854587Y-9920436D02*
X9845063Y-9910912D01*
D10*
X5070000Y-10312000D02*
G75*
G03*
X5010000Y-10312000I-30000J0D01*
G01*
X5010000Y-10312000D02*
G75*
G03*
X5070000Y-10312000I30000J0D01*
G01*
D11*
X5368872Y-10203484D02*
X5387920Y-10203484D01*
X5387920Y-10203484D02*
X5406967Y-10213008D01*
X5406967Y-10213008D02*
X5416491Y-10222531D01*
X5416491Y-10222531D02*
X5426015Y-10241579D01*
X5426015Y-10241579D02*
X5435539Y-10279674D01*
X5435539Y-10279674D02*
X5435539Y-10327293D01*
X5435539Y-10327293D02*
X5426015Y-10365389D01*
X5426015Y-10365389D02*
X5416491Y-10384436D01*
X5416491Y-10384436D02*
X5406967Y-10393960D01*
X5406967Y-10393960D02*
X5387920Y-10403484D01*
X5387920Y-10403484D02*
X5368872Y-10403484D01*
X5368872Y-10403484D02*
X5349824Y-10393960D01*
X5349824Y-10393960D02*
X5340301Y-10384436D01*
X5340301Y-10384436D02*
X5330777Y-10365389D01*
X5330777Y-10365389D02*
X5321253Y-10327293D01*
X5321253Y-10327293D02*
X5321253Y-10279674D01*
X5321253Y-10279674D02*
X5330777Y-10241579D01*
X5330777Y-10241579D02*
X5340301Y-10222531D01*
X5340301Y-10222531D02*
X5349824Y-10213008D01*
X5349824Y-10213008D02*
X5368872Y-10203484D01*
X5521253Y-10384436D02*
X5530777Y-10393960D01*
X5530777Y-10393960D02*
X5521253Y-10403484D01*
X5521253Y-10403484D02*
X5511729Y-10393960D01*
X5511729Y-10393960D02*
X5521253Y-10384436D01*
X5521253Y-10384436D02*
X5521253Y-10403484D01*
X5702205Y-10203484D02*
X5664110Y-10203484D01*
X5664110Y-10203484D02*
X5645062Y-10213008D01*
X5645062Y-10213008D02*
X5635539Y-10222531D01*
X5635539Y-10222531D02*
X5616491Y-10251103D01*
X5616491Y-10251103D02*
X5606967Y-10289198D01*
X5606967Y-10289198D02*
X5606967Y-10365389D01*
X5606967Y-10365389D02*
X5616491Y-10384436D01*
X5616491Y-10384436D02*
X5626015Y-10393960D01*
X5626015Y-10393960D02*
X5645062Y-10403484D01*
X5645062Y-10403484D02*
X5683158Y-10403484D01*
X5683158Y-10403484D02*
X5702205Y-10393960D01*
X5702205Y-10393960D02*
X5711729Y-10384436D01*
X5711729Y-10384436D02*
X5721253Y-10365389D01*
X5721253Y-10365389D02*
X5721253Y-10317770D01*
X5721253Y-10317770D02*
X5711729Y-10298722D01*
X5711729Y-10298722D02*
X5702205Y-10289198D01*
X5702205Y-10289198D02*
X5683158Y-10279674D01*
X5683158Y-10279674D02*
X5645062Y-10279674D01*
X5645062Y-10279674D02*
X5626015Y-10289198D01*
X5626015Y-10289198D02*
X5616491Y-10298722D01*
X5616491Y-10298722D02*
X5606967Y-10317770D01*
X5845062Y-10203484D02*
X5864110Y-10203484D01*
X5864110Y-10203484D02*
X5883158Y-10213008D01*
X5883158Y-10213008D02*
X5892682Y-10222531D01*
X5892682Y-10222531D02*
X5902205Y-10241579D01*
X5902205Y-10241579D02*
X5911729Y-10279674D01*
X5911729Y-10279674D02*
X5911729Y-10327293D01*
X5911729Y-10327293D02*
X5902205Y-10365389D01*
X5902205Y-10365389D02*
X5892682Y-10384436D01*
X5892682Y-10384436D02*
X5883158Y-10393960D01*
X5883158Y-10393960D02*
X5864110Y-10403484D01*
X5864110Y-10403484D02*
X5845062Y-10403484D01*
X5845062Y-10403484D02*
X5826015Y-10393960D01*
X5826015Y-10393960D02*
X5816491Y-10384436D01*
X5816491Y-10384436D02*
X5806967Y-10365389D01*
X5806967Y-10365389D02*
X5797443Y-10327293D01*
X5797443Y-10327293D02*
X5797443Y-10279674D01*
X5797443Y-10279674D02*
X5806967Y-10241579D01*
X5806967Y-10241579D02*
X5816491Y-10222531D01*
X5816491Y-10222531D02*
X5826015Y-10213008D01*
X5826015Y-10213008D02*
X5845062Y-10203484D01*
X6035539Y-10203484D02*
X6054586Y-10203484D01*
X6054586Y-10203484D02*
X6073634Y-10213008D01*
X6073634Y-10213008D02*
X6083158Y-10222531D01*
X6083158Y-10222531D02*
X6092682Y-10241579D01*
X6092682Y-10241579D02*
X6102205Y-10279674D01*
X6102205Y-10279674D02*
X6102205Y-10327293D01*
X6102205Y-10327293D02*
X6092682Y-10365389D01*
X6092682Y-10365389D02*
X6083158Y-10384436D01*
X6083158Y-10384436D02*
X6073634Y-10393960D01*
X6073634Y-10393960D02*
X6054586Y-10403484D01*
X6054586Y-10403484D02*
X6035539Y-10403484D01*
X6035539Y-10403484D02*
X6016491Y-10393960D01*
X6016491Y-10393960D02*
X6006967Y-10384436D01*
X6006967Y-10384436D02*
X5997443Y-10365389D01*
X5997443Y-10365389D02*
X5987920Y-10327293D01*
X5987920Y-10327293D02*
X5987920Y-10279674D01*
X5987920Y-10279674D02*
X5997443Y-10241579D01*
X5997443Y-10241579D02*
X6006967Y-10222531D01*
X6006967Y-10222531D02*
X6016491Y-10213008D01*
X6016491Y-10213008D02*
X6035539Y-10203484D01*
X6187920Y-10403484D02*
X6187920Y-10270150D01*
X6187920Y-10289198D02*
X6197443Y-10279674D01*
X6197443Y-10279674D02*
X6216491Y-10270150D01*
X6216491Y-10270150D02*
X6245063Y-10270150D01*
X6245063Y-10270150D02*
X6264110Y-10279674D01*
X6264110Y-10279674D02*
X6273634Y-10298722D01*
X6273634Y-10298722D02*
X6273634Y-10403484D01*
X6273634Y-10298722D02*
X6283158Y-10279674D01*
X6283158Y-10279674D02*
X6302205Y-10270150D01*
X6302205Y-10270150D02*
X6330777Y-10270150D01*
X6330777Y-10270150D02*
X6349824Y-10279674D01*
X6349824Y-10279674D02*
X6359348Y-10298722D01*
X6359348Y-10298722D02*
X6359348Y-10403484D01*
X6454586Y-10403484D02*
X6454586Y-10270150D01*
X6454586Y-10289198D02*
X6464110Y-10279674D01*
X6464110Y-10279674D02*
X6483158Y-10270150D01*
X6483158Y-10270150D02*
X6511729Y-10270150D01*
X6511729Y-10270150D02*
X6530777Y-10279674D01*
X6530777Y-10279674D02*
X6540301Y-10298722D01*
X6540301Y-10298722D02*
X6540301Y-10403484D01*
X6540301Y-10298722D02*
X6549824Y-10279674D01*
X6549824Y-10279674D02*
X6568872Y-10270150D01*
X6568872Y-10270150D02*
X6597443Y-10270150D01*
X6597443Y-10270150D02*
X6616491Y-10279674D01*
X6616491Y-10279674D02*
X6626015Y-10298722D01*
X6626015Y-10298722D02*
X6626015Y-10403484D01*
X7016491Y-10193960D02*
X6845063Y-10451103D01*
X7273634Y-10203484D02*
X7292682Y-10203484D01*
X7292682Y-10203484D02*
X7311729Y-10213008D01*
X7311729Y-10213008D02*
X7321253Y-10222531D01*
X7321253Y-10222531D02*
X7330777Y-10241579D01*
X7330777Y-10241579D02*
X7340301Y-10279674D01*
X7340301Y-10279674D02*
X7340301Y-10327293D01*
X7340301Y-10327293D02*
X7330777Y-10365389D01*
X7330777Y-10365389D02*
X7321253Y-10384436D01*
X7321253Y-10384436D02*
X7311729Y-10393960D01*
X7311729Y-10393960D02*
X7292682Y-10403484D01*
X7292682Y-10403484D02*
X7273634Y-10403484D01*
X7273634Y-10403484D02*
X7254586Y-10393960D01*
X7254586Y-10393960D02*
X7245063Y-10384436D01*
X7245063Y-10384436D02*
X7235539Y-10365389D01*
X7235539Y-10365389D02*
X7226015Y-10327293D01*
X7226015Y-10327293D02*
X7226015Y-10279674D01*
X7226015Y-10279674D02*
X7235539Y-10241579D01*
X7235539Y-10241579D02*
X7245063Y-10222531D01*
X7245063Y-10222531D02*
X7254586Y-10213008D01*
X7254586Y-10213008D02*
X7273634Y-10203484D01*
X7426015Y-10384436D02*
X7435539Y-10393960D01*
X7435539Y-10393960D02*
X7426015Y-10403484D01*
X7426015Y-10403484D02*
X7416491Y-10393960D01*
X7416491Y-10393960D02*
X7426015Y-10384436D01*
X7426015Y-10384436D02*
X7426015Y-10403484D01*
X7559348Y-10203484D02*
X7578396Y-10203484D01*
X7578396Y-10203484D02*
X7597444Y-10213008D01*
X7597444Y-10213008D02*
X7606967Y-10222531D01*
X7606967Y-10222531D02*
X7616491Y-10241579D01*
X7616491Y-10241579D02*
X7626015Y-10279674D01*
X7626015Y-10279674D02*
X7626015Y-10327293D01*
X7626015Y-10327293D02*
X7616491Y-10365389D01*
X7616491Y-10365389D02*
X7606967Y-10384436D01*
X7606967Y-10384436D02*
X7597444Y-10393960D01*
X7597444Y-10393960D02*
X7578396Y-10403484D01*
X7578396Y-10403484D02*
X7559348Y-10403484D01*
X7559348Y-10403484D02*
X7540301Y-10393960D01*
X7540301Y-10393960D02*
X7530777Y-10384436D01*
X7530777Y-10384436D02*
X7521253Y-10365389D01*
X7521253Y-10365389D02*
X7511729Y-10327293D01*
X7511729Y-10327293D02*
X7511729Y-10279674D01*
X7511729Y-10279674D02*
X7521253Y-10241579D01*
X7521253Y-10241579D02*
X7530777Y-10222531D01*
X7530777Y-10222531D02*
X7540301Y-10213008D01*
X7540301Y-10213008D02*
X7559348Y-10203484D01*
X7702206Y-10222531D02*
X7711729Y-10213008D01*
X7711729Y-10213008D02*
X7730777Y-10203484D01*
X7730777Y-10203484D02*
X7778396Y-10203484D01*
X7778396Y-10203484D02*
X7797444Y-10213008D01*
X7797444Y-10213008D02*
X7806967Y-10222531D01*
X7806967Y-10222531D02*
X7816491Y-10241579D01*
X7816491Y-10241579D02*
X7816491Y-10260627D01*
X7816491Y-10260627D02*
X7806967Y-10289198D01*
X7806967Y-10289198D02*
X7692682Y-10403484D01*
X7692682Y-10403484D02*
X7816491Y-10403484D01*
X7883158Y-10203484D02*
X8006967Y-10203484D01*
X8006967Y-10203484D02*
X7940301Y-10279674D01*
X7940301Y-10279674D02*
X7968872Y-10279674D01*
X7968872Y-10279674D02*
X7987920Y-10289198D01*
X7987920Y-10289198D02*
X7997444Y-10298722D01*
X7997444Y-10298722D02*
X8006967Y-10317770D01*
X8006967Y-10317770D02*
X8006967Y-10365389D01*
X8006967Y-10365389D02*
X7997444Y-10384436D01*
X7997444Y-10384436D02*
X7987920Y-10393960D01*
X7987920Y-10393960D02*
X7968872Y-10403484D01*
X7968872Y-10403484D02*
X7911729Y-10403484D01*
X7911729Y-10403484D02*
X7892682Y-10393960D01*
X7892682Y-10393960D02*
X7883158Y-10384436D01*
X8178396Y-10203484D02*
X8140301Y-10203484D01*
X8140301Y-10203484D02*
X8121253Y-10213008D01*
X8121253Y-10213008D02*
X8111729Y-10222531D01*
X8111729Y-10222531D02*
X8092682Y-10251103D01*
X8092682Y-10251103D02*
X8083158Y-10289198D01*
X8083158Y-10289198D02*
X8083158Y-10365389D01*
X8083158Y-10365389D02*
X8092682Y-10384436D01*
X8092682Y-10384436D02*
X8102206Y-10393960D01*
X8102206Y-10393960D02*
X8121253Y-10403484D01*
X8121253Y-10403484D02*
X8159348Y-10403484D01*
X8159348Y-10403484D02*
X8178396Y-10393960D01*
X8178396Y-10393960D02*
X8187920Y-10384436D01*
X8187920Y-10384436D02*
X8197444Y-10365389D01*
X8197444Y-10365389D02*
X8197444Y-10317770D01*
X8197444Y-10317770D02*
X8187920Y-10298722D01*
X8187920Y-10298722D02*
X8178396Y-10289198D01*
X8178396Y-10289198D02*
X8159348Y-10279674D01*
X8159348Y-10279674D02*
X8121253Y-10279674D01*
X8121253Y-10279674D02*
X8102206Y-10289198D01*
X8102206Y-10289198D02*
X8092682Y-10298722D01*
X8092682Y-10298722D02*
X8083158Y-10317770D01*
X8273634Y-10203484D02*
X8273634Y-10241579D01*
X8349825Y-10203484D02*
X8349825Y-10241579D01*
X8645063Y-10479674D02*
X8635539Y-10470150D01*
X8635539Y-10470150D02*
X8616491Y-10441579D01*
X8616491Y-10441579D02*
X8606968Y-10422531D01*
X8606968Y-10422531D02*
X8597444Y-10393960D01*
X8597444Y-10393960D02*
X8587920Y-10346341D01*
X8587920Y-10346341D02*
X8587920Y-10308246D01*
X8587920Y-10308246D02*
X8597444Y-10260627D01*
X8597444Y-10260627D02*
X8606968Y-10232055D01*
X8606968Y-10232055D02*
X8616491Y-10213008D01*
X8616491Y-10213008D02*
X8635539Y-10184436D01*
X8635539Y-10184436D02*
X8645063Y-10174912D01*
X8806968Y-10270150D02*
X8806968Y-10403484D01*
X8759349Y-10193960D02*
X8711730Y-10336817D01*
X8711730Y-10336817D02*
X8835539Y-10336817D01*
X9064111Y-10403484D02*
X9064111Y-10203484D01*
X9149825Y-10403484D02*
X9149825Y-10298722D01*
X9149825Y-10298722D02*
X9140301Y-10279674D01*
X9140301Y-10279674D02*
X9121253Y-10270150D01*
X9121253Y-10270150D02*
X9092682Y-10270150D01*
X9092682Y-10270150D02*
X9073634Y-10279674D01*
X9073634Y-10279674D02*
X9064111Y-10289198D01*
X9273634Y-10403484D02*
X9254587Y-10393960D01*
X9254587Y-10393960D02*
X9245063Y-10384436D01*
X9245063Y-10384436D02*
X9235539Y-10365389D01*
X9235539Y-10365389D02*
X9235539Y-10308246D01*
X9235539Y-10308246D02*
X9245063Y-10289198D01*
X9245063Y-10289198D02*
X9254587Y-10279674D01*
X9254587Y-10279674D02*
X9273634Y-10270150D01*
X9273634Y-10270150D02*
X9302206Y-10270150D01*
X9302206Y-10270150D02*
X9321253Y-10279674D01*
X9321253Y-10279674D02*
X9330777Y-10289198D01*
X9330777Y-10289198D02*
X9340301Y-10308246D01*
X9340301Y-10308246D02*
X9340301Y-10365389D01*
X9340301Y-10365389D02*
X9330777Y-10384436D01*
X9330777Y-10384436D02*
X9321253Y-10393960D01*
X9321253Y-10393960D02*
X9302206Y-10403484D01*
X9302206Y-10403484D02*
X9273634Y-10403484D01*
X9454587Y-10403484D02*
X9435539Y-10393960D01*
X9435539Y-10393960D02*
X9426015Y-10374912D01*
X9426015Y-10374912D02*
X9426015Y-10203484D01*
X9606968Y-10393960D02*
X9587920Y-10403484D01*
X9587920Y-10403484D02*
X9549825Y-10403484D01*
X9549825Y-10403484D02*
X9530777Y-10393960D01*
X9530777Y-10393960D02*
X9521253Y-10374912D01*
X9521253Y-10374912D02*
X9521253Y-10298722D01*
X9521253Y-10298722D02*
X9530777Y-10279674D01*
X9530777Y-10279674D02*
X9549825Y-10270150D01*
X9549825Y-10270150D02*
X9587920Y-10270150D01*
X9587920Y-10270150D02*
X9606968Y-10279674D01*
X9606968Y-10279674D02*
X9616492Y-10298722D01*
X9616492Y-10298722D02*
X9616492Y-10317770D01*
X9616492Y-10317770D02*
X9521253Y-10336817D01*
X9692682Y-10393960D02*
X9711730Y-10403484D01*
X9711730Y-10403484D02*
X9749825Y-10403484D01*
X9749825Y-10403484D02*
X9768873Y-10393960D01*
X9768873Y-10393960D02*
X9778396Y-10374912D01*
X9778396Y-10374912D02*
X9778396Y-10365389D01*
X9778396Y-10365389D02*
X9768873Y-10346341D01*
X9768873Y-10346341D02*
X9749825Y-10336817D01*
X9749825Y-10336817D02*
X9721253Y-10336817D01*
X9721253Y-10336817D02*
X9702206Y-10327293D01*
X9702206Y-10327293D02*
X9692682Y-10308246D01*
X9692682Y-10308246D02*
X9692682Y-10298722D01*
X9692682Y-10298722D02*
X9702206Y-10279674D01*
X9702206Y-10279674D02*
X9721253Y-10270150D01*
X9721253Y-10270150D02*
X9749825Y-10270150D01*
X9749825Y-10270150D02*
X9768873Y-10279674D01*
X9845063Y-10479674D02*
X9854587Y-10470150D01*
X9854587Y-10470150D02*
X9873634Y-10441579D01*
X9873634Y-10441579D02*
X9883158Y-10422531D01*
X9883158Y-10422531D02*
X9892682Y-10393960D01*
X9892682Y-10393960D02*
X9902206Y-10346341D01*
X9902206Y-10346341D02*
X9902206Y-10308246D01*
X9902206Y-10308246D02*
X9892682Y-10260627D01*
X9892682Y-10260627D02*
X9883158Y-10232055D01*
X9883158Y-10232055D02*
X9873634Y-10213008D01*
X9873634Y-10213008D02*
X9854587Y-10184436D01*
X9854587Y-10184436D02*
X9845063Y-10174912D01*
D10*
X5030000Y-10536000D02*
X5030000Y-10616000D01*
X4990000Y-10576000D02*
X5070000Y-10576000D01*
D11*
X5368872Y-10467484D02*
X5387920Y-10467484D01*
X5387920Y-10467484D02*
X5406967Y-10477008D01*
X5406967Y-10477008D02*
X5416491Y-10486531D01*
X5416491Y-10486531D02*
X5426015Y-10505579D01*
X5426015Y-10505579D02*
X5435539Y-10543674D01*
X5435539Y-10543674D02*
X5435539Y-10591293D01*
X5435539Y-10591293D02*
X5426015Y-10629389D01*
X5426015Y-10629389D02*
X5416491Y-10648436D01*
X5416491Y-10648436D02*
X5406967Y-10657960D01*
X5406967Y-10657960D02*
X5387920Y-10667484D01*
X5387920Y-10667484D02*
X5368872Y-10667484D01*
X5368872Y-10667484D02*
X5349824Y-10657960D01*
X5349824Y-10657960D02*
X5340301Y-10648436D01*
X5340301Y-10648436D02*
X5330777Y-10629389D01*
X5330777Y-10629389D02*
X5321253Y-10591293D01*
X5321253Y-10591293D02*
X5321253Y-10543674D01*
X5321253Y-10543674D02*
X5330777Y-10505579D01*
X5330777Y-10505579D02*
X5340301Y-10486531D01*
X5340301Y-10486531D02*
X5349824Y-10477008D01*
X5349824Y-10477008D02*
X5368872Y-10467484D01*
X5521253Y-10648436D02*
X5530777Y-10657960D01*
X5530777Y-10657960D02*
X5521253Y-10667484D01*
X5521253Y-10667484D02*
X5511729Y-10657960D01*
X5511729Y-10657960D02*
X5521253Y-10648436D01*
X5521253Y-10648436D02*
X5521253Y-10667484D01*
X5645062Y-10553198D02*
X5626015Y-10543674D01*
X5626015Y-10543674D02*
X5616491Y-10534150D01*
X5616491Y-10534150D02*
X5606967Y-10515103D01*
X5606967Y-10515103D02*
X5606967Y-10505579D01*
X5606967Y-10505579D02*
X5616491Y-10486531D01*
X5616491Y-10486531D02*
X5626015Y-10477008D01*
X5626015Y-10477008D02*
X5645062Y-10467484D01*
X5645062Y-10467484D02*
X5683158Y-10467484D01*
X5683158Y-10467484D02*
X5702205Y-10477008D01*
X5702205Y-10477008D02*
X5711729Y-10486531D01*
X5711729Y-10486531D02*
X5721253Y-10505579D01*
X5721253Y-10505579D02*
X5721253Y-10515103D01*
X5721253Y-10515103D02*
X5711729Y-10534150D01*
X5711729Y-10534150D02*
X5702205Y-10543674D01*
X5702205Y-10543674D02*
X5683158Y-10553198D01*
X5683158Y-10553198D02*
X5645062Y-10553198D01*
X5645062Y-10553198D02*
X5626015Y-10562722D01*
X5626015Y-10562722D02*
X5616491Y-10572246D01*
X5616491Y-10572246D02*
X5606967Y-10591293D01*
X5606967Y-10591293D02*
X5606967Y-10629389D01*
X5606967Y-10629389D02*
X5616491Y-10648436D01*
X5616491Y-10648436D02*
X5626015Y-10657960D01*
X5626015Y-10657960D02*
X5645062Y-10667484D01*
X5645062Y-10667484D02*
X5683158Y-10667484D01*
X5683158Y-10667484D02*
X5702205Y-10657960D01*
X5702205Y-10657960D02*
X5711729Y-10648436D01*
X5711729Y-10648436D02*
X5721253Y-10629389D01*
X5721253Y-10629389D02*
X5721253Y-10591293D01*
X5721253Y-10591293D02*
X5711729Y-10572246D01*
X5711729Y-10572246D02*
X5702205Y-10562722D01*
X5702205Y-10562722D02*
X5683158Y-10553198D01*
X5845062Y-10467484D02*
X5864110Y-10467484D01*
X5864110Y-10467484D02*
X5883158Y-10477008D01*
X5883158Y-10477008D02*
X5892682Y-10486531D01*
X5892682Y-10486531D02*
X5902205Y-10505579D01*
X5902205Y-10505579D02*
X5911729Y-10543674D01*
X5911729Y-10543674D02*
X5911729Y-10591293D01*
X5911729Y-10591293D02*
X5902205Y-10629389D01*
X5902205Y-10629389D02*
X5892682Y-10648436D01*
X5892682Y-10648436D02*
X5883158Y-10657960D01*
X5883158Y-10657960D02*
X5864110Y-10667484D01*
X5864110Y-10667484D02*
X5845062Y-10667484D01*
X5845062Y-10667484D02*
X5826015Y-10657960D01*
X5826015Y-10657960D02*
X5816491Y-10648436D01*
X5816491Y-10648436D02*
X5806967Y-10629389D01*
X5806967Y-10629389D02*
X5797443Y-10591293D01*
X5797443Y-10591293D02*
X5797443Y-10543674D01*
X5797443Y-10543674D02*
X5806967Y-10505579D01*
X5806967Y-10505579D02*
X5816491Y-10486531D01*
X5816491Y-10486531D02*
X5826015Y-10477008D01*
X5826015Y-10477008D02*
X5845062Y-10467484D01*
X6035539Y-10467484D02*
X6054586Y-10467484D01*
X6054586Y-10467484D02*
X6073634Y-10477008D01*
X6073634Y-10477008D02*
X6083158Y-10486531D01*
X6083158Y-10486531D02*
X6092682Y-10505579D01*
X6092682Y-10505579D02*
X6102205Y-10543674D01*
X6102205Y-10543674D02*
X6102205Y-10591293D01*
X6102205Y-10591293D02*
X6092682Y-10629389D01*
X6092682Y-10629389D02*
X6083158Y-10648436D01*
X6083158Y-10648436D02*
X6073634Y-10657960D01*
X6073634Y-10657960D02*
X6054586Y-10667484D01*
X6054586Y-10667484D02*
X6035539Y-10667484D01*
X6035539Y-10667484D02*
X6016491Y-10657960D01*
X6016491Y-10657960D02*
X6006967Y-10648436D01*
X6006967Y-10648436D02*
X5997443Y-10629389D01*
X5997443Y-10629389D02*
X5987920Y-10591293D01*
X5987920Y-10591293D02*
X5987920Y-10543674D01*
X5987920Y-10543674D02*
X5997443Y-10505579D01*
X5997443Y-10505579D02*
X6006967Y-10486531D01*
X6006967Y-10486531D02*
X6016491Y-10477008D01*
X6016491Y-10477008D02*
X6035539Y-10467484D01*
X6187920Y-10667484D02*
X6187920Y-10534150D01*
X6187920Y-10553198D02*
X6197443Y-10543674D01*
X6197443Y-10543674D02*
X6216491Y-10534150D01*
X6216491Y-10534150D02*
X6245063Y-10534150D01*
X6245063Y-10534150D02*
X6264110Y-10543674D01*
X6264110Y-10543674D02*
X6273634Y-10562722D01*
X6273634Y-10562722D02*
X6273634Y-10667484D01*
X6273634Y-10562722D02*
X6283158Y-10543674D01*
X6283158Y-10543674D02*
X6302205Y-10534150D01*
X6302205Y-10534150D02*
X6330777Y-10534150D01*
X6330777Y-10534150D02*
X6349824Y-10543674D01*
X6349824Y-10543674D02*
X6359348Y-10562722D01*
X6359348Y-10562722D02*
X6359348Y-10667484D01*
X6454586Y-10667484D02*
X6454586Y-10534150D01*
X6454586Y-10553198D02*
X6464110Y-10543674D01*
X6464110Y-10543674D02*
X6483158Y-10534150D01*
X6483158Y-10534150D02*
X6511729Y-10534150D01*
X6511729Y-10534150D02*
X6530777Y-10543674D01*
X6530777Y-10543674D02*
X6540301Y-10562722D01*
X6540301Y-10562722D02*
X6540301Y-10667484D01*
X6540301Y-10562722D02*
X6549824Y-10543674D01*
X6549824Y-10543674D02*
X6568872Y-10534150D01*
X6568872Y-10534150D02*
X6597443Y-10534150D01*
X6597443Y-10534150D02*
X6616491Y-10543674D01*
X6616491Y-10543674D02*
X6626015Y-10562722D01*
X6626015Y-10562722D02*
X6626015Y-10667484D01*
X7016491Y-10457960D02*
X6845063Y-10715103D01*
X7273634Y-10467484D02*
X7292682Y-10467484D01*
X7292682Y-10467484D02*
X7311729Y-10477008D01*
X7311729Y-10477008D02*
X7321253Y-10486531D01*
X7321253Y-10486531D02*
X7330777Y-10505579D01*
X7330777Y-10505579D02*
X7340301Y-10543674D01*
X7340301Y-10543674D02*
X7340301Y-10591293D01*
X7340301Y-10591293D02*
X7330777Y-10629389D01*
X7330777Y-10629389D02*
X7321253Y-10648436D01*
X7321253Y-10648436D02*
X7311729Y-10657960D01*
X7311729Y-10657960D02*
X7292682Y-10667484D01*
X7292682Y-10667484D02*
X7273634Y-10667484D01*
X7273634Y-10667484D02*
X7254586Y-10657960D01*
X7254586Y-10657960D02*
X7245063Y-10648436D01*
X7245063Y-10648436D02*
X7235539Y-10629389D01*
X7235539Y-10629389D02*
X7226015Y-10591293D01*
X7226015Y-10591293D02*
X7226015Y-10543674D01*
X7226015Y-10543674D02*
X7235539Y-10505579D01*
X7235539Y-10505579D02*
X7245063Y-10486531D01*
X7245063Y-10486531D02*
X7254586Y-10477008D01*
X7254586Y-10477008D02*
X7273634Y-10467484D01*
X7426015Y-10648436D02*
X7435539Y-10657960D01*
X7435539Y-10657960D02*
X7426015Y-10667484D01*
X7426015Y-10667484D02*
X7416491Y-10657960D01*
X7416491Y-10657960D02*
X7426015Y-10648436D01*
X7426015Y-10648436D02*
X7426015Y-10667484D01*
X7559348Y-10467484D02*
X7578396Y-10467484D01*
X7578396Y-10467484D02*
X7597444Y-10477008D01*
X7597444Y-10477008D02*
X7606967Y-10486531D01*
X7606967Y-10486531D02*
X7616491Y-10505579D01*
X7616491Y-10505579D02*
X7626015Y-10543674D01*
X7626015Y-10543674D02*
X7626015Y-10591293D01*
X7626015Y-10591293D02*
X7616491Y-10629389D01*
X7616491Y-10629389D02*
X7606967Y-10648436D01*
X7606967Y-10648436D02*
X7597444Y-10657960D01*
X7597444Y-10657960D02*
X7578396Y-10667484D01*
X7578396Y-10667484D02*
X7559348Y-10667484D01*
X7559348Y-10667484D02*
X7540301Y-10657960D01*
X7540301Y-10657960D02*
X7530777Y-10648436D01*
X7530777Y-10648436D02*
X7521253Y-10629389D01*
X7521253Y-10629389D02*
X7511729Y-10591293D01*
X7511729Y-10591293D02*
X7511729Y-10543674D01*
X7511729Y-10543674D02*
X7521253Y-10505579D01*
X7521253Y-10505579D02*
X7530777Y-10486531D01*
X7530777Y-10486531D02*
X7540301Y-10477008D01*
X7540301Y-10477008D02*
X7559348Y-10467484D01*
X7692682Y-10467484D02*
X7816491Y-10467484D01*
X7816491Y-10467484D02*
X7749825Y-10543674D01*
X7749825Y-10543674D02*
X7778396Y-10543674D01*
X7778396Y-10543674D02*
X7797444Y-10553198D01*
X7797444Y-10553198D02*
X7806967Y-10562722D01*
X7806967Y-10562722D02*
X7816491Y-10581770D01*
X7816491Y-10581770D02*
X7816491Y-10629389D01*
X7816491Y-10629389D02*
X7806967Y-10648436D01*
X7806967Y-10648436D02*
X7797444Y-10657960D01*
X7797444Y-10657960D02*
X7778396Y-10667484D01*
X7778396Y-10667484D02*
X7721253Y-10667484D01*
X7721253Y-10667484D02*
X7702206Y-10657960D01*
X7702206Y-10657960D02*
X7692682Y-10648436D01*
X8006967Y-10667484D02*
X7892682Y-10667484D01*
X7949825Y-10667484D02*
X7949825Y-10467484D01*
X7949825Y-10467484D02*
X7930777Y-10496055D01*
X7930777Y-10496055D02*
X7911729Y-10515103D01*
X7911729Y-10515103D02*
X7892682Y-10524627D01*
X8187920Y-10467484D02*
X8092682Y-10467484D01*
X8092682Y-10467484D02*
X8083158Y-10562722D01*
X8083158Y-10562722D02*
X8092682Y-10553198D01*
X8092682Y-10553198D02*
X8111729Y-10543674D01*
X8111729Y-10543674D02*
X8159348Y-10543674D01*
X8159348Y-10543674D02*
X8178396Y-10553198D01*
X8178396Y-10553198D02*
X8187920Y-10562722D01*
X8187920Y-10562722D02*
X8197444Y-10581770D01*
X8197444Y-10581770D02*
X8197444Y-10629389D01*
X8197444Y-10629389D02*
X8187920Y-10648436D01*
X8187920Y-10648436D02*
X8178396Y-10657960D01*
X8178396Y-10657960D02*
X8159348Y-10667484D01*
X8159348Y-10667484D02*
X8111729Y-10667484D01*
X8111729Y-10667484D02*
X8092682Y-10657960D01*
X8092682Y-10657960D02*
X8083158Y-10648436D01*
X8273634Y-10467484D02*
X8273634Y-10505579D01*
X8349825Y-10467484D02*
X8349825Y-10505579D01*
X8645063Y-10743674D02*
X8635539Y-10734150D01*
X8635539Y-10734150D02*
X8616491Y-10705579D01*
X8616491Y-10705579D02*
X8606968Y-10686531D01*
X8606968Y-10686531D02*
X8597444Y-10657960D01*
X8597444Y-10657960D02*
X8587920Y-10610341D01*
X8587920Y-10610341D02*
X8587920Y-10572246D01*
X8587920Y-10572246D02*
X8597444Y-10524627D01*
X8597444Y-10524627D02*
X8606968Y-10496055D01*
X8606968Y-10496055D02*
X8616491Y-10477008D01*
X8616491Y-10477008D02*
X8635539Y-10448436D01*
X8635539Y-10448436D02*
X8645063Y-10438912D01*
X8826015Y-10667484D02*
X8711730Y-10667484D01*
X8768872Y-10667484D02*
X8768872Y-10467484D01*
X8768872Y-10467484D02*
X8749825Y-10496055D01*
X8749825Y-10496055D02*
X8730777Y-10515103D01*
X8730777Y-10515103D02*
X8711730Y-10524627D01*
X8997444Y-10534150D02*
X8997444Y-10667484D01*
X8949825Y-10457960D02*
X8902206Y-10600817D01*
X8902206Y-10600817D02*
X9026015Y-10600817D01*
X9254587Y-10667484D02*
X9254587Y-10467484D01*
X9340301Y-10667484D02*
X9340301Y-10562722D01*
X9340301Y-10562722D02*
X9330777Y-10543674D01*
X9330777Y-10543674D02*
X9311730Y-10534150D01*
X9311730Y-10534150D02*
X9283158Y-10534150D01*
X9283158Y-10534150D02*
X9264111Y-10543674D01*
X9264111Y-10543674D02*
X9254587Y-10553198D01*
X9464111Y-10667484D02*
X9445063Y-10657960D01*
X9445063Y-10657960D02*
X9435539Y-10648436D01*
X9435539Y-10648436D02*
X9426015Y-10629389D01*
X9426015Y-10629389D02*
X9426015Y-10572246D01*
X9426015Y-10572246D02*
X9435539Y-10553198D01*
X9435539Y-10553198D02*
X9445063Y-10543674D01*
X9445063Y-10543674D02*
X9464111Y-10534150D01*
X9464111Y-10534150D02*
X9492682Y-10534150D01*
X9492682Y-10534150D02*
X9511730Y-10543674D01*
X9511730Y-10543674D02*
X9521253Y-10553198D01*
X9521253Y-10553198D02*
X9530777Y-10572246D01*
X9530777Y-10572246D02*
X9530777Y-10629389D01*
X9530777Y-10629389D02*
X9521253Y-10648436D01*
X9521253Y-10648436D02*
X9511730Y-10657960D01*
X9511730Y-10657960D02*
X9492682Y-10667484D01*
X9492682Y-10667484D02*
X9464111Y-10667484D01*
X9645063Y-10667484D02*
X9626015Y-10657960D01*
X9626015Y-10657960D02*
X9616492Y-10638912D01*
X9616492Y-10638912D02*
X9616492Y-10467484D01*
X9797444Y-10657960D02*
X9778396Y-10667484D01*
X9778396Y-10667484D02*
X9740301Y-10667484D01*
X9740301Y-10667484D02*
X9721253Y-10657960D01*
X9721253Y-10657960D02*
X9711730Y-10638912D01*
X9711730Y-10638912D02*
X9711730Y-10562722D01*
X9711730Y-10562722D02*
X9721253Y-10543674D01*
X9721253Y-10543674D02*
X9740301Y-10534150D01*
X9740301Y-10534150D02*
X9778396Y-10534150D01*
X9778396Y-10534150D02*
X9797444Y-10543674D01*
X9797444Y-10543674D02*
X9806968Y-10562722D01*
X9806968Y-10562722D02*
X9806968Y-10581770D01*
X9806968Y-10581770D02*
X9711730Y-10600817D01*
X9883158Y-10657960D02*
X9902206Y-10667484D01*
X9902206Y-10667484D02*
X9940301Y-10667484D01*
X9940301Y-10667484D02*
X9959349Y-10657960D01*
X9959349Y-10657960D02*
X9968873Y-10638912D01*
X9968873Y-10638912D02*
X9968873Y-10629389D01*
X9968873Y-10629389D02*
X9959349Y-10610341D01*
X9959349Y-10610341D02*
X9940301Y-10600817D01*
X9940301Y-10600817D02*
X9911730Y-10600817D01*
X9911730Y-10600817D02*
X9892682Y-10591293D01*
X9892682Y-10591293D02*
X9883158Y-10572246D01*
X9883158Y-10572246D02*
X9883158Y-10562722D01*
X9883158Y-10562722D02*
X9892682Y-10543674D01*
X9892682Y-10543674D02*
X9911730Y-10534150D01*
X9911730Y-10534150D02*
X9940301Y-10534150D01*
X9940301Y-10534150D02*
X9959349Y-10543674D01*
X10035539Y-10743674D02*
X10045063Y-10734150D01*
X10045063Y-10734150D02*
X10064111Y-10705579D01*
X10064111Y-10705579D02*
X10073634Y-10686531D01*
X10073634Y-10686531D02*
X10083158Y-10657960D01*
X10083158Y-10657960D02*
X10092682Y-10610341D01*
X10092682Y-10610341D02*
X10092682Y-10572246D01*
X10092682Y-10572246D02*
X10083158Y-10524627D01*
X10083158Y-10524627D02*
X10073634Y-10496055D01*
X10073634Y-10496055D02*
X10064111Y-10477008D01*
X10064111Y-10477008D02*
X10045063Y-10448436D01*
X10045063Y-10448436D02*
X10035539Y-10438912D01*
D10*
X5055356Y-10875356D02*
X5055356Y-10804644D01*
X4984644Y-10804644D01*
X4984644Y-10875356D01*
X5055356Y-10875356D01*
D11*
X5435539Y-10931484D02*
X5321253Y-10931484D01*
X5378396Y-10931484D02*
X5378396Y-10731484D01*
X5378396Y-10731484D02*
X5359348Y-10760055D01*
X5359348Y-10760055D02*
X5340301Y-10779103D01*
X5340301Y-10779103D02*
X5321253Y-10788627D01*
X5521253Y-10912436D02*
X5530777Y-10921960D01*
X5530777Y-10921960D02*
X5521253Y-10931484D01*
X5521253Y-10931484D02*
X5511729Y-10921960D01*
X5511729Y-10921960D02*
X5521253Y-10912436D01*
X5521253Y-10912436D02*
X5521253Y-10931484D01*
X5654586Y-10731484D02*
X5673634Y-10731484D01*
X5673634Y-10731484D02*
X5692682Y-10741008D01*
X5692682Y-10741008D02*
X5702205Y-10750531D01*
X5702205Y-10750531D02*
X5711729Y-10769579D01*
X5711729Y-10769579D02*
X5721253Y-10807674D01*
X5721253Y-10807674D02*
X5721253Y-10855293D01*
X5721253Y-10855293D02*
X5711729Y-10893389D01*
X5711729Y-10893389D02*
X5702205Y-10912436D01*
X5702205Y-10912436D02*
X5692682Y-10921960D01*
X5692682Y-10921960D02*
X5673634Y-10931484D01*
X5673634Y-10931484D02*
X5654586Y-10931484D01*
X5654586Y-10931484D02*
X5635539Y-10921960D01*
X5635539Y-10921960D02*
X5626015Y-10912436D01*
X5626015Y-10912436D02*
X5616491Y-10893389D01*
X5616491Y-10893389D02*
X5606967Y-10855293D01*
X5606967Y-10855293D02*
X5606967Y-10807674D01*
X5606967Y-10807674D02*
X5616491Y-10769579D01*
X5616491Y-10769579D02*
X5626015Y-10750531D01*
X5626015Y-10750531D02*
X5635539Y-10741008D01*
X5635539Y-10741008D02*
X5654586Y-10731484D01*
X5845062Y-10731484D02*
X5864110Y-10731484D01*
X5864110Y-10731484D02*
X5883158Y-10741008D01*
X5883158Y-10741008D02*
X5892682Y-10750531D01*
X5892682Y-10750531D02*
X5902205Y-10769579D01*
X5902205Y-10769579D02*
X5911729Y-10807674D01*
X5911729Y-10807674D02*
X5911729Y-10855293D01*
X5911729Y-10855293D02*
X5902205Y-10893389D01*
X5902205Y-10893389D02*
X5892682Y-10912436D01*
X5892682Y-10912436D02*
X5883158Y-10921960D01*
X5883158Y-10921960D02*
X5864110Y-10931484D01*
X5864110Y-10931484D02*
X5845062Y-10931484D01*
X5845062Y-10931484D02*
X5826015Y-10921960D01*
X5826015Y-10921960D02*
X5816491Y-10912436D01*
X5816491Y-10912436D02*
X5806967Y-10893389D01*
X5806967Y-10893389D02*
X5797443Y-10855293D01*
X5797443Y-10855293D02*
X5797443Y-10807674D01*
X5797443Y-10807674D02*
X5806967Y-10769579D01*
X5806967Y-10769579D02*
X5816491Y-10750531D01*
X5816491Y-10750531D02*
X5826015Y-10741008D01*
X5826015Y-10741008D02*
X5845062Y-10731484D01*
X6035539Y-10731484D02*
X6054586Y-10731484D01*
X6054586Y-10731484D02*
X6073634Y-10741008D01*
X6073634Y-10741008D02*
X6083158Y-10750531D01*
X6083158Y-10750531D02*
X6092682Y-10769579D01*
X6092682Y-10769579D02*
X6102205Y-10807674D01*
X6102205Y-10807674D02*
X6102205Y-10855293D01*
X6102205Y-10855293D02*
X6092682Y-10893389D01*
X6092682Y-10893389D02*
X6083158Y-10912436D01*
X6083158Y-10912436D02*
X6073634Y-10921960D01*
X6073634Y-10921960D02*
X6054586Y-10931484D01*
X6054586Y-10931484D02*
X6035539Y-10931484D01*
X6035539Y-10931484D02*
X6016491Y-10921960D01*
X6016491Y-10921960D02*
X6006967Y-10912436D01*
X6006967Y-10912436D02*
X5997443Y-10893389D01*
X5997443Y-10893389D02*
X5987920Y-10855293D01*
X5987920Y-10855293D02*
X5987920Y-10807674D01*
X5987920Y-10807674D02*
X5997443Y-10769579D01*
X5997443Y-10769579D02*
X6006967Y-10750531D01*
X6006967Y-10750531D02*
X6016491Y-10741008D01*
X6016491Y-10741008D02*
X6035539Y-10731484D01*
X6187920Y-10931484D02*
X6187920Y-10798150D01*
X6187920Y-10817198D02*
X6197443Y-10807674D01*
X6197443Y-10807674D02*
X6216491Y-10798150D01*
X6216491Y-10798150D02*
X6245063Y-10798150D01*
X6245063Y-10798150D02*
X6264110Y-10807674D01*
X6264110Y-10807674D02*
X6273634Y-10826722D01*
X6273634Y-10826722D02*
X6273634Y-10931484D01*
X6273634Y-10826722D02*
X6283158Y-10807674D01*
X6283158Y-10807674D02*
X6302205Y-10798150D01*
X6302205Y-10798150D02*
X6330777Y-10798150D01*
X6330777Y-10798150D02*
X6349824Y-10807674D01*
X6349824Y-10807674D02*
X6359348Y-10826722D01*
X6359348Y-10826722D02*
X6359348Y-10931484D01*
X6454586Y-10931484D02*
X6454586Y-10798150D01*
X6454586Y-10817198D02*
X6464110Y-10807674D01*
X6464110Y-10807674D02*
X6483158Y-10798150D01*
X6483158Y-10798150D02*
X6511729Y-10798150D01*
X6511729Y-10798150D02*
X6530777Y-10807674D01*
X6530777Y-10807674D02*
X6540301Y-10826722D01*
X6540301Y-10826722D02*
X6540301Y-10931484D01*
X6540301Y-10826722D02*
X6549824Y-10807674D01*
X6549824Y-10807674D02*
X6568872Y-10798150D01*
X6568872Y-10798150D02*
X6597443Y-10798150D01*
X6597443Y-10798150D02*
X6616491Y-10807674D01*
X6616491Y-10807674D02*
X6626015Y-10826722D01*
X6626015Y-10826722D02*
X6626015Y-10931484D01*
X7016491Y-10721960D02*
X6845063Y-10979103D01*
X7273634Y-10731484D02*
X7292682Y-10731484D01*
X7292682Y-10731484D02*
X7311729Y-10741008D01*
X7311729Y-10741008D02*
X7321253Y-10750531D01*
X7321253Y-10750531D02*
X7330777Y-10769579D01*
X7330777Y-10769579D02*
X7340301Y-10807674D01*
X7340301Y-10807674D02*
X7340301Y-10855293D01*
X7340301Y-10855293D02*
X7330777Y-10893389D01*
X7330777Y-10893389D02*
X7321253Y-10912436D01*
X7321253Y-10912436D02*
X7311729Y-10921960D01*
X7311729Y-10921960D02*
X7292682Y-10931484D01*
X7292682Y-10931484D02*
X7273634Y-10931484D01*
X7273634Y-10931484D02*
X7254586Y-10921960D01*
X7254586Y-10921960D02*
X7245063Y-10912436D01*
X7245063Y-10912436D02*
X7235539Y-10893389D01*
X7235539Y-10893389D02*
X7226015Y-10855293D01*
X7226015Y-10855293D02*
X7226015Y-10807674D01*
X7226015Y-10807674D02*
X7235539Y-10769579D01*
X7235539Y-10769579D02*
X7245063Y-10750531D01*
X7245063Y-10750531D02*
X7254586Y-10741008D01*
X7254586Y-10741008D02*
X7273634Y-10731484D01*
X7426015Y-10912436D02*
X7435539Y-10921960D01*
X7435539Y-10921960D02*
X7426015Y-10931484D01*
X7426015Y-10931484D02*
X7416491Y-10921960D01*
X7416491Y-10921960D02*
X7426015Y-10912436D01*
X7426015Y-10912436D02*
X7426015Y-10931484D01*
X7559348Y-10731484D02*
X7578396Y-10731484D01*
X7578396Y-10731484D02*
X7597444Y-10741008D01*
X7597444Y-10741008D02*
X7606967Y-10750531D01*
X7606967Y-10750531D02*
X7616491Y-10769579D01*
X7616491Y-10769579D02*
X7626015Y-10807674D01*
X7626015Y-10807674D02*
X7626015Y-10855293D01*
X7626015Y-10855293D02*
X7616491Y-10893389D01*
X7616491Y-10893389D02*
X7606967Y-10912436D01*
X7606967Y-10912436D02*
X7597444Y-10921960D01*
X7597444Y-10921960D02*
X7578396Y-10931484D01*
X7578396Y-10931484D02*
X7559348Y-10931484D01*
X7559348Y-10931484D02*
X7540301Y-10921960D01*
X7540301Y-10921960D02*
X7530777Y-10912436D01*
X7530777Y-10912436D02*
X7521253Y-10893389D01*
X7521253Y-10893389D02*
X7511729Y-10855293D01*
X7511729Y-10855293D02*
X7511729Y-10807674D01*
X7511729Y-10807674D02*
X7521253Y-10769579D01*
X7521253Y-10769579D02*
X7530777Y-10750531D01*
X7530777Y-10750531D02*
X7540301Y-10741008D01*
X7540301Y-10741008D02*
X7559348Y-10731484D01*
X7692682Y-10731484D02*
X7816491Y-10731484D01*
X7816491Y-10731484D02*
X7749825Y-10807674D01*
X7749825Y-10807674D02*
X7778396Y-10807674D01*
X7778396Y-10807674D02*
X7797444Y-10817198D01*
X7797444Y-10817198D02*
X7806967Y-10826722D01*
X7806967Y-10826722D02*
X7816491Y-10845770D01*
X7816491Y-10845770D02*
X7816491Y-10893389D01*
X7816491Y-10893389D02*
X7806967Y-10912436D01*
X7806967Y-10912436D02*
X7797444Y-10921960D01*
X7797444Y-10921960D02*
X7778396Y-10931484D01*
X7778396Y-10931484D02*
X7721253Y-10931484D01*
X7721253Y-10931484D02*
X7702206Y-10921960D01*
X7702206Y-10921960D02*
X7692682Y-10912436D01*
X7911729Y-10931484D02*
X7949825Y-10931484D01*
X7949825Y-10931484D02*
X7968872Y-10921960D01*
X7968872Y-10921960D02*
X7978396Y-10912436D01*
X7978396Y-10912436D02*
X7997444Y-10883865D01*
X7997444Y-10883865D02*
X8006967Y-10845770D01*
X8006967Y-10845770D02*
X8006967Y-10769579D01*
X8006967Y-10769579D02*
X7997444Y-10750531D01*
X7997444Y-10750531D02*
X7987920Y-10741008D01*
X7987920Y-10741008D02*
X7968872Y-10731484D01*
X7968872Y-10731484D02*
X7930777Y-10731484D01*
X7930777Y-10731484D02*
X7911729Y-10741008D01*
X7911729Y-10741008D02*
X7902206Y-10750531D01*
X7902206Y-10750531D02*
X7892682Y-10769579D01*
X7892682Y-10769579D02*
X7892682Y-10817198D01*
X7892682Y-10817198D02*
X7902206Y-10836246D01*
X7902206Y-10836246D02*
X7911729Y-10845770D01*
X7911729Y-10845770D02*
X7930777Y-10855293D01*
X7930777Y-10855293D02*
X7968872Y-10855293D01*
X7968872Y-10855293D02*
X7987920Y-10845770D01*
X7987920Y-10845770D02*
X7997444Y-10836246D01*
X7997444Y-10836246D02*
X8006967Y-10817198D01*
X8178396Y-10798150D02*
X8178396Y-10931484D01*
X8130777Y-10721960D02*
X8083158Y-10864817D01*
X8083158Y-10864817D02*
X8206967Y-10864817D01*
X8273634Y-10731484D02*
X8273634Y-10769579D01*
X8349825Y-10731484D02*
X8349825Y-10769579D01*
X8645063Y-11007674D02*
X8635539Y-10998150D01*
X8635539Y-10998150D02*
X8616491Y-10969579D01*
X8616491Y-10969579D02*
X8606968Y-10950531D01*
X8606968Y-10950531D02*
X8597444Y-10921960D01*
X8597444Y-10921960D02*
X8587920Y-10874341D01*
X8587920Y-10874341D02*
X8587920Y-10836246D01*
X8587920Y-10836246D02*
X8597444Y-10788627D01*
X8597444Y-10788627D02*
X8606968Y-10760055D01*
X8606968Y-10760055D02*
X8616491Y-10741008D01*
X8616491Y-10741008D02*
X8635539Y-10712436D01*
X8635539Y-10712436D02*
X8645063Y-10702912D01*
X8702206Y-10731484D02*
X8826015Y-10731484D01*
X8826015Y-10731484D02*
X8759349Y-10807674D01*
X8759349Y-10807674D02*
X8787920Y-10807674D01*
X8787920Y-10807674D02*
X8806968Y-10817198D01*
X8806968Y-10817198D02*
X8816491Y-10826722D01*
X8816491Y-10826722D02*
X8826015Y-10845770D01*
X8826015Y-10845770D02*
X8826015Y-10893389D01*
X8826015Y-10893389D02*
X8816491Y-10912436D01*
X8816491Y-10912436D02*
X8806968Y-10921960D01*
X8806968Y-10921960D02*
X8787920Y-10931484D01*
X8787920Y-10931484D02*
X8730777Y-10931484D01*
X8730777Y-10931484D02*
X8711730Y-10921960D01*
X8711730Y-10921960D02*
X8702206Y-10912436D01*
X8902206Y-10750531D02*
X8911730Y-10741008D01*
X8911730Y-10741008D02*
X8930777Y-10731484D01*
X8930777Y-10731484D02*
X8978396Y-10731484D01*
X8978396Y-10731484D02*
X8997444Y-10741008D01*
X8997444Y-10741008D02*
X9006968Y-10750531D01*
X9006968Y-10750531D02*
X9016491Y-10769579D01*
X9016491Y-10769579D02*
X9016491Y-10788627D01*
X9016491Y-10788627D02*
X9006968Y-10817198D01*
X9006968Y-10817198D02*
X8892682Y-10931484D01*
X8892682Y-10931484D02*
X9016491Y-10931484D01*
X9254587Y-10931484D02*
X9254587Y-10731484D01*
X9340301Y-10931484D02*
X9340301Y-10826722D01*
X9340301Y-10826722D02*
X9330777Y-10807674D01*
X9330777Y-10807674D02*
X9311730Y-10798150D01*
X9311730Y-10798150D02*
X9283158Y-10798150D01*
X9283158Y-10798150D02*
X9264111Y-10807674D01*
X9264111Y-10807674D02*
X9254587Y-10817198D01*
X9464111Y-10931484D02*
X9445063Y-10921960D01*
X9445063Y-10921960D02*
X9435539Y-10912436D01*
X9435539Y-10912436D02*
X9426015Y-10893389D01*
X9426015Y-10893389D02*
X9426015Y-10836246D01*
X9426015Y-10836246D02*
X9435539Y-10817198D01*
X9435539Y-10817198D02*
X9445063Y-10807674D01*
X9445063Y-10807674D02*
X9464111Y-10798150D01*
X9464111Y-10798150D02*
X9492682Y-10798150D01*
X9492682Y-10798150D02*
X9511730Y-10807674D01*
X9511730Y-10807674D02*
X9521253Y-10817198D01*
X9521253Y-10817198D02*
X9530777Y-10836246D01*
X9530777Y-10836246D02*
X9530777Y-10893389D01*
X9530777Y-10893389D02*
X9521253Y-10912436D01*
X9521253Y-10912436D02*
X9511730Y-10921960D01*
X9511730Y-10921960D02*
X9492682Y-10931484D01*
X9492682Y-10931484D02*
X9464111Y-10931484D01*
X9645063Y-10931484D02*
X9626015Y-10921960D01*
X9626015Y-10921960D02*
X9616492Y-10902912D01*
X9616492Y-10902912D02*
X9616492Y-10731484D01*
X9797444Y-10921960D02*
X9778396Y-10931484D01*
X9778396Y-10931484D02*
X9740301Y-10931484D01*
X9740301Y-10931484D02*
X9721253Y-10921960D01*
X9721253Y-10921960D02*
X9711730Y-10902912D01*
X9711730Y-10902912D02*
X9711730Y-10826722D01*
X9711730Y-10826722D02*
X9721253Y-10807674D01*
X9721253Y-10807674D02*
X9740301Y-10798150D01*
X9740301Y-10798150D02*
X9778396Y-10798150D01*
X9778396Y-10798150D02*
X9797444Y-10807674D01*
X9797444Y-10807674D02*
X9806968Y-10826722D01*
X9806968Y-10826722D02*
X9806968Y-10845770D01*
X9806968Y-10845770D02*
X9711730Y-10864817D01*
X9883158Y-10921960D02*
X9902206Y-10931484D01*
X9902206Y-10931484D02*
X9940301Y-10931484D01*
X9940301Y-10931484D02*
X9959349Y-10921960D01*
X9959349Y-10921960D02*
X9968873Y-10902912D01*
X9968873Y-10902912D02*
X9968873Y-10893389D01*
X9968873Y-10893389D02*
X9959349Y-10874341D01*
X9959349Y-10874341D02*
X9940301Y-10864817D01*
X9940301Y-10864817D02*
X9911730Y-10864817D01*
X9911730Y-10864817D02*
X9892682Y-10855293D01*
X9892682Y-10855293D02*
X9883158Y-10836246D01*
X9883158Y-10836246D02*
X9883158Y-10826722D01*
X9883158Y-10826722D02*
X9892682Y-10807674D01*
X9892682Y-10807674D02*
X9911730Y-10798150D01*
X9911730Y-10798150D02*
X9940301Y-10798150D01*
X9940301Y-10798150D02*
X9959349Y-10807674D01*
X10035539Y-11007674D02*
X10045063Y-10998150D01*
X10045063Y-10998150D02*
X10064111Y-10969579D01*
X10064111Y-10969579D02*
X10073634Y-10950531D01*
X10073634Y-10950531D02*
X10083158Y-10921960D01*
X10083158Y-10921960D02*
X10092682Y-10874341D01*
X10092682Y-10874341D02*
X10092682Y-10836246D01*
X10092682Y-10836246D02*
X10083158Y-10788627D01*
X10083158Y-10788627D02*
X10073634Y-10760055D01*
X10073634Y-10760055D02*
X10064111Y-10741008D01*
X10064111Y-10741008D02*
X10045063Y-10712436D01*
X10045063Y-10712436D02*
X10035539Y-10702912D01*
D12*
X5015000Y-11159000D02*
X5070000Y-11104000D01*
X5015000Y-11049000D01*
X4960000Y-11104000D01*
X5015000Y-11159000D01*
D11*
X5435539Y-11195484D02*
X5321253Y-11195484D01*
X5378396Y-11195484D02*
X5378396Y-10995484D01*
X5378396Y-10995484D02*
X5359348Y-11024055D01*
X5359348Y-11024055D02*
X5340301Y-11043103D01*
X5340301Y-11043103D02*
X5321253Y-11052627D01*
X5521253Y-11176436D02*
X5530777Y-11185960D01*
X5530777Y-11185960D02*
X5521253Y-11195484D01*
X5521253Y-11195484D02*
X5511729Y-11185960D01*
X5511729Y-11185960D02*
X5521253Y-11176436D01*
X5521253Y-11176436D02*
X5521253Y-11195484D01*
X5721253Y-11195484D02*
X5606967Y-11195484D01*
X5664110Y-11195484D02*
X5664110Y-10995484D01*
X5664110Y-10995484D02*
X5645062Y-11024055D01*
X5645062Y-11024055D02*
X5626015Y-11043103D01*
X5626015Y-11043103D02*
X5606967Y-11052627D01*
X5845062Y-10995484D02*
X5864110Y-10995484D01*
X5864110Y-10995484D02*
X5883158Y-11005008D01*
X5883158Y-11005008D02*
X5892682Y-11014531D01*
X5892682Y-11014531D02*
X5902205Y-11033579D01*
X5902205Y-11033579D02*
X5911729Y-11071674D01*
X5911729Y-11071674D02*
X5911729Y-11119293D01*
X5911729Y-11119293D02*
X5902205Y-11157389D01*
X5902205Y-11157389D02*
X5892682Y-11176436D01*
X5892682Y-11176436D02*
X5883158Y-11185960D01*
X5883158Y-11185960D02*
X5864110Y-11195484D01*
X5864110Y-11195484D02*
X5845062Y-11195484D01*
X5845062Y-11195484D02*
X5826015Y-11185960D01*
X5826015Y-11185960D02*
X5816491Y-11176436D01*
X5816491Y-11176436D02*
X5806967Y-11157389D01*
X5806967Y-11157389D02*
X5797443Y-11119293D01*
X5797443Y-11119293D02*
X5797443Y-11071674D01*
X5797443Y-11071674D02*
X5806967Y-11033579D01*
X5806967Y-11033579D02*
X5816491Y-11014531D01*
X5816491Y-11014531D02*
X5826015Y-11005008D01*
X5826015Y-11005008D02*
X5845062Y-10995484D01*
X6035539Y-10995484D02*
X6054586Y-10995484D01*
X6054586Y-10995484D02*
X6073634Y-11005008D01*
X6073634Y-11005008D02*
X6083158Y-11014531D01*
X6083158Y-11014531D02*
X6092682Y-11033579D01*
X6092682Y-11033579D02*
X6102205Y-11071674D01*
X6102205Y-11071674D02*
X6102205Y-11119293D01*
X6102205Y-11119293D02*
X6092682Y-11157389D01*
X6092682Y-11157389D02*
X6083158Y-11176436D01*
X6083158Y-11176436D02*
X6073634Y-11185960D01*
X6073634Y-11185960D02*
X6054586Y-11195484D01*
X6054586Y-11195484D02*
X6035539Y-11195484D01*
X6035539Y-11195484D02*
X6016491Y-11185960D01*
X6016491Y-11185960D02*
X6006967Y-11176436D01*
X6006967Y-11176436D02*
X5997443Y-11157389D01*
X5997443Y-11157389D02*
X5987920Y-11119293D01*
X5987920Y-11119293D02*
X5987920Y-11071674D01*
X5987920Y-11071674D02*
X5997443Y-11033579D01*
X5997443Y-11033579D02*
X6006967Y-11014531D01*
X6006967Y-11014531D02*
X6016491Y-11005008D01*
X6016491Y-11005008D02*
X6035539Y-10995484D01*
X6187920Y-11195484D02*
X6187920Y-11062150D01*
X6187920Y-11081198D02*
X6197443Y-11071674D01*
X6197443Y-11071674D02*
X6216491Y-11062150D01*
X6216491Y-11062150D02*
X6245063Y-11062150D01*
X6245063Y-11062150D02*
X6264110Y-11071674D01*
X6264110Y-11071674D02*
X6273634Y-11090722D01*
X6273634Y-11090722D02*
X6273634Y-11195484D01*
X6273634Y-11090722D02*
X6283158Y-11071674D01*
X6283158Y-11071674D02*
X6302205Y-11062150D01*
X6302205Y-11062150D02*
X6330777Y-11062150D01*
X6330777Y-11062150D02*
X6349824Y-11071674D01*
X6349824Y-11071674D02*
X6359348Y-11090722D01*
X6359348Y-11090722D02*
X6359348Y-11195484D01*
X6454586Y-11195484D02*
X6454586Y-11062150D01*
X6454586Y-11081198D02*
X6464110Y-11071674D01*
X6464110Y-11071674D02*
X6483158Y-11062150D01*
X6483158Y-11062150D02*
X6511729Y-11062150D01*
X6511729Y-11062150D02*
X6530777Y-11071674D01*
X6530777Y-11071674D02*
X6540301Y-11090722D01*
X6540301Y-11090722D02*
X6540301Y-11195484D01*
X6540301Y-11090722D02*
X6549824Y-11071674D01*
X6549824Y-11071674D02*
X6568872Y-11062150D01*
X6568872Y-11062150D02*
X6597443Y-11062150D01*
X6597443Y-11062150D02*
X6616491Y-11071674D01*
X6616491Y-11071674D02*
X6626015Y-11090722D01*
X6626015Y-11090722D02*
X6626015Y-11195484D01*
X7016491Y-10985960D02*
X6845063Y-11243103D01*
X7273634Y-10995484D02*
X7292682Y-10995484D01*
X7292682Y-10995484D02*
X7311729Y-11005008D01*
X7311729Y-11005008D02*
X7321253Y-11014531D01*
X7321253Y-11014531D02*
X7330777Y-11033579D01*
X7330777Y-11033579D02*
X7340301Y-11071674D01*
X7340301Y-11071674D02*
X7340301Y-11119293D01*
X7340301Y-11119293D02*
X7330777Y-11157389D01*
X7330777Y-11157389D02*
X7321253Y-11176436D01*
X7321253Y-11176436D02*
X7311729Y-11185960D01*
X7311729Y-11185960D02*
X7292682Y-11195484D01*
X7292682Y-11195484D02*
X7273634Y-11195484D01*
X7273634Y-11195484D02*
X7254586Y-11185960D01*
X7254586Y-11185960D02*
X7245063Y-11176436D01*
X7245063Y-11176436D02*
X7235539Y-11157389D01*
X7235539Y-11157389D02*
X7226015Y-11119293D01*
X7226015Y-11119293D02*
X7226015Y-11071674D01*
X7226015Y-11071674D02*
X7235539Y-11033579D01*
X7235539Y-11033579D02*
X7245063Y-11014531D01*
X7245063Y-11014531D02*
X7254586Y-11005008D01*
X7254586Y-11005008D02*
X7273634Y-10995484D01*
X7426015Y-11176436D02*
X7435539Y-11185960D01*
X7435539Y-11185960D02*
X7426015Y-11195484D01*
X7426015Y-11195484D02*
X7416491Y-11185960D01*
X7416491Y-11185960D02*
X7426015Y-11176436D01*
X7426015Y-11176436D02*
X7426015Y-11195484D01*
X7559348Y-10995484D02*
X7578396Y-10995484D01*
X7578396Y-10995484D02*
X7597444Y-11005008D01*
X7597444Y-11005008D02*
X7606967Y-11014531D01*
X7606967Y-11014531D02*
X7616491Y-11033579D01*
X7616491Y-11033579D02*
X7626015Y-11071674D01*
X7626015Y-11071674D02*
X7626015Y-11119293D01*
X7626015Y-11119293D02*
X7616491Y-11157389D01*
X7616491Y-11157389D02*
X7606967Y-11176436D01*
X7606967Y-11176436D02*
X7597444Y-11185960D01*
X7597444Y-11185960D02*
X7578396Y-11195484D01*
X7578396Y-11195484D02*
X7559348Y-11195484D01*
X7559348Y-11195484D02*
X7540301Y-11185960D01*
X7540301Y-11185960D02*
X7530777Y-11176436D01*
X7530777Y-11176436D02*
X7521253Y-11157389D01*
X7521253Y-11157389D02*
X7511729Y-11119293D01*
X7511729Y-11119293D02*
X7511729Y-11071674D01*
X7511729Y-11071674D02*
X7521253Y-11033579D01*
X7521253Y-11033579D02*
X7530777Y-11014531D01*
X7530777Y-11014531D02*
X7540301Y-11005008D01*
X7540301Y-11005008D02*
X7559348Y-10995484D01*
X7797444Y-11062150D02*
X7797444Y-11195484D01*
X7749825Y-10985960D02*
X7702206Y-11128817D01*
X7702206Y-11128817D02*
X7826015Y-11128817D01*
X7883158Y-10995484D02*
X8006967Y-10995484D01*
X8006967Y-10995484D02*
X7940301Y-11071674D01*
X7940301Y-11071674D02*
X7968872Y-11071674D01*
X7968872Y-11071674D02*
X7987920Y-11081198D01*
X7987920Y-11081198D02*
X7997444Y-11090722D01*
X7997444Y-11090722D02*
X8006967Y-11109770D01*
X8006967Y-11109770D02*
X8006967Y-11157389D01*
X8006967Y-11157389D02*
X7997444Y-11176436D01*
X7997444Y-11176436D02*
X7987920Y-11185960D01*
X7987920Y-11185960D02*
X7968872Y-11195484D01*
X7968872Y-11195484D02*
X7911729Y-11195484D01*
X7911729Y-11195484D02*
X7892682Y-11185960D01*
X7892682Y-11185960D02*
X7883158Y-11176436D01*
X8073634Y-10995484D02*
X8197444Y-10995484D01*
X8197444Y-10995484D02*
X8130777Y-11071674D01*
X8130777Y-11071674D02*
X8159348Y-11071674D01*
X8159348Y-11071674D02*
X8178396Y-11081198D01*
X8178396Y-11081198D02*
X8187920Y-11090722D01*
X8187920Y-11090722D02*
X8197444Y-11109770D01*
X8197444Y-11109770D02*
X8197444Y-11157389D01*
X8197444Y-11157389D02*
X8187920Y-11176436D01*
X8187920Y-11176436D02*
X8178396Y-11185960D01*
X8178396Y-11185960D02*
X8159348Y-11195484D01*
X8159348Y-11195484D02*
X8102206Y-11195484D01*
X8102206Y-11195484D02*
X8083158Y-11185960D01*
X8083158Y-11185960D02*
X8073634Y-11176436D01*
X8273634Y-10995484D02*
X8273634Y-11033579D01*
X8349825Y-10995484D02*
X8349825Y-11033579D01*
X8645063Y-11271674D02*
X8635539Y-11262150D01*
X8635539Y-11262150D02*
X8616491Y-11233579D01*
X8616491Y-11233579D02*
X8606968Y-11214531D01*
X8606968Y-11214531D02*
X8597444Y-11185960D01*
X8597444Y-11185960D02*
X8587920Y-11138341D01*
X8587920Y-11138341D02*
X8587920Y-11100246D01*
X8587920Y-11100246D02*
X8597444Y-11052627D01*
X8597444Y-11052627D02*
X8606968Y-11024055D01*
X8606968Y-11024055D02*
X8616491Y-11005008D01*
X8616491Y-11005008D02*
X8635539Y-10976436D01*
X8635539Y-10976436D02*
X8645063Y-10966912D01*
X8806968Y-11062150D02*
X8806968Y-11195484D01*
X8759349Y-10985960D02*
X8711730Y-11128817D01*
X8711730Y-11128817D02*
X8835539Y-11128817D01*
X9064111Y-11195484D02*
X9064111Y-10995484D01*
X9149825Y-11195484D02*
X9149825Y-11090722D01*
X9149825Y-11090722D02*
X9140301Y-11071674D01*
X9140301Y-11071674D02*
X9121253Y-11062150D01*
X9121253Y-11062150D02*
X9092682Y-11062150D01*
X9092682Y-11062150D02*
X9073634Y-11071674D01*
X9073634Y-11071674D02*
X9064111Y-11081198D01*
X9273634Y-11195484D02*
X9254587Y-11185960D01*
X9254587Y-11185960D02*
X9245063Y-11176436D01*
X9245063Y-11176436D02*
X9235539Y-11157389D01*
X9235539Y-11157389D02*
X9235539Y-11100246D01*
X9235539Y-11100246D02*
X9245063Y-11081198D01*
X9245063Y-11081198D02*
X9254587Y-11071674D01*
X9254587Y-11071674D02*
X9273634Y-11062150D01*
X9273634Y-11062150D02*
X9302206Y-11062150D01*
X9302206Y-11062150D02*
X9321253Y-11071674D01*
X9321253Y-11071674D02*
X9330777Y-11081198D01*
X9330777Y-11081198D02*
X9340301Y-11100246D01*
X9340301Y-11100246D02*
X9340301Y-11157389D01*
X9340301Y-11157389D02*
X9330777Y-11176436D01*
X9330777Y-11176436D02*
X9321253Y-11185960D01*
X9321253Y-11185960D02*
X9302206Y-11195484D01*
X9302206Y-11195484D02*
X9273634Y-11195484D01*
X9454587Y-11195484D02*
X9435539Y-11185960D01*
X9435539Y-11185960D02*
X9426015Y-11166912D01*
X9426015Y-11166912D02*
X9426015Y-10995484D01*
X9606968Y-11185960D02*
X9587920Y-11195484D01*
X9587920Y-11195484D02*
X9549825Y-11195484D01*
X9549825Y-11195484D02*
X9530777Y-11185960D01*
X9530777Y-11185960D02*
X9521253Y-11166912D01*
X9521253Y-11166912D02*
X9521253Y-11090722D01*
X9521253Y-11090722D02*
X9530777Y-11071674D01*
X9530777Y-11071674D02*
X9549825Y-11062150D01*
X9549825Y-11062150D02*
X9587920Y-11062150D01*
X9587920Y-11062150D02*
X9606968Y-11071674D01*
X9606968Y-11071674D02*
X9616492Y-11090722D01*
X9616492Y-11090722D02*
X9616492Y-11109770D01*
X9616492Y-11109770D02*
X9521253Y-11128817D01*
X9692682Y-11185960D02*
X9711730Y-11195484D01*
X9711730Y-11195484D02*
X9749825Y-11195484D01*
X9749825Y-11195484D02*
X9768873Y-11185960D01*
X9768873Y-11185960D02*
X9778396Y-11166912D01*
X9778396Y-11166912D02*
X9778396Y-11157389D01*
X9778396Y-11157389D02*
X9768873Y-11138341D01*
X9768873Y-11138341D02*
X9749825Y-11128817D01*
X9749825Y-11128817D02*
X9721253Y-11128817D01*
X9721253Y-11128817D02*
X9702206Y-11119293D01*
X9702206Y-11119293D02*
X9692682Y-11100246D01*
X9692682Y-11100246D02*
X9692682Y-11090722D01*
X9692682Y-11090722D02*
X9702206Y-11071674D01*
X9702206Y-11071674D02*
X9721253Y-11062150D01*
X9721253Y-11062150D02*
X9749825Y-11062150D01*
X9749825Y-11062150D02*
X9768873Y-11071674D01*
X9845063Y-11271674D02*
X9854587Y-11262150D01*
X9854587Y-11262150D02*
X9873634Y-11233579D01*
X9873634Y-11233579D02*
X9883158Y-11214531D01*
X9883158Y-11214531D02*
X9892682Y-11185960D01*
X9892682Y-11185960D02*
X9902206Y-11138341D01*
X9902206Y-11138341D02*
X9902206Y-11100246D01*
X9902206Y-11100246D02*
X9892682Y-11052627D01*
X9892682Y-11052627D02*
X9883158Y-11024055D01*
X9883158Y-11024055D02*
X9873634Y-11005008D01*
X9873634Y-11005008D02*
X9854587Y-10976436D01*
X9854587Y-10976436D02*
X9845063Y-10966912D01*
D13*
X4950000Y-11308000D02*
X5070000Y-11428000D01*
X5070000Y-11308000D02*
X4950000Y-11428000D01*
X5070000Y-11368000D02*
G75*
G03*
X4950000Y-11368000I-60000J0D01*
G01*
X4950000Y-11368000D02*
G75*
G03*
X5070000Y-11368000I60000J0D01*
G01*
D11*
X5435539Y-11459484D02*
X5321253Y-11459484D01*
X5378396Y-11459484D02*
X5378396Y-11259484D01*
X5378396Y-11259484D02*
X5359348Y-11288055D01*
X5359348Y-11288055D02*
X5340301Y-11307103D01*
X5340301Y-11307103D02*
X5321253Y-11316627D01*
X5521253Y-11440436D02*
X5530777Y-11449960D01*
X5530777Y-11449960D02*
X5521253Y-11459484D01*
X5521253Y-11459484D02*
X5511729Y-11449960D01*
X5511729Y-11449960D02*
X5521253Y-11440436D01*
X5521253Y-11440436D02*
X5521253Y-11459484D01*
X5606967Y-11278531D02*
X5616491Y-11269008D01*
X5616491Y-11269008D02*
X5635539Y-11259484D01*
X5635539Y-11259484D02*
X5683158Y-11259484D01*
X5683158Y-11259484D02*
X5702205Y-11269008D01*
X5702205Y-11269008D02*
X5711729Y-11278531D01*
X5711729Y-11278531D02*
X5721253Y-11297579D01*
X5721253Y-11297579D02*
X5721253Y-11316627D01*
X5721253Y-11316627D02*
X5711729Y-11345198D01*
X5711729Y-11345198D02*
X5597443Y-11459484D01*
X5597443Y-11459484D02*
X5721253Y-11459484D01*
X5845062Y-11259484D02*
X5864110Y-11259484D01*
X5864110Y-11259484D02*
X5883158Y-11269008D01*
X5883158Y-11269008D02*
X5892682Y-11278531D01*
X5892682Y-11278531D02*
X5902205Y-11297579D01*
X5902205Y-11297579D02*
X5911729Y-11335674D01*
X5911729Y-11335674D02*
X5911729Y-11383293D01*
X5911729Y-11383293D02*
X5902205Y-11421388D01*
X5902205Y-11421388D02*
X5892682Y-11440436D01*
X5892682Y-11440436D02*
X5883158Y-11449960D01*
X5883158Y-11449960D02*
X5864110Y-11459484D01*
X5864110Y-11459484D02*
X5845062Y-11459484D01*
X5845062Y-11459484D02*
X5826015Y-11449960D01*
X5826015Y-11449960D02*
X5816491Y-11440436D01*
X5816491Y-11440436D02*
X5806967Y-11421388D01*
X5806967Y-11421388D02*
X5797443Y-11383293D01*
X5797443Y-11383293D02*
X5797443Y-11335674D01*
X5797443Y-11335674D02*
X5806967Y-11297579D01*
X5806967Y-11297579D02*
X5816491Y-11278531D01*
X5816491Y-11278531D02*
X5826015Y-11269008D01*
X5826015Y-11269008D02*
X5845062Y-11259484D01*
X6035539Y-11259484D02*
X6054586Y-11259484D01*
X6054586Y-11259484D02*
X6073634Y-11269008D01*
X6073634Y-11269008D02*
X6083158Y-11278531D01*
X6083158Y-11278531D02*
X6092682Y-11297579D01*
X6092682Y-11297579D02*
X6102205Y-11335674D01*
X6102205Y-11335674D02*
X6102205Y-11383293D01*
X6102205Y-11383293D02*
X6092682Y-11421388D01*
X6092682Y-11421388D02*
X6083158Y-11440436D01*
X6083158Y-11440436D02*
X6073634Y-11449960D01*
X6073634Y-11449960D02*
X6054586Y-11459484D01*
X6054586Y-11459484D02*
X6035539Y-11459484D01*
X6035539Y-11459484D02*
X6016491Y-11449960D01*
X6016491Y-11449960D02*
X6006967Y-11440436D01*
X6006967Y-11440436D02*
X5997443Y-11421388D01*
X5997443Y-11421388D02*
X5987920Y-11383293D01*
X5987920Y-11383293D02*
X5987920Y-11335674D01*
X5987920Y-11335674D02*
X5997443Y-11297579D01*
X5997443Y-11297579D02*
X6006967Y-11278531D01*
X6006967Y-11278531D02*
X6016491Y-11269008D01*
X6016491Y-11269008D02*
X6035539Y-11259484D01*
X6187920Y-11459484D02*
X6187920Y-11326150D01*
X6187920Y-11345198D02*
X6197443Y-11335674D01*
X6197443Y-11335674D02*
X6216491Y-11326150D01*
X6216491Y-11326150D02*
X6245063Y-11326150D01*
X6245063Y-11326150D02*
X6264110Y-11335674D01*
X6264110Y-11335674D02*
X6273634Y-11354722D01*
X6273634Y-11354722D02*
X6273634Y-11459484D01*
X6273634Y-11354722D02*
X6283158Y-11335674D01*
X6283158Y-11335674D02*
X6302205Y-11326150D01*
X6302205Y-11326150D02*
X6330777Y-11326150D01*
X6330777Y-11326150D02*
X6349824Y-11335674D01*
X6349824Y-11335674D02*
X6359348Y-11354722D01*
X6359348Y-11354722D02*
X6359348Y-11459484D01*
X6454586Y-11459484D02*
X6454586Y-11326150D01*
X6454586Y-11345198D02*
X6464110Y-11335674D01*
X6464110Y-11335674D02*
X6483158Y-11326150D01*
X6483158Y-11326150D02*
X6511729Y-11326150D01*
X6511729Y-11326150D02*
X6530777Y-11335674D01*
X6530777Y-11335674D02*
X6540301Y-11354722D01*
X6540301Y-11354722D02*
X6540301Y-11459484D01*
X6540301Y-11354722D02*
X6549824Y-11335674D01*
X6549824Y-11335674D02*
X6568872Y-11326150D01*
X6568872Y-11326150D02*
X6597443Y-11326150D01*
X6597443Y-11326150D02*
X6616491Y-11335674D01*
X6616491Y-11335674D02*
X6626015Y-11354722D01*
X6626015Y-11354722D02*
X6626015Y-11459484D01*
X7016491Y-11249960D02*
X6845063Y-11507103D01*
X7273634Y-11259484D02*
X7292682Y-11259484D01*
X7292682Y-11259484D02*
X7311729Y-11269008D01*
X7311729Y-11269008D02*
X7321253Y-11278531D01*
X7321253Y-11278531D02*
X7330777Y-11297579D01*
X7330777Y-11297579D02*
X7340301Y-11335674D01*
X7340301Y-11335674D02*
X7340301Y-11383293D01*
X7340301Y-11383293D02*
X7330777Y-11421388D01*
X7330777Y-11421388D02*
X7321253Y-11440436D01*
X7321253Y-11440436D02*
X7311729Y-11449960D01*
X7311729Y-11449960D02*
X7292682Y-11459484D01*
X7292682Y-11459484D02*
X7273634Y-11459484D01*
X7273634Y-11459484D02*
X7254586Y-11449960D01*
X7254586Y-11449960D02*
X7245063Y-11440436D01*
X7245063Y-11440436D02*
X7235539Y-11421388D01*
X7235539Y-11421388D02*
X7226015Y-11383293D01*
X7226015Y-11383293D02*
X7226015Y-11335674D01*
X7226015Y-11335674D02*
X7235539Y-11297579D01*
X7235539Y-11297579D02*
X7245063Y-11278531D01*
X7245063Y-11278531D02*
X7254586Y-11269008D01*
X7254586Y-11269008D02*
X7273634Y-11259484D01*
X7426015Y-11440436D02*
X7435539Y-11449960D01*
X7435539Y-11449960D02*
X7426015Y-11459484D01*
X7426015Y-11459484D02*
X7416491Y-11449960D01*
X7416491Y-11449960D02*
X7426015Y-11440436D01*
X7426015Y-11440436D02*
X7426015Y-11459484D01*
X7559348Y-11259484D02*
X7578396Y-11259484D01*
X7578396Y-11259484D02*
X7597444Y-11269008D01*
X7597444Y-11269008D02*
X7606967Y-11278531D01*
X7606967Y-11278531D02*
X7616491Y-11297579D01*
X7616491Y-11297579D02*
X7626015Y-11335674D01*
X7626015Y-11335674D02*
X7626015Y-11383293D01*
X7626015Y-11383293D02*
X7616491Y-11421388D01*
X7616491Y-11421388D02*
X7606967Y-11440436D01*
X7606967Y-11440436D02*
X7597444Y-11449960D01*
X7597444Y-11449960D02*
X7578396Y-11459484D01*
X7578396Y-11459484D02*
X7559348Y-11459484D01*
X7559348Y-11459484D02*
X7540301Y-11449960D01*
X7540301Y-11449960D02*
X7530777Y-11440436D01*
X7530777Y-11440436D02*
X7521253Y-11421388D01*
X7521253Y-11421388D02*
X7511729Y-11383293D01*
X7511729Y-11383293D02*
X7511729Y-11335674D01*
X7511729Y-11335674D02*
X7521253Y-11297579D01*
X7521253Y-11297579D02*
X7530777Y-11278531D01*
X7530777Y-11278531D02*
X7540301Y-11269008D01*
X7540301Y-11269008D02*
X7559348Y-11259484D01*
X7797444Y-11326150D02*
X7797444Y-11459484D01*
X7749825Y-11249960D02*
X7702206Y-11392817D01*
X7702206Y-11392817D02*
X7826015Y-11392817D01*
X7883158Y-11259484D02*
X8016491Y-11259484D01*
X8016491Y-11259484D02*
X7930777Y-11459484D01*
X8083158Y-11278531D02*
X8092682Y-11269008D01*
X8092682Y-11269008D02*
X8111729Y-11259484D01*
X8111729Y-11259484D02*
X8159348Y-11259484D01*
X8159348Y-11259484D02*
X8178396Y-11269008D01*
X8178396Y-11269008D02*
X8187920Y-11278531D01*
X8187920Y-11278531D02*
X8197444Y-11297579D01*
X8197444Y-11297579D02*
X8197444Y-11316627D01*
X8197444Y-11316627D02*
X8187920Y-11345198D01*
X8187920Y-11345198D02*
X8073634Y-11459484D01*
X8073634Y-11459484D02*
X8197444Y-11459484D01*
X8273634Y-11259484D02*
X8273634Y-11297579D01*
X8349825Y-11259484D02*
X8349825Y-11297579D01*
X8645063Y-11535674D02*
X8635539Y-11526150D01*
X8635539Y-11526150D02*
X8616491Y-11497579D01*
X8616491Y-11497579D02*
X8606968Y-11478531D01*
X8606968Y-11478531D02*
X8597444Y-11449960D01*
X8597444Y-11449960D02*
X8587920Y-11402341D01*
X8587920Y-11402341D02*
X8587920Y-11364246D01*
X8587920Y-11364246D02*
X8597444Y-11316627D01*
X8597444Y-11316627D02*
X8606968Y-11288055D01*
X8606968Y-11288055D02*
X8616491Y-11269008D01*
X8616491Y-11269008D02*
X8635539Y-11240436D01*
X8635539Y-11240436D02*
X8645063Y-11230912D01*
X8711730Y-11278531D02*
X8721253Y-11269008D01*
X8721253Y-11269008D02*
X8740301Y-11259484D01*
X8740301Y-11259484D02*
X8787920Y-11259484D01*
X8787920Y-11259484D02*
X8806968Y-11269008D01*
X8806968Y-11269008D02*
X8816491Y-11278531D01*
X8816491Y-11278531D02*
X8826015Y-11297579D01*
X8826015Y-11297579D02*
X8826015Y-11316627D01*
X8826015Y-11316627D02*
X8816491Y-11345198D01*
X8816491Y-11345198D02*
X8702206Y-11459484D01*
X8702206Y-11459484D02*
X8826015Y-11459484D01*
X9064111Y-11459484D02*
X9064111Y-11259484D01*
X9149825Y-11459484D02*
X9149825Y-11354722D01*
X9149825Y-11354722D02*
X9140301Y-11335674D01*
X9140301Y-11335674D02*
X9121253Y-11326150D01*
X9121253Y-11326150D02*
X9092682Y-11326150D01*
X9092682Y-11326150D02*
X9073634Y-11335674D01*
X9073634Y-11335674D02*
X9064111Y-11345198D01*
X9273634Y-11459484D02*
X9254587Y-11449960D01*
X9254587Y-11449960D02*
X9245063Y-11440436D01*
X9245063Y-11440436D02*
X9235539Y-11421388D01*
X9235539Y-11421388D02*
X9235539Y-11364246D01*
X9235539Y-11364246D02*
X9245063Y-11345198D01*
X9245063Y-11345198D02*
X9254587Y-11335674D01*
X9254587Y-11335674D02*
X9273634Y-11326150D01*
X9273634Y-11326150D02*
X9302206Y-11326150D01*
X9302206Y-11326150D02*
X9321253Y-11335674D01*
X9321253Y-11335674D02*
X9330777Y-11345198D01*
X9330777Y-11345198D02*
X9340301Y-11364246D01*
X9340301Y-11364246D02*
X9340301Y-11421388D01*
X9340301Y-11421388D02*
X9330777Y-11440436D01*
X9330777Y-11440436D02*
X9321253Y-11449960D01*
X9321253Y-11449960D02*
X9302206Y-11459484D01*
X9302206Y-11459484D02*
X9273634Y-11459484D01*
X9454587Y-11459484D02*
X9435539Y-11449960D01*
X9435539Y-11449960D02*
X9426015Y-11430912D01*
X9426015Y-11430912D02*
X9426015Y-11259484D01*
X9606968Y-11449960D02*
X9587920Y-11459484D01*
X9587920Y-11459484D02*
X9549825Y-11459484D01*
X9549825Y-11459484D02*
X9530777Y-11449960D01*
X9530777Y-11449960D02*
X9521253Y-11430912D01*
X9521253Y-11430912D02*
X9521253Y-11354722D01*
X9521253Y-11354722D02*
X9530777Y-11335674D01*
X9530777Y-11335674D02*
X9549825Y-11326150D01*
X9549825Y-11326150D02*
X9587920Y-11326150D01*
X9587920Y-11326150D02*
X9606968Y-11335674D01*
X9606968Y-11335674D02*
X9616492Y-11354722D01*
X9616492Y-11354722D02*
X9616492Y-11373769D01*
X9616492Y-11373769D02*
X9521253Y-11392817D01*
X9692682Y-11449960D02*
X9711730Y-11459484D01*
X9711730Y-11459484D02*
X9749825Y-11459484D01*
X9749825Y-11459484D02*
X9768873Y-11449960D01*
X9768873Y-11449960D02*
X9778396Y-11430912D01*
X9778396Y-11430912D02*
X9778396Y-11421388D01*
X9778396Y-11421388D02*
X9768873Y-11402341D01*
X9768873Y-11402341D02*
X9749825Y-11392817D01*
X9749825Y-11392817D02*
X9721253Y-11392817D01*
X9721253Y-11392817D02*
X9702206Y-11383293D01*
X9702206Y-11383293D02*
X9692682Y-11364246D01*
X9692682Y-11364246D02*
X9692682Y-11354722D01*
X9692682Y-11354722D02*
X9702206Y-11335674D01*
X9702206Y-11335674D02*
X9721253Y-11326150D01*
X9721253Y-11326150D02*
X9749825Y-11326150D01*
X9749825Y-11326150D02*
X9768873Y-11335674D01*
X9845063Y-11535674D02*
X9854587Y-11526150D01*
X9854587Y-11526150D02*
X9873634Y-11497579D01*
X9873634Y-11497579D02*
X9883158Y-11478531D01*
X9883158Y-11478531D02*
X9892682Y-11449960D01*
X9892682Y-11449960D02*
X9902206Y-11402341D01*
X9902206Y-11402341D02*
X9902206Y-11364246D01*
X9902206Y-11364246D02*
X9892682Y-11316627D01*
X9892682Y-11316627D02*
X9883158Y-11288055D01*
X9883158Y-11288055D02*
X9873634Y-11269008D01*
X9873634Y-11269008D02*
X9854587Y-11240436D01*
X9854587Y-11240436D02*
X9845063Y-11230912D01*
D14*
X4940000Y-11567000D02*
X5070000Y-11697000D01*
X5070000Y-11567000D02*
X4940000Y-11697000D01*
X5005000Y-11567000D02*
X5005000Y-11697000D01*
X4940000Y-11632000D02*
X5070000Y-11632000D01*
D11*
X5435539Y-11723484D02*
X5321253Y-11723484D01*
X5378396Y-11723484D02*
X5378396Y-11523484D01*
X5378396Y-11523484D02*
X5359348Y-11552055D01*
X5359348Y-11552055D02*
X5340301Y-11571103D01*
X5340301Y-11571103D02*
X5321253Y-11580627D01*
X5521253Y-11704436D02*
X5530777Y-11713960D01*
X5530777Y-11713960D02*
X5521253Y-11723484D01*
X5521253Y-11723484D02*
X5511729Y-11713960D01*
X5511729Y-11713960D02*
X5521253Y-11704436D01*
X5521253Y-11704436D02*
X5521253Y-11723484D01*
X5597443Y-11523484D02*
X5721253Y-11523484D01*
X5721253Y-11523484D02*
X5654586Y-11599674D01*
X5654586Y-11599674D02*
X5683158Y-11599674D01*
X5683158Y-11599674D02*
X5702205Y-11609198D01*
X5702205Y-11609198D02*
X5711729Y-11618722D01*
X5711729Y-11618722D02*
X5721253Y-11637769D01*
X5721253Y-11637769D02*
X5721253Y-11685388D01*
X5721253Y-11685388D02*
X5711729Y-11704436D01*
X5711729Y-11704436D02*
X5702205Y-11713960D01*
X5702205Y-11713960D02*
X5683158Y-11723484D01*
X5683158Y-11723484D02*
X5626015Y-11723484D01*
X5626015Y-11723484D02*
X5606967Y-11713960D01*
X5606967Y-11713960D02*
X5597443Y-11704436D01*
X5845062Y-11523484D02*
X5864110Y-11523484D01*
X5864110Y-11523484D02*
X5883158Y-11533008D01*
X5883158Y-11533008D02*
X5892682Y-11542531D01*
X5892682Y-11542531D02*
X5902205Y-11561579D01*
X5902205Y-11561579D02*
X5911729Y-11599674D01*
X5911729Y-11599674D02*
X5911729Y-11647293D01*
X5911729Y-11647293D02*
X5902205Y-11685388D01*
X5902205Y-11685388D02*
X5892682Y-11704436D01*
X5892682Y-11704436D02*
X5883158Y-11713960D01*
X5883158Y-11713960D02*
X5864110Y-11723484D01*
X5864110Y-11723484D02*
X5845062Y-11723484D01*
X5845062Y-11723484D02*
X5826015Y-11713960D01*
X5826015Y-11713960D02*
X5816491Y-11704436D01*
X5816491Y-11704436D02*
X5806967Y-11685388D01*
X5806967Y-11685388D02*
X5797443Y-11647293D01*
X5797443Y-11647293D02*
X5797443Y-11599674D01*
X5797443Y-11599674D02*
X5806967Y-11561579D01*
X5806967Y-11561579D02*
X5816491Y-11542531D01*
X5816491Y-11542531D02*
X5826015Y-11533008D01*
X5826015Y-11533008D02*
X5845062Y-11523484D01*
X6035539Y-11523484D02*
X6054586Y-11523484D01*
X6054586Y-11523484D02*
X6073634Y-11533008D01*
X6073634Y-11533008D02*
X6083158Y-11542531D01*
X6083158Y-11542531D02*
X6092682Y-11561579D01*
X6092682Y-11561579D02*
X6102205Y-11599674D01*
X6102205Y-11599674D02*
X6102205Y-11647293D01*
X6102205Y-11647293D02*
X6092682Y-11685388D01*
X6092682Y-11685388D02*
X6083158Y-11704436D01*
X6083158Y-11704436D02*
X6073634Y-11713960D01*
X6073634Y-11713960D02*
X6054586Y-11723484D01*
X6054586Y-11723484D02*
X6035539Y-11723484D01*
X6035539Y-11723484D02*
X6016491Y-11713960D01*
X6016491Y-11713960D02*
X6006967Y-11704436D01*
X6006967Y-11704436D02*
X5997443Y-11685388D01*
X5997443Y-11685388D02*
X5987920Y-11647293D01*
X5987920Y-11647293D02*
X5987920Y-11599674D01*
X5987920Y-11599674D02*
X5997443Y-11561579D01*
X5997443Y-11561579D02*
X6006967Y-11542531D01*
X6006967Y-11542531D02*
X6016491Y-11533008D01*
X6016491Y-11533008D02*
X6035539Y-11523484D01*
X6187920Y-11723484D02*
X6187920Y-11590150D01*
X6187920Y-11609198D02*
X6197443Y-11599674D01*
X6197443Y-11599674D02*
X6216491Y-11590150D01*
X6216491Y-11590150D02*
X6245063Y-11590150D01*
X6245063Y-11590150D02*
X6264110Y-11599674D01*
X6264110Y-11599674D02*
X6273634Y-11618722D01*
X6273634Y-11618722D02*
X6273634Y-11723484D01*
X6273634Y-11618722D02*
X6283158Y-11599674D01*
X6283158Y-11599674D02*
X6302205Y-11590150D01*
X6302205Y-11590150D02*
X6330777Y-11590150D01*
X6330777Y-11590150D02*
X6349824Y-11599674D01*
X6349824Y-11599674D02*
X6359348Y-11618722D01*
X6359348Y-11618722D02*
X6359348Y-11723484D01*
X6454586Y-11723484D02*
X6454586Y-11590150D01*
X6454586Y-11609198D02*
X6464110Y-11599674D01*
X6464110Y-11599674D02*
X6483158Y-11590150D01*
X6483158Y-11590150D02*
X6511729Y-11590150D01*
X6511729Y-11590150D02*
X6530777Y-11599674D01*
X6530777Y-11599674D02*
X6540301Y-11618722D01*
X6540301Y-11618722D02*
X6540301Y-11723484D01*
X6540301Y-11618722D02*
X6549824Y-11599674D01*
X6549824Y-11599674D02*
X6568872Y-11590150D01*
X6568872Y-11590150D02*
X6597443Y-11590150D01*
X6597443Y-11590150D02*
X6616491Y-11599674D01*
X6616491Y-11599674D02*
X6626015Y-11618722D01*
X6626015Y-11618722D02*
X6626015Y-11723484D01*
X7016491Y-11513960D02*
X6845063Y-11771103D01*
X7273634Y-11523484D02*
X7292682Y-11523484D01*
X7292682Y-11523484D02*
X7311729Y-11533008D01*
X7311729Y-11533008D02*
X7321253Y-11542531D01*
X7321253Y-11542531D02*
X7330777Y-11561579D01*
X7330777Y-11561579D02*
X7340301Y-11599674D01*
X7340301Y-11599674D02*
X7340301Y-11647293D01*
X7340301Y-11647293D02*
X7330777Y-11685388D01*
X7330777Y-11685388D02*
X7321253Y-11704436D01*
X7321253Y-11704436D02*
X7311729Y-11713960D01*
X7311729Y-11713960D02*
X7292682Y-11723484D01*
X7292682Y-11723484D02*
X7273634Y-11723484D01*
X7273634Y-11723484D02*
X7254586Y-11713960D01*
X7254586Y-11713960D02*
X7245063Y-11704436D01*
X7245063Y-11704436D02*
X7235539Y-11685388D01*
X7235539Y-11685388D02*
X7226015Y-11647293D01*
X7226015Y-11647293D02*
X7226015Y-11599674D01*
X7226015Y-11599674D02*
X7235539Y-11561579D01*
X7235539Y-11561579D02*
X7245063Y-11542531D01*
X7245063Y-11542531D02*
X7254586Y-11533008D01*
X7254586Y-11533008D02*
X7273634Y-11523484D01*
X7426015Y-11704436D02*
X7435539Y-11713960D01*
X7435539Y-11713960D02*
X7426015Y-11723484D01*
X7426015Y-11723484D02*
X7416491Y-11713960D01*
X7416491Y-11713960D02*
X7426015Y-11704436D01*
X7426015Y-11704436D02*
X7426015Y-11723484D01*
X7559348Y-11523484D02*
X7578396Y-11523484D01*
X7578396Y-11523484D02*
X7597444Y-11533008D01*
X7597444Y-11533008D02*
X7606967Y-11542531D01*
X7606967Y-11542531D02*
X7616491Y-11561579D01*
X7616491Y-11561579D02*
X7626015Y-11599674D01*
X7626015Y-11599674D02*
X7626015Y-11647293D01*
X7626015Y-11647293D02*
X7616491Y-11685388D01*
X7616491Y-11685388D02*
X7606967Y-11704436D01*
X7606967Y-11704436D02*
X7597444Y-11713960D01*
X7597444Y-11713960D02*
X7578396Y-11723484D01*
X7578396Y-11723484D02*
X7559348Y-11723484D01*
X7559348Y-11723484D02*
X7540301Y-11713960D01*
X7540301Y-11713960D02*
X7530777Y-11704436D01*
X7530777Y-11704436D02*
X7521253Y-11685388D01*
X7521253Y-11685388D02*
X7511729Y-11647293D01*
X7511729Y-11647293D02*
X7511729Y-11599674D01*
X7511729Y-11599674D02*
X7521253Y-11561579D01*
X7521253Y-11561579D02*
X7530777Y-11542531D01*
X7530777Y-11542531D02*
X7540301Y-11533008D01*
X7540301Y-11533008D02*
X7559348Y-11523484D01*
X7806967Y-11523484D02*
X7711729Y-11523484D01*
X7711729Y-11523484D02*
X7702206Y-11618722D01*
X7702206Y-11618722D02*
X7711729Y-11609198D01*
X7711729Y-11609198D02*
X7730777Y-11599674D01*
X7730777Y-11599674D02*
X7778396Y-11599674D01*
X7778396Y-11599674D02*
X7797444Y-11609198D01*
X7797444Y-11609198D02*
X7806967Y-11618722D01*
X7806967Y-11618722D02*
X7816491Y-11637769D01*
X7816491Y-11637769D02*
X7816491Y-11685388D01*
X7816491Y-11685388D02*
X7806967Y-11704436D01*
X7806967Y-11704436D02*
X7797444Y-11713960D01*
X7797444Y-11713960D02*
X7778396Y-11723484D01*
X7778396Y-11723484D02*
X7730777Y-11723484D01*
X7730777Y-11723484D02*
X7711729Y-11713960D01*
X7711729Y-11713960D02*
X7702206Y-11704436D01*
X8006967Y-11723484D02*
X7892682Y-11723484D01*
X7949825Y-11723484D02*
X7949825Y-11523484D01*
X7949825Y-11523484D02*
X7930777Y-11552055D01*
X7930777Y-11552055D02*
X7911729Y-11571103D01*
X7911729Y-11571103D02*
X7892682Y-11580627D01*
X8083158Y-11542531D02*
X8092682Y-11533008D01*
X8092682Y-11533008D02*
X8111729Y-11523484D01*
X8111729Y-11523484D02*
X8159348Y-11523484D01*
X8159348Y-11523484D02*
X8178396Y-11533008D01*
X8178396Y-11533008D02*
X8187920Y-11542531D01*
X8187920Y-11542531D02*
X8197444Y-11561579D01*
X8197444Y-11561579D02*
X8197444Y-11580627D01*
X8197444Y-11580627D02*
X8187920Y-11609198D01*
X8187920Y-11609198D02*
X8073634Y-11723484D01*
X8073634Y-11723484D02*
X8197444Y-11723484D01*
X8273634Y-11523484D02*
X8273634Y-11561579D01*
X8349825Y-11523484D02*
X8349825Y-11561579D01*
X8645063Y-11799674D02*
X8635539Y-11790150D01*
X8635539Y-11790150D02*
X8616491Y-11761579D01*
X8616491Y-11761579D02*
X8606968Y-11742531D01*
X8606968Y-11742531D02*
X8597444Y-11713960D01*
X8597444Y-11713960D02*
X8587920Y-11666341D01*
X8587920Y-11666341D02*
X8587920Y-11628246D01*
X8587920Y-11628246D02*
X8597444Y-11580627D01*
X8597444Y-11580627D02*
X8606968Y-11552055D01*
X8606968Y-11552055D02*
X8616491Y-11533008D01*
X8616491Y-11533008D02*
X8635539Y-11504436D01*
X8635539Y-11504436D02*
X8645063Y-11494912D01*
X8806968Y-11523484D02*
X8768872Y-11523484D01*
X8768872Y-11523484D02*
X8749825Y-11533008D01*
X8749825Y-11533008D02*
X8740301Y-11542531D01*
X8740301Y-11542531D02*
X8721253Y-11571103D01*
X8721253Y-11571103D02*
X8711730Y-11609198D01*
X8711730Y-11609198D02*
X8711730Y-11685388D01*
X8711730Y-11685388D02*
X8721253Y-11704436D01*
X8721253Y-11704436D02*
X8730777Y-11713960D01*
X8730777Y-11713960D02*
X8749825Y-11723484D01*
X8749825Y-11723484D02*
X8787920Y-11723484D01*
X8787920Y-11723484D02*
X8806968Y-11713960D01*
X8806968Y-11713960D02*
X8816491Y-11704436D01*
X8816491Y-11704436D02*
X8826015Y-11685388D01*
X8826015Y-11685388D02*
X8826015Y-11637769D01*
X8826015Y-11637769D02*
X8816491Y-11618722D01*
X8816491Y-11618722D02*
X8806968Y-11609198D01*
X8806968Y-11609198D02*
X8787920Y-11599674D01*
X8787920Y-11599674D02*
X8749825Y-11599674D01*
X8749825Y-11599674D02*
X8730777Y-11609198D01*
X8730777Y-11609198D02*
X8721253Y-11618722D01*
X8721253Y-11618722D02*
X8711730Y-11637769D01*
X9064111Y-11723484D02*
X9064111Y-11523484D01*
X9149825Y-11723484D02*
X9149825Y-11618722D01*
X9149825Y-11618722D02*
X9140301Y-11599674D01*
X9140301Y-11599674D02*
X9121253Y-11590150D01*
X9121253Y-11590150D02*
X9092682Y-11590150D01*
X9092682Y-11590150D02*
X9073634Y-11599674D01*
X9073634Y-11599674D02*
X9064111Y-11609198D01*
X9273634Y-11723484D02*
X9254587Y-11713960D01*
X9254587Y-11713960D02*
X9245063Y-11704436D01*
X9245063Y-11704436D02*
X9235539Y-11685388D01*
X9235539Y-11685388D02*
X9235539Y-11628246D01*
X9235539Y-11628246D02*
X9245063Y-11609198D01*
X9245063Y-11609198D02*
X9254587Y-11599674D01*
X9254587Y-11599674D02*
X9273634Y-11590150D01*
X9273634Y-11590150D02*
X9302206Y-11590150D01*
X9302206Y-11590150D02*
X9321253Y-11599674D01*
X9321253Y-11599674D02*
X9330777Y-11609198D01*
X9330777Y-11609198D02*
X9340301Y-11628246D01*
X9340301Y-11628246D02*
X9340301Y-11685388D01*
X9340301Y-11685388D02*
X9330777Y-11704436D01*
X9330777Y-11704436D02*
X9321253Y-11713960D01*
X9321253Y-11713960D02*
X9302206Y-11723484D01*
X9302206Y-11723484D02*
X9273634Y-11723484D01*
X9454587Y-11723484D02*
X9435539Y-11713960D01*
X9435539Y-11713960D02*
X9426015Y-11694912D01*
X9426015Y-11694912D02*
X9426015Y-11523484D01*
X9606968Y-11713960D02*
X9587920Y-11723484D01*
X9587920Y-11723484D02*
X9549825Y-11723484D01*
X9549825Y-11723484D02*
X9530777Y-11713960D01*
X9530777Y-11713960D02*
X9521253Y-11694912D01*
X9521253Y-11694912D02*
X9521253Y-11618722D01*
X9521253Y-11618722D02*
X9530777Y-11599674D01*
X9530777Y-11599674D02*
X9549825Y-11590150D01*
X9549825Y-11590150D02*
X9587920Y-11590150D01*
X9587920Y-11590150D02*
X9606968Y-11599674D01*
X9606968Y-11599674D02*
X9616492Y-11618722D01*
X9616492Y-11618722D02*
X9616492Y-11637769D01*
X9616492Y-11637769D02*
X9521253Y-11656817D01*
X9692682Y-11713960D02*
X9711730Y-11723484D01*
X9711730Y-11723484D02*
X9749825Y-11723484D01*
X9749825Y-11723484D02*
X9768873Y-11713960D01*
X9768873Y-11713960D02*
X9778396Y-11694912D01*
X9778396Y-11694912D02*
X9778396Y-11685388D01*
X9778396Y-11685388D02*
X9768873Y-11666341D01*
X9768873Y-11666341D02*
X9749825Y-11656817D01*
X9749825Y-11656817D02*
X9721253Y-11656817D01*
X9721253Y-11656817D02*
X9702206Y-11647293D01*
X9702206Y-11647293D02*
X9692682Y-11628246D01*
X9692682Y-11628246D02*
X9692682Y-11618722D01*
X9692682Y-11618722D02*
X9702206Y-11599674D01*
X9702206Y-11599674D02*
X9721253Y-11590150D01*
X9721253Y-11590150D02*
X9749825Y-11590150D01*
X9749825Y-11590150D02*
X9768873Y-11599674D01*
X9845063Y-11799674D02*
X9854587Y-11790150D01*
X9854587Y-11790150D02*
X9873634Y-11761579D01*
X9873634Y-11761579D02*
X9883158Y-11742531D01*
X9883158Y-11742531D02*
X9892682Y-11713960D01*
X9892682Y-11713960D02*
X9902206Y-11666341D01*
X9902206Y-11666341D02*
X9902206Y-11628246D01*
X9902206Y-11628246D02*
X9892682Y-11580627D01*
X9892682Y-11580627D02*
X9883158Y-11552055D01*
X9883158Y-11552055D02*
X9873634Y-11533008D01*
X9873634Y-11533008D02*
X9854587Y-11504436D01*
X9854587Y-11504436D02*
X9845063Y-11494912D01*
D15*
X4918000Y-11820000D02*
X5070000Y-11972000D01*
X5070000Y-11820000D02*
X4918000Y-11972000D01*
X5047741Y-11949741D02*
X5047741Y-11842259D01*
X4940259Y-11842259D01*
X4940259Y-11949741D01*
X5047741Y-11949741D01*
D11*
X5435539Y-11987484D02*
X5321253Y-11987484D01*
X5378396Y-11987484D02*
X5378396Y-11787484D01*
X5378396Y-11787484D02*
X5359348Y-11816055D01*
X5359348Y-11816055D02*
X5340301Y-11835103D01*
X5340301Y-11835103D02*
X5321253Y-11844627D01*
X5521253Y-11968436D02*
X5530777Y-11977960D01*
X5530777Y-11977960D02*
X5521253Y-11987484D01*
X5521253Y-11987484D02*
X5511729Y-11977960D01*
X5511729Y-11977960D02*
X5521253Y-11968436D01*
X5521253Y-11968436D02*
X5521253Y-11987484D01*
X5711729Y-11787484D02*
X5616491Y-11787484D01*
X5616491Y-11787484D02*
X5606967Y-11882722D01*
X5606967Y-11882722D02*
X5616491Y-11873198D01*
X5616491Y-11873198D02*
X5635539Y-11863674D01*
X5635539Y-11863674D02*
X5683158Y-11863674D01*
X5683158Y-11863674D02*
X5702205Y-11873198D01*
X5702205Y-11873198D02*
X5711729Y-11882722D01*
X5711729Y-11882722D02*
X5721253Y-11901769D01*
X5721253Y-11901769D02*
X5721253Y-11949388D01*
X5721253Y-11949388D02*
X5711729Y-11968436D01*
X5711729Y-11968436D02*
X5702205Y-11977960D01*
X5702205Y-11977960D02*
X5683158Y-11987484D01*
X5683158Y-11987484D02*
X5635539Y-11987484D01*
X5635539Y-11987484D02*
X5616491Y-11977960D01*
X5616491Y-11977960D02*
X5606967Y-11968436D01*
X5797443Y-11806531D02*
X5806967Y-11797008D01*
X5806967Y-11797008D02*
X5826015Y-11787484D01*
X5826015Y-11787484D02*
X5873634Y-11787484D01*
X5873634Y-11787484D02*
X5892682Y-11797008D01*
X5892682Y-11797008D02*
X5902205Y-11806531D01*
X5902205Y-11806531D02*
X5911729Y-11825579D01*
X5911729Y-11825579D02*
X5911729Y-11844627D01*
X5911729Y-11844627D02*
X5902205Y-11873198D01*
X5902205Y-11873198D02*
X5787920Y-11987484D01*
X5787920Y-11987484D02*
X5911729Y-11987484D01*
X6035539Y-11787484D02*
X6054586Y-11787484D01*
X6054586Y-11787484D02*
X6073634Y-11797008D01*
X6073634Y-11797008D02*
X6083158Y-11806531D01*
X6083158Y-11806531D02*
X6092682Y-11825579D01*
X6092682Y-11825579D02*
X6102205Y-11863674D01*
X6102205Y-11863674D02*
X6102205Y-11911293D01*
X6102205Y-11911293D02*
X6092682Y-11949388D01*
X6092682Y-11949388D02*
X6083158Y-11968436D01*
X6083158Y-11968436D02*
X6073634Y-11977960D01*
X6073634Y-11977960D02*
X6054586Y-11987484D01*
X6054586Y-11987484D02*
X6035539Y-11987484D01*
X6035539Y-11987484D02*
X6016491Y-11977960D01*
X6016491Y-11977960D02*
X6006967Y-11968436D01*
X6006967Y-11968436D02*
X5997443Y-11949388D01*
X5997443Y-11949388D02*
X5987920Y-11911293D01*
X5987920Y-11911293D02*
X5987920Y-11863674D01*
X5987920Y-11863674D02*
X5997443Y-11825579D01*
X5997443Y-11825579D02*
X6006967Y-11806531D01*
X6006967Y-11806531D02*
X6016491Y-11797008D01*
X6016491Y-11797008D02*
X6035539Y-11787484D01*
X6187920Y-11987484D02*
X6187920Y-11854150D01*
X6187920Y-11873198D02*
X6197443Y-11863674D01*
X6197443Y-11863674D02*
X6216491Y-11854150D01*
X6216491Y-11854150D02*
X6245063Y-11854150D01*
X6245063Y-11854150D02*
X6264110Y-11863674D01*
X6264110Y-11863674D02*
X6273634Y-11882722D01*
X6273634Y-11882722D02*
X6273634Y-11987484D01*
X6273634Y-11882722D02*
X6283158Y-11863674D01*
X6283158Y-11863674D02*
X6302205Y-11854150D01*
X6302205Y-11854150D02*
X6330777Y-11854150D01*
X6330777Y-11854150D02*
X6349824Y-11863674D01*
X6349824Y-11863674D02*
X6359348Y-11882722D01*
X6359348Y-11882722D02*
X6359348Y-11987484D01*
X6454586Y-11987484D02*
X6454586Y-11854150D01*
X6454586Y-11873198D02*
X6464110Y-11863674D01*
X6464110Y-11863674D02*
X6483158Y-11854150D01*
X6483158Y-11854150D02*
X6511729Y-11854150D01*
X6511729Y-11854150D02*
X6530777Y-11863674D01*
X6530777Y-11863674D02*
X6540301Y-11882722D01*
X6540301Y-11882722D02*
X6540301Y-11987484D01*
X6540301Y-11882722D02*
X6549824Y-11863674D01*
X6549824Y-11863674D02*
X6568872Y-11854150D01*
X6568872Y-11854150D02*
X6597443Y-11854150D01*
X6597443Y-11854150D02*
X6616491Y-11863674D01*
X6616491Y-11863674D02*
X6626015Y-11882722D01*
X6626015Y-11882722D02*
X6626015Y-11987484D01*
X7016491Y-11777960D02*
X6845063Y-12035103D01*
X7273634Y-11787484D02*
X7292682Y-11787484D01*
X7292682Y-11787484D02*
X7311729Y-11797008D01*
X7311729Y-11797008D02*
X7321253Y-11806531D01*
X7321253Y-11806531D02*
X7330777Y-11825579D01*
X7330777Y-11825579D02*
X7340301Y-11863674D01*
X7340301Y-11863674D02*
X7340301Y-11911293D01*
X7340301Y-11911293D02*
X7330777Y-11949388D01*
X7330777Y-11949388D02*
X7321253Y-11968436D01*
X7321253Y-11968436D02*
X7311729Y-11977960D01*
X7311729Y-11977960D02*
X7292682Y-11987484D01*
X7292682Y-11987484D02*
X7273634Y-11987484D01*
X7273634Y-11987484D02*
X7254586Y-11977960D01*
X7254586Y-11977960D02*
X7245063Y-11968436D01*
X7245063Y-11968436D02*
X7235539Y-11949388D01*
X7235539Y-11949388D02*
X7226015Y-11911293D01*
X7226015Y-11911293D02*
X7226015Y-11863674D01*
X7226015Y-11863674D02*
X7235539Y-11825579D01*
X7235539Y-11825579D02*
X7245063Y-11806531D01*
X7245063Y-11806531D02*
X7254586Y-11797008D01*
X7254586Y-11797008D02*
X7273634Y-11787484D01*
X7426015Y-11968436D02*
X7435539Y-11977960D01*
X7435539Y-11977960D02*
X7426015Y-11987484D01*
X7426015Y-11987484D02*
X7416491Y-11977960D01*
X7416491Y-11977960D02*
X7426015Y-11968436D01*
X7426015Y-11968436D02*
X7426015Y-11987484D01*
X7559348Y-11787484D02*
X7578396Y-11787484D01*
X7578396Y-11787484D02*
X7597444Y-11797008D01*
X7597444Y-11797008D02*
X7606967Y-11806531D01*
X7606967Y-11806531D02*
X7616491Y-11825579D01*
X7616491Y-11825579D02*
X7626015Y-11863674D01*
X7626015Y-11863674D02*
X7626015Y-11911293D01*
X7626015Y-11911293D02*
X7616491Y-11949388D01*
X7616491Y-11949388D02*
X7606967Y-11968436D01*
X7606967Y-11968436D02*
X7597444Y-11977960D01*
X7597444Y-11977960D02*
X7578396Y-11987484D01*
X7578396Y-11987484D02*
X7559348Y-11987484D01*
X7559348Y-11987484D02*
X7540301Y-11977960D01*
X7540301Y-11977960D02*
X7530777Y-11968436D01*
X7530777Y-11968436D02*
X7521253Y-11949388D01*
X7521253Y-11949388D02*
X7511729Y-11911293D01*
X7511729Y-11911293D02*
X7511729Y-11863674D01*
X7511729Y-11863674D02*
X7521253Y-11825579D01*
X7521253Y-11825579D02*
X7530777Y-11806531D01*
X7530777Y-11806531D02*
X7540301Y-11797008D01*
X7540301Y-11797008D02*
X7559348Y-11787484D01*
X7806967Y-11787484D02*
X7711729Y-11787484D01*
X7711729Y-11787484D02*
X7702206Y-11882722D01*
X7702206Y-11882722D02*
X7711729Y-11873198D01*
X7711729Y-11873198D02*
X7730777Y-11863674D01*
X7730777Y-11863674D02*
X7778396Y-11863674D01*
X7778396Y-11863674D02*
X7797444Y-11873198D01*
X7797444Y-11873198D02*
X7806967Y-11882722D01*
X7806967Y-11882722D02*
X7816491Y-11901769D01*
X7816491Y-11901769D02*
X7816491Y-11949388D01*
X7816491Y-11949388D02*
X7806967Y-11968436D01*
X7806967Y-11968436D02*
X7797444Y-11977960D01*
X7797444Y-11977960D02*
X7778396Y-11987484D01*
X7778396Y-11987484D02*
X7730777Y-11987484D01*
X7730777Y-11987484D02*
X7711729Y-11977960D01*
X7711729Y-11977960D02*
X7702206Y-11968436D01*
X7911729Y-11987484D02*
X7949825Y-11987484D01*
X7949825Y-11987484D02*
X7968872Y-11977960D01*
X7968872Y-11977960D02*
X7978396Y-11968436D01*
X7978396Y-11968436D02*
X7997444Y-11939865D01*
X7997444Y-11939865D02*
X8006967Y-11901769D01*
X8006967Y-11901769D02*
X8006967Y-11825579D01*
X8006967Y-11825579D02*
X7997444Y-11806531D01*
X7997444Y-11806531D02*
X7987920Y-11797008D01*
X7987920Y-11797008D02*
X7968872Y-11787484D01*
X7968872Y-11787484D02*
X7930777Y-11787484D01*
X7930777Y-11787484D02*
X7911729Y-11797008D01*
X7911729Y-11797008D02*
X7902206Y-11806531D01*
X7902206Y-11806531D02*
X7892682Y-11825579D01*
X7892682Y-11825579D02*
X7892682Y-11873198D01*
X7892682Y-11873198D02*
X7902206Y-11892246D01*
X7902206Y-11892246D02*
X7911729Y-11901769D01*
X7911729Y-11901769D02*
X7930777Y-11911293D01*
X7930777Y-11911293D02*
X7968872Y-11911293D01*
X7968872Y-11911293D02*
X7987920Y-11901769D01*
X7987920Y-11901769D02*
X7997444Y-11892246D01*
X7997444Y-11892246D02*
X8006967Y-11873198D01*
X8121253Y-11873198D02*
X8102206Y-11863674D01*
X8102206Y-11863674D02*
X8092682Y-11854150D01*
X8092682Y-11854150D02*
X8083158Y-11835103D01*
X8083158Y-11835103D02*
X8083158Y-11825579D01*
X8083158Y-11825579D02*
X8092682Y-11806531D01*
X8092682Y-11806531D02*
X8102206Y-11797008D01*
X8102206Y-11797008D02*
X8121253Y-11787484D01*
X8121253Y-11787484D02*
X8159348Y-11787484D01*
X8159348Y-11787484D02*
X8178396Y-11797008D01*
X8178396Y-11797008D02*
X8187920Y-11806531D01*
X8187920Y-11806531D02*
X8197444Y-11825579D01*
X8197444Y-11825579D02*
X8197444Y-11835103D01*
X8197444Y-11835103D02*
X8187920Y-11854150D01*
X8187920Y-11854150D02*
X8178396Y-11863674D01*
X8178396Y-11863674D02*
X8159348Y-11873198D01*
X8159348Y-11873198D02*
X8121253Y-11873198D01*
X8121253Y-11873198D02*
X8102206Y-11882722D01*
X8102206Y-11882722D02*
X8092682Y-11892246D01*
X8092682Y-11892246D02*
X8083158Y-11911293D01*
X8083158Y-11911293D02*
X8083158Y-11949388D01*
X8083158Y-11949388D02*
X8092682Y-11968436D01*
X8092682Y-11968436D02*
X8102206Y-11977960D01*
X8102206Y-11977960D02*
X8121253Y-11987484D01*
X8121253Y-11987484D02*
X8159348Y-11987484D01*
X8159348Y-11987484D02*
X8178396Y-11977960D01*
X8178396Y-11977960D02*
X8187920Y-11968436D01*
X8187920Y-11968436D02*
X8197444Y-11949388D01*
X8197444Y-11949388D02*
X8197444Y-11911293D01*
X8197444Y-11911293D02*
X8187920Y-11892246D01*
X8187920Y-11892246D02*
X8178396Y-11882722D01*
X8178396Y-11882722D02*
X8159348Y-11873198D01*
X8273634Y-11787484D02*
X8273634Y-11825579D01*
X8349825Y-11787484D02*
X8349825Y-11825579D01*
X8645063Y-12063674D02*
X8635539Y-12054150D01*
X8635539Y-12054150D02*
X8616491Y-12025579D01*
X8616491Y-12025579D02*
X8606968Y-12006531D01*
X8606968Y-12006531D02*
X8597444Y-11977960D01*
X8597444Y-11977960D02*
X8587920Y-11930341D01*
X8587920Y-11930341D02*
X8587920Y-11892246D01*
X8587920Y-11892246D02*
X8597444Y-11844627D01*
X8597444Y-11844627D02*
X8606968Y-11816055D01*
X8606968Y-11816055D02*
X8616491Y-11797008D01*
X8616491Y-11797008D02*
X8635539Y-11768436D01*
X8635539Y-11768436D02*
X8645063Y-11758912D01*
X8749825Y-11873198D02*
X8730777Y-11863674D01*
X8730777Y-11863674D02*
X8721253Y-11854150D01*
X8721253Y-11854150D02*
X8711730Y-11835103D01*
X8711730Y-11835103D02*
X8711730Y-11825579D01*
X8711730Y-11825579D02*
X8721253Y-11806531D01*
X8721253Y-11806531D02*
X8730777Y-11797008D01*
X8730777Y-11797008D02*
X8749825Y-11787484D01*
X8749825Y-11787484D02*
X8787920Y-11787484D01*
X8787920Y-11787484D02*
X8806968Y-11797008D01*
X8806968Y-11797008D02*
X8816491Y-11806531D01*
X8816491Y-11806531D02*
X8826015Y-11825579D01*
X8826015Y-11825579D02*
X8826015Y-11835103D01*
X8826015Y-11835103D02*
X8816491Y-11854150D01*
X8816491Y-11854150D02*
X8806968Y-11863674D01*
X8806968Y-11863674D02*
X8787920Y-11873198D01*
X8787920Y-11873198D02*
X8749825Y-11873198D01*
X8749825Y-11873198D02*
X8730777Y-11882722D01*
X8730777Y-11882722D02*
X8721253Y-11892246D01*
X8721253Y-11892246D02*
X8711730Y-11911293D01*
X8711730Y-11911293D02*
X8711730Y-11949388D01*
X8711730Y-11949388D02*
X8721253Y-11968436D01*
X8721253Y-11968436D02*
X8730777Y-11977960D01*
X8730777Y-11977960D02*
X8749825Y-11987484D01*
X8749825Y-11987484D02*
X8787920Y-11987484D01*
X8787920Y-11987484D02*
X8806968Y-11977960D01*
X8806968Y-11977960D02*
X8816491Y-11968436D01*
X8816491Y-11968436D02*
X8826015Y-11949388D01*
X8826015Y-11949388D02*
X8826015Y-11911293D01*
X8826015Y-11911293D02*
X8816491Y-11892246D01*
X8816491Y-11892246D02*
X8806968Y-11882722D01*
X8806968Y-11882722D02*
X8787920Y-11873198D01*
X9064111Y-11987484D02*
X9064111Y-11787484D01*
X9149825Y-11987484D02*
X9149825Y-11882722D01*
X9149825Y-11882722D02*
X9140301Y-11863674D01*
X9140301Y-11863674D02*
X9121253Y-11854150D01*
X9121253Y-11854150D02*
X9092682Y-11854150D01*
X9092682Y-11854150D02*
X9073634Y-11863674D01*
X9073634Y-11863674D02*
X9064111Y-11873198D01*
X9273634Y-11987484D02*
X9254587Y-11977960D01*
X9254587Y-11977960D02*
X9245063Y-11968436D01*
X9245063Y-11968436D02*
X9235539Y-11949388D01*
X9235539Y-11949388D02*
X9235539Y-11892246D01*
X9235539Y-11892246D02*
X9245063Y-11873198D01*
X9245063Y-11873198D02*
X9254587Y-11863674D01*
X9254587Y-11863674D02*
X9273634Y-11854150D01*
X9273634Y-11854150D02*
X9302206Y-11854150D01*
X9302206Y-11854150D02*
X9321253Y-11863674D01*
X9321253Y-11863674D02*
X9330777Y-11873198D01*
X9330777Y-11873198D02*
X9340301Y-11892246D01*
X9340301Y-11892246D02*
X9340301Y-11949388D01*
X9340301Y-11949388D02*
X9330777Y-11968436D01*
X9330777Y-11968436D02*
X9321253Y-11977960D01*
X9321253Y-11977960D02*
X9302206Y-11987484D01*
X9302206Y-11987484D02*
X9273634Y-11987484D01*
X9454587Y-11987484D02*
X9435539Y-11977960D01*
X9435539Y-11977960D02*
X9426015Y-11958912D01*
X9426015Y-11958912D02*
X9426015Y-11787484D01*
X9606968Y-11977960D02*
X9587920Y-11987484D01*
X9587920Y-11987484D02*
X9549825Y-11987484D01*
X9549825Y-11987484D02*
X9530777Y-11977960D01*
X9530777Y-11977960D02*
X9521253Y-11958912D01*
X9521253Y-11958912D02*
X9521253Y-11882722D01*
X9521253Y-11882722D02*
X9530777Y-11863674D01*
X9530777Y-11863674D02*
X9549825Y-11854150D01*
X9549825Y-11854150D02*
X9587920Y-11854150D01*
X9587920Y-11854150D02*
X9606968Y-11863674D01*
X9606968Y-11863674D02*
X9616492Y-11882722D01*
X9616492Y-11882722D02*
X9616492Y-11901769D01*
X9616492Y-11901769D02*
X9521253Y-11920817D01*
X9692682Y-11977960D02*
X9711730Y-11987484D01*
X9711730Y-11987484D02*
X9749825Y-11987484D01*
X9749825Y-11987484D02*
X9768873Y-11977960D01*
X9768873Y-11977960D02*
X9778396Y-11958912D01*
X9778396Y-11958912D02*
X9778396Y-11949388D01*
X9778396Y-11949388D02*
X9768873Y-11930341D01*
X9768873Y-11930341D02*
X9749825Y-11920817D01*
X9749825Y-11920817D02*
X9721253Y-11920817D01*
X9721253Y-11920817D02*
X9702206Y-11911293D01*
X9702206Y-11911293D02*
X9692682Y-11892246D01*
X9692682Y-11892246D02*
X9692682Y-11882722D01*
X9692682Y-11882722D02*
X9702206Y-11863674D01*
X9702206Y-11863674D02*
X9721253Y-11854150D01*
X9721253Y-11854150D02*
X9749825Y-11854150D01*
X9749825Y-11854150D02*
X9768873Y-11863674D01*
X9845063Y-12063674D02*
X9854587Y-12054150D01*
X9854587Y-12054150D02*
X9873634Y-12025579D01*
X9873634Y-12025579D02*
X9883158Y-12006531D01*
X9883158Y-12006531D02*
X9892682Y-11977960D01*
X9892682Y-11977960D02*
X9902206Y-11930341D01*
X9902206Y-11930341D02*
X9902206Y-11892246D01*
X9902206Y-11892246D02*
X9892682Y-11844627D01*
X9892682Y-11844627D02*
X9883158Y-11816055D01*
X9883158Y-11816055D02*
X9873634Y-11797008D01*
X9873634Y-11797008D02*
X9854587Y-11768436D01*
X9854587Y-11768436D02*
X9845063Y-11758912D01*
M02*
