M48
; DRILL file {KiCad 7.0.10} date Thu Feb  8 08:41:22 2024
; FORMAT={-:-/ absolute / metric / decimal}
; #@! TF.CreationDate,2024-02-08T08:41:22+01:00
; #@! TF.GenerationSoftware,Kicad,Pcbnew,7.0.10
; #@! TF.FileFunction,Plated,1,2,PTH
FMAT,2
METRIC
; #@! TA.AperFunction,Plated,PTH,ViaDrill
T1C0.400
; #@! TA.AperFunction,Plated,PTH,ComponentDrill
T2C0.600
; #@! TA.AperFunction,Plated,PTH,ComponentDrill
T3C0.800
; #@! TA.AperFunction,Plated,PTH,ComponentDrill
T4C1.000
; #@! TA.AperFunction,Plated,PTH,ComponentDrill
T5C1.100
; #@! TA.AperFunction,Plated,PTH,ComponentDrill
T6C1.200
; #@! TA.AperFunction,Plated,PTH,ComponentDrill
T7C1.300
; #@! TA.AperFunction,Plated,PTH,ComponentDrill
T8C1.520
%
G90
G05
T1
X91.44Y-55.88
X91.44Y-58.42
T2
X54.645Y-80.339
X55.845Y-75.339
X60.773Y-74.372
X65.773Y-75.572
T3
X63.5Y-33.02
X68.5Y-33.02
X77.415Y-74.765
X77.415Y-79.845
X77.545Y-55.781
X77.545Y-60.861
X79.955Y-77.305
X80.085Y-58.321
X85.09Y-33.02
X85.09Y-43.18
X85.09Y-45.72
X92.71Y-33.02
X92.71Y-43.18
X92.71Y-45.72
T4
X55.8Y-41.042
X55.88Y-30.48
X55.88Y-32.98
X61.0Y-70.442
X66.0Y-70.442
X71.2Y-41.042
X75.656Y-40.314
X75.656Y-42.854
X75.656Y-45.394
X79.366Y-40.314
X79.366Y-42.854
X79.366Y-45.394
X84.84Y-77.22
X84.84Y-89.22
X84.89Y-60.09
X84.89Y-72.09
X91.44Y-27.94
X91.44Y-50.8
X93.98Y-27.94
X93.98Y-50.8
X96.52Y-27.94
X96.52Y-50.8
X99.06Y-27.94
X99.06Y-50.8
X101.6Y-27.94
X101.6Y-50.8
X104.14Y-27.94
X104.14Y-50.8
X106.68Y-27.94
X106.68Y-50.8
X109.22Y-27.94
X109.22Y-50.8
T5
X77.519Y-63.346
X77.519Y-70.966
X77.905Y-82.269
X77.905Y-89.889
T6
X71.062Y-74.584
X71.062Y-89.824
T7
X82.89Y-83.17
X82.94Y-66.04
X97.04Y-89.22
X97.09Y-72.09
X97.09Y-77.17
X97.14Y-60.04
T8
X60.32Y-82.589
X65.4Y-82.589
X105.89Y-60.974
X105.89Y-66.054
X105.89Y-71.134
X105.977Y-77.957
X105.977Y-83.037
X105.977Y-88.117
M30
