G04 #@! TF.GenerationSoftware,KiCad,Pcbnew,7.0.10*
G04 #@! TF.CreationDate,2024-03-10T12:38:40+01:00*
G04 #@! TF.ProjectId,double_relay,646f7562-6c65-45f7-9265-6c61792e6b69,rev?*
G04 #@! TF.SameCoordinates,Original*
G04 #@! TF.FileFunction,Copper,L1,Top*
G04 #@! TF.FilePolarity,Positive*
%FSLAX46Y46*%
G04 Gerber Fmt 4.6, Leading zero omitted, Abs format (unit mm)*
G04 Created by KiCad (PCBNEW 7.0.10) date 2024-03-10 12:38:40*
%MOMM*%
%LPD*%
G01*
G04 APERTURE LIST*
G04 Aperture macros list*
%AMRoundRect*
0 Rectangle with rounded corners*
0 $1 Rounding radius*
0 $2 $3 $4 $5 $6 $7 $8 $9 X,Y pos of 4 corners*
0 Add a 4 corners polygon primitive as box body*
4,1,4,$2,$3,$4,$5,$6,$7,$8,$9,$2,$3,0*
0 Add four circle primitives for the rounded corners*
1,1,$1+$1,$2,$3*
1,1,$1+$1,$4,$5*
1,1,$1+$1,$6,$7*
1,1,$1+$1,$8,$9*
0 Add four rect primitives between the rounded corners*
20,1,$1+$1,$2,$3,$4,$5,0*
20,1,$1+$1,$4,$5,$6,$7,0*
20,1,$1+$1,$6,$7,$8,$9,0*
20,1,$1+$1,$8,$9,$2,$3,0*%
G04 Aperture macros list end*
G04 #@! TA.AperFunction,ComponentPad*
%ADD10R,3.000000X3.000000*%
G04 #@! TD*
G04 #@! TA.AperFunction,ComponentPad*
%ADD11C,3.000000*%
G04 #@! TD*
G04 #@! TA.AperFunction,ComponentPad*
%ADD12R,2.200000X2.200000*%
G04 #@! TD*
G04 #@! TA.AperFunction,ComponentPad*
%ADD13O,2.200000X2.200000*%
G04 #@! TD*
G04 #@! TA.AperFunction,ComponentPad*
%ADD14R,1.500000X1.500000*%
G04 #@! TD*
G04 #@! TA.AperFunction,ComponentPad*
%ADD15C,1.500000*%
G04 #@! TD*
G04 #@! TA.AperFunction,ComponentPad*
%ADD16R,1.600000X1.600000*%
G04 #@! TD*
G04 #@! TA.AperFunction,ComponentPad*
%ADD17C,1.600000*%
G04 #@! TD*
G04 #@! TA.AperFunction,ComponentPad*
%ADD18C,2.000000*%
G04 #@! TD*
G04 #@! TA.AperFunction,ComponentPad*
%ADD19RoundRect,0.250000X-0.600000X-0.750000X0.600000X-0.750000X0.600000X0.750000X-0.600000X0.750000X0*%
G04 #@! TD*
G04 #@! TA.AperFunction,ComponentPad*
%ADD20O,1.700000X2.000000*%
G04 #@! TD*
G04 #@! TA.AperFunction,ComponentPad*
%ADD21O,1.600000X1.600000*%
G04 #@! TD*
G04 #@! TA.AperFunction,ComponentPad*
%ADD22C,2.500000*%
G04 #@! TD*
G04 #@! TA.AperFunction,ComponentPad*
%ADD23C,2.400000*%
G04 #@! TD*
G04 #@! TA.AperFunction,ComponentPad*
%ADD24O,2.400000X2.400000*%
G04 #@! TD*
G04 #@! TA.AperFunction,ComponentPad*
%ADD25R,2.000000X2.300000*%
G04 #@! TD*
G04 #@! TA.AperFunction,ComponentPad*
%ADD26C,2.300000*%
G04 #@! TD*
G04 #@! TA.AperFunction,ComponentPad*
%ADD27R,2.000000X2.000000*%
G04 #@! TD*
G04 #@! TA.AperFunction,ComponentPad*
%ADD28O,1.600000X2.000000*%
G04 #@! TD*
G04 #@! TA.AperFunction,Conductor*
%ADD29C,2.540000*%
G04 #@! TD*
G04 #@! TA.AperFunction,Conductor*
%ADD30C,3.000000*%
G04 #@! TD*
G04 #@! TA.AperFunction,Conductor*
%ADD31C,0.800000*%
G04 #@! TD*
G04 #@! TA.AperFunction,Conductor*
%ADD32C,0.508000*%
G04 #@! TD*
G04 APERTURE END LIST*
D10*
X66046649Y-76808031D03*
D11*
X71126649Y-76808031D03*
D12*
X111891164Y-56836220D03*
D13*
X119511164Y-56836220D03*
D10*
X114300000Y-86360000D03*
D11*
X119380000Y-86360000D03*
D14*
X124460000Y-53340000D03*
D15*
X127000000Y-55880000D03*
X124460000Y-58420000D03*
D16*
X79930232Y-44820125D03*
D17*
X82430232Y-44820125D03*
D18*
X58420000Y-73660000D03*
X59620000Y-68660000D03*
D19*
X81280000Y-33020000D03*
D20*
X83780000Y-33020000D03*
D17*
X99085131Y-53855310D03*
D21*
X91465131Y-53855310D03*
D18*
X63580000Y-67380000D03*
X68580000Y-68580000D03*
D19*
X81280000Y-38100000D03*
D20*
X83780000Y-38100000D03*
D11*
X95275131Y-63135310D03*
D22*
X89225131Y-65085310D03*
D11*
X89225131Y-77285310D03*
X101275131Y-77335310D03*
D22*
X101225131Y-65085310D03*
D11*
X119380000Y-62620000D03*
D22*
X113330000Y-64570000D03*
D11*
X113330000Y-76770000D03*
X125380000Y-76820000D03*
D22*
X125330000Y-64570000D03*
D12*
X91391342Y-57351530D03*
D13*
X99011342Y-57351530D03*
D17*
X119380000Y-53340000D03*
D21*
X111760000Y-53340000D03*
D17*
X107558163Y-31552827D03*
D21*
X107558163Y-39172827D03*
D17*
X110483645Y-31552827D03*
D21*
X110483645Y-39172827D03*
D23*
X78951901Y-51255515D03*
D24*
X78951901Y-66495515D03*
D14*
X104140000Y-53340000D03*
D15*
X106680000Y-55880000D03*
X104140000Y-58420000D03*
D17*
X104632681Y-31577410D03*
D21*
X104632681Y-39197410D03*
D19*
X81280000Y-27940000D03*
D20*
X83780000Y-27940000D03*
D25*
X63572845Y-62797865D03*
D26*
X68572845Y-62797865D03*
X58372845Y-33397865D03*
X73772845Y-33397865D03*
D27*
X118110000Y-27155000D03*
D28*
X115570000Y-27155000D03*
X113030000Y-27155000D03*
X110490000Y-27155000D03*
X107950000Y-27155000D03*
X105410000Y-27155000D03*
X102870000Y-27155000D03*
X100330000Y-27155000D03*
X100330000Y-50015000D03*
X102870000Y-50015000D03*
X105410000Y-50015000D03*
X107950000Y-50015000D03*
X110490000Y-50015000D03*
X113030000Y-50015000D03*
X115570000Y-50015000D03*
X118110000Y-50015000D03*
D10*
X90195131Y-86875310D03*
D11*
X95275131Y-86875310D03*
D29*
X79930232Y-44109860D02*
X81070046Y-42970046D01*
X79930232Y-44820125D02*
X79930232Y-44109860D01*
D30*
X113330000Y-76770000D02*
X113330000Y-85390000D01*
X113330000Y-85390000D02*
X114300000Y-86360000D01*
X78951901Y-52952571D02*
X69081972Y-62822500D01*
D29*
X69081972Y-62822500D02*
X68569913Y-62822500D01*
D30*
X68580000Y-68580000D02*
X68580000Y-62832587D01*
X78951901Y-51255515D02*
X78951901Y-52952571D01*
D29*
X68580000Y-62832587D02*
X68569913Y-62822500D01*
D31*
X104602744Y-31547473D02*
X104632681Y-31577410D01*
D32*
X105006792Y-31547473D02*
X105173526Y-31380739D01*
D31*
X104632681Y-31577410D02*
X87417410Y-31577410D01*
X105410000Y-30800091D02*
X104632681Y-31577410D01*
X105410000Y-27155000D02*
X105410000Y-30800091D01*
X87417410Y-31577410D02*
X83780000Y-27940000D01*
X111891164Y-56836220D02*
X111891164Y-63131164D01*
X89225131Y-59517741D02*
X91391342Y-57351530D01*
D29*
X82579506Y-48260000D02*
X83820000Y-48260000D01*
X79930232Y-44820125D02*
X79930232Y-45610726D01*
D31*
X111891164Y-63131164D02*
X113330000Y-64570000D01*
X89225131Y-65085310D02*
X89225131Y-59517741D01*
D29*
X73772845Y-33397865D02*
X73772845Y-38662738D01*
X79930232Y-45610726D02*
X82579506Y-48260000D01*
X73772845Y-38662738D02*
X79930232Y-44820125D01*
D31*
X110490000Y-27155000D02*
X110490000Y-31546472D01*
X110490000Y-31546472D02*
X110483645Y-31552827D01*
X87156585Y-34723415D02*
X107313057Y-34723415D01*
X107313057Y-34723415D02*
X110483645Y-31552827D01*
X83780000Y-38100000D02*
X87156585Y-34723415D01*
X113030000Y-52070000D02*
X111760000Y-53340000D01*
X113030000Y-50015000D02*
X113030000Y-52070000D01*
X93705441Y-51615000D02*
X91465131Y-53855310D01*
X110490000Y-50015000D02*
X108890000Y-51615000D01*
X108890000Y-51615000D02*
X93705441Y-51615000D01*
X99515000Y-26340000D02*
X82880000Y-26340000D01*
X82880000Y-26340000D02*
X81280000Y-27940000D01*
X81280000Y-27940000D02*
X81280000Y-33020000D01*
X81280000Y-33020000D02*
X81280000Y-38100000D01*
X100330000Y-27155000D02*
X99515000Y-26340000D01*
X107950000Y-27155000D02*
X107950000Y-31160990D01*
X107558163Y-31552827D02*
X106090990Y-33020000D01*
X106090990Y-33020000D02*
X83780000Y-33020000D01*
X107950000Y-31160990D02*
X107558163Y-31552827D01*
X125330000Y-59290000D02*
X124460000Y-58420000D01*
X125330000Y-64570000D02*
X125330000Y-59290000D01*
X119511164Y-56836220D02*
X121094944Y-58420000D01*
X121094944Y-58420000D02*
X124460000Y-58420000D01*
X121920000Y-55880000D02*
X127000000Y-55880000D01*
X119380000Y-53340000D02*
X121920000Y-55880000D01*
X101225131Y-58794869D02*
X101600000Y-58420000D01*
X101225131Y-65085310D02*
X101225131Y-58794869D01*
X100079812Y-58420000D02*
X99011342Y-57351530D01*
X101600000Y-58420000D02*
X100079812Y-58420000D01*
X104140000Y-58420000D02*
X101600000Y-58420000D01*
X99085131Y-53855310D02*
X101109821Y-55880000D01*
X101109821Y-55880000D02*
X106680000Y-55880000D01*
D30*
X89225131Y-77285310D02*
X89225131Y-85905310D01*
X89225131Y-85905310D02*
X90195131Y-86875310D01*
X78951901Y-66495515D02*
X78951901Y-68982779D01*
X78951901Y-68982779D02*
X71126649Y-76808031D01*
G04 #@! TA.AperFunction,Conductor*
G36*
X114367865Y-27898348D02*
G01*
X114412382Y-27949725D01*
X114439429Y-28007728D01*
X114439432Y-28007734D01*
X114569954Y-28194141D01*
X114730858Y-28355045D01*
X114777693Y-28387839D01*
X114917266Y-28485568D01*
X115123504Y-28581739D01*
X115343308Y-28640635D01*
X115505230Y-28654801D01*
X115569998Y-28660468D01*
X115570000Y-28660468D01*
X115570002Y-28660468D01*
X115626807Y-28655498D01*
X115796692Y-28640635D01*
X116016496Y-28581739D01*
X116222734Y-28485568D01*
X116409139Y-28355047D01*
X116448448Y-28315738D01*
X116509770Y-28282252D01*
X116579462Y-28287236D01*
X116635396Y-28329106D01*
X116652312Y-28360086D01*
X116666201Y-28397326D01*
X116666206Y-28397335D01*
X116752452Y-28512544D01*
X116752455Y-28512547D01*
X116867664Y-28598793D01*
X116867671Y-28598797D01*
X117002517Y-28649091D01*
X117002516Y-28649091D01*
X117009444Y-28649835D01*
X117062127Y-28655500D01*
X119157872Y-28655499D01*
X119217483Y-28649091D01*
X119217485Y-28649090D01*
X119217487Y-28649090D01*
X119225031Y-28647308D01*
X119225658Y-28649961D01*
X119282339Y-28645899D01*
X119343667Y-28679374D01*
X119377162Y-28740691D01*
X119380000Y-28767069D01*
X119380000Y-48968116D01*
X119360315Y-49035155D01*
X119307511Y-49080910D01*
X119238353Y-49090854D01*
X119174797Y-49061829D01*
X119154425Y-49039239D01*
X119110046Y-48975859D01*
X118949141Y-48814954D01*
X118762734Y-48684432D01*
X118762732Y-48684431D01*
X118556497Y-48588261D01*
X118556488Y-48588258D01*
X118336697Y-48529366D01*
X118336693Y-48529365D01*
X118336692Y-48529365D01*
X118336691Y-48529364D01*
X118336686Y-48529364D01*
X118110002Y-48509532D01*
X118109998Y-48509532D01*
X117883313Y-48529364D01*
X117883302Y-48529366D01*
X117663511Y-48588258D01*
X117663502Y-48588261D01*
X117457267Y-48684431D01*
X117457265Y-48684432D01*
X117270858Y-48814954D01*
X117109954Y-48975858D01*
X116979432Y-49162265D01*
X116979431Y-49162267D01*
X116952382Y-49220275D01*
X116906209Y-49272714D01*
X116839016Y-49291866D01*
X116772135Y-49271650D01*
X116727618Y-49220275D01*
X116700686Y-49162520D01*
X116700568Y-49162266D01*
X116570047Y-48975861D01*
X116570045Y-48975858D01*
X116409141Y-48814954D01*
X116222734Y-48684432D01*
X116222732Y-48684431D01*
X116016497Y-48588261D01*
X116016488Y-48588258D01*
X115796697Y-48529366D01*
X115796693Y-48529365D01*
X115796692Y-48529365D01*
X115796691Y-48529364D01*
X115796686Y-48529364D01*
X115570002Y-48509532D01*
X115569998Y-48509532D01*
X115343313Y-48529364D01*
X115343302Y-48529366D01*
X115123511Y-48588258D01*
X115123502Y-48588261D01*
X114917267Y-48684431D01*
X114917265Y-48684432D01*
X114730858Y-48814954D01*
X114569954Y-48975858D01*
X114439432Y-49162265D01*
X114439431Y-49162267D01*
X114412382Y-49220275D01*
X114366209Y-49272714D01*
X114299016Y-49291866D01*
X114232135Y-49271650D01*
X114187618Y-49220275D01*
X114160686Y-49162520D01*
X114160568Y-49162266D01*
X114030047Y-48975861D01*
X114030045Y-48975858D01*
X113869141Y-48814954D01*
X113682734Y-48684432D01*
X113682732Y-48684431D01*
X113476497Y-48588261D01*
X113476488Y-48588258D01*
X113256697Y-48529366D01*
X113256693Y-48529365D01*
X113256692Y-48529365D01*
X113256691Y-48529364D01*
X113256686Y-48529364D01*
X113030002Y-48509532D01*
X113029998Y-48509532D01*
X112803313Y-48529364D01*
X112803302Y-48529366D01*
X112583511Y-48588258D01*
X112583502Y-48588261D01*
X112377267Y-48684431D01*
X112377265Y-48684432D01*
X112190858Y-48814954D01*
X112029954Y-48975858D01*
X111899432Y-49162265D01*
X111899431Y-49162267D01*
X111872382Y-49220275D01*
X111826209Y-49272714D01*
X111759016Y-49291866D01*
X111692135Y-49271650D01*
X111647618Y-49220275D01*
X111620686Y-49162520D01*
X111620568Y-49162266D01*
X111490047Y-48975861D01*
X111490045Y-48975858D01*
X111329141Y-48814954D01*
X111142734Y-48684432D01*
X111142732Y-48684431D01*
X110936497Y-48588261D01*
X110936488Y-48588258D01*
X110716697Y-48529366D01*
X110716693Y-48529365D01*
X110716692Y-48529365D01*
X110716691Y-48529364D01*
X110716686Y-48529364D01*
X110490002Y-48509532D01*
X110489998Y-48509532D01*
X110263313Y-48529364D01*
X110263302Y-48529366D01*
X110043511Y-48588258D01*
X110043502Y-48588261D01*
X109837267Y-48684431D01*
X109837265Y-48684432D01*
X109650858Y-48814954D01*
X109489954Y-48975858D01*
X109359432Y-49162265D01*
X109359431Y-49162267D01*
X109332382Y-49220275D01*
X109286209Y-49272714D01*
X109219016Y-49291866D01*
X109152135Y-49271650D01*
X109107618Y-49220275D01*
X109080686Y-49162520D01*
X109080568Y-49162266D01*
X108950047Y-48975861D01*
X108950045Y-48975858D01*
X108789141Y-48814954D01*
X108602734Y-48684432D01*
X108602732Y-48684431D01*
X108396497Y-48588261D01*
X108396488Y-48588258D01*
X108176697Y-48529366D01*
X108176693Y-48529365D01*
X108176692Y-48529365D01*
X108176691Y-48529364D01*
X108176686Y-48529364D01*
X107950002Y-48509532D01*
X107949998Y-48509532D01*
X107723313Y-48529364D01*
X107723302Y-48529366D01*
X107503511Y-48588258D01*
X107503502Y-48588261D01*
X107297267Y-48684431D01*
X107297265Y-48684432D01*
X107110858Y-48814954D01*
X106949954Y-48975858D01*
X106819432Y-49162265D01*
X106819431Y-49162267D01*
X106792382Y-49220275D01*
X106746209Y-49272714D01*
X106679016Y-49291866D01*
X106612135Y-49271650D01*
X106567618Y-49220275D01*
X106540686Y-49162520D01*
X106540568Y-49162266D01*
X106410047Y-48975861D01*
X106410045Y-48975858D01*
X106249141Y-48814954D01*
X106062734Y-48684432D01*
X106062732Y-48684431D01*
X105856497Y-48588261D01*
X105856488Y-48588258D01*
X105636697Y-48529366D01*
X105636693Y-48529365D01*
X105636692Y-48529365D01*
X105636691Y-48529364D01*
X105636686Y-48529364D01*
X105410002Y-48509532D01*
X105409998Y-48509532D01*
X105183313Y-48529364D01*
X105183302Y-48529366D01*
X104963511Y-48588258D01*
X104963502Y-48588261D01*
X104757267Y-48684431D01*
X104757265Y-48684432D01*
X104570858Y-48814954D01*
X104409954Y-48975858D01*
X104279432Y-49162265D01*
X104279431Y-49162267D01*
X104252382Y-49220275D01*
X104206209Y-49272714D01*
X104139016Y-49291866D01*
X104072135Y-49271650D01*
X104027618Y-49220275D01*
X104000686Y-49162520D01*
X104000568Y-49162266D01*
X103870047Y-48975861D01*
X103870045Y-48975858D01*
X103709141Y-48814954D01*
X103522734Y-48684432D01*
X103522732Y-48684431D01*
X103316497Y-48588261D01*
X103316488Y-48588258D01*
X103096697Y-48529366D01*
X103096693Y-48529365D01*
X103096692Y-48529365D01*
X103096691Y-48529364D01*
X103096686Y-48529364D01*
X102870002Y-48509532D01*
X102869998Y-48509532D01*
X102643313Y-48529364D01*
X102643302Y-48529366D01*
X102423511Y-48588258D01*
X102423502Y-48588261D01*
X102217267Y-48684431D01*
X102217265Y-48684432D01*
X102030858Y-48814954D01*
X101869954Y-48975858D01*
X101739433Y-49162264D01*
X101739432Y-49162266D01*
X101739315Y-49162518D01*
X101712106Y-49220867D01*
X101665933Y-49273306D01*
X101598739Y-49292457D01*
X101531858Y-49272241D01*
X101487342Y-49220865D01*
X101460135Y-49162520D01*
X101460134Y-49162518D01*
X101329657Y-48976179D01*
X101168820Y-48815342D01*
X100982482Y-48684865D01*
X100776328Y-48588734D01*
X100580000Y-48536127D01*
X100580000Y-49579498D01*
X100472315Y-49530320D01*
X100365763Y-49515000D01*
X100294237Y-49515000D01*
X100187685Y-49530320D01*
X100080000Y-49579498D01*
X100080000Y-48536127D01*
X99883671Y-48588734D01*
X99677517Y-48684865D01*
X99491179Y-48815342D01*
X99330342Y-48976179D01*
X99199865Y-49162517D01*
X99103734Y-49368673D01*
X99103730Y-49368682D01*
X99044860Y-49588389D01*
X99044858Y-49588400D01*
X99030000Y-49758233D01*
X99030000Y-49765000D01*
X99896314Y-49765000D01*
X99870507Y-49805156D01*
X99830000Y-49943111D01*
X99830000Y-50086889D01*
X99870507Y-50224844D01*
X99896314Y-50265000D01*
X99030000Y-50265000D01*
X99030000Y-50271766D01*
X99044858Y-50441599D01*
X99044860Y-50441609D01*
X99076156Y-50558407D01*
X99074493Y-50628256D01*
X99035331Y-50686119D01*
X98971102Y-50713623D01*
X98956381Y-50714500D01*
X93786068Y-50714500D01*
X93766669Y-50712973D01*
X93752829Y-50710781D01*
X93685105Y-50714330D01*
X93678616Y-50714500D01*
X93658249Y-50714500D01*
X93647156Y-50715665D01*
X93637993Y-50716628D01*
X93631532Y-50717136D01*
X93563799Y-50720686D01*
X93563794Y-50720687D01*
X93550244Y-50724317D01*
X93531132Y-50727859D01*
X93517190Y-50729325D01*
X93517177Y-50729327D01*
X93452683Y-50750283D01*
X93446474Y-50752122D01*
X93402417Y-50763928D01*
X93380956Y-50769679D01*
X93380955Y-50769679D01*
X93380953Y-50769680D01*
X93368461Y-50776045D01*
X93350494Y-50783487D01*
X93337155Y-50787821D01*
X93278437Y-50821722D01*
X93272736Y-50824817D01*
X93212291Y-50855617D01*
X93201392Y-50864442D01*
X93185372Y-50875452D01*
X93173228Y-50882464D01*
X93173224Y-50882467D01*
X93122836Y-50927836D01*
X93117907Y-50932046D01*
X93102062Y-50944878D01*
X93087644Y-50959296D01*
X93082938Y-50963761D01*
X93032554Y-51009127D01*
X93032546Y-51009136D01*
X93024313Y-51020468D01*
X93011679Y-51035260D01*
X91532076Y-52514863D01*
X91470753Y-52548348D01*
X91455203Y-52550710D01*
X91238443Y-52569674D01*
X91238433Y-52569676D01*
X91018642Y-52628568D01*
X91018633Y-52628571D01*
X90812398Y-52724741D01*
X90812396Y-52724742D01*
X90625989Y-52855264D01*
X90465085Y-53016168D01*
X90334563Y-53202575D01*
X90334562Y-53202577D01*
X90238392Y-53408812D01*
X90238389Y-53408821D01*
X90179497Y-53628612D01*
X90179495Y-53628623D01*
X90159663Y-53855308D01*
X90159663Y-53855311D01*
X90179495Y-54081996D01*
X90179497Y-54082007D01*
X90238389Y-54301798D01*
X90238392Y-54301807D01*
X90334562Y-54508042D01*
X90334563Y-54508044D01*
X90465085Y-54694451D01*
X90625989Y-54855355D01*
X90625992Y-54855357D01*
X90812397Y-54985878D01*
X91018635Y-55082049D01*
X91238439Y-55140945D01*
X91400361Y-55155111D01*
X91465129Y-55160778D01*
X91465131Y-55160778D01*
X91465133Y-55160778D01*
X91521804Y-55155819D01*
X91691823Y-55140945D01*
X91911627Y-55082049D01*
X92117865Y-54985878D01*
X92304270Y-54855357D01*
X92465178Y-54694449D01*
X92595699Y-54508044D01*
X92691870Y-54301806D01*
X92750766Y-54082002D01*
X92769730Y-53865234D01*
X92795182Y-53800167D01*
X92805569Y-53788370D01*
X94042122Y-52551819D01*
X94103445Y-52518334D01*
X94129803Y-52515500D01*
X96396000Y-52515500D01*
X96463039Y-52535185D01*
X96508794Y-52587989D01*
X96520000Y-52639500D01*
X96520000Y-58296000D01*
X96500315Y-58363039D01*
X96447511Y-58408794D01*
X96396000Y-58420000D01*
X93115342Y-58420000D01*
X93048303Y-58400315D01*
X93002548Y-58347511D01*
X92991342Y-58296000D01*
X92991342Y-57601530D01*
X91886194Y-57601530D01*
X91934901Y-57464483D01*
X91945219Y-57313644D01*
X91914458Y-57165615D01*
X91881252Y-57101530D01*
X92991342Y-57101530D01*
X92991342Y-56203702D01*
X92991341Y-56203685D01*
X92984940Y-56144157D01*
X92984938Y-56144150D01*
X92934696Y-56009443D01*
X92934692Y-56009436D01*
X92848532Y-55894342D01*
X92848529Y-55894339D01*
X92733435Y-55808179D01*
X92733428Y-55808175D01*
X92598721Y-55757933D01*
X92598714Y-55757931D01*
X92539186Y-55751530D01*
X91641342Y-55751530D01*
X91641342Y-56859846D01*
X91612523Y-56842321D01*
X91466938Y-56801530D01*
X91353720Y-56801530D01*
X91241559Y-56816946D01*
X91141342Y-56860476D01*
X91141342Y-55751530D01*
X90243497Y-55751530D01*
X90183969Y-55757931D01*
X90183962Y-55757933D01*
X90049255Y-55808175D01*
X90049248Y-55808179D01*
X89934154Y-55894339D01*
X89934151Y-55894342D01*
X89847991Y-56009436D01*
X89847987Y-56009443D01*
X89797745Y-56144150D01*
X89797743Y-56144157D01*
X89791342Y-56203685D01*
X89791342Y-57101530D01*
X90896490Y-57101530D01*
X90847783Y-57238577D01*
X90837465Y-57389416D01*
X90868226Y-57537445D01*
X90901432Y-57601530D01*
X89791342Y-57601530D01*
X89791342Y-58296000D01*
X89771657Y-58363039D01*
X89718853Y-58408794D01*
X89667342Y-58420000D01*
X82447645Y-58420000D01*
X82380606Y-58400315D01*
X82334851Y-58347511D01*
X82323645Y-58296000D01*
X82323645Y-51175685D01*
X82323601Y-51175253D01*
X82323543Y-51153686D01*
X82323165Y-51012418D01*
X82285611Y-50663900D01*
X82211876Y-50321207D01*
X82102765Y-49988086D01*
X81966650Y-49684202D01*
X81959477Y-49668187D01*
X81959476Y-49668184D01*
X81959472Y-49668177D01*
X81783563Y-49364975D01*
X81576960Y-49081797D01*
X81576158Y-49080910D01*
X81341930Y-48821746D01*
X81341921Y-48821736D01*
X81334795Y-48815342D01*
X81321186Y-48803130D01*
X81284435Y-48743706D01*
X81280000Y-48710838D01*
X81280000Y-45808442D01*
X81299685Y-45741403D01*
X81352489Y-45695648D01*
X81421647Y-45685704D01*
X81485203Y-45714729D01*
X81491681Y-45720761D01*
X81591090Y-45820170D01*
X81591093Y-45820172D01*
X81777498Y-45950693D01*
X81983736Y-46046864D01*
X82203540Y-46105760D01*
X82365462Y-46119926D01*
X82430230Y-46125593D01*
X82430232Y-46125593D01*
X82430234Y-46125593D01*
X82486905Y-46120634D01*
X82656924Y-46105760D01*
X82876728Y-46046864D01*
X83082966Y-45950693D01*
X83269371Y-45820172D01*
X83430279Y-45659264D01*
X83560800Y-45472859D01*
X83656971Y-45266621D01*
X83715867Y-45046817D01*
X83735700Y-44820125D01*
X83715867Y-44593433D01*
X83656971Y-44373629D01*
X83560800Y-44167391D01*
X83430279Y-43980986D01*
X83430277Y-43980983D01*
X83269373Y-43820079D01*
X83082966Y-43689557D01*
X83082964Y-43689556D01*
X82876729Y-43593386D01*
X82876720Y-43593383D01*
X82656929Y-43534491D01*
X82656925Y-43534490D01*
X82656924Y-43534490D01*
X82656923Y-43534489D01*
X82656918Y-43534489D01*
X82430234Y-43514657D01*
X82430230Y-43514657D01*
X82203545Y-43534489D01*
X82203534Y-43534491D01*
X81983743Y-43593383D01*
X81983734Y-43593386D01*
X81777499Y-43689556D01*
X81777497Y-43689557D01*
X81591090Y-43820079D01*
X81491681Y-43919489D01*
X81430358Y-43952974D01*
X81360666Y-43947990D01*
X81304733Y-43906118D01*
X81280316Y-43840654D01*
X81280000Y-43831808D01*
X81280000Y-42229997D01*
X88783346Y-42229997D01*
X88783347Y-42229998D01*
X88783347Y-42230000D01*
X89041533Y-43180000D01*
X89309879Y-44167390D01*
X89327800Y-44233328D01*
X90761497Y-45667024D01*
X92710000Y-46156653D01*
X94126295Y-45959615D01*
X95823324Y-44672214D01*
X96520000Y-43180000D01*
X96642608Y-42168967D01*
X96642607Y-42168966D01*
X96642608Y-42168965D01*
X95917056Y-39929722D01*
X95201315Y-39288494D01*
X95099648Y-39197411D01*
X103327213Y-39197411D01*
X103347045Y-39424096D01*
X103347047Y-39424107D01*
X103405939Y-39643898D01*
X103405942Y-39643907D01*
X103502112Y-39850142D01*
X103502113Y-39850144D01*
X103632635Y-40036551D01*
X103793539Y-40197455D01*
X103793542Y-40197457D01*
X103979947Y-40327978D01*
X104186185Y-40424149D01*
X104405989Y-40483045D01*
X104567911Y-40497211D01*
X104632679Y-40502878D01*
X104632681Y-40502878D01*
X104632683Y-40502878D01*
X104689354Y-40497919D01*
X104859373Y-40483045D01*
X105079177Y-40424149D01*
X105285415Y-40327978D01*
X105471820Y-40197457D01*
X105632728Y-40036549D01*
X105763249Y-39850144D01*
X105859420Y-39643906D01*
X105918316Y-39424102D01*
X105938149Y-39197410D01*
X105935998Y-39172828D01*
X106252695Y-39172828D01*
X106272527Y-39399513D01*
X106272529Y-39399524D01*
X106331421Y-39619315D01*
X106331424Y-39619324D01*
X106427594Y-39825559D01*
X106427595Y-39825561D01*
X106558117Y-40011968D01*
X106719021Y-40172872D01*
X106719024Y-40172874D01*
X106905429Y-40303395D01*
X107111667Y-40399566D01*
X107331471Y-40458462D01*
X107493393Y-40472628D01*
X107558161Y-40478295D01*
X107558163Y-40478295D01*
X107558165Y-40478295D01*
X107614836Y-40473336D01*
X107784855Y-40458462D01*
X108004659Y-40399566D01*
X108210897Y-40303395D01*
X108397302Y-40172874D01*
X108558210Y-40011966D01*
X108688731Y-39825561D01*
X108784902Y-39619323D01*
X108843798Y-39399519D01*
X108863631Y-39172828D01*
X109178177Y-39172828D01*
X109198009Y-39399513D01*
X109198011Y-39399524D01*
X109256903Y-39619315D01*
X109256906Y-39619324D01*
X109353076Y-39825559D01*
X109353077Y-39825561D01*
X109483599Y-40011968D01*
X109644503Y-40172872D01*
X109644506Y-40172874D01*
X109830911Y-40303395D01*
X110037149Y-40399566D01*
X110256953Y-40458462D01*
X110418875Y-40472628D01*
X110483643Y-40478295D01*
X110483645Y-40478295D01*
X110483647Y-40478295D01*
X110540318Y-40473336D01*
X110710337Y-40458462D01*
X110930141Y-40399566D01*
X111136379Y-40303395D01*
X111322784Y-40172874D01*
X111483692Y-40011966D01*
X111614213Y-39825561D01*
X111710384Y-39619323D01*
X111769280Y-39399519D01*
X111789113Y-39172827D01*
X111788807Y-39169334D01*
X111771431Y-38970723D01*
X111769280Y-38946135D01*
X111710384Y-38726331D01*
X111614213Y-38520093D01*
X111483692Y-38333688D01*
X111483690Y-38333685D01*
X111322786Y-38172781D01*
X111136379Y-38042259D01*
X111136377Y-38042258D01*
X110930142Y-37946088D01*
X110930133Y-37946085D01*
X110710342Y-37887193D01*
X110710338Y-37887192D01*
X110710337Y-37887192D01*
X110710336Y-37887191D01*
X110710331Y-37887191D01*
X110483647Y-37867359D01*
X110483643Y-37867359D01*
X110256958Y-37887191D01*
X110256947Y-37887193D01*
X110037156Y-37946085D01*
X110037147Y-37946088D01*
X109830912Y-38042258D01*
X109830910Y-38042259D01*
X109644503Y-38172781D01*
X109483599Y-38333685D01*
X109353077Y-38520092D01*
X109353076Y-38520094D01*
X109256906Y-38726329D01*
X109256903Y-38726338D01*
X109198011Y-38946129D01*
X109198009Y-38946140D01*
X109178177Y-39172825D01*
X109178177Y-39172828D01*
X108863631Y-39172828D01*
X108863631Y-39172827D01*
X108863325Y-39169334D01*
X108845949Y-38970723D01*
X108843798Y-38946135D01*
X108784902Y-38726331D01*
X108688731Y-38520093D01*
X108558210Y-38333688D01*
X108558208Y-38333685D01*
X108397304Y-38172781D01*
X108210897Y-38042259D01*
X108210895Y-38042258D01*
X108004660Y-37946088D01*
X108004651Y-37946085D01*
X107784860Y-37887193D01*
X107784856Y-37887192D01*
X107784855Y-37887192D01*
X107784854Y-37887191D01*
X107784849Y-37887191D01*
X107558165Y-37867359D01*
X107558161Y-37867359D01*
X107331476Y-37887191D01*
X107331465Y-37887193D01*
X107111674Y-37946085D01*
X107111665Y-37946088D01*
X106905430Y-38042258D01*
X106905428Y-38042259D01*
X106719021Y-38172781D01*
X106558117Y-38333685D01*
X106427595Y-38520092D01*
X106427594Y-38520094D01*
X106331424Y-38726329D01*
X106331421Y-38726338D01*
X106272529Y-38946129D01*
X106272527Y-38946140D01*
X106252695Y-39172825D01*
X106252695Y-39172828D01*
X105935998Y-39172828D01*
X105933239Y-39141294D01*
X105931499Y-39121401D01*
X105918316Y-38970718D01*
X105859420Y-38750914D01*
X105763249Y-38544676D01*
X105632728Y-38358271D01*
X105632726Y-38358268D01*
X105471822Y-38197364D01*
X105285415Y-38066842D01*
X105285413Y-38066841D01*
X105079178Y-37970671D01*
X105079169Y-37970668D01*
X104859378Y-37911776D01*
X104859374Y-37911775D01*
X104859373Y-37911775D01*
X104859372Y-37911774D01*
X104859367Y-37911774D01*
X104632683Y-37891942D01*
X104632679Y-37891942D01*
X104405994Y-37911774D01*
X104405983Y-37911776D01*
X104186192Y-37970668D01*
X104186183Y-37970671D01*
X103979948Y-38066841D01*
X103979946Y-38066842D01*
X103793539Y-38197364D01*
X103632635Y-38358268D01*
X103502113Y-38544675D01*
X103502112Y-38544677D01*
X103405942Y-38750912D01*
X103405939Y-38750921D01*
X103347047Y-38970712D01*
X103347045Y-38970723D01*
X103327213Y-39197408D01*
X103327213Y-39197411D01*
X95099648Y-39197411D01*
X94711477Y-38849651D01*
X94711475Y-38849650D01*
X92710000Y-38303347D01*
X92709999Y-38303347D01*
X90322611Y-39083723D01*
X90322608Y-39083725D01*
X89152245Y-40546679D01*
X88783346Y-42229997D01*
X81280000Y-42229997D01*
X81280000Y-39724499D01*
X81299685Y-39657460D01*
X81352489Y-39611705D01*
X81403998Y-39600499D01*
X81930008Y-39600499D01*
X82032797Y-39589999D01*
X82199334Y-39534814D01*
X82348656Y-39442712D01*
X82472712Y-39318656D01*
X82564814Y-39169334D01*
X82564814Y-39169331D01*
X82568178Y-39163879D01*
X82620126Y-39117154D01*
X82689088Y-39105931D01*
X82753170Y-39133774D01*
X82761398Y-39141294D01*
X82908599Y-39288495D01*
X83005384Y-39356265D01*
X83102165Y-39424032D01*
X83102167Y-39424033D01*
X83102170Y-39424035D01*
X83316337Y-39523903D01*
X83544592Y-39585063D01*
X83721034Y-39600500D01*
X83779999Y-39605659D01*
X83780000Y-39605659D01*
X83780001Y-39605659D01*
X83838966Y-39600500D01*
X84015408Y-39585063D01*
X84243663Y-39523903D01*
X84457829Y-39424035D01*
X84651401Y-39288495D01*
X84818495Y-39121401D01*
X84954035Y-38927829D01*
X85053903Y-38713663D01*
X85115063Y-38485408D01*
X85130500Y-38308966D01*
X85130500Y-38074361D01*
X85150185Y-38007322D01*
X85166819Y-37986680D01*
X87493265Y-35660234D01*
X87554588Y-35626749D01*
X87580946Y-35623915D01*
X107232430Y-35623915D01*
X107251829Y-35625442D01*
X107265669Y-35627634D01*
X107333394Y-35624085D01*
X107339883Y-35623915D01*
X107360248Y-35623915D01*
X107360249Y-35623915D01*
X107371450Y-35622737D01*
X107380505Y-35621786D01*
X107386963Y-35621277D01*
X107454703Y-35617728D01*
X107468244Y-35614098D01*
X107487370Y-35610553D01*
X107501313Y-35609089D01*
X107565843Y-35588121D01*
X107572008Y-35586295D01*
X107637545Y-35568735D01*
X107650033Y-35562371D01*
X107668007Y-35554925D01*
X107681341Y-35550594D01*
X107740108Y-35516663D01*
X107745750Y-35513600D01*
X107806206Y-35482798D01*
X107817088Y-35473984D01*
X107833140Y-35462952D01*
X107845273Y-35455948D01*
X107895711Y-35410532D01*
X107900597Y-35406360D01*
X107916437Y-35393534D01*
X107930858Y-35379111D01*
X107935529Y-35374679D01*
X107985945Y-35329286D01*
X107994187Y-35317940D01*
X108006817Y-35303152D01*
X110416699Y-32893271D01*
X110478020Y-32859788D01*
X110493561Y-32857427D01*
X110710337Y-32838462D01*
X110930141Y-32779566D01*
X111136379Y-32683395D01*
X111322784Y-32552874D01*
X111483692Y-32391966D01*
X111614213Y-32205561D01*
X111710384Y-31999323D01*
X111769280Y-31779519D01*
X111789113Y-31552827D01*
X111788244Y-31542899D01*
X111769820Y-31332307D01*
X111769280Y-31326135D01*
X111710384Y-31106331D01*
X111614213Y-30900093D01*
X111483692Y-30713688D01*
X111483690Y-30713685D01*
X111426819Y-30656814D01*
X111393334Y-30595491D01*
X111390500Y-30569133D01*
X111390500Y-28345048D01*
X111410185Y-28278009D01*
X111426814Y-28257371D01*
X111490047Y-28194139D01*
X111620568Y-28007734D01*
X111647618Y-27949724D01*
X111693790Y-27897285D01*
X111760983Y-27878133D01*
X111827865Y-27898348D01*
X111872382Y-27949725D01*
X111899429Y-28007728D01*
X111899432Y-28007734D01*
X112029954Y-28194141D01*
X112190858Y-28355045D01*
X112237693Y-28387839D01*
X112377266Y-28485568D01*
X112583504Y-28581739D01*
X112803308Y-28640635D01*
X112965230Y-28654801D01*
X113029998Y-28660468D01*
X113030000Y-28660468D01*
X113030002Y-28660468D01*
X113086807Y-28655498D01*
X113256692Y-28640635D01*
X113476496Y-28581739D01*
X113682734Y-28485568D01*
X113869139Y-28355047D01*
X114030047Y-28194139D01*
X114160568Y-28007734D01*
X114187618Y-27949724D01*
X114233790Y-27897285D01*
X114300983Y-27878133D01*
X114367865Y-27898348D01*
G37*
G04 #@! TD.AperFunction*
M02*
