%TF.GenerationSoftware,KiCad,Pcbnew,7.0.10*%
%TF.CreationDate,2024-02-08T08:41:23+01:00*%
%TF.ProjectId,double_relay,646f7562-6c65-45f7-9265-6c61792e6b69,rev?*%
%TF.SameCoordinates,Original*%
%TF.FileFunction,Drillmap*%
%TF.FilePolarity,Positive*%
%FSLAX45Y45*%
G04 Gerber Fmt 4.5, Leading zero omitted, Abs format (unit mm)*
G04 Created by KiCad (PCBNEW 7.0.10) date 2024-02-08 08:41:23*
%MOMM*%
%LPD*%
G01*
G04 APERTURE LIST*
%ADD10C,0.100000*%
%ADD11C,0.200000*%
G04 APERTURE END LIST*
D10*
X6455072Y-6873138D02*
X6455072Y-7878420D01*
X8273941Y-8651725D02*
G75*
G03*
X8273383Y-8477747I-1532J86985D01*
G01*
D11*
X11938000Y-3048000D02*
G75*
G03*
X11430000Y-2540000I-508000J0D01*
G01*
X5080000Y-8890000D02*
G75*
G03*
X5588000Y-9398000I508000J0D01*
G01*
X11430000Y-9398000D02*
G75*
G03*
X11938000Y-8890000I0J508000D01*
G01*
D10*
X8274141Y-6445051D02*
G75*
G03*
X8273879Y-6766668I359J-160809D01*
G01*
X8273370Y-7982154D02*
G75*
G03*
X8273941Y-8651721I920J-334783D01*
G01*
D11*
X7620000Y-9144000D02*
X7618949Y-8750647D01*
D10*
X7112000Y-7619994D02*
G75*
G03*
X7112558Y-7793974I1530J-86986D01*
G01*
D11*
X5080000Y-3048000D02*
X5080000Y-8890000D01*
X7366000Y-9144000D02*
X7366332Y-8756662D01*
X7618950Y-8750647D02*
G75*
G03*
X7366332Y-8756662I-126145J-9906D01*
G01*
D10*
X8274154Y-6940642D02*
G75*
G03*
X8273596Y-6766670I-1534J86982D01*
G01*
D11*
X5588000Y-2540000D02*
G75*
G03*
X5080000Y-3048000I0J-508000D01*
G01*
X11430000Y-2540000D02*
X5588000Y-2540000D01*
X7620000Y-9144000D02*
G75*
G03*
X7874000Y-9398000I254000J0D01*
G01*
D10*
X7111987Y-7124407D02*
G75*
G03*
X7112545Y-7298381I1533J-86983D01*
G01*
X6213690Y-8511691D02*
X6210851Y-7307624D01*
D11*
X11938000Y-8890000D02*
X11938000Y-3048000D01*
D10*
X6210851Y-7307624D02*
X6253447Y-7151436D01*
X6455072Y-7878420D02*
X6358519Y-8219194D01*
X6358519Y-8219194D02*
X6358519Y-8511691D01*
X8273928Y-8156134D02*
G75*
G03*
X8273666Y-8477745I362J-160806D01*
G01*
D11*
X7874000Y-9398000D02*
X11430000Y-9398000D01*
D10*
X6253447Y-7151436D02*
X6254236Y-6870278D01*
X7112558Y-7793974D02*
G75*
G03*
X7111987Y-7124407I-920J334783D01*
G01*
X8274142Y-6445055D02*
G75*
G03*
X8273583Y-6271077I-1532J86985D01*
G01*
D11*
X7112000Y-9398000D02*
G75*
G03*
X7366000Y-9144000I0J254000D01*
G01*
D10*
X6213690Y-8511691D02*
G75*
G03*
X6358519Y-8511691I72414J0D01*
G01*
X8273583Y-6271077D02*
G75*
G03*
X8274154Y-6940644I920J-334783D01*
G01*
X6455064Y-6873137D02*
G75*
G03*
X6254236Y-6870278I-100414J1428D01*
G01*
X8273928Y-8156118D02*
G75*
G03*
X8273370Y-7982154I-1528J86978D01*
G01*
X7112000Y-7619998D02*
G75*
G03*
X7112262Y-7298383I-360J160808D01*
G01*
D11*
X7112000Y-9398000D02*
X5588000Y-9398000D01*
X5330777Y-9719484D02*
X5330777Y-9519484D01*
X5330777Y-9519484D02*
X5378396Y-9519484D01*
X5378396Y-9519484D02*
X5406967Y-9529008D01*
X5406967Y-9529008D02*
X5426015Y-9548055D01*
X5426015Y-9548055D02*
X5435539Y-9567103D01*
X5435539Y-9567103D02*
X5445063Y-9605198D01*
X5445063Y-9605198D02*
X5445063Y-9633770D01*
X5445063Y-9633770D02*
X5435539Y-9671865D01*
X5435539Y-9671865D02*
X5426015Y-9690912D01*
X5426015Y-9690912D02*
X5406967Y-9709960D01*
X5406967Y-9709960D02*
X5378396Y-9719484D01*
X5378396Y-9719484D02*
X5330777Y-9719484D01*
X5530777Y-9719484D02*
X5530777Y-9586150D01*
X5530777Y-9624246D02*
X5540301Y-9605198D01*
X5540301Y-9605198D02*
X5549824Y-9595674D01*
X5549824Y-9595674D02*
X5568872Y-9586150D01*
X5568872Y-9586150D02*
X5587920Y-9586150D01*
X5654586Y-9719484D02*
X5654586Y-9586150D01*
X5654586Y-9519484D02*
X5645062Y-9529008D01*
X5645062Y-9529008D02*
X5654586Y-9538531D01*
X5654586Y-9538531D02*
X5664110Y-9529008D01*
X5664110Y-9529008D02*
X5654586Y-9519484D01*
X5654586Y-9519484D02*
X5654586Y-9538531D01*
X5778396Y-9719484D02*
X5759348Y-9709960D01*
X5759348Y-9709960D02*
X5749824Y-9690912D01*
X5749824Y-9690912D02*
X5749824Y-9519484D01*
X5883158Y-9719484D02*
X5864110Y-9709960D01*
X5864110Y-9709960D02*
X5854586Y-9690912D01*
X5854586Y-9690912D02*
X5854586Y-9519484D01*
X6111729Y-9719484D02*
X6111729Y-9519484D01*
X6111729Y-9519484D02*
X6178396Y-9662341D01*
X6178396Y-9662341D02*
X6245062Y-9519484D01*
X6245062Y-9519484D02*
X6245062Y-9719484D01*
X6426015Y-9719484D02*
X6426015Y-9614722D01*
X6426015Y-9614722D02*
X6416491Y-9595674D01*
X6416491Y-9595674D02*
X6397443Y-9586150D01*
X6397443Y-9586150D02*
X6359348Y-9586150D01*
X6359348Y-9586150D02*
X6340301Y-9595674D01*
X6426015Y-9709960D02*
X6406967Y-9719484D01*
X6406967Y-9719484D02*
X6359348Y-9719484D01*
X6359348Y-9719484D02*
X6340301Y-9709960D01*
X6340301Y-9709960D02*
X6330777Y-9690912D01*
X6330777Y-9690912D02*
X6330777Y-9671865D01*
X6330777Y-9671865D02*
X6340301Y-9652817D01*
X6340301Y-9652817D02*
X6359348Y-9643293D01*
X6359348Y-9643293D02*
X6406967Y-9643293D01*
X6406967Y-9643293D02*
X6426015Y-9633770D01*
X6521253Y-9586150D02*
X6521253Y-9786150D01*
X6521253Y-9595674D02*
X6540301Y-9586150D01*
X6540301Y-9586150D02*
X6578396Y-9586150D01*
X6578396Y-9586150D02*
X6597443Y-9595674D01*
X6597443Y-9595674D02*
X6606967Y-9605198D01*
X6606967Y-9605198D02*
X6616491Y-9624246D01*
X6616491Y-9624246D02*
X6616491Y-9681389D01*
X6616491Y-9681389D02*
X6606967Y-9700436D01*
X6606967Y-9700436D02*
X6597443Y-9709960D01*
X6597443Y-9709960D02*
X6578396Y-9719484D01*
X6578396Y-9719484D02*
X6540301Y-9719484D01*
X6540301Y-9719484D02*
X6521253Y-9709960D01*
X6702205Y-9700436D02*
X6711729Y-9709960D01*
X6711729Y-9709960D02*
X6702205Y-9719484D01*
X6702205Y-9719484D02*
X6692682Y-9709960D01*
X6692682Y-9709960D02*
X6702205Y-9700436D01*
X6702205Y-9700436D02*
X6702205Y-9719484D01*
X6702205Y-9595674D02*
X6711729Y-9605198D01*
X6711729Y-9605198D02*
X6702205Y-9614722D01*
X6702205Y-9614722D02*
X6692682Y-9605198D01*
X6692682Y-9605198D02*
X6702205Y-9595674D01*
X6702205Y-9595674D02*
X6702205Y-9614722D01*
M02*
