%TF.GenerationSoftware,KiCad,Pcbnew,7.0.10*%
%TF.CreationDate,2024-02-08T08:12:04+01:00*%
%TF.ProjectId,door_relay_sensor,646f6f72-5f72-4656-9c61-795f73656e73,rev?*%
%TF.SameCoordinates,Original*%
%TF.FileFunction,Legend,Top*%
%TF.FilePolarity,Positive*%
%FSLAX46Y46*%
G04 Gerber Fmt 4.6, Leading zero omitted, Abs format (unit mm)*
G04 Created by KiCad (PCBNEW 7.0.10) date 2024-02-08 08:12:04*
%MOMM*%
%LPD*%
G01*
G04 APERTURE LIST*
G04 Aperture macros list*
%AMRoundRect*
0 Rectangle with rounded corners*
0 $1 Rounding radius*
0 $2 $3 $4 $5 $6 $7 $8 $9 X,Y pos of 4 corners*
0 Add a 4 corners polygon primitive as box body*
4,1,4,$2,$3,$4,$5,$6,$7,$8,$9,$2,$3,0*
0 Add four circle primitives for the rounded corners*
1,1,$1+$1,$2,$3*
1,1,$1+$1,$4,$5*
1,1,$1+$1,$6,$7*
1,1,$1+$1,$8,$9*
0 Add four rect primitives between the rounded corners*
20,1,$1+$1,$2,$3,$4,$5,0*
20,1,$1+$1,$4,$5,$6,$7,0*
20,1,$1+$1,$6,$7,$8,$9,0*
20,1,$1+$1,$8,$9,$2,$3,0*%
G04 Aperture macros list end*
%ADD10C,0.150000*%
%ADD11C,0.100000*%
%ADD12C,0.120000*%
%ADD13R,3.000000X3.000000*%
%ADD14C,3.000000*%
%ADD15R,2.200000X2.200000*%
%ADD16O,2.200000X2.200000*%
%ADD17RoundRect,0.250000X-0.600000X-0.750000X0.600000X-0.750000X0.600000X0.750000X-0.600000X0.750000X0*%
%ADD18O,1.700000X2.000000*%
%ADD19R,1.500000X1.500000*%
%ADD20C,1.500000*%
%ADD21C,1.600000*%
%ADD22O,1.600000X1.600000*%
%ADD23RoundRect,0.200000X-0.900000X0.900000X-0.900000X-0.900000X0.900000X-0.900000X0.900000X0.900000X0*%
%ADD24C,2.500000*%
%ADD25RoundRect,0.250000X-0.600000X-0.725000X0.600000X-0.725000X0.600000X0.725000X-0.600000X0.725000X0*%
%ADD26O,1.700000X1.950000*%
%ADD27O,2.000000X1.600000*%
%ADD28R,2.000000X2.000000*%
G04 APERTURE END LIST*
D10*
X64639819Y-57559411D02*
X64639819Y-58130839D01*
X64639819Y-57845125D02*
X63639819Y-57845125D01*
X63639819Y-57845125D02*
X63782676Y-57940363D01*
X63782676Y-57940363D02*
X63877914Y-58035601D01*
X63877914Y-58035601D02*
X63925533Y-58130839D01*
X64639819Y-57130839D02*
X63639819Y-57130839D01*
X64258866Y-57035601D02*
X64639819Y-56749887D01*
X63973152Y-56749887D02*
X64354104Y-57130839D01*
X61099819Y-58178458D02*
X61099819Y-57559411D01*
X61099819Y-57559411D02*
X61480771Y-57892744D01*
X61480771Y-57892744D02*
X61480771Y-57749887D01*
X61480771Y-57749887D02*
X61528390Y-57654649D01*
X61528390Y-57654649D02*
X61576009Y-57607030D01*
X61576009Y-57607030D02*
X61671247Y-57559411D01*
X61671247Y-57559411D02*
X61909342Y-57559411D01*
X61909342Y-57559411D02*
X62004580Y-57607030D01*
X62004580Y-57607030D02*
X62052200Y-57654649D01*
X62052200Y-57654649D02*
X62099819Y-57749887D01*
X62099819Y-57749887D02*
X62099819Y-58035601D01*
X62099819Y-58035601D02*
X62052200Y-58130839D01*
X62052200Y-58130839D02*
X62004580Y-58178458D01*
X62099819Y-57130839D02*
X61099819Y-57130839D01*
X61718866Y-57035601D02*
X62099819Y-56749887D01*
X61433152Y-56749887D02*
X61814104Y-57130839D01*
X61099819Y-56416553D02*
X61099819Y-55797506D01*
X61099819Y-55797506D02*
X61480771Y-56130839D01*
X61480771Y-56130839D02*
X61480771Y-55987982D01*
X61480771Y-55987982D02*
X61528390Y-55892744D01*
X61528390Y-55892744D02*
X61576009Y-55845125D01*
X61576009Y-55845125D02*
X61671247Y-55797506D01*
X61671247Y-55797506D02*
X61909342Y-55797506D01*
X61909342Y-55797506D02*
X62004580Y-55845125D01*
X62004580Y-55845125D02*
X62052200Y-55892744D01*
X62052200Y-55892744D02*
X62099819Y-55987982D01*
X62099819Y-55987982D02*
X62099819Y-56273696D01*
X62099819Y-56273696D02*
X62052200Y-56368934D01*
X62052200Y-56368934D02*
X62004580Y-56416553D01*
X80483152Y-51304649D02*
X81149819Y-51304649D01*
X80102200Y-51542744D02*
X80816485Y-51780839D01*
X80816485Y-51780839D02*
X80816485Y-51161792D01*
X80149819Y-50876077D02*
X80149819Y-50209411D01*
X80149819Y-50209411D02*
X81149819Y-50637982D01*
X80149819Y-49637982D02*
X80149819Y-49542744D01*
X80149819Y-49542744D02*
X80197438Y-49447506D01*
X80197438Y-49447506D02*
X80245057Y-49399887D01*
X80245057Y-49399887D02*
X80340295Y-49352268D01*
X80340295Y-49352268D02*
X80530771Y-49304649D01*
X80530771Y-49304649D02*
X80768866Y-49304649D01*
X80768866Y-49304649D02*
X80959342Y-49352268D01*
X80959342Y-49352268D02*
X81054580Y-49399887D01*
X81054580Y-49399887D02*
X81102200Y-49447506D01*
X81102200Y-49447506D02*
X81149819Y-49542744D01*
X81149819Y-49542744D02*
X81149819Y-49637982D01*
X81149819Y-49637982D02*
X81102200Y-49733220D01*
X81102200Y-49733220D02*
X81054580Y-49780839D01*
X81054580Y-49780839D02*
X80959342Y-49828458D01*
X80959342Y-49828458D02*
X80768866Y-49876077D01*
X80768866Y-49876077D02*
X80530771Y-49876077D01*
X80530771Y-49876077D02*
X80340295Y-49828458D01*
X80340295Y-49828458D02*
X80245057Y-49780839D01*
X80245057Y-49780839D02*
X80197438Y-49733220D01*
X80197438Y-49733220D02*
X80149819Y-49637982D01*
X81149819Y-48304649D02*
X80673628Y-48637982D01*
X81149819Y-48876077D02*
X80149819Y-48876077D01*
X80149819Y-48876077D02*
X80149819Y-48495125D01*
X80149819Y-48495125D02*
X80197438Y-48399887D01*
X80197438Y-48399887D02*
X80245057Y-48352268D01*
X80245057Y-48352268D02*
X80340295Y-48304649D01*
X80340295Y-48304649D02*
X80483152Y-48304649D01*
X80483152Y-48304649D02*
X80578390Y-48352268D01*
X80578390Y-48352268D02*
X80626009Y-48399887D01*
X80626009Y-48399887D02*
X80673628Y-48495125D01*
X80673628Y-48495125D02*
X80673628Y-48876077D01*
X112620588Y-34477438D02*
X112525350Y-34429819D01*
X112525350Y-34429819D02*
X112382493Y-34429819D01*
X112382493Y-34429819D02*
X112239636Y-34477438D01*
X112239636Y-34477438D02*
X112144398Y-34572676D01*
X112144398Y-34572676D02*
X112096779Y-34667914D01*
X112096779Y-34667914D02*
X112049160Y-34858390D01*
X112049160Y-34858390D02*
X112049160Y-35001247D01*
X112049160Y-35001247D02*
X112096779Y-35191723D01*
X112096779Y-35191723D02*
X112144398Y-35286961D01*
X112144398Y-35286961D02*
X112239636Y-35382200D01*
X112239636Y-35382200D02*
X112382493Y-35429819D01*
X112382493Y-35429819D02*
X112477731Y-35429819D01*
X112477731Y-35429819D02*
X112620588Y-35382200D01*
X112620588Y-35382200D02*
X112668207Y-35334580D01*
X112668207Y-35334580D02*
X112668207Y-35001247D01*
X112668207Y-35001247D02*
X112477731Y-35001247D01*
X113096779Y-35429819D02*
X113096779Y-34429819D01*
X113096779Y-34429819D02*
X113668207Y-35429819D01*
X113668207Y-35429819D02*
X113668207Y-34429819D01*
X114144398Y-35429819D02*
X114144398Y-34429819D01*
X114144398Y-34429819D02*
X114382493Y-34429819D01*
X114382493Y-34429819D02*
X114525350Y-34477438D01*
X114525350Y-34477438D02*
X114620588Y-34572676D01*
X114620588Y-34572676D02*
X114668207Y-34667914D01*
X114668207Y-34667914D02*
X114715826Y-34858390D01*
X114715826Y-34858390D02*
X114715826Y-35001247D01*
X114715826Y-35001247D02*
X114668207Y-35191723D01*
X114668207Y-35191723D02*
X114620588Y-35286961D01*
X114620588Y-35286961D02*
X114525350Y-35382200D01*
X114525350Y-35382200D02*
X114382493Y-35429819D01*
X114382493Y-35429819D02*
X114144398Y-35429819D01*
X107588207Y-84864580D02*
X107540588Y-84912200D01*
X107540588Y-84912200D02*
X107397731Y-84959819D01*
X107397731Y-84959819D02*
X107302493Y-84959819D01*
X107302493Y-84959819D02*
X107159636Y-84912200D01*
X107159636Y-84912200D02*
X107064398Y-84816961D01*
X107064398Y-84816961D02*
X107016779Y-84721723D01*
X107016779Y-84721723D02*
X106969160Y-84531247D01*
X106969160Y-84531247D02*
X106969160Y-84388390D01*
X106969160Y-84388390D02*
X107016779Y-84197914D01*
X107016779Y-84197914D02*
X107064398Y-84102676D01*
X107064398Y-84102676D02*
X107159636Y-84007438D01*
X107159636Y-84007438D02*
X107302493Y-83959819D01*
X107302493Y-83959819D02*
X107397731Y-83959819D01*
X107397731Y-83959819D02*
X107540588Y-84007438D01*
X107540588Y-84007438D02*
X107588207Y-84055057D01*
X108207255Y-83959819D02*
X108397731Y-83959819D01*
X108397731Y-83959819D02*
X108492969Y-84007438D01*
X108492969Y-84007438D02*
X108588207Y-84102676D01*
X108588207Y-84102676D02*
X108635826Y-84293152D01*
X108635826Y-84293152D02*
X108635826Y-84626485D01*
X108635826Y-84626485D02*
X108588207Y-84816961D01*
X108588207Y-84816961D02*
X108492969Y-84912200D01*
X108492969Y-84912200D02*
X108397731Y-84959819D01*
X108397731Y-84959819D02*
X108207255Y-84959819D01*
X108207255Y-84959819D02*
X108112017Y-84912200D01*
X108112017Y-84912200D02*
X108016779Y-84816961D01*
X108016779Y-84816961D02*
X107969160Y-84626485D01*
X107969160Y-84626485D02*
X107969160Y-84293152D01*
X107969160Y-84293152D02*
X108016779Y-84102676D01*
X108016779Y-84102676D02*
X108112017Y-84007438D01*
X108112017Y-84007438D02*
X108207255Y-83959819D01*
X109064398Y-84959819D02*
X109064398Y-83959819D01*
X109064398Y-83959819D02*
X109397731Y-84674104D01*
X109397731Y-84674104D02*
X109731064Y-83959819D01*
X109731064Y-83959819D02*
X109731064Y-84959819D01*
X107540588Y-35429819D02*
X106969160Y-35429819D01*
X107254874Y-35429819D02*
X107254874Y-34429819D01*
X107254874Y-34429819D02*
X107159636Y-34572676D01*
X107159636Y-34572676D02*
X107064398Y-34667914D01*
X107064398Y-34667914D02*
X106969160Y-34715533D01*
X107921541Y-34525057D02*
X107969160Y-34477438D01*
X107969160Y-34477438D02*
X108064398Y-34429819D01*
X108064398Y-34429819D02*
X108302493Y-34429819D01*
X108302493Y-34429819D02*
X108397731Y-34477438D01*
X108397731Y-34477438D02*
X108445350Y-34525057D01*
X108445350Y-34525057D02*
X108492969Y-34620295D01*
X108492969Y-34620295D02*
X108492969Y-34715533D01*
X108492969Y-34715533D02*
X108445350Y-34858390D01*
X108445350Y-34858390D02*
X107873922Y-35429819D01*
X107873922Y-35429819D02*
X108492969Y-35429819D01*
X108826303Y-34763152D02*
X109064398Y-35429819D01*
X109064398Y-35429819D02*
X109302493Y-34763152D01*
X87966779Y-87499819D02*
X87966779Y-86499819D01*
X87966779Y-86499819D02*
X88204874Y-86499819D01*
X88204874Y-86499819D02*
X88347731Y-86547438D01*
X88347731Y-86547438D02*
X88442969Y-86642676D01*
X88442969Y-86642676D02*
X88490588Y-86737914D01*
X88490588Y-86737914D02*
X88538207Y-86928390D01*
X88538207Y-86928390D02*
X88538207Y-87071247D01*
X88538207Y-87071247D02*
X88490588Y-87261723D01*
X88490588Y-87261723D02*
X88442969Y-87356961D01*
X88442969Y-87356961D02*
X88347731Y-87452200D01*
X88347731Y-87452200D02*
X88204874Y-87499819D01*
X88204874Y-87499819D02*
X87966779Y-87499819D01*
X89109636Y-87499819D02*
X89014398Y-87452200D01*
X89014398Y-87452200D02*
X88966779Y-87404580D01*
X88966779Y-87404580D02*
X88919160Y-87309342D01*
X88919160Y-87309342D02*
X88919160Y-87023628D01*
X88919160Y-87023628D02*
X88966779Y-86928390D01*
X88966779Y-86928390D02*
X89014398Y-86880771D01*
X89014398Y-86880771D02*
X89109636Y-86833152D01*
X89109636Y-86833152D02*
X89252493Y-86833152D01*
X89252493Y-86833152D02*
X89347731Y-86880771D01*
X89347731Y-86880771D02*
X89395350Y-86928390D01*
X89395350Y-86928390D02*
X89442969Y-87023628D01*
X89442969Y-87023628D02*
X89442969Y-87309342D01*
X89442969Y-87309342D02*
X89395350Y-87404580D01*
X89395350Y-87404580D02*
X89347731Y-87452200D01*
X89347731Y-87452200D02*
X89252493Y-87499819D01*
X89252493Y-87499819D02*
X89109636Y-87499819D01*
X90014398Y-87499819D02*
X89919160Y-87452200D01*
X89919160Y-87452200D02*
X89871541Y-87404580D01*
X89871541Y-87404580D02*
X89823922Y-87309342D01*
X89823922Y-87309342D02*
X89823922Y-87023628D01*
X89823922Y-87023628D02*
X89871541Y-86928390D01*
X89871541Y-86928390D02*
X89919160Y-86880771D01*
X89919160Y-86880771D02*
X90014398Y-86833152D01*
X90014398Y-86833152D02*
X90157255Y-86833152D01*
X90157255Y-86833152D02*
X90252493Y-86880771D01*
X90252493Y-86880771D02*
X90300112Y-86928390D01*
X90300112Y-86928390D02*
X90347731Y-87023628D01*
X90347731Y-87023628D02*
X90347731Y-87309342D01*
X90347731Y-87309342D02*
X90300112Y-87404580D01*
X90300112Y-87404580D02*
X90252493Y-87452200D01*
X90252493Y-87452200D02*
X90157255Y-87499819D01*
X90157255Y-87499819D02*
X90014398Y-87499819D01*
X90776303Y-87499819D02*
X90776303Y-86833152D01*
X90776303Y-87023628D02*
X90823922Y-86928390D01*
X90823922Y-86928390D02*
X90871541Y-86880771D01*
X90871541Y-86880771D02*
X90966779Y-86833152D01*
X90966779Y-86833152D02*
X91062017Y-86833152D01*
X91966779Y-87499819D02*
X91633446Y-87023628D01*
X91395351Y-87499819D02*
X91395351Y-86499819D01*
X91395351Y-86499819D02*
X91776303Y-86499819D01*
X91776303Y-86499819D02*
X91871541Y-86547438D01*
X91871541Y-86547438D02*
X91919160Y-86595057D01*
X91919160Y-86595057D02*
X91966779Y-86690295D01*
X91966779Y-86690295D02*
X91966779Y-86833152D01*
X91966779Y-86833152D02*
X91919160Y-86928390D01*
X91919160Y-86928390D02*
X91871541Y-86976009D01*
X91871541Y-86976009D02*
X91776303Y-87023628D01*
X91776303Y-87023628D02*
X91395351Y-87023628D01*
X92776303Y-87452200D02*
X92681065Y-87499819D01*
X92681065Y-87499819D02*
X92490589Y-87499819D01*
X92490589Y-87499819D02*
X92395351Y-87452200D01*
X92395351Y-87452200D02*
X92347732Y-87356961D01*
X92347732Y-87356961D02*
X92347732Y-86976009D01*
X92347732Y-86976009D02*
X92395351Y-86880771D01*
X92395351Y-86880771D02*
X92490589Y-86833152D01*
X92490589Y-86833152D02*
X92681065Y-86833152D01*
X92681065Y-86833152D02*
X92776303Y-86880771D01*
X92776303Y-86880771D02*
X92823922Y-86976009D01*
X92823922Y-86976009D02*
X92823922Y-87071247D01*
X92823922Y-87071247D02*
X92347732Y-87166485D01*
X93395351Y-87499819D02*
X93300113Y-87452200D01*
X93300113Y-87452200D02*
X93252494Y-87356961D01*
X93252494Y-87356961D02*
X93252494Y-86499819D01*
X94204875Y-87499819D02*
X94204875Y-86976009D01*
X94204875Y-86976009D02*
X94157256Y-86880771D01*
X94157256Y-86880771D02*
X94062018Y-86833152D01*
X94062018Y-86833152D02*
X93871542Y-86833152D01*
X93871542Y-86833152D02*
X93776304Y-86880771D01*
X94204875Y-87452200D02*
X94109637Y-87499819D01*
X94109637Y-87499819D02*
X93871542Y-87499819D01*
X93871542Y-87499819D02*
X93776304Y-87452200D01*
X93776304Y-87452200D02*
X93728685Y-87356961D01*
X93728685Y-87356961D02*
X93728685Y-87261723D01*
X93728685Y-87261723D02*
X93776304Y-87166485D01*
X93776304Y-87166485D02*
X93871542Y-87118866D01*
X93871542Y-87118866D02*
X94109637Y-87118866D01*
X94109637Y-87118866D02*
X94204875Y-87071247D01*
X94585828Y-86833152D02*
X94823923Y-87499819D01*
X95062018Y-86833152D02*
X94823923Y-87499819D01*
X94823923Y-87499819D02*
X94728685Y-87737914D01*
X94728685Y-87737914D02*
X94681066Y-87785533D01*
X94681066Y-87785533D02*
X94585828Y-87833152D01*
X113890588Y-84619819D02*
X113319160Y-84619819D01*
X113604874Y-84619819D02*
X113604874Y-83619819D01*
X113604874Y-83619819D02*
X113509636Y-83762676D01*
X113509636Y-83762676D02*
X113414398Y-83857914D01*
X113414398Y-83857914D02*
X113319160Y-83905533D01*
X114271541Y-83715057D02*
X114319160Y-83667438D01*
X114319160Y-83667438D02*
X114414398Y-83619819D01*
X114414398Y-83619819D02*
X114652493Y-83619819D01*
X114652493Y-83619819D02*
X114747731Y-83667438D01*
X114747731Y-83667438D02*
X114795350Y-83715057D01*
X114795350Y-83715057D02*
X114842969Y-83810295D01*
X114842969Y-83810295D02*
X114842969Y-83905533D01*
X114842969Y-83905533D02*
X114795350Y-84048390D01*
X114795350Y-84048390D02*
X114223922Y-84619819D01*
X114223922Y-84619819D02*
X114842969Y-84619819D01*
X115176303Y-83953152D02*
X115414398Y-84619819D01*
X115414398Y-84619819D02*
X115652493Y-83953152D01*
X113366779Y-86229819D02*
X113366779Y-85229819D01*
X113366779Y-85229819D02*
X113938207Y-86229819D01*
X113938207Y-86229819D02*
X113938207Y-85229819D01*
X114985826Y-86134580D02*
X114938207Y-86182200D01*
X114938207Y-86182200D02*
X114795350Y-86229819D01*
X114795350Y-86229819D02*
X114700112Y-86229819D01*
X114700112Y-86229819D02*
X114557255Y-86182200D01*
X114557255Y-86182200D02*
X114462017Y-86086961D01*
X114462017Y-86086961D02*
X114414398Y-85991723D01*
X114414398Y-85991723D02*
X114366779Y-85801247D01*
X114366779Y-85801247D02*
X114366779Y-85658390D01*
X114366779Y-85658390D02*
X114414398Y-85467914D01*
X114414398Y-85467914D02*
X114462017Y-85372676D01*
X114462017Y-85372676D02*
X114557255Y-85277438D01*
X114557255Y-85277438D02*
X114700112Y-85229819D01*
X114700112Y-85229819D02*
X114795350Y-85229819D01*
X114795350Y-85229819D02*
X114938207Y-85277438D01*
X114938207Y-85277438D02*
X114985826Y-85325057D01*
X84293152Y-51304649D02*
X84959819Y-51304649D01*
X83912200Y-51542744D02*
X84626485Y-51780839D01*
X84626485Y-51780839D02*
X84626485Y-51161792D01*
X83959819Y-50876077D02*
X83959819Y-50209411D01*
X83959819Y-50209411D02*
X84959819Y-50637982D01*
X83959819Y-49637982D02*
X83959819Y-49542744D01*
X83959819Y-49542744D02*
X84007438Y-49447506D01*
X84007438Y-49447506D02*
X84055057Y-49399887D01*
X84055057Y-49399887D02*
X84150295Y-49352268D01*
X84150295Y-49352268D02*
X84340771Y-49304649D01*
X84340771Y-49304649D02*
X84578866Y-49304649D01*
X84578866Y-49304649D02*
X84769342Y-49352268D01*
X84769342Y-49352268D02*
X84864580Y-49399887D01*
X84864580Y-49399887D02*
X84912200Y-49447506D01*
X84912200Y-49447506D02*
X84959819Y-49542744D01*
X84959819Y-49542744D02*
X84959819Y-49637982D01*
X84959819Y-49637982D02*
X84912200Y-49733220D01*
X84912200Y-49733220D02*
X84864580Y-49780839D01*
X84864580Y-49780839D02*
X84769342Y-49828458D01*
X84769342Y-49828458D02*
X84578866Y-49876077D01*
X84578866Y-49876077D02*
X84340771Y-49876077D01*
X84340771Y-49876077D02*
X84150295Y-49828458D01*
X84150295Y-49828458D02*
X84055057Y-49780839D01*
X84055057Y-49780839D02*
X84007438Y-49733220D01*
X84007438Y-49733220D02*
X83959819Y-49637982D01*
X84959819Y-48304649D02*
X84483628Y-48637982D01*
X84959819Y-48876077D02*
X83959819Y-48876077D01*
X83959819Y-48876077D02*
X83959819Y-48495125D01*
X83959819Y-48495125D02*
X84007438Y-48399887D01*
X84007438Y-48399887D02*
X84055057Y-48352268D01*
X84055057Y-48352268D02*
X84150295Y-48304649D01*
X84150295Y-48304649D02*
X84293152Y-48304649D01*
X84293152Y-48304649D02*
X84388390Y-48352268D01*
X84388390Y-48352268D02*
X84436009Y-48399887D01*
X84436009Y-48399887D02*
X84483628Y-48495125D01*
X84483628Y-48495125D02*
X84483628Y-48876077D01*
X102460588Y-84619819D02*
X101889160Y-84619819D01*
X102174874Y-84619819D02*
X102174874Y-83619819D01*
X102174874Y-83619819D02*
X102079636Y-83762676D01*
X102079636Y-83762676D02*
X101984398Y-83857914D01*
X101984398Y-83857914D02*
X101889160Y-83905533D01*
X102841541Y-83715057D02*
X102889160Y-83667438D01*
X102889160Y-83667438D02*
X102984398Y-83619819D01*
X102984398Y-83619819D02*
X103222493Y-83619819D01*
X103222493Y-83619819D02*
X103317731Y-83667438D01*
X103317731Y-83667438D02*
X103365350Y-83715057D01*
X103365350Y-83715057D02*
X103412969Y-83810295D01*
X103412969Y-83810295D02*
X103412969Y-83905533D01*
X103412969Y-83905533D02*
X103365350Y-84048390D01*
X103365350Y-84048390D02*
X102793922Y-84619819D01*
X102793922Y-84619819D02*
X103412969Y-84619819D01*
X103746303Y-83953152D02*
X103984398Y-84619819D01*
X103984398Y-84619819D02*
X104222493Y-83953152D01*
X101936779Y-86229819D02*
X101936779Y-85229819D01*
X101936779Y-85229819D02*
X102508207Y-86229819D01*
X102508207Y-86229819D02*
X102508207Y-85229819D01*
X103174874Y-85229819D02*
X103365350Y-85229819D01*
X103365350Y-85229819D02*
X103460588Y-85277438D01*
X103460588Y-85277438D02*
X103555826Y-85372676D01*
X103555826Y-85372676D02*
X103603445Y-85563152D01*
X103603445Y-85563152D02*
X103603445Y-85896485D01*
X103603445Y-85896485D02*
X103555826Y-86086961D01*
X103555826Y-86086961D02*
X103460588Y-86182200D01*
X103460588Y-86182200D02*
X103365350Y-86229819D01*
X103365350Y-86229819D02*
X103174874Y-86229819D01*
X103174874Y-86229819D02*
X103079636Y-86182200D01*
X103079636Y-86182200D02*
X102984398Y-86086961D01*
X102984398Y-86086961D02*
X102936779Y-85896485D01*
X102936779Y-85896485D02*
X102936779Y-85563152D01*
X102936779Y-85563152D02*
X102984398Y-85372676D01*
X102984398Y-85372676D02*
X103079636Y-85277438D01*
X103079636Y-85277438D02*
X103174874Y-85229819D01*
X107588207Y-87499819D02*
X107254874Y-87023628D01*
X107016779Y-87499819D02*
X107016779Y-86499819D01*
X107016779Y-86499819D02*
X107397731Y-86499819D01*
X107397731Y-86499819D02*
X107492969Y-86547438D01*
X107492969Y-86547438D02*
X107540588Y-86595057D01*
X107540588Y-86595057D02*
X107588207Y-86690295D01*
X107588207Y-86690295D02*
X107588207Y-86833152D01*
X107588207Y-86833152D02*
X107540588Y-86928390D01*
X107540588Y-86928390D02*
X107492969Y-86976009D01*
X107492969Y-86976009D02*
X107397731Y-87023628D01*
X107397731Y-87023628D02*
X107016779Y-87023628D01*
X108397731Y-87452200D02*
X108302493Y-87499819D01*
X108302493Y-87499819D02*
X108112017Y-87499819D01*
X108112017Y-87499819D02*
X108016779Y-87452200D01*
X108016779Y-87452200D02*
X107969160Y-87356961D01*
X107969160Y-87356961D02*
X107969160Y-86976009D01*
X107969160Y-86976009D02*
X108016779Y-86880771D01*
X108016779Y-86880771D02*
X108112017Y-86833152D01*
X108112017Y-86833152D02*
X108302493Y-86833152D01*
X108302493Y-86833152D02*
X108397731Y-86880771D01*
X108397731Y-86880771D02*
X108445350Y-86976009D01*
X108445350Y-86976009D02*
X108445350Y-87071247D01*
X108445350Y-87071247D02*
X107969160Y-87166485D01*
X109016779Y-87499819D02*
X108921541Y-87452200D01*
X108921541Y-87452200D02*
X108873922Y-87356961D01*
X108873922Y-87356961D02*
X108873922Y-86499819D01*
X109826303Y-87499819D02*
X109826303Y-86976009D01*
X109826303Y-86976009D02*
X109778684Y-86880771D01*
X109778684Y-86880771D02*
X109683446Y-86833152D01*
X109683446Y-86833152D02*
X109492970Y-86833152D01*
X109492970Y-86833152D02*
X109397732Y-86880771D01*
X109826303Y-87452200D02*
X109731065Y-87499819D01*
X109731065Y-87499819D02*
X109492970Y-87499819D01*
X109492970Y-87499819D02*
X109397732Y-87452200D01*
X109397732Y-87452200D02*
X109350113Y-87356961D01*
X109350113Y-87356961D02*
X109350113Y-87261723D01*
X109350113Y-87261723D02*
X109397732Y-87166485D01*
X109397732Y-87166485D02*
X109492970Y-87118866D01*
X109492970Y-87118866D02*
X109731065Y-87118866D01*
X109731065Y-87118866D02*
X109826303Y-87071247D01*
X110207256Y-86833152D02*
X110445351Y-87499819D01*
X110683446Y-86833152D02*
X110445351Y-87499819D01*
X110445351Y-87499819D02*
X110350113Y-87737914D01*
X110350113Y-87737914D02*
X110302494Y-87785533D01*
X110302494Y-87785533D02*
X110207256Y-87833152D01*
X85950588Y-84007438D02*
X85855350Y-83959819D01*
X85855350Y-83959819D02*
X85712493Y-83959819D01*
X85712493Y-83959819D02*
X85569636Y-84007438D01*
X85569636Y-84007438D02*
X85474398Y-84102676D01*
X85474398Y-84102676D02*
X85426779Y-84197914D01*
X85426779Y-84197914D02*
X85379160Y-84388390D01*
X85379160Y-84388390D02*
X85379160Y-84531247D01*
X85379160Y-84531247D02*
X85426779Y-84721723D01*
X85426779Y-84721723D02*
X85474398Y-84816961D01*
X85474398Y-84816961D02*
X85569636Y-84912200D01*
X85569636Y-84912200D02*
X85712493Y-84959819D01*
X85712493Y-84959819D02*
X85807731Y-84959819D01*
X85807731Y-84959819D02*
X85950588Y-84912200D01*
X85950588Y-84912200D02*
X85998207Y-84864580D01*
X85998207Y-84864580D02*
X85998207Y-84531247D01*
X85998207Y-84531247D02*
X85807731Y-84531247D01*
X86426779Y-84959819D02*
X86426779Y-83959819D01*
X86426779Y-83959819D02*
X86998207Y-84959819D01*
X86998207Y-84959819D02*
X86998207Y-83959819D01*
X87474398Y-84959819D02*
X87474398Y-83959819D01*
X87474398Y-83959819D02*
X87712493Y-83959819D01*
X87712493Y-83959819D02*
X87855350Y-84007438D01*
X87855350Y-84007438D02*
X87950588Y-84102676D01*
X87950588Y-84102676D02*
X87998207Y-84197914D01*
X87998207Y-84197914D02*
X88045826Y-84388390D01*
X88045826Y-84388390D02*
X88045826Y-84531247D01*
X88045826Y-84531247D02*
X87998207Y-84721723D01*
X87998207Y-84721723D02*
X87950588Y-84816961D01*
X87950588Y-84816961D02*
X87855350Y-84912200D01*
X87855350Y-84912200D02*
X87712493Y-84959819D01*
X87712493Y-84959819D02*
X87474398Y-84959819D01*
X90506779Y-84959819D02*
X90506779Y-83959819D01*
X90506779Y-83959819D02*
X91078207Y-84959819D01*
X91078207Y-84959819D02*
X91078207Y-83959819D01*
X91744874Y-83959819D02*
X91935350Y-83959819D01*
X91935350Y-83959819D02*
X92030588Y-84007438D01*
X92030588Y-84007438D02*
X92125826Y-84102676D01*
X92125826Y-84102676D02*
X92173445Y-84293152D01*
X92173445Y-84293152D02*
X92173445Y-84626485D01*
X92173445Y-84626485D02*
X92125826Y-84816961D01*
X92125826Y-84816961D02*
X92030588Y-84912200D01*
X92030588Y-84912200D02*
X91935350Y-84959819D01*
X91935350Y-84959819D02*
X91744874Y-84959819D01*
X91744874Y-84959819D02*
X91649636Y-84912200D01*
X91649636Y-84912200D02*
X91554398Y-84816961D01*
X91554398Y-84816961D02*
X91506779Y-84626485D01*
X91506779Y-84626485D02*
X91506779Y-84293152D01*
X91506779Y-84293152D02*
X91554398Y-84102676D01*
X91554398Y-84102676D02*
X91649636Y-84007438D01*
X91649636Y-84007438D02*
X91744874Y-83959819D01*
X95586779Y-84959819D02*
X95586779Y-83959819D01*
X95586779Y-83959819D02*
X96158207Y-84959819D01*
X96158207Y-84959819D02*
X96158207Y-83959819D01*
X97205826Y-84864580D02*
X97158207Y-84912200D01*
X97158207Y-84912200D02*
X97015350Y-84959819D01*
X97015350Y-84959819D02*
X96920112Y-84959819D01*
X96920112Y-84959819D02*
X96777255Y-84912200D01*
X96777255Y-84912200D02*
X96682017Y-84816961D01*
X96682017Y-84816961D02*
X96634398Y-84721723D01*
X96634398Y-84721723D02*
X96586779Y-84531247D01*
X96586779Y-84531247D02*
X96586779Y-84388390D01*
X96586779Y-84388390D02*
X96634398Y-84197914D01*
X96634398Y-84197914D02*
X96682017Y-84102676D01*
X96682017Y-84102676D02*
X96777255Y-84007438D01*
X96777255Y-84007438D02*
X96920112Y-83959819D01*
X96920112Y-83959819D02*
X97015350Y-83959819D01*
X97015350Y-83959819D02*
X97158207Y-84007438D01*
X97158207Y-84007438D02*
X97205826Y-84055057D01*
X79095665Y-84017584D02*
X79000427Y-83969965D01*
X79000427Y-83969965D02*
X78857570Y-83969965D01*
X78857570Y-83969965D02*
X78714713Y-84017584D01*
X78714713Y-84017584D02*
X78619475Y-84112822D01*
X78619475Y-84112822D02*
X78571856Y-84208060D01*
X78571856Y-84208060D02*
X78524237Y-84398536D01*
X78524237Y-84398536D02*
X78524237Y-84541393D01*
X78524237Y-84541393D02*
X78571856Y-84731869D01*
X78571856Y-84731869D02*
X78619475Y-84827107D01*
X78619475Y-84827107D02*
X78714713Y-84922346D01*
X78714713Y-84922346D02*
X78857570Y-84969965D01*
X78857570Y-84969965D02*
X78952808Y-84969965D01*
X78952808Y-84969965D02*
X79095665Y-84922346D01*
X79095665Y-84922346D02*
X79143284Y-84874726D01*
X79143284Y-84874726D02*
X79143284Y-84541393D01*
X79143284Y-84541393D02*
X78952808Y-84541393D01*
X79571856Y-84969965D02*
X79571856Y-83969965D01*
X79571856Y-83969965D02*
X80143284Y-84969965D01*
X80143284Y-84969965D02*
X80143284Y-83969965D01*
X80619475Y-84969965D02*
X80619475Y-83969965D01*
X80619475Y-83969965D02*
X80857570Y-83969965D01*
X80857570Y-83969965D02*
X81000427Y-84017584D01*
X81000427Y-84017584D02*
X81095665Y-84112822D01*
X81095665Y-84112822D02*
X81143284Y-84208060D01*
X81143284Y-84208060D02*
X81190903Y-84398536D01*
X81190903Y-84398536D02*
X81190903Y-84541393D01*
X81190903Y-84541393D02*
X81143284Y-84731869D01*
X81143284Y-84731869D02*
X81095665Y-84827107D01*
X81095665Y-84827107D02*
X81000427Y-84922346D01*
X81000427Y-84922346D02*
X80857570Y-84969965D01*
X80857570Y-84969965D02*
X80619475Y-84969965D01*
X78571856Y-86579965D02*
X78571856Y-85913298D01*
X78571856Y-85579965D02*
X78524237Y-85627584D01*
X78524237Y-85627584D02*
X78571856Y-85675203D01*
X78571856Y-85675203D02*
X78619475Y-85627584D01*
X78619475Y-85627584D02*
X78571856Y-85579965D01*
X78571856Y-85579965D02*
X78571856Y-85675203D01*
X79048046Y-85913298D02*
X79048046Y-86579965D01*
X79048046Y-86008536D02*
X79095665Y-85960917D01*
X79095665Y-85960917D02*
X79190903Y-85913298D01*
X79190903Y-85913298D02*
X79333760Y-85913298D01*
X79333760Y-85913298D02*
X79428998Y-85960917D01*
X79428998Y-85960917D02*
X79476617Y-86056155D01*
X79476617Y-86056155D02*
X79476617Y-86579965D01*
X99920588Y-34477438D02*
X99825350Y-34429819D01*
X99825350Y-34429819D02*
X99682493Y-34429819D01*
X99682493Y-34429819D02*
X99539636Y-34477438D01*
X99539636Y-34477438D02*
X99444398Y-34572676D01*
X99444398Y-34572676D02*
X99396779Y-34667914D01*
X99396779Y-34667914D02*
X99349160Y-34858390D01*
X99349160Y-34858390D02*
X99349160Y-35001247D01*
X99349160Y-35001247D02*
X99396779Y-35191723D01*
X99396779Y-35191723D02*
X99444398Y-35286961D01*
X99444398Y-35286961D02*
X99539636Y-35382200D01*
X99539636Y-35382200D02*
X99682493Y-35429819D01*
X99682493Y-35429819D02*
X99777731Y-35429819D01*
X99777731Y-35429819D02*
X99920588Y-35382200D01*
X99920588Y-35382200D02*
X99968207Y-35334580D01*
X99968207Y-35334580D02*
X99968207Y-35001247D01*
X99968207Y-35001247D02*
X99777731Y-35001247D01*
X100396779Y-35429819D02*
X100396779Y-34429819D01*
X100396779Y-34429819D02*
X100968207Y-35429819D01*
X100968207Y-35429819D02*
X100968207Y-34429819D01*
X101444398Y-35429819D02*
X101444398Y-34429819D01*
X101444398Y-34429819D02*
X101682493Y-34429819D01*
X101682493Y-34429819D02*
X101825350Y-34477438D01*
X101825350Y-34477438D02*
X101920588Y-34572676D01*
X101920588Y-34572676D02*
X101968207Y-34667914D01*
X101968207Y-34667914D02*
X102015826Y-34858390D01*
X102015826Y-34858390D02*
X102015826Y-35001247D01*
X102015826Y-35001247D02*
X101968207Y-35191723D01*
X101968207Y-35191723D02*
X101920588Y-35286961D01*
X101920588Y-35286961D02*
X101825350Y-35382200D01*
X101825350Y-35382200D02*
X101682493Y-35429819D01*
X101682493Y-35429819D02*
X101444398Y-35429819D01*
X94792969Y-34429819D02*
X94316779Y-34429819D01*
X94316779Y-34429819D02*
X94269160Y-34906009D01*
X94269160Y-34906009D02*
X94316779Y-34858390D01*
X94316779Y-34858390D02*
X94412017Y-34810771D01*
X94412017Y-34810771D02*
X94650112Y-34810771D01*
X94650112Y-34810771D02*
X94745350Y-34858390D01*
X94745350Y-34858390D02*
X94792969Y-34906009D01*
X94792969Y-34906009D02*
X94840588Y-35001247D01*
X94840588Y-35001247D02*
X94840588Y-35239342D01*
X94840588Y-35239342D02*
X94792969Y-35334580D01*
X94792969Y-35334580D02*
X94745350Y-35382200D01*
X94745350Y-35382200D02*
X94650112Y-35429819D01*
X94650112Y-35429819D02*
X94412017Y-35429819D01*
X94412017Y-35429819D02*
X94316779Y-35382200D01*
X94316779Y-35382200D02*
X94269160Y-35334580D01*
X95173922Y-34763152D02*
X95412017Y-35429819D01*
X95412017Y-35429819D02*
X95650112Y-34763152D01*
X68449819Y-57559411D02*
X68449819Y-58130839D01*
X68449819Y-57845125D02*
X67449819Y-57845125D01*
X67449819Y-57845125D02*
X67592676Y-57940363D01*
X67592676Y-57940363D02*
X67687914Y-58035601D01*
X67687914Y-58035601D02*
X67735533Y-58130839D01*
X67449819Y-56940363D02*
X67449819Y-56845125D01*
X67449819Y-56845125D02*
X67497438Y-56749887D01*
X67497438Y-56749887D02*
X67545057Y-56702268D01*
X67545057Y-56702268D02*
X67640295Y-56654649D01*
X67640295Y-56654649D02*
X67830771Y-56607030D01*
X67830771Y-56607030D02*
X68068866Y-56607030D01*
X68068866Y-56607030D02*
X68259342Y-56654649D01*
X68259342Y-56654649D02*
X68354580Y-56702268D01*
X68354580Y-56702268D02*
X68402200Y-56749887D01*
X68402200Y-56749887D02*
X68449819Y-56845125D01*
X68449819Y-56845125D02*
X68449819Y-56940363D01*
X68449819Y-56940363D02*
X68402200Y-57035601D01*
X68402200Y-57035601D02*
X68354580Y-57083220D01*
X68354580Y-57083220D02*
X68259342Y-57130839D01*
X68259342Y-57130839D02*
X68068866Y-57178458D01*
X68068866Y-57178458D02*
X67830771Y-57178458D01*
X67830771Y-57178458D02*
X67640295Y-57130839D01*
X67640295Y-57130839D02*
X67545057Y-57083220D01*
X67545057Y-57083220D02*
X67497438Y-57035601D01*
X67497438Y-57035601D02*
X67449819Y-56940363D01*
X67449819Y-55987982D02*
X67449819Y-55892744D01*
X67449819Y-55892744D02*
X67497438Y-55797506D01*
X67497438Y-55797506D02*
X67545057Y-55749887D01*
X67545057Y-55749887D02*
X67640295Y-55702268D01*
X67640295Y-55702268D02*
X67830771Y-55654649D01*
X67830771Y-55654649D02*
X68068866Y-55654649D01*
X68068866Y-55654649D02*
X68259342Y-55702268D01*
X68259342Y-55702268D02*
X68354580Y-55749887D01*
X68354580Y-55749887D02*
X68402200Y-55797506D01*
X68402200Y-55797506D02*
X68449819Y-55892744D01*
X68449819Y-55892744D02*
X68449819Y-55987982D01*
X68449819Y-55987982D02*
X68402200Y-56083220D01*
X68402200Y-56083220D02*
X68354580Y-56130839D01*
X68354580Y-56130839D02*
X68259342Y-56178458D01*
X68259342Y-56178458D02*
X68068866Y-56226077D01*
X68068866Y-56226077D02*
X67830771Y-56226077D01*
X67830771Y-56226077D02*
X67640295Y-56178458D01*
X67640295Y-56178458D02*
X67545057Y-56130839D01*
X67545057Y-56130839D02*
X67497438Y-56083220D01*
X67497438Y-56083220D02*
X67449819Y-55987982D01*
X68449819Y-55226077D02*
X67449819Y-55226077D01*
X68068866Y-55130839D02*
X68449819Y-54845125D01*
X67783152Y-54845125D02*
X68164104Y-55226077D01*
X86601541Y-34429819D02*
X87220588Y-34429819D01*
X87220588Y-34429819D02*
X86887255Y-34810771D01*
X86887255Y-34810771D02*
X87030112Y-34810771D01*
X87030112Y-34810771D02*
X87125350Y-34858390D01*
X87125350Y-34858390D02*
X87172969Y-34906009D01*
X87172969Y-34906009D02*
X87220588Y-35001247D01*
X87220588Y-35001247D02*
X87220588Y-35239342D01*
X87220588Y-35239342D02*
X87172969Y-35334580D01*
X87172969Y-35334580D02*
X87125350Y-35382200D01*
X87125350Y-35382200D02*
X87030112Y-35429819D01*
X87030112Y-35429819D02*
X86744398Y-35429819D01*
X86744398Y-35429819D02*
X86649160Y-35382200D01*
X86649160Y-35382200D02*
X86601541Y-35334580D01*
X87506303Y-34429819D02*
X87839636Y-35429819D01*
X87839636Y-35429819D02*
X88172969Y-34429819D01*
X88411065Y-34429819D02*
X89030112Y-34429819D01*
X89030112Y-34429819D02*
X88696779Y-34810771D01*
X88696779Y-34810771D02*
X88839636Y-34810771D01*
X88839636Y-34810771D02*
X88934874Y-34858390D01*
X88934874Y-34858390D02*
X88982493Y-34906009D01*
X88982493Y-34906009D02*
X89030112Y-35001247D01*
X89030112Y-35001247D02*
X89030112Y-35239342D01*
X89030112Y-35239342D02*
X88982493Y-35334580D01*
X88982493Y-35334580D02*
X88934874Y-35382200D01*
X88934874Y-35382200D02*
X88839636Y-35429819D01*
X88839636Y-35429819D02*
X88553922Y-35429819D01*
X88553922Y-35429819D02*
X88458684Y-35382200D01*
X88458684Y-35382200D02*
X88411065Y-35334580D01*
X73146526Y-84903863D02*
X72575098Y-84903863D01*
X72860812Y-84903863D02*
X72860812Y-83903863D01*
X72860812Y-83903863D02*
X72765574Y-84046720D01*
X72765574Y-84046720D02*
X72670336Y-84141958D01*
X72670336Y-84141958D02*
X72575098Y-84189577D01*
X73527479Y-83999101D02*
X73575098Y-83951482D01*
X73575098Y-83951482D02*
X73670336Y-83903863D01*
X73670336Y-83903863D02*
X73908431Y-83903863D01*
X73908431Y-83903863D02*
X74003669Y-83951482D01*
X74003669Y-83951482D02*
X74051288Y-83999101D01*
X74051288Y-83999101D02*
X74098907Y-84094339D01*
X74098907Y-84094339D02*
X74098907Y-84189577D01*
X74098907Y-84189577D02*
X74051288Y-84332434D01*
X74051288Y-84332434D02*
X73479860Y-84903863D01*
X73479860Y-84903863D02*
X74098907Y-84903863D01*
X74432241Y-84237196D02*
X74670336Y-84903863D01*
X74670336Y-84903863D02*
X74908431Y-84237196D01*
X72622717Y-86513863D02*
X72622717Y-85847196D01*
X72622717Y-85513863D02*
X72575098Y-85561482D01*
X72575098Y-85561482D02*
X72622717Y-85609101D01*
X72622717Y-85609101D02*
X72670336Y-85561482D01*
X72670336Y-85561482D02*
X72622717Y-85513863D01*
X72622717Y-85513863D02*
X72622717Y-85609101D01*
X73098907Y-85847196D02*
X73098907Y-86513863D01*
X73098907Y-85942434D02*
X73146526Y-85894815D01*
X73146526Y-85894815D02*
X73241764Y-85847196D01*
X73241764Y-85847196D02*
X73384621Y-85847196D01*
X73384621Y-85847196D02*
X73479859Y-85894815D01*
X73479859Y-85894815D02*
X73527478Y-85990053D01*
X73527478Y-85990053D02*
X73527478Y-86513863D01*
X90624819Y-43918094D02*
X89624819Y-43918094D01*
X89624819Y-43918094D02*
X89624819Y-43679999D01*
X89624819Y-43679999D02*
X89672438Y-43537142D01*
X89672438Y-43537142D02*
X89767676Y-43441904D01*
X89767676Y-43441904D02*
X89862914Y-43394285D01*
X89862914Y-43394285D02*
X90053390Y-43346666D01*
X90053390Y-43346666D02*
X90196247Y-43346666D01*
X90196247Y-43346666D02*
X90386723Y-43394285D01*
X90386723Y-43394285D02*
X90481961Y-43441904D01*
X90481961Y-43441904D02*
X90577200Y-43537142D01*
X90577200Y-43537142D02*
X90624819Y-43679999D01*
X90624819Y-43679999D02*
X90624819Y-43918094D01*
X90624819Y-42394285D02*
X90624819Y-42965713D01*
X90624819Y-42679999D02*
X89624819Y-42679999D01*
X89624819Y-42679999D02*
X89767676Y-42775237D01*
X89767676Y-42775237D02*
X89862914Y-42870475D01*
X89862914Y-42870475D02*
X89910533Y-42965713D01*
X88524819Y-47251904D02*
X87524819Y-47251904D01*
X88524819Y-46680476D02*
X87953390Y-47109047D01*
X87524819Y-46680476D02*
X88096247Y-47251904D01*
X81903809Y-28134819D02*
X81903809Y-27134819D01*
X81903809Y-27134819D02*
X82141904Y-27134819D01*
X82141904Y-27134819D02*
X82284761Y-27182438D01*
X82284761Y-27182438D02*
X82379999Y-27277676D01*
X82379999Y-27277676D02*
X82427618Y-27372914D01*
X82427618Y-27372914D02*
X82475237Y-27563390D01*
X82475237Y-27563390D02*
X82475237Y-27706247D01*
X82475237Y-27706247D02*
X82427618Y-27896723D01*
X82427618Y-27896723D02*
X82379999Y-27991961D01*
X82379999Y-27991961D02*
X82284761Y-28087200D01*
X82284761Y-28087200D02*
X82141904Y-28134819D01*
X82141904Y-28134819D02*
X81903809Y-28134819D01*
X83046666Y-28134819D02*
X82951428Y-28087200D01*
X82951428Y-28087200D02*
X82903809Y-28039580D01*
X82903809Y-28039580D02*
X82856190Y-27944342D01*
X82856190Y-27944342D02*
X82856190Y-27658628D01*
X82856190Y-27658628D02*
X82903809Y-27563390D01*
X82903809Y-27563390D02*
X82951428Y-27515771D01*
X82951428Y-27515771D02*
X83046666Y-27468152D01*
X83046666Y-27468152D02*
X83189523Y-27468152D01*
X83189523Y-27468152D02*
X83284761Y-27515771D01*
X83284761Y-27515771D02*
X83332380Y-27563390D01*
X83332380Y-27563390D02*
X83379999Y-27658628D01*
X83379999Y-27658628D02*
X83379999Y-27944342D01*
X83379999Y-27944342D02*
X83332380Y-28039580D01*
X83332380Y-28039580D02*
X83284761Y-28087200D01*
X83284761Y-28087200D02*
X83189523Y-28134819D01*
X83189523Y-28134819D02*
X83046666Y-28134819D01*
X83951428Y-28134819D02*
X83856190Y-28087200D01*
X83856190Y-28087200D02*
X83808571Y-28039580D01*
X83808571Y-28039580D02*
X83760952Y-27944342D01*
X83760952Y-27944342D02*
X83760952Y-27658628D01*
X83760952Y-27658628D02*
X83808571Y-27563390D01*
X83808571Y-27563390D02*
X83856190Y-27515771D01*
X83856190Y-27515771D02*
X83951428Y-27468152D01*
X83951428Y-27468152D02*
X84094285Y-27468152D01*
X84094285Y-27468152D02*
X84189523Y-27515771D01*
X84189523Y-27515771D02*
X84237142Y-27563390D01*
X84237142Y-27563390D02*
X84284761Y-27658628D01*
X84284761Y-27658628D02*
X84284761Y-27944342D01*
X84284761Y-27944342D02*
X84237142Y-28039580D01*
X84237142Y-28039580D02*
X84189523Y-28087200D01*
X84189523Y-28087200D02*
X84094285Y-28134819D01*
X84094285Y-28134819D02*
X83951428Y-28134819D01*
X84713333Y-28134819D02*
X84713333Y-27468152D01*
X84713333Y-27658628D02*
X84760952Y-27563390D01*
X84760952Y-27563390D02*
X84808571Y-27515771D01*
X84808571Y-27515771D02*
X84903809Y-27468152D01*
X84903809Y-27468152D02*
X84999047Y-27468152D01*
X85284762Y-28087200D02*
X85427619Y-28134819D01*
X85427619Y-28134819D02*
X85665714Y-28134819D01*
X85665714Y-28134819D02*
X85760952Y-28087200D01*
X85760952Y-28087200D02*
X85808571Y-28039580D01*
X85808571Y-28039580D02*
X85856190Y-27944342D01*
X85856190Y-27944342D02*
X85856190Y-27849104D01*
X85856190Y-27849104D02*
X85808571Y-27753866D01*
X85808571Y-27753866D02*
X85760952Y-27706247D01*
X85760952Y-27706247D02*
X85665714Y-27658628D01*
X85665714Y-27658628D02*
X85475238Y-27611009D01*
X85475238Y-27611009D02*
X85380000Y-27563390D01*
X85380000Y-27563390D02*
X85332381Y-27515771D01*
X85332381Y-27515771D02*
X85284762Y-27420533D01*
X85284762Y-27420533D02*
X85284762Y-27325295D01*
X85284762Y-27325295D02*
X85332381Y-27230057D01*
X85332381Y-27230057D02*
X85380000Y-27182438D01*
X85380000Y-27182438D02*
X85475238Y-27134819D01*
X85475238Y-27134819D02*
X85713333Y-27134819D01*
X85713333Y-27134819D02*
X85856190Y-27182438D01*
X86665714Y-28087200D02*
X86570476Y-28134819D01*
X86570476Y-28134819D02*
X86380000Y-28134819D01*
X86380000Y-28134819D02*
X86284762Y-28087200D01*
X86284762Y-28087200D02*
X86237143Y-27991961D01*
X86237143Y-27991961D02*
X86237143Y-27611009D01*
X86237143Y-27611009D02*
X86284762Y-27515771D01*
X86284762Y-27515771D02*
X86380000Y-27468152D01*
X86380000Y-27468152D02*
X86570476Y-27468152D01*
X86570476Y-27468152D02*
X86665714Y-27515771D01*
X86665714Y-27515771D02*
X86713333Y-27611009D01*
X86713333Y-27611009D02*
X86713333Y-27706247D01*
X86713333Y-27706247D02*
X86237143Y-27801485D01*
X87141905Y-27468152D02*
X87141905Y-28134819D01*
X87141905Y-27563390D02*
X87189524Y-27515771D01*
X87189524Y-27515771D02*
X87284762Y-27468152D01*
X87284762Y-27468152D02*
X87427619Y-27468152D01*
X87427619Y-27468152D02*
X87522857Y-27515771D01*
X87522857Y-27515771D02*
X87570476Y-27611009D01*
X87570476Y-27611009D02*
X87570476Y-28134819D01*
X87999048Y-28087200D02*
X88094286Y-28134819D01*
X88094286Y-28134819D02*
X88284762Y-28134819D01*
X88284762Y-28134819D02*
X88380000Y-28087200D01*
X88380000Y-28087200D02*
X88427619Y-27991961D01*
X88427619Y-27991961D02*
X88427619Y-27944342D01*
X88427619Y-27944342D02*
X88380000Y-27849104D01*
X88380000Y-27849104D02*
X88284762Y-27801485D01*
X88284762Y-27801485D02*
X88141905Y-27801485D01*
X88141905Y-27801485D02*
X88046667Y-27753866D01*
X88046667Y-27753866D02*
X87999048Y-27658628D01*
X87999048Y-27658628D02*
X87999048Y-27611009D01*
X87999048Y-27611009D02*
X88046667Y-27515771D01*
X88046667Y-27515771D02*
X88141905Y-27468152D01*
X88141905Y-27468152D02*
X88284762Y-27468152D01*
X88284762Y-27468152D02*
X88380000Y-27515771D01*
X88999048Y-28134819D02*
X88903810Y-28087200D01*
X88903810Y-28087200D02*
X88856191Y-28039580D01*
X88856191Y-28039580D02*
X88808572Y-27944342D01*
X88808572Y-27944342D02*
X88808572Y-27658628D01*
X88808572Y-27658628D02*
X88856191Y-27563390D01*
X88856191Y-27563390D02*
X88903810Y-27515771D01*
X88903810Y-27515771D02*
X88999048Y-27468152D01*
X88999048Y-27468152D02*
X89141905Y-27468152D01*
X89141905Y-27468152D02*
X89237143Y-27515771D01*
X89237143Y-27515771D02*
X89284762Y-27563390D01*
X89284762Y-27563390D02*
X89332381Y-27658628D01*
X89332381Y-27658628D02*
X89332381Y-27944342D01*
X89332381Y-27944342D02*
X89284762Y-28039580D01*
X89284762Y-28039580D02*
X89237143Y-28087200D01*
X89237143Y-28087200D02*
X89141905Y-28134819D01*
X89141905Y-28134819D02*
X88999048Y-28134819D01*
X89760953Y-28134819D02*
X89760953Y-27468152D01*
X89760953Y-27658628D02*
X89808572Y-27563390D01*
X89808572Y-27563390D02*
X89856191Y-27515771D01*
X89856191Y-27515771D02*
X89951429Y-27468152D01*
X89951429Y-27468152D02*
X90046667Y-27468152D01*
X90903810Y-28134819D02*
X90332382Y-28134819D01*
X90618096Y-28134819D02*
X90618096Y-27134819D01*
X90618096Y-27134819D02*
X90522858Y-27277676D01*
X90522858Y-27277676D02*
X90427620Y-27372914D01*
X90427620Y-27372914D02*
X90332382Y-27420533D01*
X95800057Y-43275238D02*
X95752438Y-43370476D01*
X95752438Y-43370476D02*
X95657200Y-43465714D01*
X95657200Y-43465714D02*
X95514342Y-43608571D01*
X95514342Y-43608571D02*
X95466723Y-43703809D01*
X95466723Y-43703809D02*
X95466723Y-43799047D01*
X95704819Y-43751428D02*
X95657200Y-43846666D01*
X95657200Y-43846666D02*
X95561961Y-43941904D01*
X95561961Y-43941904D02*
X95371485Y-43989523D01*
X95371485Y-43989523D02*
X95038152Y-43989523D01*
X95038152Y-43989523D02*
X94847676Y-43941904D01*
X94847676Y-43941904D02*
X94752438Y-43846666D01*
X94752438Y-43846666D02*
X94704819Y-43751428D01*
X94704819Y-43751428D02*
X94704819Y-43560952D01*
X94704819Y-43560952D02*
X94752438Y-43465714D01*
X94752438Y-43465714D02*
X94847676Y-43370476D01*
X94847676Y-43370476D02*
X95038152Y-43322857D01*
X95038152Y-43322857D02*
X95371485Y-43322857D01*
X95371485Y-43322857D02*
X95561961Y-43370476D01*
X95561961Y-43370476D02*
X95657200Y-43465714D01*
X95657200Y-43465714D02*
X95704819Y-43560952D01*
X95704819Y-43560952D02*
X95704819Y-43751428D01*
X95704819Y-42370476D02*
X95704819Y-42941904D01*
X95704819Y-42656190D02*
X94704819Y-42656190D01*
X94704819Y-42656190D02*
X94847676Y-42751428D01*
X94847676Y-42751428D02*
X94942914Y-42846666D01*
X94942914Y-42846666D02*
X94990533Y-42941904D01*
X85544819Y-43346666D02*
X85068628Y-43679999D01*
X85544819Y-43918094D02*
X84544819Y-43918094D01*
X84544819Y-43918094D02*
X84544819Y-43537142D01*
X84544819Y-43537142D02*
X84592438Y-43441904D01*
X84592438Y-43441904D02*
X84640057Y-43394285D01*
X84640057Y-43394285D02*
X84735295Y-43346666D01*
X84735295Y-43346666D02*
X84878152Y-43346666D01*
X84878152Y-43346666D02*
X84973390Y-43394285D01*
X84973390Y-43394285D02*
X85021009Y-43441904D01*
X85021009Y-43441904D02*
X85068628Y-43537142D01*
X85068628Y-43537142D02*
X85068628Y-43918094D01*
X84640057Y-42965713D02*
X84592438Y-42918094D01*
X84592438Y-42918094D02*
X84544819Y-42822856D01*
X84544819Y-42822856D02*
X84544819Y-42584761D01*
X84544819Y-42584761D02*
X84592438Y-42489523D01*
X84592438Y-42489523D02*
X84640057Y-42441904D01*
X84640057Y-42441904D02*
X84735295Y-42394285D01*
X84735295Y-42394285D02*
X84830533Y-42394285D01*
X84830533Y-42394285D02*
X84973390Y-42441904D01*
X84973390Y-42441904D02*
X85544819Y-43013332D01*
X85544819Y-43013332D02*
X85544819Y-42394285D01*
D11*
X68502580Y-74168095D02*
X67693057Y-74168095D01*
X67693057Y-74168095D02*
X67597819Y-74215714D01*
X67597819Y-74215714D02*
X67550200Y-74263333D01*
X67550200Y-74263333D02*
X67502580Y-74358571D01*
X67502580Y-74358571D02*
X67502580Y-74549047D01*
X67502580Y-74549047D02*
X67550200Y-74644285D01*
X67550200Y-74644285D02*
X67597819Y-74691904D01*
X67597819Y-74691904D02*
X67693057Y-74739523D01*
X67693057Y-74739523D02*
X68502580Y-74739523D01*
X68407342Y-75168095D02*
X68454961Y-75215714D01*
X68454961Y-75215714D02*
X68502580Y-75310952D01*
X68502580Y-75310952D02*
X68502580Y-75549047D01*
X68502580Y-75549047D02*
X68454961Y-75644285D01*
X68454961Y-75644285D02*
X68407342Y-75691904D01*
X68407342Y-75691904D02*
X68312104Y-75739523D01*
X68312104Y-75739523D02*
X68216866Y-75739523D01*
X68216866Y-75739523D02*
X68074009Y-75691904D01*
X68074009Y-75691904D02*
X67502580Y-75120476D01*
X67502580Y-75120476D02*
X67502580Y-75739523D01*
X51927580Y-64224360D02*
X51927580Y-64414836D01*
X51927580Y-64414836D02*
X51879961Y-64510074D01*
X51879961Y-64510074D02*
X51784723Y-64605312D01*
X51784723Y-64605312D02*
X51594247Y-64652931D01*
X51594247Y-64652931D02*
X51260914Y-64652931D01*
X51260914Y-64652931D02*
X51070438Y-64605312D01*
X51070438Y-64605312D02*
X50975200Y-64510074D01*
X50975200Y-64510074D02*
X50927580Y-64414836D01*
X50927580Y-64414836D02*
X50927580Y-64224360D01*
X50927580Y-64224360D02*
X50975200Y-64129122D01*
X50975200Y-64129122D02*
X51070438Y-64033884D01*
X51070438Y-64033884D02*
X51260914Y-63986265D01*
X51260914Y-63986265D02*
X51594247Y-63986265D01*
X51594247Y-63986265D02*
X51784723Y-64033884D01*
X51784723Y-64033884D02*
X51879961Y-64129122D01*
X51879961Y-64129122D02*
X51927580Y-64224360D01*
X51927580Y-65081503D02*
X51118057Y-65081503D01*
X51118057Y-65081503D02*
X51022819Y-65129122D01*
X51022819Y-65129122D02*
X50975200Y-65176741D01*
X50975200Y-65176741D02*
X50927580Y-65271979D01*
X50927580Y-65271979D02*
X50927580Y-65462455D01*
X50927580Y-65462455D02*
X50975200Y-65557693D01*
X50975200Y-65557693D02*
X51022819Y-65605312D01*
X51022819Y-65605312D02*
X51118057Y-65652931D01*
X51118057Y-65652931D02*
X51927580Y-65652931D01*
X51927580Y-65986265D02*
X51927580Y-66557693D01*
X50927580Y-66271979D02*
X51927580Y-66271979D01*
X51308533Y-67652932D02*
X51308533Y-68414837D01*
X71687580Y-64224360D02*
X71687580Y-64414836D01*
X71687580Y-64414836D02*
X71639961Y-64510074D01*
X71639961Y-64510074D02*
X71544723Y-64605312D01*
X71544723Y-64605312D02*
X71354247Y-64652931D01*
X71354247Y-64652931D02*
X71020914Y-64652931D01*
X71020914Y-64652931D02*
X70830438Y-64605312D01*
X70830438Y-64605312D02*
X70735200Y-64510074D01*
X70735200Y-64510074D02*
X70687580Y-64414836D01*
X70687580Y-64414836D02*
X70687580Y-64224360D01*
X70687580Y-64224360D02*
X70735200Y-64129122D01*
X70735200Y-64129122D02*
X70830438Y-64033884D01*
X70830438Y-64033884D02*
X71020914Y-63986265D01*
X71020914Y-63986265D02*
X71354247Y-63986265D01*
X71354247Y-63986265D02*
X71544723Y-64033884D01*
X71544723Y-64033884D02*
X71639961Y-64129122D01*
X71639961Y-64129122D02*
X71687580Y-64224360D01*
X71687580Y-65081503D02*
X70878057Y-65081503D01*
X70878057Y-65081503D02*
X70782819Y-65129122D01*
X70782819Y-65129122D02*
X70735200Y-65176741D01*
X70735200Y-65176741D02*
X70687580Y-65271979D01*
X70687580Y-65271979D02*
X70687580Y-65462455D01*
X70687580Y-65462455D02*
X70735200Y-65557693D01*
X70735200Y-65557693D02*
X70782819Y-65605312D01*
X70782819Y-65605312D02*
X70878057Y-65652931D01*
X70878057Y-65652931D02*
X71687580Y-65652931D01*
X71687580Y-65986265D02*
X71687580Y-66557693D01*
X70687580Y-66271979D02*
X71687580Y-66271979D01*
X71068533Y-67652932D02*
X71068533Y-68414837D01*
X70687580Y-68033884D02*
X71449485Y-68033884D01*
X51087580Y-83033884D02*
X52087580Y-83033884D01*
X51087580Y-83510074D02*
X52087580Y-83510074D01*
X52087580Y-83510074D02*
X51087580Y-84081502D01*
X51087580Y-84081502D02*
X52087580Y-84081502D01*
X51468533Y-85319598D02*
X51468533Y-86081503D01*
X70487580Y-82833884D02*
X71487580Y-82833884D01*
X70487580Y-83310074D02*
X71487580Y-83310074D01*
X71487580Y-83310074D02*
X70487580Y-83881502D01*
X70487580Y-83881502D02*
X71487580Y-83881502D01*
X70868533Y-85119598D02*
X70868533Y-85881503D01*
X70487580Y-85500550D02*
X71249485Y-85500550D01*
D10*
X73057143Y-74114819D02*
X73057143Y-73114819D01*
X73057143Y-73114819D02*
X73438095Y-73114819D01*
X73438095Y-73114819D02*
X73533333Y-73162438D01*
X73533333Y-73162438D02*
X73580952Y-73210057D01*
X73580952Y-73210057D02*
X73628571Y-73305295D01*
X73628571Y-73305295D02*
X73628571Y-73448152D01*
X73628571Y-73448152D02*
X73580952Y-73543390D01*
X73580952Y-73543390D02*
X73533333Y-73591009D01*
X73533333Y-73591009D02*
X73438095Y-73638628D01*
X73438095Y-73638628D02*
X73057143Y-73638628D01*
X74200000Y-74114819D02*
X74104762Y-74067200D01*
X74104762Y-74067200D02*
X74057143Y-74019580D01*
X74057143Y-74019580D02*
X74009524Y-73924342D01*
X74009524Y-73924342D02*
X74009524Y-73638628D01*
X74009524Y-73638628D02*
X74057143Y-73543390D01*
X74057143Y-73543390D02*
X74104762Y-73495771D01*
X74104762Y-73495771D02*
X74200000Y-73448152D01*
X74200000Y-73448152D02*
X74342857Y-73448152D01*
X74342857Y-73448152D02*
X74438095Y-73495771D01*
X74438095Y-73495771D02*
X74485714Y-73543390D01*
X74485714Y-73543390D02*
X74533333Y-73638628D01*
X74533333Y-73638628D02*
X74533333Y-73924342D01*
X74533333Y-73924342D02*
X74485714Y-74019580D01*
X74485714Y-74019580D02*
X74438095Y-74067200D01*
X74438095Y-74067200D02*
X74342857Y-74114819D01*
X74342857Y-74114819D02*
X74200000Y-74114819D01*
X74866667Y-73448152D02*
X75057143Y-74114819D01*
X75057143Y-74114819D02*
X75247619Y-73638628D01*
X75247619Y-73638628D02*
X75438095Y-74114819D01*
X75438095Y-74114819D02*
X75628571Y-73448152D01*
X76390476Y-74067200D02*
X76295238Y-74114819D01*
X76295238Y-74114819D02*
X76104762Y-74114819D01*
X76104762Y-74114819D02*
X76009524Y-74067200D01*
X76009524Y-74067200D02*
X75961905Y-73971961D01*
X75961905Y-73971961D02*
X75961905Y-73591009D01*
X75961905Y-73591009D02*
X76009524Y-73495771D01*
X76009524Y-73495771D02*
X76104762Y-73448152D01*
X76104762Y-73448152D02*
X76295238Y-73448152D01*
X76295238Y-73448152D02*
X76390476Y-73495771D01*
X76390476Y-73495771D02*
X76438095Y-73591009D01*
X76438095Y-73591009D02*
X76438095Y-73686247D01*
X76438095Y-73686247D02*
X75961905Y-73781485D01*
X76866667Y-74114819D02*
X76866667Y-73448152D01*
X76866667Y-73638628D02*
X76914286Y-73543390D01*
X76914286Y-73543390D02*
X76961905Y-73495771D01*
X76961905Y-73495771D02*
X77057143Y-73448152D01*
X77057143Y-73448152D02*
X77152381Y-73448152D01*
X77485715Y-74114819D02*
X77485715Y-73114819D01*
X77961905Y-73448152D02*
X77961905Y-74114819D01*
X77961905Y-73543390D02*
X78009524Y-73495771D01*
X78009524Y-73495771D02*
X78104762Y-73448152D01*
X78104762Y-73448152D02*
X78247619Y-73448152D01*
X78247619Y-73448152D02*
X78342857Y-73495771D01*
X78342857Y-73495771D02*
X78390476Y-73591009D01*
X78390476Y-73591009D02*
X78390476Y-74114819D01*
X79390476Y-74114819D02*
X78819048Y-74114819D01*
X79104762Y-74114819D02*
X79104762Y-73114819D01*
X79104762Y-73114819D02*
X79009524Y-73257676D01*
X79009524Y-73257676D02*
X78914286Y-73352914D01*
X78914286Y-73352914D02*
X78819048Y-73400533D01*
X62160602Y-49706593D02*
X61684411Y-50039926D01*
X62160602Y-50278021D02*
X61160602Y-50278021D01*
X61160602Y-50278021D02*
X61160602Y-49897069D01*
X61160602Y-49897069D02*
X61208221Y-49801831D01*
X61208221Y-49801831D02*
X61255840Y-49754212D01*
X61255840Y-49754212D02*
X61351078Y-49706593D01*
X61351078Y-49706593D02*
X61493935Y-49706593D01*
X61493935Y-49706593D02*
X61589173Y-49754212D01*
X61589173Y-49754212D02*
X61636792Y-49801831D01*
X61636792Y-49801831D02*
X61684411Y-49897069D01*
X61684411Y-49897069D02*
X61684411Y-50278021D01*
X61160602Y-49373259D02*
X61160602Y-48754212D01*
X61160602Y-48754212D02*
X61541554Y-49087545D01*
X61541554Y-49087545D02*
X61541554Y-48944688D01*
X61541554Y-48944688D02*
X61589173Y-48849450D01*
X61589173Y-48849450D02*
X61636792Y-48801831D01*
X61636792Y-48801831D02*
X61732030Y-48754212D01*
X61732030Y-48754212D02*
X61970125Y-48754212D01*
X61970125Y-48754212D02*
X62065363Y-48801831D01*
X62065363Y-48801831D02*
X62112983Y-48849450D01*
X62112983Y-48849450D02*
X62160602Y-48944688D01*
X62160602Y-48944688D02*
X62160602Y-49230402D01*
X62160602Y-49230402D02*
X62112983Y-49325640D01*
X62112983Y-49325640D02*
X62065363Y-49373259D01*
X105864819Y-43918094D02*
X104864819Y-43918094D01*
X104864819Y-43918094D02*
X104864819Y-43679999D01*
X104864819Y-43679999D02*
X104912438Y-43537142D01*
X104912438Y-43537142D02*
X105007676Y-43441904D01*
X105007676Y-43441904D02*
X105102914Y-43394285D01*
X105102914Y-43394285D02*
X105293390Y-43346666D01*
X105293390Y-43346666D02*
X105436247Y-43346666D01*
X105436247Y-43346666D02*
X105626723Y-43394285D01*
X105626723Y-43394285D02*
X105721961Y-43441904D01*
X105721961Y-43441904D02*
X105817200Y-43537142D01*
X105817200Y-43537142D02*
X105864819Y-43679999D01*
X105864819Y-43679999D02*
X105864819Y-43918094D01*
X104960057Y-42965713D02*
X104912438Y-42918094D01*
X104912438Y-42918094D02*
X104864819Y-42822856D01*
X104864819Y-42822856D02*
X104864819Y-42584761D01*
X104864819Y-42584761D02*
X104912438Y-42489523D01*
X104912438Y-42489523D02*
X104960057Y-42441904D01*
X104960057Y-42441904D02*
X105055295Y-42394285D01*
X105055295Y-42394285D02*
X105150533Y-42394285D01*
X105150533Y-42394285D02*
X105293390Y-42441904D01*
X105293390Y-42441904D02*
X105864819Y-43013332D01*
X105864819Y-43013332D02*
X105864819Y-42394285D01*
X103764819Y-47251904D02*
X102764819Y-47251904D01*
X103764819Y-46680476D02*
X103193390Y-47109047D01*
X102764819Y-46680476D02*
X103336247Y-47251904D01*
X105275714Y-28134819D02*
X105275714Y-27134819D01*
X105275714Y-27134819D02*
X105609047Y-27849104D01*
X105609047Y-27849104D02*
X105942380Y-27134819D01*
X105942380Y-27134819D02*
X105942380Y-28134819D01*
X106561428Y-28134819D02*
X106466190Y-28087200D01*
X106466190Y-28087200D02*
X106418571Y-28039580D01*
X106418571Y-28039580D02*
X106370952Y-27944342D01*
X106370952Y-27944342D02*
X106370952Y-27658628D01*
X106370952Y-27658628D02*
X106418571Y-27563390D01*
X106418571Y-27563390D02*
X106466190Y-27515771D01*
X106466190Y-27515771D02*
X106561428Y-27468152D01*
X106561428Y-27468152D02*
X106704285Y-27468152D01*
X106704285Y-27468152D02*
X106799523Y-27515771D01*
X106799523Y-27515771D02*
X106847142Y-27563390D01*
X106847142Y-27563390D02*
X106894761Y-27658628D01*
X106894761Y-27658628D02*
X106894761Y-27944342D01*
X106894761Y-27944342D02*
X106847142Y-28039580D01*
X106847142Y-28039580D02*
X106799523Y-28087200D01*
X106799523Y-28087200D02*
X106704285Y-28134819D01*
X106704285Y-28134819D02*
X106561428Y-28134819D01*
X107180476Y-27468152D02*
X107561428Y-27468152D01*
X107323333Y-27134819D02*
X107323333Y-27991961D01*
X107323333Y-27991961D02*
X107370952Y-28087200D01*
X107370952Y-28087200D02*
X107466190Y-28134819D01*
X107466190Y-28134819D02*
X107561428Y-28134819D01*
X107894762Y-28134819D02*
X107894762Y-27468152D01*
X107894762Y-27134819D02*
X107847143Y-27182438D01*
X107847143Y-27182438D02*
X107894762Y-27230057D01*
X107894762Y-27230057D02*
X107942381Y-27182438D01*
X107942381Y-27182438D02*
X107894762Y-27134819D01*
X107894762Y-27134819D02*
X107894762Y-27230057D01*
X108513809Y-28134819D02*
X108418571Y-28087200D01*
X108418571Y-28087200D02*
X108370952Y-28039580D01*
X108370952Y-28039580D02*
X108323333Y-27944342D01*
X108323333Y-27944342D02*
X108323333Y-27658628D01*
X108323333Y-27658628D02*
X108370952Y-27563390D01*
X108370952Y-27563390D02*
X108418571Y-27515771D01*
X108418571Y-27515771D02*
X108513809Y-27468152D01*
X108513809Y-27468152D02*
X108656666Y-27468152D01*
X108656666Y-27468152D02*
X108751904Y-27515771D01*
X108751904Y-27515771D02*
X108799523Y-27563390D01*
X108799523Y-27563390D02*
X108847142Y-27658628D01*
X108847142Y-27658628D02*
X108847142Y-27944342D01*
X108847142Y-27944342D02*
X108799523Y-28039580D01*
X108799523Y-28039580D02*
X108751904Y-28087200D01*
X108751904Y-28087200D02*
X108656666Y-28134819D01*
X108656666Y-28134819D02*
X108513809Y-28134819D01*
X109275714Y-27468152D02*
X109275714Y-28134819D01*
X109275714Y-27563390D02*
X109323333Y-27515771D01*
X109323333Y-27515771D02*
X109418571Y-27468152D01*
X109418571Y-27468152D02*
X109561428Y-27468152D01*
X109561428Y-27468152D02*
X109656666Y-27515771D01*
X109656666Y-27515771D02*
X109704285Y-27611009D01*
X109704285Y-27611009D02*
X109704285Y-28134819D01*
X110132857Y-28087200D02*
X110275714Y-28134819D01*
X110275714Y-28134819D02*
X110513809Y-28134819D01*
X110513809Y-28134819D02*
X110609047Y-28087200D01*
X110609047Y-28087200D02*
X110656666Y-28039580D01*
X110656666Y-28039580D02*
X110704285Y-27944342D01*
X110704285Y-27944342D02*
X110704285Y-27849104D01*
X110704285Y-27849104D02*
X110656666Y-27753866D01*
X110656666Y-27753866D02*
X110609047Y-27706247D01*
X110609047Y-27706247D02*
X110513809Y-27658628D01*
X110513809Y-27658628D02*
X110323333Y-27611009D01*
X110323333Y-27611009D02*
X110228095Y-27563390D01*
X110228095Y-27563390D02*
X110180476Y-27515771D01*
X110180476Y-27515771D02*
X110132857Y-27420533D01*
X110132857Y-27420533D02*
X110132857Y-27325295D01*
X110132857Y-27325295D02*
X110180476Y-27230057D01*
X110180476Y-27230057D02*
X110228095Y-27182438D01*
X110228095Y-27182438D02*
X110323333Y-27134819D01*
X110323333Y-27134819D02*
X110561428Y-27134819D01*
X110561428Y-27134819D02*
X110704285Y-27182438D01*
X111513809Y-28087200D02*
X111418571Y-28134819D01*
X111418571Y-28134819D02*
X111228095Y-28134819D01*
X111228095Y-28134819D02*
X111132857Y-28087200D01*
X111132857Y-28087200D02*
X111085238Y-27991961D01*
X111085238Y-27991961D02*
X111085238Y-27611009D01*
X111085238Y-27611009D02*
X111132857Y-27515771D01*
X111132857Y-27515771D02*
X111228095Y-27468152D01*
X111228095Y-27468152D02*
X111418571Y-27468152D01*
X111418571Y-27468152D02*
X111513809Y-27515771D01*
X111513809Y-27515771D02*
X111561428Y-27611009D01*
X111561428Y-27611009D02*
X111561428Y-27706247D01*
X111561428Y-27706247D02*
X111085238Y-27801485D01*
X111990000Y-27468152D02*
X111990000Y-28134819D01*
X111990000Y-27563390D02*
X112037619Y-27515771D01*
X112037619Y-27515771D02*
X112132857Y-27468152D01*
X112132857Y-27468152D02*
X112275714Y-27468152D01*
X112275714Y-27468152D02*
X112370952Y-27515771D01*
X112370952Y-27515771D02*
X112418571Y-27611009D01*
X112418571Y-27611009D02*
X112418571Y-28134819D01*
X112847143Y-28087200D02*
X112942381Y-28134819D01*
X112942381Y-28134819D02*
X113132857Y-28134819D01*
X113132857Y-28134819D02*
X113228095Y-28087200D01*
X113228095Y-28087200D02*
X113275714Y-27991961D01*
X113275714Y-27991961D02*
X113275714Y-27944342D01*
X113275714Y-27944342D02*
X113228095Y-27849104D01*
X113228095Y-27849104D02*
X113132857Y-27801485D01*
X113132857Y-27801485D02*
X112990000Y-27801485D01*
X112990000Y-27801485D02*
X112894762Y-27753866D01*
X112894762Y-27753866D02*
X112847143Y-27658628D01*
X112847143Y-27658628D02*
X112847143Y-27611009D01*
X112847143Y-27611009D02*
X112894762Y-27515771D01*
X112894762Y-27515771D02*
X112990000Y-27468152D01*
X112990000Y-27468152D02*
X113132857Y-27468152D01*
X113132857Y-27468152D02*
X113228095Y-27515771D01*
X113847143Y-28134819D02*
X113751905Y-28087200D01*
X113751905Y-28087200D02*
X113704286Y-28039580D01*
X113704286Y-28039580D02*
X113656667Y-27944342D01*
X113656667Y-27944342D02*
X113656667Y-27658628D01*
X113656667Y-27658628D02*
X113704286Y-27563390D01*
X113704286Y-27563390D02*
X113751905Y-27515771D01*
X113751905Y-27515771D02*
X113847143Y-27468152D01*
X113847143Y-27468152D02*
X113990000Y-27468152D01*
X113990000Y-27468152D02*
X114085238Y-27515771D01*
X114085238Y-27515771D02*
X114132857Y-27563390D01*
X114132857Y-27563390D02*
X114180476Y-27658628D01*
X114180476Y-27658628D02*
X114180476Y-27944342D01*
X114180476Y-27944342D02*
X114132857Y-28039580D01*
X114132857Y-28039580D02*
X114085238Y-28087200D01*
X114085238Y-28087200D02*
X113990000Y-28134819D01*
X113990000Y-28134819D02*
X113847143Y-28134819D01*
X114609048Y-28134819D02*
X114609048Y-27468152D01*
X114609048Y-27658628D02*
X114656667Y-27563390D01*
X114656667Y-27563390D02*
X114704286Y-27515771D01*
X114704286Y-27515771D02*
X114799524Y-27468152D01*
X114799524Y-27468152D02*
X114894762Y-27468152D01*
X115751905Y-28134819D02*
X115180477Y-28134819D01*
X115466191Y-28134819D02*
X115466191Y-27134819D01*
X115466191Y-27134819D02*
X115370953Y-27277676D01*
X115370953Y-27277676D02*
X115275715Y-27372914D01*
X115275715Y-27372914D02*
X115180477Y-27420533D01*
X81734819Y-43346666D02*
X81258628Y-43679999D01*
X81734819Y-43918094D02*
X80734819Y-43918094D01*
X80734819Y-43918094D02*
X80734819Y-43537142D01*
X80734819Y-43537142D02*
X80782438Y-43441904D01*
X80782438Y-43441904D02*
X80830057Y-43394285D01*
X80830057Y-43394285D02*
X80925295Y-43346666D01*
X80925295Y-43346666D02*
X81068152Y-43346666D01*
X81068152Y-43346666D02*
X81163390Y-43394285D01*
X81163390Y-43394285D02*
X81211009Y-43441904D01*
X81211009Y-43441904D02*
X81258628Y-43537142D01*
X81258628Y-43537142D02*
X81258628Y-43918094D01*
X81734819Y-42394285D02*
X81734819Y-42965713D01*
X81734819Y-42679999D02*
X80734819Y-42679999D01*
X80734819Y-42679999D02*
X80877676Y-42775237D01*
X80877676Y-42775237D02*
X80972914Y-42870475D01*
X80972914Y-42870475D02*
X81020533Y-42965713D01*
X112310057Y-43275238D02*
X112262438Y-43370476D01*
X112262438Y-43370476D02*
X112167200Y-43465714D01*
X112167200Y-43465714D02*
X112024342Y-43608571D01*
X112024342Y-43608571D02*
X111976723Y-43703809D01*
X111976723Y-43703809D02*
X111976723Y-43799047D01*
X112214819Y-43751428D02*
X112167200Y-43846666D01*
X112167200Y-43846666D02*
X112071961Y-43941904D01*
X112071961Y-43941904D02*
X111881485Y-43989523D01*
X111881485Y-43989523D02*
X111548152Y-43989523D01*
X111548152Y-43989523D02*
X111357676Y-43941904D01*
X111357676Y-43941904D02*
X111262438Y-43846666D01*
X111262438Y-43846666D02*
X111214819Y-43751428D01*
X111214819Y-43751428D02*
X111214819Y-43560952D01*
X111214819Y-43560952D02*
X111262438Y-43465714D01*
X111262438Y-43465714D02*
X111357676Y-43370476D01*
X111357676Y-43370476D02*
X111548152Y-43322857D01*
X111548152Y-43322857D02*
X111881485Y-43322857D01*
X111881485Y-43322857D02*
X112071961Y-43370476D01*
X112071961Y-43370476D02*
X112167200Y-43465714D01*
X112167200Y-43465714D02*
X112214819Y-43560952D01*
X112214819Y-43560952D02*
X112214819Y-43751428D01*
X111310057Y-42941904D02*
X111262438Y-42894285D01*
X111262438Y-42894285D02*
X111214819Y-42799047D01*
X111214819Y-42799047D02*
X111214819Y-42560952D01*
X111214819Y-42560952D02*
X111262438Y-42465714D01*
X111262438Y-42465714D02*
X111310057Y-42418095D01*
X111310057Y-42418095D02*
X111405295Y-42370476D01*
X111405295Y-42370476D02*
X111500533Y-42370476D01*
X111500533Y-42370476D02*
X111643390Y-42418095D01*
X111643390Y-42418095D02*
X112214819Y-42989523D01*
X112214819Y-42989523D02*
X112214819Y-42370476D01*
X69034819Y-49696666D02*
X68558628Y-50029999D01*
X69034819Y-50268094D02*
X68034819Y-50268094D01*
X68034819Y-50268094D02*
X68034819Y-49887142D01*
X68034819Y-49887142D02*
X68082438Y-49791904D01*
X68082438Y-49791904D02*
X68130057Y-49744285D01*
X68130057Y-49744285D02*
X68225295Y-49696666D01*
X68225295Y-49696666D02*
X68368152Y-49696666D01*
X68368152Y-49696666D02*
X68463390Y-49744285D01*
X68463390Y-49744285D02*
X68511009Y-49791904D01*
X68511009Y-49791904D02*
X68558628Y-49887142D01*
X68558628Y-49887142D02*
X68558628Y-50268094D01*
X68034819Y-48791904D02*
X68034819Y-49268094D01*
X68034819Y-49268094D02*
X68511009Y-49315713D01*
X68511009Y-49315713D02*
X68463390Y-49268094D01*
X68463390Y-49268094D02*
X68415771Y-49172856D01*
X68415771Y-49172856D02*
X68415771Y-48934761D01*
X68415771Y-48934761D02*
X68463390Y-48839523D01*
X68463390Y-48839523D02*
X68511009Y-48791904D01*
X68511009Y-48791904D02*
X68606247Y-48744285D01*
X68606247Y-48744285D02*
X68844342Y-48744285D01*
X68844342Y-48744285D02*
X68939580Y-48791904D01*
X68939580Y-48791904D02*
X68987200Y-48839523D01*
X68987200Y-48839523D02*
X69034819Y-48934761D01*
X69034819Y-48934761D02*
X69034819Y-49172856D01*
X69034819Y-49172856D02*
X68987200Y-49268094D01*
X68987200Y-49268094D02*
X68939580Y-49315713D01*
X65224819Y-49696666D02*
X64748628Y-50029999D01*
X65224819Y-50268094D02*
X64224819Y-50268094D01*
X64224819Y-50268094D02*
X64224819Y-49887142D01*
X64224819Y-49887142D02*
X64272438Y-49791904D01*
X64272438Y-49791904D02*
X64320057Y-49744285D01*
X64320057Y-49744285D02*
X64415295Y-49696666D01*
X64415295Y-49696666D02*
X64558152Y-49696666D01*
X64558152Y-49696666D02*
X64653390Y-49744285D01*
X64653390Y-49744285D02*
X64701009Y-49791904D01*
X64701009Y-49791904D02*
X64748628Y-49887142D01*
X64748628Y-49887142D02*
X64748628Y-50268094D01*
X64558152Y-48839523D02*
X65224819Y-48839523D01*
X64177200Y-49077618D02*
X64891485Y-49315713D01*
X64891485Y-49315713D02*
X64891485Y-48696666D01*
X92956666Y-27134819D02*
X93528094Y-27134819D01*
X93242380Y-28134819D02*
X93242380Y-27134819D01*
X94242380Y-28087200D02*
X94147142Y-28134819D01*
X94147142Y-28134819D02*
X93956666Y-28134819D01*
X93956666Y-28134819D02*
X93861428Y-28087200D01*
X93861428Y-28087200D02*
X93813809Y-27991961D01*
X93813809Y-27991961D02*
X93813809Y-27611009D01*
X93813809Y-27611009D02*
X93861428Y-27515771D01*
X93861428Y-27515771D02*
X93956666Y-27468152D01*
X93956666Y-27468152D02*
X94147142Y-27468152D01*
X94147142Y-27468152D02*
X94242380Y-27515771D01*
X94242380Y-27515771D02*
X94289999Y-27611009D01*
X94289999Y-27611009D02*
X94289999Y-27706247D01*
X94289999Y-27706247D02*
X93813809Y-27801485D01*
X94718571Y-28134819D02*
X94718571Y-27468152D01*
X94718571Y-27563390D02*
X94766190Y-27515771D01*
X94766190Y-27515771D02*
X94861428Y-27468152D01*
X94861428Y-27468152D02*
X95004285Y-27468152D01*
X95004285Y-27468152D02*
X95099523Y-27515771D01*
X95099523Y-27515771D02*
X95147142Y-27611009D01*
X95147142Y-27611009D02*
X95147142Y-28134819D01*
X95147142Y-27611009D02*
X95194761Y-27515771D01*
X95194761Y-27515771D02*
X95289999Y-27468152D01*
X95289999Y-27468152D02*
X95432856Y-27468152D01*
X95432856Y-27468152D02*
X95528095Y-27515771D01*
X95528095Y-27515771D02*
X95575714Y-27611009D01*
X95575714Y-27611009D02*
X95575714Y-28134819D01*
X96051904Y-27468152D02*
X96051904Y-28468152D01*
X96051904Y-27515771D02*
X96147142Y-27468152D01*
X96147142Y-27468152D02*
X96337618Y-27468152D01*
X96337618Y-27468152D02*
X96432856Y-27515771D01*
X96432856Y-27515771D02*
X96480475Y-27563390D01*
X96480475Y-27563390D02*
X96528094Y-27658628D01*
X96528094Y-27658628D02*
X96528094Y-27944342D01*
X96528094Y-27944342D02*
X96480475Y-28039580D01*
X96480475Y-28039580D02*
X96432856Y-28087200D01*
X96432856Y-28087200D02*
X96337618Y-28134819D01*
X96337618Y-28134819D02*
X96147142Y-28134819D01*
X96147142Y-28134819D02*
X96051904Y-28087200D01*
X96909047Y-28087200D02*
X97051904Y-28134819D01*
X97051904Y-28134819D02*
X97289999Y-28134819D01*
X97289999Y-28134819D02*
X97385237Y-28087200D01*
X97385237Y-28087200D02*
X97432856Y-28039580D01*
X97432856Y-28039580D02*
X97480475Y-27944342D01*
X97480475Y-27944342D02*
X97480475Y-27849104D01*
X97480475Y-27849104D02*
X97432856Y-27753866D01*
X97432856Y-27753866D02*
X97385237Y-27706247D01*
X97385237Y-27706247D02*
X97289999Y-27658628D01*
X97289999Y-27658628D02*
X97099523Y-27611009D01*
X97099523Y-27611009D02*
X97004285Y-27563390D01*
X97004285Y-27563390D02*
X96956666Y-27515771D01*
X96956666Y-27515771D02*
X96909047Y-27420533D01*
X96909047Y-27420533D02*
X96909047Y-27325295D01*
X96909047Y-27325295D02*
X96956666Y-27230057D01*
X96956666Y-27230057D02*
X97004285Y-27182438D01*
X97004285Y-27182438D02*
X97099523Y-27134819D01*
X97099523Y-27134819D02*
X97337618Y-27134819D01*
X97337618Y-27134819D02*
X97480475Y-27182438D01*
X98289999Y-28087200D02*
X98194761Y-28134819D01*
X98194761Y-28134819D02*
X98004285Y-28134819D01*
X98004285Y-28134819D02*
X97909047Y-28087200D01*
X97909047Y-28087200D02*
X97861428Y-27991961D01*
X97861428Y-27991961D02*
X97861428Y-27611009D01*
X97861428Y-27611009D02*
X97909047Y-27515771D01*
X97909047Y-27515771D02*
X98004285Y-27468152D01*
X98004285Y-27468152D02*
X98194761Y-27468152D01*
X98194761Y-27468152D02*
X98289999Y-27515771D01*
X98289999Y-27515771D02*
X98337618Y-27611009D01*
X98337618Y-27611009D02*
X98337618Y-27706247D01*
X98337618Y-27706247D02*
X97861428Y-27801485D01*
X98766190Y-27468152D02*
X98766190Y-28134819D01*
X98766190Y-27563390D02*
X98813809Y-27515771D01*
X98813809Y-27515771D02*
X98909047Y-27468152D01*
X98909047Y-27468152D02*
X99051904Y-27468152D01*
X99051904Y-27468152D02*
X99147142Y-27515771D01*
X99147142Y-27515771D02*
X99194761Y-27611009D01*
X99194761Y-27611009D02*
X99194761Y-28134819D01*
X99623333Y-28087200D02*
X99718571Y-28134819D01*
X99718571Y-28134819D02*
X99909047Y-28134819D01*
X99909047Y-28134819D02*
X100004285Y-28087200D01*
X100004285Y-28087200D02*
X100051904Y-27991961D01*
X100051904Y-27991961D02*
X100051904Y-27944342D01*
X100051904Y-27944342D02*
X100004285Y-27849104D01*
X100004285Y-27849104D02*
X99909047Y-27801485D01*
X99909047Y-27801485D02*
X99766190Y-27801485D01*
X99766190Y-27801485D02*
X99670952Y-27753866D01*
X99670952Y-27753866D02*
X99623333Y-27658628D01*
X99623333Y-27658628D02*
X99623333Y-27611009D01*
X99623333Y-27611009D02*
X99670952Y-27515771D01*
X99670952Y-27515771D02*
X99766190Y-27468152D01*
X99766190Y-27468152D02*
X99909047Y-27468152D01*
X99909047Y-27468152D02*
X100004285Y-27515771D01*
X100623333Y-28134819D02*
X100528095Y-28087200D01*
X100528095Y-28087200D02*
X100480476Y-28039580D01*
X100480476Y-28039580D02*
X100432857Y-27944342D01*
X100432857Y-27944342D02*
X100432857Y-27658628D01*
X100432857Y-27658628D02*
X100480476Y-27563390D01*
X100480476Y-27563390D02*
X100528095Y-27515771D01*
X100528095Y-27515771D02*
X100623333Y-27468152D01*
X100623333Y-27468152D02*
X100766190Y-27468152D01*
X100766190Y-27468152D02*
X100861428Y-27515771D01*
X100861428Y-27515771D02*
X100909047Y-27563390D01*
X100909047Y-27563390D02*
X100956666Y-27658628D01*
X100956666Y-27658628D02*
X100956666Y-27944342D01*
X100956666Y-27944342D02*
X100909047Y-28039580D01*
X100909047Y-28039580D02*
X100861428Y-28087200D01*
X100861428Y-28087200D02*
X100766190Y-28134819D01*
X100766190Y-28134819D02*
X100623333Y-28134819D01*
X101385238Y-28134819D02*
X101385238Y-27468152D01*
X101385238Y-27658628D02*
X101432857Y-27563390D01*
X101432857Y-27563390D02*
X101480476Y-27515771D01*
X101480476Y-27515771D02*
X101575714Y-27468152D01*
X101575714Y-27468152D02*
X101670952Y-27468152D01*
X102528095Y-28134819D02*
X101956667Y-28134819D01*
X102242381Y-28134819D02*
X102242381Y-27134819D01*
X102242381Y-27134819D02*
X102147143Y-27277676D01*
X102147143Y-27277676D02*
X102051905Y-27372914D01*
X102051905Y-27372914D02*
X101956667Y-27420533D01*
D12*
%TO.C,DoorRelay1*%
X83820000Y-74930000D02*
X99060000Y-74930000D01*
X83820000Y-81280000D02*
X99060000Y-81280000D01*
X83820000Y-82550000D02*
X83820000Y-74930000D01*
X83820000Y-82550000D02*
X99060000Y-82550000D01*
X99060000Y-82550000D02*
X99060000Y-74930000D01*
%TO.C,D1*%
X88700000Y-45900000D02*
X88700000Y-40460000D01*
X88830000Y-45900000D02*
X88700000Y-45900000D01*
X91510000Y-45900000D02*
X91640000Y-45900000D01*
X91640000Y-45900000D02*
X91640000Y-40460000D01*
X88700000Y-45120000D02*
X91640000Y-45120000D01*
X88700000Y-45000000D02*
X91640000Y-45000000D01*
X88700000Y-44880000D02*
X91640000Y-44880000D01*
X88700000Y-40460000D02*
X88830000Y-40460000D01*
X91640000Y-40460000D02*
X91510000Y-40460000D01*
%TO.C,DoorSensor1*%
X82220000Y-30590000D02*
X82220000Y-33090000D01*
X82220000Y-33090000D02*
X84720000Y-33090000D01*
X82520000Y-28770000D02*
X82520000Y-32790000D01*
X82520000Y-30480000D02*
X83020000Y-30480000D01*
X82520000Y-31290000D02*
X83520000Y-31290000D01*
X82520000Y-32790000D02*
X90240000Y-32790000D01*
X83020000Y-29270000D02*
X89740000Y-29270000D01*
X83020000Y-30480000D02*
X83020000Y-29270000D01*
X83520000Y-31290000D02*
X83520000Y-32790000D01*
X89240000Y-31290000D02*
X89240000Y-32790000D01*
X89740000Y-29270000D02*
X89740000Y-30480000D01*
X89740000Y-30480000D02*
X90240000Y-30480000D01*
X90240000Y-28770000D02*
X82520000Y-28770000D01*
X90240000Y-31290000D02*
X89240000Y-31290000D01*
X90240000Y-32790000D02*
X90240000Y-28770000D01*
%TO.C,Q1*%
X97870000Y-44980000D02*
X97870000Y-41380000D01*
X93670001Y-44320000D02*
G75*
G03*
X94916158Y-45547198I2349999J1140000D01*
G01*
X97142795Y-45504183D02*
G75*
G03*
X97869999Y-44979999I-1122795J2324183D01*
G01*
X94921629Y-40824543D02*
G75*
G03*
X93670000Y-42070000I1098371J-2355457D01*
G01*
X97869999Y-41380001D02*
G75*
G03*
X97142795Y-40855817I-1849999J-1799999D01*
G01*
%TO.C,R2*%
X83720000Y-46450000D02*
X83720000Y-39910000D01*
X84050000Y-46450000D02*
X83720000Y-46450000D01*
X86130000Y-46450000D02*
X86460000Y-46450000D01*
X86460000Y-46450000D02*
X86460000Y-39910000D01*
X83720000Y-39910000D02*
X84050000Y-39910000D01*
X86460000Y-39910000D02*
X86130000Y-39910000D01*
%TO.C,Relay1*%
X100690206Y-74930000D02*
X115930206Y-74930000D01*
X100690206Y-81280000D02*
X115930206Y-81280000D01*
X100690206Y-82550000D02*
X100690206Y-74930000D01*
X100690206Y-82550000D02*
X115930206Y-82550000D01*
X115930206Y-82550000D02*
X115930206Y-74930000D01*
D11*
%TO.C,U2*%
X69260000Y-63730000D02*
X52560000Y-63730000D01*
X52560000Y-63730000D02*
X52560000Y-85930000D01*
X52560000Y-85930000D02*
X69260000Y-85930000D01*
X69260000Y-85930000D02*
X69260000Y-63730000D01*
X62160000Y-67730000D02*
X61160000Y-67730000D01*
X61160000Y-81330000D01*
X60560000Y-81330000D01*
X60560000Y-67730000D01*
X59560000Y-67730000D01*
X60960000Y-66730000D01*
X62160000Y-67730000D01*
G36*
X62160000Y-67730000D02*
G01*
X61160000Y-67730000D01*
X61160000Y-81330000D01*
X60560000Y-81330000D01*
X60560000Y-67730000D01*
X59560000Y-67730000D01*
X60960000Y-66730000D01*
X62160000Y-67730000D01*
G37*
D12*
%TO.C,K2*%
X116216818Y-53609562D02*
X109616818Y-53609562D01*
X116216818Y-53609562D02*
X116216818Y-73409562D01*
X107216818Y-53609562D02*
X100616818Y-53609562D01*
X108366818Y-57659562D02*
X108366818Y-56859562D01*
X108366818Y-57659562D02*
X104766818Y-57659562D01*
X102366818Y-58559562D02*
X102366818Y-61059562D01*
X110166818Y-59059562D02*
X110166818Y-63059562D01*
X106566818Y-59059562D02*
X110166818Y-59059562D01*
X114366818Y-61059562D02*
X114366818Y-58559562D01*
X114366818Y-61059562D02*
X110166818Y-61059562D01*
X106566818Y-61059562D02*
X102366818Y-61059562D01*
X110166818Y-63059562D02*
X106566818Y-63059562D01*
X106566818Y-63059562D02*
X110166818Y-59059562D01*
X106566818Y-63059562D02*
X106566818Y-59059562D01*
X108366818Y-64459562D02*
X104766818Y-64459562D01*
X108366818Y-64459562D02*
X108366818Y-65959562D01*
X104766818Y-64459562D02*
X104766818Y-57659562D01*
X108366818Y-65959562D02*
X110866818Y-70559562D01*
X112616818Y-69159562D02*
X110116818Y-69159562D01*
X104216818Y-69159562D02*
X106666818Y-69159562D01*
X116216818Y-73409562D02*
X100616818Y-73409562D01*
X100616818Y-73409562D02*
X100616818Y-53609562D01*
%TO.C,PowerIn1*%
X71120000Y-74930000D02*
X71120000Y-82550000D01*
X71120000Y-82550000D02*
X81280000Y-82550000D01*
X81280000Y-74930000D02*
X71120000Y-74930000D01*
X81280000Y-81280000D02*
X71120000Y-81280000D01*
X81280000Y-82550000D02*
X81280000Y-74930000D01*
%TO.C,K1*%
X99240000Y-53600000D02*
X92640000Y-53600000D01*
X99240000Y-53600000D02*
X99240000Y-73400000D01*
X90240000Y-53600000D02*
X83640000Y-53600000D01*
X91390000Y-57650000D02*
X91390000Y-56850000D01*
X91390000Y-57650000D02*
X87790000Y-57650000D01*
X85390000Y-58550000D02*
X85390000Y-61050000D01*
X93190000Y-59050000D02*
X93190000Y-63050000D01*
X89590000Y-59050000D02*
X93190000Y-59050000D01*
X97390000Y-61050000D02*
X97390000Y-58550000D01*
X97390000Y-61050000D02*
X93190000Y-61050000D01*
X89590000Y-61050000D02*
X85390000Y-61050000D01*
X93190000Y-63050000D02*
X89590000Y-63050000D01*
X89590000Y-63050000D02*
X93190000Y-59050000D01*
X89590000Y-63050000D02*
X89590000Y-59050000D01*
X91390000Y-64450000D02*
X87790000Y-64450000D01*
X91390000Y-64450000D02*
X91390000Y-65950000D01*
X87790000Y-64450000D02*
X87790000Y-57650000D01*
X91390000Y-65950000D02*
X93890000Y-70550000D01*
X95640000Y-69150000D02*
X93140000Y-69150000D01*
X87240000Y-69150000D02*
X89690000Y-69150000D01*
X99240000Y-73400000D02*
X83640000Y-73400000D01*
X83640000Y-73400000D02*
X83640000Y-53600000D01*
%TO.C,R3*%
X60335783Y-52809927D02*
X60335783Y-46269927D01*
X60665783Y-52809927D02*
X60335783Y-52809927D01*
X62745783Y-52809927D02*
X63075783Y-52809927D01*
X63075783Y-52809927D02*
X63075783Y-46269927D01*
X60335783Y-46269927D02*
X60665783Y-46269927D01*
X63075783Y-46269927D02*
X62745783Y-46269927D01*
%TO.C,D2*%
X103940000Y-45900000D02*
X103940000Y-40460000D01*
X104070000Y-45900000D02*
X103940000Y-45900000D01*
X106750000Y-45900000D02*
X106880000Y-45900000D01*
X106880000Y-45900000D02*
X106880000Y-40460000D01*
X103940000Y-45120000D02*
X106880000Y-45120000D01*
X103940000Y-45000000D02*
X106880000Y-45000000D01*
X103940000Y-44880000D02*
X106880000Y-44880000D01*
X103940000Y-40460000D02*
X104070000Y-40460000D01*
X106880000Y-40460000D02*
X106750000Y-40460000D01*
%TO.C,MotionSensor1*%
X105080000Y-30590000D02*
X105080000Y-33090000D01*
X105080000Y-33090000D02*
X107580000Y-33090000D01*
X105380000Y-28770000D02*
X105380000Y-32790000D01*
X105380000Y-30480000D02*
X105880000Y-30480000D01*
X105380000Y-31290000D02*
X106380000Y-31290000D01*
X105380000Y-32790000D02*
X115600000Y-32790000D01*
X105880000Y-29270000D02*
X115100000Y-29270000D01*
X105880000Y-30480000D02*
X105880000Y-29270000D01*
X106380000Y-31290000D02*
X106380000Y-32790000D01*
X114600000Y-31290000D02*
X114600000Y-32790000D01*
X115100000Y-29270000D02*
X115100000Y-30480000D01*
X115100000Y-30480000D02*
X115600000Y-30480000D01*
X115600000Y-28770000D02*
X105380000Y-28770000D01*
X115600000Y-31290000D02*
X114600000Y-31290000D01*
X115600000Y-32790000D02*
X115600000Y-28770000D01*
%TO.C,R1*%
X79910000Y-46450000D02*
X79910000Y-39910000D01*
X80240000Y-46450000D02*
X79910000Y-46450000D01*
X82320000Y-46450000D02*
X82650000Y-46450000D01*
X82650000Y-46450000D02*
X82650000Y-39910000D01*
X79910000Y-39910000D02*
X80240000Y-39910000D01*
X82650000Y-39910000D02*
X82320000Y-39910000D01*
%TO.C,Q2*%
X113610000Y-44980000D02*
X113610000Y-41380000D01*
X109410001Y-44320000D02*
G75*
G03*
X110656158Y-45547198I2349999J1140000D01*
G01*
X112882795Y-45504183D02*
G75*
G03*
X113609999Y-44979999I-1122795J2324183D01*
G01*
X110661629Y-40824543D02*
G75*
G03*
X109410000Y-42070000I1098371J-2355457D01*
G01*
X113609999Y-41380001D02*
G75*
G03*
X112882795Y-40855817I-1849999J-1799999D01*
G01*
%TO.C,R5*%
X69950000Y-46260000D02*
X69950000Y-52800000D01*
X69620000Y-46260000D02*
X69950000Y-46260000D01*
X67540000Y-46260000D02*
X67210000Y-46260000D01*
X67210000Y-46260000D02*
X67210000Y-52800000D01*
X69950000Y-52800000D02*
X69620000Y-52800000D01*
X67210000Y-52800000D02*
X67540000Y-52800000D01*
%TO.C,U1*%
D10*
X52705000Y-35560000D02*
X52070000Y-36195000D01*
X52070000Y-34925000D01*
X52705000Y-35560000D01*
G36*
X52705000Y-35560000D02*
G01*
X52070000Y-36195000D01*
X52070000Y-34925000D01*
X52705000Y-35560000D01*
G37*
D12*
X78970000Y-29350000D02*
G75*
G03*
X76840000Y-27220000I-2130000J0D01*
G01*
X55240000Y-27220000D02*
G75*
G03*
X53110000Y-29350000I2J-2130002D01*
G01*
X78970000Y-61680000D02*
X78970000Y-29350000D01*
X76850000Y-27220000D02*
X55240000Y-27220000D01*
X55650000Y-61680000D02*
X78970000Y-61680000D01*
X55650000Y-54780000D02*
X55650000Y-61680000D01*
X53110000Y-54780000D02*
X55650000Y-54780000D01*
X53110000Y-54780000D02*
X53110000Y-29350000D01*
%TO.C,R4*%
X63400000Y-52800000D02*
X63400000Y-46260000D01*
X63730000Y-52800000D02*
X63400000Y-52800000D01*
X65810000Y-52800000D02*
X66140000Y-52800000D01*
X66140000Y-52800000D02*
X66140000Y-46260000D01*
X63400000Y-46260000D02*
X63730000Y-46260000D01*
X66140000Y-46260000D02*
X65810000Y-46260000D01*
%TO.C,TempSensor1*%
X92380000Y-30590000D02*
X92380000Y-33090000D01*
X92380000Y-33090000D02*
X94880000Y-33090000D01*
X92680000Y-28770000D02*
X92680000Y-32790000D01*
X92680000Y-30480000D02*
X93180000Y-30480000D01*
X92680000Y-31290000D02*
X93680000Y-31290000D01*
X92680000Y-32790000D02*
X102900000Y-32790000D01*
X93180000Y-29270000D02*
X102400000Y-29270000D01*
X93180000Y-30480000D02*
X93180000Y-29270000D01*
X93680000Y-31290000D02*
X93680000Y-32790000D01*
X101900000Y-31290000D02*
X101900000Y-32790000D01*
X102400000Y-29270000D02*
X102400000Y-30480000D01*
X102400000Y-30480000D02*
X102900000Y-30480000D01*
X102900000Y-28770000D02*
X92680000Y-28770000D01*
X102900000Y-31290000D02*
X101900000Y-31290000D01*
X102900000Y-32790000D02*
X102900000Y-28770000D01*
%TD*%
%LPC*%
D13*
%TO.C,DoorRelay1*%
X86360000Y-78740000D03*
D14*
X91440000Y-78740000D03*
X96520000Y-78740000D03*
%TD*%
D15*
%TO.C,D1*%
X90170000Y-46990000D03*
D16*
X90170000Y-39370000D03*
%TD*%
D17*
%TO.C,DoorSensor1*%
X85130000Y-30480000D03*
D18*
X87630000Y-30480000D03*
%TD*%
D19*
%TO.C,Q1*%
X96020000Y-45720000D03*
D20*
X93480000Y-43180000D03*
X96020000Y-40640000D03*
%TD*%
D21*
%TO.C,R2*%
X85090000Y-46990000D03*
D22*
X85090000Y-39370000D03*
%TD*%
D13*
%TO.C,Relay1*%
X103230206Y-78740000D03*
D14*
X108310206Y-78740000D03*
X113390206Y-78740000D03*
%TD*%
D23*
%TO.C,U2*%
X55860000Y-84730000D03*
X53660000Y-84730000D03*
X68060000Y-84730000D03*
X65860000Y-84730000D03*
X55860000Y-64930000D03*
X53660000Y-64930000D03*
X68060000Y-64930000D03*
X65860000Y-64930000D03*
%TD*%
D14*
%TO.C,K2*%
X108416818Y-55009562D03*
D24*
X102366818Y-56959562D03*
D14*
X102366818Y-69159562D03*
X114416818Y-69209562D03*
D24*
X114366818Y-56959562D03*
%TD*%
D13*
%TO.C,PowerIn1*%
X73660000Y-78740000D03*
D14*
X78740000Y-78740000D03*
%TD*%
%TO.C,K1*%
X91440000Y-55000000D03*
D24*
X85390000Y-56950000D03*
D14*
X85390000Y-69150000D03*
X97440000Y-69200000D03*
D24*
X97390000Y-56950000D03*
%TD*%
D21*
%TO.C,R3*%
X61705783Y-53349927D03*
D22*
X61705783Y-45729927D03*
%TD*%
D15*
%TO.C,D2*%
X105410000Y-46990000D03*
D16*
X105410000Y-39370000D03*
%TD*%
D25*
%TO.C,MotionSensor1*%
X107990000Y-30480000D03*
D26*
X110490000Y-30480000D03*
X112990000Y-30480000D03*
%TD*%
D21*
%TO.C,R1*%
X81280000Y-46990000D03*
D22*
X81280000Y-39370000D03*
%TD*%
D19*
%TO.C,Q2*%
X111760000Y-45720000D03*
D20*
X109220000Y-43180000D03*
X111760000Y-40640000D03*
%TD*%
D21*
%TO.C,R5*%
X68580000Y-45720000D03*
D22*
X68580000Y-53340000D03*
%TD*%
D27*
%TO.C,U1*%
X77470000Y-35560000D03*
X77470000Y-38100000D03*
X77470000Y-40640000D03*
X77470000Y-43180000D03*
X77470000Y-45720000D03*
X77470000Y-48260000D03*
X77470000Y-50800000D03*
X77470000Y-53340000D03*
X54610000Y-53340000D03*
X54610000Y-50800000D03*
X54610000Y-48260000D03*
X54610000Y-45720000D03*
X54610000Y-43180000D03*
X54610000Y-40640000D03*
X54610000Y-38100000D03*
D28*
X54610000Y-35560000D03*
%TD*%
D21*
%TO.C,R4*%
X64770000Y-53340000D03*
D22*
X64770000Y-45720000D03*
%TD*%
D25*
%TO.C,TempSensor1*%
X95290000Y-30480000D03*
D26*
X97790000Y-30480000D03*
X100290000Y-30480000D03*
%TD*%
%LPD*%
M02*
