%TF.GenerationSoftware,KiCad,Pcbnew,7.0.10*%
%TF.CreationDate,2024-02-08T08:12:04+01:00*%
%TF.ProjectId,door_relay_sensor,646f6f72-5f72-4656-9c61-795f73656e73,rev?*%
%TF.SameCoordinates,Original*%
%TF.FileFunction,Copper,L2,Bot*%
%TF.FilePolarity,Positive*%
%FSLAX46Y46*%
G04 Gerber Fmt 4.6, Leading zero omitted, Abs format (unit mm)*
G04 Created by KiCad (PCBNEW 7.0.10) date 2024-02-08 08:12:04*
%MOMM*%
%LPD*%
G01*
G04 APERTURE LIST*
G04 Aperture macros list*
%AMRoundRect*
0 Rectangle with rounded corners*
0 $1 Rounding radius*
0 $2 $3 $4 $5 $6 $7 $8 $9 X,Y pos of 4 corners*
0 Add a 4 corners polygon primitive as box body*
4,1,4,$2,$3,$4,$5,$6,$7,$8,$9,$2,$3,0*
0 Add four circle primitives for the rounded corners*
1,1,$1+$1,$2,$3*
1,1,$1+$1,$4,$5*
1,1,$1+$1,$6,$7*
1,1,$1+$1,$8,$9*
0 Add four rect primitives between the rounded corners*
20,1,$1+$1,$2,$3,$4,$5,0*
20,1,$1+$1,$4,$5,$6,$7,0*
20,1,$1+$1,$6,$7,$8,$9,0*
20,1,$1+$1,$8,$9,$2,$3,0*%
G04 Aperture macros list end*
%TA.AperFunction,ComponentPad*%
%ADD10R,3.000000X3.000000*%
%TD*%
%TA.AperFunction,ComponentPad*%
%ADD11C,3.000000*%
%TD*%
%TA.AperFunction,ComponentPad*%
%ADD12R,2.200000X2.200000*%
%TD*%
%TA.AperFunction,ComponentPad*%
%ADD13O,2.200000X2.200000*%
%TD*%
%TA.AperFunction,ComponentPad*%
%ADD14RoundRect,0.250000X-0.600000X-0.750000X0.600000X-0.750000X0.600000X0.750000X-0.600000X0.750000X0*%
%TD*%
%TA.AperFunction,ComponentPad*%
%ADD15O,1.700000X2.000000*%
%TD*%
%TA.AperFunction,ComponentPad*%
%ADD16R,1.500000X1.500000*%
%TD*%
%TA.AperFunction,ComponentPad*%
%ADD17C,1.500000*%
%TD*%
%TA.AperFunction,ComponentPad*%
%ADD18C,1.600000*%
%TD*%
%TA.AperFunction,ComponentPad*%
%ADD19O,1.600000X1.600000*%
%TD*%
%TA.AperFunction,ComponentPad*%
%ADD20RoundRect,0.200000X-0.900000X0.900000X-0.900000X-0.900000X0.900000X-0.900000X0.900000X0.900000X0*%
%TD*%
%TA.AperFunction,ComponentPad*%
%ADD21C,2.500000*%
%TD*%
%TA.AperFunction,ComponentPad*%
%ADD22RoundRect,0.250000X-0.600000X-0.725000X0.600000X-0.725000X0.600000X0.725000X-0.600000X0.725000X0*%
%TD*%
%TA.AperFunction,ComponentPad*%
%ADD23O,1.700000X1.950000*%
%TD*%
%TA.AperFunction,ComponentPad*%
%ADD24O,2.000000X1.600000*%
%TD*%
%TA.AperFunction,ComponentPad*%
%ADD25R,2.000000X2.000000*%
%TD*%
%TA.AperFunction,Conductor*%
%ADD26C,1.270000*%
%TD*%
%TA.AperFunction,Conductor*%
%ADD27C,2.540000*%
%TD*%
%TA.AperFunction,Conductor*%
%ADD28C,0.508000*%
%TD*%
%TA.AperFunction,Conductor*%
%ADD29C,0.800000*%
%TD*%
G04 APERTURE END LIST*
D10*
%TO.P,DoorRelay1,1,Pin_1*%
%TO.N,GND*%
X86360000Y-78740000D03*
D11*
%TO.P,DoorRelay1,2,Pin_2*%
%TO.N,/Relay1_NO*%
X91440000Y-78740000D03*
%TO.P,DoorRelay1,3,Pin_3*%
%TO.N,/Relay1_NC*%
X96520000Y-78740000D03*
%TD*%
D12*
%TO.P,D1,1,K*%
%TO.N,+5V*%
X90170000Y-46990000D03*
D13*
%TO.P,D1,2,A*%
%TO.N,Net-(D1-A)*%
X90170000Y-39370000D03*
%TD*%
D14*
%TO.P,DoorSensor1,1,Pin_1*%
%TO.N,/Door_Sensor*%
X85130000Y-30480000D03*
D15*
%TO.P,DoorSensor1,2,Pin_2*%
%TO.N,+3.3V*%
X87630000Y-30480000D03*
%TD*%
D16*
%TO.P,Q1,1,E*%
%TO.N,GND*%
X96020000Y-45720000D03*
D17*
%TO.P,Q1,2,B*%
%TO.N,Net-(Q1-B)*%
X93480000Y-43180000D03*
%TO.P,Q1,3,C*%
%TO.N,Net-(D1-A)*%
X96020000Y-40640000D03*
%TD*%
D18*
%TO.P,R2,1*%
%TO.N,Net-(Q2-B)*%
X85090000Y-46990000D03*
D19*
%TO.P,R2,2*%
%TO.N,/Relay2*%
X85090000Y-39370000D03*
%TD*%
D10*
%TO.P,Relay1,1,Pin_1*%
%TO.N,/R2_NO*%
X103230206Y-78740000D03*
D11*
%TO.P,Relay1,2,Pin_2*%
%TO.N,/R2_COM*%
X108310206Y-78740000D03*
%TO.P,Relay1,3,Pin_3*%
%TO.N,/R2_NC*%
X113390206Y-78740000D03*
%TD*%
D20*
%TO.P,U2,1,-IN*%
%TO.N,GND*%
X55860000Y-84730000D03*
X53660000Y-84730000D03*
%TO.P,U2,2,+IN*%
%TO.N,+12V*%
X68060000Y-84730000D03*
X65860000Y-84730000D03*
%TO.P,U2,3,OUT-*%
%TO.N,GND*%
X55860000Y-64930000D03*
X53660000Y-64930000D03*
%TO.P,U2,4,OUT+*%
%TO.N,+5V*%
X68060000Y-64930000D03*
X65860000Y-64930000D03*
%TD*%
D11*
%TO.P,K2,1*%
%TO.N,/R2_COM*%
X108416818Y-55009562D03*
D21*
%TO.P,K2,2*%
%TO.N,+5V*%
X102366818Y-56959562D03*
D11*
%TO.P,K2,3*%
%TO.N,/R2_NO*%
X102366818Y-69159562D03*
%TO.P,K2,4*%
%TO.N,/R2_NC*%
X114416818Y-69209562D03*
D21*
%TO.P,K2,5*%
%TO.N,Net-(D2-A)*%
X114366818Y-56959562D03*
%TD*%
D10*
%TO.P,PowerIn1,1,Pin_1*%
%TO.N,+12V*%
X73660000Y-78740000D03*
D11*
%TO.P,PowerIn1,2,Pin_2*%
%TO.N,GND*%
X78740000Y-78740000D03*
%TD*%
%TO.P,K1,1*%
%TO.N,+12V*%
X91440000Y-55000000D03*
D21*
%TO.P,K1,2*%
%TO.N,+5V*%
X85390000Y-56950000D03*
D11*
%TO.P,K1,3*%
%TO.N,/Relay1_NO*%
X85390000Y-69150000D03*
%TO.P,K1,4*%
%TO.N,/Relay1_NC*%
X97440000Y-69200000D03*
D21*
%TO.P,K1,5*%
%TO.N,Net-(D1-A)*%
X97390000Y-56950000D03*
%TD*%
D18*
%TO.P,R3,1*%
%TO.N,Net-(MotionSensor1-Pin_2)*%
X61705783Y-53349927D03*
D19*
%TO.P,R3,2*%
%TO.N,/Motion_Sensor*%
X61705783Y-45729927D03*
%TD*%
D12*
%TO.P,D2,1,K*%
%TO.N,+5V*%
X105410000Y-46990000D03*
D13*
%TO.P,D2,2,A*%
%TO.N,Net-(D2-A)*%
X105410000Y-39370000D03*
%TD*%
D22*
%TO.P,MotionSensor1,1,Pin_1*%
%TO.N,+12V*%
X107990000Y-30480000D03*
D23*
%TO.P,MotionSensor1,2,Pin_2*%
%TO.N,Net-(MotionSensor1-Pin_2)*%
X110490000Y-30480000D03*
%TO.P,MotionSensor1,3,Pin_3*%
%TO.N,GND*%
X112990000Y-30480000D03*
%TD*%
D18*
%TO.P,R1,1*%
%TO.N,Net-(Q1-B)*%
X81280000Y-46990000D03*
D19*
%TO.P,R1,2*%
%TO.N,/Relay1*%
X81280000Y-39370000D03*
%TD*%
D16*
%TO.P,Q2,1,E*%
%TO.N,GND*%
X111760000Y-45720000D03*
D17*
%TO.P,Q2,2,B*%
%TO.N,Net-(Q2-B)*%
X109220000Y-43180000D03*
%TO.P,Q2,3,C*%
%TO.N,Net-(D2-A)*%
X111760000Y-40640000D03*
%TD*%
D18*
%TO.P,R5,1*%
%TO.N,/Door_Sensor*%
X68580000Y-45720000D03*
D19*
%TO.P,R5,2*%
%TO.N,GND*%
X68580000Y-53340000D03*
%TD*%
D24*
%TO.P,U1,16,TX*%
%TO.N,unconnected-(U1-TX-Pad16)*%
X77470000Y-35560000D03*
%TO.P,U1,15,RX*%
%TO.N,unconnected-(U1-RX-Pad15)*%
X77470000Y-38100000D03*
%TO.P,U1,14,SCL/D1*%
%TO.N,/Relay2*%
X77470000Y-40640000D03*
%TO.P,U1,13,SDA/D2*%
%TO.N,/Relay1*%
X77470000Y-43180000D03*
%TO.P,U1,12,D3*%
%TO.N,unconnected-(U1-D3-Pad12)*%
X77470000Y-45720000D03*
%TO.P,U1,11,D4*%
%TO.N,unconnected-(U1-D4-Pad11)*%
X77470000Y-48260000D03*
%TO.P,U1,10,GND*%
%TO.N,GND*%
X77470000Y-50800000D03*
%TO.P,U1,9,5V*%
%TO.N,+5V*%
X77470000Y-53340000D03*
%TO.P,U1,8,3V3*%
%TO.N,+3.3V*%
X54610000Y-53340000D03*
%TO.P,U1,7,CS/D8*%
%TO.N,unconnected-(U1-CS{slash}D8-Pad7)*%
X54610000Y-50800000D03*
%TO.P,U1,6,MOSI/D7*%
%TO.N,/Temp_Sensor*%
X54610000Y-48260000D03*
%TO.P,U1,5,MISO/D6*%
%TO.N,/Motion_Sensor*%
X54610000Y-45720000D03*
%TO.P,U1,4,SCK/D5*%
%TO.N,/Door_Sensor*%
X54610000Y-43180000D03*
%TO.P,U1,3,D0*%
%TO.N,unconnected-(U1-D0-Pad3)*%
X54610000Y-40640000D03*
%TO.P,U1,2,A0*%
%TO.N,unconnected-(U1-A0-Pad2)*%
X54610000Y-38100000D03*
D25*
%TO.P,U1,1,~{RST}*%
%TO.N,unconnected-(U1-~{RST}-Pad1)*%
X54610000Y-35560000D03*
%TD*%
D18*
%TO.P,R4,1*%
%TO.N,GND*%
X64770000Y-53340000D03*
D19*
%TO.P,R4,2*%
%TO.N,/Motion_Sensor*%
X64770000Y-45720000D03*
%TD*%
D22*
%TO.P,TempSensor1,1,Pin_1*%
%TO.N,+5V*%
X95290000Y-30480000D03*
D23*
%TO.P,TempSensor1,2,Pin_2*%
%TO.N,/Temp_Sensor*%
X97790000Y-30480000D03*
%TO.P,TempSensor1,3,Pin_3*%
%TO.N,GND*%
X100290000Y-30480000D03*
%TD*%
D26*
%TO.N,GND*%
X53660000Y-64930000D02*
X55860000Y-64930000D01*
D27*
X86360000Y-78740000D02*
X78740000Y-78740000D01*
X56230000Y-87300000D02*
X53660000Y-84730000D01*
X70180000Y-87300000D02*
X56230000Y-87300000D01*
D26*
X102100000Y-32290000D02*
X111305000Y-32290000D01*
X55880000Y-64910000D02*
X55860000Y-64930000D01*
X112990000Y-30605000D02*
X110175000Y-33420000D01*
X111305000Y-32290000D02*
X112990000Y-30605000D01*
X55860000Y-84730000D02*
X55860000Y-86930000D01*
X53660000Y-64930000D02*
X53660000Y-84730000D01*
X100290000Y-30480000D02*
X102100000Y-32290000D01*
X110175000Y-41595000D02*
X111760000Y-43180000D01*
X112990000Y-30605000D02*
X112990000Y-30480000D01*
X112990000Y-30480000D02*
X112990000Y-30355000D01*
X53660000Y-84730000D02*
X55860000Y-84730000D01*
X100290000Y-30480000D02*
X100330000Y-30480000D01*
X110175000Y-33420000D02*
X110175000Y-41595000D01*
X55860000Y-86930000D02*
X56230000Y-87300000D01*
D27*
X78740000Y-78740000D02*
X70180000Y-87300000D01*
D26*
X111760000Y-43180000D02*
X111760000Y-45720000D01*
%TO.N,+5V*%
X76020000Y-56970000D02*
X76040000Y-56950000D01*
D28*
X85383662Y-56943662D02*
X85390000Y-56950000D01*
D26*
X90170000Y-44248471D02*
X90170000Y-46990000D01*
X95290000Y-39128471D02*
X90170000Y-44248471D01*
X95290000Y-30480000D02*
X95290000Y-39128471D01*
X84890000Y-56950000D02*
X87630000Y-59690000D01*
X85390000Y-51770000D02*
X85390000Y-56950000D01*
X87630000Y-59690000D02*
X99639492Y-59690000D01*
D28*
X102025860Y-56596368D02*
X102379492Y-56950000D01*
D26*
X90170000Y-46990000D02*
X85390000Y-51770000D01*
X102379492Y-50020508D02*
X102379492Y-56950000D01*
X99639492Y-59690000D02*
X102379492Y-56950000D01*
X82550000Y-56950000D02*
X84890000Y-56950000D01*
X76040000Y-56950000D02*
X82550000Y-56950000D01*
X68060000Y-64930000D02*
X76020000Y-56970000D01*
X76020000Y-56970000D02*
X77470000Y-55520000D01*
X82550000Y-56950000D02*
X85390000Y-56950000D01*
X105410000Y-46990000D02*
X102379492Y-50020508D01*
X77470000Y-55520000D02*
X77470000Y-53340000D01*
X65860000Y-64930000D02*
X68060000Y-64930000D01*
D28*
X102077611Y-56648119D02*
X102379492Y-56950000D01*
D29*
%TO.N,Net-(D1-A)*%
X96020000Y-40640000D02*
X97390000Y-42010000D01*
X97390000Y-42010000D02*
X97390000Y-56950000D01*
D26*
X97290000Y-56850000D02*
X97390000Y-56950000D01*
%TO.N,Net-(D2-A)*%
X114300000Y-56870508D02*
X114379492Y-56950000D01*
D29*
X114379492Y-43259492D02*
X114379492Y-56950000D01*
X111760000Y-40640000D02*
X114379492Y-43259492D01*
%TD*%
M02*
