%TF.GenerationSoftware,KiCad,Pcbnew,8.0.5*%
%TF.CreationDate,2024-11-16T12:50:28+01:00*%
%TF.ProjectId,esp8266-expansion-board,65737038-3236-4362-9d65-7870616e7369,rev?*%
%TF.SameCoordinates,Original*%
%TF.FileFunction,Legend,Top*%
%TF.FilePolarity,Positive*%
%FSLAX46Y46*%
G04 Gerber Fmt 4.6, Leading zero omitted, Abs format (unit mm)*
G04 Created by KiCad (PCBNEW 8.0.5) date 2024-11-16 12:50:28*
%MOMM*%
%LPD*%
G01*
G04 APERTURE LIST*
%ADD10C,0.100000*%
%ADD11C,0.150000*%
%ADD12C,0.120000*%
G04 APERTURE END LIST*
D10*
X35529925Y-73142180D02*
X35434687Y-73065990D01*
X35434687Y-73065990D02*
X35291830Y-73065990D01*
X35291830Y-73065990D02*
X35148973Y-73142180D01*
X35148973Y-73142180D02*
X35053735Y-73294561D01*
X35053735Y-73294561D02*
X35006116Y-73446942D01*
X35006116Y-73446942D02*
X34958497Y-73751704D01*
X34958497Y-73751704D02*
X34958497Y-73980276D01*
X34958497Y-73980276D02*
X35006116Y-74285038D01*
X35006116Y-74285038D02*
X35053735Y-74437419D01*
X35053735Y-74437419D02*
X35148973Y-74589800D01*
X35148973Y-74589800D02*
X35291830Y-74665990D01*
X35291830Y-74665990D02*
X35387068Y-74665990D01*
X35387068Y-74665990D02*
X35529925Y-74589800D01*
X35529925Y-74589800D02*
X35577544Y-74513609D01*
X35577544Y-74513609D02*
X35577544Y-73980276D01*
X35577544Y-73980276D02*
X35387068Y-73980276D01*
X36006116Y-74665990D02*
X36006116Y-73065990D01*
X36006116Y-73065990D02*
X36387068Y-73065990D01*
X36387068Y-73065990D02*
X36482306Y-73142180D01*
X36482306Y-73142180D02*
X36529925Y-73218371D01*
X36529925Y-73218371D02*
X36577544Y-73370752D01*
X36577544Y-73370752D02*
X36577544Y-73599323D01*
X36577544Y-73599323D02*
X36529925Y-73751704D01*
X36529925Y-73751704D02*
X36482306Y-73827895D01*
X36482306Y-73827895D02*
X36387068Y-73904085D01*
X36387068Y-73904085D02*
X36006116Y-73904085D01*
X37006116Y-74665990D02*
X37006116Y-73065990D01*
X37672782Y-73065990D02*
X37863258Y-73065990D01*
X37863258Y-73065990D02*
X37958496Y-73142180D01*
X37958496Y-73142180D02*
X38053734Y-73294561D01*
X38053734Y-73294561D02*
X38101353Y-73599323D01*
X38101353Y-73599323D02*
X38101353Y-74132657D01*
X38101353Y-74132657D02*
X38053734Y-74437419D01*
X38053734Y-74437419D02*
X37958496Y-74589800D01*
X37958496Y-74589800D02*
X37863258Y-74665990D01*
X37863258Y-74665990D02*
X37672782Y-74665990D01*
X37672782Y-74665990D02*
X37577544Y-74589800D01*
X37577544Y-74589800D02*
X37482306Y-74437419D01*
X37482306Y-74437419D02*
X37434687Y-74132657D01*
X37434687Y-74132657D02*
X37434687Y-73599323D01*
X37434687Y-73599323D02*
X37482306Y-73294561D01*
X37482306Y-73294561D02*
X37577544Y-73142180D01*
X37577544Y-73142180D02*
X37672782Y-73065990D01*
X38720401Y-73065990D02*
X38815639Y-73065990D01*
X38815639Y-73065990D02*
X38910877Y-73142180D01*
X38910877Y-73142180D02*
X38958496Y-73218371D01*
X38958496Y-73218371D02*
X39006115Y-73370752D01*
X39006115Y-73370752D02*
X39053734Y-73675514D01*
X39053734Y-73675514D02*
X39053734Y-74056466D01*
X39053734Y-74056466D02*
X39006115Y-74361228D01*
X39006115Y-74361228D02*
X38958496Y-74513609D01*
X38958496Y-74513609D02*
X38910877Y-74589800D01*
X38910877Y-74589800D02*
X38815639Y-74665990D01*
X38815639Y-74665990D02*
X38720401Y-74665990D01*
X38720401Y-74665990D02*
X38625163Y-74589800D01*
X38625163Y-74589800D02*
X38577544Y-74513609D01*
X38577544Y-74513609D02*
X38529925Y-74361228D01*
X38529925Y-74361228D02*
X38482306Y-74056466D01*
X38482306Y-74056466D02*
X38482306Y-73675514D01*
X38482306Y-73675514D02*
X38529925Y-73370752D01*
X38529925Y-73370752D02*
X38577544Y-73218371D01*
X38577544Y-73218371D02*
X38625163Y-73142180D01*
X38625163Y-73142180D02*
X38720401Y-73065990D01*
X35529925Y-75718090D02*
X35434687Y-75641900D01*
X35434687Y-75641900D02*
X35291830Y-75641900D01*
X35291830Y-75641900D02*
X35148973Y-75718090D01*
X35148973Y-75718090D02*
X35053735Y-75870471D01*
X35053735Y-75870471D02*
X35006116Y-76022852D01*
X35006116Y-76022852D02*
X34958497Y-76327614D01*
X34958497Y-76327614D02*
X34958497Y-76556186D01*
X34958497Y-76556186D02*
X35006116Y-76860948D01*
X35006116Y-76860948D02*
X35053735Y-77013329D01*
X35053735Y-77013329D02*
X35148973Y-77165710D01*
X35148973Y-77165710D02*
X35291830Y-77241900D01*
X35291830Y-77241900D02*
X35387068Y-77241900D01*
X35387068Y-77241900D02*
X35529925Y-77165710D01*
X35529925Y-77165710D02*
X35577544Y-77089519D01*
X35577544Y-77089519D02*
X35577544Y-76556186D01*
X35577544Y-76556186D02*
X35387068Y-76556186D01*
X36006116Y-77241900D02*
X36006116Y-75641900D01*
X36006116Y-75641900D02*
X36387068Y-75641900D01*
X36387068Y-75641900D02*
X36482306Y-75718090D01*
X36482306Y-75718090D02*
X36529925Y-75794281D01*
X36529925Y-75794281D02*
X36577544Y-75946662D01*
X36577544Y-75946662D02*
X36577544Y-76175233D01*
X36577544Y-76175233D02*
X36529925Y-76327614D01*
X36529925Y-76327614D02*
X36482306Y-76403805D01*
X36482306Y-76403805D02*
X36387068Y-76479995D01*
X36387068Y-76479995D02*
X36006116Y-76479995D01*
X37006116Y-77241900D02*
X37006116Y-75641900D01*
X37672782Y-75641900D02*
X37863258Y-75641900D01*
X37863258Y-75641900D02*
X37958496Y-75718090D01*
X37958496Y-75718090D02*
X38053734Y-75870471D01*
X38053734Y-75870471D02*
X38101353Y-76175233D01*
X38101353Y-76175233D02*
X38101353Y-76708567D01*
X38101353Y-76708567D02*
X38053734Y-77013329D01*
X38053734Y-77013329D02*
X37958496Y-77165710D01*
X37958496Y-77165710D02*
X37863258Y-77241900D01*
X37863258Y-77241900D02*
X37672782Y-77241900D01*
X37672782Y-77241900D02*
X37577544Y-77165710D01*
X37577544Y-77165710D02*
X37482306Y-77013329D01*
X37482306Y-77013329D02*
X37434687Y-76708567D01*
X37434687Y-76708567D02*
X37434687Y-76175233D01*
X37434687Y-76175233D02*
X37482306Y-75870471D01*
X37482306Y-75870471D02*
X37577544Y-75718090D01*
X37577544Y-75718090D02*
X37672782Y-75641900D01*
X38482306Y-75794281D02*
X38529925Y-75718090D01*
X38529925Y-75718090D02*
X38625163Y-75641900D01*
X38625163Y-75641900D02*
X38863258Y-75641900D01*
X38863258Y-75641900D02*
X38958496Y-75718090D01*
X38958496Y-75718090D02*
X39006115Y-75794281D01*
X39006115Y-75794281D02*
X39053734Y-75946662D01*
X39053734Y-75946662D02*
X39053734Y-76099043D01*
X39053734Y-76099043D02*
X39006115Y-76327614D01*
X39006115Y-76327614D02*
X38434687Y-77241900D01*
X38434687Y-77241900D02*
X39053734Y-77241900D01*
X35529925Y-78294000D02*
X35434687Y-78217810D01*
X35434687Y-78217810D02*
X35291830Y-78217810D01*
X35291830Y-78217810D02*
X35148973Y-78294000D01*
X35148973Y-78294000D02*
X35053735Y-78446381D01*
X35053735Y-78446381D02*
X35006116Y-78598762D01*
X35006116Y-78598762D02*
X34958497Y-78903524D01*
X34958497Y-78903524D02*
X34958497Y-79132096D01*
X34958497Y-79132096D02*
X35006116Y-79436858D01*
X35006116Y-79436858D02*
X35053735Y-79589239D01*
X35053735Y-79589239D02*
X35148973Y-79741620D01*
X35148973Y-79741620D02*
X35291830Y-79817810D01*
X35291830Y-79817810D02*
X35387068Y-79817810D01*
X35387068Y-79817810D02*
X35529925Y-79741620D01*
X35529925Y-79741620D02*
X35577544Y-79665429D01*
X35577544Y-79665429D02*
X35577544Y-79132096D01*
X35577544Y-79132096D02*
X35387068Y-79132096D01*
X36006116Y-79817810D02*
X36006116Y-78217810D01*
X36006116Y-78217810D02*
X36387068Y-78217810D01*
X36387068Y-78217810D02*
X36482306Y-78294000D01*
X36482306Y-78294000D02*
X36529925Y-78370191D01*
X36529925Y-78370191D02*
X36577544Y-78522572D01*
X36577544Y-78522572D02*
X36577544Y-78751143D01*
X36577544Y-78751143D02*
X36529925Y-78903524D01*
X36529925Y-78903524D02*
X36482306Y-78979715D01*
X36482306Y-78979715D02*
X36387068Y-79055905D01*
X36387068Y-79055905D02*
X36006116Y-79055905D01*
X37006116Y-79817810D02*
X37006116Y-78217810D01*
X37672782Y-78217810D02*
X37863258Y-78217810D01*
X37863258Y-78217810D02*
X37958496Y-78294000D01*
X37958496Y-78294000D02*
X38053734Y-78446381D01*
X38053734Y-78446381D02*
X38101353Y-78751143D01*
X38101353Y-78751143D02*
X38101353Y-79284477D01*
X38101353Y-79284477D02*
X38053734Y-79589239D01*
X38053734Y-79589239D02*
X37958496Y-79741620D01*
X37958496Y-79741620D02*
X37863258Y-79817810D01*
X37863258Y-79817810D02*
X37672782Y-79817810D01*
X37672782Y-79817810D02*
X37577544Y-79741620D01*
X37577544Y-79741620D02*
X37482306Y-79589239D01*
X37482306Y-79589239D02*
X37434687Y-79284477D01*
X37434687Y-79284477D02*
X37434687Y-78751143D01*
X37434687Y-78751143D02*
X37482306Y-78446381D01*
X37482306Y-78446381D02*
X37577544Y-78294000D01*
X37577544Y-78294000D02*
X37672782Y-78217810D01*
X38958496Y-78751143D02*
X38958496Y-79817810D01*
X38720401Y-78141620D02*
X38482306Y-79284477D01*
X38482306Y-79284477D02*
X39101353Y-79284477D01*
X35529925Y-80869910D02*
X35434687Y-80793720D01*
X35434687Y-80793720D02*
X35291830Y-80793720D01*
X35291830Y-80793720D02*
X35148973Y-80869910D01*
X35148973Y-80869910D02*
X35053735Y-81022291D01*
X35053735Y-81022291D02*
X35006116Y-81174672D01*
X35006116Y-81174672D02*
X34958497Y-81479434D01*
X34958497Y-81479434D02*
X34958497Y-81708006D01*
X34958497Y-81708006D02*
X35006116Y-82012768D01*
X35006116Y-82012768D02*
X35053735Y-82165149D01*
X35053735Y-82165149D02*
X35148973Y-82317530D01*
X35148973Y-82317530D02*
X35291830Y-82393720D01*
X35291830Y-82393720D02*
X35387068Y-82393720D01*
X35387068Y-82393720D02*
X35529925Y-82317530D01*
X35529925Y-82317530D02*
X35577544Y-82241339D01*
X35577544Y-82241339D02*
X35577544Y-81708006D01*
X35577544Y-81708006D02*
X35387068Y-81708006D01*
X36006116Y-82393720D02*
X36006116Y-80793720D01*
X36006116Y-80793720D02*
X36387068Y-80793720D01*
X36387068Y-80793720D02*
X36482306Y-80869910D01*
X36482306Y-80869910D02*
X36529925Y-80946101D01*
X36529925Y-80946101D02*
X36577544Y-81098482D01*
X36577544Y-81098482D02*
X36577544Y-81327053D01*
X36577544Y-81327053D02*
X36529925Y-81479434D01*
X36529925Y-81479434D02*
X36482306Y-81555625D01*
X36482306Y-81555625D02*
X36387068Y-81631815D01*
X36387068Y-81631815D02*
X36006116Y-81631815D01*
X37006116Y-82393720D02*
X37006116Y-80793720D01*
X37672782Y-80793720D02*
X37863258Y-80793720D01*
X37863258Y-80793720D02*
X37958496Y-80869910D01*
X37958496Y-80869910D02*
X38053734Y-81022291D01*
X38053734Y-81022291D02*
X38101353Y-81327053D01*
X38101353Y-81327053D02*
X38101353Y-81860387D01*
X38101353Y-81860387D02*
X38053734Y-82165149D01*
X38053734Y-82165149D02*
X37958496Y-82317530D01*
X37958496Y-82317530D02*
X37863258Y-82393720D01*
X37863258Y-82393720D02*
X37672782Y-82393720D01*
X37672782Y-82393720D02*
X37577544Y-82317530D01*
X37577544Y-82317530D02*
X37482306Y-82165149D01*
X37482306Y-82165149D02*
X37434687Y-81860387D01*
X37434687Y-81860387D02*
X37434687Y-81327053D01*
X37434687Y-81327053D02*
X37482306Y-81022291D01*
X37482306Y-81022291D02*
X37577544Y-80869910D01*
X37577544Y-80869910D02*
X37672782Y-80793720D01*
X39006115Y-80793720D02*
X38529925Y-80793720D01*
X38529925Y-80793720D02*
X38482306Y-81555625D01*
X38482306Y-81555625D02*
X38529925Y-81479434D01*
X38529925Y-81479434D02*
X38625163Y-81403244D01*
X38625163Y-81403244D02*
X38863258Y-81403244D01*
X38863258Y-81403244D02*
X38958496Y-81479434D01*
X38958496Y-81479434D02*
X39006115Y-81555625D01*
X39006115Y-81555625D02*
X39053734Y-81708006D01*
X39053734Y-81708006D02*
X39053734Y-82088958D01*
X39053734Y-82088958D02*
X39006115Y-82241339D01*
X39006115Y-82241339D02*
X38958496Y-82317530D01*
X38958496Y-82317530D02*
X38863258Y-82393720D01*
X38863258Y-82393720D02*
X38625163Y-82393720D01*
X38625163Y-82393720D02*
X38529925Y-82317530D01*
X38529925Y-82317530D02*
X38482306Y-82241339D01*
X34577544Y-83445820D02*
X34482306Y-83369630D01*
X34482306Y-83369630D02*
X34339449Y-83369630D01*
X34339449Y-83369630D02*
X34196592Y-83445820D01*
X34196592Y-83445820D02*
X34101354Y-83598201D01*
X34101354Y-83598201D02*
X34053735Y-83750582D01*
X34053735Y-83750582D02*
X34006116Y-84055344D01*
X34006116Y-84055344D02*
X34006116Y-84283916D01*
X34006116Y-84283916D02*
X34053735Y-84588678D01*
X34053735Y-84588678D02*
X34101354Y-84741059D01*
X34101354Y-84741059D02*
X34196592Y-84893440D01*
X34196592Y-84893440D02*
X34339449Y-84969630D01*
X34339449Y-84969630D02*
X34434687Y-84969630D01*
X34434687Y-84969630D02*
X34577544Y-84893440D01*
X34577544Y-84893440D02*
X34625163Y-84817249D01*
X34625163Y-84817249D02*
X34625163Y-84283916D01*
X34625163Y-84283916D02*
X34434687Y-84283916D01*
X35053735Y-84969630D02*
X35053735Y-83369630D01*
X35053735Y-83369630D02*
X35434687Y-83369630D01*
X35434687Y-83369630D02*
X35529925Y-83445820D01*
X35529925Y-83445820D02*
X35577544Y-83522011D01*
X35577544Y-83522011D02*
X35625163Y-83674392D01*
X35625163Y-83674392D02*
X35625163Y-83902963D01*
X35625163Y-83902963D02*
X35577544Y-84055344D01*
X35577544Y-84055344D02*
X35529925Y-84131535D01*
X35529925Y-84131535D02*
X35434687Y-84207725D01*
X35434687Y-84207725D02*
X35053735Y-84207725D01*
X36053735Y-84969630D02*
X36053735Y-83369630D01*
X36720401Y-83369630D02*
X36910877Y-83369630D01*
X36910877Y-83369630D02*
X37006115Y-83445820D01*
X37006115Y-83445820D02*
X37101353Y-83598201D01*
X37101353Y-83598201D02*
X37148972Y-83902963D01*
X37148972Y-83902963D02*
X37148972Y-84436297D01*
X37148972Y-84436297D02*
X37101353Y-84741059D01*
X37101353Y-84741059D02*
X37006115Y-84893440D01*
X37006115Y-84893440D02*
X36910877Y-84969630D01*
X36910877Y-84969630D02*
X36720401Y-84969630D01*
X36720401Y-84969630D02*
X36625163Y-84893440D01*
X36625163Y-84893440D02*
X36529925Y-84741059D01*
X36529925Y-84741059D02*
X36482306Y-84436297D01*
X36482306Y-84436297D02*
X36482306Y-83902963D01*
X36482306Y-83902963D02*
X36529925Y-83598201D01*
X36529925Y-83598201D02*
X36625163Y-83445820D01*
X36625163Y-83445820D02*
X36720401Y-83369630D01*
X38101353Y-84969630D02*
X37529925Y-84969630D01*
X37815639Y-84969630D02*
X37815639Y-83369630D01*
X37815639Y-83369630D02*
X37720401Y-83598201D01*
X37720401Y-83598201D02*
X37625163Y-83750582D01*
X37625163Y-83750582D02*
X37529925Y-83826773D01*
X38482306Y-83522011D02*
X38529925Y-83445820D01*
X38529925Y-83445820D02*
X38625163Y-83369630D01*
X38625163Y-83369630D02*
X38863258Y-83369630D01*
X38863258Y-83369630D02*
X38958496Y-83445820D01*
X38958496Y-83445820D02*
X39006115Y-83522011D01*
X39006115Y-83522011D02*
X39053734Y-83674392D01*
X39053734Y-83674392D02*
X39053734Y-83826773D01*
X39053734Y-83826773D02*
X39006115Y-84055344D01*
X39006115Y-84055344D02*
X38434687Y-84969630D01*
X38434687Y-84969630D02*
X39053734Y-84969630D01*
X34577544Y-86021730D02*
X34482306Y-85945540D01*
X34482306Y-85945540D02*
X34339449Y-85945540D01*
X34339449Y-85945540D02*
X34196592Y-86021730D01*
X34196592Y-86021730D02*
X34101354Y-86174111D01*
X34101354Y-86174111D02*
X34053735Y-86326492D01*
X34053735Y-86326492D02*
X34006116Y-86631254D01*
X34006116Y-86631254D02*
X34006116Y-86859826D01*
X34006116Y-86859826D02*
X34053735Y-87164588D01*
X34053735Y-87164588D02*
X34101354Y-87316969D01*
X34101354Y-87316969D02*
X34196592Y-87469350D01*
X34196592Y-87469350D02*
X34339449Y-87545540D01*
X34339449Y-87545540D02*
X34434687Y-87545540D01*
X34434687Y-87545540D02*
X34577544Y-87469350D01*
X34577544Y-87469350D02*
X34625163Y-87393159D01*
X34625163Y-87393159D02*
X34625163Y-86859826D01*
X34625163Y-86859826D02*
X34434687Y-86859826D01*
X35053735Y-87545540D02*
X35053735Y-85945540D01*
X35053735Y-85945540D02*
X35434687Y-85945540D01*
X35434687Y-85945540D02*
X35529925Y-86021730D01*
X35529925Y-86021730D02*
X35577544Y-86097921D01*
X35577544Y-86097921D02*
X35625163Y-86250302D01*
X35625163Y-86250302D02*
X35625163Y-86478873D01*
X35625163Y-86478873D02*
X35577544Y-86631254D01*
X35577544Y-86631254D02*
X35529925Y-86707445D01*
X35529925Y-86707445D02*
X35434687Y-86783635D01*
X35434687Y-86783635D02*
X35053735Y-86783635D01*
X36053735Y-87545540D02*
X36053735Y-85945540D01*
X36720401Y-85945540D02*
X36910877Y-85945540D01*
X36910877Y-85945540D02*
X37006115Y-86021730D01*
X37006115Y-86021730D02*
X37101353Y-86174111D01*
X37101353Y-86174111D02*
X37148972Y-86478873D01*
X37148972Y-86478873D02*
X37148972Y-87012207D01*
X37148972Y-87012207D02*
X37101353Y-87316969D01*
X37101353Y-87316969D02*
X37006115Y-87469350D01*
X37006115Y-87469350D02*
X36910877Y-87545540D01*
X36910877Y-87545540D02*
X36720401Y-87545540D01*
X36720401Y-87545540D02*
X36625163Y-87469350D01*
X36625163Y-87469350D02*
X36529925Y-87316969D01*
X36529925Y-87316969D02*
X36482306Y-87012207D01*
X36482306Y-87012207D02*
X36482306Y-86478873D01*
X36482306Y-86478873D02*
X36529925Y-86174111D01*
X36529925Y-86174111D02*
X36625163Y-86021730D01*
X36625163Y-86021730D02*
X36720401Y-85945540D01*
X38101353Y-87545540D02*
X37529925Y-87545540D01*
X37815639Y-87545540D02*
X37815639Y-85945540D01*
X37815639Y-85945540D02*
X37720401Y-86174111D01*
X37720401Y-86174111D02*
X37625163Y-86326492D01*
X37625163Y-86326492D02*
X37529925Y-86402683D01*
X38434687Y-85945540D02*
X39053734Y-85945540D01*
X39053734Y-85945540D02*
X38720401Y-86555064D01*
X38720401Y-86555064D02*
X38863258Y-86555064D01*
X38863258Y-86555064D02*
X38958496Y-86631254D01*
X38958496Y-86631254D02*
X39006115Y-86707445D01*
X39006115Y-86707445D02*
X39053734Y-86859826D01*
X39053734Y-86859826D02*
X39053734Y-87240778D01*
X39053734Y-87240778D02*
X39006115Y-87393159D01*
X39006115Y-87393159D02*
X38958496Y-87469350D01*
X38958496Y-87469350D02*
X38863258Y-87545540D01*
X38863258Y-87545540D02*
X38577544Y-87545540D01*
X38577544Y-87545540D02*
X38482306Y-87469350D01*
X38482306Y-87469350D02*
X38434687Y-87393159D01*
X34577544Y-88597640D02*
X34482306Y-88521450D01*
X34482306Y-88521450D02*
X34339449Y-88521450D01*
X34339449Y-88521450D02*
X34196592Y-88597640D01*
X34196592Y-88597640D02*
X34101354Y-88750021D01*
X34101354Y-88750021D02*
X34053735Y-88902402D01*
X34053735Y-88902402D02*
X34006116Y-89207164D01*
X34006116Y-89207164D02*
X34006116Y-89435736D01*
X34006116Y-89435736D02*
X34053735Y-89740498D01*
X34053735Y-89740498D02*
X34101354Y-89892879D01*
X34101354Y-89892879D02*
X34196592Y-90045260D01*
X34196592Y-90045260D02*
X34339449Y-90121450D01*
X34339449Y-90121450D02*
X34434687Y-90121450D01*
X34434687Y-90121450D02*
X34577544Y-90045260D01*
X34577544Y-90045260D02*
X34625163Y-89969069D01*
X34625163Y-89969069D02*
X34625163Y-89435736D01*
X34625163Y-89435736D02*
X34434687Y-89435736D01*
X35053735Y-90121450D02*
X35053735Y-88521450D01*
X35053735Y-88521450D02*
X35434687Y-88521450D01*
X35434687Y-88521450D02*
X35529925Y-88597640D01*
X35529925Y-88597640D02*
X35577544Y-88673831D01*
X35577544Y-88673831D02*
X35625163Y-88826212D01*
X35625163Y-88826212D02*
X35625163Y-89054783D01*
X35625163Y-89054783D02*
X35577544Y-89207164D01*
X35577544Y-89207164D02*
X35529925Y-89283355D01*
X35529925Y-89283355D02*
X35434687Y-89359545D01*
X35434687Y-89359545D02*
X35053735Y-89359545D01*
X36053735Y-90121450D02*
X36053735Y-88521450D01*
X36720401Y-88521450D02*
X36910877Y-88521450D01*
X36910877Y-88521450D02*
X37006115Y-88597640D01*
X37006115Y-88597640D02*
X37101353Y-88750021D01*
X37101353Y-88750021D02*
X37148972Y-89054783D01*
X37148972Y-89054783D02*
X37148972Y-89588117D01*
X37148972Y-89588117D02*
X37101353Y-89892879D01*
X37101353Y-89892879D02*
X37006115Y-90045260D01*
X37006115Y-90045260D02*
X36910877Y-90121450D01*
X36910877Y-90121450D02*
X36720401Y-90121450D01*
X36720401Y-90121450D02*
X36625163Y-90045260D01*
X36625163Y-90045260D02*
X36529925Y-89892879D01*
X36529925Y-89892879D02*
X36482306Y-89588117D01*
X36482306Y-89588117D02*
X36482306Y-89054783D01*
X36482306Y-89054783D02*
X36529925Y-88750021D01*
X36529925Y-88750021D02*
X36625163Y-88597640D01*
X36625163Y-88597640D02*
X36720401Y-88521450D01*
X38101353Y-90121450D02*
X37529925Y-90121450D01*
X37815639Y-90121450D02*
X37815639Y-88521450D01*
X37815639Y-88521450D02*
X37720401Y-88750021D01*
X37720401Y-88750021D02*
X37625163Y-88902402D01*
X37625163Y-88902402D02*
X37529925Y-88978593D01*
X38958496Y-89054783D02*
X38958496Y-90121450D01*
X38720401Y-88445260D02*
X38482306Y-89588117D01*
X38482306Y-89588117D02*
X39101353Y-89588117D01*
X34577544Y-91173550D02*
X34482306Y-91097360D01*
X34482306Y-91097360D02*
X34339449Y-91097360D01*
X34339449Y-91097360D02*
X34196592Y-91173550D01*
X34196592Y-91173550D02*
X34101354Y-91325931D01*
X34101354Y-91325931D02*
X34053735Y-91478312D01*
X34053735Y-91478312D02*
X34006116Y-91783074D01*
X34006116Y-91783074D02*
X34006116Y-92011646D01*
X34006116Y-92011646D02*
X34053735Y-92316408D01*
X34053735Y-92316408D02*
X34101354Y-92468789D01*
X34101354Y-92468789D02*
X34196592Y-92621170D01*
X34196592Y-92621170D02*
X34339449Y-92697360D01*
X34339449Y-92697360D02*
X34434687Y-92697360D01*
X34434687Y-92697360D02*
X34577544Y-92621170D01*
X34577544Y-92621170D02*
X34625163Y-92544979D01*
X34625163Y-92544979D02*
X34625163Y-92011646D01*
X34625163Y-92011646D02*
X34434687Y-92011646D01*
X35053735Y-92697360D02*
X35053735Y-91097360D01*
X35053735Y-91097360D02*
X35434687Y-91097360D01*
X35434687Y-91097360D02*
X35529925Y-91173550D01*
X35529925Y-91173550D02*
X35577544Y-91249741D01*
X35577544Y-91249741D02*
X35625163Y-91402122D01*
X35625163Y-91402122D02*
X35625163Y-91630693D01*
X35625163Y-91630693D02*
X35577544Y-91783074D01*
X35577544Y-91783074D02*
X35529925Y-91859265D01*
X35529925Y-91859265D02*
X35434687Y-91935455D01*
X35434687Y-91935455D02*
X35053735Y-91935455D01*
X36053735Y-92697360D02*
X36053735Y-91097360D01*
X36720401Y-91097360D02*
X36910877Y-91097360D01*
X36910877Y-91097360D02*
X37006115Y-91173550D01*
X37006115Y-91173550D02*
X37101353Y-91325931D01*
X37101353Y-91325931D02*
X37148972Y-91630693D01*
X37148972Y-91630693D02*
X37148972Y-92164027D01*
X37148972Y-92164027D02*
X37101353Y-92468789D01*
X37101353Y-92468789D02*
X37006115Y-92621170D01*
X37006115Y-92621170D02*
X36910877Y-92697360D01*
X36910877Y-92697360D02*
X36720401Y-92697360D01*
X36720401Y-92697360D02*
X36625163Y-92621170D01*
X36625163Y-92621170D02*
X36529925Y-92468789D01*
X36529925Y-92468789D02*
X36482306Y-92164027D01*
X36482306Y-92164027D02*
X36482306Y-91630693D01*
X36482306Y-91630693D02*
X36529925Y-91325931D01*
X36529925Y-91325931D02*
X36625163Y-91173550D01*
X36625163Y-91173550D02*
X36720401Y-91097360D01*
X38101353Y-92697360D02*
X37529925Y-92697360D01*
X37815639Y-92697360D02*
X37815639Y-91097360D01*
X37815639Y-91097360D02*
X37720401Y-91325931D01*
X37720401Y-91325931D02*
X37625163Y-91478312D01*
X37625163Y-91478312D02*
X37529925Y-91554503D01*
X39006115Y-91097360D02*
X38529925Y-91097360D01*
X38529925Y-91097360D02*
X38482306Y-91859265D01*
X38482306Y-91859265D02*
X38529925Y-91783074D01*
X38529925Y-91783074D02*
X38625163Y-91706884D01*
X38625163Y-91706884D02*
X38863258Y-91706884D01*
X38863258Y-91706884D02*
X38958496Y-91783074D01*
X38958496Y-91783074D02*
X39006115Y-91859265D01*
X39006115Y-91859265D02*
X39053734Y-92011646D01*
X39053734Y-92011646D02*
X39053734Y-92392598D01*
X39053734Y-92392598D02*
X39006115Y-92544979D01*
X39006115Y-92544979D02*
X38958496Y-92621170D01*
X38958496Y-92621170D02*
X38863258Y-92697360D01*
X38863258Y-92697360D02*
X38625163Y-92697360D01*
X38625163Y-92697360D02*
X38529925Y-92621170D01*
X38529925Y-92621170D02*
X38482306Y-92544979D01*
X31879509Y-65124530D02*
X31879509Y-65600720D01*
X31593794Y-65029292D02*
X32593794Y-65362625D01*
X32593794Y-65362625D02*
X31593794Y-65695958D01*
X32260461Y-66029292D02*
X31593794Y-66029292D01*
X32165223Y-66029292D02*
X32212842Y-66076911D01*
X32212842Y-66076911D02*
X32260461Y-66172149D01*
X32260461Y-66172149D02*
X32260461Y-66315006D01*
X32260461Y-66315006D02*
X32212842Y-66410244D01*
X32212842Y-66410244D02*
X32117604Y-66457863D01*
X32117604Y-66457863D02*
X31593794Y-66457863D01*
X31593794Y-67362625D02*
X32117604Y-67362625D01*
X32117604Y-67362625D02*
X32212842Y-67315006D01*
X32212842Y-67315006D02*
X32260461Y-67219768D01*
X32260461Y-67219768D02*
X32260461Y-67029292D01*
X32260461Y-67029292D02*
X32212842Y-66934054D01*
X31641414Y-67362625D02*
X31593794Y-67267387D01*
X31593794Y-67267387D02*
X31593794Y-67029292D01*
X31593794Y-67029292D02*
X31641414Y-66934054D01*
X31641414Y-66934054D02*
X31736652Y-66886435D01*
X31736652Y-66886435D02*
X31831890Y-66886435D01*
X31831890Y-66886435D02*
X31927128Y-66934054D01*
X31927128Y-66934054D02*
X31974747Y-67029292D01*
X31974747Y-67029292D02*
X31974747Y-67267387D01*
X31974747Y-67267387D02*
X32022366Y-67362625D01*
X31593794Y-67981673D02*
X31641414Y-67886435D01*
X31641414Y-67886435D02*
X31736652Y-67838816D01*
X31736652Y-67838816D02*
X32593794Y-67838816D01*
X31593794Y-68505483D02*
X31641414Y-68410245D01*
X31641414Y-68410245D02*
X31689033Y-68362626D01*
X31689033Y-68362626D02*
X31784271Y-68315007D01*
X31784271Y-68315007D02*
X32069985Y-68315007D01*
X32069985Y-68315007D02*
X32165223Y-68362626D01*
X32165223Y-68362626D02*
X32212842Y-68410245D01*
X32212842Y-68410245D02*
X32260461Y-68505483D01*
X32260461Y-68505483D02*
X32260461Y-68648340D01*
X32260461Y-68648340D02*
X32212842Y-68743578D01*
X32212842Y-68743578D02*
X32165223Y-68791197D01*
X32165223Y-68791197D02*
X32069985Y-68838816D01*
X32069985Y-68838816D02*
X31784271Y-68838816D01*
X31784271Y-68838816D02*
X31689033Y-68791197D01*
X31689033Y-68791197D02*
X31641414Y-68743578D01*
X31641414Y-68743578D02*
X31593794Y-68648340D01*
X31593794Y-68648340D02*
X31593794Y-68505483D01*
X32260461Y-69695959D02*
X31450937Y-69695959D01*
X31450937Y-69695959D02*
X31355699Y-69648340D01*
X31355699Y-69648340D02*
X31308080Y-69600721D01*
X31308080Y-69600721D02*
X31260461Y-69505483D01*
X31260461Y-69505483D02*
X31260461Y-69362626D01*
X31260461Y-69362626D02*
X31308080Y-69267388D01*
X31641414Y-69695959D02*
X31593794Y-69600721D01*
X31593794Y-69600721D02*
X31593794Y-69410245D01*
X31593794Y-69410245D02*
X31641414Y-69315007D01*
X31641414Y-69315007D02*
X31689033Y-69267388D01*
X31689033Y-69267388D02*
X31784271Y-69219769D01*
X31784271Y-69219769D02*
X32069985Y-69219769D01*
X32069985Y-69219769D02*
X32165223Y-69267388D01*
X32165223Y-69267388D02*
X32212842Y-69315007D01*
X32212842Y-69315007D02*
X32260461Y-69410245D01*
X32260461Y-69410245D02*
X32260461Y-69600721D01*
X32260461Y-69600721D02*
X32212842Y-69695959D01*
X40783333Y-97932419D02*
X41402380Y-97932419D01*
X41402380Y-97932419D02*
X41069047Y-98313371D01*
X41069047Y-98313371D02*
X41211904Y-98313371D01*
X41211904Y-98313371D02*
X41307142Y-98360990D01*
X41307142Y-98360990D02*
X41354761Y-98408609D01*
X41354761Y-98408609D02*
X41402380Y-98503847D01*
X41402380Y-98503847D02*
X41402380Y-98741942D01*
X41402380Y-98741942D02*
X41354761Y-98837180D01*
X41354761Y-98837180D02*
X41307142Y-98884800D01*
X41307142Y-98884800D02*
X41211904Y-98932419D01*
X41211904Y-98932419D02*
X40926190Y-98932419D01*
X40926190Y-98932419D02*
X40830952Y-98884800D01*
X40830952Y-98884800D02*
X40783333Y-98837180D01*
X41688095Y-97932419D02*
X42021428Y-98932419D01*
X42021428Y-98932419D02*
X42354761Y-97932419D01*
X42592857Y-97932419D02*
X43211904Y-97932419D01*
X43211904Y-97932419D02*
X42878571Y-98313371D01*
X42878571Y-98313371D02*
X43021428Y-98313371D01*
X43021428Y-98313371D02*
X43116666Y-98360990D01*
X43116666Y-98360990D02*
X43164285Y-98408609D01*
X43164285Y-98408609D02*
X43211904Y-98503847D01*
X43211904Y-98503847D02*
X43211904Y-98741942D01*
X43211904Y-98741942D02*
X43164285Y-98837180D01*
X43164285Y-98837180D02*
X43116666Y-98884800D01*
X43116666Y-98884800D02*
X43021428Y-98932419D01*
X43021428Y-98932419D02*
X42735714Y-98932419D01*
X42735714Y-98932419D02*
X42640476Y-98884800D01*
X42640476Y-98884800D02*
X42592857Y-98837180D01*
X46402381Y-97932419D02*
X45926191Y-97932419D01*
X45926191Y-97932419D02*
X45878572Y-98408609D01*
X45878572Y-98408609D02*
X45926191Y-98360990D01*
X45926191Y-98360990D02*
X46021429Y-98313371D01*
X46021429Y-98313371D02*
X46259524Y-98313371D01*
X46259524Y-98313371D02*
X46354762Y-98360990D01*
X46354762Y-98360990D02*
X46402381Y-98408609D01*
X46402381Y-98408609D02*
X46450000Y-98503847D01*
X46450000Y-98503847D02*
X46450000Y-98741942D01*
X46450000Y-98741942D02*
X46402381Y-98837180D01*
X46402381Y-98837180D02*
X46354762Y-98884800D01*
X46354762Y-98884800D02*
X46259524Y-98932419D01*
X46259524Y-98932419D02*
X46021429Y-98932419D01*
X46021429Y-98932419D02*
X45926191Y-98884800D01*
X45926191Y-98884800D02*
X45878572Y-98837180D01*
X46735715Y-97932419D02*
X47069048Y-98932419D01*
X47069048Y-98932419D02*
X47402381Y-97932419D01*
X62962307Y-45091664D02*
X65233937Y-45091664D01*
X76251535Y-45020615D02*
X74981672Y-45013117D01*
X68907631Y-34197463D02*
X68538864Y-34689426D01*
X69391240Y-44427979D02*
X69027290Y-45010298D01*
X69041654Y-38671571D02*
X69041654Y-39309093D01*
X64381146Y-38671571D02*
X69041654Y-38671571D01*
X63127186Y-35101994D02*
X64994906Y-35101994D01*
X70346150Y-34142135D02*
X70659673Y-34510986D01*
X65355040Y-43732114D02*
X69390512Y-43705910D01*
X68907631Y-33459761D02*
X68907631Y-34197463D01*
X65163792Y-33459761D02*
X68907631Y-33459761D01*
X74421749Y-43627297D02*
X70595912Y-43627297D01*
X74403512Y-33385991D02*
X70327707Y-33385991D01*
X70595912Y-44518245D02*
X70857956Y-45042332D01*
X63032217Y-40008717D02*
X65343855Y-39998813D01*
X70595912Y-43627297D02*
X70595912Y-44518245D01*
X76272789Y-34998783D02*
X75002926Y-34991285D01*
X69041654Y-39309093D02*
X68733884Y-39880665D01*
X69390512Y-43705910D02*
X69391240Y-44427979D01*
X70558517Y-39419011D02*
X70954220Y-39946616D01*
X75350925Y-38495703D02*
X70558517Y-38495703D01*
X70558517Y-38495703D02*
X70558517Y-39419011D01*
X76263609Y-40135065D02*
X74993746Y-40127567D01*
X70327707Y-33385991D02*
X70346150Y-34142135D01*
D11*
X77014118Y-39578640D02*
X76918880Y-39531021D01*
X76918880Y-39531021D02*
X76776023Y-39531021D01*
X76776023Y-39531021D02*
X76633166Y-39578640D01*
X76633166Y-39578640D02*
X76537928Y-39673878D01*
X76537928Y-39673878D02*
X76490309Y-39769116D01*
X76490309Y-39769116D02*
X76442690Y-39959592D01*
X76442690Y-39959592D02*
X76442690Y-40102449D01*
X76442690Y-40102449D02*
X76490309Y-40292925D01*
X76490309Y-40292925D02*
X76537928Y-40388163D01*
X76537928Y-40388163D02*
X76633166Y-40483402D01*
X76633166Y-40483402D02*
X76776023Y-40531021D01*
X76776023Y-40531021D02*
X76871261Y-40531021D01*
X76871261Y-40531021D02*
X77014118Y-40483402D01*
X77014118Y-40483402D02*
X77061737Y-40435782D01*
X77061737Y-40435782D02*
X77061737Y-40102449D01*
X77061737Y-40102449D02*
X76871261Y-40102449D01*
X77490309Y-40531021D02*
X77490309Y-39531021D01*
X77490309Y-39531021D02*
X78061737Y-40531021D01*
X78061737Y-40531021D02*
X78061737Y-39531021D01*
X78537928Y-40531021D02*
X78537928Y-39531021D01*
X78537928Y-39531021D02*
X78776023Y-39531021D01*
X78776023Y-39531021D02*
X78918880Y-39578640D01*
X78918880Y-39578640D02*
X79014118Y-39673878D01*
X79014118Y-39673878D02*
X79061737Y-39769116D01*
X79061737Y-39769116D02*
X79109356Y-39959592D01*
X79109356Y-39959592D02*
X79109356Y-40102449D01*
X79109356Y-40102449D02*
X79061737Y-40292925D01*
X79061737Y-40292925D02*
X79014118Y-40388163D01*
X79014118Y-40388163D02*
X78918880Y-40483402D01*
X78918880Y-40483402D02*
X78776023Y-40531021D01*
X78776023Y-40531021D02*
X78537928Y-40531021D01*
X60309103Y-44706601D02*
X60928150Y-44706601D01*
X60928150Y-44706601D02*
X60594817Y-45087553D01*
X60594817Y-45087553D02*
X60737674Y-45087553D01*
X60737674Y-45087553D02*
X60832912Y-45135172D01*
X60832912Y-45135172D02*
X60880531Y-45182791D01*
X60880531Y-45182791D02*
X60928150Y-45278029D01*
X60928150Y-45278029D02*
X60928150Y-45516124D01*
X60928150Y-45516124D02*
X60880531Y-45611362D01*
X60880531Y-45611362D02*
X60832912Y-45658982D01*
X60832912Y-45658982D02*
X60737674Y-45706601D01*
X60737674Y-45706601D02*
X60451960Y-45706601D01*
X60451960Y-45706601D02*
X60356722Y-45658982D01*
X60356722Y-45658982D02*
X60309103Y-45611362D01*
X61261484Y-45039934D02*
X61499579Y-45706601D01*
X61499579Y-45706601D02*
X61737674Y-45039934D01*
X62023389Y-44706601D02*
X62642436Y-44706601D01*
X62642436Y-44706601D02*
X62309103Y-45087553D01*
X62309103Y-45087553D02*
X62451960Y-45087553D01*
X62451960Y-45087553D02*
X62547198Y-45135172D01*
X62547198Y-45135172D02*
X62594817Y-45182791D01*
X62594817Y-45182791D02*
X62642436Y-45278029D01*
X62642436Y-45278029D02*
X62642436Y-45516124D01*
X62642436Y-45516124D02*
X62594817Y-45611362D01*
X62594817Y-45611362D02*
X62547198Y-45658982D01*
X62547198Y-45658982D02*
X62451960Y-45706601D01*
X62451960Y-45706601D02*
X62166246Y-45706601D01*
X62166246Y-45706601D02*
X62071008Y-45658982D01*
X62071008Y-45658982D02*
X62023389Y-45611362D01*
X65796600Y-42345720D02*
X65701362Y-42298101D01*
X65701362Y-42298101D02*
X65558505Y-42298101D01*
X65558505Y-42298101D02*
X65415648Y-42345720D01*
X65415648Y-42345720D02*
X65320410Y-42440958D01*
X65320410Y-42440958D02*
X65272791Y-42536196D01*
X65272791Y-42536196D02*
X65225172Y-42726672D01*
X65225172Y-42726672D02*
X65225172Y-42869529D01*
X65225172Y-42869529D02*
X65272791Y-43060005D01*
X65272791Y-43060005D02*
X65320410Y-43155243D01*
X65320410Y-43155243D02*
X65415648Y-43250482D01*
X65415648Y-43250482D02*
X65558505Y-43298101D01*
X65558505Y-43298101D02*
X65653743Y-43298101D01*
X65653743Y-43298101D02*
X65796600Y-43250482D01*
X65796600Y-43250482D02*
X65844219Y-43202862D01*
X65844219Y-43202862D02*
X65844219Y-42869529D01*
X65844219Y-42869529D02*
X65653743Y-42869529D01*
X66272791Y-43298101D02*
X66272791Y-42298101D01*
X66272791Y-42298101D02*
X66653743Y-42298101D01*
X66653743Y-42298101D02*
X66748981Y-42345720D01*
X66748981Y-42345720D02*
X66796600Y-42393339D01*
X66796600Y-42393339D02*
X66844219Y-42488577D01*
X66844219Y-42488577D02*
X66844219Y-42631434D01*
X66844219Y-42631434D02*
X66796600Y-42726672D01*
X66796600Y-42726672D02*
X66748981Y-42774291D01*
X66748981Y-42774291D02*
X66653743Y-42821910D01*
X66653743Y-42821910D02*
X66272791Y-42821910D01*
X67272791Y-43298101D02*
X67272791Y-42298101D01*
X67939457Y-42298101D02*
X68129933Y-42298101D01*
X68129933Y-42298101D02*
X68225171Y-42345720D01*
X68225171Y-42345720D02*
X68320409Y-42440958D01*
X68320409Y-42440958D02*
X68368028Y-42631434D01*
X68368028Y-42631434D02*
X68368028Y-42964767D01*
X68368028Y-42964767D02*
X68320409Y-43155243D01*
X68320409Y-43155243D02*
X68225171Y-43250482D01*
X68225171Y-43250482D02*
X68129933Y-43298101D01*
X68129933Y-43298101D02*
X67939457Y-43298101D01*
X67939457Y-43298101D02*
X67844219Y-43250482D01*
X67844219Y-43250482D02*
X67748981Y-43155243D01*
X67748981Y-43155243D02*
X67701362Y-42964767D01*
X67701362Y-42964767D02*
X67701362Y-42631434D01*
X67701362Y-42631434D02*
X67748981Y-42440958D01*
X67748981Y-42440958D02*
X67844219Y-42345720D01*
X67844219Y-42345720D02*
X67939457Y-42298101D01*
X69225171Y-42631434D02*
X69225171Y-43298101D01*
X68987076Y-42250482D02*
X68748981Y-42964767D01*
X68748981Y-42964767D02*
X69368028Y-42964767D01*
X71034695Y-42345720D02*
X70939457Y-42298101D01*
X70939457Y-42298101D02*
X70796600Y-42298101D01*
X70796600Y-42298101D02*
X70653743Y-42345720D01*
X70653743Y-42345720D02*
X70558505Y-42440958D01*
X70558505Y-42440958D02*
X70510886Y-42536196D01*
X70510886Y-42536196D02*
X70463267Y-42726672D01*
X70463267Y-42726672D02*
X70463267Y-42869529D01*
X70463267Y-42869529D02*
X70510886Y-43060005D01*
X70510886Y-43060005D02*
X70558505Y-43155243D01*
X70558505Y-43155243D02*
X70653743Y-43250482D01*
X70653743Y-43250482D02*
X70796600Y-43298101D01*
X70796600Y-43298101D02*
X70891838Y-43298101D01*
X70891838Y-43298101D02*
X71034695Y-43250482D01*
X71034695Y-43250482D02*
X71082314Y-43202862D01*
X71082314Y-43202862D02*
X71082314Y-42869529D01*
X71082314Y-42869529D02*
X70891838Y-42869529D01*
X71510886Y-43298101D02*
X71510886Y-42298101D01*
X71510886Y-42298101D02*
X71891838Y-42298101D01*
X71891838Y-42298101D02*
X71987076Y-42345720D01*
X71987076Y-42345720D02*
X72034695Y-42393339D01*
X72034695Y-42393339D02*
X72082314Y-42488577D01*
X72082314Y-42488577D02*
X72082314Y-42631434D01*
X72082314Y-42631434D02*
X72034695Y-42726672D01*
X72034695Y-42726672D02*
X71987076Y-42774291D01*
X71987076Y-42774291D02*
X71891838Y-42821910D01*
X71891838Y-42821910D02*
X71510886Y-42821910D01*
X72510886Y-43298101D02*
X72510886Y-42298101D01*
X73177552Y-42298101D02*
X73368028Y-42298101D01*
X73368028Y-42298101D02*
X73463266Y-42345720D01*
X73463266Y-42345720D02*
X73558504Y-42440958D01*
X73558504Y-42440958D02*
X73606123Y-42631434D01*
X73606123Y-42631434D02*
X73606123Y-42964767D01*
X73606123Y-42964767D02*
X73558504Y-43155243D01*
X73558504Y-43155243D02*
X73463266Y-43250482D01*
X73463266Y-43250482D02*
X73368028Y-43298101D01*
X73368028Y-43298101D02*
X73177552Y-43298101D01*
X73177552Y-43298101D02*
X73082314Y-43250482D01*
X73082314Y-43250482D02*
X72987076Y-43155243D01*
X72987076Y-43155243D02*
X72939457Y-42964767D01*
X72939457Y-42964767D02*
X72939457Y-42631434D01*
X72939457Y-42631434D02*
X72987076Y-42440958D01*
X72987076Y-42440958D02*
X73082314Y-42345720D01*
X73082314Y-42345720D02*
X73177552Y-42298101D01*
X74510885Y-42298101D02*
X74034695Y-42298101D01*
X74034695Y-42298101D02*
X73987076Y-42774291D01*
X73987076Y-42774291D02*
X74034695Y-42726672D01*
X74034695Y-42726672D02*
X74129933Y-42679053D01*
X74129933Y-42679053D02*
X74368028Y-42679053D01*
X74368028Y-42679053D02*
X74463266Y-42726672D01*
X74463266Y-42726672D02*
X74510885Y-42774291D01*
X74510885Y-42774291D02*
X74558504Y-42869529D01*
X74558504Y-42869529D02*
X74558504Y-43107624D01*
X74558504Y-43107624D02*
X74510885Y-43202862D01*
X74510885Y-43202862D02*
X74463266Y-43250482D01*
X74463266Y-43250482D02*
X74368028Y-43298101D01*
X74368028Y-43298101D02*
X74129933Y-43298101D01*
X74129933Y-43298101D02*
X74034695Y-43250482D01*
X74034695Y-43250482D02*
X73987076Y-43202862D01*
X65597891Y-32257562D02*
X65502653Y-32209943D01*
X65502653Y-32209943D02*
X65359796Y-32209943D01*
X65359796Y-32209943D02*
X65216939Y-32257562D01*
X65216939Y-32257562D02*
X65121701Y-32352800D01*
X65121701Y-32352800D02*
X65074082Y-32448038D01*
X65074082Y-32448038D02*
X65026463Y-32638514D01*
X65026463Y-32638514D02*
X65026463Y-32781371D01*
X65026463Y-32781371D02*
X65074082Y-32971847D01*
X65074082Y-32971847D02*
X65121701Y-33067085D01*
X65121701Y-33067085D02*
X65216939Y-33162324D01*
X65216939Y-33162324D02*
X65359796Y-33209943D01*
X65359796Y-33209943D02*
X65455034Y-33209943D01*
X65455034Y-33209943D02*
X65597891Y-33162324D01*
X65597891Y-33162324D02*
X65645510Y-33114704D01*
X65645510Y-33114704D02*
X65645510Y-32781371D01*
X65645510Y-32781371D02*
X65455034Y-32781371D01*
X66074082Y-33209943D02*
X66074082Y-32209943D01*
X66074082Y-32209943D02*
X66455034Y-32209943D01*
X66455034Y-32209943D02*
X66550272Y-32257562D01*
X66550272Y-32257562D02*
X66597891Y-32305181D01*
X66597891Y-32305181D02*
X66645510Y-32400419D01*
X66645510Y-32400419D02*
X66645510Y-32543276D01*
X66645510Y-32543276D02*
X66597891Y-32638514D01*
X66597891Y-32638514D02*
X66550272Y-32686133D01*
X66550272Y-32686133D02*
X66455034Y-32733752D01*
X66455034Y-32733752D02*
X66074082Y-32733752D01*
X67074082Y-33209943D02*
X67074082Y-32209943D01*
X67740748Y-32209943D02*
X67931224Y-32209943D01*
X67931224Y-32209943D02*
X68026462Y-32257562D01*
X68026462Y-32257562D02*
X68121700Y-32352800D01*
X68121700Y-32352800D02*
X68169319Y-32543276D01*
X68169319Y-32543276D02*
X68169319Y-32876609D01*
X68169319Y-32876609D02*
X68121700Y-33067085D01*
X68121700Y-33067085D02*
X68026462Y-33162324D01*
X68026462Y-33162324D02*
X67931224Y-33209943D01*
X67931224Y-33209943D02*
X67740748Y-33209943D01*
X67740748Y-33209943D02*
X67645510Y-33162324D01*
X67645510Y-33162324D02*
X67550272Y-33067085D01*
X67550272Y-33067085D02*
X67502653Y-32876609D01*
X67502653Y-32876609D02*
X67502653Y-32543276D01*
X67502653Y-32543276D02*
X67550272Y-32352800D01*
X67550272Y-32352800D02*
X67645510Y-32257562D01*
X67645510Y-32257562D02*
X67740748Y-32209943D01*
X68788367Y-32209943D02*
X68883605Y-32209943D01*
X68883605Y-32209943D02*
X68978843Y-32257562D01*
X68978843Y-32257562D02*
X69026462Y-32305181D01*
X69026462Y-32305181D02*
X69074081Y-32400419D01*
X69074081Y-32400419D02*
X69121700Y-32590895D01*
X69121700Y-32590895D02*
X69121700Y-32828990D01*
X69121700Y-32828990D02*
X69074081Y-33019466D01*
X69074081Y-33019466D02*
X69026462Y-33114704D01*
X69026462Y-33114704D02*
X68978843Y-33162324D01*
X68978843Y-33162324D02*
X68883605Y-33209943D01*
X68883605Y-33209943D02*
X68788367Y-33209943D01*
X68788367Y-33209943D02*
X68693129Y-33162324D01*
X68693129Y-33162324D02*
X68645510Y-33114704D01*
X68645510Y-33114704D02*
X68597891Y-33019466D01*
X68597891Y-33019466D02*
X68550272Y-32828990D01*
X68550272Y-32828990D02*
X68550272Y-32590895D01*
X68550272Y-32590895D02*
X68597891Y-32400419D01*
X68597891Y-32400419D02*
X68645510Y-32305181D01*
X68645510Y-32305181D02*
X68693129Y-32257562D01*
X68693129Y-32257562D02*
X68788367Y-32209943D01*
X70835986Y-32257562D02*
X70740748Y-32209943D01*
X70740748Y-32209943D02*
X70597891Y-32209943D01*
X70597891Y-32209943D02*
X70455034Y-32257562D01*
X70455034Y-32257562D02*
X70359796Y-32352800D01*
X70359796Y-32352800D02*
X70312177Y-32448038D01*
X70312177Y-32448038D02*
X70264558Y-32638514D01*
X70264558Y-32638514D02*
X70264558Y-32781371D01*
X70264558Y-32781371D02*
X70312177Y-32971847D01*
X70312177Y-32971847D02*
X70359796Y-33067085D01*
X70359796Y-33067085D02*
X70455034Y-33162324D01*
X70455034Y-33162324D02*
X70597891Y-33209943D01*
X70597891Y-33209943D02*
X70693129Y-33209943D01*
X70693129Y-33209943D02*
X70835986Y-33162324D01*
X70835986Y-33162324D02*
X70883605Y-33114704D01*
X70883605Y-33114704D02*
X70883605Y-32781371D01*
X70883605Y-32781371D02*
X70693129Y-32781371D01*
X71312177Y-33209943D02*
X71312177Y-32209943D01*
X71312177Y-32209943D02*
X71693129Y-32209943D01*
X71693129Y-32209943D02*
X71788367Y-32257562D01*
X71788367Y-32257562D02*
X71835986Y-32305181D01*
X71835986Y-32305181D02*
X71883605Y-32400419D01*
X71883605Y-32400419D02*
X71883605Y-32543276D01*
X71883605Y-32543276D02*
X71835986Y-32638514D01*
X71835986Y-32638514D02*
X71788367Y-32686133D01*
X71788367Y-32686133D02*
X71693129Y-32733752D01*
X71693129Y-32733752D02*
X71312177Y-32733752D01*
X72312177Y-33209943D02*
X72312177Y-32209943D01*
X72978843Y-32209943D02*
X73169319Y-32209943D01*
X73169319Y-32209943D02*
X73264557Y-32257562D01*
X73264557Y-32257562D02*
X73359795Y-32352800D01*
X73359795Y-32352800D02*
X73407414Y-32543276D01*
X73407414Y-32543276D02*
X73407414Y-32876609D01*
X73407414Y-32876609D02*
X73359795Y-33067085D01*
X73359795Y-33067085D02*
X73264557Y-33162324D01*
X73264557Y-33162324D02*
X73169319Y-33209943D01*
X73169319Y-33209943D02*
X72978843Y-33209943D01*
X72978843Y-33209943D02*
X72883605Y-33162324D01*
X72883605Y-33162324D02*
X72788367Y-33067085D01*
X72788367Y-33067085D02*
X72740748Y-32876609D01*
X72740748Y-32876609D02*
X72740748Y-32543276D01*
X72740748Y-32543276D02*
X72788367Y-32352800D01*
X72788367Y-32352800D02*
X72883605Y-32257562D01*
X72883605Y-32257562D02*
X72978843Y-32209943D01*
X73788367Y-32305181D02*
X73835986Y-32257562D01*
X73835986Y-32257562D02*
X73931224Y-32209943D01*
X73931224Y-32209943D02*
X74169319Y-32209943D01*
X74169319Y-32209943D02*
X74264557Y-32257562D01*
X74264557Y-32257562D02*
X74312176Y-32305181D01*
X74312176Y-32305181D02*
X74359795Y-32400419D01*
X74359795Y-32400419D02*
X74359795Y-32495657D01*
X74359795Y-32495657D02*
X74312176Y-32638514D01*
X74312176Y-32638514D02*
X73740748Y-33209943D01*
X73740748Y-33209943D02*
X74359795Y-33209943D01*
X64698830Y-37277106D02*
X64603592Y-37229487D01*
X64603592Y-37229487D02*
X64460735Y-37229487D01*
X64460735Y-37229487D02*
X64317878Y-37277106D01*
X64317878Y-37277106D02*
X64222640Y-37372344D01*
X64222640Y-37372344D02*
X64175021Y-37467582D01*
X64175021Y-37467582D02*
X64127402Y-37658058D01*
X64127402Y-37658058D02*
X64127402Y-37800915D01*
X64127402Y-37800915D02*
X64175021Y-37991391D01*
X64175021Y-37991391D02*
X64222640Y-38086629D01*
X64222640Y-38086629D02*
X64317878Y-38181868D01*
X64317878Y-38181868D02*
X64460735Y-38229487D01*
X64460735Y-38229487D02*
X64555973Y-38229487D01*
X64555973Y-38229487D02*
X64698830Y-38181868D01*
X64698830Y-38181868D02*
X64746449Y-38134248D01*
X64746449Y-38134248D02*
X64746449Y-37800915D01*
X64746449Y-37800915D02*
X64555973Y-37800915D01*
X65175021Y-38229487D02*
X65175021Y-37229487D01*
X65175021Y-37229487D02*
X65555973Y-37229487D01*
X65555973Y-37229487D02*
X65651211Y-37277106D01*
X65651211Y-37277106D02*
X65698830Y-37324725D01*
X65698830Y-37324725D02*
X65746449Y-37419963D01*
X65746449Y-37419963D02*
X65746449Y-37562820D01*
X65746449Y-37562820D02*
X65698830Y-37658058D01*
X65698830Y-37658058D02*
X65651211Y-37705677D01*
X65651211Y-37705677D02*
X65555973Y-37753296D01*
X65555973Y-37753296D02*
X65175021Y-37753296D01*
X66175021Y-38229487D02*
X66175021Y-37229487D01*
X66841687Y-37229487D02*
X67032163Y-37229487D01*
X67032163Y-37229487D02*
X67127401Y-37277106D01*
X67127401Y-37277106D02*
X67222639Y-37372344D01*
X67222639Y-37372344D02*
X67270258Y-37562820D01*
X67270258Y-37562820D02*
X67270258Y-37896153D01*
X67270258Y-37896153D02*
X67222639Y-38086629D01*
X67222639Y-38086629D02*
X67127401Y-38181868D01*
X67127401Y-38181868D02*
X67032163Y-38229487D01*
X67032163Y-38229487D02*
X66841687Y-38229487D01*
X66841687Y-38229487D02*
X66746449Y-38181868D01*
X66746449Y-38181868D02*
X66651211Y-38086629D01*
X66651211Y-38086629D02*
X66603592Y-37896153D01*
X66603592Y-37896153D02*
X66603592Y-37562820D01*
X66603592Y-37562820D02*
X66651211Y-37372344D01*
X66651211Y-37372344D02*
X66746449Y-37277106D01*
X66746449Y-37277106D02*
X66841687Y-37229487D01*
X68222639Y-38229487D02*
X67651211Y-38229487D01*
X67936925Y-38229487D02*
X67936925Y-37229487D01*
X67936925Y-37229487D02*
X67841687Y-37372344D01*
X67841687Y-37372344D02*
X67746449Y-37467582D01*
X67746449Y-37467582D02*
X67651211Y-37515201D01*
X69079782Y-37562820D02*
X69079782Y-38229487D01*
X68841687Y-37181868D02*
X68603592Y-37896153D01*
X68603592Y-37896153D02*
X69222639Y-37896153D01*
X70889306Y-37277106D02*
X70794068Y-37229487D01*
X70794068Y-37229487D02*
X70651211Y-37229487D01*
X70651211Y-37229487D02*
X70508354Y-37277106D01*
X70508354Y-37277106D02*
X70413116Y-37372344D01*
X70413116Y-37372344D02*
X70365497Y-37467582D01*
X70365497Y-37467582D02*
X70317878Y-37658058D01*
X70317878Y-37658058D02*
X70317878Y-37800915D01*
X70317878Y-37800915D02*
X70365497Y-37991391D01*
X70365497Y-37991391D02*
X70413116Y-38086629D01*
X70413116Y-38086629D02*
X70508354Y-38181868D01*
X70508354Y-38181868D02*
X70651211Y-38229487D01*
X70651211Y-38229487D02*
X70746449Y-38229487D01*
X70746449Y-38229487D02*
X70889306Y-38181868D01*
X70889306Y-38181868D02*
X70936925Y-38134248D01*
X70936925Y-38134248D02*
X70936925Y-37800915D01*
X70936925Y-37800915D02*
X70746449Y-37800915D01*
X71365497Y-38229487D02*
X71365497Y-37229487D01*
X71365497Y-37229487D02*
X71746449Y-37229487D01*
X71746449Y-37229487D02*
X71841687Y-37277106D01*
X71841687Y-37277106D02*
X71889306Y-37324725D01*
X71889306Y-37324725D02*
X71936925Y-37419963D01*
X71936925Y-37419963D02*
X71936925Y-37562820D01*
X71936925Y-37562820D02*
X71889306Y-37658058D01*
X71889306Y-37658058D02*
X71841687Y-37705677D01*
X71841687Y-37705677D02*
X71746449Y-37753296D01*
X71746449Y-37753296D02*
X71365497Y-37753296D01*
X72365497Y-38229487D02*
X72365497Y-37229487D01*
X73032163Y-37229487D02*
X73222639Y-37229487D01*
X73222639Y-37229487D02*
X73317877Y-37277106D01*
X73317877Y-37277106D02*
X73413115Y-37372344D01*
X73413115Y-37372344D02*
X73460734Y-37562820D01*
X73460734Y-37562820D02*
X73460734Y-37896153D01*
X73460734Y-37896153D02*
X73413115Y-38086629D01*
X73413115Y-38086629D02*
X73317877Y-38181868D01*
X73317877Y-38181868D02*
X73222639Y-38229487D01*
X73222639Y-38229487D02*
X73032163Y-38229487D01*
X73032163Y-38229487D02*
X72936925Y-38181868D01*
X72936925Y-38181868D02*
X72841687Y-38086629D01*
X72841687Y-38086629D02*
X72794068Y-37896153D01*
X72794068Y-37896153D02*
X72794068Y-37562820D01*
X72794068Y-37562820D02*
X72841687Y-37372344D01*
X72841687Y-37372344D02*
X72936925Y-37277106D01*
X72936925Y-37277106D02*
X73032163Y-37229487D01*
X74413115Y-38229487D02*
X73841687Y-38229487D01*
X74127401Y-38229487D02*
X74127401Y-37229487D01*
X74127401Y-37229487D02*
X74032163Y-37372344D01*
X74032163Y-37372344D02*
X73936925Y-37467582D01*
X73936925Y-37467582D02*
X73841687Y-37515201D01*
X74794068Y-37324725D02*
X74841687Y-37277106D01*
X74841687Y-37277106D02*
X74936925Y-37229487D01*
X74936925Y-37229487D02*
X75175020Y-37229487D01*
X75175020Y-37229487D02*
X75270258Y-37277106D01*
X75270258Y-37277106D02*
X75317877Y-37324725D01*
X75317877Y-37324725D02*
X75365496Y-37419963D01*
X75365496Y-37419963D02*
X75365496Y-37515201D01*
X75365496Y-37515201D02*
X75317877Y-37658058D01*
X75317877Y-37658058D02*
X74746449Y-38229487D01*
X74746449Y-38229487D02*
X75365496Y-38229487D01*
X77101133Y-58657190D02*
X77101133Y-58181000D01*
X77386848Y-58752428D02*
X76386848Y-58419095D01*
X76386848Y-58419095D02*
X77386848Y-58085762D01*
X76720181Y-57752428D02*
X77386848Y-57752428D01*
X76815419Y-57752428D02*
X76767800Y-57704809D01*
X76767800Y-57704809D02*
X76720181Y-57609571D01*
X76720181Y-57609571D02*
X76720181Y-57466714D01*
X76720181Y-57466714D02*
X76767800Y-57371476D01*
X76767800Y-57371476D02*
X76863038Y-57323857D01*
X76863038Y-57323857D02*
X77386848Y-57323857D01*
X77386848Y-56419095D02*
X76863038Y-56419095D01*
X76863038Y-56419095D02*
X76767800Y-56466714D01*
X76767800Y-56466714D02*
X76720181Y-56561952D01*
X76720181Y-56561952D02*
X76720181Y-56752428D01*
X76720181Y-56752428D02*
X76767800Y-56847666D01*
X77339229Y-56419095D02*
X77386848Y-56514333D01*
X77386848Y-56514333D02*
X77386848Y-56752428D01*
X77386848Y-56752428D02*
X77339229Y-56847666D01*
X77339229Y-56847666D02*
X77243990Y-56895285D01*
X77243990Y-56895285D02*
X77148752Y-56895285D01*
X77148752Y-56895285D02*
X77053514Y-56847666D01*
X77053514Y-56847666D02*
X77005895Y-56752428D01*
X77005895Y-56752428D02*
X77005895Y-56514333D01*
X77005895Y-56514333D02*
X76958276Y-56419095D01*
X77386848Y-55800047D02*
X77339229Y-55895285D01*
X77339229Y-55895285D02*
X77243990Y-55942904D01*
X77243990Y-55942904D02*
X76386848Y-55942904D01*
X77386848Y-55276237D02*
X77339229Y-55371475D01*
X77339229Y-55371475D02*
X77291609Y-55419094D01*
X77291609Y-55419094D02*
X77196371Y-55466713D01*
X77196371Y-55466713D02*
X76910657Y-55466713D01*
X76910657Y-55466713D02*
X76815419Y-55419094D01*
X76815419Y-55419094D02*
X76767800Y-55371475D01*
X76767800Y-55371475D02*
X76720181Y-55276237D01*
X76720181Y-55276237D02*
X76720181Y-55133380D01*
X76720181Y-55133380D02*
X76767800Y-55038142D01*
X76767800Y-55038142D02*
X76815419Y-54990523D01*
X76815419Y-54990523D02*
X76910657Y-54942904D01*
X76910657Y-54942904D02*
X77196371Y-54942904D01*
X77196371Y-54942904D02*
X77291609Y-54990523D01*
X77291609Y-54990523D02*
X77339229Y-55038142D01*
X77339229Y-55038142D02*
X77386848Y-55133380D01*
X77386848Y-55133380D02*
X77386848Y-55276237D01*
X76720181Y-54085761D02*
X77529705Y-54085761D01*
X77529705Y-54085761D02*
X77624943Y-54133380D01*
X77624943Y-54133380D02*
X77672562Y-54180999D01*
X77672562Y-54180999D02*
X77720181Y-54276237D01*
X77720181Y-54276237D02*
X77720181Y-54419094D01*
X77720181Y-54419094D02*
X77672562Y-54514332D01*
X77339229Y-54085761D02*
X77386848Y-54180999D01*
X77386848Y-54180999D02*
X77386848Y-54371475D01*
X77386848Y-54371475D02*
X77339229Y-54466713D01*
X77339229Y-54466713D02*
X77291609Y-54514332D01*
X77291609Y-54514332D02*
X77196371Y-54561951D01*
X77196371Y-54561951D02*
X76910657Y-54561951D01*
X76910657Y-54561951D02*
X76815419Y-54514332D01*
X76815419Y-54514332D02*
X76767800Y-54466713D01*
X76767800Y-54466713D02*
X76720181Y-54371475D01*
X76720181Y-54371475D02*
X76720181Y-54180999D01*
X76720181Y-54180999D02*
X76767800Y-54085761D01*
X77014118Y-34498640D02*
X76918880Y-34451021D01*
X76918880Y-34451021D02*
X76776023Y-34451021D01*
X76776023Y-34451021D02*
X76633166Y-34498640D01*
X76633166Y-34498640D02*
X76537928Y-34593878D01*
X76537928Y-34593878D02*
X76490309Y-34689116D01*
X76490309Y-34689116D02*
X76442690Y-34879592D01*
X76442690Y-34879592D02*
X76442690Y-35022449D01*
X76442690Y-35022449D02*
X76490309Y-35212925D01*
X76490309Y-35212925D02*
X76537928Y-35308163D01*
X76537928Y-35308163D02*
X76633166Y-35403402D01*
X76633166Y-35403402D02*
X76776023Y-35451021D01*
X76776023Y-35451021D02*
X76871261Y-35451021D01*
X76871261Y-35451021D02*
X77014118Y-35403402D01*
X77014118Y-35403402D02*
X77061737Y-35355782D01*
X77061737Y-35355782D02*
X77061737Y-35022449D01*
X77061737Y-35022449D02*
X76871261Y-35022449D01*
X77490309Y-35451021D02*
X77490309Y-34451021D01*
X77490309Y-34451021D02*
X78061737Y-35451021D01*
X78061737Y-35451021D02*
X78061737Y-34451021D01*
X78537928Y-35451021D02*
X78537928Y-34451021D01*
X78537928Y-34451021D02*
X78776023Y-34451021D01*
X78776023Y-34451021D02*
X78918880Y-34498640D01*
X78918880Y-34498640D02*
X79014118Y-34593878D01*
X79014118Y-34593878D02*
X79061737Y-34689116D01*
X79061737Y-34689116D02*
X79109356Y-34879592D01*
X79109356Y-34879592D02*
X79109356Y-35022449D01*
X79109356Y-35022449D02*
X79061737Y-35212925D01*
X79061737Y-35212925D02*
X79014118Y-35308163D01*
X79014118Y-35308163D02*
X78918880Y-35403402D01*
X78918880Y-35403402D02*
X78776023Y-35451021D01*
X78776023Y-35451021D02*
X78537928Y-35451021D01*
X61726499Y-34451021D02*
X61250309Y-34451021D01*
X61250309Y-34451021D02*
X61202690Y-34927211D01*
X61202690Y-34927211D02*
X61250309Y-34879592D01*
X61250309Y-34879592D02*
X61345547Y-34831973D01*
X61345547Y-34831973D02*
X61583642Y-34831973D01*
X61583642Y-34831973D02*
X61678880Y-34879592D01*
X61678880Y-34879592D02*
X61726499Y-34927211D01*
X61726499Y-34927211D02*
X61774118Y-35022449D01*
X61774118Y-35022449D02*
X61774118Y-35260544D01*
X61774118Y-35260544D02*
X61726499Y-35355782D01*
X61726499Y-35355782D02*
X61678880Y-35403402D01*
X61678880Y-35403402D02*
X61583642Y-35451021D01*
X61583642Y-35451021D02*
X61345547Y-35451021D01*
X61345547Y-35451021D02*
X61250309Y-35403402D01*
X61250309Y-35403402D02*
X61202690Y-35355782D01*
X62059833Y-34451021D02*
X62393166Y-35451021D01*
X62393166Y-35451021D02*
X62726499Y-34451021D01*
X77014118Y-44658640D02*
X76918880Y-44611021D01*
X76918880Y-44611021D02*
X76776023Y-44611021D01*
X76776023Y-44611021D02*
X76633166Y-44658640D01*
X76633166Y-44658640D02*
X76537928Y-44753878D01*
X76537928Y-44753878D02*
X76490309Y-44849116D01*
X76490309Y-44849116D02*
X76442690Y-45039592D01*
X76442690Y-45039592D02*
X76442690Y-45182449D01*
X76442690Y-45182449D02*
X76490309Y-45372925D01*
X76490309Y-45372925D02*
X76537928Y-45468163D01*
X76537928Y-45468163D02*
X76633166Y-45563402D01*
X76633166Y-45563402D02*
X76776023Y-45611021D01*
X76776023Y-45611021D02*
X76871261Y-45611021D01*
X76871261Y-45611021D02*
X77014118Y-45563402D01*
X77014118Y-45563402D02*
X77061737Y-45515782D01*
X77061737Y-45515782D02*
X77061737Y-45182449D01*
X77061737Y-45182449D02*
X76871261Y-45182449D01*
X77490309Y-45611021D02*
X77490309Y-44611021D01*
X77490309Y-44611021D02*
X78061737Y-45611021D01*
X78061737Y-45611021D02*
X78061737Y-44611021D01*
X78537928Y-45611021D02*
X78537928Y-44611021D01*
X78537928Y-44611021D02*
X78776023Y-44611021D01*
X78776023Y-44611021D02*
X78918880Y-44658640D01*
X78918880Y-44658640D02*
X79014118Y-44753878D01*
X79014118Y-44753878D02*
X79061737Y-44849116D01*
X79061737Y-44849116D02*
X79109356Y-45039592D01*
X79109356Y-45039592D02*
X79109356Y-45182449D01*
X79109356Y-45182449D02*
X79061737Y-45372925D01*
X79061737Y-45372925D02*
X79014118Y-45468163D01*
X79014118Y-45468163D02*
X78918880Y-45563402D01*
X78918880Y-45563402D02*
X78776023Y-45611021D01*
X78776023Y-45611021D02*
X78537928Y-45611021D01*
X60404683Y-39704574D02*
X61023730Y-39704574D01*
X61023730Y-39704574D02*
X60690397Y-40085526D01*
X60690397Y-40085526D02*
X60833254Y-40085526D01*
X60833254Y-40085526D02*
X60928492Y-40133145D01*
X60928492Y-40133145D02*
X60976111Y-40180764D01*
X60976111Y-40180764D02*
X61023730Y-40276002D01*
X61023730Y-40276002D02*
X61023730Y-40514097D01*
X61023730Y-40514097D02*
X60976111Y-40609335D01*
X60976111Y-40609335D02*
X60928492Y-40656955D01*
X60928492Y-40656955D02*
X60833254Y-40704574D01*
X60833254Y-40704574D02*
X60547540Y-40704574D01*
X60547540Y-40704574D02*
X60452302Y-40656955D01*
X60452302Y-40656955D02*
X60404683Y-40609335D01*
X61357064Y-40037907D02*
X61595159Y-40704574D01*
X61595159Y-40704574D02*
X61833254Y-40037907D01*
X62118969Y-39704574D02*
X62738016Y-39704574D01*
X62738016Y-39704574D02*
X62404683Y-40085526D01*
X62404683Y-40085526D02*
X62547540Y-40085526D01*
X62547540Y-40085526D02*
X62642778Y-40133145D01*
X62642778Y-40133145D02*
X62690397Y-40180764D01*
X62690397Y-40180764D02*
X62738016Y-40276002D01*
X62738016Y-40276002D02*
X62738016Y-40514097D01*
X62738016Y-40514097D02*
X62690397Y-40609335D01*
X62690397Y-40609335D02*
X62642778Y-40656955D01*
X62642778Y-40656955D02*
X62547540Y-40704574D01*
X62547540Y-40704574D02*
X62261826Y-40704574D01*
X62261826Y-40704574D02*
X62166588Y-40656955D01*
X62166588Y-40656955D02*
X62118969Y-40609335D01*
D10*
X29549561Y-82310351D02*
X29073371Y-82310351D01*
X29073371Y-82310351D02*
X29025752Y-82786541D01*
X29025752Y-82786541D02*
X29073371Y-82738922D01*
X29073371Y-82738922D02*
X29168609Y-82691303D01*
X29168609Y-82691303D02*
X29406704Y-82691303D01*
X29406704Y-82691303D02*
X29501942Y-82738922D01*
X29501942Y-82738922D02*
X29549561Y-82786541D01*
X29549561Y-82786541D02*
X29597180Y-82881779D01*
X29597180Y-82881779D02*
X29597180Y-83119874D01*
X29597180Y-83119874D02*
X29549561Y-83215112D01*
X29549561Y-83215112D02*
X29501942Y-83262732D01*
X29501942Y-83262732D02*
X29406704Y-83310351D01*
X29406704Y-83310351D02*
X29168609Y-83310351D01*
X29168609Y-83310351D02*
X29073371Y-83262732D01*
X29073371Y-83262732D02*
X29025752Y-83215112D01*
X29882895Y-82310351D02*
X30216228Y-83310351D01*
X30216228Y-83310351D02*
X30549561Y-82310351D01*
X32168609Y-82357970D02*
X32073371Y-82310351D01*
X32073371Y-82310351D02*
X31930514Y-82310351D01*
X31930514Y-82310351D02*
X31787657Y-82357970D01*
X31787657Y-82357970D02*
X31692419Y-82453208D01*
X31692419Y-82453208D02*
X31644800Y-82548446D01*
X31644800Y-82548446D02*
X31597181Y-82738922D01*
X31597181Y-82738922D02*
X31597181Y-82881779D01*
X31597181Y-82881779D02*
X31644800Y-83072255D01*
X31644800Y-83072255D02*
X31692419Y-83167493D01*
X31692419Y-83167493D02*
X31787657Y-83262732D01*
X31787657Y-83262732D02*
X31930514Y-83310351D01*
X31930514Y-83310351D02*
X32025752Y-83310351D01*
X32025752Y-83310351D02*
X32168609Y-83262732D01*
X32168609Y-83262732D02*
X32216228Y-83215112D01*
X32216228Y-83215112D02*
X32216228Y-82881779D01*
X32216228Y-82881779D02*
X32025752Y-82881779D01*
X32644800Y-83310351D02*
X32644800Y-82310351D01*
X32644800Y-82310351D02*
X33216228Y-83310351D01*
X33216228Y-83310351D02*
X33216228Y-82310351D01*
X33692419Y-83310351D02*
X33692419Y-82310351D01*
X33692419Y-82310351D02*
X33930514Y-82310351D01*
X33930514Y-82310351D02*
X34073371Y-82357970D01*
X34073371Y-82357970D02*
X34168609Y-82453208D01*
X34168609Y-82453208D02*
X34216228Y-82548446D01*
X34216228Y-82548446D02*
X34263847Y-82738922D01*
X34263847Y-82738922D02*
X34263847Y-82881779D01*
X34263847Y-82881779D02*
X34216228Y-83072255D01*
X34216228Y-83072255D02*
X34168609Y-83167493D01*
X34168609Y-83167493D02*
X34073371Y-83262732D01*
X34073371Y-83262732D02*
X33930514Y-83310351D01*
X33930514Y-83310351D02*
X33692419Y-83310351D01*
D11*
X39034819Y-95583333D02*
X39749104Y-95583333D01*
X39749104Y-95583333D02*
X39891961Y-95630952D01*
X39891961Y-95630952D02*
X39987200Y-95726190D01*
X39987200Y-95726190D02*
X40034819Y-95869047D01*
X40034819Y-95869047D02*
X40034819Y-95964285D01*
X39130057Y-95154761D02*
X39082438Y-95107142D01*
X39082438Y-95107142D02*
X39034819Y-95011904D01*
X39034819Y-95011904D02*
X39034819Y-94773809D01*
X39034819Y-94773809D02*
X39082438Y-94678571D01*
X39082438Y-94678571D02*
X39130057Y-94630952D01*
X39130057Y-94630952D02*
X39225295Y-94583333D01*
X39225295Y-94583333D02*
X39320533Y-94583333D01*
X39320533Y-94583333D02*
X39463390Y-94630952D01*
X39463390Y-94630952D02*
X40034819Y-95202380D01*
X40034819Y-95202380D02*
X40034819Y-94583333D01*
X40306666Y-70784819D02*
X40306666Y-71499104D01*
X40306666Y-71499104D02*
X40259047Y-71641961D01*
X40259047Y-71641961D02*
X40163809Y-71737200D01*
X40163809Y-71737200D02*
X40020952Y-71784819D01*
X40020952Y-71784819D02*
X39925714Y-71784819D01*
X41259047Y-70784819D02*
X40782857Y-70784819D01*
X40782857Y-70784819D02*
X40735238Y-71261009D01*
X40735238Y-71261009D02*
X40782857Y-71213390D01*
X40782857Y-71213390D02*
X40878095Y-71165771D01*
X40878095Y-71165771D02*
X41116190Y-71165771D01*
X41116190Y-71165771D02*
X41211428Y-71213390D01*
X41211428Y-71213390D02*
X41259047Y-71261009D01*
X41259047Y-71261009D02*
X41306666Y-71356247D01*
X41306666Y-71356247D02*
X41306666Y-71594342D01*
X41306666Y-71594342D02*
X41259047Y-71689580D01*
X41259047Y-71689580D02*
X41211428Y-71737200D01*
X41211428Y-71737200D02*
X41116190Y-71784819D01*
X41116190Y-71784819D02*
X40878095Y-71784819D01*
X40878095Y-71784819D02*
X40782857Y-71737200D01*
X40782857Y-71737200D02*
X40735238Y-71689580D01*
X47926666Y-70784819D02*
X47926666Y-71499104D01*
X47926666Y-71499104D02*
X47879047Y-71641961D01*
X47879047Y-71641961D02*
X47783809Y-71737200D01*
X47783809Y-71737200D02*
X47640952Y-71784819D01*
X47640952Y-71784819D02*
X47545714Y-71784819D01*
X48307619Y-70784819D02*
X48926666Y-70784819D01*
X48926666Y-70784819D02*
X48593333Y-71165771D01*
X48593333Y-71165771D02*
X48736190Y-71165771D01*
X48736190Y-71165771D02*
X48831428Y-71213390D01*
X48831428Y-71213390D02*
X48879047Y-71261009D01*
X48879047Y-71261009D02*
X48926666Y-71356247D01*
X48926666Y-71356247D02*
X48926666Y-71594342D01*
X48926666Y-71594342D02*
X48879047Y-71689580D01*
X48879047Y-71689580D02*
X48831428Y-71737200D01*
X48831428Y-71737200D02*
X48736190Y-71784819D01*
X48736190Y-71784819D02*
X48450476Y-71784819D01*
X48450476Y-71784819D02*
X48355238Y-71737200D01*
X48355238Y-71737200D02*
X48307619Y-71689580D01*
X61058095Y-61008006D02*
X61058095Y-61817529D01*
X61058095Y-61817529D02*
X61105714Y-61912767D01*
X61105714Y-61912767D02*
X61153333Y-61960387D01*
X61153333Y-61960387D02*
X61248571Y-62008006D01*
X61248571Y-62008006D02*
X61439047Y-62008006D01*
X61439047Y-62008006D02*
X61534285Y-61960387D01*
X61534285Y-61960387D02*
X61581904Y-61912767D01*
X61581904Y-61912767D02*
X61629523Y-61817529D01*
X61629523Y-61817529D02*
X61629523Y-61008006D01*
X62058095Y-61103244D02*
X62105714Y-61055625D01*
X62105714Y-61055625D02*
X62200952Y-61008006D01*
X62200952Y-61008006D02*
X62439047Y-61008006D01*
X62439047Y-61008006D02*
X62534285Y-61055625D01*
X62534285Y-61055625D02*
X62581904Y-61103244D01*
X62581904Y-61103244D02*
X62629523Y-61198482D01*
X62629523Y-61198482D02*
X62629523Y-61293720D01*
X62629523Y-61293720D02*
X62581904Y-61436577D01*
X62581904Y-61436577D02*
X62010476Y-62008006D01*
X62010476Y-62008006D02*
X62629523Y-62008006D01*
X27262904Y-58706858D02*
X26786713Y-59040191D01*
X27262904Y-59278286D02*
X26262904Y-59278286D01*
X26262904Y-59278286D02*
X26262904Y-58897334D01*
X26262904Y-58897334D02*
X26310523Y-58802096D01*
X26310523Y-58802096D02*
X26358142Y-58754477D01*
X26358142Y-58754477D02*
X26453380Y-58706858D01*
X26453380Y-58706858D02*
X26596237Y-58706858D01*
X26596237Y-58706858D02*
X26691475Y-58754477D01*
X26691475Y-58754477D02*
X26739094Y-58802096D01*
X26739094Y-58802096D02*
X26786713Y-58897334D01*
X26786713Y-58897334D02*
X26786713Y-59278286D01*
X27262904Y-57754477D02*
X27262904Y-58325905D01*
X27262904Y-58040191D02*
X26262904Y-58040191D01*
X26262904Y-58040191D02*
X26405761Y-58135429D01*
X26405761Y-58135429D02*
X26500999Y-58230667D01*
X26500999Y-58230667D02*
X26548618Y-58325905D01*
X29121989Y-63252465D02*
X29121989Y-63966750D01*
X29121989Y-63966750D02*
X29074370Y-64109607D01*
X29074370Y-64109607D02*
X28979132Y-64204846D01*
X28979132Y-64204846D02*
X28836275Y-64252465D01*
X28836275Y-64252465D02*
X28741037Y-64252465D01*
X30026751Y-63252465D02*
X29836275Y-63252465D01*
X29836275Y-63252465D02*
X29741037Y-63300084D01*
X29741037Y-63300084D02*
X29693418Y-63347703D01*
X29693418Y-63347703D02*
X29598180Y-63490560D01*
X29598180Y-63490560D02*
X29550561Y-63681036D01*
X29550561Y-63681036D02*
X29550561Y-64061988D01*
X29550561Y-64061988D02*
X29598180Y-64157226D01*
X29598180Y-64157226D02*
X29645799Y-64204846D01*
X29645799Y-64204846D02*
X29741037Y-64252465D01*
X29741037Y-64252465D02*
X29931513Y-64252465D01*
X29931513Y-64252465D02*
X30026751Y-64204846D01*
X30026751Y-64204846D02*
X30074370Y-64157226D01*
X30074370Y-64157226D02*
X30121989Y-64061988D01*
X30121989Y-64061988D02*
X30121989Y-63823893D01*
X30121989Y-63823893D02*
X30074370Y-63728655D01*
X30074370Y-63728655D02*
X30026751Y-63681036D01*
X30026751Y-63681036D02*
X29931513Y-63633417D01*
X29931513Y-63633417D02*
X29741037Y-63633417D01*
X29741037Y-63633417D02*
X29645799Y-63681036D01*
X29645799Y-63681036D02*
X29598180Y-63728655D01*
X29598180Y-63728655D02*
X29550561Y-63823893D01*
D12*
%TO.C,J2*%
X40580000Y-96580000D02*
X40580000Y-95250000D01*
X41910000Y-96580000D02*
X40580000Y-96580000D01*
X43180000Y-93920000D02*
X48320000Y-93920000D01*
X43180000Y-96580000D02*
X43180000Y-93920000D01*
X43180000Y-96580000D02*
X48320000Y-96580000D01*
X48320000Y-96580000D02*
X48320000Y-93920000D01*
%TO.C,J9*%
X64710000Y-41623187D02*
X64710000Y-40293187D01*
X66040000Y-41623187D02*
X64710000Y-41623187D01*
X67310000Y-38963187D02*
X74990000Y-38963187D01*
X67310000Y-41623187D02*
X67310000Y-38963187D01*
X67310000Y-41623187D02*
X74990000Y-41623187D01*
X74990000Y-41623187D02*
X74990000Y-38963187D01*
%TO.C,J1*%
X28600000Y-81460000D02*
X28600000Y-82500000D01*
X28600000Y-82500000D02*
X29400000Y-82500000D01*
X28840000Y-75520000D02*
X28840000Y-82260000D01*
X28840000Y-75520000D02*
X34660000Y-75520000D01*
X28840000Y-77239000D02*
X34660000Y-77239000D01*
X28840000Y-80340000D02*
X34660000Y-80340000D01*
X28840000Y-81340000D02*
X34660000Y-81340000D01*
X28840000Y-82260000D02*
X34660000Y-82260000D01*
X34660000Y-75520000D02*
X34660000Y-82260000D01*
%TO.C,J5*%
X41970000Y-74930000D02*
X41970000Y-92770000D01*
X39310000Y-92770000D02*
X41970000Y-92770000D01*
X39310000Y-74930000D02*
X41970000Y-74930000D01*
X39310000Y-74930000D02*
X39310000Y-92770000D01*
X39310000Y-73660000D02*
X39310000Y-72330000D01*
X39310000Y-72330000D02*
X40640000Y-72330000D01*
%TO.C,J8*%
X64710000Y-46703187D02*
X64710000Y-45373187D01*
X66040000Y-46703187D02*
X64710000Y-46703187D01*
X67310000Y-44043187D02*
X74990000Y-44043187D01*
X67310000Y-46703187D02*
X67310000Y-44043187D01*
X67310000Y-46703187D02*
X74990000Y-46703187D01*
X74990000Y-46703187D02*
X74990000Y-44043187D01*
%TO.C,J4*%
X45780000Y-74930000D02*
X45780000Y-92770000D01*
X43120000Y-92770000D02*
X45780000Y-92770000D01*
X43120000Y-74930000D02*
X45780000Y-74930000D01*
X43120000Y-74930000D02*
X43120000Y-92770000D01*
X43120000Y-73660000D02*
X43120000Y-72330000D01*
X43120000Y-72330000D02*
X44450000Y-72330000D01*
%TO.C,J7*%
X78421775Y-54037942D02*
X79751775Y-54037942D01*
X78421775Y-55367942D02*
X78421775Y-54037942D01*
X78421775Y-56637942D02*
X78421775Y-59237942D01*
X78421775Y-56637942D02*
X81081775Y-56637942D01*
X78421775Y-59237942D02*
X81081775Y-59237942D01*
X81081775Y-56637942D02*
X81081775Y-59237942D01*
%TO.C,R2*%
X82450000Y-53533187D02*
X82450000Y-60073187D01*
X82450000Y-60073187D02*
X82780000Y-60073187D01*
X82780000Y-53533187D02*
X82450000Y-53533187D01*
X84860000Y-53533187D02*
X85190000Y-53533187D01*
X85190000Y-53533187D02*
X85190000Y-60073187D01*
X85190000Y-60073187D02*
X84860000Y-60073187D01*
%TO.C,J3*%
X49590000Y-74930000D02*
X49590000Y-92770000D01*
X46930000Y-92770000D02*
X49590000Y-92770000D01*
X46930000Y-74930000D02*
X49590000Y-74930000D01*
X46930000Y-74930000D02*
X46930000Y-92770000D01*
X46930000Y-73660000D02*
X46930000Y-72330000D01*
X46930000Y-72330000D02*
X48260000Y-72330000D01*
%TO.C,J10*%
X64710000Y-36543187D02*
X64710000Y-35213187D01*
X66040000Y-36543187D02*
X64710000Y-36543187D01*
X67310000Y-33883187D02*
X74990000Y-33883187D01*
X67310000Y-36543187D02*
X67310000Y-33883187D01*
X67310000Y-36543187D02*
X74990000Y-36543187D01*
X74990000Y-36543187D02*
X74990000Y-33883187D01*
%TO.C,U2*%
X59460000Y-62433187D02*
X59460000Y-94763187D01*
X61580000Y-96893187D02*
X83190000Y-96893187D01*
X82780000Y-62433187D02*
X59460000Y-62433187D01*
X82780000Y-69333187D02*
X82780000Y-62433187D01*
X85320000Y-69333187D02*
X82780000Y-69333187D01*
X85320000Y-69333187D02*
X85320000Y-94763187D01*
X61590000Y-96893187D02*
G75*
G02*
X59460000Y-94763187I0J2130000D01*
G01*
X85320000Y-94763187D02*
G75*
G02*
X83190000Y-96893187I-2130002J2D01*
G01*
D11*
X86360000Y-89188187D02*
X85725000Y-88553187D01*
X86360000Y-87918187D01*
X86360000Y-89188187D01*
G36*
X86360000Y-89188187D02*
G01*
X85725000Y-88553187D01*
X86360000Y-87918187D01*
X86360000Y-89188187D01*
G37*
%TO.C,U1*%
X25949850Y-34593478D02*
X25314850Y-35228478D01*
X25314850Y-33958478D01*
X25949850Y-34593478D01*
G36*
X25949850Y-34593478D02*
G01*
X25314850Y-35228478D01*
X25314850Y-33958478D01*
X25949850Y-34593478D01*
G37*
D12*
X50084850Y-26253478D02*
G75*
G02*
X52214850Y-28383478I0J-2130000D01*
G01*
X26354850Y-28383478D02*
G75*
G02*
X28484850Y-26253478I2130002J-2D01*
G01*
X52214850Y-60713478D02*
X52214850Y-28383478D01*
X50094850Y-26253478D02*
X28484850Y-26253478D01*
X28894850Y-60713478D02*
X52214850Y-60713478D01*
X28894850Y-53813478D02*
X28894850Y-60713478D01*
X26354850Y-53813478D02*
X28894850Y-53813478D01*
X26354850Y-53813478D02*
X26354850Y-28383478D01*
%TO.C,R1*%
X27808085Y-55270192D02*
X28138085Y-55270192D01*
X27808085Y-61810192D02*
X27808085Y-55270192D01*
X28138085Y-61810192D02*
X27808085Y-61810192D01*
X30218085Y-61810192D02*
X30548085Y-61810192D01*
X30548085Y-55270192D02*
X30218085Y-55270192D01*
X30548085Y-61810192D02*
X30548085Y-55270192D01*
%TO.C,J6*%
X28125323Y-64797646D02*
X29455323Y-64797646D01*
X28125323Y-66127646D02*
X28125323Y-64797646D01*
X28125323Y-67397646D02*
X28125323Y-69997646D01*
X28125323Y-67397646D02*
X30785323Y-67397646D01*
X28125323Y-69997646D02*
X30785323Y-69997646D01*
X30785323Y-67397646D02*
X30785323Y-69997646D01*
%TD*%
M02*
