M48
; DRILL file {KiCad 8.0.5} date 2024-11-16T12:50:38+0100
; FORMAT={-:-/ absolute / metric / decimal}
; #@! TF.CreationDate,2024-11-16T12:50:38+01:00
; #@! TF.GenerationSoftware,Kicad,Pcbnew,8.0.5
; #@! TF.FileFunction,Plated,1,2,PTH
FMAT,2
METRIC
; #@! TA.AperFunction,Plated,PTH,ComponentDrill
T1C0.800
; #@! TA.AperFunction,Plated,PTH,ComponentDrill
T2C1.000
; #@! TA.AperFunction,Plated,PTH,ComponentDrill
T3C1.200
%
G90
G05
T1
X29.178Y-54.73
X29.178Y-62.35
X83.82Y-52.993
X83.82Y-60.613
T2
X27.855Y-34.593
X27.855Y-37.133
X27.855Y-39.673
X27.855Y-42.213
X27.855Y-44.753
X27.855Y-47.293
X27.855Y-49.833
X27.855Y-52.373
X29.455Y-66.128
X29.455Y-68.668
X40.64Y-73.66
X40.64Y-76.2
X40.64Y-78.74
X40.64Y-81.28
X40.64Y-83.82
X40.64Y-86.36
X40.64Y-88.9
X40.64Y-91.44
X41.91Y-95.25
X44.45Y-73.66
X44.45Y-76.2
X44.45Y-78.74
X44.45Y-81.28
X44.45Y-83.82
X44.45Y-86.36
X44.45Y-88.9
X44.45Y-91.44
X44.45Y-95.25
X46.99Y-95.25
X48.26Y-73.66
X48.26Y-76.2
X48.26Y-78.74
X48.26Y-81.28
X48.26Y-83.82
X48.26Y-86.36
X48.26Y-88.9
X48.26Y-91.44
X50.715Y-34.593
X50.715Y-37.133
X50.715Y-39.673
X50.715Y-42.213
X50.715Y-44.753
X50.715Y-47.293
X50.715Y-49.833
X50.715Y-52.373
X60.96Y-70.773
X60.96Y-73.313
X60.96Y-75.853
X60.96Y-78.393
X60.96Y-80.933
X60.96Y-83.473
X60.96Y-86.013
X60.96Y-88.553
X66.04Y-35.213
X66.04Y-40.293
X66.04Y-45.373
X68.58Y-35.213
X68.58Y-40.293
X68.58Y-45.373
X71.12Y-35.213
X71.12Y-40.293
X71.12Y-45.373
X73.66Y-35.213
X73.66Y-40.293
X73.66Y-45.373
X79.752Y-55.368
X79.752Y-57.908
X83.82Y-70.773
X83.82Y-73.313
X83.82Y-75.853
X83.82Y-78.393
X83.82Y-80.933
X83.82Y-83.473
X83.82Y-86.013
X83.82Y-88.553
T3
X30.48Y-78.74
X33.02Y-78.74
M30
