%TF.GenerationSoftware,KiCad,Pcbnew,8.0.5*%
%TF.CreationDate,2024-11-16T12:50:35+01:00*%
%TF.ProjectId,esp8266-expansion-board,65737038-3236-4362-9d65-7870616e7369,rev?*%
%TF.SameCoordinates,Original*%
%TF.FileFunction,Drillmap*%
%TF.FilePolarity,Positive*%
%FSLAX45Y45*%
G04 Gerber Fmt 4.5, Leading zero omitted, Abs format (unit mm)*
G04 Created by KiCad (PCBNEW 8.0.5) date 2024-11-16 12:50:35*
%MOMM*%
%LPD*%
G01*
G04 APERTURE LIST*
%ADD10C,0.050000*%
%ADD11C,0.200000*%
%ADD12C,0.100000*%
%ADD13C,0.120000*%
G04 APERTURE END LIST*
D10*
X5842000Y-3810000D02*
G75*
G02*
X5334000Y-3810000I-254000J0D01*
G01*
X5334000Y-3810000D02*
G75*
G02*
X5842000Y-3810000I254000J0D01*
G01*
X5842000Y-4572000D02*
G75*
G02*
X5334000Y-4572000I-254000J0D01*
G01*
X5334000Y-4572000D02*
G75*
G02*
X5842000Y-4572000I254000J0D01*
G01*
X5842000Y-5334000D02*
G75*
G02*
X5334000Y-5334000I-254000J0D01*
G01*
X5334000Y-5334000D02*
G75*
G02*
X5842000Y-5334000I254000J0D01*
G01*
X5331421Y-9655601D02*
G75*
G02*
X4825928Y-10161058I-505493J36D01*
G01*
X6352482Y-10167929D02*
G75*
G02*
X5844481Y-9659929I-2J507999D01*
G01*
X4825928Y-2543565D02*
G75*
G02*
X5330422Y-3051593I72J-504435D01*
G01*
X5844482Y-3055929D02*
G75*
G02*
X6352482Y-2547932I507998J-1D01*
G01*
X5331421Y-9655601D02*
G75*
G02*
X5844482Y-9659929I256579J3601D01*
G01*
X8130482Y-10167929D02*
X6352482Y-10167929D01*
X3047927Y-2539915D02*
X4825928Y-2543565D01*
X8130482Y-2547929D02*
G75*
G02*
X8638481Y-3055929I-2J-508001D01*
G01*
X8638482Y-9659929D02*
G75*
G02*
X8130482Y-10167932I-508002J-1D01*
G01*
X8638481Y-3055929D02*
X8638482Y-9659929D01*
X6352482Y-2547929D02*
X8130482Y-2547929D01*
X5334000Y-6096000D02*
G75*
G02*
X5842000Y-6096000I254000J0D01*
G01*
X5842000Y-6604000D02*
G75*
G02*
X5334000Y-6604000I-254000J0D01*
G01*
X5842000Y-8128000D02*
G75*
G02*
X5334000Y-8128000I-254000J0D01*
G01*
X5334000Y-8128000D02*
G75*
G02*
X5842000Y-8128000I254000J0D01*
G01*
X5842000Y-6096000D02*
X5842000Y-6604000D01*
X5844482Y-3055929D02*
G75*
G02*
X5331421Y-3051601I-256482J7929D01*
G01*
X2539928Y-3051565D02*
G75*
G02*
X3047927Y-2539915I508072J3565D01*
G01*
X2539928Y-9655565D02*
X2539928Y-3051565D01*
X5842000Y-7366000D02*
G75*
G02*
X5334000Y-7366000I-254000J0D01*
G01*
X5334000Y-7366000D02*
G75*
G02*
X5842000Y-7366000I254000J0D01*
G01*
X5842000Y-8890000D02*
G75*
G02*
X5334000Y-8890000I-254000J0D01*
G01*
X5334000Y-8890000D02*
G75*
G02*
X5842000Y-8890000I254000J0D01*
G01*
X5334000Y-6096000D02*
X5334000Y-6604000D01*
X4825928Y-10161059D02*
X3048000Y-10160000D01*
X3048000Y-10160085D02*
G75*
G02*
X2539928Y-9655565I0J508085D01*
G01*
D11*
D12*
X2877808Y-5433019D02*
X2957808Y-5513019D01*
X2957808Y-5433019D02*
X2877808Y-5513019D01*
X2877808Y-6195019D02*
X2957808Y-6275019D01*
X2957808Y-6195019D02*
X2877808Y-6275019D01*
X8342000Y-5259319D02*
X8422000Y-5339319D01*
X8422000Y-5259319D02*
X8342000Y-5339319D01*
X8342000Y-6021319D02*
X8422000Y-6101319D01*
X8422000Y-6021319D02*
X8342000Y-6101319D01*
X2835485Y-3459348D02*
G75*
G02*
X2735485Y-3459348I-50000J0D01*
G01*
X2735485Y-3459348D02*
G75*
G02*
X2835485Y-3459348I50000J0D01*
G01*
X2835485Y-3713348D02*
G75*
G02*
X2735485Y-3713348I-50000J0D01*
G01*
X2735485Y-3713348D02*
G75*
G02*
X2835485Y-3713348I50000J0D01*
G01*
X2835485Y-3967348D02*
G75*
G02*
X2735485Y-3967348I-50000J0D01*
G01*
X2735485Y-3967348D02*
G75*
G02*
X2835485Y-3967348I50000J0D01*
G01*
X2835485Y-4221348D02*
G75*
G02*
X2735485Y-4221348I-50000J0D01*
G01*
X2735485Y-4221348D02*
G75*
G02*
X2835485Y-4221348I50000J0D01*
G01*
X2835485Y-4475348D02*
G75*
G02*
X2735485Y-4475348I-50000J0D01*
G01*
X2735485Y-4475348D02*
G75*
G02*
X2835485Y-4475348I50000J0D01*
G01*
X2835485Y-4729348D02*
G75*
G02*
X2735485Y-4729348I-50000J0D01*
G01*
X2735485Y-4729348D02*
G75*
G02*
X2835485Y-4729348I50000J0D01*
G01*
X2835485Y-4983348D02*
G75*
G02*
X2735485Y-4983348I-50000J0D01*
G01*
X2735485Y-4983348D02*
G75*
G02*
X2835485Y-4983348I50000J0D01*
G01*
X2835485Y-5237348D02*
G75*
G02*
X2735485Y-5237348I-50000J0D01*
G01*
X2735485Y-5237348D02*
G75*
G02*
X2835485Y-5237348I50000J0D01*
G01*
X2995532Y-6612765D02*
G75*
G02*
X2895532Y-6612765I-50000J0D01*
G01*
X2895532Y-6612765D02*
G75*
G02*
X2995532Y-6612765I50000J0D01*
G01*
X2995532Y-6866765D02*
G75*
G02*
X2895532Y-6866765I-50000J0D01*
G01*
X2895532Y-6866765D02*
G75*
G02*
X2995532Y-6866765I50000J0D01*
G01*
X4114000Y-7366000D02*
G75*
G02*
X4014000Y-7366000I-50000J0D01*
G01*
X4014000Y-7366000D02*
G75*
G02*
X4114000Y-7366000I50000J0D01*
G01*
X4114000Y-7620000D02*
G75*
G02*
X4014000Y-7620000I-50000J0D01*
G01*
X4014000Y-7620000D02*
G75*
G02*
X4114000Y-7620000I50000J0D01*
G01*
X4114000Y-7874000D02*
G75*
G02*
X4014000Y-7874000I-50000J0D01*
G01*
X4014000Y-7874000D02*
G75*
G02*
X4114000Y-7874000I50000J0D01*
G01*
X4114000Y-8128000D02*
G75*
G02*
X4014000Y-8128000I-50000J0D01*
G01*
X4014000Y-8128000D02*
G75*
G02*
X4114000Y-8128000I50000J0D01*
G01*
X4114000Y-8382000D02*
G75*
G02*
X4014000Y-8382000I-50000J0D01*
G01*
X4014000Y-8382000D02*
G75*
G02*
X4114000Y-8382000I50000J0D01*
G01*
X4114000Y-8636000D02*
G75*
G02*
X4014000Y-8636000I-50000J0D01*
G01*
X4014000Y-8636000D02*
G75*
G02*
X4114000Y-8636000I50000J0D01*
G01*
X4114000Y-8890000D02*
G75*
G02*
X4014000Y-8890000I-50000J0D01*
G01*
X4014000Y-8890000D02*
G75*
G02*
X4114000Y-8890000I50000J0D01*
G01*
X4114000Y-9144000D02*
G75*
G02*
X4014000Y-9144000I-50000J0D01*
G01*
X4014000Y-9144000D02*
G75*
G02*
X4114000Y-9144000I50000J0D01*
G01*
X4241000Y-9525000D02*
G75*
G02*
X4141000Y-9525000I-50000J0D01*
G01*
X4141000Y-9525000D02*
G75*
G02*
X4241000Y-9525000I50000J0D01*
G01*
X4495000Y-7366000D02*
G75*
G02*
X4395000Y-7366000I-50000J0D01*
G01*
X4395000Y-7366000D02*
G75*
G02*
X4495000Y-7366000I50000J0D01*
G01*
X4495000Y-7620000D02*
G75*
G02*
X4395000Y-7620000I-50000J0D01*
G01*
X4395000Y-7620000D02*
G75*
G02*
X4495000Y-7620000I50000J0D01*
G01*
X4495000Y-7874000D02*
G75*
G02*
X4395000Y-7874000I-50000J0D01*
G01*
X4395000Y-7874000D02*
G75*
G02*
X4495000Y-7874000I50000J0D01*
G01*
X4495000Y-8128000D02*
G75*
G02*
X4395000Y-8128000I-50000J0D01*
G01*
X4395000Y-8128000D02*
G75*
G02*
X4495000Y-8128000I50000J0D01*
G01*
X4495000Y-8382000D02*
G75*
G02*
X4395000Y-8382000I-50000J0D01*
G01*
X4395000Y-8382000D02*
G75*
G02*
X4495000Y-8382000I50000J0D01*
G01*
X4495000Y-8636000D02*
G75*
G02*
X4395000Y-8636000I-50000J0D01*
G01*
X4395000Y-8636000D02*
G75*
G02*
X4495000Y-8636000I50000J0D01*
G01*
X4495000Y-8890000D02*
G75*
G02*
X4395000Y-8890000I-50000J0D01*
G01*
X4395000Y-8890000D02*
G75*
G02*
X4495000Y-8890000I50000J0D01*
G01*
X4495000Y-9144000D02*
G75*
G02*
X4395000Y-9144000I-50000J0D01*
G01*
X4395000Y-9144000D02*
G75*
G02*
X4495000Y-9144000I50000J0D01*
G01*
X4495000Y-9525000D02*
G75*
G02*
X4395000Y-9525000I-50000J0D01*
G01*
X4395000Y-9525000D02*
G75*
G02*
X4495000Y-9525000I50000J0D01*
G01*
X4749000Y-9525000D02*
G75*
G02*
X4649000Y-9525000I-50000J0D01*
G01*
X4649000Y-9525000D02*
G75*
G02*
X4749000Y-9525000I50000J0D01*
G01*
X4876000Y-7366000D02*
G75*
G02*
X4776000Y-7366000I-50000J0D01*
G01*
X4776000Y-7366000D02*
G75*
G02*
X4876000Y-7366000I50000J0D01*
G01*
X4876000Y-7620000D02*
G75*
G02*
X4776000Y-7620000I-50000J0D01*
G01*
X4776000Y-7620000D02*
G75*
G02*
X4876000Y-7620000I50000J0D01*
G01*
X4876000Y-7874000D02*
G75*
G02*
X4776000Y-7874000I-50000J0D01*
G01*
X4776000Y-7874000D02*
G75*
G02*
X4876000Y-7874000I50000J0D01*
G01*
X4876000Y-8128000D02*
G75*
G02*
X4776000Y-8128000I-50000J0D01*
G01*
X4776000Y-8128000D02*
G75*
G02*
X4876000Y-8128000I50000J0D01*
G01*
X4876000Y-8382000D02*
G75*
G02*
X4776000Y-8382000I-50000J0D01*
G01*
X4776000Y-8382000D02*
G75*
G02*
X4876000Y-8382000I50000J0D01*
G01*
X4876000Y-8636000D02*
G75*
G02*
X4776000Y-8636000I-50000J0D01*
G01*
X4776000Y-8636000D02*
G75*
G02*
X4876000Y-8636000I50000J0D01*
G01*
X4876000Y-8890000D02*
G75*
G02*
X4776000Y-8890000I-50000J0D01*
G01*
X4776000Y-8890000D02*
G75*
G02*
X4876000Y-8890000I50000J0D01*
G01*
X4876000Y-9144000D02*
G75*
G02*
X4776000Y-9144000I-50000J0D01*
G01*
X4776000Y-9144000D02*
G75*
G02*
X4876000Y-9144000I50000J0D01*
G01*
X5121485Y-3459348D02*
G75*
G02*
X5021485Y-3459348I-50000J0D01*
G01*
X5021485Y-3459348D02*
G75*
G02*
X5121485Y-3459348I50000J0D01*
G01*
X5121485Y-3713348D02*
G75*
G02*
X5021485Y-3713348I-50000J0D01*
G01*
X5021485Y-3713348D02*
G75*
G02*
X5121485Y-3713348I50000J0D01*
G01*
X5121485Y-3967348D02*
G75*
G02*
X5021485Y-3967348I-50000J0D01*
G01*
X5021485Y-3967348D02*
G75*
G02*
X5121485Y-3967348I50000J0D01*
G01*
X5121485Y-4221348D02*
G75*
G02*
X5021485Y-4221348I-50000J0D01*
G01*
X5021485Y-4221348D02*
G75*
G02*
X5121485Y-4221348I50000J0D01*
G01*
X5121485Y-4475348D02*
G75*
G02*
X5021485Y-4475348I-50000J0D01*
G01*
X5021485Y-4475348D02*
G75*
G02*
X5121485Y-4475348I50000J0D01*
G01*
X5121485Y-4729348D02*
G75*
G02*
X5021485Y-4729348I-50000J0D01*
G01*
X5021485Y-4729348D02*
G75*
G02*
X5121485Y-4729348I50000J0D01*
G01*
X5121485Y-4983348D02*
G75*
G02*
X5021485Y-4983348I-50000J0D01*
G01*
X5021485Y-4983348D02*
G75*
G02*
X5121485Y-4983348I50000J0D01*
G01*
X5121485Y-5237348D02*
G75*
G02*
X5021485Y-5237348I-50000J0D01*
G01*
X5021485Y-5237348D02*
G75*
G02*
X5121485Y-5237348I50000J0D01*
G01*
X6146000Y-7077319D02*
G75*
G02*
X6046000Y-7077319I-50000J0D01*
G01*
X6046000Y-7077319D02*
G75*
G02*
X6146000Y-7077319I50000J0D01*
G01*
X6146000Y-7331319D02*
G75*
G02*
X6046000Y-7331319I-50000J0D01*
G01*
X6046000Y-7331319D02*
G75*
G02*
X6146000Y-7331319I50000J0D01*
G01*
X6146000Y-7585319D02*
G75*
G02*
X6046000Y-7585319I-50000J0D01*
G01*
X6046000Y-7585319D02*
G75*
G02*
X6146000Y-7585319I50000J0D01*
G01*
X6146000Y-7839319D02*
G75*
G02*
X6046000Y-7839319I-50000J0D01*
G01*
X6046000Y-7839319D02*
G75*
G02*
X6146000Y-7839319I50000J0D01*
G01*
X6146000Y-8093319D02*
G75*
G02*
X6046000Y-8093319I-50000J0D01*
G01*
X6046000Y-8093319D02*
G75*
G02*
X6146000Y-8093319I50000J0D01*
G01*
X6146000Y-8347319D02*
G75*
G02*
X6046000Y-8347319I-50000J0D01*
G01*
X6046000Y-8347319D02*
G75*
G02*
X6146000Y-8347319I50000J0D01*
G01*
X6146000Y-8601319D02*
G75*
G02*
X6046000Y-8601319I-50000J0D01*
G01*
X6046000Y-8601319D02*
G75*
G02*
X6146000Y-8601319I50000J0D01*
G01*
X6146000Y-8855319D02*
G75*
G02*
X6046000Y-8855319I-50000J0D01*
G01*
X6046000Y-8855319D02*
G75*
G02*
X6146000Y-8855319I50000J0D01*
G01*
X6654000Y-3521319D02*
G75*
G02*
X6554000Y-3521319I-50000J0D01*
G01*
X6554000Y-3521319D02*
G75*
G02*
X6654000Y-3521319I50000J0D01*
G01*
X6654000Y-4029319D02*
G75*
G02*
X6554000Y-4029319I-50000J0D01*
G01*
X6554000Y-4029319D02*
G75*
G02*
X6654000Y-4029319I50000J0D01*
G01*
X6654000Y-4537319D02*
G75*
G02*
X6554000Y-4537319I-50000J0D01*
G01*
X6554000Y-4537319D02*
G75*
G02*
X6654000Y-4537319I50000J0D01*
G01*
X6908000Y-3521319D02*
G75*
G02*
X6808000Y-3521319I-50000J0D01*
G01*
X6808000Y-3521319D02*
G75*
G02*
X6908000Y-3521319I50000J0D01*
G01*
X6908000Y-4029319D02*
G75*
G02*
X6808000Y-4029319I-50000J0D01*
G01*
X6808000Y-4029319D02*
G75*
G02*
X6908000Y-4029319I50000J0D01*
G01*
X6908000Y-4537319D02*
G75*
G02*
X6808000Y-4537319I-50000J0D01*
G01*
X6808000Y-4537319D02*
G75*
G02*
X6908000Y-4537319I50000J0D01*
G01*
X7162000Y-3521319D02*
G75*
G02*
X7062000Y-3521319I-50000J0D01*
G01*
X7062000Y-3521319D02*
G75*
G02*
X7162000Y-3521319I50000J0D01*
G01*
X7162000Y-4029319D02*
G75*
G02*
X7062000Y-4029319I-50000J0D01*
G01*
X7062000Y-4029319D02*
G75*
G02*
X7162000Y-4029319I50000J0D01*
G01*
X7162000Y-4537319D02*
G75*
G02*
X7062000Y-4537319I-50000J0D01*
G01*
X7062000Y-4537319D02*
G75*
G02*
X7162000Y-4537319I50000J0D01*
G01*
X7416000Y-3521319D02*
G75*
G02*
X7316000Y-3521319I-50000J0D01*
G01*
X7316000Y-3521319D02*
G75*
G02*
X7416000Y-3521319I50000J0D01*
G01*
X7416000Y-4029319D02*
G75*
G02*
X7316000Y-4029319I-50000J0D01*
G01*
X7316000Y-4029319D02*
G75*
G02*
X7416000Y-4029319I50000J0D01*
G01*
X7416000Y-4537319D02*
G75*
G02*
X7316000Y-4537319I-50000J0D01*
G01*
X7316000Y-4537319D02*
G75*
G02*
X7416000Y-4537319I50000J0D01*
G01*
X8025177Y-5536794D02*
G75*
G02*
X7925177Y-5536794I-50000J0D01*
G01*
X7925177Y-5536794D02*
G75*
G02*
X8025177Y-5536794I50000J0D01*
G01*
X8025177Y-5790794D02*
G75*
G02*
X7925177Y-5790794I-50000J0D01*
G01*
X7925177Y-5790794D02*
G75*
G02*
X8025177Y-5790794I50000J0D01*
G01*
X8432000Y-7077319D02*
G75*
G02*
X8332000Y-7077319I-50000J0D01*
G01*
X8332000Y-7077319D02*
G75*
G02*
X8432000Y-7077319I50000J0D01*
G01*
X8432000Y-7331319D02*
G75*
G02*
X8332000Y-7331319I-50000J0D01*
G01*
X8332000Y-7331319D02*
G75*
G02*
X8432000Y-7331319I50000J0D01*
G01*
X8432000Y-7585319D02*
G75*
G02*
X8332000Y-7585319I-50000J0D01*
G01*
X8332000Y-7585319D02*
G75*
G02*
X8432000Y-7585319I50000J0D01*
G01*
X8432000Y-7839319D02*
G75*
G02*
X8332000Y-7839319I-50000J0D01*
G01*
X8332000Y-7839319D02*
G75*
G02*
X8432000Y-7839319I50000J0D01*
G01*
X8432000Y-8093319D02*
G75*
G02*
X8332000Y-8093319I-50000J0D01*
G01*
X8332000Y-8093319D02*
G75*
G02*
X8432000Y-8093319I50000J0D01*
G01*
X8432000Y-8347319D02*
G75*
G02*
X8332000Y-8347319I-50000J0D01*
G01*
X8332000Y-8347319D02*
G75*
G02*
X8432000Y-8347319I50000J0D01*
G01*
X8432000Y-8601319D02*
G75*
G02*
X8332000Y-8601319I-50000J0D01*
G01*
X8332000Y-8601319D02*
G75*
G02*
X8432000Y-8601319I50000J0D01*
G01*
X8432000Y-8855319D02*
G75*
G02*
X8332000Y-8855319I-50000J0D01*
G01*
X8332000Y-8855319D02*
G75*
G02*
X8432000Y-8855319I50000J0D01*
G01*
D13*
X3048000Y-7814000D02*
X3048000Y-7934000D01*
X2988000Y-7874000D02*
X3108000Y-7874000D01*
X3302000Y-7814000D02*
X3302000Y-7934000D01*
X3242000Y-7874000D02*
X3362000Y-7874000D01*
D11*
X2798192Y-10481913D02*
X2798192Y-10281913D01*
X2798192Y-10281913D02*
X2845811Y-10281913D01*
X2845811Y-10281913D02*
X2874383Y-10291437D01*
X2874383Y-10291437D02*
X2893430Y-10310484D01*
X2893430Y-10310484D02*
X2902954Y-10329532D01*
X2902954Y-10329532D02*
X2912478Y-10367627D01*
X2912478Y-10367627D02*
X2912478Y-10396199D01*
X2912478Y-10396199D02*
X2902954Y-10434294D01*
X2902954Y-10434294D02*
X2893430Y-10453341D01*
X2893430Y-10453341D02*
X2874383Y-10472389D01*
X2874383Y-10472389D02*
X2845811Y-10481913D01*
X2845811Y-10481913D02*
X2798192Y-10481913D01*
X2998192Y-10481913D02*
X2998192Y-10348579D01*
X2998192Y-10386675D02*
X3007716Y-10367627D01*
X3007716Y-10367627D02*
X3017240Y-10358103D01*
X3017240Y-10358103D02*
X3036287Y-10348579D01*
X3036287Y-10348579D02*
X3055335Y-10348579D01*
X3122002Y-10481913D02*
X3122002Y-10348579D01*
X3122002Y-10281913D02*
X3112478Y-10291437D01*
X3112478Y-10291437D02*
X3122002Y-10300960D01*
X3122002Y-10300960D02*
X3131525Y-10291437D01*
X3131525Y-10291437D02*
X3122002Y-10281913D01*
X3122002Y-10281913D02*
X3122002Y-10300960D01*
X3245811Y-10481913D02*
X3226764Y-10472389D01*
X3226764Y-10472389D02*
X3217240Y-10453341D01*
X3217240Y-10453341D02*
X3217240Y-10281913D01*
X3350573Y-10481913D02*
X3331525Y-10472389D01*
X3331525Y-10472389D02*
X3322002Y-10453341D01*
X3322002Y-10453341D02*
X3322002Y-10281913D01*
X3579145Y-10481913D02*
X3579145Y-10281913D01*
X3579145Y-10281913D02*
X3645811Y-10424770D01*
X3645811Y-10424770D02*
X3712478Y-10281913D01*
X3712478Y-10281913D02*
X3712478Y-10481913D01*
X3893430Y-10481913D02*
X3893430Y-10377151D01*
X3893430Y-10377151D02*
X3883906Y-10358103D01*
X3883906Y-10358103D02*
X3864859Y-10348579D01*
X3864859Y-10348579D02*
X3826764Y-10348579D01*
X3826764Y-10348579D02*
X3807716Y-10358103D01*
X3893430Y-10472389D02*
X3874383Y-10481913D01*
X3874383Y-10481913D02*
X3826764Y-10481913D01*
X3826764Y-10481913D02*
X3807716Y-10472389D01*
X3807716Y-10472389D02*
X3798192Y-10453341D01*
X3798192Y-10453341D02*
X3798192Y-10434294D01*
X3798192Y-10434294D02*
X3807716Y-10415246D01*
X3807716Y-10415246D02*
X3826764Y-10405722D01*
X3826764Y-10405722D02*
X3874383Y-10405722D01*
X3874383Y-10405722D02*
X3893430Y-10396199D01*
X3988668Y-10348579D02*
X3988668Y-10548579D01*
X3988668Y-10358103D02*
X4007716Y-10348579D01*
X4007716Y-10348579D02*
X4045811Y-10348579D01*
X4045811Y-10348579D02*
X4064859Y-10358103D01*
X4064859Y-10358103D02*
X4074383Y-10367627D01*
X4074383Y-10367627D02*
X4083906Y-10386675D01*
X4083906Y-10386675D02*
X4083906Y-10443818D01*
X4083906Y-10443818D02*
X4074383Y-10462865D01*
X4074383Y-10462865D02*
X4064859Y-10472389D01*
X4064859Y-10472389D02*
X4045811Y-10481913D01*
X4045811Y-10481913D02*
X4007716Y-10481913D01*
X4007716Y-10481913D02*
X3988668Y-10472389D01*
X4169621Y-10462865D02*
X4179145Y-10472389D01*
X4179145Y-10472389D02*
X4169621Y-10481913D01*
X4169621Y-10481913D02*
X4160097Y-10472389D01*
X4160097Y-10472389D02*
X4169621Y-10462865D01*
X4169621Y-10462865D02*
X4169621Y-10481913D01*
X4169621Y-10358103D02*
X4179145Y-10367627D01*
X4179145Y-10367627D02*
X4169621Y-10377151D01*
X4169621Y-10377151D02*
X4160097Y-10367627D01*
X4160097Y-10367627D02*
X4169621Y-10358103D01*
X4169621Y-10358103D02*
X4169621Y-10377151D01*
D12*
X2457415Y-10770429D02*
X2537415Y-10850429D01*
X2537415Y-10770429D02*
X2457415Y-10850429D01*
D11*
X2836287Y-10701913D02*
X2855335Y-10701913D01*
X2855335Y-10701913D02*
X2874383Y-10711437D01*
X2874383Y-10711437D02*
X2883906Y-10720960D01*
X2883906Y-10720960D02*
X2893430Y-10740008D01*
X2893430Y-10740008D02*
X2902954Y-10778103D01*
X2902954Y-10778103D02*
X2902954Y-10825722D01*
X2902954Y-10825722D02*
X2893430Y-10863818D01*
X2893430Y-10863818D02*
X2883906Y-10882865D01*
X2883906Y-10882865D02*
X2874383Y-10892389D01*
X2874383Y-10892389D02*
X2855335Y-10901913D01*
X2855335Y-10901913D02*
X2836287Y-10901913D01*
X2836287Y-10901913D02*
X2817240Y-10892389D01*
X2817240Y-10892389D02*
X2807716Y-10882865D01*
X2807716Y-10882865D02*
X2798192Y-10863818D01*
X2798192Y-10863818D02*
X2788668Y-10825722D01*
X2788668Y-10825722D02*
X2788668Y-10778103D01*
X2788668Y-10778103D02*
X2798192Y-10740008D01*
X2798192Y-10740008D02*
X2807716Y-10720960D01*
X2807716Y-10720960D02*
X2817240Y-10711437D01*
X2817240Y-10711437D02*
X2836287Y-10701913D01*
X2988668Y-10882865D02*
X2998192Y-10892389D01*
X2998192Y-10892389D02*
X2988668Y-10901913D01*
X2988668Y-10901913D02*
X2979145Y-10892389D01*
X2979145Y-10892389D02*
X2988668Y-10882865D01*
X2988668Y-10882865D02*
X2988668Y-10901913D01*
X3112478Y-10787627D02*
X3093430Y-10778103D01*
X3093430Y-10778103D02*
X3083906Y-10768579D01*
X3083906Y-10768579D02*
X3074383Y-10749532D01*
X3074383Y-10749532D02*
X3074383Y-10740008D01*
X3074383Y-10740008D02*
X3083906Y-10720960D01*
X3083906Y-10720960D02*
X3093430Y-10711437D01*
X3093430Y-10711437D02*
X3112478Y-10701913D01*
X3112478Y-10701913D02*
X3150573Y-10701913D01*
X3150573Y-10701913D02*
X3169621Y-10711437D01*
X3169621Y-10711437D02*
X3179145Y-10720960D01*
X3179145Y-10720960D02*
X3188668Y-10740008D01*
X3188668Y-10740008D02*
X3188668Y-10749532D01*
X3188668Y-10749532D02*
X3179145Y-10768579D01*
X3179145Y-10768579D02*
X3169621Y-10778103D01*
X3169621Y-10778103D02*
X3150573Y-10787627D01*
X3150573Y-10787627D02*
X3112478Y-10787627D01*
X3112478Y-10787627D02*
X3093430Y-10797151D01*
X3093430Y-10797151D02*
X3083906Y-10806675D01*
X3083906Y-10806675D02*
X3074383Y-10825722D01*
X3074383Y-10825722D02*
X3074383Y-10863818D01*
X3074383Y-10863818D02*
X3083906Y-10882865D01*
X3083906Y-10882865D02*
X3093430Y-10892389D01*
X3093430Y-10892389D02*
X3112478Y-10901913D01*
X3112478Y-10901913D02*
X3150573Y-10901913D01*
X3150573Y-10901913D02*
X3169621Y-10892389D01*
X3169621Y-10892389D02*
X3179145Y-10882865D01*
X3179145Y-10882865D02*
X3188668Y-10863818D01*
X3188668Y-10863818D02*
X3188668Y-10825722D01*
X3188668Y-10825722D02*
X3179145Y-10806675D01*
X3179145Y-10806675D02*
X3169621Y-10797151D01*
X3169621Y-10797151D02*
X3150573Y-10787627D01*
X3312478Y-10701913D02*
X3331526Y-10701913D01*
X3331526Y-10701913D02*
X3350573Y-10711437D01*
X3350573Y-10711437D02*
X3360097Y-10720960D01*
X3360097Y-10720960D02*
X3369621Y-10740008D01*
X3369621Y-10740008D02*
X3379145Y-10778103D01*
X3379145Y-10778103D02*
X3379145Y-10825722D01*
X3379145Y-10825722D02*
X3369621Y-10863818D01*
X3369621Y-10863818D02*
X3360097Y-10882865D01*
X3360097Y-10882865D02*
X3350573Y-10892389D01*
X3350573Y-10892389D02*
X3331526Y-10901913D01*
X3331526Y-10901913D02*
X3312478Y-10901913D01*
X3312478Y-10901913D02*
X3293430Y-10892389D01*
X3293430Y-10892389D02*
X3283906Y-10882865D01*
X3283906Y-10882865D02*
X3274383Y-10863818D01*
X3274383Y-10863818D02*
X3264859Y-10825722D01*
X3264859Y-10825722D02*
X3264859Y-10778103D01*
X3264859Y-10778103D02*
X3274383Y-10740008D01*
X3274383Y-10740008D02*
X3283906Y-10720960D01*
X3283906Y-10720960D02*
X3293430Y-10711437D01*
X3293430Y-10711437D02*
X3312478Y-10701913D01*
X3502954Y-10701913D02*
X3522002Y-10701913D01*
X3522002Y-10701913D02*
X3541049Y-10711437D01*
X3541049Y-10711437D02*
X3550573Y-10720960D01*
X3550573Y-10720960D02*
X3560097Y-10740008D01*
X3560097Y-10740008D02*
X3569621Y-10778103D01*
X3569621Y-10778103D02*
X3569621Y-10825722D01*
X3569621Y-10825722D02*
X3560097Y-10863818D01*
X3560097Y-10863818D02*
X3550573Y-10882865D01*
X3550573Y-10882865D02*
X3541049Y-10892389D01*
X3541049Y-10892389D02*
X3522002Y-10901913D01*
X3522002Y-10901913D02*
X3502954Y-10901913D01*
X3502954Y-10901913D02*
X3483906Y-10892389D01*
X3483906Y-10892389D02*
X3474383Y-10882865D01*
X3474383Y-10882865D02*
X3464859Y-10863818D01*
X3464859Y-10863818D02*
X3455335Y-10825722D01*
X3455335Y-10825722D02*
X3455335Y-10778103D01*
X3455335Y-10778103D02*
X3464859Y-10740008D01*
X3464859Y-10740008D02*
X3474383Y-10720960D01*
X3474383Y-10720960D02*
X3483906Y-10711437D01*
X3483906Y-10711437D02*
X3502954Y-10701913D01*
X3655335Y-10901913D02*
X3655335Y-10768579D01*
X3655335Y-10787627D02*
X3664859Y-10778103D01*
X3664859Y-10778103D02*
X3683906Y-10768579D01*
X3683906Y-10768579D02*
X3712478Y-10768579D01*
X3712478Y-10768579D02*
X3731526Y-10778103D01*
X3731526Y-10778103D02*
X3741049Y-10797151D01*
X3741049Y-10797151D02*
X3741049Y-10901913D01*
X3741049Y-10797151D02*
X3750573Y-10778103D01*
X3750573Y-10778103D02*
X3769621Y-10768579D01*
X3769621Y-10768579D02*
X3798192Y-10768579D01*
X3798192Y-10768579D02*
X3817240Y-10778103D01*
X3817240Y-10778103D02*
X3826764Y-10797151D01*
X3826764Y-10797151D02*
X3826764Y-10901913D01*
X3922002Y-10901913D02*
X3922002Y-10768579D01*
X3922002Y-10787627D02*
X3931526Y-10778103D01*
X3931526Y-10778103D02*
X3950573Y-10768579D01*
X3950573Y-10768579D02*
X3979145Y-10768579D01*
X3979145Y-10768579D02*
X3998192Y-10778103D01*
X3998192Y-10778103D02*
X4007716Y-10797151D01*
X4007716Y-10797151D02*
X4007716Y-10901913D01*
X4007716Y-10797151D02*
X4017240Y-10778103D01*
X4017240Y-10778103D02*
X4036287Y-10768579D01*
X4036287Y-10768579D02*
X4064859Y-10768579D01*
X4064859Y-10768579D02*
X4083907Y-10778103D01*
X4083907Y-10778103D02*
X4093430Y-10797151D01*
X4093430Y-10797151D02*
X4093430Y-10901913D01*
X4483907Y-10692389D02*
X4312478Y-10949532D01*
X4741050Y-10701913D02*
X4760097Y-10701913D01*
X4760097Y-10701913D02*
X4779145Y-10711437D01*
X4779145Y-10711437D02*
X4788669Y-10720960D01*
X4788669Y-10720960D02*
X4798192Y-10740008D01*
X4798192Y-10740008D02*
X4807716Y-10778103D01*
X4807716Y-10778103D02*
X4807716Y-10825722D01*
X4807716Y-10825722D02*
X4798192Y-10863818D01*
X4798192Y-10863818D02*
X4788669Y-10882865D01*
X4788669Y-10882865D02*
X4779145Y-10892389D01*
X4779145Y-10892389D02*
X4760097Y-10901913D01*
X4760097Y-10901913D02*
X4741050Y-10901913D01*
X4741050Y-10901913D02*
X4722002Y-10892389D01*
X4722002Y-10892389D02*
X4712478Y-10882865D01*
X4712478Y-10882865D02*
X4702954Y-10863818D01*
X4702954Y-10863818D02*
X4693431Y-10825722D01*
X4693431Y-10825722D02*
X4693431Y-10778103D01*
X4693431Y-10778103D02*
X4702954Y-10740008D01*
X4702954Y-10740008D02*
X4712478Y-10720960D01*
X4712478Y-10720960D02*
X4722002Y-10711437D01*
X4722002Y-10711437D02*
X4741050Y-10701913D01*
X4893431Y-10882865D02*
X4902954Y-10892389D01*
X4902954Y-10892389D02*
X4893431Y-10901913D01*
X4893431Y-10901913D02*
X4883907Y-10892389D01*
X4883907Y-10892389D02*
X4893431Y-10882865D01*
X4893431Y-10882865D02*
X4893431Y-10901913D01*
X5026764Y-10701913D02*
X5045812Y-10701913D01*
X5045812Y-10701913D02*
X5064859Y-10711437D01*
X5064859Y-10711437D02*
X5074383Y-10720960D01*
X5074383Y-10720960D02*
X5083907Y-10740008D01*
X5083907Y-10740008D02*
X5093431Y-10778103D01*
X5093431Y-10778103D02*
X5093431Y-10825722D01*
X5093431Y-10825722D02*
X5083907Y-10863818D01*
X5083907Y-10863818D02*
X5074383Y-10882865D01*
X5074383Y-10882865D02*
X5064859Y-10892389D01*
X5064859Y-10892389D02*
X5045812Y-10901913D01*
X5045812Y-10901913D02*
X5026764Y-10901913D01*
X5026764Y-10901913D02*
X5007716Y-10892389D01*
X5007716Y-10892389D02*
X4998192Y-10882865D01*
X4998192Y-10882865D02*
X4988669Y-10863818D01*
X4988669Y-10863818D02*
X4979145Y-10825722D01*
X4979145Y-10825722D02*
X4979145Y-10778103D01*
X4979145Y-10778103D02*
X4988669Y-10740008D01*
X4988669Y-10740008D02*
X4998192Y-10720960D01*
X4998192Y-10720960D02*
X5007716Y-10711437D01*
X5007716Y-10711437D02*
X5026764Y-10701913D01*
X5160097Y-10701913D02*
X5283907Y-10701913D01*
X5283907Y-10701913D02*
X5217240Y-10778103D01*
X5217240Y-10778103D02*
X5245812Y-10778103D01*
X5245812Y-10778103D02*
X5264859Y-10787627D01*
X5264859Y-10787627D02*
X5274383Y-10797151D01*
X5274383Y-10797151D02*
X5283907Y-10816199D01*
X5283907Y-10816199D02*
X5283907Y-10863818D01*
X5283907Y-10863818D02*
X5274383Y-10882865D01*
X5274383Y-10882865D02*
X5264859Y-10892389D01*
X5264859Y-10892389D02*
X5245812Y-10901913D01*
X5245812Y-10901913D02*
X5188669Y-10901913D01*
X5188669Y-10901913D02*
X5169621Y-10892389D01*
X5169621Y-10892389D02*
X5160097Y-10882865D01*
X5474383Y-10901913D02*
X5360097Y-10901913D01*
X5417240Y-10901913D02*
X5417240Y-10701913D01*
X5417240Y-10701913D02*
X5398192Y-10730484D01*
X5398192Y-10730484D02*
X5379145Y-10749532D01*
X5379145Y-10749532D02*
X5360097Y-10759056D01*
X5655335Y-10701913D02*
X5560097Y-10701913D01*
X5560097Y-10701913D02*
X5550573Y-10797151D01*
X5550573Y-10797151D02*
X5560097Y-10787627D01*
X5560097Y-10787627D02*
X5579145Y-10778103D01*
X5579145Y-10778103D02*
X5626764Y-10778103D01*
X5626764Y-10778103D02*
X5645811Y-10787627D01*
X5645811Y-10787627D02*
X5655335Y-10797151D01*
X5655335Y-10797151D02*
X5664859Y-10816199D01*
X5664859Y-10816199D02*
X5664859Y-10863818D01*
X5664859Y-10863818D02*
X5655335Y-10882865D01*
X5655335Y-10882865D02*
X5645811Y-10892389D01*
X5645811Y-10892389D02*
X5626764Y-10901913D01*
X5626764Y-10901913D02*
X5579145Y-10901913D01*
X5579145Y-10901913D02*
X5560097Y-10892389D01*
X5560097Y-10892389D02*
X5550573Y-10882865D01*
X5741050Y-10701913D02*
X5741050Y-10740008D01*
X5817240Y-10701913D02*
X5817240Y-10740008D01*
X6112478Y-10978103D02*
X6102954Y-10968579D01*
X6102954Y-10968579D02*
X6083907Y-10940008D01*
X6083907Y-10940008D02*
X6074383Y-10920960D01*
X6074383Y-10920960D02*
X6064859Y-10892389D01*
X6064859Y-10892389D02*
X6055335Y-10844770D01*
X6055335Y-10844770D02*
X6055335Y-10806675D01*
X6055335Y-10806675D02*
X6064859Y-10759056D01*
X6064859Y-10759056D02*
X6074383Y-10730484D01*
X6074383Y-10730484D02*
X6083907Y-10711437D01*
X6083907Y-10711437D02*
X6102954Y-10682865D01*
X6102954Y-10682865D02*
X6112478Y-10673341D01*
X6274383Y-10768579D02*
X6274383Y-10901913D01*
X6226764Y-10692389D02*
X6179145Y-10835246D01*
X6179145Y-10835246D02*
X6302954Y-10835246D01*
X6531526Y-10901913D02*
X6531526Y-10701913D01*
X6617240Y-10901913D02*
X6617240Y-10797151D01*
X6617240Y-10797151D02*
X6607716Y-10778103D01*
X6607716Y-10778103D02*
X6588669Y-10768579D01*
X6588669Y-10768579D02*
X6560097Y-10768579D01*
X6560097Y-10768579D02*
X6541050Y-10778103D01*
X6541050Y-10778103D02*
X6531526Y-10787627D01*
X6741050Y-10901913D02*
X6722002Y-10892389D01*
X6722002Y-10892389D02*
X6712478Y-10882865D01*
X6712478Y-10882865D02*
X6702954Y-10863818D01*
X6702954Y-10863818D02*
X6702954Y-10806675D01*
X6702954Y-10806675D02*
X6712478Y-10787627D01*
X6712478Y-10787627D02*
X6722002Y-10778103D01*
X6722002Y-10778103D02*
X6741050Y-10768579D01*
X6741050Y-10768579D02*
X6769621Y-10768579D01*
X6769621Y-10768579D02*
X6788669Y-10778103D01*
X6788669Y-10778103D02*
X6798193Y-10787627D01*
X6798193Y-10787627D02*
X6807716Y-10806675D01*
X6807716Y-10806675D02*
X6807716Y-10863818D01*
X6807716Y-10863818D02*
X6798193Y-10882865D01*
X6798193Y-10882865D02*
X6788669Y-10892389D01*
X6788669Y-10892389D02*
X6769621Y-10901913D01*
X6769621Y-10901913D02*
X6741050Y-10901913D01*
X6922002Y-10901913D02*
X6902954Y-10892389D01*
X6902954Y-10892389D02*
X6893431Y-10873341D01*
X6893431Y-10873341D02*
X6893431Y-10701913D01*
X7074383Y-10892389D02*
X7055335Y-10901913D01*
X7055335Y-10901913D02*
X7017240Y-10901913D01*
X7017240Y-10901913D02*
X6998193Y-10892389D01*
X6998193Y-10892389D02*
X6988669Y-10873341D01*
X6988669Y-10873341D02*
X6988669Y-10797151D01*
X6988669Y-10797151D02*
X6998193Y-10778103D01*
X6998193Y-10778103D02*
X7017240Y-10768579D01*
X7017240Y-10768579D02*
X7055335Y-10768579D01*
X7055335Y-10768579D02*
X7074383Y-10778103D01*
X7074383Y-10778103D02*
X7083907Y-10797151D01*
X7083907Y-10797151D02*
X7083907Y-10816199D01*
X7083907Y-10816199D02*
X6988669Y-10835246D01*
X7160097Y-10892389D02*
X7179145Y-10901913D01*
X7179145Y-10901913D02*
X7217240Y-10901913D01*
X7217240Y-10901913D02*
X7236288Y-10892389D01*
X7236288Y-10892389D02*
X7245812Y-10873341D01*
X7245812Y-10873341D02*
X7245812Y-10863818D01*
X7245812Y-10863818D02*
X7236288Y-10844770D01*
X7236288Y-10844770D02*
X7217240Y-10835246D01*
X7217240Y-10835246D02*
X7188669Y-10835246D01*
X7188669Y-10835246D02*
X7169621Y-10825722D01*
X7169621Y-10825722D02*
X7160097Y-10806675D01*
X7160097Y-10806675D02*
X7160097Y-10797151D01*
X7160097Y-10797151D02*
X7169621Y-10778103D01*
X7169621Y-10778103D02*
X7188669Y-10768579D01*
X7188669Y-10768579D02*
X7217240Y-10768579D01*
X7217240Y-10768579D02*
X7236288Y-10778103D01*
X7312478Y-10978103D02*
X7322002Y-10968579D01*
X7322002Y-10968579D02*
X7341050Y-10940008D01*
X7341050Y-10940008D02*
X7350574Y-10920960D01*
X7350574Y-10920960D02*
X7360097Y-10892389D01*
X7360097Y-10892389D02*
X7369621Y-10844770D01*
X7369621Y-10844770D02*
X7369621Y-10806675D01*
X7369621Y-10806675D02*
X7360097Y-10759056D01*
X7360097Y-10759056D02*
X7350574Y-10730484D01*
X7350574Y-10730484D02*
X7341050Y-10711437D01*
X7341050Y-10711437D02*
X7322002Y-10682865D01*
X7322002Y-10682865D02*
X7312478Y-10673341D01*
D12*
X2537415Y-11074429D02*
G75*
G02*
X2437415Y-11074429I-50000J0D01*
G01*
X2437415Y-11074429D02*
G75*
G02*
X2537415Y-11074429I50000J0D01*
G01*
D11*
X2902954Y-11165913D02*
X2788668Y-11165913D01*
X2845811Y-11165913D02*
X2845811Y-10965913D01*
X2845811Y-10965913D02*
X2826764Y-10994484D01*
X2826764Y-10994484D02*
X2807716Y-11013532D01*
X2807716Y-11013532D02*
X2788668Y-11023056D01*
X2988668Y-11146865D02*
X2998192Y-11156389D01*
X2998192Y-11156389D02*
X2988668Y-11165913D01*
X2988668Y-11165913D02*
X2979145Y-11156389D01*
X2979145Y-11156389D02*
X2988668Y-11146865D01*
X2988668Y-11146865D02*
X2988668Y-11165913D01*
X3122002Y-10965913D02*
X3141049Y-10965913D01*
X3141049Y-10965913D02*
X3160097Y-10975437D01*
X3160097Y-10975437D02*
X3169621Y-10984960D01*
X3169621Y-10984960D02*
X3179145Y-11004008D01*
X3179145Y-11004008D02*
X3188668Y-11042103D01*
X3188668Y-11042103D02*
X3188668Y-11089722D01*
X3188668Y-11089722D02*
X3179145Y-11127818D01*
X3179145Y-11127818D02*
X3169621Y-11146865D01*
X3169621Y-11146865D02*
X3160097Y-11156389D01*
X3160097Y-11156389D02*
X3141049Y-11165913D01*
X3141049Y-11165913D02*
X3122002Y-11165913D01*
X3122002Y-11165913D02*
X3102954Y-11156389D01*
X3102954Y-11156389D02*
X3093430Y-11146865D01*
X3093430Y-11146865D02*
X3083906Y-11127818D01*
X3083906Y-11127818D02*
X3074383Y-11089722D01*
X3074383Y-11089722D02*
X3074383Y-11042103D01*
X3074383Y-11042103D02*
X3083906Y-11004008D01*
X3083906Y-11004008D02*
X3093430Y-10984960D01*
X3093430Y-10984960D02*
X3102954Y-10975437D01*
X3102954Y-10975437D02*
X3122002Y-10965913D01*
X3312478Y-10965913D02*
X3331526Y-10965913D01*
X3331526Y-10965913D02*
X3350573Y-10975437D01*
X3350573Y-10975437D02*
X3360097Y-10984960D01*
X3360097Y-10984960D02*
X3369621Y-11004008D01*
X3369621Y-11004008D02*
X3379145Y-11042103D01*
X3379145Y-11042103D02*
X3379145Y-11089722D01*
X3379145Y-11089722D02*
X3369621Y-11127818D01*
X3369621Y-11127818D02*
X3360097Y-11146865D01*
X3360097Y-11146865D02*
X3350573Y-11156389D01*
X3350573Y-11156389D02*
X3331526Y-11165913D01*
X3331526Y-11165913D02*
X3312478Y-11165913D01*
X3312478Y-11165913D02*
X3293430Y-11156389D01*
X3293430Y-11156389D02*
X3283906Y-11146865D01*
X3283906Y-11146865D02*
X3274383Y-11127818D01*
X3274383Y-11127818D02*
X3264859Y-11089722D01*
X3264859Y-11089722D02*
X3264859Y-11042103D01*
X3264859Y-11042103D02*
X3274383Y-11004008D01*
X3274383Y-11004008D02*
X3283906Y-10984960D01*
X3283906Y-10984960D02*
X3293430Y-10975437D01*
X3293430Y-10975437D02*
X3312478Y-10965913D01*
X3502954Y-10965913D02*
X3522002Y-10965913D01*
X3522002Y-10965913D02*
X3541049Y-10975437D01*
X3541049Y-10975437D02*
X3550573Y-10984960D01*
X3550573Y-10984960D02*
X3560097Y-11004008D01*
X3560097Y-11004008D02*
X3569621Y-11042103D01*
X3569621Y-11042103D02*
X3569621Y-11089722D01*
X3569621Y-11089722D02*
X3560097Y-11127818D01*
X3560097Y-11127818D02*
X3550573Y-11146865D01*
X3550573Y-11146865D02*
X3541049Y-11156389D01*
X3541049Y-11156389D02*
X3522002Y-11165913D01*
X3522002Y-11165913D02*
X3502954Y-11165913D01*
X3502954Y-11165913D02*
X3483906Y-11156389D01*
X3483906Y-11156389D02*
X3474383Y-11146865D01*
X3474383Y-11146865D02*
X3464859Y-11127818D01*
X3464859Y-11127818D02*
X3455335Y-11089722D01*
X3455335Y-11089722D02*
X3455335Y-11042103D01*
X3455335Y-11042103D02*
X3464859Y-11004008D01*
X3464859Y-11004008D02*
X3474383Y-10984960D01*
X3474383Y-10984960D02*
X3483906Y-10975437D01*
X3483906Y-10975437D02*
X3502954Y-10965913D01*
X3655335Y-11165913D02*
X3655335Y-11032579D01*
X3655335Y-11051627D02*
X3664859Y-11042103D01*
X3664859Y-11042103D02*
X3683906Y-11032579D01*
X3683906Y-11032579D02*
X3712478Y-11032579D01*
X3712478Y-11032579D02*
X3731526Y-11042103D01*
X3731526Y-11042103D02*
X3741049Y-11061151D01*
X3741049Y-11061151D02*
X3741049Y-11165913D01*
X3741049Y-11061151D02*
X3750573Y-11042103D01*
X3750573Y-11042103D02*
X3769621Y-11032579D01*
X3769621Y-11032579D02*
X3798192Y-11032579D01*
X3798192Y-11032579D02*
X3817240Y-11042103D01*
X3817240Y-11042103D02*
X3826764Y-11061151D01*
X3826764Y-11061151D02*
X3826764Y-11165913D01*
X3922002Y-11165913D02*
X3922002Y-11032579D01*
X3922002Y-11051627D02*
X3931526Y-11042103D01*
X3931526Y-11042103D02*
X3950573Y-11032579D01*
X3950573Y-11032579D02*
X3979145Y-11032579D01*
X3979145Y-11032579D02*
X3998192Y-11042103D01*
X3998192Y-11042103D02*
X4007716Y-11061151D01*
X4007716Y-11061151D02*
X4007716Y-11165913D01*
X4007716Y-11061151D02*
X4017240Y-11042103D01*
X4017240Y-11042103D02*
X4036287Y-11032579D01*
X4036287Y-11032579D02*
X4064859Y-11032579D01*
X4064859Y-11032579D02*
X4083907Y-11042103D01*
X4083907Y-11042103D02*
X4093430Y-11061151D01*
X4093430Y-11061151D02*
X4093430Y-11165913D01*
X4483907Y-10956389D02*
X4312478Y-11213532D01*
X4741050Y-10965913D02*
X4760097Y-10965913D01*
X4760097Y-10965913D02*
X4779145Y-10975437D01*
X4779145Y-10975437D02*
X4788669Y-10984960D01*
X4788669Y-10984960D02*
X4798192Y-11004008D01*
X4798192Y-11004008D02*
X4807716Y-11042103D01*
X4807716Y-11042103D02*
X4807716Y-11089722D01*
X4807716Y-11089722D02*
X4798192Y-11127818D01*
X4798192Y-11127818D02*
X4788669Y-11146865D01*
X4788669Y-11146865D02*
X4779145Y-11156389D01*
X4779145Y-11156389D02*
X4760097Y-11165913D01*
X4760097Y-11165913D02*
X4741050Y-11165913D01*
X4741050Y-11165913D02*
X4722002Y-11156389D01*
X4722002Y-11156389D02*
X4712478Y-11146865D01*
X4712478Y-11146865D02*
X4702954Y-11127818D01*
X4702954Y-11127818D02*
X4693431Y-11089722D01*
X4693431Y-11089722D02*
X4693431Y-11042103D01*
X4693431Y-11042103D02*
X4702954Y-11004008D01*
X4702954Y-11004008D02*
X4712478Y-10984960D01*
X4712478Y-10984960D02*
X4722002Y-10975437D01*
X4722002Y-10975437D02*
X4741050Y-10965913D01*
X4893431Y-11146865D02*
X4902954Y-11156389D01*
X4902954Y-11156389D02*
X4893431Y-11165913D01*
X4893431Y-11165913D02*
X4883907Y-11156389D01*
X4883907Y-11156389D02*
X4893431Y-11146865D01*
X4893431Y-11146865D02*
X4893431Y-11165913D01*
X5026764Y-10965913D02*
X5045812Y-10965913D01*
X5045812Y-10965913D02*
X5064859Y-10975437D01*
X5064859Y-10975437D02*
X5074383Y-10984960D01*
X5074383Y-10984960D02*
X5083907Y-11004008D01*
X5083907Y-11004008D02*
X5093431Y-11042103D01*
X5093431Y-11042103D02*
X5093431Y-11089722D01*
X5093431Y-11089722D02*
X5083907Y-11127818D01*
X5083907Y-11127818D02*
X5074383Y-11146865D01*
X5074383Y-11146865D02*
X5064859Y-11156389D01*
X5064859Y-11156389D02*
X5045812Y-11165913D01*
X5045812Y-11165913D02*
X5026764Y-11165913D01*
X5026764Y-11165913D02*
X5007716Y-11156389D01*
X5007716Y-11156389D02*
X4998192Y-11146865D01*
X4998192Y-11146865D02*
X4988669Y-11127818D01*
X4988669Y-11127818D02*
X4979145Y-11089722D01*
X4979145Y-11089722D02*
X4979145Y-11042103D01*
X4979145Y-11042103D02*
X4988669Y-11004008D01*
X4988669Y-11004008D02*
X4998192Y-10984960D01*
X4998192Y-10984960D02*
X5007716Y-10975437D01*
X5007716Y-10975437D02*
X5026764Y-10965913D01*
X5160097Y-10965913D02*
X5283907Y-10965913D01*
X5283907Y-10965913D02*
X5217240Y-11042103D01*
X5217240Y-11042103D02*
X5245812Y-11042103D01*
X5245812Y-11042103D02*
X5264859Y-11051627D01*
X5264859Y-11051627D02*
X5274383Y-11061151D01*
X5274383Y-11061151D02*
X5283907Y-11080199D01*
X5283907Y-11080199D02*
X5283907Y-11127818D01*
X5283907Y-11127818D02*
X5274383Y-11146865D01*
X5274383Y-11146865D02*
X5264859Y-11156389D01*
X5264859Y-11156389D02*
X5245812Y-11165913D01*
X5245812Y-11165913D02*
X5188669Y-11165913D01*
X5188669Y-11165913D02*
X5169621Y-11156389D01*
X5169621Y-11156389D02*
X5160097Y-11146865D01*
X5379145Y-11165913D02*
X5417240Y-11165913D01*
X5417240Y-11165913D02*
X5436288Y-11156389D01*
X5436288Y-11156389D02*
X5445812Y-11146865D01*
X5445812Y-11146865D02*
X5464859Y-11118294D01*
X5464859Y-11118294D02*
X5474383Y-11080199D01*
X5474383Y-11080199D02*
X5474383Y-11004008D01*
X5474383Y-11004008D02*
X5464859Y-10984960D01*
X5464859Y-10984960D02*
X5455335Y-10975437D01*
X5455335Y-10975437D02*
X5436288Y-10965913D01*
X5436288Y-10965913D02*
X5398192Y-10965913D01*
X5398192Y-10965913D02*
X5379145Y-10975437D01*
X5379145Y-10975437D02*
X5369621Y-10984960D01*
X5369621Y-10984960D02*
X5360097Y-11004008D01*
X5360097Y-11004008D02*
X5360097Y-11051627D01*
X5360097Y-11051627D02*
X5369621Y-11070675D01*
X5369621Y-11070675D02*
X5379145Y-11080199D01*
X5379145Y-11080199D02*
X5398192Y-11089722D01*
X5398192Y-11089722D02*
X5436288Y-11089722D01*
X5436288Y-11089722D02*
X5455335Y-11080199D01*
X5455335Y-11080199D02*
X5464859Y-11070675D01*
X5464859Y-11070675D02*
X5474383Y-11051627D01*
X5645811Y-11032579D02*
X5645811Y-11165913D01*
X5598192Y-10956389D02*
X5550573Y-11099246D01*
X5550573Y-11099246D02*
X5674383Y-11099246D01*
X5741050Y-10965913D02*
X5741050Y-11004008D01*
X5817240Y-10965913D02*
X5817240Y-11004008D01*
X6112478Y-11242103D02*
X6102954Y-11232579D01*
X6102954Y-11232579D02*
X6083907Y-11204008D01*
X6083907Y-11204008D02*
X6074383Y-11184960D01*
X6074383Y-11184960D02*
X6064859Y-11156389D01*
X6064859Y-11156389D02*
X6055335Y-11108770D01*
X6055335Y-11108770D02*
X6055335Y-11070675D01*
X6055335Y-11070675D02*
X6064859Y-11023056D01*
X6064859Y-11023056D02*
X6074383Y-10994484D01*
X6074383Y-10994484D02*
X6083907Y-10975437D01*
X6083907Y-10975437D02*
X6102954Y-10946865D01*
X6102954Y-10946865D02*
X6112478Y-10937341D01*
X6169621Y-10965913D02*
X6302954Y-10965913D01*
X6302954Y-10965913D02*
X6217240Y-11165913D01*
X6474383Y-10965913D02*
X6379145Y-10965913D01*
X6379145Y-10965913D02*
X6369621Y-11061151D01*
X6369621Y-11061151D02*
X6379145Y-11051627D01*
X6379145Y-11051627D02*
X6398192Y-11042103D01*
X6398192Y-11042103D02*
X6445812Y-11042103D01*
X6445812Y-11042103D02*
X6464859Y-11051627D01*
X6464859Y-11051627D02*
X6474383Y-11061151D01*
X6474383Y-11061151D02*
X6483907Y-11080199D01*
X6483907Y-11080199D02*
X6483907Y-11127818D01*
X6483907Y-11127818D02*
X6474383Y-11146865D01*
X6474383Y-11146865D02*
X6464859Y-11156389D01*
X6464859Y-11156389D02*
X6445812Y-11165913D01*
X6445812Y-11165913D02*
X6398192Y-11165913D01*
X6398192Y-11165913D02*
X6379145Y-11156389D01*
X6379145Y-11156389D02*
X6369621Y-11146865D01*
X6722002Y-11165913D02*
X6722002Y-10965913D01*
X6807716Y-11165913D02*
X6807716Y-11061151D01*
X6807716Y-11061151D02*
X6798193Y-11042103D01*
X6798193Y-11042103D02*
X6779145Y-11032579D01*
X6779145Y-11032579D02*
X6750573Y-11032579D01*
X6750573Y-11032579D02*
X6731526Y-11042103D01*
X6731526Y-11042103D02*
X6722002Y-11051627D01*
X6931526Y-11165913D02*
X6912478Y-11156389D01*
X6912478Y-11156389D02*
X6902954Y-11146865D01*
X6902954Y-11146865D02*
X6893431Y-11127818D01*
X6893431Y-11127818D02*
X6893431Y-11070675D01*
X6893431Y-11070675D02*
X6902954Y-11051627D01*
X6902954Y-11051627D02*
X6912478Y-11042103D01*
X6912478Y-11042103D02*
X6931526Y-11032579D01*
X6931526Y-11032579D02*
X6960097Y-11032579D01*
X6960097Y-11032579D02*
X6979145Y-11042103D01*
X6979145Y-11042103D02*
X6988669Y-11051627D01*
X6988669Y-11051627D02*
X6998193Y-11070675D01*
X6998193Y-11070675D02*
X6998193Y-11127818D01*
X6998193Y-11127818D02*
X6988669Y-11146865D01*
X6988669Y-11146865D02*
X6979145Y-11156389D01*
X6979145Y-11156389D02*
X6960097Y-11165913D01*
X6960097Y-11165913D02*
X6931526Y-11165913D01*
X7112478Y-11165913D02*
X7093431Y-11156389D01*
X7093431Y-11156389D02*
X7083907Y-11137341D01*
X7083907Y-11137341D02*
X7083907Y-10965913D01*
X7264859Y-11156389D02*
X7245812Y-11165913D01*
X7245812Y-11165913D02*
X7207716Y-11165913D01*
X7207716Y-11165913D02*
X7188669Y-11156389D01*
X7188669Y-11156389D02*
X7179145Y-11137341D01*
X7179145Y-11137341D02*
X7179145Y-11061151D01*
X7179145Y-11061151D02*
X7188669Y-11042103D01*
X7188669Y-11042103D02*
X7207716Y-11032579D01*
X7207716Y-11032579D02*
X7245812Y-11032579D01*
X7245812Y-11032579D02*
X7264859Y-11042103D01*
X7264859Y-11042103D02*
X7274383Y-11061151D01*
X7274383Y-11061151D02*
X7274383Y-11080199D01*
X7274383Y-11080199D02*
X7179145Y-11099246D01*
X7350574Y-11156389D02*
X7369621Y-11165913D01*
X7369621Y-11165913D02*
X7407716Y-11165913D01*
X7407716Y-11165913D02*
X7426764Y-11156389D01*
X7426764Y-11156389D02*
X7436288Y-11137341D01*
X7436288Y-11137341D02*
X7436288Y-11127818D01*
X7436288Y-11127818D02*
X7426764Y-11108770D01*
X7426764Y-11108770D02*
X7407716Y-11099246D01*
X7407716Y-11099246D02*
X7379145Y-11099246D01*
X7379145Y-11099246D02*
X7360097Y-11089722D01*
X7360097Y-11089722D02*
X7350574Y-11070675D01*
X7350574Y-11070675D02*
X7350574Y-11061151D01*
X7350574Y-11061151D02*
X7360097Y-11042103D01*
X7360097Y-11042103D02*
X7379145Y-11032579D01*
X7379145Y-11032579D02*
X7407716Y-11032579D01*
X7407716Y-11032579D02*
X7426764Y-11042103D01*
X7502955Y-11242103D02*
X7512478Y-11232579D01*
X7512478Y-11232579D02*
X7531526Y-11204008D01*
X7531526Y-11204008D02*
X7541050Y-11184960D01*
X7541050Y-11184960D02*
X7550574Y-11156389D01*
X7550574Y-11156389D02*
X7560097Y-11108770D01*
X7560097Y-11108770D02*
X7560097Y-11070675D01*
X7560097Y-11070675D02*
X7550574Y-11023056D01*
X7550574Y-11023056D02*
X7541050Y-10994484D01*
X7541050Y-10994484D02*
X7531526Y-10975437D01*
X7531526Y-10975437D02*
X7512478Y-10946865D01*
X7512478Y-10946865D02*
X7502955Y-10937341D01*
D13*
X2477415Y-11278429D02*
X2477415Y-11398429D01*
X2417415Y-11338429D02*
X2537415Y-11338429D01*
D11*
X2902954Y-11429913D02*
X2788668Y-11429913D01*
X2845811Y-11429913D02*
X2845811Y-11229913D01*
X2845811Y-11229913D02*
X2826764Y-11258484D01*
X2826764Y-11258484D02*
X2807716Y-11277532D01*
X2807716Y-11277532D02*
X2788668Y-11287056D01*
X2988668Y-11410865D02*
X2998192Y-11420389D01*
X2998192Y-11420389D02*
X2988668Y-11429913D01*
X2988668Y-11429913D02*
X2979145Y-11420389D01*
X2979145Y-11420389D02*
X2988668Y-11410865D01*
X2988668Y-11410865D02*
X2988668Y-11429913D01*
X3074383Y-11248960D02*
X3083906Y-11239437D01*
X3083906Y-11239437D02*
X3102954Y-11229913D01*
X3102954Y-11229913D02*
X3150573Y-11229913D01*
X3150573Y-11229913D02*
X3169621Y-11239437D01*
X3169621Y-11239437D02*
X3179145Y-11248960D01*
X3179145Y-11248960D02*
X3188668Y-11268008D01*
X3188668Y-11268008D02*
X3188668Y-11287056D01*
X3188668Y-11287056D02*
X3179145Y-11315627D01*
X3179145Y-11315627D02*
X3064859Y-11429913D01*
X3064859Y-11429913D02*
X3188668Y-11429913D01*
X3312478Y-11229913D02*
X3331526Y-11229913D01*
X3331526Y-11229913D02*
X3350573Y-11239437D01*
X3350573Y-11239437D02*
X3360097Y-11248960D01*
X3360097Y-11248960D02*
X3369621Y-11268008D01*
X3369621Y-11268008D02*
X3379145Y-11306103D01*
X3379145Y-11306103D02*
X3379145Y-11353722D01*
X3379145Y-11353722D02*
X3369621Y-11391817D01*
X3369621Y-11391817D02*
X3360097Y-11410865D01*
X3360097Y-11410865D02*
X3350573Y-11420389D01*
X3350573Y-11420389D02*
X3331526Y-11429913D01*
X3331526Y-11429913D02*
X3312478Y-11429913D01*
X3312478Y-11429913D02*
X3293430Y-11420389D01*
X3293430Y-11420389D02*
X3283906Y-11410865D01*
X3283906Y-11410865D02*
X3274383Y-11391817D01*
X3274383Y-11391817D02*
X3264859Y-11353722D01*
X3264859Y-11353722D02*
X3264859Y-11306103D01*
X3264859Y-11306103D02*
X3274383Y-11268008D01*
X3274383Y-11268008D02*
X3283906Y-11248960D01*
X3283906Y-11248960D02*
X3293430Y-11239437D01*
X3293430Y-11239437D02*
X3312478Y-11229913D01*
X3502954Y-11229913D02*
X3522002Y-11229913D01*
X3522002Y-11229913D02*
X3541049Y-11239437D01*
X3541049Y-11239437D02*
X3550573Y-11248960D01*
X3550573Y-11248960D02*
X3560097Y-11268008D01*
X3560097Y-11268008D02*
X3569621Y-11306103D01*
X3569621Y-11306103D02*
X3569621Y-11353722D01*
X3569621Y-11353722D02*
X3560097Y-11391817D01*
X3560097Y-11391817D02*
X3550573Y-11410865D01*
X3550573Y-11410865D02*
X3541049Y-11420389D01*
X3541049Y-11420389D02*
X3522002Y-11429913D01*
X3522002Y-11429913D02*
X3502954Y-11429913D01*
X3502954Y-11429913D02*
X3483906Y-11420389D01*
X3483906Y-11420389D02*
X3474383Y-11410865D01*
X3474383Y-11410865D02*
X3464859Y-11391817D01*
X3464859Y-11391817D02*
X3455335Y-11353722D01*
X3455335Y-11353722D02*
X3455335Y-11306103D01*
X3455335Y-11306103D02*
X3464859Y-11268008D01*
X3464859Y-11268008D02*
X3474383Y-11248960D01*
X3474383Y-11248960D02*
X3483906Y-11239437D01*
X3483906Y-11239437D02*
X3502954Y-11229913D01*
X3655335Y-11429913D02*
X3655335Y-11296579D01*
X3655335Y-11315627D02*
X3664859Y-11306103D01*
X3664859Y-11306103D02*
X3683906Y-11296579D01*
X3683906Y-11296579D02*
X3712478Y-11296579D01*
X3712478Y-11296579D02*
X3731526Y-11306103D01*
X3731526Y-11306103D02*
X3741049Y-11325151D01*
X3741049Y-11325151D02*
X3741049Y-11429913D01*
X3741049Y-11325151D02*
X3750573Y-11306103D01*
X3750573Y-11306103D02*
X3769621Y-11296579D01*
X3769621Y-11296579D02*
X3798192Y-11296579D01*
X3798192Y-11296579D02*
X3817240Y-11306103D01*
X3817240Y-11306103D02*
X3826764Y-11325151D01*
X3826764Y-11325151D02*
X3826764Y-11429913D01*
X3922002Y-11429913D02*
X3922002Y-11296579D01*
X3922002Y-11315627D02*
X3931526Y-11306103D01*
X3931526Y-11306103D02*
X3950573Y-11296579D01*
X3950573Y-11296579D02*
X3979145Y-11296579D01*
X3979145Y-11296579D02*
X3998192Y-11306103D01*
X3998192Y-11306103D02*
X4007716Y-11325151D01*
X4007716Y-11325151D02*
X4007716Y-11429913D01*
X4007716Y-11325151D02*
X4017240Y-11306103D01*
X4017240Y-11306103D02*
X4036287Y-11296579D01*
X4036287Y-11296579D02*
X4064859Y-11296579D01*
X4064859Y-11296579D02*
X4083907Y-11306103D01*
X4083907Y-11306103D02*
X4093430Y-11325151D01*
X4093430Y-11325151D02*
X4093430Y-11429913D01*
X4483907Y-11220389D02*
X4312478Y-11477532D01*
X4741050Y-11229913D02*
X4760097Y-11229913D01*
X4760097Y-11229913D02*
X4779145Y-11239437D01*
X4779145Y-11239437D02*
X4788669Y-11248960D01*
X4788669Y-11248960D02*
X4798192Y-11268008D01*
X4798192Y-11268008D02*
X4807716Y-11306103D01*
X4807716Y-11306103D02*
X4807716Y-11353722D01*
X4807716Y-11353722D02*
X4798192Y-11391817D01*
X4798192Y-11391817D02*
X4788669Y-11410865D01*
X4788669Y-11410865D02*
X4779145Y-11420389D01*
X4779145Y-11420389D02*
X4760097Y-11429913D01*
X4760097Y-11429913D02*
X4741050Y-11429913D01*
X4741050Y-11429913D02*
X4722002Y-11420389D01*
X4722002Y-11420389D02*
X4712478Y-11410865D01*
X4712478Y-11410865D02*
X4702954Y-11391817D01*
X4702954Y-11391817D02*
X4693431Y-11353722D01*
X4693431Y-11353722D02*
X4693431Y-11306103D01*
X4693431Y-11306103D02*
X4702954Y-11268008D01*
X4702954Y-11268008D02*
X4712478Y-11248960D01*
X4712478Y-11248960D02*
X4722002Y-11239437D01*
X4722002Y-11239437D02*
X4741050Y-11229913D01*
X4893431Y-11410865D02*
X4902954Y-11420389D01*
X4902954Y-11420389D02*
X4893431Y-11429913D01*
X4893431Y-11429913D02*
X4883907Y-11420389D01*
X4883907Y-11420389D02*
X4893431Y-11410865D01*
X4893431Y-11410865D02*
X4893431Y-11429913D01*
X5026764Y-11229913D02*
X5045812Y-11229913D01*
X5045812Y-11229913D02*
X5064859Y-11239437D01*
X5064859Y-11239437D02*
X5074383Y-11248960D01*
X5074383Y-11248960D02*
X5083907Y-11268008D01*
X5083907Y-11268008D02*
X5093431Y-11306103D01*
X5093431Y-11306103D02*
X5093431Y-11353722D01*
X5093431Y-11353722D02*
X5083907Y-11391817D01*
X5083907Y-11391817D02*
X5074383Y-11410865D01*
X5074383Y-11410865D02*
X5064859Y-11420389D01*
X5064859Y-11420389D02*
X5045812Y-11429913D01*
X5045812Y-11429913D02*
X5026764Y-11429913D01*
X5026764Y-11429913D02*
X5007716Y-11420389D01*
X5007716Y-11420389D02*
X4998192Y-11410865D01*
X4998192Y-11410865D02*
X4988669Y-11391817D01*
X4988669Y-11391817D02*
X4979145Y-11353722D01*
X4979145Y-11353722D02*
X4979145Y-11306103D01*
X4979145Y-11306103D02*
X4988669Y-11268008D01*
X4988669Y-11268008D02*
X4998192Y-11248960D01*
X4998192Y-11248960D02*
X5007716Y-11239437D01*
X5007716Y-11239437D02*
X5026764Y-11229913D01*
X5264859Y-11296579D02*
X5264859Y-11429913D01*
X5217240Y-11220389D02*
X5169621Y-11363246D01*
X5169621Y-11363246D02*
X5293431Y-11363246D01*
X5350573Y-11229913D02*
X5483907Y-11229913D01*
X5483907Y-11229913D02*
X5398192Y-11429913D01*
X5550573Y-11248960D02*
X5560097Y-11239437D01*
X5560097Y-11239437D02*
X5579145Y-11229913D01*
X5579145Y-11229913D02*
X5626764Y-11229913D01*
X5626764Y-11229913D02*
X5645811Y-11239437D01*
X5645811Y-11239437D02*
X5655335Y-11248960D01*
X5655335Y-11248960D02*
X5664859Y-11268008D01*
X5664859Y-11268008D02*
X5664859Y-11287056D01*
X5664859Y-11287056D02*
X5655335Y-11315627D01*
X5655335Y-11315627D02*
X5541050Y-11429913D01*
X5541050Y-11429913D02*
X5664859Y-11429913D01*
X5741050Y-11229913D02*
X5741050Y-11268008D01*
X5817240Y-11229913D02*
X5817240Y-11268008D01*
X6112478Y-11506103D02*
X6102954Y-11496579D01*
X6102954Y-11496579D02*
X6083907Y-11468008D01*
X6083907Y-11468008D02*
X6074383Y-11448960D01*
X6074383Y-11448960D02*
X6064859Y-11420389D01*
X6064859Y-11420389D02*
X6055335Y-11372770D01*
X6055335Y-11372770D02*
X6055335Y-11334675D01*
X6055335Y-11334675D02*
X6064859Y-11287056D01*
X6064859Y-11287056D02*
X6074383Y-11258484D01*
X6074383Y-11258484D02*
X6083907Y-11239437D01*
X6083907Y-11239437D02*
X6102954Y-11210865D01*
X6102954Y-11210865D02*
X6112478Y-11201341D01*
X6179145Y-11248960D02*
X6188669Y-11239437D01*
X6188669Y-11239437D02*
X6207716Y-11229913D01*
X6207716Y-11229913D02*
X6255335Y-11229913D01*
X6255335Y-11229913D02*
X6274383Y-11239437D01*
X6274383Y-11239437D02*
X6283907Y-11248960D01*
X6283907Y-11248960D02*
X6293431Y-11268008D01*
X6293431Y-11268008D02*
X6293431Y-11287056D01*
X6293431Y-11287056D02*
X6283907Y-11315627D01*
X6283907Y-11315627D02*
X6169621Y-11429913D01*
X6169621Y-11429913D02*
X6293431Y-11429913D01*
X6531526Y-11429913D02*
X6531526Y-11229913D01*
X6617240Y-11429913D02*
X6617240Y-11325151D01*
X6617240Y-11325151D02*
X6607716Y-11306103D01*
X6607716Y-11306103D02*
X6588669Y-11296579D01*
X6588669Y-11296579D02*
X6560097Y-11296579D01*
X6560097Y-11296579D02*
X6541050Y-11306103D01*
X6541050Y-11306103D02*
X6531526Y-11315627D01*
X6741050Y-11429913D02*
X6722002Y-11420389D01*
X6722002Y-11420389D02*
X6712478Y-11410865D01*
X6712478Y-11410865D02*
X6702954Y-11391817D01*
X6702954Y-11391817D02*
X6702954Y-11334675D01*
X6702954Y-11334675D02*
X6712478Y-11315627D01*
X6712478Y-11315627D02*
X6722002Y-11306103D01*
X6722002Y-11306103D02*
X6741050Y-11296579D01*
X6741050Y-11296579D02*
X6769621Y-11296579D01*
X6769621Y-11296579D02*
X6788669Y-11306103D01*
X6788669Y-11306103D02*
X6798193Y-11315627D01*
X6798193Y-11315627D02*
X6807716Y-11334675D01*
X6807716Y-11334675D02*
X6807716Y-11391817D01*
X6807716Y-11391817D02*
X6798193Y-11410865D01*
X6798193Y-11410865D02*
X6788669Y-11420389D01*
X6788669Y-11420389D02*
X6769621Y-11429913D01*
X6769621Y-11429913D02*
X6741050Y-11429913D01*
X6922002Y-11429913D02*
X6902954Y-11420389D01*
X6902954Y-11420389D02*
X6893431Y-11401341D01*
X6893431Y-11401341D02*
X6893431Y-11229913D01*
X7074383Y-11420389D02*
X7055335Y-11429913D01*
X7055335Y-11429913D02*
X7017240Y-11429913D01*
X7017240Y-11429913D02*
X6998193Y-11420389D01*
X6998193Y-11420389D02*
X6988669Y-11401341D01*
X6988669Y-11401341D02*
X6988669Y-11325151D01*
X6988669Y-11325151D02*
X6998193Y-11306103D01*
X6998193Y-11306103D02*
X7017240Y-11296579D01*
X7017240Y-11296579D02*
X7055335Y-11296579D01*
X7055335Y-11296579D02*
X7074383Y-11306103D01*
X7074383Y-11306103D02*
X7083907Y-11325151D01*
X7083907Y-11325151D02*
X7083907Y-11344198D01*
X7083907Y-11344198D02*
X6988669Y-11363246D01*
X7160097Y-11420389D02*
X7179145Y-11429913D01*
X7179145Y-11429913D02*
X7217240Y-11429913D01*
X7217240Y-11429913D02*
X7236288Y-11420389D01*
X7236288Y-11420389D02*
X7245812Y-11401341D01*
X7245812Y-11401341D02*
X7245812Y-11391817D01*
X7245812Y-11391817D02*
X7236288Y-11372770D01*
X7236288Y-11372770D02*
X7217240Y-11363246D01*
X7217240Y-11363246D02*
X7188669Y-11363246D01*
X7188669Y-11363246D02*
X7169621Y-11353722D01*
X7169621Y-11353722D02*
X7160097Y-11334675D01*
X7160097Y-11334675D02*
X7160097Y-11325151D01*
X7160097Y-11325151D02*
X7169621Y-11306103D01*
X7169621Y-11306103D02*
X7188669Y-11296579D01*
X7188669Y-11296579D02*
X7217240Y-11296579D01*
X7217240Y-11296579D02*
X7236288Y-11306103D01*
X7312478Y-11506103D02*
X7322002Y-11496579D01*
X7322002Y-11496579D02*
X7341050Y-11468008D01*
X7341050Y-11468008D02*
X7350574Y-11448960D01*
X7350574Y-11448960D02*
X7360097Y-11420389D01*
X7360097Y-11420389D02*
X7369621Y-11372770D01*
X7369621Y-11372770D02*
X7369621Y-11334675D01*
X7369621Y-11334675D02*
X7360097Y-11287056D01*
X7360097Y-11287056D02*
X7350574Y-11258484D01*
X7350574Y-11258484D02*
X7341050Y-11239437D01*
X7341050Y-11239437D02*
X7322002Y-11210865D01*
X7322002Y-11210865D02*
X7312478Y-11201341D01*
M02*
