%TF.GenerationSoftware,KiCad,Pcbnew,8.0.5*%
%TF.CreationDate,2024-11-16T12:50:27+01:00*%
%TF.ProjectId,esp8266-expansion-board,65737038-3236-4362-9d65-7870616e7369,rev?*%
%TF.SameCoordinates,Original*%
%TF.FileFunction,Copper,L2,Bot*%
%TF.FilePolarity,Positive*%
%FSLAX46Y46*%
G04 Gerber Fmt 4.6, Leading zero omitted, Abs format (unit mm)*
G04 Created by KiCad (PCBNEW 8.0.5) date 2024-11-16 12:50:27*
%MOMM*%
%LPD*%
G01*
G04 APERTURE LIST*
%TA.AperFunction,ComponentPad*%
%ADD10R,1.700000X1.700000*%
%TD*%
%TA.AperFunction,ComponentPad*%
%ADD11O,1.700000X1.700000*%
%TD*%
%TA.AperFunction,ComponentPad*%
%ADD12R,2.000000X2.000000*%
%TD*%
%TA.AperFunction,ComponentPad*%
%ADD13C,2.000000*%
%TD*%
%TA.AperFunction,ComponentPad*%
%ADD14C,1.600000*%
%TD*%
%TA.AperFunction,ComponentPad*%
%ADD15O,1.600000X1.600000*%
%TD*%
%TA.AperFunction,ComponentPad*%
%ADD16O,2.000000X1.600000*%
%TD*%
%TA.AperFunction,Conductor*%
%ADD17C,1.250000*%
%TD*%
%TA.AperFunction,Conductor*%
%ADD18C,0.500000*%
%TD*%
G04 APERTURE END LIST*
D10*
%TO.P,J2,1,Pin_1*%
%TO.N,+3.3V*%
X41910000Y-95250000D03*
D11*
%TO.P,J2,2,Pin_2*%
%TO.N,/power_out*%
X44450000Y-95250000D03*
%TO.P,J2,3,Pin_3*%
%TO.N,+5V*%
X46990000Y-95250000D03*
%TD*%
D10*
%TO.P,J9,1,Pin_1*%
%TO.N,/+3v3*%
X66040000Y-40293187D03*
D11*
%TO.P,J9,2,Pin_2*%
%TO.N,/GPIO14B*%
X68580000Y-40293187D03*
%TO.P,J9,3,Pin_3*%
%TO.N,/GPIO12B*%
X71120000Y-40293187D03*
%TO.P,J9,4,Pin_4*%
%TO.N,/0V*%
X73660000Y-40293187D03*
%TD*%
D12*
%TO.P,J1,1,Pin_1*%
%TO.N,+5V*%
X30480000Y-78740000D03*
D13*
%TO.P,J1,2,Pin_2*%
%TO.N,GND*%
X33020000Y-78740000D03*
%TD*%
D11*
%TO.P,J5,8,Pin_8*%
%TO.N,/GPIO15A*%
X40640000Y-91440000D03*
%TO.P,J5,7,Pin_7*%
%TO.N,/GPIO14A*%
X40640000Y-88900000D03*
%TO.P,J5,6,Pin_6*%
%TO.N,/GPIO13A*%
X40640000Y-86360000D03*
%TO.P,J5,5,Pin_5*%
%TO.N,/GPIO12A*%
X40640000Y-83820000D03*
%TO.P,J5,4,Pin_4*%
%TO.N,/GPIO5A*%
X40640000Y-81280000D03*
%TO.P,J5,3,Pin_3*%
%TO.N,/GPIO4A*%
X40640000Y-78740000D03*
%TO.P,J5,2,Pin_2*%
%TO.N,/GPIO2A*%
X40640000Y-76200000D03*
D10*
%TO.P,J5,1,Pin_1*%
%TO.N,/GPIO0A*%
X40640000Y-73660000D03*
%TD*%
%TO.P,J8,1,Pin_1*%
%TO.N,/+3v3*%
X66040000Y-45373187D03*
D11*
%TO.P,J8,2,Pin_2*%
%TO.N,/GPIO4B*%
X68580000Y-45373187D03*
%TO.P,J8,3,Pin_3*%
%TO.N,/GPIO5B*%
X71120000Y-45373187D03*
%TO.P,J8,4,Pin_4*%
%TO.N,/0V*%
X73660000Y-45373187D03*
%TD*%
%TO.P,J4,8,Pin_8*%
%TO.N,/power_out*%
X44450000Y-91440000D03*
%TO.P,J4,7,Pin_7*%
X44450000Y-88900000D03*
%TO.P,J4,6,Pin_6*%
X44450000Y-86360000D03*
%TO.P,J4,5,Pin_5*%
X44450000Y-83820000D03*
%TO.P,J4,4,Pin_4*%
X44450000Y-81280000D03*
%TO.P,J4,3,Pin_3*%
X44450000Y-78740000D03*
%TO.P,J4,2,Pin_2*%
X44450000Y-76200000D03*
D10*
%TO.P,J4,1,Pin_1*%
X44450000Y-73660000D03*
%TD*%
%TO.P,J7,1,Pin_1*%
%TO.N,Net-(J7-Pin_1)*%
X79751775Y-55367942D03*
D11*
%TO.P,J7,2,Pin_2*%
%TO.N,/ADC0B*%
X79751775Y-57907942D03*
%TD*%
D14*
%TO.P,R2,1*%
%TO.N,Net-(J7-Pin_1)*%
X83820000Y-52993187D03*
D15*
%TO.P,R2,2*%
%TO.N,/+3v3*%
X83820000Y-60613187D03*
%TD*%
D11*
%TO.P,J3,8,Pin_8*%
%TO.N,GND*%
X48260000Y-91440000D03*
%TO.P,J3,7,Pin_7*%
X48260000Y-88900000D03*
%TO.P,J3,6,Pin_6*%
X48260000Y-86360000D03*
%TO.P,J3,5,Pin_5*%
X48260000Y-83820000D03*
%TO.P,J3,4,Pin_4*%
X48260000Y-81280000D03*
%TO.P,J3,3,Pin_3*%
X48260000Y-78740000D03*
%TO.P,J3,2,Pin_2*%
X48260000Y-76200000D03*
D10*
%TO.P,J3,1,Pin_1*%
X48260000Y-73660000D03*
%TD*%
%TO.P,J10,1,Pin_1*%
%TO.N,/5V*%
X66040000Y-35213187D03*
D11*
%TO.P,J10,2,Pin_2*%
%TO.N,/GPIO0B*%
X68580000Y-35213187D03*
%TO.P,J10,3,Pin_3*%
%TO.N,/GPIO2B*%
X71120000Y-35213187D03*
%TO.P,J10,4,Pin_4*%
%TO.N,/0V*%
X73660000Y-35213187D03*
%TD*%
D12*
%TO.P,U2,1,~{RST}*%
%TO.N,unconnected-(U2-~{RST}-Pad1)*%
X83820000Y-88553187D03*
D16*
%TO.P,U2,2,A0*%
%TO.N,/ADC0B*%
X83820000Y-86013187D03*
%TO.P,U2,3,D0*%
%TO.N,unconnected-(U2-D0-Pad3)*%
X83820000Y-83473187D03*
%TO.P,U2,4,SCK/D5*%
%TO.N,/GPIO14B*%
X83820000Y-80933187D03*
%TO.P,U2,5,MISO/D6*%
%TO.N,/GPIO12B*%
X83820000Y-78393187D03*
%TO.P,U2,6,MOSI/D7*%
%TO.N,/GPIO13B*%
X83820000Y-75853187D03*
%TO.P,U2,7,CS/D8*%
%TO.N,/GPIO15B*%
X83820000Y-73313187D03*
%TO.P,U2,8,3V3*%
%TO.N,/+3v3*%
X83820000Y-70773187D03*
%TO.P,U2,9,5V*%
%TO.N,/5V*%
X60960000Y-70773187D03*
%TO.P,U2,10,GND*%
%TO.N,/0V*%
X60960000Y-73313187D03*
%TO.P,U2,11,D4*%
%TO.N,/GPIO2B*%
X60960000Y-75853187D03*
%TO.P,U2,12,D3*%
%TO.N,/GPIO0B*%
X60960000Y-78393187D03*
%TO.P,U2,13,SDA/D2*%
%TO.N,/GPIO4B*%
X60960000Y-80933187D03*
%TO.P,U2,14,SCL/D1*%
%TO.N,/GPIO5B*%
X60960000Y-83473187D03*
%TO.P,U2,15,RX*%
%TO.N,unconnected-(U2-RX-Pad15)*%
X60960000Y-86013187D03*
%TO.P,U2,16,TX*%
%TO.N,unconnected-(U2-TX-Pad16)*%
X60960000Y-88553187D03*
%TD*%
%TO.P,U1,16,TX*%
%TO.N,unconnected-(U1-TX-Pad16)*%
X50714850Y-34593478D03*
%TO.P,U1,15,RX*%
%TO.N,unconnected-(U1-RX-Pad15)*%
X50714850Y-37133478D03*
%TO.P,U1,14,SCL/D1*%
%TO.N,/GPIO5A*%
X50714850Y-39673478D03*
%TO.P,U1,13,SDA/D2*%
%TO.N,/GPIO4A*%
X50714850Y-42213478D03*
%TO.P,U1,12,D3*%
%TO.N,/GPIO0A*%
X50714850Y-44753478D03*
%TO.P,U1,11,D4*%
%TO.N,/GPIO2A*%
X50714850Y-47293478D03*
%TO.P,U1,10,GND*%
%TO.N,GND*%
X50714850Y-49833478D03*
%TO.P,U1,9,5V*%
%TO.N,+5V*%
X50714850Y-52373478D03*
%TO.P,U1,8,3V3*%
%TO.N,+3.3V*%
X27854850Y-52373478D03*
%TO.P,U1,7,CS/D8*%
%TO.N,/GPIO15A*%
X27854850Y-49833478D03*
%TO.P,U1,6,MOSI/D7*%
%TO.N,/GPIO13A*%
X27854850Y-47293478D03*
%TO.P,U1,5,MISO/D6*%
%TO.N,/GPIO12A*%
X27854850Y-44753478D03*
%TO.P,U1,4,SCK/D5*%
%TO.N,/GPIO14A*%
X27854850Y-42213478D03*
%TO.P,U1,3,D0*%
%TO.N,unconnected-(U1-D0-Pad3)*%
X27854850Y-39673478D03*
%TO.P,U1,2,A0*%
%TO.N,/ADC0A*%
X27854850Y-37133478D03*
D12*
%TO.P,U1,1,~{RST}*%
%TO.N,unconnected-(U1-~{RST}-Pad1)*%
X27854850Y-34593478D03*
%TD*%
D14*
%TO.P,R1,1*%
%TO.N,Net-(J6-Pin_1)*%
X29178085Y-62350192D03*
D15*
%TO.P,R1,2*%
%TO.N,+3.3V*%
X29178085Y-54730192D03*
%TD*%
D10*
%TO.P,J6,1,Pin_1*%
%TO.N,Net-(J6-Pin_1)*%
X29455323Y-66127646D03*
D11*
%TO.P,J6,2,Pin_2*%
%TO.N,/ADC0A*%
X29455323Y-68667646D03*
%TD*%
D17*
%TO.N,GND*%
X34695000Y-93115000D02*
X33020000Y-91440000D01*
X46585000Y-93115000D02*
X34695000Y-93115000D01*
X33020000Y-91440000D02*
X33020000Y-78740000D01*
X48260000Y-91440000D02*
X46585000Y-93115000D01*
%TO.N,+5V*%
X46990000Y-95250000D02*
X45315000Y-96925000D01*
X45315000Y-96925000D02*
X32155000Y-96925000D01*
X32155000Y-96925000D02*
X30480000Y-95250000D01*
X30480000Y-95250000D02*
X30480000Y-78740000D01*
%TO.N,GND*%
X48260000Y-73660000D02*
X48260000Y-91440000D01*
X50714850Y-49833478D02*
X48260000Y-52288328D01*
X48260000Y-52288328D02*
X48260000Y-73660000D01*
%TO.N,+5V*%
X50714850Y-52373478D02*
X50714850Y-93980000D01*
X46990000Y-95250000D02*
X49444850Y-95250000D01*
X49444850Y-95250000D02*
X50714850Y-93980000D01*
D18*
%TO.N,/ADC0B*%
X81280000Y-86013187D02*
X83820000Y-86013187D01*
X79751775Y-57907942D02*
X79751775Y-84484962D01*
X79751775Y-84484962D02*
X81280000Y-86013187D01*
D17*
%TO.N,/+3v3*%
X83820000Y-60613187D02*
X83820000Y-70773187D01*
X81280000Y-47913187D02*
X68580000Y-47913187D01*
X83820000Y-60613187D02*
X82195000Y-58988187D01*
X68580000Y-47913187D02*
X66040000Y-45373187D01*
X82195000Y-58988187D02*
X82195000Y-48828187D01*
X66040000Y-45373187D02*
X66040000Y-40293187D01*
X82195000Y-48828187D02*
X81280000Y-47913187D01*
%TO.N,/5V*%
X63500000Y-35213187D02*
X66040000Y-35213187D01*
X60960000Y-70773187D02*
X60960000Y-37753187D01*
X60960000Y-37753187D02*
X63500000Y-35213187D01*
%TO.N,/0V*%
X63500000Y-70773187D02*
X63500000Y-37753187D01*
X73660000Y-37753187D02*
X73660000Y-35213187D01*
X73660000Y-37753187D02*
X73660000Y-40293187D01*
X60960000Y-73313187D02*
X63500000Y-70773187D01*
X63500000Y-37753187D02*
X73660000Y-37753187D01*
X73660000Y-40293187D02*
X73660000Y-45373187D01*
%TD*%
M02*
