%TF.GenerationSoftware,KiCad,Pcbnew,8.0.5*%
%TF.CreationDate,2024-11-16T12:50:28+01:00*%
%TF.ProjectId,esp8266-expansion-board,65737038-3236-4362-9d65-7870616e7369,rev?*%
%TF.SameCoordinates,Original*%
%TF.FileFunction,Soldermask,Top*%
%TF.FilePolarity,Negative*%
%FSLAX46Y46*%
G04 Gerber Fmt 4.6, Leading zero omitted, Abs format (unit mm)*
G04 Created by KiCad (PCBNEW 8.0.5) date 2024-11-16 12:50:28*
%MOMM*%
%LPD*%
G01*
G04 APERTURE LIST*
%ADD10R,1.700000X1.700000*%
%ADD11O,1.700000X1.700000*%
%ADD12R,2.000000X2.000000*%
%ADD13C,2.000000*%
%ADD14C,1.600000*%
%ADD15O,1.600000X1.600000*%
%ADD16O,2.000000X1.600000*%
G04 APERTURE END LIST*
D10*
%TO.C,J2*%
X41910000Y-95250000D03*
D11*
X44450000Y-95250000D03*
X46990000Y-95250000D03*
%TD*%
D10*
%TO.C,J9*%
X66040000Y-40293187D03*
D11*
X68580000Y-40293187D03*
X71120000Y-40293187D03*
X73660000Y-40293187D03*
%TD*%
D12*
%TO.C,J1*%
X30480000Y-78740000D03*
D13*
X33020000Y-78740000D03*
%TD*%
D11*
%TO.C,J5*%
X40640000Y-91440000D03*
X40640000Y-88900000D03*
X40640000Y-86360000D03*
X40640000Y-83820000D03*
X40640000Y-81280000D03*
X40640000Y-78740000D03*
X40640000Y-76200000D03*
D10*
X40640000Y-73660000D03*
%TD*%
%TO.C,J8*%
X66040000Y-45373187D03*
D11*
X68580000Y-45373187D03*
X71120000Y-45373187D03*
X73660000Y-45373187D03*
%TD*%
%TO.C,J4*%
X44450000Y-91440000D03*
X44450000Y-88900000D03*
X44450000Y-86360000D03*
X44450000Y-83820000D03*
X44450000Y-81280000D03*
X44450000Y-78740000D03*
X44450000Y-76200000D03*
D10*
X44450000Y-73660000D03*
%TD*%
%TO.C,J7*%
X79751775Y-55367942D03*
D11*
X79751775Y-57907942D03*
%TD*%
D14*
%TO.C,R2*%
X83820000Y-52993187D03*
D15*
X83820000Y-60613187D03*
%TD*%
D11*
%TO.C,J3*%
X48260000Y-91440000D03*
X48260000Y-88900000D03*
X48260000Y-86360000D03*
X48260000Y-83820000D03*
X48260000Y-81280000D03*
X48260000Y-78740000D03*
X48260000Y-76200000D03*
D10*
X48260000Y-73660000D03*
%TD*%
%TO.C,J10*%
X66040000Y-35213187D03*
D11*
X68580000Y-35213187D03*
X71120000Y-35213187D03*
X73660000Y-35213187D03*
%TD*%
D12*
%TO.C,U2*%
X83820000Y-88553187D03*
D16*
X83820000Y-86013187D03*
X83820000Y-83473187D03*
X83820000Y-80933187D03*
X83820000Y-78393187D03*
X83820000Y-75853187D03*
X83820000Y-73313187D03*
X83820000Y-70773187D03*
X60960000Y-70773187D03*
X60960000Y-73313187D03*
X60960000Y-75853187D03*
X60960000Y-78393187D03*
X60960000Y-80933187D03*
X60960000Y-83473187D03*
X60960000Y-86013187D03*
X60960000Y-88553187D03*
%TD*%
%TO.C,U1*%
X50714850Y-34593478D03*
X50714850Y-37133478D03*
X50714850Y-39673478D03*
X50714850Y-42213478D03*
X50714850Y-44753478D03*
X50714850Y-47293478D03*
X50714850Y-49833478D03*
X50714850Y-52373478D03*
X27854850Y-52373478D03*
X27854850Y-49833478D03*
X27854850Y-47293478D03*
X27854850Y-44753478D03*
X27854850Y-42213478D03*
X27854850Y-39673478D03*
X27854850Y-37133478D03*
D12*
X27854850Y-34593478D03*
%TD*%
D14*
%TO.C,R1*%
X29178085Y-62350192D03*
D15*
X29178085Y-54730192D03*
%TD*%
D10*
%TO.C,J6*%
X29455323Y-66127646D03*
D11*
X29455323Y-68667646D03*
%TD*%
M02*
